/* XPM */
static char *result[] = {
/* columns rows colors chars-per-pixel */
"64 64 242 2 ",
"   c #202020",
".  c #A40808",
"X  c #B41818",
"o  c #DE5241",
"O  c #FF5A5A",
"+  c #4FDD90",
"@  c #50DF91",
"#  c #4FE390",
"$  c #4DE590",
"%  c #4EE590",
"&  c #4FE590",
"*  c #4EE790",
"=  c #4FE791",
"-  c #4FE891",
";  c #4FEA91",
":  c #4FEC91",
">  c #4FED91",
",  c #4FEE91",
"<  c #51E091",
"1  c #50E290",
"2  c #51E391",
"3  c #50E591",
"4  c #50E691",
"5  c #51E691",
"6  c #50E791",
"7  c #51E592",
"8  c #51E792",
"9  c #54E791",
"0  c #50E891",
"q  c #51E891",
"w  c #50E991",
"e  c #51E991",
"r  c #50EA91",
"t  c #50EB91",
"y  c #51E992",
"u  c #52E892",
"i  c #52E992",
"p  c #51EA92",
"a  c #50EB92",
"s  c #51EB92",
"d  c #52EA92",
"f  c #52EB92",
"g  c #50EC92",
"h  c #51EC92",
"j  c #50ED92",
"k  c #51ED92",
"l  c #52EC92",
"z  c #52ED92",
"x  c #52ED93",
"c  c #51EE92",
"v  c #50EF92",
"b  c #51EF92",
"n  c #52EE93",
"m  c #52EF93",
"M  c #5BEF95",
"N  c #5BEF96",
"B  c #5FED98",
"V  c #4FF091",
"C  c #4FF192",
"Z  c #50F092",
"A  c #51F092",
"S  c #50F192",
"D  c #51F192",
"F  c #51F193",
"G  c #52F093",
"H  c #52F193",
"J  c #50F292",
"K  c #51F292",
"L  c #50F392",
"P  c #51F392",
"I  c #51F393",
"U  c #52F293",
"Y  c #52F393",
"T  c #56F193",
"R  c #57F193",
"E  c #55F292",
"W  c #50F492",
"Q  c #51F492",
"!  c #51F493",
"~  c #51F593",
"^  c #52F493",
"/  c #52F593",
"(  c #50F692",
")  c #51F693",
"_  c #50F793",
"`  c #51F793",
"'  c #52F693",
"]  c #53F693",
"[  c #52F793",
"{  c #54F194",
"}  c #53F694",
"|  c #58F194",
" . c #5AF397",
".. c #50F893",
"X. c #51F893",
"o. c #51F993",
"O. c #52F893",
"+. c #52F993",
"@. c #51FA93",
"#. c #51FB93",
"$. c #52FA93",
"%. c #52FB93",
"&. c #51FC93",
"*. c #52F994",
"=. c #53F994",
"-. c #52FA94",
";. c #52FB94",
":. c #53FB94",
">. c #55FA95",
",. c #56FA95",
"<. c #57F896",
"1. c #51FD94",
"2. c #52FC94",
"3. c #53FC94",
"4. c #52FD94",
"5. c #52FE94",
"6. c #53FE94",
"7. c #52FF94",
"8. c #53FF94",
"9. c #53FE95",
"0. c #53FF95",
"q. c #54FE95",
"w. c #55FE95",
"e. c #54FF95",
"r. c #55FD96",
"t. c #57FC96",
"y. c #56FD96",
"u. c #57FD96",
"i. c #57FC97",
"p. c #57FD97",
"a. c #55FE96",
"s. c #56FE96",
"d. c #57FE96",
"f. c #58FD96",
"g. c #58FC97",
"h. c #59FD97",
"j. c #5AFC97",
"k. c #58FB98",
"l. c #59FB98",
"z. c #5AFB98",
"x. c #5BFA99",
"c. c #5AFB99",
"v. c #5BFB99",
"b. c #5CFA99",
"n. c #5CFB99",
"m. c #5EFB99",
"M. c #5DF99A",
"N. c #5FF89B",
"B. c #5EF99B",
"V. c #5FF99B",
"C. c #5CFA9A",
"Z. c #5DFA9A",
"A. c #5CFB9A",
"S. c #5EFA9A",
"D. c #5EFA9B",
"F. c #58FC98",
"G. c #59FC98",
"H. c #58FD98",
"J. c #5AFC98",
"K. c #5BFC98",
"L. c #5AFC99",
"P. c #58FE98",
"I. c #58FF98",
"U. c #58FE99",
"Y. c #58FF99",
"T. c #5CFC98",
"R. c #5CFD98",
"E. c #5EFC99",
"W. c #5FFC9A",
"Q. c #5FF99C",
"!. c #62EB9A",
"~. c #63EB9A",
"^. c #64EA9B",
"/. c #65E99C",
"(. c #62F79D",
"). c #63F69E",
"_. c #63F79E",
"`. c #66F79D",
"'. c #65F59F",
"]. c #66F59F",
"[. c #64F69E",
"{. c #68F79E",
"}. c #6AF69F",
"|. c #6AF79F",
" X c #60F99A",
".X c #61F99B",
"XX c #61FA9B",
"oX c #60F89C",
"OX c #61F89C",
"+X c #60F99C",
"@X c #61F89D",
"#X c #64F89C",
"$X c #64F99C",
"%X c #66F89D",
"&X c #67F89D",
"*X c #64FA9C",
"=X c #68F89E",
"-X c #68F99E",
";X c #79EEA7",
":X c #78EFA7",
">X c #7AEFA8",
",X c #7FEEAA",
"<X c #67F4A0",
"1X c #66F5A0",
"2X c #67F5A0",
"3X c #67F4A1",
"4X c #68F3A1",
"5X c #69F3A1",
"6X c #69F3A2",
"7X c #6AF2A2",
"8X c #6AF3A2",
"9X c #6CF1A3",
"0X c #6BF7A0",
"qX c #6CF5A0",
"wX c #6CF6A0",
"eX c #6DF6A0",
"rX c #6DF6A1",
"tX c #6FF4A2",
"yX c #6FF6A2",
"uX c #6CF1A4",
"iX c #6DF1A4",
"pX c #72F3A3",
"aX c #70F5A2",
"sX c #71F5A2",
"dX c #71F4A3",
"fX c #71F5A3",
"gX c #72F4A3",
"hX c #73F4A3",
"jX c #72F5A3",
"kX c #75F2A5",
"lX c #75F3A5",
"zX c #76F4A5",
"xX c #78F1A7",
"cX c #79F1A7",
"vX c #7AF0A7",
"bX c #78F3A6",
"nX c #79F2A7",
"mX c #7AF1A8",
"MX c #7BF2A8",
"NX c #7CF0A9",
"BX c #FF8383",
"VX c #FF9C9C",
/* pixels */
" .E E E N E E E E E /.E E E 9 E E E E E E E E M E E E E E !.T E E 9 E E E E E E E E ~.E E E E E R B E E 9 E E E E E E E E ^.| E ",
"I.7.r.(.Z.C.7.7.7.8X_.[.>.r D p 7.7.7.7.7.7.[.p.OX7.7.7.OX].(.G.3 ' 7 7.7.7.7.7.7.@XoX(.7.7.7.v.oX1XoXp ) u 4.7.7.7.7.7.v.2XB.C.",
"I.7.7.v.s.7.7.7.7.J.9.g.7...4.2.7.p.8.7.7.7.c.7.a.7.7.7.y.p.G.7...7.$.7.7.r.7.7.7.G.8.a.7.7.7.7.G.G.9.@.7.;.7.7.y.7.7.7.q.p.y.7.",
"I.7.7.7.7.7.7.7.7.7.7.7.7.7.7.7.Z.5XZ.l.7.7.7.7.7.7.7.7.7.7.7.7.7.7.7.v.i.'.l.7.7.7.7.7.7.7.7.7.7.7.7.7.7.7.y.G.<Xb.7.7.7.7.7.7.",
"I.7.7.7.7.7.7.7.7.7.7.7.7.7.7.7.p.G.z.7.7.7.7.7.7.7.7.7.7.7.7.7.7.7.7.7.y.x.q.7.7.7.7.7.7.7.7.7.7.7.7.7.7.7.7.y.p.G.7.7.7.7.7.7.",
"I.7.7.7.7.7.7.7.7.7.7.7.7.7.7.7.7.7.7.7.7.7.7.7.7.7.7.7.7.7.7.7.7.7.7.7.7.7.7.7.7.7.7.7.7.7.7.7.7.7.7.7.7.7.7.7.7.7.7.7.7.7.7.7.",
"I.7.7.7.7.7.7.7.7.7.7.7.7.7.7.7.7.7.7.7.7.7.7.7.7.7.7.7.7.7.7.7.7.7.7.7.7.7.7.7.7.7.7.7.7.7.7.7.7.7.7.7.7.7.7.7.7.7.7.7.7.7.7.7.",
"I.7.7.7.7.7.7.7.7.7.7.7.7.7.7.7./ & ' / 7.7.7.7.7.7.7.7.7.7.7.7.7.7.7./ { q ] 7.7.7.7.7.7.7.7.7.7.7.7.7.7.7.-.[ < } 7.7.7.7.7.7.",
"I.7.7.7.7.7.7.7.7.7.7.7.7.7.7.7.X.( f 7.7.7.7.7.7.7.7.7.7.7.7.7.7.7.7.7.@.J 4.7.7.7.7.7.7.7.7.7.7.7.7.7.7.7.7.@.X.( 7.7.7.7.7.7.",
"I.7.7.7.7.7.7.7.7.7.7.7.7.7.7.V.3X1XG.7.7.7.7.7.7.7.7.7.7.7.7.7.7.7.p.oXD.J.7.7.7.7.7.7.7.7.7.7.7.7.7.7.7.7.[.D.J.7.7.7.7.7.7.7.",
"H.1.b ` 7.7.7.7.7.7.7.7.7.7.7.g.V.'.g.7.$.b X.7.7.7.7.7.7.7.7.7.7.7.w.V.i.oX7.$.* X.5.7.7.7.7.7.7.7.7.7.7.7.oXa.).7.$.6 } @.7.7.",
"H.> ` K 7.7.7.[ ^ +.-.7.7.7.7.7.7.7.7.7.; %.c 7.7.7.4.O.I -.7.7.7.7.7.7.7.7.7.Z L b 5.7.7.7.;.) 2.7.7.7.7.7.7.7.7.7.` g ! #.7.7.",
"I.7.7.7.7.7.7.[ Y c [ 7.7.7.7.7.7.7.7.7.7.7.7.7.7.7.4.m Y A 7.7.7.7.7.7.7.7.7.7.7.7.7.7.7.7.i ;.h 7.7.7.7.7.7.7.7.7.7.7.7.7.7.7.",
"I.7.7.E.yXR.e.7.7.7.7.7.7.7.7.7.7.7.7.7.7.7.W.dX.XT.7.7.7.7.7.7.7.7.7.7.7.7.7.7.7.m.%X0Xh.7.7.7.7.7.7.7.7.7.7.7.7.7.7.7.s.K.zXh.",
"I.7.7.MXgX,Xd.7.7.7.7.7.7.7.7.7.7.7.7.7.7.7.lXcX;X}.7.7.7.7.7.7.7.7.7.7.7.7.7.7.7.tXwXxX`.7.7.7.7.7.7.7.7.7.7.7.7.7.7.7.m.kXlXhX",
"I.7.7.w.e.s.7.7.7.7.7.7.7.7.7.7.7.7.7.7.7.7.8.w.s.7.7.7.7.7.7.7.7.7.7.7.7.7.7.7.7.7.0.s.7.7.7.7.7.7.7.7.7.7.7.7.7.7.7.7.7.w.8.w.",
"I.7.7.7.7.7.7.7.7.7.7.7.7.7.7.7.7.7.7.7.7.7.7.7.7.7.7.7.7.7.7.7.7.7.7.7.7.7.7.7.7.7.7.7.7.7.7.7.7.7.7.7.7.7.7.7.7.7.7.7.7.7.7.7.",
"I.7.7.7.p.7.7.7.7.7.V.7.7.7.` 7.7.7.7.7.7.7.7.p.7.7.7.7.7.Z.q.7.7.` 7.7.7.7.7.7.7.7.Z.7.7.7.7.7.q.z.7.7.[ 7.7.7.7.7.7.7.7.S.q.7.",
"I.7.y.i.Z.M.7.7.7.(.9XS.,./ h h 7.7.7.7.7.7.z.n.V.7.7.7.Z.4Xv.z.G c f 7.7.7.7.7.7.G.4XoX7.7.7.C.G.[.oXH c l 4.7.7.7.7.7.G.8Xn.S.",
"I.7.7.b.y.7.7.7.7.v.q.G.7.P 2.;.7.z.9.7.7.7.v.7.y.7.7.7.p.g.z.7.P 7.+.7.9.g.7.7.7.z.8.y.7.7.7.7.z.v.q.` 7.+.7.7.z.7.7.7.q.g.y.7.",
"I.7.7.7.7.7.7.7.7.7.7.7.7.7.7.7.oX5XN.b.7.7.7.7.7.7.7.7.7.7.7.7.7.7.7.B.g.].x.7.7.7.7.7.7.7.7.7.7.7.7.7.7.7.p.C.<XB.7.7.7.7.7.7.",
"I.7.7.7.7.7.7.7.7.7.7.7.7.7.7.7.a.y.p.7.7.7.7.7.7.7.                                7.7.7.7.7.7.7.7.7.7.7.7.7.q.a.y.7.7.7.7.7.7.",
"I.7.7.7.7.7.7.7.7.7.7.7.7.7.7.7.7.7.7.7.7.7.7.7.7.  o BXVXVXVXVXVXVXVXVXVXVXVXVXVXBX  7.7.7.7.7.7.7.7.7.7.7.7.7.7.7.7.7.7.7.7.7.",
"I.7.7.7.7.7.7.7.7.7.7.7.7.7.7.7.7.7.7.7.7.7.7.7.7.  BXO o O o O O O O O O O O O BXO   7.7.7.7.7.7.7.7.7.7.7.7.7.7.7.7.7.7.7.7.7.",
"I.7.7.7.7.7.7.7.7.7.7.7.7.7.7.7.W $ ) ! 7.7.7.7.  o BXo O O O O O O O O O O O O BXO   7.7.7.7.7.7.7.7.7.7.7.[ ! + ) 7.7.7.7.7.7.",
"I.7.7.7.7.7.7.7.7.7.7.7.7.7.7.7.X.( d 7.7.7.7.7.  BXBXO O O O O O O O O O O O O BXX   7.7.7.7.7.7.7.7.7.7.7.7.o.X.( 7.7.7.7.7.7.",
"I.7.7.7.7.7.7.7.7.7.7.7.7.7.7.u.V.oXq.7.7.7.7.7.  BXO O O O O O O O O O O O O O BX.   7.7.7.7.7.7.7.7.7.7.7.g.c.w.7.7.7.7.7.7.7.",
"P.4.D *.7.7.7.7.7.7.7.7.7.7.7.G.V._.p.7.2.G -.7.  BXO O O O O O O O O O O O O BXBX.   7.7.7.7.7.7.7.7.7.7.7.oXa.OX7.2.w =.;.7.7.",
"H.> ~ z 7.7.7.#.[ $.2.7.7.7.7.7.7.7.7.7.; O.i   o BXO O O O O O O O O O O O O BXO .   7.7.7.2.X.4.7.7.7.7.7.7.7.7.7.^ e Y O.7.7.",
"I.7.7.7.7.7.7.Q G V ~ 7.7.7.7.7.7.7.7.7.7.7.7.  BXBXO O O O O O O O O O O O O BXX .   7.7.7.0 #.> 7.7.7.7.7.7.7.7.7.7.7.7.7.7.7.",
"I.7.7.7.*X7.7.7.7.7.7.7.7.7.7.7.7.7.7.7.7.7.7.  BXO O O O O O O O O O O O O O BX. .   XX7.7.7.7.7.7.7.7.7.7.7.7.7.7.7.7.7.7.-X7.",
"I.7.7.lXaX>Xw.7.7.7.7.7.7.7.7.7.7.7.7.7.7.7.rX  BXO O O O O O O O O O O O O BXBX.   |.vX X7.7.7.7.7.7.7.7.7.7.7.7.7.7.7.h.tXjXsX",
"I.7.7.q.6.w.7.7.7.7.7.7.7.7.7.7.7.7.7.7.7.7.  o BXO O O O O O O O O O O O O BXO .   8.w.7.7.7.7.7.7.7.7.7.7.7.7.7.7.7.7.7.9.8.q.",
"I.7.7.7.7.7.7.7.7.7.7.7.7.7.7.7.7.7.7.7.7.7.  BXBXO O O O O O O O O O O O O BXX .   7.7.7.7.7.7.7.7.7.7.7.7.7.7.7.7.7.7.7.7.7.7.",
"I.7.7.7.a.7.7.7.7.7.J.7.7.7.%.7.7.7.7.7.7.7.  BXO O O O O O O O O O O O O O BX. .   G.7.7.7.7.7.9.u.7.7.%.7.7.7.7.7.7.7.7.G.9.7.",
"I.7.p.M.V.OX7.7.7.6XuX_.<.W k : 7.7.7.7.7.7.  BXO O O O O O O O O O O o O BXBX.   Z.4X'.7.7.7.V.b.<X[.D b a 4.7.7.7.7.7.v.9XB.OX",
"I.7.7.v.s.7.7.7.7.J.q.G.7._ 4.2.7.y.8.7.7.  o BXO O O O O O O O O O o O o BXO .   G.8.a.7.7.7.7.G.J.q.@.7.;.7.7.r.7.7.7.q.p.y.7.",
"I.7.7.7.7.7.7.7.7.7.7.7.7.7.7.7.V.7XM.z.7.  BXO O O O O O O O o O o O o O BXX .   7.7.7.7.7.7.7.7.7.7.7.7.7.y.c.4Xb.7.7.7.7.7.7.",
"I.7.7.7.7.7.7.7.7.7.7.7.7.7.7.7.J.Z.V.7.7.  BXVXVXVXVXVXVXVXVXVXVXVXVXVXVXVX. .   7.7.7.7.7.7.7.7.7.7.7.7.7.7.g.z.Z.7.7.7.7.7.7.",
"I.7.7.7.7.7.7.7.7.7.7.7.7.7.7.7.7.7.7.7.7.  X . . . . . . . . . . . . . . X .   7.7.7.7.7.7.7.7.7.7.7.7.7.7.7.7.7.7.7.7.7.7.7.7.",
"I.7.7.7.7.7.7.7.7.7.7.7.7.7.7.7.7.7.7.7.7.  o X X X X X X X X X X X X X X X .   7.7.7.7.7.7.7.7.7.7.7.7.7.7.7.7.7.7.7.7.7.7.7.7.",
"I.7.7.7.7.7.7.7.7.7.7.7.7.7.7.7.~ % ' ' 7.  o X X X X X X X X X X X X X X X .   7.7.7.7.7.7.7.7.7.7.7.7.7.7.*.' @ [ 7.7.7.7.7.7.",
"I.7.7.7.7.7.7.7.7.7.7.7.7.7.7.7.C > 8 ) 7.7.                                  7.7.7.7.7.7.7.7.7.7.7.7.7.7.7.+.D j v 7.7.7.7.7.7.",
"I.7.7.7.7.7.7.7.7.7.7.7.7.7.7.p.Q.oXw.7.7.7.7.7.7.7.7.7.7.7.7.7.7.7.q.g.c.a.7.7.7.7.7.7.7.7.7.7.7.7.7.7.7.7.J.c.a.7.7.7.7.7.7.7.",
"P.4.A X.7.7.7.7.7.7.7.7.7.7.7.G.+X].g.7.;.A X.7.7.7.7.7.7.7.7.7.7.7.a.Q.g.+X7.;.* o.5.7.7.7.7.7.7.7.7.7.7.7.@Xa.[.7.;.0 } #.7.7.",
"H.g ` K 7.7.7.O.^ +.;.7.7.7.7.7.7.7.7.7.w %.k 7.7.7.4.+.I ;.7.7.7.7.7.7.7.7.7.b J c 5.7.7.7.;.) 2.7.7.7.7.7.7.7.7.7.) s ^ #.7.7.",
"I.7.7.7.7.7.7.v x , K 7.7.7.7.7.7.7.7.7.7.7.7.7.7.7.#.- Z t 7.7.7.7.7.7.7.7.7.7.7.7.7.7.7.7.2 o.; 7.7.7.7.7.7.7.7.7.7.7.7.7.7.7.",
"I.7.7.7.&X7.7.7.7.7.7.7.7.7.7.7.7.7.7.7.7.7.7.{.j.7.7.7.7.7.7.7.7.7.7.7.7.7.7.7.7.7.m.$X7.7.7.7.7.7.7.7.7.7.7.7.7.7.7.7.7.7.eX7.",
"I.7.7.bXjXNXs.7.7.7.7.7.7.7.7.7.7.7.7.7.7.7.fXmX:X=X7.7.7.7.7.7.7.7.7.7.7.7.7.7.7.qXwXnX#X7.7.7.7.7.7.7.7.7.7.7.7.7.7.7.T.pXzXfX",
"I.7.7.w.e.u.7.7.7.7.7.7.7.7.7.7.7.7.7.7.7.7.0.s.f.7.7.7.7.7.7.7.7.7.7.7.7.7.7.7.7.7.e.d.7.7.7.7.7.7.7.7.7.7.7.7.7.7.7.7.7.w.0.s.",
"I.7.7.7.7.7.7.7.7.7.7.7.7.7.7.7.7.7.7.7.7.7.7.7.7.7.7.7.7.7.7.7.7.7.7.7.7.7.7.7.7.7.7.7.7.7.7.7.7.7.7.7.7.7.7.7.7.7.7.7.7.7.7.7.",
"I.7.7.7.9.7.7.7.7.7.w.7.7.7.2.7.7.7.7.7.7.7.7.q.7.7.7.7.7.q.7.7.7.;.7.7.7.7.7.7.7.7.q.7.7.7.7.7.7.q.7.7.:.7.7.7.7.7.7.7.7.r.8.7.",
"I.7.r.i.Z.Z.7.7.7.@X9XZ.,.X.h f 7.7.7.7.7.7.z.A.B.7.7.7.b.5Xz.G.Y h f 7.7.7.7.7.7.G.5XV.7.7.7.v.G.[.V.Y l l 4.7.7.7.7.7.g.7Xn.Z.",
"I.7.7.B.p.7.7.7.7.Z.q.v.7.L 2.-.7.s.8.7.7.7.M.7.y.7.7.7.g.z.x.7.L 7.O.7.8.q.7.7.7.v.8.y.7.7.7.7.b.Z.q.` 7.+.7.7.r.7.7.7.q.G.u.7.",
"I.7.7.7.7.7.7.7.7.7.7.7.7.7.7.7.J.iXz.G.7.7.7.7.7.7.7.7.7.7.7.7.7.7.7.J.t.1Xg.7.7.7.7.7.7.7.7.7.7.7.7.7.7.7.y.p.9Xg.7.7.7.7.7.7.",
"Y.7.7.7.7.7.7.7.7.7.7.7.7.7.7.7.L.Z.V.7.7.7.7.7.7.7.7.7.7.7.7.7.7.7.7.7.F.OXa.7.7.7.7.7.7.7.7.7.7.7.7.7.7.7.7.F.z.Z.7.7.7.7.7.7.",
"I.7.7.7.7.7.7.7.7.7.7.7.7.7.7.7.7.7.7.7.7.7.7.7.7.7.7.7.7.7.7.7.7.7.7.7.7.7.7.7.7.7.7.7.7.7.7.7.7.7.7.7.7.7.7.7.7.7.7.7.7.7.7.7.",
"Y.7.7.7.7.7.7.7.7.7.7.7.7.7.7.7.7.7.7.7.7.7.7.7.7.7.7.7.7.7.7.7.7.7.7.7.7.7.7.7.7.7.7.7.7.7.7.7.7.7.7.7.7.7.7.7.7.7.7.7.7.7.7.7.",
"I.7.7.7.7.7.7.7.7.7.7.7.7.7.7.7.&.j $.2.7.7.7.7.7.7.7.7.7.7.7.7.7.7.7.%.} c 2.7.7.7.7.7.7.7.7.7.7.7.7.7.7.7.4.2.y 2.7.7.7.7.7.7.",
"Y.7.7.7.7.7.7.7.7.7.7.7.7.7.7.7.S > 5 ' 7.7.7.7.7.7.7.7.7.7.7.7.7.7.7.) U ; ~ 7.7.7.7.7.7.7.7.7.7.7.7.7.7.7.*.D j v 7.7.7.7.7.7.",
"I.7.7.7.7.7.7.7.7.7.7.7.7.7.7.w.B.oXq.7.7.7.7.7.7.7.7.7.7.7.7.7.7.7.9.r.c.q.7.7.7.7.7.7.7.7.7.7.7.7.7.7.7.7.y.c.q.7.7.7.7.7.7.7.",
"U.5.F 2.7.7.7.7.7.7.7.7.7.7.7.G.B.(.p.7.4.H 2.7.7.7.7.7.7.7.7.7.7.7.a.B.p.S.7.4.w 4.7.7.7.7.7.7.7.7.7.7.7.7.oXa.oX7.4.p =.4.7.7.",
"k.> A = 7.7.7.7.-.2.7.7.7.7.7.7.7.7.7.7.3 I # 7.7.7.7.7.+.7.7.7.7.7.7.7.7.7.7.t - 4 2.7.7.7.7.@.7.7.7.7.7.7.7.7.7.7.A 1 n W 7.7.",
"I.2.7.7.7.7.7.m n S ^ 7.7.7.7.7.7.7.7.7.3.7.5.7.7.7.-.p D b 7.7.7.7.7.7.7.7.7.4.5.4.7.7.7.7.y X.j 7.7.7.7.7.7.7.7.7.5.4.4.7.7.7."
};
