/* XPM */
static char *result[] = {
/* columns rows colors chars-per-pixel */
"64 64 243 2 ",
"   c #4FDD90",
".  c #50DF91",
"X  c #4FE390",
"o  c #4DE590",
"O  c #4EE590",
"+  c #4FE590",
"@  c #4EE790",
"#  c #4FE791",
"$  c #4FE891",
"%  c #4FE991",
"&  c #4FEA91",
"*  c #4FEC91",
"=  c #4FED91",
"-  c #4FEE91",
";  c #51E091",
":  c #50E290",
">  c #51E391",
",  c #50E591",
"<  c #50E691",
"1  c #51E691",
"2  c #50E791",
"3  c #51E592",
"4  c #51E792",
"5  c #54E791",
"6  c #50E891",
"7  c #51E891",
"8  c #50E991",
"9  c #51E991",
"0  c #50EA91",
"q  c #50EB91",
"w  c #51E992",
"e  c #52E892",
"r  c #52E992",
"t  c #51EA92",
"y  c #50EB92",
"u  c #51EB92",
"i  c #52EA92",
"p  c #52EB92",
"a  c #50EC92",
"s  c #51EC92",
"d  c #50ED92",
"f  c #51ED92",
"g  c #52EC92",
"h  c #52ED92",
"j  c #52ED93",
"k  c #50EE92",
"l  c #51EE92",
"z  c #50EF92",
"x  c #51EF92",
"c  c #52EE93",
"v  c #53EE93",
"b  c #52EF93",
"n  c #5BEF95",
"m  c #5BEF96",
"M  c #5FED98",
"N  c #4FF091",
"B  c #4FF192",
"V  c #50F092",
"C  c #51F092",
"Z  c #50F192",
"A  c #51F192",
"S  c #51F193",
"D  c #52F093",
"F  c #52F193",
"G  c #53F193",
"H  c #50F292",
"J  c #51F292",
"K  c #50F392",
"L  c #51F392",
"P  c #51F393",
"I  c #52F293",
"U  c #52F393",
"Y  c #56F193",
"T  c #57F193",
"R  c #55F292",
"E  c #50F492",
"W  c #51F492",
"Q  c #51F493",
"!  c #51F593",
"~  c #52F493",
"^  c #52F593",
"/  c #50F692",
"(  c #51F693",
")  c #50F793",
"_  c #51F793",
"`  c #52F693",
"'  c #53F693",
"]  c #52F793",
"[  c #54F194",
"{  c #53F694",
"}  c #58F194",
"|  c #5AF397",
" . c #50F893",
".. c #51F893",
"X. c #51F993",
"o. c #52F893",
"O. c #52F993",
"+. c #51FA93",
"@. c #51FB93",
"#. c #52FA93",
"$. c #52FB93",
"%. c #51FC93",
"&. c #52F994",
"*. c #53F994",
"=. c #52FA94",
"-. c #52FB94",
";. c #53FB94",
":. c #55FA95",
">. c #56FA95",
",. c #57F896",
"<. c #51FD94",
"1. c #52FC94",
"2. c #53FC94",
"3. c #52FD94",
"4. c #52FE94",
"5. c #53FE94",
"6. c #52FF94",
"7. c #53FF94",
"8. c #53FE95",
"9. c #53FF95",
"0. c #54FE95",
"q. c #55FE95",
"w. c #54FF95",
"e. c #55FD96",
"r. c #57FC96",
"t. c #56FD96",
"y. c #57FD96",
"u. c #57FC97",
"i. c #57FD97",
"p. c #55FE96",
"a. c #56FE96",
"s. c #57FE96",
"d. c #58FD96",
"f. c #58FC97",
"g. c #59FD97",
"h. c #5AFC97",
"j. c #58FB98",
"k. c #59FB98",
"l. c #5AFB98",
"z. c #5BFA99",
"x. c #5AFB99",
"c. c #5BFB99",
"v. c #5CFA99",
"b. c #5CFB99",
"n. c #5EFB99",
"m. c #5DF99A",
"M. c #5FF89B",
"N. c #5EF99B",
"B. c #5FF99B",
"V. c #5CFA9A",
"C. c #5DFA9A",
"Z. c #5CFB9A",
"A. c #5EFA9A",
"S. c #5EFA9B",
"D. c #58FC98",
"F. c #59FC98",
"G. c #58FD98",
"H. c #5AFC98",
"J. c #5BFC98",
"K. c #5AFC99",
"L. c #58FE98",
"P. c #58FF98",
"I. c #58FE99",
"U. c #58FF99",
"Y. c #5CFC98",
"T. c #5CFD98",
"R. c #5DFC99",
"E. c #5EFC99",
"W. c #5FFC9A",
"Q. c #5FF99C",
"!. c #62EB9A",
"~. c #63EB9A",
"^. c #64EA9B",
"/. c #65E99C",
"(. c #62F79D",
"). c #63F69E",
"_. c #63F79E",
"`. c #66F79D",
"'. c #65F59F",
"]. c #66F59F",
"[. c #64F69E",
"{. c #68F79E",
"}. c #6AF69F",
"|. c #6AF79F",
" X c #60F99A",
".X c #61F99B",
"XX c #61FA9B",
"oX c #60F89C",
"OX c #61F89C",
"+X c #60F99C",
"@X c #61F89D",
"#X c #64F89C",
"$X c #64F99C",
"%X c #65F99D",
"&X c #66F89D",
"*X c #67F89D",
"=X c #64FA9C",
"-X c #68F89E",
";X c #68F99E",
":X c #7AEDA7",
">X c #79EEA7",
",X c #78EFA7",
"<X c #7AEFA8",
"1X c #7FEEAA",
"2X c #67F4A0",
"3X c #66F5A0",
"4X c #67F5A0",
"5X c #67F4A1",
"6X c #68F3A1",
"7X c #69F3A1",
"8X c #69F3A2",
"9X c #6AF2A2",
"0X c #6BF2A2",
"qX c #6AF3A2",
"wX c #6CF1A3",
"eX c #6BF7A0",
"rX c #6CF5A0",
"tX c #6CF6A0",
"yX c #6DF6A0",
"uX c #6DF6A1",
"iX c #6FF4A2",
"pX c #6FF6A2",
"aX c #6CF1A4",
"sX c #6DF1A4",
"dX c #72F3A3",
"fX c #70F5A2",
"gX c #71F5A2",
"hX c #71F4A3",
"jX c #71F5A3",
"kX c #72F4A3",
"lX c #73F4A3",
"zX c #72F5A3",
"xX c #75F2A5",
"cX c #75F3A5",
"vX c #76F4A5",
"bX c #78F1A7",
"nX c #79F1A7",
"mX c #7AF0A7",
"MX c #78F3A6",
"NX c #79F2A7",
"BX c #7AF1A8",
"VX c #7BF2A8",
"CX c #7CF0A9",
/* pixels */
"| R R R m R R R R R /.R R R 5 R R R R R R R R n R R R R R !.Y R R 5 R R R R R R R R ~.R R R R R T M R R 5 R R R R R R R R ^.} R ",
"P.6.e.(.C.V.6.6.6.qX_.[.:.0 A t 6.6.6.6.6.6.[.i.OX6.6.6.OX].(.F., ` 3 6.6.6.6.6.6.@XoX(.6.6.6.c.oX3XoXt ( e 3.6.6.6.6.6.c.4XN.V.",
"P.6.6.c.a.6.6.6.6.H.8.f.6. .3.1.6.i.7.6.6.6.x.6.p.6.6.6.t.i.F.6. .6.#.6.6.e.6.6.6.F.7.p.6.6.6.6.F.F.8.+.6.-.6.6.t.6.6.6.0.i.t.6.",
"P.6.6.6.6.6.6.6.6.6.6.6.6.6.6.6.C.7XC.k.6.6.6.6.6.6.6.6.6.6.6.6.6.6.6.c.u.'.k.6.6.6.6.6.6.6.6.6.6.6.6.6.6.6.t.F.2Xv.6.6.6.6.6.6.",
"P.6.6.6.6.6.6.6.6.6.6.6.6.6.6.6.i.F.l.6.6.6.6.6.6.6.6.6.6.6.6.6.6.6.6.6.t.z.0.6.6.6.6.6.6.6.6.6.6.6.6.6.6.6.6.t.i.F.6.6.6.6.6.6.",
"P.6.6.6.6.6.6.6.6.6.6.6.6.6.6.6.6.6.6.6.6.6.6.6.6.6.6.6.6.6.6.6.6.6.6.6.6.6.6.6.6.6.6.6.6.6.6.6.6.6.6.6.6.6.6.6.6.6.6.6.6.6.6.6.",
"P.6.6.6.6.6.6.6.6.6.6.6.6.6.6.6.6.6.6.6.6.6.6.6.6.6.6.6.6.6.6.6.6.6.6.6.6.6.6.6.6.6.6.6.6.6.6.6.6.6.6.6.6.6.6.6.6.6.6.6.6.6.6.6.",
"P.6.6.6.6.6.6.6.6.6.6.6.6.6.6.6.^ + ` ^ 6.6.6.6.6.6.6.6.6.6.6.6.6.6.6.^ [ 7 ' 6.6.6.6.6.6.6.6.6.6.6.6.6.6.6.=.] ; { 6.6.6.6.6.6.",
"P.6.6.6.6.6.6.6.6.6.6.6.6.6.6.6.../ p 6.6.6.6.6.6.6.6.6.6.6.6.6.6.6.6.6.+.H 3.6.6.6.6.6.6.6.6.6.6.6.6.6.6.6.6.+.../ 6.6.6.6.6.6.",
"P.6.6.6.6.6.6.6.6.6.6.6.6.6.6.B.5X3XF.6.6.6.6.6.6.6.6.6.6.6.6.6.6.6.i.oXS.H.6.6.6.6.6.6.6.6.6.6.6.6.6.6.6.6.[.S.H.6.6.6.6.6.6.6.",
"G.<.x _ 6.6.6.6.6.6.6.6.6.6.6.f.B.'.f.6.#.x ..6.6.6.6.6.6.6.6.6.6.6.q.B.u.oX6.#.@ ..4.6.6.6.6.6.6.6.6.6.6.6.oXp.).6.#.2 { +.6.6.",
"G.= _ J 6.6.6.] ~ O.=.6.6.6.6.6.6.6.6.6.& $.l 6.6.6.3.o.P =.6.6.6.6.6.6.6.6.6.V K x 4.6.6.6.-.( 1.6.6.6.6.6.6.6.6.6._ a Q @.6.6.",
"P.6.6.6.6.6.6.] U l ] 6.6.6.6.6.6.6.6.6.6.6.6.6.6.6.3.b U C 6.6.6.6.6.6.6.6.6.6.6.6.6.6.6.6.r -.s 6.6.6.6.6.6.6.6.6.6.6.6.6.6.6.",
"P.6.6.E.pXT.w.6.6.6.6.6.6.6.6.6.6.6.6.6.6.6.W.hX.XY.6.6.6.6.6.6.6.6.6.6.6.6.6.6.6.n.&XeXg.6.6.6.6.6.6.6.6.6.6.6.6.6.6.6.a.J.vXg.",
"P.6.6.VXkX1Xs.6.6.6.6.6.6.6.6.6.6.6.6.6.6.6.cXnX>X}.6.6.6.6.6.6.6.6.6.6.6.6.6.6.6.iXtXbX`.6.6.6.6.6.6.6.6.6.6.6.6.6.6.6.n.xXcXlX",
"P.6.6.q.w.a.6.6.6.6.6.6.6.6.6.6.6.6.6.6.6.6.7.q.a.6.6.6.6.6.6.6.6.6.6.6.6.6.6.6.6.6.9.a.6.6.6.6.6.6.6.6.6.6.6.6.6.6.6.6.6.q.7.q.",
"P.6.6.6.6.6.6.6.6.6.6.6.6.6.6.6.6.6.6.6.6.6.6.6.6.6.6.6.6.6.6.6.6.6.6.6.6.6.6.6.6.6.6.6.6.6.6.6.6.6.6.6.6.6.6.6.6.6.6.6.6.6.6.6.",
"P.6.6.6.i.6.6.6.6.6.B.6.6.6._ 6.6.6.6.6.6.6.6.i.6.6.6.6.6.C.0.6.6._ 6.6.6.6.6.6.6.6.C.6.6.6.6.6.0.l.6.6.] 6.6.6.6.6.6.6.6.A.0.6.",
"P.6.t.u.C.m.6.6.6.(.wXA.>.^ s s 6.6.6.6.6.6.l.b.B.6.6.6.C.6Xc.l.D l p 6.6.6.6.6.6.F.6XoX6.6.6.V.F.[.oXF l g 3.6.6.6.6.6.F.qXb.A.",
"P.6.6.v.t.6.6.6.6.c.0.F.6.L 1.-.6.l.8.6.6.6.c.6.t.6.6.6.i.f.l.6.L 6.O.6.8.f.6.6.6.l.7.t.6.6.6.6.l.c.0._ 6.O.6.6.l.6.6.6.0.f.t.6.",
"P.6.6.6.6.6.6.6.6.6.6.6.6.6.6.6.oX7XM.v.6.6.6.6.6.6.6.6.6.6.6.6.6.6.6.N.f.].z.6.6.6.6.6.6.6.6.6.6.6.6.6.6.6.i.V.2XN.6.6.6.6.6.6.",
"P.6.6.6.6.6.6.6.6.6.6.6.6.6.6.6.p.t.i.6.6.6.6.6.6.6.6.6.6.6.6.6.6.6.6.6.0.f.8.6.6.6.6.6.6.6.6.6.6.6.6.6.6.6.6.0.p.t.6.6.6.6.6.6.",
"P.6.6.6.6.6.6.6.6.6.6.6.6.6.6.6.6.6.6.6.6.6.6.6.6.6.6.6.6.6.6.6.6.6.6.6.6.6.6.6.6.6.6.6.6.6.6.6.6.6.6.6.6.6.6.6.6.6.6.6.6.6.6.6.",
"P.6.6.6.6.6.6.6.6.6.6.6.6.6.6.6.6.6.6.6.6.6.6.6.6.6.6.6.6.6.6.6.6.6.6.6.6.6.6.6.6.6.6.6.6.6.6.6.6.6.6.6.6.6.6.6.6.6.6.6.6.6.6.6.",
"P.6.6.6.6.6.6.6.6.6.6.6.6.6.6.6.E o ( Q 6.6.6.6.6.6.6.6.6.6.6.6.6.6.6.H v < ( 6.6.6.6.6.6.6.6.6.6.6.6.6.6.6.] Q   ( 6.6.6.6.6.6.",
"P.6.6.6.6.6.6.6.6.6.6.6.6.6.6.6.../ i 6.6.6.6.6.6.6.6.6.6.6.6.6.6.6.6.6.+.H 1.6.6.6.6.6.6.6.6.6.6.6.6.6.6.6.6.X.../ 6.6.6.6.6.6.",
"P.6.6.6.6.6.6.6.6.6.6.6.6.6.6.y.B.oX0.6.6.6.6.6.6.6.6.6.6.6.6.6.6.6.0.u.x.q.6.6.6.6.6.6.6.6.6.6.6.6.6.6.6.6.f.x.q.6.6.6.6.6.6.6.",
"L.3.A &.6.6.6.6.6.6.6.6.6.6.6.F.B._.i.6.1.D =.6.6.6.6.6.6.6.6.6.6.6.q.N.i.N.6.3.6 =.6.6.6.6.6.6.6.6.6.6.6.6.oXp.OX6.1.8 *.-.6.6.",
"G.= ! h 6.6.6.@.] #.1.6.6.6.6.6.6.6.6.6.& o.r 6.6.6.4.%.! 1.6.6.6.6.6.6.6.6.6.f f p 4.6.6.6.1...3.6.6.6.6.6.6.6.6.6.~ 9 U o.6.6.",
"P.6.6.6.6.6.6.W D N ! 6.6.6.6.6.6.6.6.6.6.6.6.6.6.6.%.= K z 6.6.6.6.6.6.6.6.6.6.6.6.6.6.6.6.6 @.= 6.6.6.6.6.6.6.6.6.6.6.6.6.6.6.",
"P.6.6.6.=X6.6.6.6.6.6.6.6.6.6.6.6.6.6.6.6.6.6.%Xg.6.6.6.6.6.6.6.6.6.6.6.6.6.6.6.6.6.R.XX6.6.6.6.6.6.6.6.6.6.6.6.6.6.6.6.6.6.;X6.",
"P.6.6.cXfX<Xq.6.6.6.6.6.6.6.6.6.6.6.6.6.6.6.uXmX:XXX6.6.6.6.6.6.6.6.6.6.6.6.6.6.6.&X|.mX X6.6.6.6.6.6.6.6.6.6.6.6.6.6.6.g.iXzXgX",
"P.6.6.0.5.q.6.6.6.6.6.6.6.6.6.6.6.6.6.6.6.6.7.0.q.6.6.6.6.6.6.6.6.6.6.6.6.6.6.6.6.6.7.q.6.6.6.6.6.6.6.6.6.6.6.6.6.6.6.6.6.8.7.0.",
"P.6.6.6.6.6.6.6.6.6.6.6.6.6.6.6.6.6.6.6.6.6.6.6.6.6.6.6.6.6.6.6.6.6.6.6.6.6.6.6.6.6.6.6.6.6.6.6.6.6.6.6.6.6.6.6.6.6.6.6.6.6.6.6.",
"P.6.6.6.p.6.6.6.6.6.H.6.6.6.$.6.6.6.6.6.6.6.6.q.6.6.6.6.6.f.7.6.6.$.6.6.6.6.6.6.6.6.F.6.6.6.6.6.8.y.6.6.$.6.6.6.6.6.6.6.6.F.8.6.",
"P.6.i.m.B.OX6.6.6.8XaX_.,.E f * 6.6.6.6.6.6.oXb.[.6.6.6.@X0XB.v.k l 0 6.6.6.6.6.6.C.6X'.6.6.6.B.v.2X[.A x y 3.6.6.6.6.6.c.wXN.OX",
"P.6.6.c.a.6.6.6.6.H.0.F.6.) 3.1.6.t.7.6.6.6.c.6.p.6.6.6.t.i.F.6.) 6.#.6.7.q.6.6.6.F.7.p.6.6.6.6.F.H.0.+.6.-.6.6.e.6.6.6.0.i.t.6.",
"P.6.6.6.6.6.6.6.6.6.6.6.6.6.6.6.B.9Xm.l.6.6.6.6.6.6.6.6.6.6.6.6.6.6.6.V.f.4Xl.6.6.6.6.6.6.6.6.6.6.6.6.6.6.6.t.x.6Xv.6.6.6.6.6.6.",
"P.6.6.6.6.6.6.6.6.6.6.6.6.6.6.6.H.C.B.6.6.6.6.6.6.6.6.6.6.6.6.6.6.6.6.6.f.OXp.6.6.6.6.6.6.6.6.6.6.6.6.6.6.6.6.f.l.C.6.6.6.6.6.6.",
"P.6.6.6.6.6.6.6.6.6.6.6.6.6.6.6.6.6.6.6.6.6.6.6.6.6.6.6.6.6.6.6.6.6.6.6.6.6.6.6.6.6.6.6.6.6.6.6.6.6.6.6.6.6.6.6.6.6.6.6.6.6.6.6.",
"P.6.6.6.6.6.6.6.6.6.6.6.6.6.6.6.6.6.6.6.6.6.6.6.6.6.6.6.6.6.6.6.6.6.6.6.6.6.6.6.6.6.6.6.6.6.6.6.6.6.6.6.6.6.6.6.6.6.6.6.6.6.6.6.",
"P.6.6.6.6.6.6.6.6.6.6.6.6.6.6.6.! O ` ` 6.6.6.6.6.6.6.6.6.6.6.6.6.6.6.~ G 6 ] 6.6.6.6.6.6.6.6.6.6.6.6.6.6.6.&.` . ] 6.6.6.6.6.6.",
"P.6.6.6.6.6.6.6.6.6.6.6.6.6.6.6.B = 4 ( 6.6.6.6.6.6.6.6.6.6.6.6.6.6.6.! I % ! 6.6.6.6.6.6.6.6.6.6.6.6.6.6.6.O.A d z 6.6.6.6.6.6.",
"P.6.6.6.6.6.6.6.6.6.6.6.6.6.6.i.Q.oXq.6.6.6.6.6.6.6.6.6.6.6.6.6.6.6.0.f.x.p.6.6.6.6.6.6.6.6.6.6.6.6.6.6.6.6.H.x.p.6.6.6.6.6.6.6.",
"L.3.C ..6.6.6.6.6.6.6.6.6.6.6.F.+X].f.6.-.C ..6.6.6.6.6.6.6.6.6.6.6.p.Q.f.+X6.-.@ X.4.6.6.6.6.6.6.6.6.6.6.6.@Xp.[.6.-.6 { @.6.6.",
"G.a _ J 6.6.6.o.~ O.-.6.6.6.6.6.6.6.6.6.8 $.f 6.6.6.3.O.P -.6.6.6.6.6.6.6.6.6.x H l 4.6.6.6.-.( 1.6.6.6.6.6.6.6.6.6.( u ~ @.6.6.",
"P.6.6.6.6.6.6.z j - J 6.6.6.6.6.6.6.6.6.6.6.6.6.6.6.@.$ V q 6.6.6.6.6.6.6.6.6.6.6.6.6.6.6.6.> X.& 6.6.6.6.6.6.6.6.6.6.6.6.6.6.6.",
"P.6.6.6.*X6.6.6.6.6.6.6.6.6.6.6.6.6.6.6.6.6.6.{.h.6.6.6.6.6.6.6.6.6.6.6.6.6.6.6.6.6.n.$X6.6.6.6.6.6.6.6.6.6.6.6.6.6.6.6.6.6.yX6.",
"P.6.6.MXzXCXa.6.6.6.6.6.6.6.6.6.6.6.6.6.6.6.jXBX,X-X6.6.6.6.6.6.6.6.6.6.6.6.6.6.6.rXtXNX#X6.6.6.6.6.6.6.6.6.6.6.6.6.6.6.Y.dXvXjX",
"P.6.6.q.w.y.6.6.6.6.6.6.6.6.6.6.6.6.6.6.6.6.9.a.d.6.6.6.6.6.6.6.6.6.6.6.6.6.6.6.6.6.w.s.6.6.6.6.6.6.6.6.6.6.6.6.6.6.6.6.6.q.9.a.",
"P.6.6.6.6.6.6.6.6.6.6.6.6.6.6.6.6.6.6.6.6.6.6.6.6.6.6.6.6.6.6.6.6.6.6.6.6.6.6.6.6.6.6.6.6.6.6.6.6.6.6.6.6.6.6.6.6.6.6.6.6.6.6.6.",
"P.6.6.6.8.6.6.6.6.6.q.6.6.6.1.6.6.6.6.6.6.6.6.0.6.6.6.6.6.0.6.6.6.-.6.6.6.6.6.6.6.6.0.6.6.6.6.6.6.0.6.6.;.6.6.6.6.6.6.6.6.e.7.6.",
"P.6.e.u.C.C.6.6.6.@XwXC.>...s p 6.6.6.6.6.6.l.Z.N.6.6.6.v.7Xl.F.U s p 6.6.6.6.6.6.F.7XB.6.6.6.c.F.[.B.U g g 3.6.6.6.6.6.f.9Xb.C.",
"P.6.6.N.i.6.6.6.6.C.0.c.6.K 1.=.6.a.7.6.6.6.m.6.t.6.6.6.f.l.z.6.K 6.o.6.7.0.6.6.6.c.7.t.6.6.6.6.v.C.0._ 6.O.6.6.e.6.6.6.0.F.y.6.",
"P.6.6.6.6.6.6.6.6.6.6.6.6.6.6.6.H.sXl.F.6.6.6.6.6.6.6.6.6.6.6.6.6.6.6.H.r.3Xf.6.6.6.6.6.6.6.6.6.6.6.6.6.6.6.t.i.wXf.6.6.6.6.6.6.",
"U.6.6.6.6.6.6.6.6.6.6.6.6.6.6.6.K.C.B.6.6.6.6.6.6.6.6.6.6.6.6.6.6.6.6.6.D.OXp.6.6.6.6.6.6.6.6.6.6.6.6.6.6.6.6.D.l.C.6.6.6.6.6.6.",
"P.6.6.6.6.6.6.6.6.6.6.6.6.6.6.6.6.6.6.6.6.6.6.6.6.6.6.6.6.6.6.6.6.6.6.6.6.6.6.6.6.6.6.6.6.6.6.6.6.6.6.6.6.6.6.6.6.6.6.6.6.6.6.6.",
"U.6.6.6.6.6.6.6.6.6.6.6.6.6.6.6.6.6.6.6.6.6.6.6.6.6.6.6.6.6.6.6.6.6.6.6.6.6.6.6.6.6.6.6.6.6.6.6.6.6.6.6.6.6.6.6.6.6.6.6.6.6.6.6.",
"P.6.6.6.6.6.6.6.6.6.6.6.6.6.6.6.%.d #.1.6.6.6.6.6.6.6.6.6.6.6.6.6.6.6.$.{ l 1.6.6.6.6.6.6.6.6.6.6.6.6.6.6.6.3.1.w 1.6.6.6.6.6.6.",
"U.6.6.6.6.6.6.6.6.6.6.6.6.6.6.6.Z = 1 ` 6.6.6.6.6.6.6.6.6.6.6.6.6.6.6.( I & ! 6.6.6.6.6.6.6.6.6.6.6.6.6.6.6.&.A d z 6.6.6.6.6.6.",
"P.6.6.6.6.6.6.6.6.6.6.6.6.6.6.q.N.oX0.6.6.6.6.6.6.6.6.6.6.6.6.6.6.6.8.e.x.0.6.6.6.6.6.6.6.6.6.6.6.6.6.6.6.6.t.x.0.6.6.6.6.6.6.6.",
"I.4.S 1.6.6.6.6.6.6.6.6.6.6.6.F.N.(.i.6.3.F 1.6.6.6.6.6.6.6.6.6.6.6.p.N.i.A.6.3.8 3.6.6.6.6.6.6.6.6.6.6.6.6.oXp.oX6.3.t *.3.6.6.",
"j.= C # 6.6.6.6.=.1.6.6.6.6.6.6.6.6.6.6., P X 6.6.6.6.6.O.6.6.6.6.6.6.6.6.6.6.q $ < 1.6.6.6.6.+.6.6.6.6.6.6.6.6.6.6.C : c E 6.6.",
"P.1.6.6.6.6.6.b c Z ~ 6.6.6.6.6.6.6.6.6.2.6.4.6.6.6.=.t A x 6.6.6.6.6.6.6.6.6.3.4.3.6.6.6.6.w ..d 6.6.6.6.6.6.6.6.6.4.3.3.6.6.6."
};
