/* XPM */
static char *result[] = {
/* columns rows colors chars-per-pixel */
"64 64 251 2 ",
"   c #202020",
".  c #4A5252",
"X  c #7B7B83",
"o  c #6A31C5",
"O  c #7331CD",
"+  c #B40094",
"@  c #B439F6",
"#  c #E620C5",
"$  c #CD41FF",
"%  c #4FDD90",
"&  c #50DF91",
"*  c #4FE390",
"=  c #4DE590",
"-  c #4EE590",
";  c #4FE590",
":  c #4EE790",
">  c #4FE791",
",  c #4FE891",
"<  c #4FE991",
"1  c #4FEA91",
"2  c #4FEC91",
"3  c #4FED91",
"4  c #4FEE91",
"5  c #51E091",
"6  c #50E290",
"7  c #51E391",
"8  c #50E591",
"9  c #50E691",
"0  c #51E691",
"q  c #50E791",
"w  c #51E592",
"e  c #51E792",
"r  c #54E791",
"t  c #50E891",
"y  c #51E891",
"u  c #50E991",
"i  c #51E991",
"p  c #50EA91",
"a  c #50EB91",
"s  c #51E992",
"d  c #52E892",
"f  c #52E992",
"g  c #51EA92",
"h  c #50EB92",
"j  c #51EB92",
"k  c #52EA92",
"l  c #52EB92",
"z  c #50EC92",
"x  c #51EC92",
"c  c #50ED92",
"v  c #51ED92",
"b  c #52EC92",
"n  c #52ED92",
"m  c #52ED93",
"M  c #51EE92",
"N  c #50EF92",
"B  c #51EF92",
"V  c #52EE93",
"C  c #52EF93",
"Z  c #5BEF95",
"A  c #5BEF96",
"S  c #5FED98",
"D  c #4FF091",
"F  c #4FF192",
"G  c #50F092",
"H  c #51F092",
"J  c #50F192",
"K  c #51F192",
"L  c #51F193",
"P  c #52F093",
"I  c #52F193",
"U  c #53F193",
"Y  c #50F292",
"T  c #51F292",
"R  c #50F392",
"E  c #51F392",
"W  c #51F393",
"Q  c #52F293",
"!  c #52F393",
"~  c #56F193",
"^  c #57F193",
"/  c #55F292",
"(  c #50F492",
")  c #51F492",
"_  c #51F493",
"`  c #51F593",
"'  c #52F493",
"]  c #52F593",
"[  c #50F692",
"{  c #51F693",
"}  c #50F793",
"|  c #51F793",
" . c #52F693",
".. c #53F693",
"X. c #52F793",
"o. c #54F194",
"O. c #53F694",
"+. c #58F194",
"@. c #5AF397",
"#. c #50F893",
"$. c #51F893",
"%. c #51F993",
"&. c #52F893",
"*. c #52F993",
"=. c #51FA93",
"-. c #51FB93",
";. c #52FA93",
":. c #52FB93",
">. c #51FC93",
",. c #52F994",
"<. c #53F994",
"1. c #52FA94",
"2. c #52FB94",
"3. c #53FB94",
"4. c #55FA95",
"5. c #56FA95",
"6. c #57F896",
"7. c #51FD94",
"8. c #52FC94",
"9. c #53FC94",
"0. c #52FD94",
"q. c #52FE94",
"w. c #53FE94",
"e. c #52FF94",
"r. c #53FF94",
"t. c #53FE95",
"y. c #53FF95",
"u. c #54FE95",
"i. c #55FE95",
"p. c #54FF95",
"a. c #55FD96",
"s. c #57FC96",
"d. c #56FD96",
"f. c #57FD96",
"g. c #57FC97",
"h. c #57FD97",
"j. c #55FE96",
"k. c #56FE96",
"l. c #57FE96",
"z. c #58FD96",
"x. c #58FC97",
"c. c #59FD97",
"v. c #5AFC97",
"b. c #58FB98",
"n. c #59FB98",
"m. c #5AFB98",
"M. c #5BFA99",
"N. c #5AFB99",
"B. c #5BFB99",
"V. c #5CFA99",
"C. c #5CFB99",
"Z. c #5EFB99",
"A. c #5DF99A",
"S. c #5FF89B",
"D. c #5EF99B",
"F. c #5FF99B",
"G. c #5CFA9A",
"H. c #5DFA9A",
"J. c #5CFB9A",
"K. c #5EFA9A",
"L. c #5EFA9B",
"P. c #58FC98",
"I. c #59FC98",
"U. c #58FD98",
"Y. c #5AFC98",
"T. c #5BFC98",
"R. c #5AFC99",
"E. c #58FE98",
"W. c #58FF98",
"Q. c #58FE99",
"!. c #58FF99",
"~. c #5CFC98",
"^. c #5CFD98",
"/. c #5DFC99",
"(. c #5EFC99",
"). c #5FFC9A",
"_. c #5FF99C",
"`. c #62EB9A",
"'. c #63EB9A",
"]. c #64EA9B",
"[. c #65E99C",
"{. c #62F79D",
"}. c #63F69E",
"|. c #63F79E",
" X c #66F79D",
".X c #65F59F",
"XX c #66F59F",
"oX c #64F69E",
"OX c #68F79E",
"+X c #6AF69F",
"@X c #6AF79F",
"#X c #60F99A",
"$X c #61F99B",
"%X c #61FA9B",
"&X c #60F89C",
"*X c #61F89C",
"=X c #60F99C",
"-X c #61F89D",
";X c #64F89C",
":X c #64F99C",
">X c #66F89D",
",X c #67F89D",
"<X c #64FA9C",
"1X c #68F89E",
"2X c #68F99E",
"3X c #79EEA7",
"4X c #78EFA7",
"5X c #7AEFA8",
"6X c #7FEEAA",
"7X c #67F4A0",
"8X c #66F5A0",
"9X c #67F5A0",
"0X c #67F4A1",
"qX c #68F3A1",
"wX c #69F3A1",
"eX c #69F3A2",
"rX c #6AF2A2",
"tX c #6AF3A2",
"yX c #6CF1A3",
"uX c #6BF7A0",
"iX c #6CF5A0",
"pX c #6CF6A0",
"aX c #6DF6A0",
"sX c #6DF6A1",
"dX c #6FF4A2",
"fX c #6FF6A2",
"gX c #6CF1A4",
"hX c #6DF1A4",
"jX c #72F3A3",
"kX c #70F5A2",
"lX c #71F5A2",
"zX c #71F4A3",
"xX c #71F5A3",
"cX c #72F4A3",
"vX c #73F4A3",
"bX c #72F5A3",
"nX c #75F2A5",
"mX c #75F3A5",
"MX c #76F4A5",
"NX c #78F1A7",
"BX c #79F1A7",
"VX c #7AF0A7",
"CX c #78F3A6",
"ZX c #79F2A7",
"AX c #7AF1A8",
"SX c #7BF2A8",
"DX c #7CF0A9",
"FX c #A4A4C5",
"GX c #DECDF6",
"HX c #FFC5FF",
"JX c white",
/* pixels */
"@./ / / A / / / / / [./ / / r / / / / / / / / Z / / / / / `.~ / / r / / / / / / / / './ / / / / ^ S / / r / / / / / / / / ].+./ ",
"W.e.a.{.H.G.e.e.e.tX|.oX4.p K g e.e.e.e.e.e.oXh.*Xe.e.e.*XXX{.I.8  .w e.e.e.e.e.e.-X&X{.e.e.e.B.&X8X&Xg { d 0.e.e.e.e.e.B.9XD.G.",
"W.e.e.B.k.e.e.e.e.Y.t.x.e.#.0.8.e.h.r.e.e.e.N.e.j.e.e.e.d.h.I.e.#.e.;.e.e.a.e.e.e.I.r.j.e.e.e.e.I.I.t.=.e.2.e.e.d.e.e.e.u.h.d.e.",
"W.e.e.e.e.e.e.e.e.e.e.e.e.e.e.e.H.wXH.n.e.e.e.e.e.e.e.e.e.e.e.e.e.e.e.B.g..Xn.e.e.e.e.e.e.e.e.e.e.e.e.e.e.e.d.I.7XV.e.e.e.e.e.e.",
"W.e.e.e.e.e.e.e.e.e.e.e.e.e.e.e.h.I.m.e.e.e.e.e.e.e.e.e.e.e.e.e.e.e.e.e.d.M.u.e.e.e.e.e.e.e.e.e.e.e.e.e.e.e.e.d.h.I.e.e.e.e.e.e.",
"W.e.e.e.e.e.e.e.e.e.e.e.e.e.e.e.e.e.e.e.e.e.e.e.e.e.e.e.e.e.e.e.e.e.e.e.e.e.e.e.e.e.e.e.e.e.e.e.e.e.e.e.e.e.e.e.e.e.e.e.e.e.e.e.",
"W.e.e.e.e.e.e.e.e.e.e.e.e.e.e.e.e.e.e.e.e.e.e.e.e.e.e.e.e.e.e.e.e.e.e.e.e.e.e.e.e.e.e.e.e.e.e.e.e.e.e.e.e.e.e.e.e.e.e.e.e.e.e.e.",
"W.e.e.e.e.e.e.e.e.e.e.e.e.e.e.e.] ;  .] e.e.e.e.e.e.e.e.e.e.e.e.e.e.e.] o.y ..e.e.e.e.e.e.e.e.e.e.e.e.e.e.e.1.X.5 O.e.e.e.e.e.e.",
"W.e.e.e.e.e.e.e.e.e.e.e.e.e.e.e.$.[ l e.e.e.e.e.e.e.e.e.e.e.e.e.e.e.e.e.=.Y 0.e.e.e.e.e.e.e.e.e.e.e.e.e.e.e.e.=.$.[ e.e.e.e.e.e.",
"W.e.e.e.e.e.e.e.e.e.e.e.e.e.e.F.0X8XI.e.e.e.e.e.e.e.e.e.e.e.e.e.e.e.h.&XL.Y.e.e.e.e.e.e.e.e.e.e.e.e.e.e.e.e.oXL.Y.e.e.e.e.e.e.e.",
"U.7.B | e.e.e.e.e.e.e.e.e.e.e.x.F..Xx.e.;.B $.e.e.e.e.e.e.e.e.e.e.e.i.F.g.&Xe.;.: $.q.e.e.e.e.e.e.e.e.e.e.e.&Xj.}.e.;.q O.=.e.e.",
"U.3 | T e.e.e.X.' *.1.e.e.e.e.e.e.e.e.e.1 :.M e.e.e.0.&.W 1.e.e.e.e.e.e.e.e.e.G R B q.e.e.e.2.{ 8.e.e.e.e.e.e.e.e.e.| z _ -.e.e.",
"W.e.e.e.e.e.e.X.! M X.e.e.e.e.e.e.e.e.e.e.e.e.e.e.e.0.C ! H e.e.e.e.e.e.e.e.e.e.e.e.e.e.e.e.f 2.x e.e.e.e.e.e.e.e.e.e.e.e.e.e.e.",
"W.e.e.(.fX^.p.e.e.e.e.e.e.e.e.e.e.e.e.e.e.e.).zX$X~.e.e.e.e.e.e.e.e.e.e.e.e.e.e.e.Z.>XuXc.e.e.e.e.e.e.e.e.e.e.e.e.e.e.e.k.T.MXc.",
"W.e.e.SXcX6Xl.e.e.e.e.e.e.e.e.e.e.e.e.e.e.e.mXBX3X+Xe.e.e.e.e.e.e.e.e.e.e.e.e.e.e.dXpXNX Xe.e.e.e.e.e.e.e.e.e.e.e.e.e.e.Z.nXmXvX",
"W.e.e.i.p.k.e.e.e.e.e.e.e.e.e.e.e.e.e.e.e.e.r.i.k.e.e.e.e.e.e.e.e.e.e.e.e.e.e.e.e.e.y.k.e.e.e.e.e.e.e.e.e.e.e.e.e.e.e.e.e.i.r.i.",
"W.e.e.e.e.e.e.e.e.e.e.e.e.e.e.e.e.e.e.e.e.e.e.e.e.e.e.e.e.e.e.e.e.e.e.e.e.e.e.e.e.e.e.e.e.e.e.e.e.e.e.e.e.e.e.e.e.e.e.e.e.e.e.e.",
"W.e.e.e.h.e.e.e.e.e.F.e.e.e.| e.e.e.e.e.e.e.e.h.e.e.e.e.e.H.u.e.e.| e.e.e.e.e.e.e.e.H.e.e.e.e.e.u.m.e.e.X.e.e.e.e.e.e.e.e.K.u.e.",
"W.e.d.g.H.A.e.e.e.{.yXK.5.] x x e.e.e.e.e.e.m.C.F.e.e.e.H.qXB.m.P M l e.e.e.e.e.e.I.qX&Xe.e.e.G.I.oX&XI M b 0.e.e.e.e.e.I.tXC.K.",
"W.e.e.V.d.e.e.e.e.B.u.I.e.E 8.2.e.m.t.e.e.e.B.e.d.e.e.e.h.x.m.e.E e.*.e.t.x.e.e.e.m.r.d.e.e.e.e.m.B.u.| e.*.e.e.m.e.e.e.u.x.d.e.",
"W.e.e.e.e.e.e.e.e.e.e.e.e.e.e.e.&XwXS.V.e.e.e.e.e.e.e.e.e.e.e.e.e.e.e.D.x.XXM.e.e.e.e.e.e.e.e.e.e.e.e.e.e.e.h.G.7XD.e.e.e.e.e.e.",
"W.e.e.e.e.e.e.e.e.e.e.e.e.e.e.e.j.d.h.e.e.e.e.e.e.e.e.e.e.e.e.e.e.e.e.e.u.x.t.e.e.e.e.e.e.e.e.e.e.e.e.e.e.e.e.u.j.d.e.e.e.e.e.e.",
"W.e.e.e.e.e.e.e.e.e.e.e.e.e.e.e.e.e.e.e.e.e.e.e.e.e.e.e.e.e.e.e.e.e.e.e.e.e.e.e.e.e.e.e.e.e.e.e.e.e.e.e.e.e.e.e.e.e.e.e.e.e.e.e.",
"W.e.e.e.e.e.e.e.e.e.e.e.e.e.e.e.e.e.e.e.e.e.e.e.e.e.e.e.e.            e.e.e.e.e.e.e.e.e.e.e.e.e.e.e.e.e.e.e.e.e.e.e.e.e.e.e.e.e.",
"W.e.e.e.e.e.e.e.e.e.e.e.e.e.e.e.( = { _ e.e.e.e.e.e.      @ @ @ @ @ @       { e.e.e.e.e.e.e.e.e.e.e.e.e.e.e.X._ % { e.e.e.e.e.e.",
"W.e.e.e.e.e.e.e.e.e.e.e.e.e.e.e.$.[ k e.e.e.e.e.e.  # # # @ @ @ @ @ # # # +   e.e.e.e.e.e.e.e.e.e.e.e.e.e.e.e.%.$.[ e.e.e.e.e.e.",
"W.e.e.e.e.e.e.e.e.e.e.e.e.e.e.f.F.&Xu.e.e.e.e.e.  HX# # # $ $ @ @ # HXHX# # +   e.e.e.e.e.e.e.e.e.e.e.e.e.e.x.N.i.e.e.e.e.e.e.e.",
"E.0.K ,.e.e.e.e.e.e.e.e.e.e.e.I.F.|.h.e.8.P 1.e.+ # # # @ $ $ @ @ # HXHX# # +   t 1.e.e.e.e.e.e.e.e.e.e.e.e.&Xj.*Xe.8.u <.2.e.e.",
"U.3 ` n e.e.e.-.X.;.8.e.e.e.e.e.e.e.e.e.1 &.f   # # # + @ @ @ @ @ # # # # # + + v l q.e.e.e.8.$.0.e.e.e.e.e.e.e.e.e.' i ! &.e.e.",
"W.e.e.e.e.e.e.) P D ` e.e.e.e.e.e.e.e.e.e.e.e.  # # + @ GX@ GX@ @ @ # # # # + +   e.e.e.e.e.t -.3 e.e.e.e.e.e.e.e.e.e.e.e.e.e.e.",
"W.e.e.e.<Xe.e.e.e.e.e.e.e.e.e.e.e.e.e.e.e.e.e.  + + @ GX@ GX@ GX@ @ @ # # + + +   e./.%Xe.e.e.e.e.e.e.e.e.e.e.e.e.e.e.e.e.e.2Xe.",
"W.e.e.mXkX5Xi.e.e.e.e.e.e.e.e.e.e.e.e.e.e.e.sX  O @ @ GX@ GX@ GX@ @ @ O + + + o   >X@XVX#Xe.e.e.e.e.e.e.e.e.e.e.e.e.e.e.c.dXbXlX",
"W.e.e.u.w.i.e.e.e.e.e.e.e.e.e.e.e.e.e.e.e.e.r.  o @ @ @ @ @ @ @ @ @ @ O O O O o   e.r.i.e.e.e.e.e.e.e.e.e.e.e.e.e.e.e.e.e.t.r.u.",
"W.e.e.e.e.e.e.e.e.e.e.e.e.e.e.e.e.e.e.e.e.e.e.  . o @ @ . . . @ @ O O O O O o .   e.e.e.e.e.e.e.e.e.e.e.e.e.e.e.e.e.e.e.e.e.e.e.",
"W.e.e.e.j.e.e.e.e.e.Y.e.e.e.:.e.e.e.e.e.e.e.e.  . . . . FXJXFX. O O O o . . . .   e.I.e.e.e.e.e.t.f.e.e.:.e.e.e.e.e.e.e.e.I.t.e.",
"W.e.h.A.F.*Xe.e.e.eXgX|.6.( v 2 e.e.e.e.e.e.&XC.  X . . JXJXJX. . . . . . . X   e.H.qX.Xe.e.e.F.V.7XoXK B h 0.e.e.e.e.e.B.yXD.*X",
"W.e.e.B.k.e.e.e.e.Y.u.I.e.} 0.8.e.d.r.e.e.e.B.e.  GXJXX FXJXFX. . . . . X GXFX  e.I.r.j.e.e.e.e.I.Y.u.=.e.2.e.e.a.e.e.e.u.h.d.e.",
"W.e.e.e.e.e.e.e.e.e.e.e.e.e.e.e.F.rXA.m.e.e.e.e.e.  GXJXX X X GXGXGXGXGXGXFX  e.e.e.e.e.e.e.e.e.e.e.e.e.e.e.d.N.qXV.e.e.e.e.e.e.",
"W.e.e.e.e.e.e.e.e.e.e.e.e.e.e.e.Y.H.F.e.e.e.e.e.e.e.  FXGXGXGXGXGXGXGXFXFX  j.e.e.e.e.e.e.e.e.e.e.e.e.e.e.e.e.x.m.H.e.e.e.e.e.e.",
"W.e.e.e.e.e.e.e.e.e.e.e.e.e.e.e.e.e.e.e.e.e.e.e.e.e.e.    FXFXFXFXFXFX    e.e.e.e.e.e.e.e.e.e.e.e.e.e.e.e.e.e.e.e.e.e.e.e.e.e.e.",
"W.e.e.e.e.e.e.e.e.e.e.e.e.e.e.e.e.e.e.e.e.e.e.e.e.e.e.e.e.            e.e.e.e.e.e.e.e.e.e.e.e.e.e.e.e.e.e.e.e.e.e.e.e.e.e.e.e.e.",
"W.e.e.e.e.e.e.e.e.e.e.e.e.e.e.e.` -  . .e.e.e.e.e.e.e.e.e.e.e.e.e.e.e.' U t X.e.e.e.e.e.e.e.e.e.e.e.e.e.e.e.,. .& X.e.e.e.e.e.e.",
"W.e.e.e.e.e.e.e.e.e.e.e.e.e.e.e.F 3 e { e.e.e.e.e.e.e.e.e.e.e.e.e.e.e.` Q < ` e.e.e.e.e.e.e.e.e.e.e.e.e.e.e.*.K c N e.e.e.e.e.e.",
"W.e.e.e.e.e.e.e.e.e.e.e.e.e.e.h._.&Xi.e.e.e.e.e.e.e.e.e.e.e.e.e.e.e.u.x.N.j.e.e.e.e.e.e.e.e.e.e.e.e.e.e.e.e.Y.N.j.e.e.e.e.e.e.e.",
"E.0.H $.e.e.e.e.e.e.e.e.e.e.e.I.=XXXx.e.2.H $.e.e.e.e.e.e.e.e.e.e.e.j._.x.=Xe.2.: %.q.e.e.e.e.e.e.e.e.e.e.e.-Xj.oXe.2.t O.-.e.e.",
"U.z | T e.e.e.&.' *.2.e.e.e.e.e.e.e.e.e.u :.v e.e.e.0.*.W 2.e.e.e.e.e.e.e.e.e.B Y M q.e.e.e.2.{ 8.e.e.e.e.e.e.e.e.e.{ j ' -.e.e.",
"W.e.e.e.e.e.e.N m 4 T e.e.e.e.e.e.e.e.e.e.e.e.e.e.e.-., G a e.e.e.e.e.e.e.e.e.e.e.e.e.e.e.e.7 %.1 e.e.e.e.e.e.e.e.e.e.e.e.e.e.e.",
"W.e.e.e.,Xe.e.e.e.e.e.e.e.e.e.e.e.e.e.e.e.e.e.OXv.e.e.e.e.e.e.e.e.e.e.e.e.e.e.e.e.e.Z.:Xe.e.e.e.e.e.e.e.e.e.e.e.e.e.e.e.e.e.aXe.",
"W.e.e.CXbXDXk.e.e.e.e.e.e.e.e.e.e.e.e.e.e.e.xXAX4X1Xe.e.e.e.e.e.e.e.e.e.e.e.e.e.e.iXpXZX;Xe.e.e.e.e.e.e.e.e.e.e.e.e.e.e.~.jXMXxX",
"W.e.e.i.p.f.e.e.e.e.e.e.e.e.e.e.e.e.e.e.e.e.y.k.z.e.e.e.e.e.e.e.e.e.e.e.e.e.e.e.e.e.p.l.e.e.e.e.e.e.e.e.e.e.e.e.e.e.e.e.e.i.y.k.",
"W.e.e.e.e.e.e.e.e.e.e.e.e.e.e.e.e.e.e.e.e.e.e.e.e.e.e.e.e.e.e.e.e.e.e.e.e.e.e.e.e.e.e.e.e.e.e.e.e.e.e.e.e.e.e.e.e.e.e.e.e.e.e.e.",
"W.e.e.e.t.e.e.e.e.e.i.e.e.e.8.e.e.e.e.e.e.e.e.u.e.e.e.e.e.u.e.e.e.2.e.e.e.e.e.e.e.e.u.e.e.e.e.e.e.u.e.e.3.e.e.e.e.e.e.e.e.a.r.e.",
"W.e.a.g.H.H.e.e.e.-XyXH.5.$.x l e.e.e.e.e.e.m.J.D.e.e.e.V.wXm.I.! x l e.e.e.e.e.e.I.wXF.e.e.e.B.I.oXF.! b b 0.e.e.e.e.e.x.rXC.H.",
"W.e.e.D.h.e.e.e.e.H.u.B.e.R 8.1.e.k.r.e.e.e.A.e.d.e.e.e.x.m.M.e.R e.&.e.r.u.e.e.e.B.r.d.e.e.e.e.V.H.u.| e.*.e.e.a.e.e.e.u.I.f.e.",
"W.e.e.e.e.e.e.e.e.e.e.e.e.e.e.e.Y.hXm.I.e.e.e.e.e.e.e.e.e.e.e.e.e.e.e.Y.s.8Xx.e.e.e.e.e.e.e.e.e.e.e.e.e.e.e.d.h.yXx.e.e.e.e.e.e.",
"!.e.e.e.e.e.e.e.e.e.e.e.e.e.e.e.R.H.F.e.e.e.e.e.e.e.e.e.e.e.e.e.e.e.e.e.P.*Xj.e.e.e.e.e.e.e.e.e.e.e.e.e.e.e.e.P.m.H.e.e.e.e.e.e.",
"W.e.e.e.e.e.e.e.e.e.e.e.e.e.e.e.e.e.e.e.e.e.e.e.e.e.e.e.e.e.e.e.e.e.e.e.e.e.e.e.e.e.e.e.e.e.e.e.e.e.e.e.e.e.e.e.e.e.e.e.e.e.e.e.",
"!.e.e.e.e.e.e.e.e.e.e.e.e.e.e.e.e.e.e.e.e.e.e.e.e.e.e.e.e.e.e.e.e.e.e.e.e.e.e.e.e.e.e.e.e.e.e.e.e.e.e.e.e.e.e.e.e.e.e.e.e.e.e.e.",
"W.e.e.e.e.e.e.e.e.e.e.e.e.e.e.e.>.c ;.8.e.e.e.e.e.e.e.e.e.e.e.e.e.e.e.:.O.M 8.e.e.e.e.e.e.e.e.e.e.e.e.e.e.e.0.8.s 8.e.e.e.e.e.e.",
"!.e.e.e.e.e.e.e.e.e.e.e.e.e.e.e.J 3 0  .e.e.e.e.e.e.e.e.e.e.e.e.e.e.e.{ Q 1 ` e.e.e.e.e.e.e.e.e.e.e.e.e.e.e.,.K c N e.e.e.e.e.e.",
"W.e.e.e.e.e.e.e.e.e.e.e.e.e.e.i.D.&Xu.e.e.e.e.e.e.e.e.e.e.e.e.e.e.e.t.a.N.u.e.e.e.e.e.e.e.e.e.e.e.e.e.e.e.e.d.N.u.e.e.e.e.e.e.e.",
"Q.q.L 8.e.e.e.e.e.e.e.e.e.e.e.I.D.{.h.e.0.I 8.e.e.e.e.e.e.e.e.e.e.e.j.D.h.K.e.0.u 0.e.e.e.e.e.e.e.e.e.e.e.e.&Xj.&Xe.0.g <.0.e.e.",
"b.3 H > e.e.e.e.1.8.e.e.e.e.e.e.e.e.e.e.8 W * e.e.e.e.e.*.e.e.e.e.e.e.e.e.e.e.a , 9 8.e.e.e.e.=.e.e.e.e.e.e.e.e.e.e.H 6 V ( e.e.",
"W.8.e.e.e.e.e.C V J ' e.e.e.e.e.e.e.e.e.9.e.q.e.e.e.1.g K B e.e.e.e.e.e.e.e.e.0.q.0.e.e.e.e.s $.c e.e.e.e.e.e.e.e.e.q.0.0.e.e.e."
};
