/* XPM */
static char *nate_b31650476113[] = {
/* columns rows colors chars-per-pixel */
"64 64 256 2 ",
"   c #070808",
".  c #180709",
"X  c #17180A",
"o  c #180816",
"O  c #161616",
"+  c #080E16",
"@  c #290607",
"#  c #250A17",
"$  c #261818",
"%  c #361918",
"&  c #32120B",
"*  c #1A2515",
"=  c #0E2813",
"-  c #29271A",
";  c #38251A",
":  c #283319",
">  c #2E2A0E",
",  c #171523",
"<  c #13132E",
"1  c #281A28",
"2  c #381C25",
"3  c #261130",
"4  c #183926",
"5  c #162A29",
"6  c #292625",
"7  c #3A2726",
"8  c #383827",
"9  c #392932",
"0  c #3B3833",
"q  c #293231",
"w  c #461A16",
"e  c #511913",
"r  c #462919",
"t  c #56291A",
"y  c #48381C",
"u  c #57351C",
"i  c #43220C",
"p  c #702F19",
"a  c #461D28",
"s  c #4E1538",
"d  c #452926",
"f  c #552827",
"g  c #4C3D24",
"h  c #4D3D2C",
"j  c #473628",
"k  c #523C2C",
"l  c #583928",
"z  c #4C3D33",
"x  c #473835",
"c  c #533E32",
"v  c #553838",
"b  c #542834",
"n  c #752C25",
"m  c #633833",
"M  c #6A3024",
"N  c #630C3F",
"B  c #0D401C",
"V  c #174D32",
"C  c #384436",
"Z  c #2E5033",
"A  c #1A7039",
"S  c #2F6C39",
"D  c #4D4225",
"F  c #4C422C",
"G  c #45462A",
"H  c #53422C",
"J  c #574729",
"K  c #4C4232",
"L  c #494638",
"P  c #534333",
"I  c #584837",
"U  c #5A5639",
"Y  c #4E5835",
"T  c #654839",
"R  c #67573A",
"E  c #735B39",
"W  c #66512B",
"Q  c #40643A",
"!  c #73613C",
"~  c #696436",
"^  c #4A401D",
"/  c #192D50",
"(  c #292B57",
")  c #2F2E4E",
"_  c #1A3577",
"`  c #283678",
"'  c #2F3368",
"]  c #2B1A52",
"[  c #48354D",
"{  c #64185B",
"}  c #354B4B",
"|  c #1A6F48",
" . c #386848",
".. c #297948",
"X. c #367848",
"o. c #2B7558",
"O. c #336D51",
"+. c #304C75",
"@. c #255E6E",
"#. c #4D514A",
"$. c #685845",
"%. c #755A45",
"&. c #6D4A43",
"*. c #4D7151",
"=. c #686243",
"-. c #736245",
";. c #706456",
":. c #4D4E72",
">. c #635968",
",. c #6C7070",
"<. c #5E7875",
"1. c #9A371A",
"2. c #872C17",
"3. c #A8331A",
"4. c #893827",
"5. c #983827",
"6. c #873B38",
"7. c #AB3A2F",
"8. c #93432B",
"9. c #AF452F",
"0. c #9D562D",
"q. c #840C76",
"w. c #822B70",
"e. c #834E52",
"r. c #987556",
"t. c #937153",
"y. c #A47659",
"u. c #927469",
"i. c #B37C67",
"p. c #2C8755",
"a. c #378A58",
"s. c #359759",
"d. c #318E4C",
"f. c #38A658",
"g. c #30BC53",
"h. c #319269",
"j. c #36B26C",
"k. c #1E894D",
"l. c #458657",
"z. c #48975A",
"x. c #508D54",
"c. c #489868",
"v. c #508F66",
"b. c #4DAD70",
"n. c #79A278",
"m. c #3CC677",
"M. c #3BCF78",
"N. c #3AF278",
"B. c #47C877",
"V. c #47D87C",
"C. c #50CD76",
"Z. c #4BE87D",
"A. c #A88451",
"S. c #B48C6F",
"D. c #938E5F",
"F. c #D59870",
"G. c #1D2E80",
"H. c #253A8A",
"J. c #7D0990",
"K. c #1C458A",
"L. c #2F5093",
"P. c #2849A7",
"I. c #3151B2",
"U. c #3E6296",
"Y. c #525889",
"T. c #566690",
"R. c #73728E",
"E. c #4A51AE",
"W. c #4F6BB2",
"Q. c #6A79B9",
"!. c #6A75A8",
"~. c #645B86",
"^. c #3156CA",
"/. c #3664C6",
"(. c #6874C9",
"). c #4252C9",
"_. c #AD08A9",
"`. c #990D97",
"'. c #C57EB6",
"]. c #BE12C0",
"[. c #D93FCB",
"{. c #AD7CC6",
"}. c #BE5FC0",
"|. c #758298",
" X c #69A986",
".X c #7687AD",
"XX c #6CA69F",
"oX c #3CD686",
"OX c #3DFA90",
"+X c #3FFDA3",
"@X c #48DB86",
"#X c #53DB8A",
"$X c #56DB91",
"%X c #49CE88",
"&X c #6CD896",
"*X c #4AE789",
"=X c #55E68A",
"-X c #45FE8C",
";X c #4CFD8D",
":X c #49F987",
">X c #53FD8D",
",X c #5AFB8D",
"<X c #59F888",
"1X c #57E996",
"2X c #44FF93",
"3X c #4DFE93",
"4X c #45FE9B",
"5X c #4DFE9B",
"6X c #4BF496",
"7X c #53F493",
"8X c #5BF594",
"9X c #52FE94",
"0X c #5AFC94",
"qX c #54F59C",
"wX c #53FD9B",
"eX c #5BFC9B",
"rX c #5CF49B",
"tX c #4BE895",
"yX c #68EA9A",
"uX c #79E39D",
"iX c #65F999",
"pX c #64F88D",
"aX c #71D0AC",
"sX c #4CFCA3",
"dX c #53FDA3",
"fX c #59F8A5",
"gX c #53EEA9",
"hX c #7BE6A7",
"jX c #61FCA3",
"kX c #66F6A5",
"lX c #6FECA6",
"zX c #5C83C5",
"xX c #349582",
"cX c #8E8E97",
"vX c #A5A198",
"bX c #9598A6",
"nX c #989AB7",
"mX c #8691AC",
"MX c #A698B8",
"NX c #90AAAF",
"BX c #A3A8A9",
"VX c #ADACB7",
"CX c #96A395",
"ZX c #E2BBA3",
"AX c #8ECFAB",
"SX c #93D6A9",
"DX c #CFD0BC",
"FX c #F3CEAB",
"GX c #9CAECD",
"HX c #ADB3CF",
"JX c #9F8FC3",
"KX c #B3C4C9",
"LX c #D3CDCB",
"PX c #D7E7E8",
"IX c #ECEFF0",
"UX c #D7DDE6",
/* pixels */
"9X9X0X0X0X9X9X9X-X>X,X9XwX5XwX8X-XsXfXfXiX0XwX-XwX9X0X>X;X;X9XwXpXeXwX5XwXwX,XpX>X3XdXdX,X<X9X8XwXwXwXwXwX9XwX9X9X9X9XwX9X9X9X9X",
"9X9X9X9X9X>X>X;X5X3XwXfXfX7X;X;X,X>XkXSXhXeXdXfX5X9X0X0X>X>X9X>X3XeXfXdXdXwX0X>X;X9XdXwX9X;X9XdXwX0X9X9X9XwX9XwX9XwX9X9X9XwX9XeX",
"3X9X9X0X9X9X>X>XwXwXwXwX8X=X8X8X9X7X&XAX&X#X#X%X%XC.=X<X>X7X2X3X2X3X1X=X@X7XeX8XyX8XeX5X5X5X5XwX9X0X0X9X9X9X9X9X9XwX9XwXwX9X9XwX",
"3X3XwXwX9X0XwX0X9XwXwX3X>X,X8X0XwX8Xb.*. .O.*. .#.S z.Z.9X4XsXfX3X5X=Xc.a.#XkXuXAXhXiX5X4XqXrX0XeX0X9X9X9X9X9X9X9X9X9X9X9X7X9X9X",
"3XwXwXwXdXeXwXwXeX5X4X3XwXeXyX$XyX7Xs.6 % d s x f : S b.1XtX$XkXyX=Xb.Y C b.&XSXKXSXiX2X4XwX8X<X9X9X9X9X3X9X9X9X9X3X9X9X9X9X3X9X",
"5XwXwXwXwXwX3X3XeX2X;XpX0XgXXX}.NX$Xd., 2 v T T m J Q *.o.O.c.&XuXz.*.I I #.x.CXSXhXwXOX2X7X>X;X9X9X9X9X9X9X9X9X9X9X9X9X9X9X9X9X",
"9X9X9XwX3X3X;X;X6X3X9X<XdXgXJX[.nX$Xs.q 6 U %.R -.-.R F 9 6 #.n.n.Y 7 I &.j C  XSXjXwX2X;X9X9X3X7XwX5X3X9X9X9X9X9X9X9X9X9X9X9X9X",
">X9X9X9X7X;X-X:X;X9XdXsXsXkXaXXXaX:XN.b.S : b I $.;.~ p M b [ ;.*.&.&.T m a 0  XeXiXiX>X<X>XwXeXwXwXwXwX3X9X9X9X9X3X;X9X9X3X9X3X",
"8X9X>X3X3X;X;X:XeX9XwXgXfXiX0XsX7X3X5X@Xd.$ @ 0 I R E W E J j 0 8 I R T v 2 C c.=X=X*X6X>X<XeX5X3X3X9X9X3X3X9X8X5X9X9XwX9X9XwX0X",
"wXwX9X9X3X3X>X>X:X,XiXeXwX;X3XwXdX7X%Xl.Z - X O ; c W R E $.z $ $ F I g r d 8  .X.*.l.%XeX9X9X3XiX9X;X9X0XiX9X3XwX0X0X0X9X9XwX0X",
"dXqX7X9X3X9X0X0XwXyX7X,XZ.:X3X1X8X#Xv.k ; 7 - o # 7 v $.%.-.K $ $ 8 G i i k h 8 9 % j z.$X=XZ.Z.0X0X9X>X>X8X9X3X,X,X9X0X9X9X,X9X",
"wX9X7XwXwXdXeXrXNXVXaXwX;X:XB.z.l.a.Y f j 8 0 d x d j P $.R P 8 d C G y u I I g b w j Q l.l.x.C.wX9X0XeX9X>X3X9X>X3X3X3X9X9X9X3X",
"3X3X9X3XwXdXgXqXMXMXNXqX4XtXl.: - 8 0 k F D J ~ R H H H K F F F v z L c m $.=.W G D D 8 : ; C d.*X6X3X2X9X9X9X8X9X3X5X5XeXeX9X3X",
";X;X>X3X5XsXsXqXNXNXuXqXm.o.8 > ; 7 j c Y U E =.~ R J F g j H D l h K &.&.=.~ R W J J d d 2 - C k.m.5X5X;X9X0X3X9XwXwXiXyXlXiX7X",
"9X9X9X3X3X4X5X9XgX7X3XoX..O . d r g k K L $.%.~ ! -.R I F K H F k H P T %.=.=.R ~ D D h v x $ $ = X.#XfXdXeX8X3X9X9XeXkXhXhXiXqX",
"eXwX0X9X-X3X;X>XjXN.g...q 1 - f c P d ; - g W E -.-.$.U $.R I R U U R E -.! U =.^ > - x I z 7 2 & : k.j.*X5XwXeX;X3XwXkXuXuXyX3X",
"rX8X>X>X;X;X3X9X3X*XX.X * L l m c z 1 . & ; y R E ~ R R -.-.%.R ~ ~ ~ %.$.;.$.F w @ o 9 [ v k l L > = X.=X8X0XwX9X0X0X9X6X6X9XeX",
"8X0XiXwX3X9X,XpXiXtXj.| d.z.S : 7 j 7 $ ; d j I I R R R -.-.! -.~ E E &.&.$.Y g 7 - 2 7 x 7 - Q v.*...g.7XeXeXeX9X9X>X9X7X9X9X0X",
";X9XwXdX7X7XpXpX<XtXgXtX=XZ.A = # 7 0 d j k c K H J I R ! R E -.E E E T c L P j j F F j 2 . = S $X=X*X:X7XfX5X3X>X;X>X9X0XwXwX9X",
";X3XdXwX9X<X<X9X3XqXdXsXM.d.Z ; % 9 x h c P P z k F J R R U I R R $.T I x c c l l H Y j 7 $ = Z h.oXwX0XqXdX3X3X;X>X<X>XwXwX9X9X",
"3X3XwX3X;X-X2X5XwXjXwX*XO.- 7 v k x h h g H H P P K P H J H H K c c P z j K P c T h L 8 g H 8 : 5 p.*XwX5XdX7X>X9X>X>X9XwXwX3X3X",
"2X>X0X9XOXOX5X8XwXrXB.h.Z # 2 v I c h g g k H K v L H D D H P z z z F F C L L I P z x x g J y > # C v.C.7XsX3X9XwX>X7X3X7XwX5X3X",
"7X9XwXfXkXgXjXpX3X=Xa.C 1 O ; J J c F H D H F h L c F g g F P v L K F L K K K H H F L F j H y > % w 8 z.=X9X3XwXwXwX7X5X5XdXwX9X",
"9X3X4XaXAXAXyX>X>XoXo.$ & 8 ^ u l J P H H P K j P K F D g h P v z x h F K F h H K F F F L L g ^ r & @ X.=X9X9XwXdX8X5X5X4X4XwXwX",
"9X:XOXaX{.{.AX;X>X@X| = $ x G ^ k k k K P c h L I P h h F H P P L [ [ I D ^ y D g k l l H L x F g w . o.tXwX8X3X9X9XwX5X5X4X3X-X",
"wX;X2XlXBXMXaX:XB.a.V - r h G G H g j j x v z I L K F F D F K F I v c P l ^ D K l m l f j #.#.H g 7 $ V h.M.6X;X>X9X9X9X3X3X2X3X",
"4X5X4XwX&XyXrX@Xo.B > r u J F G h H y r d x L K F F G F F H z h c c v l g D F K l f t t c #.L J u j 7 1 4 k.Z.:X>X>X>X>X9X3X5X5X",
"4XeXwX2XOX2X2X#Xa.Z S ~ J r 7 8 I $.T w 7 0 x H D D D H k c k k j H H D g F L x x 2 w W E L 8 7 g Y *. .Z d.*X3X<X>X,X>X>X9XwXwX",
"eX8X0X0X0XwX5X:X@XB.V.C.*.: O 1 &.u.%.t 2 ; ; J J H K K K z P c F I H D k P c x 7 6 d E r.I O $ r *.C.#XB.V.7X9XwXwX0X0X9X>XwXwX",
"0X,X,X9XqXqXwX;X>X9XwX*Xb. .1 . W vXr.g r M M M H g j j 0 x j j j j j f j v m f d 7 g t.A.W   5 S b.pX9X2XeX0X3XwXwX9X9X9X9XeXwX",
"9X9X3X3X4X5XwX9X0XwX9X7X1Xb.| . W S.u.J p 1.9.n t r r % ; 7 ; i i i d a s m 6.8.8.l J r.S.J = V B.#X8X>X7XeXeX3XwXwX9X0X0X9XwXwX",
"5X5X3X9X0X0XeX4X4XwXeX0X5X6Xh.V W y.;.J u 3.3.4.n M t f f f u t t u f s n n 4.1.8.p J t.y.U V j.-X-X9X9XwXwX3X>X9X3X9X9X9XwXwX5X",
"-X;X>X9XwXwXwX3X3X3X;X>X;X6X*Xj.v.%.f w i b { 4.1.1.5.7.7.7.5.9.5.8.8.2.1.4.p p f f f v %.x.b.*X3X9X9X9X9X9X9X>X9X3X9X9X3X9X9X9X",
"-X;X>X9X0X9X9XwX2X3X,X,X>XwXwXqXc.I N { s a t M W 4.5.7.7.7.9.9.9.9.9.9.8.n p i ; C L j G b.pXfXwX9X9X9X9X9X9X9X9X9X9X9X9X9X9X9X",
"9X9X9X9X0X9XwX>X3X;X,X<X<X<X5X4Xc.x `._.q.#   2 t t 2.5.7.7.3.1.9.3.3.n f M f & O X.c. .q z.9X5XwX9XwXwX3XwX9X9X9X9X9X9X3X9X9X9X",
"iXiXeX0X9X9X9X7X0X<X,X>X;X;X6X6Xs.8 { ].`.{ 3 3 # % w f 2.2.2.p n p p w % % ; 5 V f.Z.c.O.b.=X5X9XwX9X9XwX9X9X9X9X9X9X9X9X9X9X9X",
"lXkXiXeXwX5XwXwX0X>X;X>X>XeXdX6Xs.- s { `.`.{ 3   . O % r t t t d f w . o . 5 o.%XV.Z.V.%X#X9XdX9X9X9X9X9X9X9X9X9X9X9X9X9X9X9X9X",
"kXiXiX9X3X3X3X5X;X:X:X<X0XpXyX%Xl.k f [ w._.`.3 + , , 2 7 % $ - 6 a 1 6 3   5 o.#X<X<X;XsXwX;XwX>X9X>X>X9X>X9X9X3X9X9X9X9X9X9X9X",
"eXeXwX9X9X>X7XwX9X3X9XiXuXSX X*.%.y.y.r.w.{ ] ] ( ` ` ' ) q q q ) ( :.T.~.' < V | b.;X9X7X3X2X5X>X9X9X9X9X9X9X9X9X9X9X9X9X3X9X9X",
"3X9X9X>X>X>X9X0XeX7X3XeXlXAX<.9 ;.F.F.S.%.$ 3 ` I.I.I.P.H.` ( ) / / U.nXVXT.] + * p.#X8X<X2X2X8X0X9X9X9X9X9X9X9X9X9X9X9X9X9X9X9X",
">X>X>X>X;X3X3X3X4X8XeXdXjX&XX.# W F.F.u.&.p a ' H.E.^.^.P.P.P.P.P.K.U.GXGXzX_ < + / a.M.7X3X3XfXwX5X3XwX9X9X9X9X9X9X9X9X9X9X9X9X",
"7X3X3X>X9X9X5X5X5X8XwX3XeX=Xp.B T y.t.$.m n f ) H.P.^.^.^.I.^.^.I.L.T.bXGXzXK./ 1 5 } v.C.:X3XfXwX9XwX9X3X9X9X9X9X9X9X9X9X9X9X9X",
"wXwX3X>X9XwX5X5X9X9X;X-X>X8Xm.s.S x d $ % w a 3 ' ` P./.I.P.P.P.E.!.mXBXNXW.E.>.%.&.[ :.*.C.0X>X9XwX9X5X3X9X9X9X9X9X9X9X9X9X3X9X",
"wX9X3X6X3X3XwX9X9X,X;XOX3XjXkXuX*.V = O X , < ) ' ( ` L.P.K.K._ T.bXHXnXR.L.+.,.A.D.;.[ #.v.#X:XwX9X9X9X9X3X3X9X9X9X9X3X9X9X9X9X",
"7X3X9X3X3X3X7X9X;X8X>X-XdXkXhXSX Xp.d.s. ./ ( Y.:.) ] ' ` _ _ ` Y.MXVX|.:./ ) R A.A.A.S.D.n.c.b.7XwX9X9X9X9X3X3X9X9X9X9X9X9X9X9X",
"3X9X9X3X;X>X>X>X3X0X9X3XdXgXhXAXuX<X:XV.a.:.~.|.R.:.) ' ` +.L.L.!.BXbXY./ , O r ! r.F.FXZXe.q l.6XeX9X3X9X9X>X9X9X9X9X3X9X9X9X3X",
"7X9X9X9X3X9X9X9X3XwX9X2XeXrXlXhXpXwXtXc.v.R.bXNXnXcXR.R.cX|..XmXGXBXbXT.` ] o 6 u S.ZXFXFXe.$ o.6XwX9X7X9X9X;XwX9X9X>X9X9X9X9X9X",
"wXwX9X3X9X9X0X9X9X9X3X3X0X0X5X8X<XsXh.' R.MXKXKXKXHXLXKXHXHXLXIXUXvX.X(.E.' 3 + 6 u.ZXFXZX%.* p.6XeX9X;X9X9X3X9X9X9X9X9X9X9X9X9X",
"9X9X9X>X9X9X9X9X9X9X>X9X9X3X9X3XwX7Xh.' ~.HXUXPXUXIXPXPXIXIXIXIXLXcX,.!.W.:.< + O z e.;.>.*.d.B.>X;X9X9X9X3X9X9X9X9X9X9X9X9X9X9X",
"9X9X9X9X9X9X9X9X9X9X9X3X9X9X>X9X9X6XxX` T.HXUXPXIXIXIXIXIXIXIXIXLX>.' R.R.Y.( 3     > X 4 a.V.;X7X;X9X9X3X9X9X9X9X9X9X9X9X9X9X3X",
"9X9X9X9X3X9X9X9X3X9X9X9X3X9X3X9X,X3Xh.+.L.zXHXLXDXDXLXUXDXDXLXHXQ.' ) ,.bXmX>.2   B A S A V.dX3X;X9X9X9X9X9X9X9X9X9X3X9X9X9X9X9X",
"3X9X9X9X9X9X9X9X9X9X9X9X9X9X9X9XwX6Xh./ ' E.zXBXvXvXvXvXvXbXQ.Q.L.3 6 ;.cXbXR.) 4 s.*X7X=X3X9XiX3X;X9X9X9X9X9X9X9X9X9X9X9X9X9X9X",
"9X9X9X9X9X9X9X9X9X9X9X9X9X9X9X;X5X:Xa.3 ' W.(..X(.Q.!.!.Q.Q.Q.Q.Y.6 X #.,.>.#.O.p.%X5X3XwXwX7XjX3X9X3X9X9X9X9X9X9X9X9X9X9X9X9X3X",
"9X9X9X9X9X9X9X9X9X9X9X9X9X9X9X9X5X*Xp.5 ) |..X).^./.I.I.).).W..X<.9 @ : L $ 4 s.@XqXwX3X2X3X3X2X9X9X9X9X9X9X9X9X9X9X9X9X9X9X9X9X",
"9X9X9X9X9X9X9X9X9X9X9X9X9X3X9X9X5X7Xb.S S #.:._ H.G._ _ ` G.` :.#.1 O X : V k.m.eXeX9X>X:X2X9X7X9XwX9X9X9X9X9X9X9X9X9X3X9X9X9X9X",
"9X9X9X9X3X9X9X9X3X9X9X9X9X9X9X9X5X3X0XZ.d.4 o , o + + < + + < , < 1 9 O 4 f.V.wX;X>XpXpX,X:X;X<XwX9X9XwX9X9X3X9X9X9X9X9X9X9X9X9X",
"9X9X9X9X9X9X9X9X9X9X9X3X9X9X9X9X2X5XeX,Xb...5     , # % &   = B @.o.o.| k.%XdX3X<X>X3X2X5XwXqX9X9X9X9X9X9X9X9X9X9X9X9X9X3X9X9X9X",
"9X9X9X9X9X9X9X9X9X9X9X9X9X9X9X9XfXwXwX,X9X#Xp.= + 3 s M e . B f.tXtX*XV.Z.:X;X>X7X,X>XqXgXsX5X3X9X9X9X9X9X9X9X9X9X3X9X9X9X9X9X9X",
"9X9X3X9X9X9X9X9X9X9X9X9X3X9X9X9X8X5X5XwX3X3Xs.O o s 5.9.2.@ B B.3X9X;X;X3X9X8X8XqX8X<X5X+XsX5XwX>X>X9X>X9X9X9X9X9X9X9X9X9X9X9X9X",
"9X9X9X9X9X9X9X9X9X9X9X9X9X9X9X9XwX2X4XwX3X:Xf.O w 4.9.9.2.@ V b.8XiXeX9X5XfXjXkX<X;XwXqXOX+XwXrX>X>X;X>X9X9X9X9X9X9X9X9X3X9X9X9X",
"3X9X9X9X9X9X9X9X9X9X9XwX9X9X9XwXeX>X3XfX9X:Xm.| h n 2.2.f Z d.V.0X0X0X0X9X3X2X3X>XOXsXaXXXaX4X;X;X>X9X;X9X9X9X9X9X9X9X9X9X9X9X9X",
"9X9XwX9XwX9X9XwX9XwX9X9X9X9X9X9X7X9XwXwX>X>X6XoXa.: @ @ C j.@X;X3X7X9XeX0X3X-X-X8X;XgX{.[.nX4X:X9X3X3X9X9X9X9XwXwX9XwX9X9X9XwX9X",
"wXwXwXwXwXwXwXwXwX3XwX3X9X9X9XwX9XwX9X:X9XdXdXwXM.A B V h.@XsXsXwXdXeXwX9X7X>X;XfX,X&XJX}.MXwX;X3XwXwX9XwXwXwXwXwX9XwXwXwXwXwXwX",
"wXwXwXwXwXwXwXwXwX9X9X9XwX9XwX3X0X9X>X>X0XdXdXiX6XoX%Xb.V.-X3XjX0X9X9X5X5X2X2X3XsX3XrXgXaXlXjXdXwX5XwX5XwXwXwXwXeXwXwXwXwXwXwXwX"
};
