/* XPM */
static char *nate_l21650476114[] = {
/* columns rows colors chars-per-pixel */
"64 64 256 2 ",
"   c #090807",
".  c #170806",
"X  c #171609",
"o  c #180A15",
"O  c #161817",
"+  c #091111",
"@  c #29180D",
"#  c #270814",
"$  c #281817",
"%  c #371C19",
"&  c #2F0D0D",
"*  c #1A2316",
"=  c #0F2B14",
"-  c #272419",
";  c #39271B",
":  c #3C331C",
">  c #2C3618",
",  c #151732",
"<  c #391C24",
"1  c #2D1129",
"2  c #182C2D",
"3  c #2B282A",
"4  c #392827",
"5  c #2A3926",
"6  c #383628",
"7  c #333036",
"8  c #451B1D",
"9  c #52170F",
"0  c #47271A",
"q  c #582A18",
"w  c #493819",
"e  c #4C2E12",
"r  c #6F2C19",
"t  c #491726",
"y  c #452828",
"u  c #532926",
"i  c #4C3C2C",
"p  c #473628",
"a  c #563A29",
"s  c #443D32",
"d  c #493736",
"f  c #533C34",
"g  c #573637",
"h  c #502B36",
"j  c #742C26",
"k  c #633C2B",
"l  c #6D312C",
"z  c #701F2E",
"x  c #185629",
"c  c #164E2F",
"v  c #3A4426",
"b  c #374635",
"n  c #2E5233",
"m  c #1A6F3A",
"M  c #2A6E3C",
"N  c #3B4716",
"B  c #50431E",
"V  c #48442A",
"C  c #53432B",
"Z  c #584628",
"A  c #4C4333",
"S  c #494734",
"D  c #544433",
"F  c #594738",
"G  c #495735",
"H  c #575736",
"J  c #56552B",
"K  c #634938",
"L  c #675838",
"P  c #775938",
"I  c #6E4C2B",
"U  c #4C6A3A",
"Y  c #6A6337",
"T  c #766134",
"R  c #1A3058",
"E  c #2E3152",
"W  c #1B366C",
"Q  c #373966",
"!  c #24346C",
"~  c #271B4C",
"^  c #4A384B",
"/  c #653C43",
"(  c #703845",
")  c #611E41",
"_  c #2F514F",
"`  c #376548",
"'  c #287946",
"]  c #306D4E",
"[  c #3B476F",
"{  c #206158",
"}  c #594745",
"|  c #5C5444",
" . c #4E5553",
".. c #695A45",
"X. c #755946",
"o. c #6F4C49",
"O. c #457557",
"+. c #476E4B",
"@. c #746247",
"#. c #6D6649",
"$. c #565166",
"%. c #695263",
"&. c #57696F",
"*. c #6F6F6E",
"=. c #8D3516",
"-. c #973726",
";. c #863A35",
":. c #8D2F30",
">. c #AC3629",
",. c #A83617",
"<. c #B3461D",
"1. c #8C442C",
"2. c #924D2F",
"3. c #AE4E30",
"4. c #8E693D",
"5. c #8C4414",
"6. c #D15430",
"7. c #D06736",
"8. c #E8683B",
"9. c #FA6E39",
"0. c #DF5B1A",
"q. c #8D5853",
"w. c #896D55",
"e. c #AC724E",
"r. c #8B7069",
"t. c #AC655B",
"y. c #D97448",
"u. c #C96451",
"i. c #EC7246",
"p. c #C76861",
"a. c #8C2775",
"s. c #369658",
"d. c #2F8D52",
"f. c #39A85B",
"g. c #359768",
"h. c #37AE6E",
"j. c #168149",
"k. c #49985A",
"l. c #468757",
"z. c #46966C",
"x. c #4BB869",
"c. c #49AD6F",
"v. c #6BB573",
"b. c #43A35B",
"n. c #38CA76",
"m. c #3DE375",
"M. c #48C679",
"N. c #46D97B",
"B. c #50CE74",
"V. c #56FB7A",
"C. c #49E97D",
"Z. c #1F8B3F",
"A. c #D0833D",
"S. c #A88655",
"D. c #B38B6E",
"F. c #8E936C",
"G. c #E2824A",
"H. c #CC9876",
"J. c #D1A678",
"K. c #E8966E",
"L. c #2D3A8A",
"P. c #1F2A86",
"I. c #364793",
"U. c #3150B0",
"Y. c #1E5083",
"T. c #5D6493",
"R. c #3C5AD0",
"E. c #4763CC",
"W. c #AC72B8",
"Q. c #96679E",
"!. c #B254D1",
"~. c #B967D5",
"^. c #C541CB",
"/. c #B93BDC",
"(. c #4CB487",
"). c #6EB594",
"_. c #7A8FAA",
"`. c #77AFB0",
"'. c #688B8F",
"]. c #3CD582",
"[. c #3BF98D",
"{. c #49C982",
"}. c #48D685",
"|. c #55DA88",
" X c #55D992",
".X c #58C88A",
"XX c #73D593",
"oX c #49E687",
"OX c #56E78A",
"+X c #4DFC85",
"@X c #4CFE8D",
"#X c #48FA89",
"$X c #53FC84",
"%X c #54F58C",
"&X c #53FD8C",
"*X c #5AFC8C",
"=X c #5AF78A",
"-X c #4AEB96",
";X c #58EA95",
":X c #45FE94",
">X c #4DFE93",
",X c #44FE9B",
"<X c #4DFE9A",
"1X c #4CF496",
"2X c #54F593",
"3X c #5CF594",
"4X c #52FE94",
"5X c #5AFC93",
"6X c #54F69B",
"7X c #5BF49B",
"8X c #53FD9B",
"9X c #5BFC9B",
"0X c #62F78A",
"qX c #67EA9A",
"wX c #64F799",
"eX c #6DE997",
"rX c #72D0AC",
"tX c #49FDA5",
"yX c #54FDA3",
"uX c #5BFCA2",
"iX c #59F8A8",
"pX c #55ECA1",
"aX c #75EAA6",
"sX c #64F8A3",
"dX c #6FEDA9",
"fX c #718ACC",
"gX c #8E8E9B",
"hX c #B1AF8F",
"jX c #8F97AC",
"kX c #AE97AA",
"lX c #8BA9AD",
"zX c #ADB2B1",
"xX c #AC8A8B",
"cX c #D79796",
"vX c #CDAB95",
"bX c #EAB296",
"nX c #CD8DAE",
"mX c #C7B4A7",
"MX c #EBBDB1",
"NX c #EC918E",
"BX c #8CD2AF",
"VX c #81F5A3",
"CX c #F2CDB3",
"ZX c #E8C3A4",
"AX c #8692CB",
"SX c #8CA5C5",
"DX c #AFBCCA",
"FX c #9C90DD",
"GX c #C481C8",
"HX c #B3C6D2",
"JX c #CDD1CE",
"KX c #FBD4C8",
"LX c #F9CCC4",
"PX c #FAE7D3",
"IX c #D1D5EB",
"UX c #CDE5E7",
/* pixels */
"4X4X4X4X4X4X4X4X4X4X4X4X4X4X4X4X4X4X5X4X4X5XuX6X`.!.W.XX#X@X;XrXrX-X1X7XtX8X3X9X5X0X5X9X>X4X4X5X@X4X9X8X4X&X+X@X8X6X2X*X%X4X>X,X",
"4X4X4X4X4X4X4X4X4X4X4X4X<X4X4X4X@X5X5X&X&X5X4X<XpXrXrX0X$X4XrX~.W.rX>X5X8X&X$X5XaXwX4X8X8X5X>X:X<X<X8X8X4X@X@X&XyX8X5X5X5X5X4X<X",
"4X4X4X4X4X4X4X4X4X4X4X4X4X4X4X4X>X4X5X&X+X=X&X,X:XiXuX%X2X&XXX!.!.).B.B..XB.B..XXXOX,X<X4X>X:X:XwX2X4X4X&X&X&X@XyX8X8X8X9X6X6X6X",
"4X4X4X4X>X4X4X4X4X4X4X4X4X4X4X4X8X5X8X>X@X=X5X#XtX6X5X<X1X$XqXrX_.&.G +. .` `  .O.M.1X6X1X>X<X9X>X>X>X#X#X*X%X>X4X8X4X<X8X8X6X7X",
"4X4X4X4X4X4X4X4X4X4X4X4X4X4X4X4XyX8X2X:X%X3XqXN.}.N.oX:X[.%X&X-Xh.| 8 y 7 y 4 1 v h.1X8X1X>X8X5X4X8X2X1X@X8X9X8X4X4X1X>X>X4X7X7X",
"4X4X4X4X4X4X4X4X4X4X4X4X4X4X4X4X8X<X<X<X>X3XB.d. .] k.C.&X>X|.k.G F g K I P a & * z.iXtX4X>X>X>X*X8XuX7X0X$X&X8X4X>X@X@X@X2X7X7X",
"4X4X4X4X4X4X4X4X4X4X4X4X4X>X4X4X>X#X<X4X<X6Xc.6 % 6 +.x.C.|.c.n w K @.@.P L V @ $ O.|.8X2X*X@X>X[.pXdXqX=XV.$X4X8X4X>X@X@X4X8XuX",
"4X4X4X>X4X4X4X4X4X4X4X4X4X4X4X4X&X:X>X4X<X9Xv.u 8 q Z | O.O. .} F L P o.F 6 - $ $ b d.M.5XwX*X4XiXjXW.`.-X&X5XyXyXyX4X>X#X>X6XiX",
"4X&X&X&X4X4X>X>X4X4X4X4X4X>X4X4X8X&X#Xm. X|.g.E u P K 4 3 3 y L @.Y J C > O   $ @ % d z. XOXoX*XtXSX!.W.OXV.4X6XtXtX5X5X@X<X8X9X",
"4X4X>X4X4X8X4X4X8X4X4X4X4X4X4X5X8X<Xn.m M ` S y y g L H d - 0 L P K w - - - 5 6 a 0 w b ] ` m h.:XrXAXrX*X+X6XtXyX1XyXyX<X4X$XV.",
"4X4X4X<X4X4X4X5X4X4X4X>X>X4X4X4X1X}.d.= X $ ; 4 d 7 V Y F : 0 K I B @ # 1 7 V J I w w 6 4 $ = ' }.-X6X7X4XyX6X$X+X+X&X5X5X5X&X+X",
"4X>X>X<X>X4X4X4X4X4X4X4X4X4X4X%Xh.M 5 y 8 y y h y 4 p G D p a K Z w 4 < y S H H J B a p y < $ c ] h.>X>X#X8X5X$XV.=X5X4X5X&X#X#X",
"@X4X4X<X>X>X>X4X4X4X4X4X4X4X4X#Xd.= - g g g h k p 6 6 A A g D C A V s g K K ..Y H J a f f f A * O ' N.4X1X3X,X2XeXOX4X@X%X4X1X2X",
"@X4X9X8X4X@X@X4X4X>X4X4X4X2X4X%XM.s.n * - y d V K D D F } D f p s v S L P P L @.L ..K | a a F 4 - n U x.-XiX1XrXjX`.qX#XV.>X4X9X",
"@X9XsXsX5X@X4X8X4X>X4X4X&X4X4X4X4X}.] X X 0 p v F K X.@.L Z C Z D S G K P T T P #.#...K i p F i N > v k.oX@XiX`./.W.rXtX-X2X>X@X",
"4X7XdXsXwX2X4X8X>X@X4X9X4X4X2X4Xm.k.H q r j k q s F L T T L J K K | H L P T T Y %.#.K C f s 6 y : G s.B.2X#X4X`.jX_.dXrXjXSXrX9X",
"4XdXBXVXaX0X4X9X&X%X>X&X2X>X<X;Xg.y j 3.3.<.;.u u A D L Y Y L @.P Y ..P P Y Y #.L K f S V y ; < y +.B.%X1X<X8X2X;X2X%XlX!.!.rX=X",
"6X7XeXaXwX5X:X,X>X4X&X$X*X>Xn.k.K j q.cXH.4.;.:.j a C K H H L X.2.P @.X.P Y H H H K f i s p p y 0 M s.n.6XiXyX<XV.4X,XrXAXSXqX%X",
"tX<X4X2X9X9X<X,X:X,X>X*X*X].s.a r 3.NXKXhX#.I <.-.K f g D C I I X.....X...F D D Z k k f f d f i C ; = M |.tX1XqX*X<X@X#X XpX1XtX",
"yX4X+X@X3XsX9X4X@X>X8X7XM.s.U 5.<.u.bXPXzX..r <.1.a 7 d f A D K K L | | L F f g a k a i d d A D V y $ 5 j.n.tXsXwX&XV.V.,XtX>X,X",
"wXwX*X$X>X<X8X4X3XsXsX;Xs.b 1.8.i.i.bXPXzX( r <.;.y 3 s S s f F F F F D S s s s f a a p 6 6 p V d s p ; = j.oX,X7X2XV.$XtXtX2X@X",
">X&X&X4X>X<X4X8XuXiX6XC.M - 1.i.i.i.K.vXxXr.q.2.:.t 3 V V A d ^ D D i V b 6 y s D a p : v 6 p 6 ^ p a 8 o ' OX>XuX8X2X4X,X8X7X<X",
"[.:X>X4X>X&X2X5X<XtX<XoXm O l 7.9.8.6.t.D.kXp.u.=.q y a B A D S V V C A s y y d A C i V N : p u A F F y * ] OX$X@X&X6XyXtX9X5X$X",
"#X>XyX9X&X$X&X4X*X8XyX X` o j 0.8.i.7.e.p.nXp.u.,.j h a w i D V V a a C f p y i s i C v B w 0 h q d d y 6 n k.B.[.%X*X9X4X3XwX%X",
"4X5X8X4X#X#X@X4X>XwXdXBXO.o 9 <.0.i.9.i.y.y.y.3.<.>.=.q d g a B B Z f A V i p y 4 h K C V v s y 8 y ; 6 s 5 = m N.@X#X@X<X2X*X+X",
"*X5X8X8X>X@X@X>X8X5XsXeXz.` w r >.0.8.y.G.i.y.7.6.6.=.q % 4 6 p a a i p i f d u h y u C D S d 0 % b ` G p # . c N.>X&X4X4X<X+X[.",
"4X8XyX4X>X>X4X8X4X5X0X3XOXc.` % r <.7.A.i.y.y.i.6.6.-.q X + 3 6 D D V p 6 ^ s s h 4 4 w C } g y ; O.x.k.5 . # m m.>X%X4X8X2X%X#X",
">X4X<X8X<X8X8X9X$X&X5X4X4X-Xf.c 6 r 2.2.4.3.2.3.3.>.>.r $   O 7 S S s p d 3 5 6 w 4 3 y C a y s U v.7X.XO.b n d.-X<X>X%X5X4X>X#X",
"4X8X>X4X<X8X8XuX&X&X4X8X4X4XoXn.M & & % e e e u j :.-.:.8 # O 6 A A f g h $ o % 9 % % d f ; 5 ` B.OX6X-X.X{.n. XtXtX>X>X=X*X>X@X",
"8X>X4X4X4X<X8X5X&X@X8XuXuX4X>X>Xc.x O o % Z ..P o.z ( t.q.t @ - p s F / d X   & q q q a d b ' c.1X:X@X,X4X>X[.dXBXrX7X#X4X5X2X5X",
"<X4X&X4X>X2X4X4X&X&X9XsXuX<X:X>XOXn.` 4 o.hXmXvXr.y } zXvX1.9 # @ v S f 7 + . 9 :.1.1.z d O.B.OX1X@X=X%X%X*XiXBXW.zXrX:X>X>X>X4X",
"<X4X&X&X4X>X4X&X<X2X0XwX6XtX<XwX4X:Xs.F r.ZXKXCXr.-  .JXLXe.r # & > B p 4 o & r :.,.=.z h z.3X,X%X+X+X8X<X<X7XrXGXkXdX<X4X2X,X>X",
"4X4X4X&X4X4X4X4X>X5X9X9X<X>X4X5X8X%Xb.G r.CXPXCXD.3 ` JXKXJ.4.&   6 A @ # 0 j :.:.j 9 9 t k.@X#X4X<X4X5X&X@X4XeXrXeX0X=X4X4X5X0X",
"4X4X>X4X4X4X4X4X@X2X5X9X<X>X4X4X@XOXv.w.t.ZXKXKXxXo.l.JXKXbXe.Z 4 4 3 X . u :.:.j q % 6 | c.%X$X@X>X4X4X4X&X4XwX4X4X@X>X4XtX<X4X",
"4X4X4X4X4X4X4X4X>X4X8X8X4X>X4X5X+X5Xv.D.bXCXCXCXMXkXmXCXCXvXD.D.#.y o   X 0 l k i t 4 d.B.OX9X5X@X>X>X>X@X&X4X8X9X8X4X4X<X<X>X@X",
"4X4X4X4X4X4X4X4X>X4X4X4X4X>X4X4X@X*XeXD.vXbXbXZXCXKXCXZXvXH.D.D.w.:     X - y / $.}  .h.@X4XwX9XqX9X<X<X4X4X<X<XyX1X4X5X*X5X5X5X",
"4X4X4X4X4X4X4X4X>X>X4X4X4X<X4X4X4X4X3XXXF.w.S.J.ZXKXLXbXH.S.T X.a ; @ 4 : X % a.W.gXc.oX2X&X4XwXBXdX8X8X9X>X>X>X[.#X&X*X0X8X8XtX",
"4X4X4X4X4X4X4X4X>X4X4X>X4X4X4X4X8X>X>X@Xx.U Y S.H.cXmXD.S.T V 7 t @ 8 h s = 3 Q.~.BX>X:X2X%X8XaXBXdX6X9X8X>X>X5X4X&X4X4X8X<X:X[.",
"4X4X4X4X4X4X4X4X4X4X>X4X4X4X4X>X4X4X,X>X|.x.l.V u ^ o.P Z 0 3 E ~ , # < S d.b.).BXXX4X:X>X>X9XeXVXsX4X&X4X<X>X5X8X8X<X<X>X4X*X=X",
"4X4X4X4X4X4X4X4X8X4X4X4X4X4X4X<X%X4X4X>X8XyXf.X o 1 4 w : o , W W , o X n x.0X0X5X8X:X1X5X<X4X5XiX9X&X&X&X4X4X8X4X4X4X4X&X4X8X8X",
"4X4X4X4X4X4X4X4X4X4X4X4X4X4X4X4X4X4XuX7X8X1Xd.+ & o.q.^ 1 , R L.U.U.W , > n.[.aXVXsX8X&X>X>X>X<X>X@X@X4X4X4X4X4X4X4X4X4X4X4X4X4X",
">X4X4X4X4X4X4X4X>X4X4X4X4X4X4X4X>X8XuXwX9X:Xf.x S S.w.^ ~ R W U.R.R.U.~ 2 g. XrXBX9X+X#X5X9X7X8X>X>X>X4X4X4X4X8X4X4X4X4X4X4X4X4X",
"4X4X4X4X>X4X4X4X4X4X4X4X4X4X4X4X4X8XyX2X4X>Xm.g.U G ^ Q W R W L.I.R.R.P.W c { $.'.{.$X5XsXdXqX8X>X4X4X4X4X4X4X5X4X4X4X4X4X4X4X4X",
"4X4X4X4X4X4X4X4X4X4X4X4X4X4X4X4X8X8X,X#X&X4X4XqXs.= , I.I.I.[ ! Q L.U.R.U.2   ~ [ z.OX9XsXwXwX9X>X4X4X4X4X4X4X4X4X4X4X4X4X4X4X4X",
">X4X4X4X4X4X4X4X4X4X4X4X4X4X4X4X4X<X>X@X&X@X4X9Xf._ Q _.SXfXT.[ ! L.L.L.P.o @ %.T.'.g.(.pX5X0X9X4X4X4X4X4X4X4X4X4X4X4X4X4X4X4X4X",
"4X4X4X4X4X4X4X4X4X4X4X4X4X4X4X4X5X4X>X>X>X>X4X4Xc.[ T.DXUXIXAXT.! R E Q ! 1 0 T._.T.{ h.>X&X=X5X8X4X8X4X4X>X4X4X4X4X4X4X4X4X4X4X",
"4X4X4X4X4X4X4X4X4X4X4X4X4X4X4X4X9X4X4X4X>X4X8X8X(.[ I.fXHXIXIXlXT.E - %.q.o.o.%. .E R h.4X@X*X&X2X8X4X4X4X4X>X4X4X4X>X4X4X4X4X4X",
"4X4X4X4X4X4X4X4X4X4X4X4X4X4X4X4X4X%X*X4X,XtXyX6Xh._ [ U.FXIXUXHXkX| F w.D.K.e.Z * , W c.1X<X9X&X1X2X6X4X4X4X>X>X4X4X4X4X4X4X4X4X",
"4X4X4X4X4X4X4X4X4X4X<X4X4X4X4X4X>X4X9X8X>X6XyX8XN.h.O.Y.U.AXFXFXAXgXxXw.w.p.u.4...7 R h.6X8X>X5X9X9X5X4X4X4X4X4X4X4X4X4X4X4X4X4X",
"4X4X4X4X4X4X4X4X4X4X4X4X4X4X4X4X>X@X>X4X4X8XuX8X>XoX(.{ L.U.E.E.fXJXzX#.u 1.7.J.hX .+ d.1X9X8X2X6X8X8X4X4X4X4X>X4X4X4X4X4X4X>X4X",
"4X4X4X4X4X4X>X4X4X4X4X4X4X4X4X4X4X4X@X4X5X*X5X4XtX,Xh.R E T.fXfXFXUXzX%.; 2.K.CXZX| O d.1X5X<X<X8X4X4X4X>X4X<X8X4X4X4X4X4X4X4X4X",
"4X4X4X4X4X4X4X4X4X4X4X4X4X4X4X4X4X4X4X4X*X$X%X,XsX1Xf.2 E gXDXDXDXHXjX^ p r.CXLXmX} = d.1X9XyX8X4X4X>X4X4X<X4X4X4X4X4X4X4X4X4X4X",
"4X4X4X4X4X4X4X4X4X4X4X4X4X4X4X4X5X4X<X>X&X&X>XyXN.f.O. .*.DXJXzXzXzXjX*. .r.r.r.*.d 2 g.1X5X9X2X4X4X4X@X>X4X4X8X4X4X4X4X4X4X4X4X",
"4X4X4X4X4X4X4X4X4X4X4X4X4X4X4X4X4X8X6X<X&X4X9XpXg.c ^ gXHXHXDXzXkXlXgXgX*.s @ O $ , _ h.>X4X4X>X>X4X>X4X>X4X4X4X4X4X4X4X4X4X4X4X",
"4X4X4X4X4X4X4X4X4X4X4X4X4X4X4X>X>X<XuX8X@X4X;X(.{ , E T._._.T.gXgX*. .$.} 1 . . o o 2 g.1X2X>X8X4X4X4X>X4X4X4X4X4X4X>X4X4X4X4X4X",
"4X<X4X4X4X4X4X4X4X4X4X4X4X4X4X4X:X<XiX8X>X%Xh.' _ ~ E E _ Q &.Q.*.E O X # 1 t % @ o = d.2X5X:XyX2X4X4X&X4X4X4X4X4X4X4X4X4X4X4X4X",
"4X4X4X4X4X<X4X4X4X4X4X4X4X4X4X4X>X5X4X,X}.k.+.C ^ h d ~ R R !  . .` c m c - # # $ 7 ' h.tXuX5X*X2X4X4X4X>X>X>X>X4X4X>X4X4X4X4X4X",
"4X4X4X4X4X4X4X4X4X4X4X4X4X4X4X4X4X>X@X1Xf.x w -.=.:.z E W [ R 2 n g. XoXh.c .   = ] |.2XuX9XwX=X5X4X4X4X4X4X4X4X4X4X4X4X4X4X4X4X",
"4X4X4X4X4X4X4X4X4X4X4X4X4X4X4X4X9X8X@X@Xf.m V =.,.,.:.( Q ~ R c j.N.<X@XoXd.c x m {.uX9XwX9X9X3X4X4X4X4X4X<X4X4X4X4X4X4X4X4X4X4X",
"4X4X4X4X4X4X4X4X<X4X4X4X4X4X4X4X5X9X>X@X#X].d.e r -.3.2.z 1 R g.oX4X>X@X1XOXM.n.}.1X>X1X*X5X5X3X8X4X4X4X4X4X4X4X4X4X4X4X4X4X4X4X",
"4X4X4X>X4X4X4X4X4X4X4X4X4X4X4X4X&X4X>X6XsX9Xx.O.| k =.j j 6 j.oX5X*X*X@X[.<XuXyX9X9X%X*X4X2X9X8X8X8X4X4X4X4X4X4X4X4X4X4X4X4X4X4X",
"4X4X4X4X4X4X4X4X4X4X4X4X>X4X4X4X&X&X>XiXsX5XpX.Xd.3 # # v k.N.@X9X%X=X>X[.,XwXwX4XwXwX5X&X@X4X8X8X4X4X4X4X4X4X4X4X4X4X4X4X4X4X4X",
"4X4X4X4X4X4X4X4X4X>X4X4X4X4X4X4X&X4X>X<X>X>X<XtX(._ 7 c Z.N.4X8X>X&XwXuX,X@X5X8X&X2X3X4X&X@X4X<X8X8X4X4X4X4X4X4X4X4X4X4X4X4X4X4X",
"4X4X4X4X4X4X4X4X4X4X4X4X4X4X4X4X4X8X<X@X%X4X4X&XeX).(.M.N.%X<X5X8X4X*X1XtX4X&X:X5X,X:X4X4X@X<X6X2X>X>X4X4X4X4X4X4X4X4X4X4X4X4X<X"
};
