/* XPM */
static char *result[] = {
/* columns rows colors chars-per-pixel */
"64 64 256 2 ",
"   c #040301",
".  c #090809",
"X  c #180A06",
"o  c #171607",
"O  c #0A0813",
"+  c #140815",
"@  c #181617",
"#  c #091814",
"$  c #280805",
"%  c #2A1609",
"&  c #281717",
"*  c #361A19",
"=  c #3A1511",
"-  c #182718",
";  c #112A12",
":  c #28251B",
">  c #352819",
",  c #383419",
"<  c #292E12",
"1  c #171825",
"2  c #191A38",
"3  c #0F0D27",
"4  c #251A28",
"5  c #2E152D",
"6  c #173027",
"7  c #292524",
"8  c #3A2B24",
"9  c #38282A",
"0  c #283727",
"q  c #3C332A",
"w  c #3B3624",
"e  c #362A33",
"r  c #393735",
"t  c #272C39",
"y  c #461A18",
"u  c #4F1B0E",
"i  c #44271B",
"p  c #58291C",
"a  c #45371C",
"s  c #513418",
"d  c #652719",
"f  c #763418",
"g  c #742819",
"h  c #461B25",
"j  c #462827",
"k  c #582824",
"l  c #443223",
"z  c #443A2B",
"x  c #4C3B2B",
"c  c #4A3627",
"v  c #533D2C",
"b  c #573726",
"n  c #482934",
"m  c #4C3C33",
"M  c #473735",
"N  c #533D33",
"B  c #583A39",
"V  c #512C34",
"C  c #783627",
"Z  c #69312E",
"A  c #6A1D1E",
"S  c #39411D",
"D  c #15522E",
"F  c #3B4427",
"G  c #3B4836",
"H  c #2F5431",
"J  c #16673C",
"K  c #27683A",
"L  c #30713B",
"P  c #12411D",
"I  c #4B421D",
"U  c #754118",
"Y  c #4C452C",
"T  c #494727",
"R  c #53432C",
"E  c #564629",
"W  c #4C4335",
"Q  c #534334",
"!  c #5A4434",
"~  c #594838",
"^  c #48573C",
"/  c #5B5438",
"(  c #515229",
")  c #65472A",
"_  c #674B3A",
"`  c #675739",
"'  c #725C3D",
"]  c #775532",
"[  c #774531",
"{  c #4B6538",
"}  c #6B633E",
"|  c #6C6337",
" . c #131A48",
".. c #271D4C",
"X. c #1B244B",
"o. c #172A56",
"O. c #292847",
"+. c #302E52",
"@. c #29316A",
"#. c #1A2E75",
"$. c #433C61",
"%. c #37524C",
"&. c #1B6E46",
"*. c #30724A",
"=. c #31496D",
"-. c #2E675D",
";. c #594A45",
":. c #50544B",
">. c #675846",
",. c #735A44",
"<. c #6E4D4A",
"1. c #476846",
"2. c #4C7150",
"3. c #6B6545",
"4. c #776248",
"5. c #776854",
"6. c #4E566E",
"7. c #586D6F",
"8. c #6F6C72",
"9. c #6C5977",
"0. c #8C2E17",
"q. c #873728",
"w. c #963828",
"e. c #8F3128",
"r. c #904A31",
"t. c #B34627",
"y. c #AE4A31",
"u. c #DA5A37",
"i. c #C74F2B",
"p. c #D26639",
"a. c #EB6F37",
"s. c #8F5448",
"d. c #8A6B50",
"f. c #B56452",
"g. c #917366",
"h. c #AF7B66",
"j. c #C55145",
"k. c #D7764A",
"l. c #E66A46",
"z. c #ED7249",
"x. c #C27764",
"c. c #28834A",
"v. c #378956",
"b. c #389657",
"n. c #2C894D",
"m. c #34B05B",
"M. c #359566",
"N. c #37A868",
"B. c #35AF6C",
"V. c #46965C",
"C. c #4D8957",
"Z. c #48966B",
"A. c #46A665",
"S. c #44B669",
"D. c #48BC75",
"F. c #50B074",
"G. c #66A65E",
"H. c #3CC771",
"J. c #48C878",
"K. c #47D87C",
"L. c #55D67C",
"P. c #50C476",
"I. c #49F27A",
"U. c #6FDE7F",
"Y. c #B18B6B",
"T. c #A19E6E",
"R. c #C78F73",
"E. c #E49C75",
"W. c #253A84",
"Q. c #2C3A8E",
"!. c #354B90",
"~. c #1A4BA1",
"^. c #3154B4",
"/. c #4E5890",
"(. c #52688D",
"). c #71768D",
"_. c #5A69A3",
"`. c #455BCA",
"'. c #566CC9",
"]. c #335BCA",
"[. c #D143CB",
"{. c #B563C7",
"}. c #3AB084",
"|. c #639994",
" X c #3CD285",
".X c #3DF994",
"XX c #4DCB82",
"oX c #49DA86",
"OX c #52D88B",
"+X c #50D58F",
"@X c #4AE788",
"#X c #53E88C",
"$X c #4CFD8D",
"%X c #49F989",
"&X c #53F58D",
"*X c #53FD8D",
"=X c #5AFC8C",
"-X c #59F986",
";X c #55EB95",
":X c #4CF594",
">X c #45FE94",
",X c #4DFE93",
"<X c #4CFE9B",
"1X c #45FB98",
"2X c #54F594",
"3X c #5AF494",
"4X c #52FE94",
"5X c #5AFC94",
"6X c #54FD9A",
"7X c #5AFC9B",
"8X c #57F69B",
"9X c #4CE594",
"0X c #68EB9A",
"qX c #77E79B",
"wX c #64F49B",
"eX c #65F898",
"rX c #6AED96",
"tX c #7AD7AE",
"yX c #4BFEA2",
"uX c #47FCA4",
"iX c #53FDA2",
"pX c #59FAA3",
"aX c #69EBA7",
"sX c #77E7AB",
"dX c #67F7A4",
"fX c #77F3A7",
"gX c #79ECB5",
"hX c #7B91CF",
"jX c #8B8F94",
"kX c #AC918F",
"lX c #9092B1",
"zX c #88ACAD",
"xX c #ADACAC",
"cX c #A78BB4",
"vX c #D3998D",
"bX c #D2AC90",
"nX c #E9B48F",
"mX c #D1B1AC",
"MX c #E9BDA6",
"NX c #E19E8B",
"BX c #90D6AF",
"VX c #A7C7B4",
"CX c #85E8AE",
"ZX c #8BD790",
"AX c #F9D7B9",
"SX c #F2CBAF",
"DX c #DBCCAB",
"FX c #9293C8",
"GX c #AFAFCE",
"HX c #A3A4DB",
"JX c #8AD5C4",
"KX c #BECFE1",
"LX c #CCD5D6",
"PX c #F4D4CB",
"IX c #F8E4CD",
"UX c #E2E8E9",
/* pixels */
"7X7X7X2X$X*X4X=X*X*X4X*X4X6X6X5X=X*X*X$X4X4X<XiXuX<X2X=X5XiX<X5X*X$X>X4X,X<XdXfXsX0X5X4XiXiXyX>X7X6X6X,X,X4X4X4X4X4X4X4X4X4X,X4X",
"7X5X4X4X*X*X*X4X6X4X8X4X6X5X5X>X5X5X5X2X&X4X4X6X6X4X,X5X&X4X:XOXXXXXXXL.J.J.K.rXfX5X5X4X8XiX6X5X6X4X,X4X4X4X4X,X4X4X4X4X4X4X4X4X",
"*X,X$X%X&X&X,X$X<XpX6X6X4X5X$X>X>X4X6X4X,X<X4X5X*X-X$X6X5X%XoX*.:.%.*.G { H L P.eX*X4X2X4X4X2X7X4X,X4X4X6X4X4X4X4X4X4X4X4X4X4X4X",
"4X,X>X,X&X&X:X>X<X6XiX<X,X2X*X>X>X,X<X<X:XOXXXL.L.-X$X1X,X@XA.Q h 8 j k i % < m.>X7XwX7X4X*X*X5X*X4X,X4X5X6X4X,X4X4X4X4X4X4X4X4X",
"yX6X6X6X4X,X,X,X>X4X2X,X,X5X5X,X*X,X>X:XJ.2.^ { A.#XuXuXoXv.^ ( ) E _ <.! % < N.6XfXgX7X%X$X5X8X*X4X4X4X6X5X4X4X4X4X4X4X4X4X4X4X",
"yX6X7X7X4X4X,X4X>X2X5XwX5X6X6X6X5X<XyX4XA.z y p { F.9X+XZ.^ b / | / >.3.Q & - v.OXBXCXwX$X$X5X7X7X5X4X4X4X,X4X,X4X4X4X4X4X4X4X4X",
"2X2X5X*X5X5X<X<X6X5XrXqX0X6X<X6X4X6X6X&XA.M V B / *.*.2.1.( ) } 4.` Y q : $ & G C.XXfXdX5X5X7X7XdX7X5X4X4X4X4X4X4X4X4X4X4X,X4X4X",
"=X-X$X*X5X7X6X<XyXdXCXZXqX6X1X5X#XOXOXL.V.r V _ _ , 4 n j ( | ` ;.B 8 @ X = i > a V.oX@X@X:X7XdXfXdX7X,X$X,X4X4X4X4X4X4X4X4X4X4X",
"*X5X5X2X6X6XdXdXpXwXwXwXeX2X6X,XB.*.H { ^ e e ~ ! ) s h V ` ` N r & & 7 9 q l l z ^ *.K K m.,XeX7X6X4X$X,X4X4X>X4X4X4X4X4X4X4X4X",
",X4X5X4X6X6XeXeX7X6X6X4X,X6X2XXX*.; o > j * j m / ' ) b V ` _ M : @ & q Q ~ R ( F , * X - n.K.*X4X5X4X,X4X4X4X5X4X4X4X4X4X4X4X4X",
"1X,X6X6X6X4X5XeX5X$X,X,XiX;XA.K 0 > > q j i l 9 z ( ) s s / ~ M q > w ~ ` ` E T T c h * 7 6 L m.1X,X,X*X,X4X4X5X4X4X4X4X4X,X4X4X",
">X1X,X:X6X4X5X7X2X&X2X4XpX#Xn.; * M m G m b c 9 M v E I a E R ;.m Y ~ ,.' ' / ^ W B B ~ ^ - ; &. X:X6X4X5X,X,X4X,X4X4X4X4X4X4X4X",
",X,X4X:X6X4X7XeX7X6X,X,X<X1XH.v.%.- : < w E ( ;.;.~ E R R T R R N _ ' ' ' ' 3.3.;.<.B B B j : G c.S.:X6X5X<X,X4X4X4X4X,X4X4X4X4X",
",X4X2X4X:X6X7XeXeX7X,X,X<X<X8XoXv.o $ > , F ( >.,.` ) ! R ~ R c _ >.4.' ' ,.3.3.} _ Z B B v c l T V.#X<X4X<X6X6X4X4X4X4X4X4X4X4X",
"4X5X2X4X<X,X5XeXeX=X5X4X6X;XXXb.( d 0.C s a v [ ' ,.,./ / :./ ` _ ` 3.' ' 4.4.>./ Y x z q l x :.C.P.4X4X4X,X,X5X4X4X4X4X4X4X4X4X",
"2X2X6X6X,X$X4X=X$X$X5X5X6X@XV.w g y.j.y.q.k i c _ ,.5.3.} / } } 3.3.| } ' ' _ ) m G T , > y l C.OX:X>X4X5X5X,X4X4X4X4X4X4X4X4X4X",
"*X*X5X5X6X8X4X*X%X*X=X-XJ.Z.{ U f.vXR.s.r.C b b ! ;.,.>./ >.4.| 5.4.` ` ` ;._ E I I F w w j r :.C.H.uX<X2X5X%X5X5X,X,X4X4X4X<X1X",
"*X4X4X6X6XiX4X2X=X4X*XL.C.z C y.bXPXmXd.r.w.w.C R R N N ( / 3.} ' | ` ! Q W ! E I I F T Y ~ m 7 # c.@X7X7X,X$X>X6X,X,X*X*X*X4X<X",
",X*X4X6XiXiX6X,X4X:XJ.C.] 0.t.p.MXUXxX` f y.r.s c x x x Q / ` _ ) ` / Q W Q Q v b a z M m ;.N 8 7 H c.H.;X6X<X,XyX<X4X*X$X$X4X7X",
"4X4X,X6X<X<X,X>X>X@Xn.c r.u.a.l.MXPXkXB f t.r.s > x Y Y Y W b v Q ! ! Q x v v B M q e V B m m Q x > ; *.@XpXiX,X<X8X5X,X:X<X<XpX",
"4X,X6X4X,X,X,X,X<XoXL > w.z.z.z.E.NXkX8.s.y.q.* 9 c Y Y W Q m x x m m c l v B N M M e n x z S ( T * 1 *.pX6X*X5X*X5X8XwXtXsXdXpX",
"*X4X6X6X4X$X*X,X<XoXJ o q.l.z.l.i.j.Y.xXkXj.e.h 9 z R Q ;.B W Y x R M 7 * V N v Q m M l < S T I Y n e -.9X,X-X-X*X2X<XsXVXxXsXpX",
",X4X6X6X*X-X*X4X<XoXJ o q.l.l.l.p.i.x.vXx.i.w.C b b m Q B N Y W x ( T 9 n n V N v v Y w > a v a 9 e e -.M.J.I.-X$X4X,XaXBXBXaX5X",
":X6X6X6X*X%X$X4XpX+X&.$ A y.u.a.a.p.k.z.p.t.t.y.C k 8 q T T v B T T T Y n V V M x v x m M V j 5 e 8 w 7 6 c.@X<X.X>X.X:X0XwX5X-X",
"7X7X7X6X4X:X,X,X5X#XN.H s f t.u.z.a.a.a.p.u.u.i.0.p : 7 l c E E v a I W B V n l z c x b R j h :.%.:.l X   J @X8X.X1X>X$X>X$X=XI.",
"6X6X6X6X4X,X,X,XiX:X%XB.K : d t.p.k.a.a.a.a.p.t.q.i & @ & l v v a , a V B V l 9 0 b R E b i z 2.P.C.M $ X &. X,X<X6X4X,X*X*X=X=X",
"iX<X6X5X5X4X,X>XpX$X$X>XB.D a f 0.r.y.y.y.y.y.y.e.d % . o z ~ N c i j j i i , 0 , M V c b T *.D.5XP.2.^ H M.@X<X5X4X4X5X5X*X=X*X",
"<X<X,X4X*X5X4X,X4X,X,X<X9XD.*.o % % s b k d Z e.w.0.u X o w R N Y x 8 & o < > > > e r j l C.oX#X*X&XK.K.K. X7X7X*X*X5X4X4X$X*X$X",
"<X<X4X*X5X=X4X,X$X5X7X7XpX#XN.D ;   e :.<.<.Z k e.f.s.u $ : , x Q ! q @ . > s p k M M ^ *.D.yX<X4X4X,X4X5X5X5X4X5X5X5X<X<XiXaXtX",
"6X,X4X5X5X2X5X:X4X7X2X,X,X,X@XJ.*., <.kXmXmXg.> ;.mXmXs.y % - w b N M + O u q.q.r.Z M v.XX;X>X,X*X*X6X8X4X4X*X$X4X6X4X,X6XsXGXHX",
"4X4X4X6X6X6X2X,X6X7X5X$X>X<X6X&XC.x g.MXIXAXg.@ 6.LXPXh.C $ O > Y c j 4 = g 0.w.C k b A.pXeX$X>X*X5X7XpX<X3XrXfX<X:X:X,X7XaXJXGX",
"*X4X,X,X4X<X6X6X5X6X5X5X*X*X5X:XZ.Q h.DXIXSXg.: :.LXUXE.s.& @ , r * $ y g 0.0.g k y j Z.2X6X6X5X4X6X<X,X,XeXBXtX5X6X6X<X4X=XwXsX",
"5X4X4X4X6X,X,X,X,X,X6X5X4X4X4X&XA.d.Y.DXAXPXkXm G.DXIXbXd.W 8 i : # + k 0.0.f p 9 q ^ S.8XiX,X6X6X<X,X,X8XdXsXCX8X6X4X,X,X$X*X$X",
"4X4X4X6X4X4X4X4X,X4X4X4X6X4X,X4XT.Y.NXAXAXSXmXvXmXLXAXnXR.Y.,.> X   X c E ) b y q 2.P.#X8X6X6X5X<X<X,X,X2X7XdXaX6X4X6X,X,X4X$X*X",
"4X4X4X4X4X4X4X,X4X4X4X4X4X4X,X2XqXT.bXMXMXMXSXAXPXSXE.R.Y.Y.d.> . X % > F :.{ ^ { J.<X<XiX8X2X,X<X,X<X4X5X4X4X4X2X6X4X4X,X4X4X4X",
"4X4X4X4X4X4X4X4X,X4X4X5X4X,X4X5XI.rXG.5.h.NXSXIXSXNXY.Y.} ] b > & 8 > @ 6 C.XXP.J.@X>X<X6X7X5X$X>X4X4X4X4X,X$X$X4X4X4X,X4X4X,X5X",
",X4X4X4X4X4X4X4X4X4X4X4X4X4X4X4X*X%XS.1.d.h.Y.bXbXY.s.| W n e > 8 z q X 6 B.uXuX$X4X5X2X6X7X4X*X5X*X4X,X,X4X4X$X4X4X4X,X4X4X4X4X",
"4X4X4X4X4X4X4X4X4X4X4X4X,X4X4X4X5X5X#XP.C.) [ } ' [ s % 1 +.@.t 9 8 8 5 %.B.uX1X>X5X5X7X6X2X2X*X*X5X4X,X<X4X6X6X4X4X4X4X4X4X4X4X",
"4X4X4X4X4X*X4X4X4X4X4X4X,X4X4X4X6XiXpX:Xm.^ S F S * * @ X.W.Q.@.O.: 4 O.=.}.OX2X5X5X5X6X6X6X7X*X4X4X,X4X5X4X4X5X4X,X4X4X4X4X4X4X",
"6X4X4X4X4X4X,X4X,X,X4X5X4X,X$X4X6X1XiX4XK.S.B.A.*.: 3 X.#.~.~.Q.o.3 1 o.W.-.M.H.6X,X,X2X4X:X<X,X>X$X,X5X4X4X,X,X,X4X4X4X4X4X4X4X",
"4X4X4X4X4X4X4X4X4X4X,X4X4X4X4X4X%XiXyX<X6X<X<X&XN.- 2 W.^.].~.Q.o.3 3 o.#.@.+.F.>X$X%X$X,X,XiX4X4X4X4X4X4X4X4X4X4X4X4X4X4X4X4X4X",
"4X4X4X4X4X4X4X4X4X4X4X4X4X4X4X4XeXfX0X*X$X,X,X=XB.O...!.^.].^.!.@.o. . .2 2 %.F.<X>X%X5XpX6X6X4X*X4X*X4X4X4X4X4X4X4X4X4X4X4X4X4X",
"4X4X4X4X,X4X4X4X4X4X4X4X4X4X4X4XdXCXeX*XI.@X@X@XM.6.@.!.^.].!.@.@.@.#.t 7 r 6.Z.9X:X<X6X7X8X4X4X*X*X*X4X4X4X4X4X4X4X4X4X4X4X4X4X",
"4X,X4X4X4X4X4X4X4X4X4X4X4X4X4X4XeXeXeX*XB.&.J &.2.5.9.!.W.o.X...+.@.=.6.8.jXlX|.M.oX<X6X3X3X6X:X4X5X4X4X4X4X4X4X4X4X4X4X4X4X4X,X",
"4X4X,X4X4X4X4X4X4X4X4X4X4X4X4X4X4X4X4X@Xb.P . @ B h.g.$. .1 1 +.@.W./.lXGXUXLX).=.B.,X4X&X2X2XiX6X6X6X<X4X4X4X4X4X4X4X4X4X4X4X4X",
"4X4X4X4X4X4X4X4X4X4X4X4X4X4X4X4X5X*XS.*.2.5.r.A y.R.h.e 4 m 7.)._.!./.lXLXUXUX).$.}.:X5X5X*X,XpX6X6X6X6X,X4X4X4X4X4X4X4X4X4X4X4X",
"4X4X4X4X4X4X4X4X4X4X4X4X4X4X4X4X6X2Xc.; >.bXNXf.f.R.d.7 4 8.lXxXlX_.!.|.KXUXKX).@.A.:X5X4X$X%X6X4X4X6X4X4X4X4X4X4X4X4X,X4X4X4X4X",
"4X4X4X4X4X4X4X4X4X,X4X4X4X4X4X,X,X:Xc.X <.SXAXE.h.s.M 2 O.6.9.).).|.hXhXFXHXFX@.O.B.4X7X8X$X.X$X5X5X*X4X4X4X6X4X4X4X4X4X4X4X4X4X",
"4X4X4X4X4X4X4X,X4X4X4X4X4X4X4X4X6X;Xn.- <.mXAXnXT.8 3 @.=.=.+.+.6.cXFX'.`.'.!.O.6 b.=X6XuX6X>X,X,X<X4X5X4X4X4X4X4X4X4X4X4X4X4X4X",
"4X4X4X4X4X4X4X4X4X4X4X4X4X4X,X4X,X2XH.c.2.5.8.5.W 7 O./.(.7.7.8.8.).).'.`.'.(.2 # n.&X7X8X4X$X=X,X4X4X4X4X4X4X4X4X4X4X4X4X4X4X4X",
",X4X4X4X4X4X4X4X4X4X4X4X4X4X4X4X>X,X*XK.V.< o - 2 5 6.8.jXjXlXxXcX7.@.^.`.|.8.r ; b.3X6X>X2X6X6X,X4X,X4X4X4X,X4X4X4X4X4X4X4X4X4X",
"4X4X4X4X4X4X4X4X4X4X4X4X4X4X4X4X6X<X6X4XJ.L P # + 2 +.:.:.8.jXGXGX|./.$.+.6.:.*.n.J.<X>X%X,X<X,X2X4X4X4X4X4X6X6X4X4X4X4X4X4X,X4X",
"4X4X4X4X4X4X4X4X4X4X4X4X4X4X4X4X6X6X6X*X%XK.V.w @ + O + 4 O.9.lXGXHXlX+.O   6 b.@X,XyX>X*X5X3XI.4X4X6X4X4X4X4X4X4X4X4X4X4X4X4X4X",
"4X4X4X4X4X4X4X4X4X4X4X4X4X4X4X4X*X,X<X,XK.A.%.9 & @ + . + 3 ..).FXKXFX/. .O 1 &.B. X7X4X6XzXcXtX4X4X4X4X4X,X6X4X4X4X4X4X4X4X4X4X",
"4X4X4X4X4X,X4X4X4X4X4X4X4X4X4X4X5X>X>X@Xm.P * 5 5 5 & .     1 +.7.GXHX/.#.#.X.1 P N.8X4X;XcX[.FX2X6X4X4X,X4X4X4X4X4X4X,X4X4X4X4X",
"4X4X4X4X4X4X4X4X4X4X4X4X,X4X4X4X$X,X7XrXS.L 0 4 5 $ X   # D &.-.7.).8.@.o.....* > A.iXdXBXcX{.zX2X:X4X,X4X,X4X5X4X4X4X4X4X4X4X4X",
"4X4X4X4X4X4X4X4X4X4X4X4X4X4X4X4X2X6XpX4X%XK.n.; . .     P A.#X@XS.%.1 O @ X.O.A [ G.rXCXVXBX0X0X,X,X,X4X4X5X5X4X4X4X4X4X4X4X4X4X",
"4X,X4X4X4X4X4X4X4X4X4X4X4X4X4X4X5X5X6X5X5X&XS.&.D J D J v.oX7X7XH.P   $ u V B d v G.eXfXCXdX<X1X,X,X6X4X4X4X<X4X4X4X4X4X4X4X4X4X",
"4X4X4X4X4X4X4X4X4X,X4X4X4X4X4X4X,X>X4X5X5X5X&X XOXOXoXJ.@X&X,X$XH.P X g t.y.e.u : b.2X6X5X,X<X6X6X6X6X4X4X4X4X,X4X4X4X,X4X4X4X4X",
"4X4X4X4X4X4X4X,X4X4X4X4X4X4X4X4X,X>X,X2X-X5X6X6X4X4X5X4X4X5X5X5XH.c.H Z e.0.0., &.F.aXpX$X>X5X3X4X4X4X4X4X,X,X4X4X4X4X4X4X4X4X4X",
"4X4X4X4X4X4X4X4X4X4X4X4X,X4X4X4X6X,X,X,X=XeXeX7X6X4X6X,X4X4X2X8X1XOXA.D X X > v.J.tXJXaX5X6X6X,X4X5X4X4X5X,X,X4X4X4X4X4X4X,X4X4X",
"4X4X4X4X4X4X4X4X4X,X4X4X4X4X4X4X4X5X<X4XeXfXwXeX8X:X,X4X4X6X6X6X6X5XK.n.P 6 J H.eXgXgXgXwX7X6X$X2X4X4X4X,X4X4X,X,X4X4X4X4X4X4X4X",
"4X4X4X4X4X4X4X4X4X4X4X4X4X4X4X4X*X2X6X4X8XwXrX5X5X4X>X=X=X,X,X<X,X4X@XH. X XXX#X=X5XdXfXgXwX5X=X5X4X4X4X,X4X4X4X4X4X4X4X4X4X4X4X",
"4X4X4X4X4X4X4X4X4X4X4X4X4X4X4X4X4X=X2X,X6XeX5X5XeX,X%X=X-X%X>X,X4X2X%X4X:XuXpX-X5XI.%XCXBXrX*X%X4X4X4X*X4X4X4X4X4X4X4X4X4X4X4X4X"
};
