/* XPM */
static char *result[] = {
/* columns rows colors chars-per-pixel */
"64 60 256 2 ",
"   c #180608",
".  c #111112",
"X  c #270503",
"o  c #26170D",
"O  c #281816",
"+  c #35181B",
"@  c #34100D",
"#  c #16371B",
"$  c #113318",
"%  c #292515",
"&  c #362919",
"*  c #37361C",
"=  c #272911",
"-  c #081828",
";  c #151831",
":  c #331133",
">  c #193A24",
",  c #10372E",
"<  c #292923",
"1  c #382927",
"2  c #2A3627",
"3  c #393728",
"4  c #352935",
"5  c #3A3536",
"6  c #2C3236",
"7  c #451D17",
"8  c #462A1A",
"9  c #582B19",
"0  c #48351B",
"q  c #562D17",
"w  c #752D14",
"e  c #4A142C",
"r  c #472B27",
"t  c #552727",
"y  c #45342C",
"u  c #4C3B2B",
"i  c #463827",
"p  c #553928",
"a  c #492A33",
"s  c #552D35",
"d  c #4A3431",
"f  c #483A34",
"g  c #563937",
"h  c #652C25",
"j  c #683A29",
"k  c #643A37",
"l  c #74322B",
"z  c #1A4826",
"x  c #104932",
"c  c #264529",
"v  c #3A462B",
"b  c #374936",
"n  c #3A5536",
"m  c #2F4E2F",
"M  c #1A703A",
"N  c #25683C",
"B  c #306D39",
"V  c #22421D",
"C  c #66421E",
"Z  c #47462B",
"A  c #57442A",
"S  c #484737",
"D  c #574737",
"F  c #44543A",
"G  c #585537",
"H  c #5E572D",
"J  c #68492C",
"K  c #73492A",
"L  c #654B39",
"P  c #675839",
"I  c #755B39",
"U  c #755234",
"Y  c #516E39",
"T  c #6C633A",
"R  c #484515",
"E  c #11184F",
"W  c #2D1154",
"Q  c #152751",
"!  c #32304C",
"~  c #1A3672",
"^  c #24356D",
"/  c #4D1653",
"(  c #4E334C",
")  c #5A295A",
"_  c #3B4C43",
"`  c #344F4B",
"'  c #1A7047",
"]  c #257445",
"[  c #33744B",
"{  c #2E4670",
"}  c #367966",
"|  c #464444",
" . c #445A47",
".. c #595748",
"X. c #574C49",
"o. c #694A45",
"O. c #655846",
"+. c #745A46",
"@. c #745755",
"#. c #487649",
"$. c #4E6B50",
"%. c #696447",
"&. c #776646",
"*. c #726E4F",
"=. c #4A5075",
"-. c #5B626F",
";. c #736C6A",
":. c #953215",
">. c #8E3929",
",. c #A83C2F",
"<. c #C33E1C",
"1. c #8B421A",
"2. c #AD4818",
"3. c #8C4A2D",
"4. c #A84527",
"5. c #B84626",
"6. c #B94A34",
"7. c #AD4E32",
"8. c #8B6D3D",
"9. c #B26137",
"0. c #D2561D",
"q. c #C85131",
"w. c #EF6B33",
"e. c #D26733",
"r. c #835248",
"t. c #B45647",
"y. c #8F6C51",
"u. c #A7795B",
"i. c #B66E55",
"p. c #8D7470",
"a. c #AF7669",
"s. c #CE6B4E",
"d. c #F06C49",
"f. c #D16E5A",
"g. c #38895A",
"h. c #379759",
"j. c #2C8F51",
"k. c #31AC55",
"l. c #3E9A65",
"z. c #3F8C60",
"x. c #3BBD76",
"c. c #38AB72",
"v. c #468556",
"b. c #498B4A",
"n. c #43A85B",
"m. c #479966",
"M. c #519D73",
"N. c #46BC79",
"B. c #50AB6F",
"V. c #7E837C",
"C. c #3AC878",
"Z. c #3BCF72",
"A. c #3FCB5E",
"S. c #47C879",
"D. c #55CC7A",
"F. c #48D67A",
"G. c #4ECF77",
"H. c #46EC7C",
"J. c #988977",
"K. c #B28D6E",
"L. c #A38C5C",
"P. c #CD8E5C",
"I. c #CE8A71",
"U. c #DAA77A",
"Y. c #2C3B8F",
"T. c #1D3B95",
"R. c #304D8E",
"E. c #3550A8",
"W. c #1A4490",
"Q. c #4C5389",
"!. c #526A8B",
"~. c #747494",
"^. c #455CA5",
"/. c #6B7BAE",
"(. c #4C6BBD",
"). c #3C5BC7",
"_. c #4E75C4",
"`. c #950B96",
"'. c #950DA4",
"]. c #A50BAD",
"[. c #A21EA0",
"{. c #857988",
"}. c #798E93",
"|. c #61999E",
" X c #3BD386",
".X c #3EFD92",
"XX c #47CC83",
"oX c #55C884",
"OX c #46D586",
"+X c #56D487",
"@X c #4ADD94",
"#X c #4BEC8A",
"$X c #4CF38C",
"%X c #45FD8D",
"&X c #4BFD8D",
"*X c #4AFD87",
"=X c #52FD85",
"-X c #54F58E",
";X c #53FC8D",
":X c #59F88C",
">X c #55EC96",
",X c #44FF94",
"<X c #4DFE93",
"1X c #44FE9A",
"2X c #4DFE9A",
"3X c #4AF398",
"4X c #54F593",
"5X c #5AF693",
"6X c #53FE94",
"7X c #5AFC94",
"8X c #53FD9A",
"9X c #5AFD9A",
"0X c #58F599",
"qX c #53EC89",
"wX c #63F694",
"eX c #63FA98",
"rX c #7BEA9D",
"tX c #4CFEA3",
"yX c #4CFEAA",
"uX c #53FEA2",
"iX c #5AFDA2",
"pX c #57FDAB",
"aX c #66FBA3",
"sX c #75EDA5",
"dX c #60CA82",
"fX c #6B86C8",
"gX c #929392",
"hX c #B29491",
"jX c #8F93AB",
"kX c #B2AFAF",
"lX c #AA9F9F",
"zX c #CC928D",
"xX c #CCA792",
"cX c #E8B698",
"vX c #CCB0A9",
"bX c #EABDA6",
"nX c #8DE2A6",
"mX c #DDC49D",
"MX c #F7CAA9",
"NX c #F9CCB8",
"BX c #F9D2BA",
"VX c #ECCEB0",
"CX c #FFE3B1",
"ZX c #E4C8A7",
"AX c #94A4CB",
"SX c #AEBCD7",
"DX c #C3BDC1",
"FX c #BEC1D0",
"GX c #D3CECE",
"HX c #F8CAC4",
"JX c #FCD6C2",
"KX c #F0D0D1",
"LX c #D6E6ED",
"PX c #FAFAF7",
"IX c #F3EEEF",
"UX c #E1DCDE",
/* pixels */
"<X<X<X6X6X7X7XeX;X6X7X6X7X9X0X8X&X6XeX-X;X6X6X&X7X;XeX:X6X6X6X;X8X6X:X=X=X&X6X<X1X2X2X<XeXeX6X9X4X4X0X6X6X7X7X7X7X;X6X6X<X6X<X6X",
"6X6X<X6X6X6X6X6X&X;X7X6X4X6X8X8X<X&X<X&X7X7XiX8X&X4X+XD.$X%X6X8X8X7X;XH.F.D.oXD.XXoXoXXX5X6X,X1X8X8X8X6X6X6X<X&X6X6X6X6X6X6X6X6X",
"6X6X6X6X8X8X<X$X&X&X6X6X6X<X8X2XeX;X%X%X8X6XuXtX9XOXv.v.F.6X9X2X6X8X9XoXg._ _ b b | S #.+X9X8X2X2X<X<X6X6X6X<X<X<X<X8X0X6X6X6X6X",
"6X6X6X6X8X2X2X1X&X<X6X<X<X<X2X8XwX6X6X<X2X2XtX3X+Xm.b F M.OX9X4XG.F.oXM._ 1 t e t e @ b oX9X<X<X<X<X<X6X6X<X&X&X,X<X2X8X8X6X6X6X",
"<X6X6X8X8X2X2XtX<X&X<X&X<X<X<X<X1X<X6X,X%X&X0XF.} n A D F h.+XF.b.n _ | F D O.o.U p @ 2 XXtX%X*X,X<X<X6X;X6X<X<X2X2X2X0X8X6X6X6X",
"-X6X8X<X2X3X8XiX7X4X;X6X&X<X<X6X1X8X7X;X&X6X7XG.b & A L g  .B.b.v & r g G O.%.O.P Z c '  X2X<X&X<X&X&X<X<X6X4X6XiX2X2X2X<X8X6X6X",
"7X6X8X2X2X2X0X9X5X7X6X;X6X;X6X6X2X7X7X:X7X7XeXD.F & q A o... .F 5 i J U +.+.L u = m h.XX#X,X2X2X6X;X6X<X6X7X7X7X9X0X8X2X2X8X4X6X",
"7X4X<X2X2X<X4X7X7X7X6X7X6X6X7X7X2X6X7XqXG.G.oXn.F * 0 0 o.X.r 4 S G U U +.o.g = . > j.H.H.-X9XaX7X7X;X<X6X6X7XwX7X0X3X<X,X<X6X7X",
";X&X6X&X6X;X-X-X4X-X7X6X6X4X&X6X6X<X8XOXj.n X.` Z y a a g u 1 r G T P U h e O . . < 3 #.+XeX7X9X%X%X<X6X;X7X-X7X-X-X4X<X<X6X6X6X",
";X;X6X<X6X7X5X5X&X6X<X&X;X6X<X%XG.S.oXB.n + 7 t Z D g d f i y s G P I J p 8 & O * % < b M.dXS.OX#X5X7X-X;X;X6X&X5X4X6X6X<X6X6X;X",
";X6X6X<X6X8X7X9X*X%X.X%X9XaXeX+Xb.m n b f s t p G P G D A y p g A D D J L P L D i 2 d f F F m [ OXaXaX9X2X.X%X%X7X7X6X6X<X6X7X7X",
"6X;X<X<X<X6X6X6X;X6X*X,X8X>XD.h.R o & 3 f ( p L P %.+.I J D g X.A D D G +.*.&.&.A Z X.( t 8 + 3 h.oX3X1X,X*X&X;X7X6X<X<X<X6X;X6X",
"5X6X-X<X<X6X6X6X7X7X8XtXyX Xj.$ = % 0 Z F D D +.P I I 8.8.U L G P P P P ..O.T I I P g g f 1 & & # j. XtX2X0X6X7X6X6X<X<X<X6X4X4X",
"6X4X<X<X<X<X4X-X7X0X0X>XXXg.# . + a u Z m v X.L P P U 8.y.r.%.%.%.T T +...O.P U U G 3 1 3 v y & X # g.S.>X9X-X7X-X;X&X<X3X6X6X4X",
"6X8X2X2X<X4X;X-X6X9XiXS.M > 1 a a k k y o . = 0 D G P I I %.&.Y *.O.I I *.%.G A Z & o = 3 S g g d 2 $ ' XXaX9X7X;X-X<X<X<X2X8X0X",
"8X8X2X2X<X6X6X-X&X<X8XXXN x  .$.S a ( 5 O o o * S G G G G G P P O.O.L P P P A u & % O o * 3 r | $. .z M XXiX<X&X-X6X6X<X8X2X8X8X",
"2X8X8XiX9X9X7X*X6X7X9X$XC.C.G.n.x . + y 3 * * i S S S D v Z D o.X.X.Z Z D S S f u Z 2 f 1 O . c c.F.C.Z.>X9X7X6X*X;X7X8XiXiX8X<X",
"&X<X6X6X8X6X7X7X.X6X-X8XuXtX Xh.< @ + 1 S S A p d y Z A j J j D j K C C A u y g p A Z f r + O 2 j.OXtXtX9X0X<X.X6X7X6X6X6X6X6X<X",
"&X&X;X;X&X<X8XiX<X5X-X4XpX@X] 2 y r t f | D u r r r f D 3.4.4.2.,.2.:.3.L f e 8 q u S S a a d i 2 [ OXyX0X5X6X<X0X8X<X&X;X;X&X&X",
"<X6X-X;X%X<X2XiX8X7X7X$X+Xh.# X 3 p D d D g p t 9 h g l 7.q.e.s.s.s.6.,.r.L h 9 t r u f g s D i   # h.OX#X4X9X6XiX8X%X&X;X;X;X<X",
"8X9X7X:X;X;X<X2XtX2X2XXXv.Z = = 3 S A A p p t t >.,.,.,.6.i.vXKXKXvXf.4.,.,.,.>.t 9 r A D D S * % O v b.G.2X1XtX8X<X&X;X:X7X7X9X",
"8X8X9X7XwXwX;X<X2X2XtXS.Z X @ 2 b b v g p p h l ,.5.<.,.i.hXGXUXGXkX{.i.q.q.q.,.l 9 q p D D Z V * @ @ m oXuXtX8X<X-X5XwXeX7X9X8X",
"<X3X8XsXnXrXwX<X<X2X2XC.c o 1 Z i v b f r 9 >.4.,.<.<.s.zXlXJ.*.o.{.zXzXt.,.5.5.1.:.p i g S Z R S 1 o c x.tX2X<X,XwXrXrXsX8X2X<X",
"%X,X2XsXnXnXwX<X;XqXS.g.2 o y D j Z b f + 7 1.2.q.<.q.f.zXlXJ.%.X.r.lXzXe.0.5.5.0.1.7 1 ! S i C f f o # v.XX$X;X<XwXnXnXsX8X%X%X",
"<X6X6X4X4X5X7X7X<XS.N % 1 3 f g R A p 8 . O >.9.2.0.0.w.d.zXkXkXlXhXI.d.d.0.q.6.2.K + O i A A R d f f 4 < N S.0X;X7X4X-X5X6X&X<X",
";X;X4X<X<X8X8X9X<XZ.M z  .$.S f v D K A + O 9 l 5.e.0.w.d.f.zXvXvXzXd.d.w.w.e.7.3.q o 1 j U A i f f $. .z M Z.<X7X8X6X<X6X&X-X6X",
"5X-X&X<X<X8X8XiX7X#XZ.x.+X|.b O + g y.y.o.1 O a 7.d.w.d.d.d.f.P.I.P.d.d.w.w.e.7.t o 1 o.u.y.g + + b M.+XC.Z.qX9XiX8X2X2X&X<X7X5X",
"4X<X6X<X<X2X8XiXaX0X2X,XuX+Xv.b : k L.P.r.a + o.f.I.s.e.q.e.9.9.i.9.s.q.q.s.I.i.k & d r.K.a.( 1 m g.+XuX,X<XiXeXuX8X8X<X<X6X8X6X",
"1XtX2X8X4X4X0X2XuX2X%X%X%X4X+Xh.f g L.L.l k 3.K.GXvXO.8 j K J U J K K w 0 ..kXVXI.8.h k u.i.k f l.oX-X,X.X%X2XuX8X6X-X4X4X8XtXtX",
".XtXuX0X4X>X<X<XuX8X,X<X%X6X9XF.v...L.&.r l L.MXPXkXc . D y.y.@.*.&.T Z . b kXIXMXK.k r r.p.%.b.F.9X<X%X&X<X8XiX6X$X-X4X0X8XtX.X",
",X2X6X0X0X0X<X6X7X6X<X2X%X<X9X4X+XB.T R O r K.CXPXvXb < p.xXvXvXvXvXxXp.< 5 DXPXCXK.a O D b.B.G.-X7X<X%X2X<X6X7X6X6X4X4X4X6X<X,X",
"=X=X6X8X8XuX8X6X&X&X7X7X7X4X&X6X7XF.Y * . 6 J.mXIXGX-...cXNXHXHXKXJXBXxX@.;.GXKXmXJ.5 O 0 #.F.<X6X<X6X4X7X9X*X&X9X8XuX8X8X6X=X=X",
"*X;X:X7X8X8XtX8X,X2X<X7X4X2X,X1X2XD.$.1 = & g y.cXBXvXvXVXBXBXBXJXJXHXHXvXvXHXvXy.s 1 + r $.+X2X,X,X<X6X4X8X8X,X2X8X8X8X6X6X&X*X",
"%X;X7X7X4X8X2X8X8X8X6X6X6X<X<X<X8XD.B ! / / e 9 a.xXmXNXJXNXMXcXMXMXMXBXHXHXxXp.9 + / ) t Y D.2X6X2X<X<X6X6X8X8X2X2X0X6X7X7X;X*X",
"*X;X9X7X6X<X6X8X9X6X6X6X6X6X5XeX7XS.B ) [.].:   4 o.K.cXVXNXbXcXxXcXMXCXcXK.+.=   : `.`.)  .D.6XeX5X&X<X6X6X6X9X8X<X4X4X9X7X6X&X",
"&X6X4X7X8X4X<X8X6X7X;X7X<X&X7X7X7XF.j.) '.`./ ; E 6 +.u.K.hXI.u.L.L.K.K.u.&.6 - - W '.[.) #.F.6X7X6X&X&X6X6X7X7X6X<X4X8X6X6X7X&X",
"6X6X6X6X9X6X8X6X&X;X7X7X*X%X<X4X9XwX@Xm.! W W ^ W.{ 4 & 1 a L I U J 0 & < ! ~ W.^ W W ! n.H.eXiX-X&X%X*X6X7X6X<X<X6X6X6X4X6X8X<X",
"6X<X3X<X6X9X6X<X&X&X7X;X<X2X8X0X+XN.D.n.n 6 ^ ^ R.^ E - < 4 1 f i 1 . - ; Q ~ W.Y.^ 1 v k.F.G.D.4X8X2X&X7X7X&X&X<X6X9X8X6X6X6X8X",
"8X2X<X8X8X9X6X%X&X;X7X6X<X8X4X+X$.F  .Y L.T ^ E E ~ ^ Q.~.~.| 4 ! E W ~ R.Y.Q E W ! p.p.*.B B #.+X0X8X<X7X7X;X<X&X6X6X9X8X2X2X8X",
"9X2X2X8X9X7X<X%X;X;X7X6X<X4X+XB.;.L P *.P.L.( ; : W R.^.AXjX!.=.=.=.R.T.E.R.W e W ( a.I.&.H A %.B.+X4X<X6X7X-X;X&X<X6X8X8X2X8XuX",
"6X8X8X8X6X6X<X<X6X4X7X8XiXXX[ %.K.hXL.L.U.K.1 : ].`./ ! ^.fXjXkXGXAX(.T.Q W ].]./ @ 7.f.a.K.I.L.P [ OX2X8X4X7X7X&X&X4X6X8X2X6X6X",
"6X<X<X6X6X8X6X&X7X7X9X2XuXS.z u xXBXmXU.L.y._ ( [.`.: ; W._.fXSXLXLXAX^.; : '.[.( 5 l ,.I.bXMXxXZ z S.tXuX9X7X7X<X6X7X7X8X2X<X6X",
"<X<X<X6X8X9X6X6X4X0X9XuXtXx.$ 3 lXJXVXK.J Z m.M.=./   - R.).E.fXLXPXLXjX3 . : =.M.m.2 k hXHXBXhX1 # x.yXtXiX0X0X<X6X9X8X<X,X<X6X",
"&X&X&X<X8X8X0X<X6X4X9X2XtX X]  .K.hXlXV.n B OXF.' - - Q ^.).T.E.AXLXPXUX;.6 ; x Z. X] _ J.xXxXJ.n ] OXtXtX8X4X7X<X0X9X6X<X<X&X;X",
"7X6X<X<X6X9X4X6X2X<X9X8XuX3XoXm.D a a _ m.Z.*XA.c . ; ^ E.).E.R.^.jXLXIXGXgX1 c A.<XOXm.F r 1 S B.oX8XtX2X8X6X6X6X4X6X8X6X<X<X-X",
"7X6X<X<X6X8X6X4X2X<X6X3XuX8XaXOXB > > ' F.%X.Xx.$ . ^ ^.E.E.W.~ T.R.AXFXIXkXa # k.<X2XC.N $ , ] Z.iX9X<X6X;X6X2X4X6X8X8X<X6X6X7X",
"7X6X<X<X8X0X0X6X2X&X<X&X6X6X9X#XD.x.x.F.%X2X,XC.z < -.|.R.R.^ ^ ~ R.!.|.AX}.% , oXtX2X%XS.x.x. X#X9X8X;X;X&X<X<X4X6X2X<X<X6X7X6X",
"7X6X<X<X<X6X6X6X7X&X&X6X;X7X6X;X,X,XeXwX%X3X@Xl.c ( {.}.!.R.Q.Q.=.R.R.!.gXp.s _ c.@X#X*X7XiXyXtX0X6X7X6X6X6X&X8X9X6X<X<X<X6X6X7X",
"6X<X6X6X6X6X6X6X6X6X6X6X6X6X6X6X,X2X9X7X=XF.} Q.;.;.gXgX}.|.gX{.gX}.}.}.gXhXp.;.=.} F.*X7XeX2X2X<X6X6X6X8X6X6X6X6X<X6X8X6X6X<X6X",
"6X6X6X6X6X6X8X<X6X6X6X6X<X8X6X6X2X<X0X7X=XC.` ! ~.jXlXgXgXjXgX;.;.gXjXgXlXjX{./.! ` C.*X7X9X1X2X6X6X6X6X6X<X6X6X6X6X6X6X6X6X6X6X",
"6X<X6X6X6X6X6X6X6X<X6X6X6X6X6X6X6X8X2X2X;XN.x W E./.jXgXlX;._ . . f ~.gXjXjX/.^.6 x x.<X8X8X2X6X6X6X<X6X6X6X6X6X6X6X6X<X<X6X6X6X",
"6X6X6X6X6X<X6X6X6X6X6X6X6X6X6X<X7X8X1X1X2XC.x - T.^./.{.~.X.m x , m X.;.{./.^.Y.- , C.2X1X2X8X7X6X6X6X6X6X6X6X6X6X6X6X6X6X6X6X6X",
"6X6X6X6X6X<X6X6X6X6X6X6X6X6X<X6X;X<X1X1XuXN., . W ^ { ( 5 b m.C.C.l.m 4 ( { ^ Q - , S.2X2X1X2X-X6X8X6X6X6X6X<X6X6X6X6X6X6X6X6X8X",
"6X6X6X6X6X6X6X6X6X6X<X6X6X6X6X8X&X<X2X8XiXN.>   + a ( e   > x..X1Xx.#   1 ( s +   < N.8X8X8X,X&X6X<X6X6X6X6X6X6X2X6X6X6X6X6X<X6X",
"6X<X6X6X6X8X6X6X8X6X6X6X6X<X6X6X<X6X9X6X4XN.z   :.>.,.l   # S.aXaXN.> X h ,.,.w   > N.$X9XeX6X8X6X6X6X<X6X6X6X6X6X6X6X6X6X6X6X6X",
"6X6X6X6X6X6X6X<X6X6X6X6X6X6X6X6X2X7XeX7X2XZ.M 2 w :.:.w & M  XuXuX X' & :.:.:.w c ] Z.,X7XeX6X6X6X6X6X6X<X8X6X6X6X6X<X6X6X6X6X6X",
"6X6X6X6X6X6X6X6X<X6X6X6X6X<X6X6X*X*X7X7X%X*XZ.k.y @ X 3 h.F.$X9X4X$XF.g.* X @ y k.Z..X%X6X7X=X*X6X6X6X<X6X6X6X6X6X6X6X<X6X6X6X6X",
"<X6X6X6X6X6X<X6X6X6X6X6X6X6X6X6X=X=X7X6X,X2X$XS.[ z # ] S.8X8X<X<X6X8XS.] # z [ S.$X*X%X6X7X;X=X6X6X6X6X2X6X8X6X6X6X6X6X8X6X6X6X",
"6X6X6X6X6X6X6X6X6X6X6X6X6X<X6X6X=X:X7X2X,X1X8X4XC.x.x.XX3X2X2X6X&X<X2X3XOXx.x. X4X8X,X.X2X7X;X:X6X6X6X6X6X6X<X6X6X6X6X6X6X6X<X6X",
"6X6X<X6X6X6X6X6X6X6X6X<X6X6X6X6X;X7X9X2X.X,XtX9X8XtXyXyXyXuX4X4X;X;XuXyXyXtXuX8X8X2X,X,X8X8X7X;X&X6X6X6X6X6X6X6X<X6X6X6X6X6X6X6X"
};
