/* XPM */
static char *nate_f11650476113[] = {
/* columns rows colors chars-per-pixel */
"64 64 256 2 ",
"   c #190806",
".  c #19191A",
"X  c #10100D",
"o  c #280605",
"O  c #28170A",
"+  c #271A16",
"@  c #351A1A",
"#  c #390F14",
"$  c #153619",
"%  c #152F14",
"&  c #2A2417",
"*  c #362818",
"=  c #373619",
"-  c #292D11",
";  c #0E182C",
":  c #3A1A22",
">  c #2F122E",
",  c #1A3625",
"<  c #133526",
"1  c #292929",
"2  c #382A28",
"3  c #273826",
"4  c #383729",
"5  c #2B2835",
"6  c #393934",
"7  c #2F3135",
"8  c #47291D",
"9  c #572919",
"0  c #4F361A",
"q  c #773315",
"w  c #490F2F",
"e  c #462A28",
"r  c #552928",
"t  c #483728",
"y  c #553929",
"u  c #482E32",
"i  c #473A34",
"p  c #563938",
"a  c #532C34",
"s  c #65292A",
"d  c #673728",
"f  c #673739",
"g  c #74302E",
"h  c #611B11",
"j  c #11441D",
"k  c #1A4525",
"l  c #0B442B",
"z  c #38472B",
"x  c #39493A",
"c  c #304E30",
"v  c #196C37",
"b  c #2A6D3B",
"n  c #2A451C",
"m  c #584318",
"M  c #4A421D",
"N  c #47462B",
"B  c #564628",
"V  c #474636",
"C  c #574537",
"Z  c #48553B",
"A  c #585438",
"S  c #4C5127",
"D  c #6B4829",
"F  c #654A3A",
"G  c #67583A",
"H  c #755938",
"J  c #72512F",
"K  c #526C39",
"L  c #6A633A",
"P  c #6F6A39",
"I  c #654617",
"U  c #0F1A4B",
"Y  c #2D0F4D",
"T  c #14294C",
"R  c #31304B",
"E  c #1A3670",
"W  c #28346B",
"Q  c #261966",
"!  c #4D1552",
"~  c #4C2E4E",
"^  c #683649",
"/  c #532463",
"(  c #195447",
")  c #344E47",
"_  c #2E754B",
"`  c #1A457B",
"'  c #37476E",
"]  c #2D785B",
"[  c #4A4742",
"{  c #554A43",
"}  c #465844",
"|  c #5B5749",
" . c #4B5156",
".. c #694844",
"X. c #685647",
"o. c #755A47",
"O. c #6E5551",
"+. c #4C704D",
"@. c #706A4B",
"#. c #4C5671",
"$. c #746A69",
"%. c #903818",
"&. c #983728",
"*. c #A63B34",
"=. c #B13E29",
"-. c #942D0B",
";. c #8C441D",
":. c #B4471C",
">. c #885133",
",. c #B94835",
"<. c #B04B2C",
"1. c #B26235",
"2. c #D1501A",
"3. c #C95032",
"4. c #EE6931",
"5. c #D26834",
"6. c #875646",
"7. c #B3524A",
"8. c #906D50",
"9. c #A77859",
"0. c #B46D5B",
"q. c #907371",
"w. c #AD7865",
"e. c #CA5E49",
"r. c #CB6C49",
"t. c #FB6944",
"y. c #EA6C4B",
"u. c #CD7869",
"i. c #E77960",
"p. c #3B8858",
"a. c #35975B",
"s. c #2D9451",
"d. c #399068",
"f. c #3BBD75",
"g. c #3BAC68",
"h. c #2C9855",
"j. c #478850",
"k. c #46AE5C",
"l. c #429867",
"z. c #4A9871",
"x. c #46BC76",
"c. c #50A86E",
"v. c #768572",
"b. c #3BC66A",
"n. c #3BC776",
"m. c #3BD278",
"M. c #2FC57B",
"N. c #48C879",
"B. c #54C77B",
"V. c #46D47A",
"C. c #54D37A",
"Z. c #45C66E",
"A. c #57D77E",
"S. c #B08A5C",
"D. c #958571",
"F. c #AA8765",
"G. c #B88979",
"H. c #B19673",
"J. c #CF8E6C",
"K. c #DB8D6E",
"L. c #1A3988",
"P. c #313B8F",
"I. c #1B4791",
"U. c #304E8F",
"Y. c #314FA9",
"T. c #3A66A3",
"R. c #495690",
"E. c #4D6A91",
"W. c #6F6F97",
"Q. c #4458AA",
"!. c #5B75B0",
"~. c #4C6DC2",
"^. c #3A5BCE",
"/. c #940E97",
"(. c #9A0CA8",
"). c #A518A9",
"_. c #88788B",
"`. c #748B8F",
"'. c #69979C",
"]. c #3CCE86",
"[. c #3DFA8A",
"{. c #3EFF94",
"}. c #3FFFA1",
"|. c #49CD82",
" X c #54CA86",
".X c #48D585",
"XX c #56D588",
"oX c #54D591",
"OX c #61CD87",
"+X c #4DEB8D",
"@X c #4CFD84",
"#X c #4CF58D",
"$X c #45FD8D",
"%X c #4CFD8D",
"&X c #46F787",
"*X c #54F38E",
"=X c #52FC8D",
"-X c #59FB8D",
";X c #57F987",
":X c #54EE93",
">X c #4CF492",
",X c #45FD94",
"<X c #4DFD93",
"1X c #45FE9B",
"2X c #4DFE9B",
"3X c #47F695",
"4X c #53F493",
"5X c #5BF493",
"6X c #53FD94",
"7X c #5AFC94",
"8X c #5AF599",
"9X c #53FD9A",
"0X c #5BFC9A",
"qX c #53F599",
"wX c #52EA8F",
"eX c #62FD9C",
"rX c #64F898",
"tX c #6CF295",
"yX c #4CFEA2",
"uX c #47FDA6",
"iX c #54FEA2",
"pX c #5AFCA2",
"aX c #54FAA3",
"sX c #48FBAE",
"dX c #65FBA3",
"fX c #72EFA7",
"gX c #6D87D2",
"hX c #91918F",
"jX c #B09290",
"kX c #B1A797",
"lX c #8C91AB",
"zX c #AF97A4",
"xX c #BBB3AD",
"cX c #9CAEB8",
"vX c #CD918D",
"bX c #C6A698",
"nX c #D3A890",
"mX c #EAB496",
"MX c #CCB3AB",
"NX c #EFBEAA",
"BX c #88E3A3",
"VX c #86E39C",
"CX c #ECCD9D",
"ZX c #F5CAA8",
"AX c #F5CFB6",
"SX c #E4D3A9",
"DX c #94A7C9",
"FX c #A8ABC1",
"GX c #C3BEC7",
"HX c #B9C1CF",
"JX c #D2CECE",
"KX c #F6D5C6",
"LX c #F7CBC9",
"PX c #D5D7E7",
"IX c #F5F1F7",
"UX c #E7E9E5",
/* pixels */
"rX8X:XqX4X4X>X#X4X4X8X8X:X:X:X>X4X*X*X+X4X6X#X#X$X4X5X:X7X#X<X4X+X+X#X>X7X=X#X*X4X5X5X>X*X%X$X4X8X5X:X:X*X+X4X>X<X>X4X4X4X4X5X:X",
"0X7X7X8X7X7X7X7X6X8X7X8X4X4X>X+X4X6X0X=X-X4X=X-X=X7X7X6X0X6X9XrX3X#X%X%X<X<X=X8X9X8X4X7X5X7X0XeX8X8XqX4X4X4X6X4X7X7X4X7X0X7X8X7X",
"6X6X6X6X7X7X7X7X6X6X7X7X0X9XqXqX4X6X9X%X6X-X-X6X6XrX7X6X0X<X6X5X0X-X;XA.$X2X9X0X3X<X<X6XeXeX6X1X8X9X9X4X6X6X6X6X7X7X4X7X6X6X6X6X",
"6X%X<X6X6X6X7X4X=X%X6X6X6X9X9X9X7X=X,X$X6X7X0X<X%X5XXXC.*X,X6X9X8X-X;XA.V.x. XB.|.|. XXX5X6X,X1X9X9X9X6X6X6X=X=X6X6X6X6X=X6X%X6X",
"6X6X6X6X9X2X<X3X%X%X6X6X6X6X9X9XeX=X%X%X9X9XaX2X0X.Xj.j..X<X6X,X=X,X8XXXp.) V Z z } V +.OX0X#X<X2X<X<X6X6X<X%X$X,X<X9X2X9X2X6X6X",
"7X6X9X9X2X9X2X3X%X%X%X%X<X<X<X2X7X4X%X<X2X3XiX3XoXl.) V l.+XrX>XC.N. Xz.) 2 8 e w r # 4  XdX<X6X<X<X<X6X6X=X<X<X3X2X1X9X9X6X6X7X",
"6X6X9X9X2X2X2X2X=X%X<X4X<X<X2X9X2X<X6X6X,X,X8X+X_ c B C Z d.XXwX+.b x } A C ....H a @ k x.1X$X,X,X%X<X6X6X=X<X<X9X2X2X2X9X6X6X6X",
"=X6X6X6XqX2X9X9X6X6X6X<X<X<X<X<X1X9X6X%X%X=XrXZ.x 8 m G p } c.j.N * e p A +.X...G N 3 _ ].uX<X$X,X6X6X%X6X<X6X<XpXiX9X9X<X6X=X=X",
"7X8X9X<X2X2X9X0X7X7X=X#X%X$X=X7X1X8X;X-X;XrXtXN.Z - 0 D C | } V 4 N B J o.o...y % k a.+X&X&X9XaXrX=X<X%X#X7XeX8X0X8X9X2X1X<X6X6X",
"7X6X<X<X<X6X8X4XrX5XeX7X0XeX-X7XiX0X;X#XV.B.OXg.Z = 8 p { { i 4 V B J H ....i *   n a.|.*X-X8X0X6X<X6X6X6X7X-X-X8X9X>X2X<X<X6X8X",
"=X%X<X,X,X4X*X5XrX*X4X6X#X6X%X,X9X9X9X.Xp.x Z x N t e e p p * e Z G H J d e . X X & 6 +.OXeX9X0X%X$X#X%X6X6X*XrX4X=X6X<X<X6X6X6X",
"=X=X%X<X6X6X7X5X@X$X%X<X6X6X6X$XB.Z. Xc.x * 8 r N C p u i i e p A X.H D r 8 * & 2 1 + c c.OXZ.XXwXrXrX7X6X<X<X=X5X*X6X<X<X6X6X7X",
"=X-X6X<X<X6X7X7X&X$X[.,X0XeXfXC.j.n c Z i a r p S G X.C y t e p B C C F J G G C t 3 6 V A A c _ V.dXeX0X,X[.%X%X7X4X6X6X6X6X6X4X",
"-X=X=X%X<X6X6X6X=X=X[.,X9X8X Xa.n O = 0 i p p C G P o.G G D C C B B C A G @.o.o.S n { ^ t @ O 6 h..XqXyX,X[.6X%X7X7X6X<X<X<X6X6X",
"4X4X<X<X<X<X6X6X-X7XqXiXuX].s.$ & & t N V Z ..X.L H H H H o.X.A X.G L L X.X.@.P >.G C p 6 2 8 + < _ |.yXaX9X7X6X=X6X<X<X<X6X4X7X",
"6X>X6X<X6X6X=X7X6X4XaX+X].h.<   : e y z c V A F G P H >.8.6.o.L @.L L G X.O.X.J G A e e 4 z y * o % a.].+XeX;X6X=X%X<X<X<X<X4X7X",
"6X9X9X1X1X<X4X5X6X7XdXN._ < 4 a u f ..2 + O & z C A G P o.o.@.K @.o.H L L L F y t = O + 4 V p u u 3 $ v |.dX0X0X4X=X,X<X6X6X9X9X",
"9X9X9X9X9X9X=X;X$X9X6Xn.v k ) +.V u ~ 7 . O O = i Z A A A A G P | F G G H G Z i = - X + = t 4 [ } } c v B.8X<X[.;X=X6X9X9X9X9X<X",
"1X6X9X0X7X6X=X=X8XeX9X,Xm.f. Xc.3   : 2 4 8 0 M i Z S B S N p C [ C N S C C z B 0 N 7 6 e @ X 6 f.|.n.m.3X9XpX6X@X=X9XpXpXaX9X<X",
",X<X6X7X7X6X6X6X{.<X#X<XiXaX.Xs.1 . @ u N C i N i V N y m D g ..F D I m D i 4 t B V V i e # X 3 s..X2X1X8X*X6X[.*X6X6X9X9X6X6X<X",
"%X%X=X%X<X<X9X9X,X4X5X8XpXoX_ $ t e e 6 V { e y e e 6 { J :.:.:.=.<.%.q f i e 0 9 t N i u e u t 3 _ .XpX9XrX6X,X8X9X%X$X%X%X=X=X",
"6X=X=X=X%X<X9XpX8X5X7X>XXXd.$   8 y p t C V e r h h f F ,.3.r.r.y.e.,.,.6.^ s h s 0 N i p p ..t   % a..X[.9X7X8XpX6X$X@X@X;X=X6X",
"9X7X5X-X*X6X<X9XuX1X,XV.j.N & * 4 V B B B y r s %.&.*.=.,.0.MXKXLXmX0.,.*.*.*.&.9 9 y y C C C = + & z j. XqX,X2X9X2X%X;X-X7X8X9X",
"aXpXrXtX-X=X6X6XyX9X9XB.c o O * c z V C y 9 s g <.=.=.7.e.jXGXJXJXMX_.0.,.e.,.*.s y 9 y C A z n * @ O z  XaX1XuX%X6X7XrXtXdX8XiX",
",X<XiXfXBXVXtX%X*X2X9Xx.k O 2 V y z x i r r q <.=.=.:.e.vXzXq.@.X.$.zXvX7.=.:.=.;.;.9 4 V [ 4 M x 2 O k x.yX1X6X$XtXVXBXBXaX<X$X",
",X,XqXtXVXfXrX<X6X*XN.p.3 + t C m N i u + 8 ;.3.,.2.3.r.vXbXD.$.{ $.jXJ.r.2.2.3.:.;.9 & i p M m C e O 3 p. X4X6X$XrXtXfXfX9X%X$X",
"-X6X<X9X8X8XeX7X,Xn.v , 7 4 i N M A t * X + ;.3.<.2.2.4.i.vXkXkXzXjXJ.i.4.2.3.,.1.;.@ . e f B m t V i 6 , v n.6X6X7XrX8X5X6X%X%X",
"=X6X4X>X<X9X6X9X6Xb.v k  .| V t z C D D 1 & 9 q <.2.4.4.4.u.bXnXMXnXu.y.4.4.5.<.;.9 + 2 g H B t t i  .) c b b.&X0X9X6X<X%X%X<X6X",
"=X=X6X<X<X2X9XpXrXwXm.b. X'.Z : 1 a 8.8.J 2 + e 1.y.t.4.t.i.K.J.J.i.i.t.t.4.r.<.r . 1 ..9.8.p 5 @ x '.XXf.m.+XrXpX9X<X,X%X6X6X8X",
"4X4X2X<X<X<X8X0XrX8X,X{.<X.X] c > s S.S.6.r 2 ^ u.i.0.1.e.3.1.1.1.e.5.3.3.r.K.0.g 4 4 6.S.9.^ 5 c ] XX2X{.<X4XrXaX9XqX6X6X9X2XqX",
"yX1XiX8X4X:X>X2XpX9X,X,X<X4XXXa.i p F.F.g s o.G.JXbX| = g J D J A D D q 8 | xXSXK.6.f g 0.0.F V k.|.8X<X$X$X2XiX9X4X*X5XqX9X2X2X",
"uX1X1X9X4X:X6X2XyXiX>X6X$X$XeXV.+.@.q.8.a d r.CXIXxXc X D 8.$.O.@.o.@.N X 7 GXIXCXS.f a 6.q.| +.V.7X%X$X<X*XiXiX,X<X:X:X9X2X1X1X",
"$X%X6X9XqX9X6X6X-X-X<X$X&X6X7X-XOXk.K 0 1 p H.SXIXJX7 & w.nXMXbXMXMXnX9.& R HXIXSXH.V . C @.k.C.5X7X<X&X,X=X-XrX6X9XqXqX9X6X<X%X",
"@X#X<X7X8X9X9X9X,X<X6X8X7X6X6X,X$XC.K * X n D.MXUXJX+.| bXAXAXLXLXLXLXbX| $.JXKXCXw.6 + e j.N.<X,X6X6X4X9X6X$X,X6X9X8X9X9X6X=X%X",
"@X%X6X0XpXiX9X9X{.<X9X0X8X6X,X,X<XC.+.e O - p 0.mXKXMXMXLXKXAXAXKXKXKXLXMXMXAXCX8.y @ # t K V.uX,X,X6X8X0X9X1X,X9X9X9X9X0X6X;X@X",
"@X;X6X7X9X9X2X2X2X9X<X6X2X<X3X0X<XC._ ~ ~ ! w 9 w.nXNXAXKXAXCXmXAXCXZXAXLXAXbXD.8 w ! ^ a K C.{.6X<X<X<X6X6X9X9X6X6X9X9X7X6X=X@X",
"@X-X6X7X9X4X2X2X0X7X6X<X<X<X=XrXpXN.b ! (.(.w   1 ..G.mXZXAXNXmXK.mXCXAXmXw...& X > (.(.! Z B.9XeX=X%X%X%X6X7X0X2X<X>X7X6X6X6X=X",
"=X6X7X6X4X6X<X2X6X7X-X-X=X%X6X7X7XV.s. .(.(.! ; U 5 X.9.F.G.G.w.S.H.H.H.w.O.7 ; ; Y (././ p.V.6XeX4X%X%X-X6X7X6X<X<X<X6X0X7X6X%X",
"6X<X6X7X6X6X6X6X%X%X-X-X#X<X<X7XrXrXXXd.~ Y Q E U.' 7 * * i X.G >.I 8 - 1 R ` I.W Y > ) c.A.-X0X=X6X$X%X7XrX6X6X<X6X6X8X9X7X6X<X",
"9X2XqX6X0X9X6X<X,X=X6X=X$X<X9X4X XZ.C.l.S 3 E E P.' U ; 5 5 4 t 4 4 . X ; T ` I.P.W 5 c k.V.C.B.4X9X,X@X6X-X%X,X<X9X0X8X4X6X6X6X",
"9X<X<X6X9X7X6X%X=X%X-X6X6X9XfXXX+.} +.K 8.P _ Q U Q L.U.`._.~ 5 T Y W Q I.L.Y ; Y  .q.w.j.K Z j. X0X9X<X7X7X=X%X$X6X6X9X9X<X9XiX",
"9X2X2X<X9X6X6X$X6X-X6X6XiX:X Xc.O...A P J.S.) Y > Q P.Q.lXlXW.R.#.R.U.Y.Y.P.! > Y R w.w.@.A A G c.B.>X<X7X7X4X%X%X%X0X9X9X2X2X9X",
"6X2X9X9X6X6X<X%X6X*X8X2XiX.X_ +.jXkXF.F.K.w.4 > )./.! T Y.gXgXkXHXDXT.L.Q / (.).w > 7.e.9.F.H.H.+._ .X1X9X7X5X6X%X<X6X6X2X9X9X9X",
"6X6X<X6X6X6X6X<X7X0X0X2XiXn.k y kXZXCXJ.J.o.) u )./.> ; U.~.'.HXIXPXDXQ.; Y /.).~ 2 g 7.J.CXAXJ.y n N.yXyX0X0X7X<X6X6X9X6X2X<X6X",
"6X%X,X<X9X0X6X6X9X8X0X2XyXn.j 2 bXKXSXH.D N z.c.#.~ . ; P.~.Q.gXPXIXIXDX5 X Y } z.p.- p vXKXAXbXe j n.yXyXpX0X8X6X6X9X6X<X<X6X<X",
"6X6X#X<X9X0X6X<X>X6X8X2X2Xm._ Z jXkXkXv.z b XX.X( ; ; U Q.^.L.U.DXPXIXJX$.1 ; ( .XXX_ [ _.bXbXD.c _ .X1X1X9X8X8X9X9X0X9X<X<X#X=X",
"-X%X%X<X9X8X7X<X9X6X9X9XyX:XC.c.N e u ) a.m.<Xb.c X ; E Y.^.Y.Y.T.lXPXIXJXlX4 $ b.2X].a.A e e x g.|.qXiX9X9X9X6X<X7X0X9X<X%X6X-X",
"6X6X<X<X9X9X6X4X<X<X2X<X1XpXdXXXc $ < _ .X$X$Xb.% X ' R.Y.Y.I.E I.U.DXPXUXxX4 3 k.,X2XV.v $ < _ ].dX8X<X<X%X%X6X>X9X6X9X<X<X=X6X",
"6X6X6X=X6X=X6X7X<X%X$X6X7X0X6X*X|.n.f.V.3X,X2Xm.< , #.W.T.` ` W ` U.T.'.cX`.1 < |.8X,X[.|.f.f.].4X6X7X6X=X,X<X<X6X6X%X<X6X6X6X7X",
"7X6X6X<X<X6X6X6X6X<X%X6X6X6X4X=X1XqXrX5X$X3XoXd.3 [ W.lXE.] #.R.#.' U.#.hXq.i 6 '. X$X,X8XrXyXyX6X4X6X-X=X6X6X<X4X6X6X<X<X6X6X6X",
"6X6X6X<X<X6X6X6X6X6X6X6X6X6X6X6X{.2XdX7X@Xm.d.#.$.q.jXhX'.`.W._.hX`.'.'.hXF.q.$.' p.m.@XrX0XyXyX6X6X6X6X6X6X6X9X6X6X6X6X6X6X6X6X",
"6X6X<X6X6X<X6X6X6X6X6X6X6X6X6X6X$X<X8X6X@Xx.( / W.lXzXhXkXhX_.q.q.W.lXlXzXzXlXW.W ( V.A.-X4X,X,X9X6X6X6X6X6X6X6X7X6X6X<X6X6X6X6X",
"6X6X<X6X6X<X6X6X6X6X6X<X6X6X6X6X-X9XiX1X<XB.( U T.!.gXhXzX`.) X . [ D.lXlXlX~.Q.5 ( n.,X6X9X9X0X6X6X<X6X6X6X6X9X6X6X6X6X6X6X6X6X",
"6X6X6X<X6X6X6X6X6X6X6X6X6X6X6X<X-X9XuX{.2Xn.l ; L.Q.W.hXq.} c l j k Z $.hXW.Q.P.X < f.{.yX2X2X7X6X6X6X6X6X6X6X6X6X6X6X6X6X6X6X6X",
"6X6X6X6X6X6X6X6X<X6X6X6X6X6X6X6X<X,X3XyXaXf.l X Q W ' ~ R ) d.M.].d.c 7  .W W Q X < f.yXyX1X<X<X6X6X6X6X6X6X6X<X6X6X<X6X6X6X6X6X",
"6X6X6X6X6X6X<X6X<X6X9X6X6X6X6X6X3X<X7X8XdXx.3   w u N 2   $ x.{.,Xf.k   2 V a >   3 x.9X9X2X2X;X6X6X6X6X6X<X<X6X<X6X6X6X<X6X6X<X",
"6X6X6X6X6X6X6X<X6X6X6X<X6X6X6X6X6X7X0X6X6Xx.j   -.*.*.g o $ x.dX0Xx.$ o g *.*.h o k b.4X9X0X6X2X%X6X<X6X6X6X6X9X6X6X6X6X6X6X6X6X",
"6X9X6X6X6X<X6X6X6X6X6X6X6X6X6X6X,X=XeX6X%Xm._ 3 h -.&.q = v ].sXuX.Xv = %.-.-.q k v m.6X6XeX=X,X6X6X6X6X6X6X<X6X6X6X<X6X6X<X6X6X",
"<X6X<X6X6X6X6X6X6X6X6X6X6X6X6X<X@X;X7X6X<X<Xb.a.u @ o = j.V.4X8X5X4XV.p.= o # ~ a.n.#X<X7XrX;X&X6X6X6X6X6X6X6X6X6X6X6X6X6X6X6X6X",
"<X<X<X6X6X6X6X6X9X6X6X6X6X6X6X6X@X-X8X6X,X,X>XV._ k $ b N.<X,X$X@X,X2XN.b $ , _ m.&X,X,X6X-X-XA.6X=X6X<X6X6X6X6X<X6X6X6X6X6X<X6X",
"9X9X9X6X6X6X6X6X6X6X6X6X6X<X6X6X-X-X6X9X,X1X9X:Xn.f.x.|.qXyX3X6X6X,XyXaX.Xf.b.V.#X<X{.[.9X6X-X-X6X6X6X6X6X6X6X6X9X6X6X6X6X9X6X6X",
"6X6X6X6X6X6X6X6X6X6X6X6X6X9X6X6X-X4X9X2X1X,X9X8XyXuXsXsXsXpX8XtX-X8XaXsXsXsXuXyX8X9X,X,X9X9X7X7X6X=X6X<X6X<X6X<X9X9X<X6X6X9X9X9X",
"7X4X#X>X6X6X6X6X%X<X6X6X6X6X6X6X7X7X8X9X#X&X#X4X6X6X<X6X4X#X%X%X#X%X#X6X9X0X<X&X#X#X#X,X2X9X4X7X<X6X6X6X6X9X6X2X6X6X#X#X>X<X6X<X",
"pX0X4X4X6X6X6X$X#X#X<X<X6X<X6X6X6X6X0X0X=X4X6XiX8X8X*X$X#X$X9X9X6X0X6X6X7X8XeX8X<X6X0X6X7X9X#X<X<X<X<X6X6X9X9X6X9X7X4X=X4X7X9X7X"
};
