/* XPM */
static char *nate_r21650476115[] = {
/* columns rows colors chars-per-pixel */
"64 64 256 2 ",
"   c #08060A",
".  c #160907",
"X  c #0A1611",
"o  c #1A1816",
"O  c #14100F",
"+  c #250805",
"@  c #251A17",
"#  c #351919",
"$  c #2C130F",
"%  c #172317",
"&  c #0E2A15",
"*  c #2B2616",
"=  c #37271B",
"-  c #3A331B",
";  c #302B10",
":  c #1A1926",
">  c #0D0F2F",
",  c #281823",
"<  c #381C27",
"1  c #261733",
"2  c #182E2C",
"3  c #292726",
"4  c #3A2826",
"5  c #3C3629",
"6  c #392734",
"7  c #3B3635",
"8  c #27372F",
"9  c #4A1813",
"0  c #45291A",
"q  c #55291B",
"w  c #4C3617",
"e  c #772A17",
"r  c #6B3019",
"t  c #431B2D",
"y  c #432C24",
"u  c #472729",
"i  c #552928",
"p  c #4B3C24",
"a  c #473729",
"s  c #543C2C",
"d  c #553A26",
"f  c #462B34",
"g  c #493835",
"h  c #563936",
"j  c #562C36",
"k  c #653829",
"l  c #773527",
"z  c #6B2F2C",
"x  c #6F1C10",
"c  c #184D2F",
"v  c #394729",
"b  c #354836",
"n  c #3C543A",
"m  c #25532E",
"M  c #186932",
"N  c #306C39",
"B  c #3B4511",
"V  c #504B1F",
"C  c #4B422B",
"Z  c #48442A",
"A  c #564528",
"S  c #4C4532",
"D  c #494638",
"F  c #534332",
"G  c #5B4333",
"H  c #594A37",
"J  c #5A5237",
"K  c #4F5731",
"L  c #644738",
"P  c #675938",
"I  c #6F4F30",
"U  c #506236",
"Y  c #6A6539",
"T  c #6C6532",
"R  c #311A50",
"E  c #173150",
"W  c #393946",
"Q  c #303050",
"!  c #193069",
"~  c #2F3169",
"^  c #251B52",
"/  c #4C3049",
"(  c #6D324C",
")  c #314E51",
"_  c #2B6A44",
"`  c #32744B",
"'  c #304E6F",
"]  c #1D6151",
"[  c #574543",
"{  c #4D5947",
"}  c #595644",
"|  c #4E4F4F",
" . c #654A45",
".. c #675846",
"X. c #735845",
"o. c #6B544F",
"O. c #476548",
"+. c #46754A",
"@. c #4B6E55",
"#. c #6A6347",
"$. c #746545",
"%. c #666354",
"&. c #54556F",
"*. c #6A556C",
"=. c #536D68",
"-. c #736C6C",
";. c #8F3A18",
":. c #A23B16",
">. c #893726",
",. c #983727",
"<. c #8B312E",
"1. c #AD3D26",
"2. c #914830",
"3. c #AE4F30",
"4. c #A86B3C",
"5. c #C94E18",
"6. c #CC572E",
"7. c #D76535",
"8. c #E66E3D",
"9. c #E74F28",
"0. c #8B594F",
"q. c #90694E",
"w. c #8E726E",
"e. c #AA7768",
"r. c #B36856",
"t. c #DA7346",
"y. c #E76B45",
"u. c #E87446",
"i. c #F56C46",
"p. c #CA7D68",
"a. c #2B8A4B",
"s. c #268A57",
"d. c #398459",
"f. c #329453",
"g. c #30A858",
"h. c #319869",
"j. c #36A76A",
"k. c #35AE6F",
"l. c #459051",
"z. c #4F906B",
"x. c #44BA69",
"c. c #4AAD6F",
"v. c #58A465",
"b. c #39C76A",
"n. c #3DC978",
"m. c #37D075",
"M. c #3FE076",
"N. c #48C877",
"B. c #46D77B",
"V. c #50C973",
"C. c #47E27C",
"Z. c #46FD7D",
"A. c #B38D6D",
"S. c #9FA069",
"D. c #C98F6F",
"F. c #DBA07C",
"G. c #8CDA77",
"H. c #193C8D",
"J. c #253983",
"K. c #263EA2",
"L. c #304B8D",
"P. c #2B45A9",
"I. c #6B7997",
"U. c #6C7CA6",
"Y. c #556196",
"T. c #2C5BC4",
"R. c #5469C9",
"E. c #A573A2",
"W. c #C93FDF",
"Q. c #B955D6",
"!. c #A178C4",
"~. c #3CB686",
"^. c #3A8B84",
"/. c #75878B",
"(. c #45AA89",
"). c #729EA4",
"_. c #3ED783",
"`. c #39F58C",
"'. c #46CA84",
"]. c #49D785",
"[. c #56D987",
"{. c #54D294",
"}. c #6ADD98",
"|. c #49E788",
" X c #56E788",
".X c #43FE84",
"XX c #4DFD84",
"oX c #4CF58B",
"OX c #44FE8C",
"+X c #4CFD8C",
"@X c #47F387",
"#X c #52FE85",
"$X c #52F58C",
"%X c #53FD8D",
"&X c #5AFC8D",
"*X c #59F488",
"=X c #57EB95",
"-X c #45FE93",
";X c #4DFE93",
":X c #45FE9A",
">X c #4DFE9B",
",X c #4CF497",
"<X c #55F594",
"1X c #5AF594",
"2X c #52FE94",
"3X c #5BFC94",
"4X c #54F59B",
"5X c #5BF59C",
"6X c #54FD9B",
"7X c #5AFC9B",
"8X c #48E994",
"9X c #66EB99",
"0X c #65F998",
"qX c #6EF095",
"wX c #70D2AA",
"eX c #4CFEA2",
"rX c #45FBA2",
"tX c #54FDA2",
"yX c #5BFCA2",
"uX c #56F7A6",
"iX c #50E8A2",
"pX c #69EBA2",
"aX c #77E9A6",
"sX c #65F7A4",
"dX c #77ECAD",
"fX c #7A92E7",
"gX c #979A97",
"hX c #8E8E8F",
"jX c #B3908B",
"kX c #8D94AE",
"lX c #A594BE",
"zX c #90ABB0",
"xX c #A7B8BA",
"cX c #B3ABB6",
"vX c #AAA899",
"bX c #CA9B96",
"nX c #D2AB92",
"mX c #D2B2A4",
"MX c #EEB6A7",
"NX c #E5A693",
"BX c #8ED3AD",
"VX c #8CE4AA",
"CX c #95DEA4",
"ZX c #F1C49D",
"AX c #FED8BA",
"SX c #F1CCAF",
"DX c #ECD8BE",
"FX c #9397CD",
"GX c #94A8CA",
"HX c #ACB9C7",
"JX c #B7B9CB",
"KX c #B3AEDA",
"LX c #BBC3D0",
"PX c #D0CED2",
"IX c #F1D7CA",
"UX c #F0E5E1",
/* pixels */
"%XXXZ.%X6XyX6X7XyX6X%X*X%X-X:XtX5X.X;XtX+X%XtX+X7X%X&X0X<X+XOX>XuXtXeX6X3X2X`.2X2XOX+XaXCXVX0X+X;X;X;X;X;X2X2X6X2X2X2X2X2X2X2X2X",
">X2X#X%X2X6X6X2X2X+XOX2X2X4X<X1XXX%X7X7X+X<X>X;X@XV.V.B.B.B.N.'.].6X2X$X6X-X;X3X6X+X2XpXVXdX3X;X;X;X;X+X2X2X2X2X2X2X2X2X2X2X2X2X",
"uX4X3X&X2X2X2X%X6X;X;X;X2X3X%XXX%X6X1X+XOX6XeX6XN.%.{ N _ { n K l.B.%X&X3X>X6X2X>X;X6X5XyX7X2X2X;X2X2X2X2X;X2X2X2X2X2X2X2X2X2X2X",
"iXtX7X2X2X+X;X2XtXtXtX,X2X<X9XwX}.tX;X+X;XyXyX6Xc.u # 5 a u 0 9 S j.C.$X$XoX1X|.].].].$X6X>X2X2X%X2X2X2X2X2X2X2X2X2X;X2X2X;X2X2X",
"tX6X6X2X+X;X;X;X;XtX7X%X%X9XGXQ.FX,X`.+XOX2XyXyXj.3 $ g  . .H A F K d.].&X+X Xv.n U N V.<X7X7X3X2X2X2X2X2X2X2X2X2X2X2X2X2X2X2X2X",
"2X6X6X;X-X;X;X2X-XeXuX1XZ.9XkXQ.FX8XZ.<X;X;X5X[.s.% o a } } #.Y H a D v.[.C.x.U 0 # - v.1X7XtX>X+X%X2X2X2X2X2X2X2X2X2X2X2X2X2X2X",
"&X2X2X;X;X2X2X2X:XeX6X2XXX$XwX).BX4X%XsXsX2XN.+.b * . * 4 H P #.$.L H { @.O.{ S A q = c.<X7XtX`.+X+X;X;X2X2X2X2X2X2X2X2X2X2X2X2X",
"&X2X2X6X2X3X&X&X*X%X2X%X+X$X2XsX;X;X X[.].M.g.j # = *   o i h { } Y P a 3 < i K K i 5 f.].[.[.@X+X+X+X2X;X%X2X2X2X2X2X2X;X2X2X2X",
"2XOX-X;X&X&X3X2X#X<X:XXX%XrX4XeXyX>Xk.M _ _ n g y g 5 ; ; @ , / [ P J a 4 a L H J f 6 v N _ _ k.$X2X2X<X6X6X;X2X2X;X2X2X2X2X;X2X",
"2X;X;X>X2X3X7X6X9X7X-X+X&X6X5X1X`.].a.& + 0 y g s H K Z 5 $ + # g } L g 5 A P J D 6 t y - . % ` [.<X;X2X2X2X2X2X2X2X2X2X2X2X2X2X",
";X;X>X>X,X;X6XyX,X;XOX,X7X7X>XXXn._ 8 * = g u Z G J P P H = # a a L G g Z A A g 6 g 5 7 5 # ; - _ k.$X2X%X2X2X6X2X2X2X2X2X2X2X2X",
"+X;X<X>X-X:XtXsXrX}.=X;X2X2X;XB.+.o # v b D D v L P T P P G F F p A d D C p i j f g Z v a k i % & a.|.2X%X2X2X7X2X2X2X2X2X2X2X2X",
"OX+X1X2X;X;X7X=XkX!.wX;X+XXXx.+.m # u A h h L J P #.#...P Y I F d d C F G L  .o.L h F w ; 9 * m f.N.@X2X2X6X;X2X2X2X2X;X2X2X2X2X",
"OX2X3X7X3X2X1X X!.W.FX%X%XC.f.) 5 g y g k z I $.Y ..#.$.$.$...H h F F C L I X.#.} | g 0 w $ % ` M.@X6X2X7X6X;XOX2X2X2X2X2X2X;X2X",
"+X;X3X0X3X%X2XoXwXFXwX<X&X1XV.z.K v = * a s d } #...$.$.$.$.Y ..J ....P I T P Y H j j k r e r S f.N.,X2X2X2X;X;X2X2X2X2X2X2X2X2X",
";X2X7X<X$X%X$X-X X=X6XeXyXqXZ.C.z.- 9 u 5 g d s H P $.$.$.X.X.I U X.o.P T T J K D u u l 2.3.3.l f z.|.+X%X%X2X7X2X2X2X2X2X2X2X6X",
"%X2X,X4X2X2X%X2X-XOX%X1X$X6Xn.a.D Z y - p p p Z A A I T P X.Y Y #.Y P  .J T V H D <.l I 0.A.bXr.e U f.V.:X7X0XeX+X2X3X7X2X2X2X6X",
"&X2X2X;X>X>X6X>X%X+X2X2X%XB._ & * s G h a Z D Z C C A A L ..Y P #.T P  .s A A g G 2.2.2.q.vXIXNX6.r V a.8XtX0X0X+X2X2X6X6X2X2X6X",
"6X;X$X2X2X6X6XyX7X3XoX`.b.a.b # ; p L h g 5 5 Z h h g h G A P P K K J [ h d p a p ,.3.;.L xXUXMX7.3.;.T z.].$X%XXX2X2X<X;X;X>X>X",
"-X;X2X&X&X3X7X7XtX6X;X8Xs.& 3 y Z 5 g h j 4 - d H h h D F d p F F A F [ G G p = 0 <.1.e h gXIXMXt.u.8.2./ ` C..X2X2X2X2X+X-X;X>X",
";X,X5X3X%XXX%X2X>XtXdXwX&.. = v Z v 7 g f y 0 k A g g g p w p g h g Z s F F v 3 4 >.1.0.w.E.NXF.t.i.y.<.t ` |.+X2X2X7X2X;X-X;X>X",
"3X5X>X>X2X;X+XOX;XpXBXHX-.= 0 S S D S 4 u g F S Z Z 7 5 - 5 Z D h C V d C D 7 6 u ;.6.bXcXjX3.6.t.i.y.<., ] M.2X$X2X2X2X;X;X>X6X",
"5X2X;X5XaXwX9X.X+X}.).w. .f 4 t g g y ; y G F Z p a f f 5 a p C A Z C d s 7 5 i >.:.5.p.bXp.6.7.t.y.7.r O M B.;X;X2X2X2X2X6X6X6X",
"tXOX+X}.xXHXVX#X7X{.@., u D g j < y - - Z d A S u u f h ( j d A A A G k h 3 0 >.1.1.5.6.u.u.8.t.y.7.3.r @ M B.2X2X2X<X<X2X2X7XyX",
"eX;X-X9XBXxXaX%XsX{.)   o f { ) b t = p p A p a 4 f f s h h a p A D Z 0 = 3 u >.6.9.5.7.y.8.u.i.7.3.l p m f.[.yX6X2X%X%X1X7X7X2X",
"eX;XOX+X9X9X0X&X2X|.N . . ; l.n.d.5 u h A d i u u a D Z a 4 u g D D 7 @ . , y 2.3.t.y.y.i.8.y.7.3.x $ M N.*XVXVX4X;X$X2X3X7X7X2X",
"6X;X+X+XOX+X2X1X-X|.g.m c N x.OXV.+.D h d d i 4 5 - 5 8 3 y f W [ [ 7 O . $ q >.3.3.3.3.3.3.2.<.l - c g.XX0XqXaX$X6X<X6X3X3X2X2X",
"3X>X4X6X,X;X3X;XyX4X_._._.M. X1X XB.` 5 a a y 8 * ; % X @ i d g Z a 5 X . 9 e ,.>.l q 0 y 0 o $ $ ` N. X0X3X2X6X3X7XtX6X2X%X$XoX",
"2X;XuX9X6X$X3X;X>X6X6XeX6X;X3X0X0X7Xb.N n g i w q q $   O q k A w w ; $ 0 2.q.2.z k o...} 4   2 8 j.;X7XyX7X;XOX2X6XtX>X;XXX+X+X",
"+X;X2X&X+X%X1X<X+X2X>X;X%X&X#X#X6X$X X].s.7 z ,.3.;.9 . X 5 G G w # + 9 2.jXvX} 4 -.mXmXjX0.- N b.C.4X:X>X2X$X;X2X;X>X-X;X+XXX+X",
"+X$X+X;X7XsX4X=XqX0X3X2X3X3X+XXX-XoX0XyXz.4 q ,.:.,.x 9 @ 3 5 G - o . r r.IXPX@.o w.IXIXSXe.S l..X;X1X6X:X+X<X6X6X;XOX+X;X2X<X%X",
"&X&X:XeXdXdXsX6XqXVXqX6X2X;X-X6X%X;X2X4Xz.5 # q e >.<.>.0 $ * y 4 O $ 0.nXIXIX| @ w.AXDXSXE.[ l.8X+X#X+X:XeX,X;XtX2X+X+X+X<X3X3X",
"0X;X-XuXpXaXsX6XaXqX0X3X;X>X6X6X2X%X2X,X(.O.a = q e >.>.i O   < 4 < [ w.NXIXPXw.H jXSXDXZXS...c.-X$X2X%X;X$X2X6X6X2X2X+X$X3X7X7X",
"%X;X;X6X5X0X0X7X0X0X7X6X>X;X2X6X>X2X7X1X XV.+.u 9 q I I 0 O     y o.e.D.nXSXIXnXvXmXSXAXSXnXe.G.,X2X2X2X2X;X;X2X2X2X;X%X2X2X2X7X",
";X2X2X3X2X;X2X2X3X7X6X;X2X;X2X2XeXtX4X<X2X2Xc.=.[ N n w = @ O   0 q.p.A.S.ZXSXSXAXSXZXNXNXnXS.G.2X2X2X2X2X2X2X2X2X2X2X2X2X2X6X2X",
";X2X3X%X;X;X2X2X;X2X;X2X2X2X2X2X6X+XoX-X:XyX}.).S.V.a.* $ < 4 @ , k 2.0.A.S.F.SXAXZXF.e.w.v.qX&X3X3X2X2X2X2X2X2X2X2X2X2X2X2X;X2X",
"2X2X2X2X2X2X;X;X;X2X2X2X2X2X2X2X+XZ. XwX}.5XaXdXaX2Xb.M 2 5 u * 3 @ 4 p T 4.S.bXbXD.e.$.+.k.,X>X2X2X2X;X2X2X2X6X6X2X2X2X2X;X2X2X",
"6X2X2X2X2X3X2X;X2X2X3X2X2X2X;X;X;X*XzXQ.kXqX&XqX7X>X`.b.f.D # O X : 3 X ; I Y L / u A l.V.|.>X<X7X2X2X2X2X2X2X2X2X2X2X;X2X;X2X;X",
"2X2X;X2X2X2X2X2X2X2X2X2X6X;X2X2X;X9XlXW.!.qX%XoXeXtX4X=Xc.{ / Q 8 E E > O a a = o   X g.@X+X;X,X<X<X2X2X2X2X2X2X6X2X2X2X2X2X2X2X",
"+X+X2X>X>X2X2X2X6X>X2X;X2X2X6X2X<X1XBXlXzXqX6XOX>XyX{.z.z./.gXzXhX' ! ^ ^ ^ W ..X.o X s.oX0X6X:X2X6X6X2X2X2X2X2X6X2X2X2X2X2X2X2X",
"2X2X2X2X2X2X2X2X2X;X2X2X2X2X2X2X;X:X9XCXdXuX;X2X>X8Xh.) &.lXKXPXJXU.P.J.~ ! ~ w.q.J c h.<X2X;X6X6X6X6X2X2X2X2X2X2X2X2X2X2X2X2X2X",
"2X2X;X2X2X2X2X2X;X2X2X2X2X2X2X2X2XrX>X7XyX6X2X6X{.^.) 1 R R.!.FXGXHXkXY.! ! E / n ` j.B.2X2X;X<X6X2X2X2X2X2X2X2X2X2X2X;X2X2X2X2X",
"2X2X2X2X2X2X2X2X2X;X2X2X2X2X2X2X2XsX5XOX+X%X$X8X~.' R + 1 K.T.P.R.JXLXU.L.' ! 1 2 h. X3X1X<X;X;X2X2X2X2X2X2X;X2X2X2X2X2X2X2X2X2X",
"2X2X2X2X;X2X2X2X;X;X2X2X2X2X2X2XaXBXBX%X+X%X'.h.z.-.&.: > E J.J.L./.zXGXGXzXI.Q 2 j.-X6X0X2X+X%X%X%X2X2X2X2X2X2X2X2X2X2X;X2X2X2X",
"2X2X2X2X2X2X2X2X;X2X2X2X2X2X2X2XCXxXBX4X-X@Xk.) &.gXhX6 : 2 Q / ) ' Y.LXUXPXlX*.Q k.`.`.7X2X%X&X2X2X2X2X2X2X2X2X2X2X2X2X2X2X2X2X",
"2X2X2X2X2X2X2X2X;X2X2X2X2X2X2X2XpXBXaX>X>X,Xk.Q Q &.| X.0.q.o./ R H.T.fXKXPXcX*.~ k.Z.%X5X6X;X3X2X2X3X2X2X2X2X6X2X2X2X2X2X2X2X2X",
"2X2X;X2X2X2X2X2X;X2X2X2X2X2X2X2X2XuX>X;X6XuX~.Q : o K 4.D.D.w.h R K.T.T.R.FXlXY.' c.*X0XsXtXOX2X2X2X2X2X2X;X2X6X2X2X2X2X2X2X2X2X",
"2X2X2X2X2X2X2X2X2X2X2X2X2X2X2X2X&X;X-X+X6XiXj.8 u P S.A.D.q.o.W Q H.K.P.P.R.I.h.c.].7XuXuX;X.X6X2X2X2X2X2X6X2X;X2X2X;X2X2X2X2X2X",
"2X2X2X>X2X2X2X2X2X2X2X2X;X2X2X2XeX3X%X+X;X>Xj.:  .bXSXF.q.d 7 Q ' H.L.' J.J.) k.XXeXeX6X2X2X6X<X6X2X6X2X2X2X2X;X2X2X2X2X2X2X2X;X",
"2X2X2X2X2X2X2X;X2X2X2X2X2X2X2X2X2X3X2X;X-XoXs.X  .MXAXZXA.4 > Y.).U.U.I.Y.^ 2 v.qX0XeX;X+X;X;X>X2X;X6X2X2X2X;X2X2X2X2X2X2X2X2X2X",
"2X2X2X2X2X2X2X2X2X2X2X2X2X2X2X2X3X2X:X:X>X2Xf.& g mXAXSXA.t 7 ).GXKXJXHXkX| 4 z.CXqX6X;X;X@XOXtX;X2X2X2X2X2X2X2X2X2X2X2X2X2X2X2X",
"2X2X2X2X2X2X2X2X2X2X2X2X2X2X2X2X0X3X>X>X;X$Xj.2 Q -.w.w.-.| =.gXxXxXLXPXcXz.=.| z.[.2X2X0X3XXX;X2X2X2X2X2X2X2X2X2X2X2X2X2X2X2X2X",
"2X2X2X2X2X2X2X2X2X2X2X2X2X;X2X2X2X2X6X;XOX,Xk.) 1 : O o W -.hXgXgXgXvXHXxXxXkX' 3 g.#X2X6X%X%X2X2X6X2X2X2X2X2X2X;X2X2X2X2X2X2X2X",
"2X2X2X2X2X2X2X2X2X2X2X2X2X2X2X6X;X$X2X6X2XeXk.E O . .   2 | *.%.%.gXkXhXE.kXI.Q 1 ' ~.iXrXOXoX&X2X$X2X%X2X2X2X2X2X2X2X2X2X2X2X2X",
"2X2X;X2X2X2X2X;X2X2X;X2X2X2X2X2X>X;X;X6XyX5Xs.2 O @ u < , o X X ) -.E.&.~ ~ / R ~ R ' (.uXyX2X%X2X2X2X2X2X2X2X2X2X2X2X2X2X2X;X2X",
"2X2X2X2X2X2X2X2X2X2X2X2X2X2X2X2X;X+X-XuXsXsXV.N 8 o @ $ % b M m ] @.| Q ! ^ R / j ( ( | g.N.<X>X&X2X2X2X2X2X2X2X2X2X2X2X2X2X2X2X",
"2X2X2X2X2X2X2X2X2X2X2X2X2X2X2X2X;XOX+X&X0XqX9X|.s.& . . c j.C._.g.c ^ E ! ! R h r :.1.i 8 a..XoX;X;X;X2X2X2X2X;X2X2X2X2X2X2X2X2X",
"2X2X2X2X2X2X2X2X2X2X2X2X2X2X;X2X2X+X+X$X0X0XsXyX_._ c c a. X7XyX_._ c 2 Q / j 2.,.,.>.p M g.,X>X+X;X2X2X2X2X2X;X2X2X;X2X2X2X2X2X",
"2X2X2X2X2X2X2X2X;X2X2X2X2X2X2X2X2X%X;X%X&X0XyX6X@XB.].'.|.$X3XtXeX|.g.c @ r 2.3.2.>.i l.m.,XyX;X;X;X2X2X2X2X2X2X2X2X2X2X2X2X2X6X",
"2X2X2X2X2X;X2X2X2X2X2X2X2X2X2X2X6X2X2X2X3X&X;XOX%X$X6XyX7X#X2X6XeX2XC.a.v q >.<.>.G @.N.+XtXyX6X;X2X;X2X2X2X2X2X2X2X2X2X2X;X2X2X",
";X2X2X2X2X;X2X2X2X2X2X2X2X2X2X2XtXeX>X,X;X%X+X+X3X2X,XeX2X%X%X6X>X6X@X|.j.v + + ; a.N. X$XtX7X;X2X2X2X2X2X2X;X2X2X2X2X2X2X2X2X2X",
"2X2X2X2X2X2X2X2X2X2X2X2X2X2X2X2XtXtX6X>X;X%X%X#X;X>XtXtX,XZ.+X6X0X0X2X+X_.s.c & M k.;X6XuX7X6X6X2X2X2X2X2X2X2X2X2X2X2X2X2X2X2X2X",
"2X2X2X2X2X2X2X6X2X;X2X2X2X2X2X2X2X5X6XtX6X;X;X+X>X,X>X>X-X.X&XpXaX9X2X2X,X'._.'.].|.-X>X4X;XOX7X2X2X2X2X2X2X2X2X2X2X2X2X;X2X2X2X",
"2X2X2X2X2X2X2X2X2X2X2X2X2X2X2X;X$X1X3X6X6X>X>X6X-XOX6XyX+X.X9XBXVXsX3X3X1X4XeX:X;X7X6X>X2XOXOX5X3X2X2X2X;X2X2X2X2X2X2X2X2X2X2X2X"
};
