/* XPM */
static char *result[] = {
/* columns rows colors chars-per-pixel */
"64 70 256 2 ",
"   c #080806",
".  c #170B09",
"X  c #170A17",
"o  c #181917",
"O  c #0E1212",
"+  c #290508",
"@  c #261409",
"#  c #251817",
"$  c #361A1B",
"%  c #2E0E10",
"&  c #182818",
"*  c #102D15",
"=  c #272619",
"-  c #37261A",
";  c #38391E",
":  c #160A27",
">  c #1A1B36",
",  c #0F1229",
"<  c #281A23",
"1  c #2D192E",
"2  c #1B2823",
"3  c #17352C",
"4  c #2B2627",
"5  c #3A2523",
"6  c #392927",
"7  c #393728",
"8  c #342634",
"9  c #2C3531",
"0  c #481B14",
"q  c #46271B",
"w  c #552918",
"e  c #46371C",
"r  c #553618",
"t  c #7A2D19",
"y  c #70301A",
"u  c #4F1A2D",
"i  c #462927",
"p  c #572824",
"a  c #4C3C25",
"s  c #4C3C2B",
"d  c #473528",
"f  c #533D2D",
"g  c #593927",
"h  c #482833",
"j  c #4D3C33",
"k  c #473734",
"l  c #523D33",
"z  c #543A39",
"x  c #562334",
"c  c #642629",
"v  c #653527",
"b  c #74312D",
"n  c #154727",
"m  c #1C572C",
"M  c #2C4D32",
"N  c #2F6D38",
"B  c #4C4125",
"V  c #4D422B",
"C  c #48462A",
"Z  c #52422C",
"A  c #574728",
"S  c #454531",
"D  c #4D4232",
"F  c #4A4939",
"G  c #524232",
"H  c #584837",
"J  c #5A5338",
"K  c #515833",
"L  c #644837",
"P  c #6B5C3B",
"I  c #665538",
"U  c #715A39",
"Y  c #69562B",
"T  c #4A6339",
"R  c #72623B",
"E  c #686137",
"W  c #49421A",
"Q  c #1C1D43",
"!  c #2D2D52",
"~  c #1A3376",
"^  c #27377A",
"/  c #2D356D",
"(  c #242352",
")  c #4F3A4D",
"_  c #633F4B",
"`  c #5D0D5B",
"'  c #2E5344",
"]  c #287848",
"[  c #34704F",
"{  c #334770",
"}  c #237154",
"|  c #4F4E4A",
" . c #6A5944",
".. c #735B46",
"X. c #6E4D4C",
"o. c #48654A",
"O. c #4C714F",
"+. c #6A6345",
"@. c #746342",
"#. c #726257",
"$. c #4E4F68",
"%. c #635978",
"&. c #707172",
"*. c #5C796F",
"=. c #8C331B",
"-. c #A5361A",
";. c #8C3624",
":. c #963726",
">. c #9A3B34",
",. c #8C3C33",
"<. c #A83625",
"1. c #BB3D2E",
"2. c #C23D2D",
"3. c #904330",
"4. c #B0462B",
"5. c #876331",
"6. c #840C76",
"7. c #84287D",
"8. c #84574E",
"9. c #917252",
"0. c #A57752",
"q. c #98756E",
"w. c #01FE01",
"e. c #04FA06",
"r. c #0EFF1C",
"t. c #13FD1F",
"y. c #19F91F",
"u. c #10FB09",
"i. c #15FD24",
"p. c #17FB29",
"a. c #0DFB29",
"s. c #2A874A",
"d. c #2D8A57",
"f. c #388758",
"g. c #36945A",
"h. c #2E964D",
"j. c #30A55B",
"k. c #35976A",
"l. c #34936F",
"z. c #37AF68",
"x. c #1E8750",
"c. c #478957",
"v. c #4E9358",
"b. c #479866",
"n. c #508E6B",
"m. c #4AB370",
"M. c #61A46B",
"N. c #3BC976",
"B. c #34FE65",
"V. c #3BFC64",
"C. c #3AFE6B",
"Z. c #37FD6B",
"A. c #39FE71",
"S. c #34F678",
"D. c #38FB5F",
"F. c #44C778",
"G. c #47DA7B",
"H. c #4CC874",
"J. c #42FB69",
"K. c #48F575",
"L. c #A88553",
"P. c #B38B6C",
"I. c #9C8152",
"U. c #CD9374",
"Y. c #DAA877",
"T. c #263583",
"R. c #304E93",
"E. c #3653B6",
"W. c #2A4FAB",
"Q. c #1C4289",
"!. c #4D568A",
"~. c #586693",
"^. c #767992",
"/. c #6E7187",
"(. c #4451AB",
"). c #556EB3",
"_. c #6C77AF",
"`. c #6D5F88",
"'. c #3158C8",
"]. c #5165C7",
"[. c #7F0D98",
"{. c #A40BA6",
"}. c #C909BE",
"|. c #B37DA0",
" X c #D23DCA",
".X c #B271C6",
"XX c #C361CE",
"oX c #778C92",
"OX c #68AB85",
"+X c #7789B4",
"@X c #52A09E",
"#X c #3DDC83",
"$X c #3EEF89",
"%X c #53CC85",
"&X c #49DA87",
"*X c #54D989",
"=X c #4BD78E",
"-X c #71D796",
";X c #49E789",
":X c #55E48A",
">X c #45FE8C",
",X c #4CFE8C",
"<X c #4AF789",
"1X c #53FD8D",
"2X c #5AFC8D",
"3X c #56F988",
"4X c #55EC94",
"5X c #4CF393",
"6X c #45FE93",
"7X c #4DFE93",
"8X c #4DFE9A",
"9X c #47F999",
"0X c #54F595",
"qX c #5BF593",
"wX c #53FE94",
"eX c #5AFC94",
"rX c #53FE9A",
"tX c #5BFC9B",
"yX c #59F59B",
"uX c #4CE592",
"iX c #65E89B",
"pX c #64F89A",
"aX c #6BEC95",
"sX c #74D2A9",
"dX c #4BFEA2",
"fX c #54FDA2",
"gX c #58F9A4",
"hX c #59EDA1",
"jX c #79E7A7",
"kX c #66F8A4",
"lX c #6EECA5",
"zX c #6283C7",
"xX c #909199",
"cX c #96A598",
"vX c #959CAB",
"bX c #9093B0",
"nX c #A490BC",
"mX c #8CABB4",
"MX c #A9ACB1",
"NX c #E2BCA6",
"BX c #D6B69F",
"VX c #8ACCAF",
"CX c #84EAA8",
"ZX c #94CEA3",
"AX c #F6CFAD",
"SX c #DDCDB3",
"DX c #99ACCB",
"FX c #B7BBC7",
"GX c #B3B5D3",
"HX c #AB90CA",
"JX c #AFC8CA",
"KX c #D2CDC9",
"LX c #CED5E7",
"PX c #D9E8E4",
"IX c #DFE7F2",
"UX c #ECEFEF",
/* pixels */
"w.w.w.e.w.e.e.e.e.w.e.e.e.e.w.e.e.u.u.e.w.w.w.e.e.e.e.e.e.e.e.u.e.w.e.w.w.e.e.e.w.w.w.w.w.w.w.w.w.w.w.w.w.w.w.w.w.w.w.w.w.w.w.w.",
"p.i.i.i.i.p.i.p.p.i.i.p.a.p.p.p.p.a.a.a.i.p.p.p.p.p.p.p.p.p.p.y.y.p.i.p.i.p.p.p.p.p.p.i.t.t.t.i.i.i.i.i.i.i.i.i.i.i.i.p.i.i.i.i.",
"V.V.C.C.C.C.Z.V.V.D.D.V.A.Z.V.J.A.S.S.A.Z.C.K.C.K.A.A.A.V.Z.V.C.V.J.A.B.B.C.K.J.V.C.A.Z.J.V.V.V.Z.V.V.C.C.V.V.C.C.C.C.C.C.C.C.C.",
"wXwXwXeXwXwXwX7X,X,X1XwXrX8XwX0XrX6XdXpXyX0X7X6XrXrXeXwXwXwX0X2XwXtXtX8X6X0XpX3XwXrX8XfXwX2X2X0X0XwXrXwXrXwXrXrXeXwXrXwXwXrXwXeX",
"wXwXwXwXeX1X1X,X8X8XrXtXyX0X0X7X1XeXlXCXjXkXgXgXfXrX2X2X2X2XwX,XwX0XeXfXfXeXeX1X,X7XrXrXwXwXrXfXeXeXwXeXrXwXrXwXeX0XeXwXeXrXeXeX",
"wXrXwXwXwX1X1X1XrX8XrXrX4X4X2X1X,XwX-XZX-X*X*X%X%XG.G.2X3X3X7X7X6XrXyX:X=X0XeXqXiXpXtXrX7X8XrXrXeXrXwXwXwXwXwXwXrXrXwXwXwXwXrXrX",
"8X8XrXrXrXrXrXrXrXrXwXwXrXeXqXqXwX5XOXO.o.[ [ [ [ [ v.G.rXdXdXgXfXrXG.b.c.%XkXjXZXCXgX8X8XgX0XyXeXeXrX8XrX8XrXrXrXrXrXrXrXrXrXwX",
",X,X7XwXrXeXtXrXfXrXwX7XrXeXiX:XqX4Xk.6 # 8 h h u - N m.;X;XuXhXpX;XN.T F b.-XZXMXCXeX6X6X0X3X,XwXwXwXwX7XwXwX1X7X7X7X1X7X7X7X7X",
"rXrXrX0XyX0X7X,X7X1X6XyXqXgXmX.XDX4Xh.O = L b H g J T o.O.[ n.-X-Xb.O.G C o.n.cXJXjXrX6X6X8XeX1XrX0XwXwXwXwXwXwXwXwXwXwXwXwXwXwX",
"rXwXwXrXeX8X,XK.>X3X1XwX,XhXbX XbX*Xh.9 - H ..U ....L a 8 6 | OXI.O.d H L i | OX-XkXeX1X,X,XwX5X7X8XrX7X7X1XwX7XwXwXwXwXwXwXwXwX",
"wXwX1X7X,X7X>X>X8XwXrX9X8XhXsXbXsXuX;Xb.N ; d J  .+.U Y f x ) #.+. .H L _ u M M.tXkXeXwX,X1XtXrX8XrXrXwXwXwXwXwXwXwX7XwX7XwX7XwX",
"eXwX,XwX7X,X,X,X3X7XfXgXgXgXhXdX8X7X7X=Xd.o # 8 H I E Y I L z 9 9 H  .H z h 9 b.:X:X:X4X1X1XtX7XrXwXwXwXwXwXrXwXwXwXwXwXwXwXwXwX",
"tXyXrX7XwX7X1X1X,XwXpX2X0XwXwXrXfXrXH.v.M & O # 5 f L U R U s o # C A r q 6 7 o.c.[ f.%XrXwX2X7XwXwX1XwXwXwXwXwXeXwXwXwXwXwXwXwX",
"yXrX0XrX8XrXwXeXtXaXpX3X1X6X6X4X:X:Xv.f q 5 2 @ o 8 z X.....j # # 7 A q 0 a S d - - 7 n.:X4X:X2XwXwXwX2X2XeXeX2XwXwXeXwXeXwXeXeX",
"wX0XrX7XrXfXgXyXmXMX-XwX7X5XH.h.f.f.| d i d d 7 7 d d H J J G 6 6 7 C d a A K f i q i T c.c.c.H.wXrXrXwXwXwXwXwXwXwXwXwXwXwXwXwX",
"7X1X1X7X8XgXgXpXnX.XmX5X8X=Xc.; - 6 k z D W A P I A g V C V A Z z D D z L I P H Z Z C ; - $ ; g.;X5XwXrX7X7X7X7XwXwXwX,XwX7X7XwX",
"7X7XwXwX8X8XrX5XmXsXsXyXz.d.7 @ - - d G H J I @.R P A V V D Z Z f l l L I #.E Y Y A A d 5 5 = 9 s.z.9X7X0XwXwXeXwX7XdXkXlXjXpX7X",
"wXwXwX7X7X7X8XrXgX0X0X#X] , X i e a s l H I P @.@.@.I H V D Z Z Z Z H I .. .+.E Y B B z k d 4 o * ] ;XfXrXwXrX0XwX7XrXlXCXjXaX5X",
"2XeXwXwX7X6X,X0X7XK.j.] M X $ d f G d = - a J P @.@.+.I J J I J J J I U U @. .K W ; = 7 _ j i $ @ 9 ] z.4XwXwXgXwXwXeXpXjXaXpXeX",
"qXeXeXwX,X,X1XeXrX;X] & 4 C A g l j $ . @ - a I P  .P  ....... .Y P E U R #. .C % @ X 8 ) z d g D = * s.:XeXrXtXwXeXeXeX0XrX0XtX",
"eXeX0XwX7X1X2X2XpX;Xz.] s.v.N 7 6 6 4 $ - 6 d L I L I R @.@.@.R R R P U X.| J a q - $ 8 h 8 = T v.c.N z.2XeX7X0XwXeX2X1X>X6X8XeX",
"rXeXrXwXwXwXqXqX2X5XuXuX<XG.N o # 6 h d k l f G Z Z A P P P P  .R R I X._ F V d W C G d 5 X * [ *X:X;X;X0XrX8X7X,X7X1X2XeXqXeXrX",
"7XwXrXrXrX5X2X2X7XrXgX8XN.h.M - $ 6 k d l G G s s s A I I H I I  .I L H j S s f s G H d - # = m k.#X8XrX0XfX8X6X,X,XwXwXyXtXrX7X",
"6X7X8X7X7X,XrXwXtXgXdX;X] & 8 x z z s a Z Z V G D G f Z A A Z l z G Z d d S H _ v l M s B W W = 4 d.;XrXrXdXrXqX1XeXwX7X8X8X6X,X",
"7XrXwX2XfXdX6XrX7X0X%Xn.M . 0 ) H f D s a A Z D j D Z B B Z l j l j S S S S D H G j M D j A W = % M b.H.5X8XrXwXeXwXwX,X7X8X0X0X",
"wXrX1XeXgXkXtXeXwXuXk.9 & # q f H f G V B Z s j D D V s s V G j j j s S S D f l A D V G j B e - $ - ; v.uXrX7X7X0XwX8X8X7X8XrXrX",
"wXwX,XyXmXVXjX2X,X;X[ # $ 7 e W g Z V V Z Z s j G F D s s s G z z j j Z V C s s Z V V s j k ; a 5 % + O.;XwX1XeXfXrX8X8X8X8X8XrX",
"7X,X>XsXHX.XsX1X,XN.] o $ 7 C A B Z B s Z D s l H D D B V V D G | l l l V B B a s g A g G F F H d 0 . ] uXrXwX7XwXrXrXdX8X9X7X7X",
"7X7X6XlXnXnXsX<XF.g.M o - B V C Z a d d d l F | D D Z C B Z D G G z l G B B B V g g v g s | F Z g 5 o ' k.F.0X,X3X1XwXwX9X7X6X7X",
"8XgXrX,XiXiXqX;X[ n = e g g s S G Z a 6 i k D l V V V V V V Z V G l l g a B V D g p p x f F | V r s 8 4 * x.;XwX,X3X1X1XwX7X7X7X",
"7XrX0X,X>X6X,X&Xd.M N +.K e - 7 H  .z q 5 d k j V V V V Z Z j s j G l f B C j k z $ q L I G 7 i d J O.N m h.#X1X3X3X1X2XwXwXrXrX",
"wX7X1XpXrX8X7X5X&XH.*XH.T ; # < I q.8.q - 5 i f V V Z G G Z s l Z G G f V D k k 8 < i R I.A o # i O.H.%XF.;XwXwXwXwXeXwX2XwXrXrX",
"tXrXwXwXwXrXwX8X8XeXeX;Xm.M o X X.P.9.g w w c g g s d d d k d e d e d d d x b D i 6 r 9.L.K   o N m.qXwXrXtXwX,XrXrXrXwXwXeXrXrX",
"rXwXrXwXrXwXrX8XrXeXwXrX5X%XM O L P.9.K y -.<.=.r i 5 - - 6 5 - - q i i u b ,.3.,.g A 0.P.H * ' m.;XwX7XwXeXeX7XrXrXwXwXwXwXrXrX",
"7X7X7XwX2XwXwX7X8XrXwXwXdX9Xk.m E q.#.Z y :.<.=.t c c w p p p w w y w p c b ;.:.3.v L 8.0.I m j.>X,XwXwXwXwX7XrXwXwXwXwXwXwXwXrX",
",X,X,X1XwXeXrX7X6X7XwX1XwX9X$Xm.n.P v i q v b b =.=.3.>.>.>.>.>.3.3.3.:.:.;.t y w p w v +.v.F.;XwXwXwXwXwX7X1XeXwXwXwXwXwXwXwXwX",
",X,X,X1XwXeXrX8X7X7X1X2X1X,X7XrXb.G x ` u 1 u g =.3.4.4.2.2.1.1.4.4.4.:.:.;.y q - 7 | h S b.qXeXtXtXrX7XwXwXwXwXwXwXwX7XwXwXwXwX",
"wXwXwXwXeXeXrXwX7X1X3X3X3X3XwX5Xb.j 6.{.6.X + u g w t =.-.-.-.-.<.-.=.=.c c u + o ] b.[ M b.kXfXtXrXrX7XwXwXwX7XwXwXwXwX7XwXwXwX",
"kXpXeXeXeXwXwXwXwX2X3X3X,XwXfXdXg.k 6.}.{.` : 1 < % 0 c t t t y t ;.c 0 $ $ $ 2 n z.;Xg.N z.0XrXwX7X7XwXwXwXwX7XwXwXwX7XwX7XwXwX",
"kXkXtXrXrX0XrX8X2X1X,X3XwX0XfX$Xg.- x ` {.{.` X     @ $ w w w q q w 0 + X   2 } %X:XK.F.%X&XwXeX2X2XwXwXwXwXrXeXwXwXwXwXwXwXwXwX",
"lXkXpXwX7X7X7X8X>X<X1XeXpXpXhX%Xc.j p x 7.}.[.: X : , 1 1 - 4 4 1 9 4 1 4 : 3 d.#X3X2XwXrXrX<XrX1X1XwXwXwXwXwXwXwXwXwXwXwXwXwXwX",
"pXtXwXwX1X7XeXwXrXrX7XeXlXVXOXO.+.9.0.0.X.` ( ( / T.^ / ! 8 8 8 8 ( { /./.! , 3 } N.1X1XwX7X8X8X1XwXwXwXwXwXwXwXwXwXwXwXwX7XwXwX",
"7XwXwX1X1X1XwX0X0XeX7XrXlXZXn.6 ..U.Y.P.8.% Q ^ (.E.W.R.^ ~ ! ( / ~ R.DXDX~.Q , 2 [ *X1XwX8X8X,XwXwXwXwXwXwXwXwXwX7XwXwXwX7XwXwX",
"1X,X1X1X1XwX7X7XwXtXyXrXpX-X[ # Y U.U.q.8.c u ( T.'.'.W.W.W.R.R.Q.Q.!.mXDX).T.,   3 f.F.,XrX8XeXrXwX7XwX7XwXwXwXwXwXwXwXwXwXwXwX",
"wXwX0X,X7X7X8X7X8XeXeXwXyX:Xs.3 J 0.9.J v ;.p 8 T.W.'.'.'.'.'.'.E.R.~.vXDXzXR.! > > ! g.G.<X8XrXrXrX7XwX7XwXwXwXwXwXwXwXwXwXwXwX",
"rX7X7X7X7XrXrX8XrX0X7X>X1X3XF.j.T j u = % 0 $ ! / T.W.W.'.W.W.W.(._.xXMXmX'.W.$...X.$.$.[ H.eX2X7XrXrXwXwXwXwXwXwXwXwXwXwXwX7XwX",
"rX7X7X7X,XrX0XeXrX1X>X$X7XgXkXlXf.3 * * # X > / / ! { R.Q.Q.Q.^ ~.vXFXvXoXR.{ q.L.9.#._ | n.G.2XwX0XwXwXwXwXwXwX7XwX7XwXwXwXwXwX",
"0X0XrX7X7X8XwXrX7XwX1X7XeXpXCXVX%Xd.h.h.' > ! $.$.! ( ~ Q.Q.~ ~ !.nXMX^.$.Q ! P 0.L.L.P.|.#.v.m.wXwXwXwXwXwX7XwXwXwXwXwXwXwXwXwX",
"0XwXwXwXwXwX1X1XwX1XwX8X8XkXsXVX-XqX6X&Xk.{ !.xX^.$.( / T.!.{ { ~.mXvX%.( , . 7 5.L.BXAXNX9.M f.5XfXrXwXwXwX7XwXwXwXwX7XwXwXwXwX",
"wXrXwX7XwX7XwX1X7XwXwXwXrXyXlXCXpXwX=Xn.*.^.bXmXvXxX/.|.^.oX+XDXDXMXvX).T.Q o < r L.NXAXNX8.o [ 5XtXrX7XwX7X7XwXwXwXwXwXwXwXwXwX",
"wXwXwXwXwXwXwXwX8XrXwXwXwXwXyXeX7X<Xk.{ `.MXKXJXJXJXFXFXGXGXLXUXPXMX|.(.E./ >   = q.NXAXNXX.& d.5XwXwXwXwXwXwXwXwXwXwXwXwXwXwXwX",
"wXwXwX7X7XwXwXwXwX7X7XwXwX1X7X7X8X;Xl./ `.FXLXLXPXPXPXLXIXIXUXUXSXxX%._.).!.Q O X z 8.#.#.O.s.F.,XwXwXwXwXwXwXrXwXwXwXwXwXwXwX7X",
"wXwX7X7XwX7XwXwXeXwX7XwXwXeXwX7X0XyXl.{ ).GXLXUXUXUXUXUXUXUXUXUXJX`.) ^.oX!.( ,     & . & g.;X,X7XwXwXwXwXwXwXwX7XwXwXwXwXwXwX7X",
"wXwXwXwXwXwXwXwXwXwX7XwXwXwXwXwXwX5Xl.{ R.zXDXKXSXKXKXKXSXKXJXGX+X! ! &.xXxX%.1   n ] N s.N.8X7X7X,X7XwXwXwXwX7XwXwXwXwXwXwXwXwX",
"wXwXwXwXwXwXwXwXwXwXwXwXwXwXwXwXwX3Xl.! / E._.vXcXcXvXcXMXcX|._.R.> # &.xXxX&.) 3 g.;X<XuX0XtXeX7X,XwXwXwXwXwXwXwXwXwXwXwXwXwXwX",
"wXwXwXwXwXwXwXwX7XwXwXwXwX7X,XwX8X6Xd.> ! ).zX_._._._._._._._.).%.2 . F &.%.o.' d.F.wXwXrXrXtXwX7X7X7XrXwXwXwXwXwXwXwXwX7XwXwXwX",
"wXwXwXwXwXwXwXwXwXwXwXwXwXwXwXwXwX5Xd.2 S oX_.].'.'.E.W.'.'.).+X*.8 X 7 k $ 3 k.uX0XwX7X6X7XrX7XrXrXwXwXwXwXwXrXwXwXwX7XwXwXwXwX",
"wXwX7XwXwXwXwXwXwXwXwXwXwX7XwXwXgX5Xz.] ' $.$.^ T.~ ~ ~ ~ T.{ $.| < X o = m ] F.wXeXeX,X,X,X,XwXwXrXwXwXwXwXwXrXwXwXwXwXwXwXwXwX",
"wXwXwXwXwX7X7XwXwXwX7XwXwX7XwXwX8X8XqXG.h.& X : , O O : : : , , > Q 8 o n j.;X8X,XeX2X2X2XwX<X3XwXrXwXwXwXwXwXwX7XwXwXwXwXwXwXwX",
"wXwXwXwXwXwXwXwXwXwXwXwXwXwXwXwX8X8XpX2XH.] &     O X $ +   O n } } [ } x.N.8X7X3X2X7X8XdX8X0XwXwXwXwXwXwX7XwXwXwXwXwXwXwXwXwX7X",
"wXwXwXwXwXwXwXwXwXwXwXwXwXwXwXwXrXyXrXwX0X=Xd.O : > u b 0 + * j.uX;X;XG.S.<XwXwX1XqXqX7X$XdXyXrX1XwX1XwXwXwXwX7XwX7XwXwXwXwX7XwX",
"wX7XwXwXwX7XwXwXwXwXwXwXwXwXwXwX7XrXfX7XwX8Xj.* X x ,.1.=.+ 3 N.wX,X,X7X0X0XqXeX7XqX2X1X$X8XdXrX1XwX1XwXwXwXwXwXwXwXwXwXwXwXwXwX",
"wX7XwXwXwXwXwXwXwX7X7XwXwXwX7XwX8X8X9X8XwX,Xj.* % ;.1.1.=.+ n F.eXpXtXwXeXgXkXgXrX8XdXuXdXdX8XwX1X1XwXwXwXwXwXwXwXwXwXwXwXwXwXwX",
"wXwXwXwXwXwXwXwXwXwXwXwXwXwXwXwXyXwXwXwX0X,Xz.[ s b =.t r M s.&XwXeX2XeXrX7X7X7XeX$XhXsXsXsX7X$X1X1X1XwXwX7XwXwXwXwXwXwX7XwXwXwX",
"wXwXwXwXwXwXwXwXwXwXwXwXwXrXwXrXwXwXwXwXwXrX5X#Xg.& + + M z.=XwXeXrXrXrXrX7X>X,XwX>XhXnX XnXdX,X7X7X7XwX7XwXwXwXwXwXwXwXwXwXwXwX",
"rXrXrXrXrXrXrXrXrXrXrXrXeXwXwXrXeXeXwX1XwXrXtXyXN.] n n d.=XrX8XeXrXfXrXrX7X,X7X0XrXsXnXXXbXgX0XrXrXrXrXrXrXrXrXrXrXrXrXrXrXrXrX",
"rXrX8XrX8XrXrXrXrX7XrX7XrXrX7XrXwXwXwX7X7XrXrXgX9X#XF.F.&X8X8XrXrXwXrXrX7X7X7X7XrXrX8XiXsXhXrXyX8XrX8XrXrXrXrXrX8XrX8XrXrXrXrXrX",
"C.C.C.C.C.C.C.C.C.A.C.C.A.C.A.C.C.B.C.C.C.C.B.B.Z.C.K.C.B.C.C.J.C.C.Z.A.A.Z.Z.C.B.Z.B.B.B.Z.V.B.C.B.C.B.Z.Z.Z.C.V.C.C.C.C.C.C.C.",
"t.t.t.i.i.i.t.t.i.i.i.i.i.i.i.i.i.i.t.i.i.t.i.i.t.i.r.r.i.i.i.t.t.t.i.i.i.i.i.i.r.i.p.p.i.i.i.r.t.t.t.t.t.i.t.t.i.t.t.i.t.t.t.t.",
"w.w.w.w.w.w.w.w.w.w.w.w.w.w.w.w.w.w.w.w.w.w.w.w.w.w.w.w.w.w.w.w.w.w.w.w.w.w.w.w.w.w.e.e.w.w.w.w.w.w.w.w.w.w.w.w.w.w.w.w.w.w.w.w."
};
