/* XPM */
static char *nate_b21650476113[] = {
/* columns rows colors chars-per-pixel */
"64 64 256 2 ",
"   c #170C09",
".  c #071306",
"X  c #17170A",
"o  c #0A0A16",
"O  c #181516",
"+  c #0E0E13",
"@  c #271A18",
"#  c #371C1B",
"$  c #2D110E",
"%  c #0B2816",
"&  c #172919",
"*  c #102A0D",
"=  c #27261B",
"-  c #38261A",
";  c #3A381B",
":  c #2F3416",
">  c #0F152F",
",  c #391A26",
"<  c #2D1930",
"1  c #142E2A",
"2  c #292725",
"3  c #392725",
"4  c #383727",
"5  c #292538",
"6  c #382A37",
"7  c #3A3A37",
"8  c #2B3630",
"9  c #4A1616",
"0  c #46291D",
"q  c #572719",
"w  c #4D3719",
"e  c #6B321A",
"r  c #49182C",
"t  c #462A27",
"y  c #582725",
"u  c #4C3C24",
"i  c #4C3C2C",
"p  c #473626",
"a  c #533D2C",
"s  c #573928",
"d  c #493935",
"f  c #533E33",
"g  c #553937",
"h  c #4F2E35",
"j  c #643A26",
"k  c #712D2B",
"l  c #701E1F",
"z  c #17532F",
"x  c #3B442A",
"c  c #3D4835",
"v  c #2B5034",
"b  c #1A7039",
"n  c #2D6B37",
"m  c #1F481E",
"M  c #4A441D",
"N  c #4C4326",
"B  c #4B442D",
"V  c #45462A",
"C  c #52422C",
"Z  c #594529",
"A  c #58552B",
"S  c #4B4333",
"D  c #474736",
"F  c #534233",
"G  c #5B4234",
"H  c #584839",
"J  c #595338",
"K  c #475238",
"L  c #684939",
"P  c #635434",
"I  c #67583B",
"U  c #6F5332",
"Y  c #6D6139",
"T  c #71683D",
"R  c #181C54",
"E  c #2E134D",
"W  c #1E294C",
"Q  c #32314D",
"!  c #193771",
"~  c #283878",
"^  c #2E306C",
"/  c #2B1862",
"(  c #4B1448",
")  c #4F2C4A",
"_  c #540966",
"`  c #6F2351",
"'  c #32484D",
"]  c #377557",
"[  c #2D724B",
"{  c #2B6363",
"}  c #53534A",
"|  c #685B45",
" . c #745845",
".. c #6D5349",
"X. c #4A7050",
"o. c #6C6345",
"O. c #756547",
"+. c #6F6C58",
"@. c #50506D",
"#. c #6B6D71",
"$. c #59666F",
"%. c #933419",
"&. c #993728",
"*. c #8B392F",
"=. c #A93829",
"-. c #A0361E",
";. c #984219",
":. c #A74213",
">. c #96442C",
",. c #B2432F",
"<. c #8E3164",
"1. c #865746",
"2. c #8D6B4F",
"3. c #AF7357",
"4. c #946C69",
"5. c #AB7561",
"6. c #CB7453",
"7. c #CA747D",
"8. c #298735",
"9. c #01FE04",
"0. c #05FC07",
"q. c #05FE17",
"w. c #16FD1F",
"e. c #19FB19",
"r. c #15FE22",
"t. c #1AFE22",
"y. c #17FD2C",
"u. c #09FF21",
"i. c #24F621",
"p. c #39995A",
"a. c #2E8C53",
"s. c #3AA75A",
"d. c #33B65E",
"f. c #399A65",
"g. c #319163",
"h. c #3AB26D",
"j. c #1D8C47",
"k. c #488D54",
"l. c #46A958",
"z. c #4D936C",
"x. c #47B977",
"c. c #4DB06E",
"v. c #6A8264",
"b. c #39D073",
"n. c #3BFF7B",
"m. c #3AFE74",
"M. c #38EE75",
"N. c #31CF56",
"B. c #4AC878",
"V. c #4BD275",
"C. c #40FE75",
"Z. c #45FC7B",
"A. c #4CF474",
"S. c #A78765",
"D. c #C38E6A",
"F. c #D1925B",
"G. c #2A3986",
"H. c #2C2F96",
"J. c #2A3E97",
"K. c #304792",
"L. c #3252B1",
"P. c #22519A",
"I. c #4C588F",
"U. c #74748E",
"Y. c #5171AE",
"T. c #6774B2",
"R. c #545C97",
"E. c #3153C6",
"W. c #6873C9",
"Q. c #4D62C7",
"!. c #AC0997",
"~. c #900A8A",
"^. c #9671AB",
"/. c #CE3ECB",
"(. c #AE73CF",
"). c #AE68E2",
"_. c #CC4DD8",
"`. c #768C8D",
"'. c #4BB983",
"]. c #7087B2",
"[. c #7BB0AD",
"{. c #64A690",
"}. c #3CFD88",
"|. c #3EFE95",
" X c #3DE880",
".X c #3BD185",
"XX c #49C786",
"oX c #55D785",
"OX c #50D48D",
"+X c #6ED29B",
"@X c #49E589",
"#X c #54E88A",
"$X c #4CFD85",
"%X c #45FE8D",
"&X c #4CFD8C",
"*X c #48F789",
"=X c #52FE86",
"-X c #53F38C",
";X c #5BF58C",
":X c #53FD8D",
">X c #5AFC8C",
",X c #57F585",
"<X c #4CEC95",
"1X c #57EB97",
"2X c #4BF594",
"3X c #44FE93",
"4X c #4DFE93",
"5X c #45FE9A",
"6X c #4DFE9B",
"7X c #49F397",
"8X c #54F594",
"9X c #5BF494",
"0X c #52FE94",
"qX c #5AFB94",
"wX c #53F59B",
"eX c #5CF59B",
"rX c #53FD9B",
"tX c #5BFC9B",
"yX c #63F98C",
"uX c #66E797",
"iX c #79EC9D",
"pX c #62F694",
"aX c #61F59A",
"sX c #65F998",
"dX c #71F298",
"fX c #73D3A9",
"gX c #57E8A4",
"hX c #4CFEA2",
"jX c #48FAA6",
"kX c #54FDA3",
"lX c #5BFBA2",
"zX c #56F6A4",
"xX c #68E8A5",
"cX c #77EDA4",
"vX c #64F7A4",
"bX c #6CF2B0",
"nX c #8F8E95",
"mX c #8F96B1",
"MX c #94A4B9",
"NX c #8DADB1",
"BX c #A9B7B1",
"VX c #A99AA3",
"CX c #D9AAA1",
"ZX c #94D3AB",
"AX c #8BE4AE",
"SX c #A1CFAF",
"DX c #CCC9B8",
"FX c #FECAAF",
"GX c #9392C4",
"HX c #ABB2C9",
"JX c #AECFCB",
"KX c #D9DBE5",
"LX c #D6EAF4",
"PX c #EBEFF5",
"IX c #E1D2E2",
"UX c #C2B1D3",
/* pixels */
"qX9X-X;X-X9X8X2X*X;X9XtX7X1X1X2X%X-X-X-X*X2X;X$X*X0X>X9X0X2X<X9X2X,XA.wXjXwX-X*X-XwXwX;X-XwXwX-X8X9X1X9X-X*X<XwX*X2X8X-XzXeX,X1X",
"rXrXqX9X8X>X8X8X5XwXqXqX4X0XtX0XkX9X%X|.5XrXsXeXdX-X*X%XtXtXqX0X8X>X:XtXzX-X&X4X&X4X5X:X&X6X6XqX6X0XqXqXkX5X6X0X-X;XyXyX=Xm.t.q.",
"6X6XrX0X:X:X0XrXzXwX0X>X>X:XqXqXkXqX3XgXfXxX6XhX>X:X*X%X4X0XqX0X4X%X4XrX0X>X&X3XqX0X8X>X>X4X5XrX5X&X&X4XhXhXrX=XqX0XlXtXhXn.q.9.",
"hX6X4X&X&X&X0XrX6X|.3X:X$X%X3X:X3X&XwXHXUXAXjXhX4X0XtXrX3X:XqX>X&X&XrXrXqX>X8X5XlXrX4X-X;X8X5X4XqX:X:X4XhXrXrXqX$X$X4X5XjX|.y.0.",
"6X6X4X:X:X:X0X0X4X3X3X4XrX5X4X4XqX=XeXVX^.`.x.x.x.x.XX<X8X0XqX4X&XqX#XV.V.1XxXbXbXzX5X4X;XpXqX0X=X0X6X5X4XqX0XrX>X,X:X&XhX}.w.9.",
"rX2X0X&X0X0X0X6X:X:X4X6XzXlX0X8XtXqX1Xz.g d V V K x [ '.wXqX4X4X3XwXB.n k.+XJXSXZXuX4X4XqXqX8X8X$X4X5X5X%X&X3X5X6X0XqX;XwXZ.y.9.",
"qX8X:X8X0X0X4X4X4X4X4X%XrXrX4X3X4XqX@X[ $ 9 u p 0 0 d k.c.c.B.8X6XXXk.M A `.NXZXAXuX&X3X5X3X}.3X0XrXrX4X:X:X4X5X4X4X:X>X,XA.t.q.",
">X>X0X0X4X4X4X4XzXaXqX:XqX;X-X4X=X4X@X[ X 4 P P P I } K u w [ XXXXX.Z U L ) ] 1XlX>X=XqXzX6XrXeXzXeXtXqX>X8XrX5X6X6XhXqX=Xm.e.9.",
"&XtXwX4X0X0XwXrXvXqXqX$X=X+X[.fXeX7X@Xh.v V V Z I 1.I N 0 9 v $.z.A w P F 3 [ @XzXkXtXlX4X*X+XMXfXA.=XqXqXhXrXeX3X6XkXrXrXn.r.9.",
"5XkXhX6X6X5X5XkX4X9XqX}.-XmX_.(.zX3X|.4XB.b O , C Y O.o.I g 4 v d P Y J 4 2 [ oXeX:X:X8X5XgXGX_.MX#X}.$XqXvX3X%X4X7XrX0XrXn.t.9.",
"kXrX0X0XkX6X4XrX=X-X%XwXtX[.).MX6X4X>XV.z.' + @ - u A J | ..f @ # Z A w t Q ' z.z.s.V.*X3XbX[.(.MXzXzX:X=XqX%XaXqX0X6X4XrXZ.t.0.",
"aX&X$X:XqX;X=X>XyX3X3XaXsXgXgX*X2XrXuXz.7 3 @ . X $ ; A | o.H # X ; w q h d d S 4 8 k.V.&X;X1XgXxX5X6X9X*XtX$X>XqX8X6X4X0XC.t.9.",
"sX$XZ.0XqX>X=X>X5X3X8X-X2X4XwXoXc.z.z.} 3 3 t - 4 - w Z J J H - & p j q y H F 3 - - x l.l.l.B.yXqX}.5XtX4X5X$X&XqX0XrX0XrXm.w.9.",
"tX%X:XkXrX:X%X1XzXeXsX0XhXhX#Xz.) t 0 u p f j U ..Z Z Z a p B S C g h C P U P D N x x p 0 4 p.#X&XwXkXvXwX1X;XtX0XqXtXqX0XZ.r.9.",
"wX4XiXbXkX&X3X+XmX[.1X8X3Xb.a.m r , 0 q G J J  .T P A Z g u p f Z d S J P P P +.J K D t 9 , v a.b.9X4XtXNXmX+XqX3XtXdXdXaXZ.r.9.",
"qXqXAXAXwX$X:XNX/.(.xX0XA.8.< O = 4 V p g } X.o.>.Y A J H C C L B H J P O.o.I ..J a a w p r   X 8.#X7X1X(./.NXhX5XeXdXAXvXZ.r.0.",
"%XdXcXlXqX4XwXfXGXNXuXb.8.& = $ w M S - = 7 )  .Y O.| I P P P L J J I  .O. ...G h 3 3 d d h 0 $ z n N.tXMXmXfX8X4XqXcXcXkXn.r.0.",
"%XrXzXrXqXqXwXgXzXlXwXf.m : x M C u a = + @ 3 L Y o.I | Y I  . .I I o.o.O. .G t O   = d } d i H & 2 g.hXlX8XeXwX4X4XkXrXlXZ.e.9.",
"4XrXrX0X>X>X%X3XA.tXkXXXa.p.c.} = # t = = - p F P Z J | o.O.O.O.T T I P L L F p 4 = : - # = n c.f.a.x.lXtX&X}.4XqX8XrX4X3Xm.w.9.",
"&X0XrX:X=X=X%X4X-XrXzX8X-X9XXX]   $ # ; i G C D u u C I | o.O.O.o.Y A C u N C S i i 0 # $ X n XX9X-X0XsXeX7X7X0X>X9XsX>X3Xm.w.0.",
"&X0XqXqX0X4X0XwX6XtX7X6XlXV.[ m 2 3 t V V Z C V a a f H I J J H I } H C u B C S C Z B p t = v [ B.wXhX8XrX8XqX&X0X4XrX:X0XC.e.0.",
"&X0XrX>X0X0XrX5X9XqX%X3XOX] % @ V g G S V C C D F F F H F F i i f F H F i C C S B V S S G d , O [ OX7X&XqX:X5X|.4X4XtX>XtXC.t.0.",
"6XlXAXdXtX6X4X5XrX3X&XB.X.c @ , i F F F B S F H C f f F f a u i i f F g a F H F V B f F G i , @ 7 X.V.%X0X6XhXhX4XpXAXiXvXn.u.9.",
"hXxXZXZXaX3X0XqXvX2XtXl.= @ 3 t C f f g F d d g B C F a C a C a u B F F a F S d S g g s i p 4 3 $ = p.7XtXrXwXaX4XdXAXZXcXZ.w.9.",
"5XrXdXdXsXqXwX6X6XrX6Xg.X $ V g V C s g g N u g F H F S D B C s s C D F G F d ) j g f S g a Z p $ X g.zXlXrX0X&XrXeXvXdXlXZ.r.0.",
"4X8XsX9X;X:XqXtX6X8X.Xa.& = x Z K B h g H i i g ) F C D D B D S N V B s j C N N ; f g s i K K B = * [ .XjXrX0XqX:X>XaXsXtXn.r.0.",
"&XqXqX:X&X&X0XsXaXx.z 8 5 - V V D N s 0 - p C B F a M w s Z a L H D D S S S V D u 4 p j i V K c d = = n h.rXrXqX=X=XqX:X5Xm.r.0.",
"0XrX0X4X4X4X0XtX0Xs.m 8 } K V : 4 Z U w - p N N V V V u u f G G B V 7 7 S F g g p < h U Z 3 ; M } ' 4 m p.0XtX8X:X&XrX4X5Xn.w.0.",
"6X6XrXrXrX4X6X6XrXM.d.x.'.X.3 $ , L 2. .6 , t u V V D D g } F B s s a C C C p : , , g 3.| = $ 9 +.x.h.h.V.sXqX4XrX6XkX6X6Xn.t.9.",
"5X4XrXwXtXrXrX5XaX2X:X0XwXc.D O    .D.1.t r y q e j g h t s p 4 s g h h C Z w w q t 1.D. .O X D c.7X6X;XrX4X4X3XrXrXkXrXrXZ.t.9.",
":X0XrX0X0XqX4X4XlX&X=XqXrX<Xc.b . L D.2.s L >.*.j y t , , - - 4 3 , t t t e -.-.k s 2.D. .+ z '.#X0X9XdXqX}.3X5X0X0XkXqX0XC.r.9.",
"-X:X0X0X:X$X:XqX%X&X>XsXrX4XtXg.v ..5.2.s k &.-.*.e y h y q q y p y y y q *.&.&.1.Z U 3.+.z j.wXwX0X:X>X&X3XlXvX=X&X0X:X>Xm.e.9.",
"0X0XqX0X0X0X0X0X0X0X4X4XrX0X2X*XB.k.| h - y y l =.&.>.>.%.:.&.,.>.&.;.;.-.-.e t , y s L +.h.#X%X0X0X0X4XrX4X0X0X0X4X6X:X0XC.w.9.",
"0X0X0X0X0X0XrX0XrXrX0X4X4X0XrX0XqXk.g ' c 2 @ l %.>.>.;.:.,.,.=.=.,.,.%.%.*.y @ r <.` d p.,XsX9X0X0X0X4X4X0X0XqX0X4X6X0X0XC.t.9.",
"0X0X0X0X0X0X0X0XrX0X6X4X0X0XrXtXaXk.w X.x.z   $ 9 y y l %.-.=.&.,.=.%.e y r 2 + _ !.~.) p.-X:XkX0X0X4X0X0X4X0X0X0X0X6X:X0Xm.w.9.",
"0X0X0X0X0X0X0X0X4X0XrX0X4X0X0XrX1Xl.8.c.1Xh.v * @ o @ q k k k e e l 9 $ X O r ( ~.!.~.( g.*X%X6X0X0X0X0X4X0X0X0XqX%XrX&X0XC.w.9.",
"0X0X0X4X0X0X0X0XrXrX0X0X0X0X0X0X}.-Xb.@XzX@Xd.b + o o - y t , - 0 r r O   o _ !.!.` E 5 a.-XrXtX0X0X0X0X4X0X0X0X0X4X6X&XrXC.w.0.",
"0X0X0X0X0X0X4X0X0X0X0X0X0X0X0XrXhX4Xn.%XzX Xp.v + > 5 5 7 3 2 & 2 ( ( Q 8 > _ !.<...J ..+.c.OX2XrX0X0X4X0X0X0XrXqX4XrX0X0XC.w.9.",
"4XrX0X4X0X0X0X0X0X0X4X0X0X0X4XrXbXwX$XqX<Xj.2 > / H.K.K.~ ^ Q W W ^ R.mX`.{ R E k 5.F.6.1.' l.*X0X0X0X0X0X0X0X0X:X4XrX:X0XC.w.9.",
"0X0X4X0X4X0X4X4XrX0X0XqX0X0X4X4XjXwX4X@Xf.1 o R H.L.E.L.P.~ ~ ~ K.K.Y.HXGX~ 1 X N 7.F.F.1., ] #X0X0X0X0X0X0X0X0X0X4X6X0X0XC.w.9.",
"0X0X0X0X0X0X0X0X0X3X4XtX8X:XrX0X$XrX1Xz.Q > o ^ P.K.K.L.L.L.L.L.L.E.W.HX`.W 2 C o.1.5.D. .& b 8X0X0X4X0X0X0X0X4X0X4X6X0X0XC.w.9.",
"0X0X0X0X0X0X4X0X0X4X0X0XqX0X4XqX&XoXz.[ ' 7 } { P.! ~ L.E.L.L.P.Q.Y.GXGX4.2 O Q h d L ..} n d.2X0X0X0X0X0X0X0X0X0X4X6X0X0XC.r.9.",
"0X0X0X0X0X0X0X0X0X0X0X3X0X0X3X1X-Xz.c } | 5.4.$.! > R G.L.P.P.K.Y.MXHXHXnX7 > > % . . & [ x.:X2X0X0X0X0X0X0X0X0X0X4XrX:X0XC.w.9.",
"4X0X0X0X0X0X0X0X0XqX0X3XqX0X3XoXs.+.2.4.5.6.3.a > o > ^ K.~ ! ! I.MXHXU.@.Q Q n b b b [ {.ZXAXlX0X0X0X0X0X0X0X0X0X0X6X0XrXC.w.9.",
"0X0X0X0X0X0X0X0X0X0X0X4XqX8X0Xs.x 4.CXCXD.6.>.q > 5 Q _ ^ ^ K.J.Y.[.mX@.< E { @X@X<X2X1XNXVXBXvX0X0X0X0X0X0X0X0X0X:X6X0X0Xm.w.9.",
"0X0X4X0X0X0X4XrX4X0X0X0X>XqXeXb @ 5.FXFXF.>.q S @.U.U.U.U.T.].].mXMXNX~ / ^ { OXtXwXrXtXAXJXfX&X0X0X0X0X0X0X0X0X0X4X6X:X0XZ.t.9.",
"0X0X0X0X0X0X0X0X0X4X0X0X0X0XeXj.8 +.CXCX3.s t #.BXJXHXHXHXHXJXLXIXVX`.Y.K.! ] OXwX4X:X8XgXjX6X4X0X0X4X0X0X0X0X0XrX0XrX4X0XC.w.9.",
"0X0X0X0X0X0X0X0XrX3XqXqX4X&XqXx.] X.+. .L } U.BXLXPXLXLXKXLXPXPXIXnX$.].I.W b @XvX:X$X4X4X&X>X9X0X0X0X0X0X0X0X0X0X4X6X0XrXC.w.9.",
"0X0X0X0X0X0X4X0X0X0X0X0X0X0X0X0XoXa.% o @ $.HXKXPXPXLXPXPXPXPXLXHX$.@.nX$.1 z XXbX4X;XqX4XrX&XqX0X0X0X0X0X0X0X0X0X4X6X:X0Xm.w.9.",
"0X0X0X0X0X0XrX0X0X0X0X0X0X0X0X0X6XB.[ 1 < $.GXHXHXDXDXDXDXDXDXHX].Q Q #.S.+.$.f.h.*XsXtX7X0X%X:X0X0X0X0X0X0X4XrX0X4X6X0X0XZ.t.9.",
"0X0X4X0X0X0X0X0X0X0X0X4X0X0X0X0X5X2X@Xg.W ~ T.mX].nXVXVXVXnXmXW.K.> 2 #.nXnXR.' a. XrXrX6X4X%X0X0X0X0X4X0X0X0X0X0X4XrX0X0XC.w.9.",
"0X0X0X0X0X0X0X0X0X0X0X0X0X4X0X0X-X6X8X[ 5 @.T.T.].T.T.T.Y.Y.T.W.R.@ 3 `.MX].@.> [ @X4XrXwX4X3X0X0X0X0X0X0X0X0X0XrX0X6X:XrXC.w.9.",
"0X0X0X0X0X0X0X0X0X0X0X0X0X0X0X0X:X6X<X[ 1 } U.Y.L.E.E.E.L.K.I.U.#.@ 6 U.].Q.~ o v @X4XwXtX8X4XqX0X0X0X0X0X0X0X0XqX4X6X4X0Xm.w.9.",
"0X0X0X0X0X0X0X0X0X0X0X0X0X0X0X0XtX6X8XB.g.n 4 1 R W / R R > 1 7 6 < 1 @.R.Q.H.o z .XrXtXrX>X0X0X0X0X0X0X0X0X0X4X0X4XrX:X0XZ.r.9.",
"0X0X0X0X0X0X0X4X0X0X0X0X0X4X0X0X0X7X&XtX1X] % * % % % o > % % . o 6 Q E ~ L.G.1 b @XtXrX:X>X0XwX0X0X0X0X0X0X0X0X0X4X6X0X0XC.w.9.",
"0X0X4X0X0X0X0X0X4X0X0X0X0X0X0X0X}.6XeX0X3X'.f.f.f.s.s.h.h.f.[ %   9 ` Q R R ' j.b.4XqXrX4X>X:X4X0X0X0X4X0X0X0X0X0X4XrX0XrXC.w.9.",
"0X0X0X0X0X0X0X0X0X0X0X4X4X0X0XeXyX,X=X=X8X4XrXtXkX0X4X5X5XrXB.1   k *.) E o z M.rX=X0XlXqX$X4XqX4X0X0X0X0X0X0X0XwX4X0X:XrXm.t.9.",
"0X0X0X0X0X0X0X0X0X0X0X4X4X0XtXaXAXdXpX9XqX0X:XsXqX:X&XrXrX5Xb.1 $ &.=.&.y   z V.kX4X4X%X%X4X6X%X0X0X0X0X0X4X0X0X0X0X0X0X6X}.t.9.",
"0X0X4X0XrX0X0X0X4X4X0X0X0XqXpXsXAXiXtXqX4X3X&X;X=X=X$X9XeX4Xb.[ 0 e ,.-.q : b @XlXtX+X+X1XwX6XqX0X0X0X0X0X0X0X0X4X4X0X>XqXZ.t.0.",
"rX0X4X0X0X0X0X0X4X0X0X:X0XtX9XaXxXvXrX0X4X4X:X=X=X>X=XqXeX4X<XXXk.: $ 9 x p.B.2X=X8XMX(.GXuX:XeX0X0X0X0X0X0X0X0XhX4X0X=X=Xm.r.0.",
"4X0X0X0X0X0X0X0X0X8X0X0X0X4X0XtXeX6X4XqXtXtX0X8X4XsXqXrXrX:X6XlXV.b % & [ #XkXwX}.4XMX_.GXuX&X6X0X0X0XrX0X0X0X0XrX4XrX0XrXn.y.q.",
"0X0X0X0X0X0X0X0X0XrX0X0X4X4X4X4X0X4X4X8XqXrX5X3X4X9XtX6XrX&X%XrX@Xb.B.x.V.7X4X&X6XrX+X[.+XwX6X%X0X0X0X0X0X0X0X0XqX4XrXrXrXC.e.9.",
"qX0X0X0X0X0X0X4X4X0X0X0X4X4X4X4X0X4X4X8X4X5X|.5XrXqXrX6XtXqX&X6X5X&X$X:XrXrXrX4XvXtX4X}.Z.7XwX&X0X0X0X0X0X0X0X0X0X4XrX0X:XC.i.0.",
"tXqX:X8X0X0X0X%X*X2X:X0X0X0X0XrX9X0X0X0X9X0XrXtX0X:X4X7X<X*X4XtX0X4X%X4XtXaXtX6XrX=X0XkX>X$X8X;X4X&X0X4X4X0X0XqXrX0X4X$XrXlX:X6X"
};
