/* XPM */
static char *result[] = {
/* columns rows colors chars-per-pixel */
"64 62 256 2 ",
"   c #090506",
".  c #170909",
"X  c #161509",
"o  c #191716",
"O  c #0B1112",
"+  c #240C08",
"@  c #28160D",
"#  c #271918",
"$  c #371A17",
"%  c #32110A",
"&  c #162717",
"*  c #0D2D15",
"=  c #28261B",
"-  c #38271B",
";  c #333318",
":  c #171729",
">  c #13132B",
",  c #2C1A28",
"<  c #152F29",
"1  c #292523",
"2  c #382825",
"3  c #2B3A29",
"4  c #3B3423",
"5  c #3C342B",
"6  c #383926",
"7  c #3A2A33",
"8  c #373734",
"9  c #292E37",
"0  c #4A1715",
"q  c #711D14",
"w  c #45281B",
"e  c #49331C",
"r  c #56331B",
"t  c #5A2714",
"y  c #75291D",
"u  c #7B3A1B",
"i  c #68301A",
"p  c #4B1C27",
"a  c #4D0C24",
"s  c #651C24",
"d  c #472A28",
"f  c #562823",
"g  c #4B342B",
"h  c #4A3C2D",
"j  c #463827",
"k  c #533C2C",
"l  c #583928",
"z  c #453B33",
"x  c #4A3936",
"c  c #533C33",
"v  c #573A37",
"b  c #4C2832",
"n  c #772C2D",
"m  c #673726",
"M  c #673C36",
"N  c #703329",
"B  c #18502E",
"V  c #374725",
"C  c #2E4E33",
"Z  c #2A713D",
"A  c #176E33",
"S  c #4B432B",
"D  c #484526",
"F  c #55452B",
"G  c #465A2C",
"H  c #56542D",
"J  c #4C4334",
"K  c #464738",
"L  c #524434",
"P  c #5A4434",
"I  c #53433A",
"U  c #594A37",
"Y  c #455A39",
"T  c #5A5438",
"R  c #674A37",
"E  c #68573A",
"W  c #755C39",
"Q  c #6E4835",
"!  c #49653C",
"~  c #69643C",
"^  c #75623A",
"/  c #6F632D",
"(  c #1A1E4D",
")  c #313350",
"_  c #31346C",
"`  c #211D48",
"'  c #473655",
"]  c #4C3148",
"[  c #673B41",
"{  c #1E514B",
"}  c #375946",
"|  c #364E59",
" . c #1E7442",
".. c #396547",
"X. c #33744E",
"o. c #2F4A6F",
"O. c #3C7666",
"+. c #494945",
"@. c #544745",
"#. c #465747",
"$. c #454559",
"%. c #475958",
"&. c #575451",
"*. c #665943",
"=. c #745645",
"-. c #6D5150",
";. c #447955",
":. c #4C7151",
">. c #696345",
",. c #6A6A54",
"<. c #4D4E70",
"1. c #715B67",
"2. c #556970",
"3. c #6F6E70",
"4. c #90321A",
"5. c #963725",
"6. c #8C322B",
"7. c #A9382F",
"8. c #B43B1E",
"9. c #964730",
"0. c #AF4D31",
"q. c #9E5626",
"w. c #C8512D",
"e. c #D5643C",
"r. c #DC652C",
"t. c #EA6C36",
"y. c #C0461D",
"u. c #8D3B41",
"i. c #8D6F54",
"p. c #835967",
"a. c #927965",
"s. c #AE7A6F",
"d. c #9F604F",
"f. c #D16C4A",
"g. c #EA7249",
"h. c #D3796D",
"j. c #24843C",
"k. c #35975C",
"l. c #318B51",
"z. c #399A64",
"x. c #359164",
"c. c #35B76B",
"v. c #37AE73",
"b. c #3EAB5C",
"n. c #478E56",
"m. c #4B986A",
"M. c #46AA6A",
"N. c #47B769",
"B. c #48B675",
"V. c #52B373",
"C. c #71AD69",
"Z. c #3DC974",
"A. c #36E076",
"S. c #46C675",
"D. c #47D57B",
"F. c #4BC373",
"G. c #49E87B",
"H. c #4AC55D",
"J. c #9A8176",
"K. c #AC876D",
"L. c #A18D60",
"P. c #DB8547",
"I. c #C99074",
"U. c #DEAA7B",
"Y. c #282F89",
"T. c #2B4C9F",
"R. c #546690",
"E. c #73718C",
"W. c #5261A6",
"Q. c #4E6ACE",
"!. c #4057C7",
"~. c #395ACE",
"^. c #947AA3",
"/. c #D02BD4",
"(. c #B655CD",
"). c #A76FCF",
"_. c #C24DC2",
"`. c #3BA182",
"'. c #6DA492",
"]. c #7585B0",
"[. c #7DB5AC",
"{. c #619A85",
"}. c #3FDD83",
"|. c #3CF38E",
" X c #49D785",
".X c #53D387",
"XX c #71D394",
"oX c #48E587",
"OX c #54E788",
"+X c #4CFE84",
"@X c #44FE8C",
"#X c #4CFD8D",
"$X c #48F589",
"%X c #53FD86",
"&X c #55F48D",
"*X c #53FD8D",
"=X c #5AFB8D",
"-X c #59FA88",
";X c #58ED97",
":X c #4CF493",
">X c #46FF93",
",X c #4DFE93",
"<X c #4CFE9A",
"1X c #4AF89B",
"2X c #54F594",
"3X c #52FE94",
"4X c #5AFC94",
"5X c #54F69A",
"6X c #5BF59A",
"7X c #53FD9A",
"8X c #5AFB9B",
"9X c #5BF694",
"0X c #47EA97",
"qX c #64F899",
"wX c #6DEC99",
"eX c #75C8A9",
"rX c #71D5AD",
"tX c #4CFEA2",
"yX c #4BFCA8",
"uX c #54FDA3",
"iX c #5AF9A3",
"pX c #57EBA4",
"aX c #68EAA5",
"sX c #69F7A5",
"dX c #76F4A6",
"fX c #79E7A7",
"gX c #7297C6",
"hX c #AD958C",
"jX c #8D94B1",
"kX c #AE94B5",
"lX c #8CAEB1",
"zX c #A9B1B3",
"xX c #A4A392",
"cX c #D09A90",
"vX c #D1AA8E",
"bX c #EDB297",
"nX c #CFB0A5",
"mX c #D99E9F",
"MX c #83CF93",
"NX c #8CD1B0",
"BX c #84EAAF",
"VX c #A8CAB6",
"CX c #EDC39F",
"ZX c #F8C6A6",
"AX c #F0CEB6",
"SX c #8D90C6",
"DX c #B0AFCB",
"FX c #91AEEA",
"GX c #AB95C3",
"HX c #BCC5DC",
"JX c #BACDEB",
"KX c #D2CED2",
"LX c #F9D8C7",
"PX c #FDE4CD",
"IX c #E9EDEE",
"UX c #D4DAE4",
/* pixels */
"yXtX>X,X#X*X+XG.>X<X<X7X4X*X3X<X3X3X*X4X3X*X:X7X9X*X#X3X7X5X7X7X,X*X+X:X7X*XXX_./.SXpX<X7XiX,X#X,X#X3X3X3X,X3X3X3X3X<X3X3X3X3X3X",
"<X<X,X,X3X3X4X*X7X<X,X,X#X3X5X7X2X3X3X3X3X2X2X2X2X4X4X4X2X4X4X3X2XrXrX6X2X-XwX).(.[.1X1X8X4X3X,X,X3X,X3X3X3X3X3X3X3X3X3X3X3X3X3X",
",X,X3X3X4X8X8X4XiX8X3X+X#X3X8XiX8X5X:X>X<X7X4X3XqXqXdX4X7X2X*X@XrX).(.eX*XG.9XMX[.aXuX3X4X-X%X,X3X3X3X3X*X3X3X3X3X3X3X3X3X3X3X3X",
",X*X3X2X5X5X5X5XiX8X%X+X#X,X4X7X7X7X7X,X<X3X7X3X&XXX'..X X XD. X'.(.(.eX#X+X*X6X1X<X>X3X-X-X*X7X3X3X3X3X3X<X3X7X3X3X3X3X3X3X3X3X",
"3X3X2X2X7X7X,X:X3X3X3X*X*X*X,X3X,X,X3X3X3X<X>X1XF.:.#.....#.%.#.:.'.NXaX*X+X3XuXtX1X>X%X-X*X*X3X5X4X7X3X,X3X3X3X3X3X3X3X3X3X3X3X",
"*X4X6X6X<X,X,X#X#X,X4X8X4X3X3X3X,X,X3X3X:X<XtXuXM.V # 1 j d p p +.M.D.4X7X3X$XoX.X X X$X*X<X:X4X3X7X4X3X3X3X3X3X3X3X,X3X3X<X3X3X",
"%X3X9X8X3X,X#X#X,X3X7X8X=X-X2XiX5X3X,X#X,X3X8XiXz.= @ h R Q Q M @.Y n.D.7X*XG.b.....;.F.&X7X7X3X<X<X<X3X3X3X3X3X3X3X3X3X3X3X3X3X",
"+X*X8X8X3X,X#X3X7X7X7X*X-X-X;XpX6X6X,X#X,X4X6XOXm.& # L Q ^ ~ W T f C M.OXOXF.! - $ j M.2XuX1X,X,X,X,X3X3X3X3X3X3X3X3X3X3X3X3X3X",
"7XtXiX8X#X+X3X<XuX<X>X6X3X2XlX).lXpX<XiX4X*X.X:.8 1 o # 5 J E ~ *.U U #.;.X.#.U m p x m.9X<X4X@X9X<X,X3X7X3X,X,X3X3X3X3X3X3X3X3X",
"<X<X7X4X:X3X5X7X8X5X7X%X+XOX^.(.SXpX+XG.OXOXm.C 2 = @ X X 4 J U >.^ E x , 1 k R R b ] n.OXOX X&X3X3X#X3X8X3X3X4X3X3X3X3X3X3X3X3X",
",X@X3X4X,X7X8X8XtX<X7X%X#X5X[.lXeXuXZ.Z X.X.+.4 w j 4 = o # - e F W E d $ x P R L b b C Z Z  .c.#X3X*X4X4X<X<X*X3X3X3X3X3X3X3X3X",
",X#X+X%X,X3X4X=X3X3X5X5X8XuX5X:X&XA.l.o o 7 d e l F H G 8 : . $ r R E d - H ~ G j 7 7 2 @ X *  .D.:X,X,X,X<X3X3X3X3X,X3X3X<X3X3X",
"<X*X%X%X#X4X3X=X-X+X+X4X8X5X7X,Xc.X.C 1 = 2 g e F H T T I d 2 2 e H H g e F H 6 6 5 d f p a d 3 A c.:X<X3X3X3X,X3X3X3X3X3X3X3X3X",
"7X3X*X#X#X*X3X-X;X:X:X3X:X#X2XOXl.& o z k l F F H H ~ ~ R R h c V D l M v I J 5 4 g v v v v b - * l.OX7X7X4X<X#X3X3X3X3X3X3X3X3X",
"3X8X7X<X#X4X2X&XlXjXeX7X:X%XH.n.V = = J I k F R *.E ~ ^ W Q U U J S h v I L L @.k F P h 7 2 2 C l.B.5X3X*X3X3X3X3X3X3X3X3X3X3X3X",
",X8X7X<X2X2X5X;X)./.jX#X8X=Xl.3 ; D D k c c R 1.=.,.>.W W ^ E I ] U S h U E / W =.S D 4 2 + X  . X:X,X,X,X3X7X3X3X3X3X,X3X3X3X3X",
"<X5X3XaXjXSXeXpXlXjX[.pX7X6XZ.n.G ; w j 8 x v *.-.>.>./ / ~ W R T T T H H / W E U h g l u q t Y m. X=X%X#X<XiX,X3X4X3X3X<X8XaXBX",
"#X3X*XeX).(.lX9X6XOXpX7X<X<X&XD.:.; $ w j z v l T E >.~ ~ / W E E =.W ~ E W E E c d f u 5.0.0.6.6 l.OX4X3X2X4X+X3X3X4X*X&XwXBXHX",
"*X3X*XrXSXSXeX4X-X+X,X1X<X<XS.k.! z w w j h P c F Q E *.E =.=.^ ^ W W W E R U L P f n 5.q.K.I.d.n T n.Z.,X=X=X#X3X3X*X*X*XqXfXNX",
"*X2X,X>XpX0X>X@X6X3XuXiXtXoXl.& = L c x L h J J P l P L T *.=.~ W W Q H U I I z P 7.q.q.^ zXLXmX0.n h l. X=X4X<X>X,X3X3X3X<X7X5X",
"3X3X<X>X5X>X|.+X9X4X8X;XZ.l.B # - c I J x 5 h k M k h h J T T E =.R R P c x K 5 x 9.0.u R zXIXbXe.8.9.E m.S.;X8X>X>X<XuX7X3X,X&X",
"3X,X<X4X9X2X#X%X%X=X7X0Xl.* = f j h z c 8 4 d m l k k h z K I U v U @.v S K 8 5 2 6.9.i M hXLXbXg.t.e.9.K l.OX4X#X,X<XtXtX<X3X&X",
"#X#X#X4X*X,X,X2X2X7XtX:XX.X # F L S h j 4 ; j l h c c z 5 V J S h J I c k S z 7 $ 6.0.u.1.hXvXvXg.g.g.6.1 Z  X3X*X<X<X<X<X<X<X7X",
"7X:X4X6XuXtX7X=X&X3X3XOXX.1 d v [ L j - e D V V S v v d 7 z S D S J +.x h F j d p 4.w.hXkXhXf.e.g.g.f.n @ A G.,X*X3X3X3X4XuXuXuX",
"uX7X*X*X4X8X7X,X<XG.D.k.} e d x g g b d j V D D l g d d g g L l l H D v v j e i n 4.w.h.mXs.0.e.t.t.e.i X B OX4X4X4X4X3X:X7X7XiX",
"iX7X%X#X4X5X7X,X4XG.j.< ; 4 4 - w - d h D V D Q x d 2 e S I v k r h D P v j f 6.y.y.y.f.h.f.t.t.r.r.0.t + +.MXBXqX4X=X*X3X3X4X8X",
"8X3X#X,X3X7X3X*X<XA.A . % 7 C Y z $ d c L L k k b b d 6 S x x S l S S j - = w 5.w.w.w.f.g.g.g.t.r.y.4.e C m.XXdX4X4X3X=X*X*X3X4X",
"7X3X$X#X:X3X3X*X3XA.Z   + x ;..X;.2 p v k P h - d x v K 8 7 j j F L j @ X # w 6.w.w.f.g.g.P.P.f.0.q 0 C N.OX&X4X7X3X4X*X*X*X*X*X",
",X,X3X2X2X3X#X#X4X0Xk.B C %.V.<XV.:.x x g F 4 1 2 d h 5 7 5 j J K J 5 O O $ q 4.0.7.w.0.q.q.q.9.4.d B z.;X<X,X6X<X<X3X3X3X#X,X#X",
">X,X*X4X4X3X3X3X1XuX}.B.V.D.oX,XOXF.X.2 d S j 2 # - @ + , g v v K L z : O 0 6.6.6.n N f r e $ % % ..c.oXuXuX<X,X<X<X7X3X,X,X,X,X",
"3X3X2X3X3X3X3X6XrXNXrX5X4X<X#X*X=X2Xc.} V z g l r 0 %   o g v v j 5 1 # p [ d.u.M [ E R T 2 O & B z.|.,X7XiXuX3X#X3X7X7X<X,X#X,X",
"4X8X3X<X,X3X9XqXzXkXNXiX<X,X=X7X*X+XOX.XO.x n 6.5.4.0 . O 2 P S e = @ 0 n cXnX[ d =.vXvXhX-.1 } c. X#X*X4XqXdXaX+X*X4X7X<X<X,X#X",
"3X4X4X,X<X<X4X;XGXkXNXyX7X*X#X+X,X,X,X2Xm.7 s 5.9.5.q % # - 6 D ; X + i d.AXKX%.o J.AXPXCXa.D n.3X2X4X3X4XqXwXsX#X*X3X3X3X3X,X,X",
"3X3X3X3X,X<X5X9XNXMXXX3X*X*X3X4X#X3X3X4XM.7 a s y u 4.y 0 + & 6 4 X % Q I.PXKX<.o J.AXLXCXa.G M.2X2X3X3X3X9X8XsX*X*X4X3X7X<X3X,X",
"3X3X3X3X3X<X3X4X3X#X#X*X*X,X4X<X*X8X3X%XN.} d w t i u 6.s +   ; ; 2 j i.vXLXKXp.J K.ZXAXAXJ.~ V.5X2X3X3X3X3X3X7X3X*X3X3X3X3X3X,X",
",X3X3X3X3X3X<X4X,X,X,X*X3X<X3X3X5XuX<X,XoXc.;.- 0 r m M f +     2 -.s.I.U.AXLXnXxXCXZXAXAXvXL.L.2X7X3X<X#X,X3X,X3X3X3X3X3X3X,X*X",
",X3X3X3X3X3X,X#X<X7X7X<X7X4X3X3X4XuXuX7XuXiXV.G D Y Y x p # . . 7 p.s.I.I.vXAXAXAXCXZXCXCXvXI.MX3X7X,X,X*X3X3X*X3X3X3X3X3X3X3X3X",
"3X3X3X3X3X3X3X,X,X4X3X,X3X4X,X,X*X4X6XuXsXdXXXV.N.F.x.1 + 2 7 , $ v d.i.L.I.CXZXAXZXbXK.C.L.XXwX:X3X3X<X3X3X4X*X4X3X3X3X3X3X3X3X",
"3X3X<X3X3X3X3X3X#X=X*X3X*X,X,X,X*X&X4X7XsXBXdX8X<XuXv.B = 5 g - $ , d F / d.I.vXnXcXK.>.Y b.&X8X4X#X3X3X3X3X3X3X<X3X3X3X3X<X3X3X",
"3X3X,X,X<X3X7X4X7X<X7X3X<X<X4X8X<X#X#X<XsXdXqX7X,X7X}.c.;.K - .   , 1 = e m p.=.-.=.Q ,.V.G.@X8X3X3X3X:X3X4X<X,X3X3X3X3X3X3X7X3X",
"3X3X3X3X3X3X3X3X,X3X3X3X3X3X3X3X<X,X,X<X3X4X3X<X6X&X8XsXB.C $ 1 9 ) ) > . , b 7 3 5 Y M.:X<X#X#X*X3X,X3X3X3X3X3X3X3X3X3X3X3X3X3X",
"3X3X3X3X3X3X3X3X3X3X3X3X3X3X,X3X<X#X,X<X<X3XwXfXwX4XqXBX'.8 2 3.xXzXjX) > : 8 X.k.z.M..X3X#X*X*X3X3X3X3X3X3X3X3X3X3X,X3X3X3X3X3X",
"3X3X3X3X3X3X,X3X3X3X3X3X3X3X3X3X,X#X3X7X<X3XwXBXrXwXXXNX{.7 +.zXIXIXHXE.] , C M.2X7X1X7X4X+X@X#X3X3X4X3X3X,X3X3X3X3X3X3X3X3X3X3X",
"3X3X3X3X3X3X3X3X3X3X3X3X3X3X3X3X3X#X,X<X<X3XqXdX.Xx.O.%.&.&.3.SXFXFXFXGX^.) < c.7X7X<X3X3X#X,X,X7X7X7X3X3X3X3X3X3X3X3X3X,X3X3X3X",
"3X3X3X3X3X3X3X3X3X3X3X3X3X3X3X3X4X,X,X5X2X*X2X;Xm.%.) > ) 3.^.W.~.~.Q.UXKX-.* k.0X:X<X,X&X9X9X8XuX7X7X3X3X3X3X3X3X3X3X3X3X3X3X3X",
"3X3X3X3X3X3X3X3X3X3X3X3X3X3X3X3X6X3X3X8X4X3X Xm.m.jX^.2.2.R.R.Y.Y.Y.W.UXIXkX2.2.`. X7X7X4XqX8X7X7X7X3X3X3X3X3X3X3X3X3X3X3X3X3X3X",
"3X<X3X3X3X3X3X3X<X3X3X3X3X3X3X,X3X*X4X8XuX1Xv.| E.KXUXHXjX$.) _ ( _ <.DXUXKXjXR.{ v.0X7X3X4X7X<X<X3X<X3X,X3X3X3X3X3X<X3X3X3X3X3X",
"3X3X3X3X3X3X3X,X3X3X3X3X3X3X3X3X,X*X4X5XuX|.v._ E.IXIXUXjX$.) &.&.) _ E.lXKXDXR.| `.yXuX=XqX4X<X<X<X,X,X,X3X3X3X3X3X3X3X3X3X3X3X",
"3X3X3X3X3X3X3X3X3X3X3X3X3X3X3X3X4X#X@X,X<X5Xv.) E.HXIXUXjX$.[ s.s.$._ o.R.GXzX<.) v.7XqXdXqX:X,X#X,X3X3X7X4X<X,X3X3X3X3X3X,X3X3X",
"3X3X3X3X3X3X3X3X3X3X3X3X3X3X3X3X4X3X#X<X<X:Xv.< o.SXFXSXW.' -.K.I.a.2.<.o.W.R.' 9 z.8XqXqX4X*X,X*X,X3X3X3X3X3X3X3X3X3X3X3X3X3X3X",
"3X3X3X3X<X3X3X3X3X3X3X,X3X<X3X3X<X7X#X<X3X2Xx.& ( !.Q.Q.W.] i.K.vXCXnX1.+.o.o.> < k.8X7X8X4X=X4X,X<X3X3X3X3X3X3X3X3X3X3X3X3X3X3X",
"3X3X3X3X3X3X3X3X3X3X3X3X3X3X3X3X4X4X3X,X7X5Xk.O : R.Q.~.T.7 F K.bXLXCX=.8 o.o.o O k.&X<X7XqXwXaX3X3X3X3X3X3X3X*X3X3X3X3X3X3X3X3X",
"3X,X3X3X3X3X3X3X3X3X3X3X3X3X3X3X=XqX3X@X>X1Xk.* 3 E.Q.Q.T.& V K.AXAXvXS # 3.E.| * l.$X@XiXfXNXBX3X3X<X3X3X3X3X3X3X3X3X3X3X3X3X,X",
"3X3X3X3X3X3X3X3X3X3X3X3X3X3X3X3X*X4X#X|.>X<XZ.Z Z &.<._ ) { &.3.J.J.a.#.x 1.1.| X.Z.@X@X7XaXBXfX3X7X7X3X3X3X3X3X3X<X3X3X3X3X3X3X",
"3X3X3X3X,X3X3X3X3X3X3X3X3X3X3X3X3X3X#X@X#X7X:XD.k.< > > 9 3.3.8 , o 6 ,.3.@.} m..X$X,X>XtX1X8X8X7X3X3X3X3X3X3X3X3X3X3X3X3X3X3X3X",
"3X3X3X3X3X3X3X3X3X3X,X3X3X3X3X3X<X7X:X*X*X4X,X+XF.X.{ B C :.| , O > : | 2.;.z..XiX=XqX8XuX>X#X%X7X4X3X3X,X3X3X3X3X3X3X3X3X3X3X3X",
"3X3X3X3X3X3X3X,X3X3X3X3X3X3X3X3X3X3X3X7X4X2X*X#XG.D.}.}.b.3 : : ` ( ( : 3 z.oX$X*X8X4X=X=X<X<X3X3X3X*X3X3X3X3X3X3X3X3X3X3X3X3X3X",
"3X<X3X3X3X3X3X3X3X3X3X3X3X3X3X<X,X,X<X4X7X4X*X#X3X6X5X7XM.&   , ] ' b a ; X.c.|.4X<X4X=X4XaXrXiX,X3X3X3X3X3X,X<X3X3X3X,X3X3X3X3X",
"3X3X3X3X3X3X3X3X,X3X3X3X3X3X3X3X,X,X#X<X<X3X<X#X7XiX8X3Xc.< . s 6.7.7.7.N ; B c.<X|.,X=XqXVXVXNX3X3X,X3X3X3X3X3X3X3X3X3X3X3X3X3X",
"3X3X3X3X3X3X3X3X3X3X3X3X3X3X3X3X<X#X,X:X7X3X<X<X7X8X4X$XZ.X.8 s s 6.6.6.N V  .`.<X|.,X9XwXNXzXNX:X3X3X3X3X3X3X3X3X3X3X3X,X3X3X3X",
"3X3X3X3X3X3X3X3X3X3X3X3X3X3X3X3X3X3X3X3X5X7X7X<X<X,X#X>X:XD.n.5 + @ % + ; l.Z.|.6X3X4XqXdXfXfX6X3X<X3X3X3X3X3X3X3X3X3X3X3X3X3X3X",
"3X3X3X3X3X3X3X3X3X3X,X3X3X3X3X3X7X4X4X4X8X7X7X<X|.@X$X<X7X=XF.B         < c.>X#X7X4X8XsXdXqX@X+X7X3X3X3X<X3X3X3X3X3X3X3X3X3X3X3X"
};
