/* XPM */
static char *nate_r11650476114[] = {
/* columns rows colors chars-per-pixel */
"64 64 256 2 ",
"   c #070706",
".  c #1A0906",
"X  c #171709",
"o  c #150813",
"O  c #171616",
"+  c #071312",
"@  c #33180B",
"#  c #261818",
"$  c #361C19",
"%  c #2A0F0B",
"&  c #182718",
"*  c #0E2E15",
"=  c #272718",
"-  c #37271B",
";  c #38381A",
":  c #262F18",
">  c #1B1A26",
",  c #10122E",
"<  c #271A24",
"1  c #341A2D",
"2  c #17302C",
"3  c #2D2C24",
"4  c #372825",
"5  c #2D3A2A",
"6  c #383727",
"7  c #3B2835",
"8  c #3C3933",
"9  c #2B2C34",
"0  c #4D1816",
"q  c #46261A",
"w  c #473219",
"e  c #55351A",
"r  c #512611",
"t  c #6A2718",
"y  c #772B19",
"u  c #71381A",
"i  c #551A27",
"p  c #491C28",
"a  c #442C24",
"s  c #492828",
"d  c #542928",
"f  c #4B332C",
"g  c #4B3B2B",
"h  c #473726",
"j  c #553A29",
"k  c #462A34",
"l  c #483835",
"z  c #533C33",
"x  c #573A37",
"c  c #532E37",
"v  c #632828",
"b  c #663628",
"n  c #663837",
"m  c #73312C",
"M  c #651D1A",
"N  c #184F31",
"B  c #385939",
"V  c #314B2E",
"C  c #166934",
"Z  c #2D6D38",
"A  c #344608",
"S  c #4E461D",
"D  c #484527",
"F  c #574629",
"G  c #494535",
"H  c #534233",
"J  c #54433A",
"K  c #584839",
"L  c #5C5436",
"P  c #4E582F",
"I  c #634A38",
"U  c #69583A",
"Y  c #755D3B",
"T  c #755A38",
"R  c #6C4931",
"E  c #456935",
"W  c #696338",
"Q  c #756238",
"!  c #1E244F",
"~  c #30344F",
"^  c #323969",
"/  c #1B1F45",
"(  c #48374B",
")  c #673D43",
"_  c #443A6B",
"`  c #36564B",
"'  c #39674A",
"]  c #377754",
"[  c #2E744C",
"{  c #364A71",
"}  c #266C56",
"|  c #4A4943",
" . c #574545",
".. c #425749",
"X. c #505354",
"o. c #684D44",
"O. c #665843",
"+. c #755A43",
"@. c #715052",
"#. c #496E4F",
"$. c #696345",
"%. c #6A6B50",
"&. c #4B546D",
"*. c #6B5A67",
"=. c #536A6E",
"-. c #717776",
";. c #696E70",
":. c #892E19",
">. c #AC381D",
",. c #8A3728",
"<. c #91342C",
"1. c #A4383C",
"2. c #924A2D",
"3. c #AE4A30",
"4. c #9B5727",
"5. c #CB522D",
"6. c #D56936",
"7. c #EC6D37",
"8. c #993944",
"9. c #84524B",
"0. c #8B6E50",
"q. c #A96C4F",
"w. c #845A67",
"e. c #927869",
"r. c #AC796D",
"t. c #AF5A52",
"y. c #D36A4A",
"u. c #ED734D",
"i. c #CD7A6C",
"p. c #DE5741",
"a. c #4D8C3D",
"s. c #389758",
"d. c #30884F",
"f. c #369A64",
"g. c #2C9564",
"h. c #34A668",
"j. c #36B567",
"k. c #36A578",
"l. c #32B16F",
"z. c #4A8A58",
"x. c #459866",
"c. c #4D976D",
"v. c #45B76A",
"b. c #4FB16E",
"n. c #619E59",
"m. c #39CB72",
"M. c #35DB6E",
"N. c #48C976",
"B. c #4CD074",
"V. c #45FB7E",
"C. c #50F07A",
"Z. c #998772",
"A. c #AC8C6F",
"S. c #90A067",
"D. c #DC8645",
"F. c #C48E74",
"G. c #CEA77E",
"H. c #1F2B88",
"J. c #334EA4",
"K. c #50528E",
"L. c #546B90",
"P. c #72728B",
"I. c #5A64A6",
"U. c #3255CA",
"Y. c #4E65D6",
"T. c #B26A9E",
"R. c #B355CF",
"E. c #AD6DCC",
"W. c #9677D5",
"Q. c #C142D7",
"!. c #DF27E1",
"~. c #37B283",
"^. c #77B2B0",
"/. c #63A68D",
"(. c #3EFD8C",
"). c #3DFE96",
"_. c #3DE585",
"`. c #3CEDA9",
"'. c #49CE86",
"]. c #48D687",
"[. c #50D48A",
"{. c #6ED291",
"}. c #49E687",
"|. c #57EB89",
" X c #4DFD85",
".X c #4DF58C",
"XX c #44FE8C",
"oX c #4CFD8D",
"OX c #46F886",
"+X c #52FD84",
"@X c #53F48C",
"#X c #53FD8D",
"$X c #5AFB8D",
"%X c #5BF887",
"&X c #4BE996",
"*X c #58E997",
"=X c #4DF492",
"-X c #45FE93",
";X c #4DFE94",
":X c #45FD9B",
">X c #4CFD9A",
",X c #48F59A",
"<X c #53F594",
"1X c #5BF594",
"2X c #52FE94",
"3X c #5AFC94",
"4X c #54F59A",
"5X c #5CF59B",
"6X c #53FD9A",
"7X c #5AFB9B",
"8X c #61F88D",
"9X c #67EB9B",
"0X c #63F595",
"qX c #62FC9B",
"wX c #65F799",
"eX c #77EB9B",
"rX c #71CEAB",
"tX c #4AFDA3",
"yX c #54FDA2",
"uX c #5BFDA3",
"iX c #57F8A7",
"pX c #53EBA8",
"aX c #69E8A5",
"sX c #77EAA7",
"dX c #67F8A3",
"fX c #74F4AC",
"gX c #5981C9",
"hX c #B09391",
"jX c #B4AB8A",
"kX c #908DAC",
"lX c #8DAEB2",
"zX c #ABB0B1",
"xX c #A193AB",
"cX c #D19589",
"vX c #D8A588",
"bX c #CDB08E",
"nX c #EDAF96",
"mX c #F0BCAA",
"MX c #CEA1AA",
"NX c #8CD4AD",
"BX c #85EBAF",
"VX c #96CCA5",
"CX c #F0CCB3",
"ZX c #E8CAAC",
"AX c #8B94C5",
"SX c #AFAFC7",
"DX c #93B0EB",
"FX c #A99AC8",
"GX c #BACBD7",
"HX c #A5CDD7",
"JX c #D6CDD2",
"KX c #F7D8C9",
"LX c #FBE5CC",
"PX c #D0DBE8",
"IX c #EDF5F0",
"UX c #E2E6E6",
/* pixels */
"wX5X@X@X<X4X4X=X.X<X4X<X@X@X@X&X@X@X.X.X@X<X=X<X3X=X.X<X4X=X4X>X.X@X|.@X5X*XoX|.@X.X#X4X1X.XoX*X4X<X=X=X@X=X=X=X;X<X<X<X<X<X<X1X",
"tXtX>X;XoX2XoX+X;X;X>X;X2X2X2X4X2X3X2X3X#X;X2X<X X#X#X#X3X7X<X<X<XoXXXtX>X#XrXT.!.AXpX).4X3X;X).2X7X2X<X2X2X<X6X2X<X2X6X2X3X2X<X",
"tX:X>X;X2X#X+X%XyX2X;XoX;X;X6X6X6X2X6X3X3X<X2X4X%X8X3X$X3X7X2X<X4XrXrXpX$XC.rXE.R.kX4X2X3XqX3X%XoX2X2X2X;X2X2X2X;X2X;X2X2X2X2X2X",
"-X#X2X<X1X3X3X1XiX7X#X+X#X4X6X7X6X;X=X;X;X6X6X>XdXfXdX5X2X2XXX).{.E.E.rX%XV.4XNXrXaX7X>X6X2X#X X2X;X2XoX2X2X;X2X2X;X2X;X;X;X2X2X",
"#X#X<X1X7X7XiX4XuX3X#X+XoX2X7X3X6X6X;X;X6X6X6X6X*X{.{.'.'.N.].'./.R.R.^.+X+X+X%X4XtX).XX+X%X3X6X<X6X2X2X2X2X2X6X2X2X2X2X2X2X2X2X",
"2X<X7X4X>X-X;X;XyX;X#X#X#X;X>X;X;X2X2X6X>X>X>X>XN.#.' ' ` ' ' X.#./.lXaX2X%XoXtX:X>X-X+XC.#X;X2X6X6X6X2X6X2X2X2X2X2X2X2X2X2X2X2X",
"#X2X5X7X>X-XXXXX;X;X2X2X#X2X2X;X;X;X2X2X;X;X>X>Xv.; $ - s d p i | b.|.,X:X+X X&X[.[.].C.3X3X2X+X6X6X6X2X2X2X2X2X2X2X;X2X2X2X2X2X",
" X$X1X5X2XoX;X2X#X2XuXqX8X$X3X4X2X2X;XoX;X6X6X>Xf.= # l I R I m  .E a.B.6X8XB.h.[ ..#.B.#XtXyX4X2X;X2X2X2XoX;X2X2X2X6X2X2X2X2X2X",
"+X-XuXqX#XV.2X>X XiXiX$X#X%X0X*XaX;X<X4X>X6X<X{.z.& # K Y T W Y o.w B b.&X&Xb.E r $ l c.oX>X4XoX-X-X;X;X;X>X2X3X2X2X2X2X2X2X2X2X",
"#X>XuX5XoXoX3X>XuXtX-X0X#X1XlXW.^.pXoX3X#X+X'.z.V # X # 6 H U W $.F F #.] ] #.I w a l c.6XyX6X;X0X2XoX;X3X6X;X2X2X2X2X2X;X2X2X2X",
">X>X7X7X;X;X3X6XuX;X-X$X+X4XT.R.AXaXV.C.@XB.n.8 1 4 # X X 3 G U $.+.R c 4 < h n I c l z.].}.].C.0X<X;X3XqX6XoX-X2X2X2X2X2X2X2X2X",
">XoX2X2X;X4X6X$X>X4XtX<X+X,XrXkXrXuXj.Z ] ] B 8 s f - = 3 > # w F Y O.s - h F R K c 4 G Z Z [ m.>X-X;X2X2X;X;X3X2X2X2X2X2X2X2X2X",
">X X+X#X#X2X2X$X2X3X,X>X3XyXiX|.&X_.d.O O 9 f e j F S P 8 < . $ e R U h - P W P g 4 4 4 # . & Z ].<X2XoX;X;X2X3X2X2X2X2X2X2X2X2X",
";X#X+X X#X2X2X8X$XV.OX6XwX<XyX-Xm.[ V = < k a w S L P L K 4 $ s h F F j f H F V 4 8 l s i 0 $ N C j.=X7X7X2X;XoX2X2X2X2X2X2X2X2X",
"2X3X#X X#X2X2X1X5X|.@X$X@XOXoX}.d.O O g x g S D P L W U U n z z V D j j x J l 8 ; h x c x n d & * g.}.7X7X2X2X;X2X2X2X2X2X2X;X2X",
"6X5X6X-X@X@X;X*XlXkXrX>X:X.Xb.z.V 3 : G x g R o.U $.$.+.T R K G l H j j J H G  .H j n g 9 4 p 8 d.b.5X6X>X-X;X3X;X2X2X2X2X2X2X2X",
").5X<XXX;X3X4XaXE.Q.kXXX-X9Xs.A ; w D S g z K @.%.%.$.W T T U P G H g D S T T U +.S D 8 : % X } B.-X-X@XoX;XyX>XoX2X2X6X-X-X>X2X",
">X7X4XaXAXAXrX4X^.kXlX>XiX5XN.s.E ; - a g l J o.O.$.$.Q Q Q +.I O.I I L L Q T W K f j d u y e P x.'.3X#X;X7X3X#X2X3X3X2X2XwXsXBX",
".X2X2XrXR.R.lX|.3X*XiXtX-X>X}.].E V @ p f l H x o.O.W W T T Y +.$.U Y W W T U I G k d ,.3.3.3.u V z.[.2X6X<X$X X3X3X#X#X8X9XNXHX",
"+X;X2XrXAXkXrX1XC. X1X4X:XoXN.s...D w a h l H z F L L O.U Y +.T Y Y Q U U I L G j v b 2.4.i.F.t.n L z.m.;X2X#XoX3X2X2XoX2X3XsXNX",
"#X<X;X;XpX&X,X:X0XoX7XfX>XV.d.& 4 l J l g H H z b F K K K O.O.Y Y T I I K H G l n 1.2.u Q zXKXvX3.y w d.].2X3X4XoX;X<X:X;X>X7X9X",
"3X;X-X;XtX-X(.OXyX;XyXpXm.d.V # q z J G l h h F n j j h G L O.L T I I I z l l 8 c 3.3.u o.zXIXnXp.>.2.$.c.N.1XiX(.-X6XyX6X>X;X#X",
"2X>X;X$X5X<X%X%X<X$X>X&X[ * = a h j z l 8 4 ; e x x j 6 h G J K I K J x z G l 6 3 2.3.u ) hXKXnXu.u.p.2.G d.C.dXXX;X>X6X>X>X2X@X",
"#X-XoX#X4X-XoX;X<X@XtX`.[ X $ H G h f g ; 6 f j g H z l 6 G D H x G H z j H V 4 - :.3.9.w.hXnXvXu.u.7.,.p ' M.;X2X;X6X>X:X:X>X4X",
"yX6X#X<X7XuX6X$XoX$XtX[.E 3 7 J  .x j q ; D V V F z l k k l V S z G J z e F G - p :.5.T.xXhXq.6.6.u.y.u + C }.2X#X2X3X2X;X>XyXuX",
"yX<X#X2X6XyX6X#XXX|.B.h.E w d s f f l a ; S S D x g f w h l j j j D G ( x D w v y >.5.i.cXi.3.6.7.u.y.t X B {.8X3X3X$X<X2X6XuXuX",
"yX2X#X2X2X6X2X#X3XV.Z 5 : 6 6 ; q a a h D S j n f k 4 w g x n j e S S l x 6 r <.>.5.3.y.i.y.6.7.7.7.3.r . B {.fX3X3X3X$X3X2X7X7X",
"6X2X#X.X<X;X2X#XoXM.C   # w B ' 8 $ p z H G j j s k k w D l z g j F F e - = d ,.5.5.5.6.u.u.u.7.5.>.:.e B x.{.fX3X3X3X$X#X#X3X3X",
"6X2X#X.X;X2X;XoX-X_.Z   o f z./.#.6 p x x K g : s c x G 8 8 k V J H f = X # d :.5.5.7.u.u.D.D.5.3.:.0 B v.}.8X0X6X2X3X2X#X#X#X#X",
"2XoXoX;X#X<X2X2X7X&Xs.N V #.v.iXb.#.k k j x g & - k l 9 9 k f g G H 4 + + % t :.1.3.3.t.4.4.0.2.:.w N g.&X;X;X<X6X2X2X2X;X;X;XoX",
";X;X;X<X2X2X3X<XyXpX&Xv.b.'.}.=X%Xb.] V w g h a - r % X > f n x l G 8 O o p :.<.8.m t e e w @ @ @ Z l.=XuXiXtX;X;X;X6X2X6X;XoX;X",
"2X;X2X6X3X3X2X7XaXrXaX2X>X>X$XoX@X3Xv.B 8 G w d s r %   O a I l g 6 3 % 0 @.t.1.v o.I I F 4   * 2 f.(.;XiXiXyX$X-X6X6X6X;X-X;X-X",
"3X3X3X;X>X>X5X0XFXxXVXyX2X2X;X4X#XoX}.'.#.k m <.:.<.0 . O 4 G F h $ . 0 R cXMXX.$ 9.bXbXhXY - ' m.B.2X2X$XwXdXfX#XoX2X6X2X;X;X;X",
"2X2X<X;X-X;X<X1XFXMXlXiX;X%XXXoX#X;X;X<Xc.7 v <.3.<.M % # 3 w F ; X % r q.CXJXX.> Z.CXLXCXe.h d.}.<X2X#X@XwXdXaX#X#X2X2X6X;X;XoX",
"2X2X3X2X;X>X<X1XrXlX9X6X#X$X$X$XXXoX<X3Xv.7 0 v :.:.,.y 0 # X ; ; . X +.cXLXJXX.# Z.CXLXmX0.P b.5X7X6X#X#X3XdX5X#X2X2X2X6X;X;X;X",
"2X2X2X2X2X2X>X3X+XOX X#X#X-X6X6X;X3X3X@Xj.` 7 q M e u <.M . + : ; - z q.vXKXJX-.K A.CXCXJXA.T n.<X6X6X;X2X2X2X6X2X#X2X2X2X2X2XoX",
";X;X2X2X2X6X2X2X0X:X>X3X-X>X6X2X7XuX>XXX_.v.#.h r e S b d o     ; @.q.F.G.CXKXjXG.bXCXCXCXvXF.S.7X4X;X;XoXoX2X6X2X2X;X2X2X2X2X;X",
"2X2X2X2X2X2X2X2X-X7X4X>X3X3X#X#X4X7X4X-X6XdXb.B D B P j p < o . k w.T.F.F.nXKXKXZXmXmXCXbXbXbXB.4X;X;X;X2X2X2X;X2X2X2X2X2X2X2X2X",
"2X2X2X2X2X2X2X;XXX$X3X#X3X3X-X(.2X7XdX5XdXBX{.v.v.v.] 9 # $ 4 $ $ n 9.0.A.F.nXCXLXmXvXr.Z.S.VX8X;X;X;X2X3X3X2X#X2X2X2X#X2X2X2X2X",
"2X2X2X;X2X2X2X2X3X2X;X;X;X>X4X4X X=X6X6XdXBXsX3X;XtX~.N & h f $ $ $ r S Q q.F.G.vXvXA.+.E v.|.6X2X2X2X2X2X3X3X2X2X2X2X2X2X2X2X2X",
"2X2X2X2X2X2X2X2X2X;X2X2X2X2X2X2X6XoX X6XwXeXwX7X5X2XM.l.d.G 0 % + > > 3 q n 9.@.@.+. .%.b._.;X7X#X#X;X2X;X2X;X;X2X2X2X2X2X2X2X2X",
"2X2X2X2X2X2X2X2X;X2X2X2X2X2X2X2X>X#XoX:X:X6X6XyX4X#X7XdX/.| @ = > ^ ~ > o # k 9 5 6 B b.*X;XoXXX#X2X2X2X6X;X2X;X2X2X2X2X2X2X2X2X",
"2X2X2X2X2X2X2X2X;X2X2X2X2X2X2X2X-X#XoX:X-X1XwXsXwX$XqXBX/.6 4 -.xXSXkX( , > 5 ' h.x.x.].2XoX#X#X2X2X2X6X2X2X;X#X2X2X2X2X2X2X2X2X",
"2X2X2X2X2X2X2X2X2X2X2X2X2X2X2X2X-X2X2XyX4X8XBXBXeX9X9XlXc.8 ` FXUXIXSXP.( / V v.<X6X2X3X;XXX X%X6X6X2X6X2X2X2X2X2X2X2X2X2X2X;X2X",
"2X2X2X2X2X2X2X2X2X2X2X2X2X2X2X2X3XoX;X6X;X#X3XdX'.c.&.{ X.*.P.AXDXDXDXxXkX( 2 j.<X-X-X2X2X;X-XoX6X6X6X2X2X2X2X2X2X2X2X2X2X2X2X2X",
"2X;X2X2X;X2X2X2X2X2X2X2X2X2X2X;X7X<X;X6X;XoX;X*Xk.` 7 / ~ *.^.I.U.U.Y.PXGX@.2 k.,X4X<XoX#X1X7XyX6X6X2X2X2X2X2X2X2X2X2X2X2X2X2X2X",
"2X2X2X2X2X2X2X2X2X2X2X2X2X2X;X2X3X;X7X7X6X3X'.c././.T.=.&.L.K._ H.H.I.PXUXhX=.] k.'.pX>X$X0X1XyX6X2X6X2X2X2X2X2X2X2X;X2X2X2X2X2X",
"2X2X2X2X2X2X2X2X2X2X2X2X2X2X2X2XoX2X3X7X6X,Xk.` P.JXPXzXkX&.! ^ ~ ^ K.SXUXJXxXK.} k.4X;X#X3X6X6X6X>X2X2X2X;X6X;X2X2X2X2X2X2X2X2X",
"2X2X2X2X2X2X2X2X2X2X2X2X2X2X;X2X;X X#X7XyX,X~.^ P.UXIXPXkXX.~ X. .~ ^ P.lXGXFX*.^ k.>X2XwX8X7X:X;X;X;X2X2X2X2X;X2X2X2X2X2X2X2X2X",
"2X2X2X2X2X2X;X2X2X2X2X2X2X2X2X2X2X%XXX6X>X,Xk.~ P.JXUXGXkXX. .r.r.X.^ ^ L.lXFX&.~ k.>XqXeX0X3XXX;X;X;X2X2X2X2X2X2X2X2X2X2X2X2X2X",
"2X2X2X2X2X2X2X2X2X2X2X2X2X2X2X2X7X2XXX-X6X<Xf.2 { AXDXAXI._ o.r.A.A.;.&.K.L.L.( 5 f.7XdXdXqX#XoX;X;X2X2X2X2X2X2X2X2X2X2X2X2X2X2X",
";X2X2X2X2X2X2X2X2X2X2X2X2X2X2X2X6X2XXX;X7X5Xg.* ~ U.Y.Y.K.( 9.A.vXmXMX*.~ { { > & s.3X7X6X2X3X7X2X#X;X2X;X2X2X2X2X2X2X2X2X2X2X;X",
"2X2X2X2X2X2X2X2X2X2X2X2X2X2X2X2X2X3X2X;X6XpXf.+ > K.Y.Y.J.7 F A.ZXKXnX+.3 { &., + s.oX-X2XwXeXaX2X2X2X2X2X2X2X2X2X2X2X2X2X2X2X2X",
"2X2X2X2X2X2X2X2X2X2X2X2X2X2X2X2X#XqX2XXX).tXf.* 4 /.I.Y.J.2 ; hXKXCXjXG < ;.P.~ 2 s.OXXXwXsXNXsX2X2X2X2X2X2X2X2X2X2X2X2X2X2X2X2X",
"2X2X2X2X2X2X2X2X2X2X2X2X2X2X2X2X#X3X2X(.XX>Xm.Z B X.&.^ ! ~ ..e.e.Z.-.K | @.*...] j.OXXXyXaXBXsX6X2X2X2X;X2X2X#X2X2X2X2X2X2X2X2X",
"2X2X2X2X2X;X2X2X2X2X2X2X2X2X;X2X;X3X@X X+XuX<XM.f.2 , , 3 =.;.V 3 # 7 %.;.&.' c.}.}.#X:X:XyX9XdX7X2X6X2X2X2X2X2X2X2X;X2X2X2X2X2X",
"2X2X2X2X2X2X2X2X2X2X2X2X2X2X2X2X6X;X;X2X3X<XoX Xm.} ` N B #...> , , / | X.#.g.[.7X7XuXuXyX;XoXV.2X2X2X2X2X2X;X;X2X2X2X2X2X2X2X2X",
"2X2X2X2X6X2X2X2X2X2X2X2X2X2X2X2X>X2X2X2X3X2X XoXC._.'.].f.5 > 1 , / / < 5 f.].;X3X#X$X8X$X-X-X;X2X2X2X2X2X2X2X6X2X2X2X2X2X2X2X2X",
"2X2X;X2X2X2X2X2X2X2X2X2X2X2X2X2X;X;X2X2X3X2XoXXX#X@X3XyXv.*   1 ( ( k p ; [ m.M.1X;X+X8X@X9XaXpX2X2X2X#X2X2X2X;X2X2X2X2X2X2X2X2X",
"6X2X2X2X2X2X2X2X;X2X2X;X2X2X2X2X;XoX;X;X<X6X;X;X2XuXdX2Xj.*   v <.8.1.1.m 3 C ~.>X-XoX2XwXNXzXHX<X;X;X2X2X2X2X6X2X2X;X2X2X;X2X2X",
";X2X2X2X2X2X2X2X2X2X2X2X2X2X2X2X;X;XoX;X2X6X>X;XyX>X=XXXN.[ 5 d t :.<.:.y ; C ~.>X).;X5XfXVXzXNX2X;X2X2X2X2X2X2X2X2X2X2X2X2X2X2X",
"2X2X2X2X2X2X2X2X2X2X2X2X2X2X2X2X2X;XoX3X7X6X6X>XtX2X#X:X4X[.x.4 % % @ % : s.M..X3X-X1XeXeXsXeX<X;X6X2X2X2X2X2X6X2X2X2X2X2X2X2X2X",
"2X2X2X2X2X2X2X;X;X2X2X2X2X2X2X;X7X<X2X7X6X7X>X6X). X@X-X6XwXv.N .       2 l.&X6X3X2XqXwXdXqX;XXX;X;X2X2X2X6X2X6X2X2X#X2X2X2X2X2X",
"qX3X$X2X2X2X;X.XOXoX;X2X2X2X2X2X7X7X3X2X3X<X7X6X;X;X<X=X@XOX;X<X:X@X#X<X6X7X#X2X5X3X6X6X7X2X=X.X;X;X;X2X2X3X2X2X2X2X2X2X<X2X2X6X"
};
