/* XPM */
static char *result[] = {
/* columns rows colors chars-per-pixel */
"64 60 256 2 ",
"   c #180908",
".  c #18130B",
"X  c #1A1716",
"o  c #0D070D",
"O  c #29170A",
"+  c #281915",
"@  c #371B17",
"#  c #2F100D",
"$  c #16391C",
"%  c #0E2B19",
"&  c #292818",
"*  c #382618",
"=  c #393418",
"-  c #30280C",
";  c #111429",
":  c #2A1925",
">  c #351927",
",  c #371434",
"<  c #153925",
"1  c #132F29",
"2  c #2A2728",
"3  c #392928",
"4  c #3A3627",
"5  c #393537",
"6  c #2B3232",
"7  c #431217",
"8  c #45281B",
"9  c #473518",
"0  c #532D16",
"q  c #6B2E1C",
"w  c #4C182F",
"e  c #462A26",
"r  c #4D3A2B",
"t  c #483828",
"y  c #583828",
"u  c #492938",
"i  c #473834",
"p  c #553935",
"a  c #582A2C",
"s  c #6B362D",
"d  c #19451B",
"f  c #184633",
"g  c #2A4728",
"h  c #2A4637",
"j  c #384734",
"k  c #395335",
"l  c #354E2B",
"z  c #1A7337",
"x  c #335226",
"c  c #4A451B",
"v  c #4A442A",
"b  c #574729",
"n  c #494636",
"m  c #564737",
"M  c #595537",
"N  c #49522E",
"B  c #674837",
"V  c #685839",
"C  c #735939",
"Z  c #724C2F",
"A  c #506837",
"S  c #776438",
"D  c #6E6337",
"F  c #65501C",
"G  c #17274F",
"H  c #312D49",
"J  c #2C3A75",
"K  c #1B2C5F",
"L  c #583B44",
"P  c #49314F",
"I  c #682A5A",
"U  c #1B4647",
"Y  c #335449",
"T  c #2B6F49",
"R  c #344C77",
"E  c #1E6F50",
"W  c #494744",
"Q  c #594446",
"!  c #555746",
"~  c #505255",
"^  c #685947",
"/  c #775748",
"(  c #695B56",
")  c #6C4C4C",
"_  c #4F6C4D",
"`  c #766545",
"'  c #766756",
"]  c #6C644B",
"[  c #504E6F",
"{  c #726F74",
"}  c #576766",
"|  c #953D13",
" . c #8C362C",
".. c #A73B2C",
"X. c #B53D17",
"o. c #CC3F27",
"O. c #B24918",
"+. c #934729",
"@. c #B14D2C",
"#. c #B16233",
"$. c #804913",
"%. c #C7491E",
"&. c #C9532F",
"*. c #CE6A38",
"=. c #E76E35",
"-. c #81007F",
";. c #8C584C",
":. c #937156",
">. c #B06D52",
",. c #927375",
"<. c #B1776C",
"1. c #975759",
"2. c #D06E4F",
"3. c #E86D46",
"4. c #CD7B66",
"5. c #C15E45",
"6. c #359659",
"7. c #348C51",
"8. c #3AB86F",
"9. c #378565",
"0. c #499058",
"q. c #469A64",
"w. c #52926D",
"e. c #4CB070",
"r. c #5EA170",
"t. c #3AC678",
"y. c #39D273",
"u. c #37E176",
"i. c #46C97A",
"p. c #4AD77B",
"a. c #50CD74",
"s. c #46EF78",
"d. c #AA8558",
"f. c #928973",
"g. c #AF8970",
"h. c #8E8059",
"j. c #CD8F72",
"k. c #EA8C6F",
"l. c #D98F61",
"z. c #2E3891",
"x. c #323E9C",
"c. c #36538F",
"v. c #364FAB",
"b. c #46568D",
"n. c #70758A",
"m. c #536BA0",
"M. c #3947C3",
"N. c #4A66C9",
"B. c #A438AA",
"V. c #A42195",
"C. c #827889",
"Z. c #977DAA",
"A. c #A76EB2",
"S. c #A950A9",
"D. c #D736DA",
"F. c #E32CE0",
"G. c #AF6ECA",
"H. c #B35FC1",
"J. c #C85DD1",
"K. c #D300B4",
"L. c #59938C",
"P. c #708E94",
"I. c #55BD83",
"U. c #6EB38F",
"Y. c #7892B7",
"T. c #77BAA4",
"R. c #3AD582",
"E. c #3EFC8E",
"W. c #3DFFA1",
"Q. c #4ACA87",
"!. c #56CA88",
"~. c #48D686",
"^. c #55D588",
"/. c #4FD694",
"(. c #76CB9C",
"). c #74D599",
"_. c #68CE90",
"`. c #45FE8C",
"'. c #4CFD8D",
"]. c #49FA88",
"[. c #54FC86",
"{. c #53FD8D",
"}. c #5AFC8C",
"|. c #57F789",
" X c #5AED9A",
".X c #44FE93",
"XX c #4CFE93",
"oX c #44FE9A",
"OX c #4DFE9B",
"+X c #4BF596",
"@X c #5BF495",
"#X c #52FE94",
"$X c #5AFB94",
"%X c #5BF49B",
"&X c #53FD9B",
"*X c #5AFB9B",
"=X c #54F597",
"-X c #50EC8D",
";X c #69EB98",
":X c #75E899",
">X c #62F39C",
",X c #62FD9A",
"<X c #66F896",
"1X c #6EF294",
"2X c #6BCBAA",
"3X c #76C8A7",
"4X c #77D4A8",
"5X c #72D5B0",
"6X c #59EEA3",
"7X c #4CFEA2",
"8X c #46FBA3",
"9X c #53FDA2",
"0X c #5BFDA3",
"qX c #58F8A7",
"wX c #4CF7A8",
"eX c #6AEAA5",
"rX c #75EAA7",
"tX c #66F7A6",
"yX c #6FEFAE",
"uX c #678ECD",
"iX c #8D8F92",
"pX c #B68F89",
"aX c #9098B4",
"sX c #AA98AA",
"dX c #93A9AF",
"fX c #ADAAB3",
"gX c #9DAD95",
"hX c #C59889",
"jX c #C9A994",
"kX c #D5AF95",
"lX c #E7B694",
"zX c #CFB5A8",
"xX c #E0B1B0",
"cX c #98D6B7",
"vX c #8ED1B0",
"bX c #A2CFBA",
"nX c #86E7A9",
"mX c #87E4B5",
"MX c #93E5B3",
"NX c #FBD5B9",
"BX c #F2C9B2",
"VX c #DCC5B2",
"CX c #97B1C7",
"ZX c #AFB2CA",
"AX c #AF95D6",
"SX c #C3BACC",
"DX c #C090F6",
"FX c #B5C6D0",
"GX c #95D3C9",
"HX c #CECCD1",
"JX c #FED7C6",
"KX c #FDD2C9",
"LX c #F8E7CF",
"PX c #D6DCEE",
"IX c #F4F5F2",
"UX c #DBE7EB",
/* pixels */
".X.X'.{.}.{.XX#XXXXX=X&X#X&XXXoX#X'.XX#XE.`.qX0X=X8X{.[.0XyXnXnX<X<XMXMXtX5XDXDXyXqXW.W..X`.|.*X9X#XXX{.{.#X{.[.[.@X9X7X0X#XXX.X",
"XXXX#X{.#X#X#X#X#X#XOXXX#X#XXXOX7XoX&X=X].@XyXvX!.~.].#X&X>X:X1X,X<XT.dXU.U.Z.Z.r.!.+XoX`.'.$X$X7XOXXXXX#X#X{.{.}.$XOXoX#X#XXX#X",
"&X=X=X{.#X$X}.=XXX#XOX=X{.$X#X#X*X{.#X+XXXyXAXA.! 7.~.9X}.<X*X0XqX^.} L m W [ Q N 0.i.XX$X$X#X&X}.[.[.}.#X&X#X$X}.$X.X.X#X#X#X$X",
"0X&X#X+X#X#XXX#XOXOX&X#X=X|.|.#X$X}.'.XX*X4XZ.V.a k q.~.|.|.~.Q.~.q.n e w 8 t 9 # g i.#X@X$XOX#XXX'.'.XX#XXX=X+X#X#X.X`.{.$X#X*X",
"*X&XXX+XXX'.#X{.&X#X&X&X*X$X$X{.OX.XoX=X}.U.( s m c N 7.p.p.T N Y N m M Z B V 9   d t.#X=X=XoXOX6X7X7X9X&X$X&X.X8X=X.X'.|.$X#X=X",
"&X#XXXXX+X{.{.XXOX#XXXOX*X*X#X{.XXE.7X7X,Xa.W - N b 0 N q.q.n w 4 t ^ D D M M c g T y.#X#XoX+X=X}.#X=X&X#X$X#X&XeXeX=X{.$X$X#X#X",
"}.{.XXXX$X}.#X'.OXXX'.OX9X9X#X'.#X{.#XXX#Xi.Y e q B V M A j t r m M ] V b = - g w.Q.-XXX`.`.#XqX`.].|.{.#X#X%X XGX5X>X{.}.#XXX#X",
"[.{.'.#X,X,X#X'.XX.X.XoXOX7X&XXX#X|.^.a.y.q.h > a L M M 4 8 y V C ^ ] M = - o < q.^.@X{.`..X@X=X2X3XT.(.>X9X*X XZXCX4X#XXXXXXX#X",
"}.}.#X#XOXXX`.].[.{.XX.X&X,X1X1X*Xp.0.x x k i P u u v 9 * 8 F F +./ p > +   X 2 g _ ^.OX#X}.].).G.D.F.G.2XXX#X$XeXrX;X|.}.{.#XqX",
"{.#X#XXXXXXX&XqX}.<X3X4X6X@X_.a.a.q.x $ & = p B L t j t 8 t M D ] ^ p e - O - > @ k q.y.a.p.].).A.D.D.H.2X`.#X$X$X<X<X#X#XXXoXoX",
"#X#XOXOX+X&XtXtX}.(.G.J.4X/.w.Y Y W l 4 t r B V ) m n m p p m m b n m b F b r u 5 n n N n T ~.=XeX2X(.(.6X'.$X.X}.}.$X$X&XOX.XXX",
"#XXXXX*XeXyXyXtX'.(.A.H.L.q.H w 2 4 t b M M V / ] ^ B M m m m m n M V S S C ! L ~ i 8 7 7 j 6.I.U.5X@X'.#X@X:XtX}.#X#X$X#XXX+XXX",
"$X{.'.tXmXGXyX}.#X>X4XL.T $ + 8 9 t r b V V ( ( / C V M M M ^ ^ V D D S S ` ( ( Q p 0 e w 2 6 P B.G.2XwX#X:XvXnXqX.X`.'.`..X#X#X",
"$X{.{.eXmXmXeX[.XXXXu.7.<   O 8 b y 9 9 b V ) ) S S D D D ] ` ` ` ` ` V D ] ( Q e 3 9 t 5 2   7 V.V.aXyX$XnXfXAXeX8X`.s.'.XX<XeX",
"'.XX#X%X;XeX>X&X.Xt.E < & 9 i p y e + # 3 p M ^ A D S Z / ] ^ C S / ` V M n t 8 O X = v 5 = 4 P , I A.fX;X2XG.D.3XwX#X}.{.,XnXMX",
"`.+XOX&X{.{.*X0XeXa.T U ! ! m 0 a 3 X ; , u v N A F S $./ ( ^ V V V ! ! n i 8 # . X 4 b = c A ~ h Y sXfX1X2XG.G.3XqX&X$XOX>XnXMX",
"XXXX{.].`.OX>XrXcXvXe.a._.r.h # , > = 4 i i i m c N N m b b m m p m M v W m a e 4 e e e X d e.~.R.!.(.:X$X%X(.vX;X=X7X&X&X@X1X;X",
"&X#XXX`..XOX*X;XvXnXrX<X_.w.6 # e e v v m i i 5 v v s Z s s s s s B v c 5 t r p n b e @ O d 7._.6XeX+X`.7XtXMXMX;XOXOX$X&XXXXX.X",
"9X=X.XXXXX*X*X*X1X@X9X~.E g 2 5 e r v b y y e 4 5 B  .@.@. ...X...+.q c = 4 i n p t 9 = l 4 < _ dXMX#XE..XeXbXcX XOXXX=X+X+XXX'.",
"=XXX+XXX*X*X*X9XXX'./.9.% . = n n v v y e a a a i +...#.2.<.4.*.&.O.F F q 8 5 i p r c g N 5 X : n.gX(.;X9XeXcXcX=XXX'.{.oXOX#X$X",
"}.#X#X#X$X$X=X&X&X^.w.i @ - 9 c v v y t t a  ...O.X.X.2.xXLXKXlX5.O.| +...s u u i p v p m u 2 * p 1.sXGXrXeXrXeX&X'.}.<X&X8X7XoX",
"}.}.#X#X$X}.$X9XqXQ.h + - 9 0 c v r v r a s ..o.O.%.#.g.xXHXSXzX4.5.@.&.o...s a t r p m p t e - # L iXcXeX&X$XXX$X#X}.}.XX9XyX5X",
"}.{.&XOX#X}.$X$XOXt.f X * t y y y t = 9 q | o.o...5.hXiXiX,.' { pXhX5.%.%.@.+. .a e r n n i m * X 6 e.yXOXOX*X7X}.{.#X{.|.;XbXZX",
"*X9X8XOX'.'.[.|.a.7.1 # i m y p s u & 7 | %.%.o.&.>.jXgXf.] Q { sXfX2.%.%.O.%...0 8 9 b r v m t X < 6.~.wXeXrX:X{.`.XX{.}.:XbXSX",
"#XXXXX.X`.'.#Xy.Y 2 4 i i r b b v t   # $.@.@.&.*.3.3.j.sXsXsXiX4.4.3.*.O.O.%.| @ # * t m p n r 5 = d E ~.yXGXCX X+X7X9X&X>X:X:X",
"{.'.XXoX.X0X;X!.T g ~ ! i e t m V m + O q | @.&.3.3.3.l.kXzXzXjX3.3.=.=.&.O.O.F @ + a B m r p m _ N , W I.yXGXvX@XXXOX#XOXXX=X=X",
"[.{..X.X9XtXrXvXi.e._.r.l & 8 p <.1.m & O 0 @.=.3.=.=.3.k.k.k.4.3.3.=.=.2.@.q # 8 m ,.<.b - 8 W e.r.V.V.T.wX;X;XXXXX#X@X#X#X#XXX",
"[.{.#XOXqXyXyXmX,X$X<Xp.7.g > L <.g.V & * s >.l.2.@.#.#.*.&.&.*.>.#.#.#.l.4.s 8 y ) <.<.y - j 9.u.3XJ.G.5XoX`.s.XX{.}.$X#X#X'.'.",
"}.}.$X#X&X6X6XeX#X}.[.|.^.r.5 p <.g.b 9 ;.g.VXkX) 0 b Z Z s B V Z y = M fXxXpX;.p B g.<.b x 6.~.-XOX(.(.@X=XOXoX=X#X#XOX&XOXXX`.",
"#X#X$X=X&X#XXXOXXX`.`.'.tX^.0.V :.:.8 y j.JXIXHX5   N ] ] ( ( ( ' n . H zXIXBXg.p t :.:.M T R.oX#XXX].'.}.@X&XOX$X=XXXOXtXeX%X=X",
"#XXX$X#X&XOXXX{.&XXX`.].&X=X~.e.' v   3 hXLXIXfX5 & ,.jXkXjXkXkXzX,.2 5 fXIXKXhXe O N ] e.p.=X&X8X=X$X*X#X`.{.'.&X#XXX%XnXnX;X<X",
"OXXX#X#XXX&X'.{.0X.X`.}.,XtX,Xa.A = . 5 ,.VXLXzX( ) kXNXJXNXNXJXNXxX/ ( VXIXBXC.3   4 _ p.}.tX0X7X9XXX|.#XXX<X,X=X#XXX XnXmXqXOX",
"`.#X*X&XoX.XoX&X*X'.#X#XnXnX*Xa.A 9 * 2 L :.zXNXjXxXBXKXJXNXNXNXNXxXkXzXNXzXf.L 2 > e A R.XX#X%X#X#X#X#X#X#X#X#XXX#X#X#X$X$X$X$X",
"XX#X$X*X&XXXXXXX#XXX$X<X:XrXtXa._ 5 , 2 : p g.lXlXBXKXNXBXlXlXBXBXNXBXBXzXf.L 2 h l 9 M P.5X>X$X#X#X#X#X#X#X#X#XXX#X#X#X#X$X#X#X",
"XX#X#X$X$X#X'.'.$X&X*X*X*X$X9X~.~ 6 : ; o X B >.hXlXNXNXlXj.kXlXBXBXlXg.:.m + 6 q.q.c w B.G.5X#XXX#X#X#X#X#X#X#XOXXX#X#X#X#X#X#X",
"XXXX#X}.<X}.#X{.}.*X*X&XOX-XQ.w.} L u 2 % : 5 p ;.g.gXj.g.d.g.d.hXg.h.;.Q 3 . g e.p.7.[ H.G.2XoX#X#X#X#X#XXX#X#X#X#XXX#X#X#XXXXX",
"#XXXXX|.<X#X#X$XoXOX7XOX&Xi.T Y ' :.C M M W H G 3 * 3 r m ^ / Z m $ 2 : H H + k a.<X].Q.T.3X6X|.#X#X#X#X#XOX#X#X#X#X#X#X#X#X#X#X",
"&XXX+X-X#XXX=X;X5X4X6X.X#X8.< : >.j.d.S ^ W H G ; X 2 6 3 2 i e : ; ; G P ~ 5 k q.^.tXtX@X{..X=X#X#X#X#X#X#X#X#X#X#X#X#X#X#X#X#X",
"*XXX'.{.XX.X#X:XAXsX(.].].8.% @ :.k.j.d.t ; 1 G K R n.n.~ 6 6 H G K z.[ ,.>.V n k _ gXrX<X{.7X9X#X#X#X#X#X#X#X#X#X#X#X#X#X#X#X&X",
"$XXX{.{..XE.@XnXJ.sX).'.'.t.z j ` >.:.:.j < E R U c.aXaXn.[ [ [ c.z.x.[ <.d.d.' V M f.gX-XXXOX#X#X#X#X#X#X#X#X#X#X#XXX#XXX#X#X#X",
"}.|.XX.XOXXX`.`.5XeX;X$XE..X^.q.k > + h 6.y.i.q.< G v.uXY.dXFXZXN.z.G * ..3.kXzXjXg.` _ p..XOX`.#X#X#X#X#X#X#X#X#X#X#X#X#X#X#X#X",
"$X#X`.XXOX&X=X'.0X0X%X&X+XXX%X~.T < % z i.&X0Xa.1 ; z.N.uXFXUXUXAXN.G X a >.lXJXLXjX! h e.7XOX*X#X#X#X#X#X#X#X#X#X#X#X#X#X#X#X#X",
"&X|.].'.9X9X*X<XXXXXXXXXXXXX#X].Q.e.t.y.+XoX0X8.$ ; x.M.m.uXGXIXPXCXc.G : s jXJXNXpX5 f e.#X#X}.#X#X#XXX#X#X#X#X#X#X#X#X#X#XOX#X",
"7X>X:X;X%XOX*X<X1X*X'.XXXX=X*X>X=X$X{.{.&X6XQ.8.H H M.M.v.m.dXPXIXUXY.R : e C.hXhX,.I J Q.}.}.}.#X#X#X#X#X#XOX#X#X#X#X#X#X#X#X#X",
"qXrXvXvX>X'.'.<XnXyX$X`.#X*XyXyX<X#X7XE.&X^.9.E [ x.M.M.x.c.c.Y.UXIXPXaX[ 2 H 5 5 I V.V.U.#X,X*X#X#X#X#X#X#X#X#X#X#X#X#X#X#X#X#X",
"9X:XvXnX;X`.'.%XnXtX$X{.#X&XtXtX}.XX7XE.9XQ.Y K b.N.M.x.z.z.J c.CXPXUXFX{ H o o % J B.G.5X#X$X#X#X#XOX#X#X#X#X#X#X#X#X#X#X#X#X#X",
"OX%XeX:X<X#X#X%XtX*X*X#X#XXX*XqX,X-X@X=XoXt.U H n.n.c.R z.J J c.c.P.dXjXiX( ; % 7.I.T.2X%XXXXX'.#X#X#X#X#X#X#X#X#X#X#X#X#X#X#X#X",
".X'.'.#X&X*X$X=X#X$X#XOXXXXX$X|.wX*X1X;Xp.6.h L r.Y.L.c.b.b.c.c.v.b.P.f.iX} g T u.}.#XE.9X7XoX{.#X#X#X#X#X#X#X#X#XXX#X#X#X#X#XXX",
"#X#X#X#X#X#X#X#X#X#X#X#X#X#X#X#X}.rXbXgXW l } iXfXFXCXaXiXC.iXP.P.iXsXw.n f 6.p.}.,X9X.X[.#XoX{.#X&X#X#XXX#X#X$X#X#X#X#X#X#X#X#X",
"#X#X#X#X#X#X#X#XXXXX#X#X#X#XXX#X9XtXMXP.2 : [ CXCXFXSXZXfXiXiXn.C.C.f.( : $ 8. X2X3X6XoX'.'.}.[.XX#X#X#X#XXX#X#X#X#X#X#X#X#X#X#X",
"#X#X#X#X#X#X#X#XXXXX#X#XXXOX#X#X.XXXtXr.1 ; b.uXCXZXHXSXHXiXW & Q ) ^ H X % t.eXG.A.2X9XXX.X*XXX#XXX#X#X#X#X#X#X#X#X#XXX#X#X#X#X",
"#XXX#X#X#X#XXX#XXX#X#X#X#X#X#X$X>X$XtXa.z G R c.P.aXsXsXaXP.Y $ < * 3 6 g z Q._.G.G.2XtXeXeX;X$XXX#XXX#X#X#X#X#X#X#X#X#XOX#X#X#X",
"#X#X#X#XXX#X#X#X'.}.#X#X#X#X=X,XvXvXyX-Xy.6.h ; 6 H [ [ [ [ q.7.$ .   & 7.~. X X(.2X XeXcXcX1Xs.#X#XXX#X#X#X#XOX#X#X#X#X#X#X#X#X",
"#X#X#X#X#X#X#X#X#X#X$X#X#X=X$X$XcXvXyXOXOXt.$   # , H K ; Y a.s.z d < z p.0X@X{.[.#X#X>XbXGX).:X@X=X#XXX#X#X#XXX#X#X#X#X#X#X#X#X",
"#X#X#X#X#X#X#X#X#X#X#X#X#X#X#X@X:X1X=X.X7X8.$   a I P ; ; g t.'.u.t.e.i. X0X$X$X{.XXOX=X:XvXZXdX>X%X#XXX#X#X#X#X#X#X#X#X#X#X#X#X",
"#X#X#X#X#X#X#X#X#XXX#XXXXXXX#X$X'.{.$X*XyXL.2 # ..@.s u   1 t.7X9XOXOXqXqX#XOX.X{.|.OX#X].eXZXZX;X%XOXXX#X#X$X#X#X#XXX#X#X#X#X#X",
"XX#X#X#X#X#X#X#X#X#X#X#X#X#X#X#X}.{.XXeXAXA., @ +.*.2...# f t.*X$X#X@X=X&X&XXXXX`.].[.'.].+X%X;X#X#XXX#X#X#X#X#X#X#X#X#X#X#X#X#X",
"#X#X#X#X#X#X#X#X#X#X#XXX#X#X#X#X{.#X}.;XCXaXI w / #.@.+.i T Q.,X$X{.{.#X&X&X#X'.'.'.{.'.XXXX*X6X#X#X#X#X#X#X#X#X#X#X#X#X#X#XXX#X",
"#X#X#X#X#X#X#X#X#X#X#X#X#X$X#X#X#X#X{.=XeXaXB.V.a O O l q.!.1X1X#X{.].+XXXXX#X{.XXXX$X*X+XOX9X0X#X#X#X#X#X#X#XXX#X#X#X#X#X#X#X#X",
"#X#X#X#X#X#X#X#X#X#X#X#X#X#X#X#X}.&X'.-X`.T.D.K.7 o o < t.9X1XrX}.#X`..X.XXX}.{.OX#X*X*X*X&X0X0X#X#X#XXX#X#X#X#XOX#X#X#X#X#X#X#X"
};
