/* XPM */
static char *nate_f21650476114[] = {
/* columns rows colors chars-per-pixel */
"64 64 256 2 ",
"   c #190A06",
".  c #1A0B15",
"X  c #13120D",
"o  c #281817",
"O  c #361A18",
"+  c #2F110C",
"@  c #0F3418",
"#  c #282519",
"$  c #382719",
"%  c #393818",
"&  c #2D2D0E",
"*  c #10142A",
"=  c #36152D",
"-  c #15342C",
";  c #2A2627",
":  c #382825",
">  c #263428",
",  c #373627",
"<  c #382736",
"1  c #393734",
"2  c #283136",
"3  c #441813",
"4  c #46361B",
"5  c #4D2A16",
"6  c #6E3018",
"7  c #4C142F",
"8  c #452925",
"9  c #562A2A",
"0  c #483729",
"q  c #543728",
"w  c #462935",
"e  c #4A3733",
"r  c #553A36",
"t  c #542C3E",
"y  c #6B3730",
"u  c #6B1F21",
"i  c #144619",
"p  c #3B441C",
"a  c #15452B",
"s  c #3B4727",
"d  c #254838",
"f  c #374636",
"g  c #31512F",
"h  c #177735",
"j  c #2C6735",
"k  c #4F441D",
"l  c #484529",
"z  c #584628",
"x  c #4A4637",
"c  c #564736",
"v  c #585538",
"b  c #495531",
"n  c #674837",
"m  c #67583A",
"M  c #765B38",
"N  c #69512E",
"B  c #546636",
"V  c #756538",
"C  c #696238",
"Z  c #63461D",
"A  c #18294F",
"S  c #313450",
"D  c #27326F",
"F  c #1A2452",
"G  c #4B3448",
"H  c #652E4B",
"J  c #62276B",
"K  c #2E564C",
"L  c #2D6E4B",
"P  c #344C77",
"I  c #185A59",
"U  c #464647",
"Y  c #564545",
"T  c #555251",
"R  c #695848",
"E  c #775844",
"W  c #6E5152",
"Q  c #4D6D4C",
"!  c #71664D",
"~  c #55506A",
"^  c #79726B",
"/  c #5F6269",
"(  c #923C1A",
")  c #AA3D12",
"_  c #92382B",
"`  c #AF3A26",
"'  c #D03A2A",
"]  c #B14713",
"[  c #8F4D31",
"{  c #B14E2A",
"}  c #826638",
"|  c #965422",
" . c #C54E1A",
".. c #C8542E",
"X. c #CF6838",
"o. c #E87038",
"O. c #AE1E60",
"+. c #967057",
"@. c #AE6E51",
"#. c #8C6E74",
"$. c #B2766C",
"%. c #97564B",
"&. c #CF6F50",
"*. c #E7754C",
"=. c #D0796A",
"-. c #C25D46",
";. c #339253",
":. c #339066",
">. c #35B96F",
",. c #3CB05F",
"<. c #458C57",
"1. c #489769",
"2. c #52926F",
"3. c #4CB271",
"4. c #62956F",
"5. c #3ACA78",
"6. c #3AD675",
"7. c #3FFF7B",
"8. c #4AC679",
"9. c #55CC79",
"0. c #48D677",
"q. c #50D278",
"w. c #49FA7D",
"e. c #56FB7B",
"r. c #61C370",
"t. c #30883E",
"y. c #938174",
"u. c #B28A71",
"i. c #A08657",
"p. c #CF8F73",
"a. c #EA886A",
"s. c #DD9C6D",
"d. c #2D368B",
"f. c #3B3AA3",
"g. c #37548F",
"h. c #354BB7",
"j. c #29589B",
"k. c #4D5489",
"l. c #6F7486",
"z. c #4D57AF",
"x. c #567199",
"c. c #4771CB",
"v. c #5B2EA2",
"b. c #A436AD",
"n. c #9F2C97",
"m. c #8D7890",
"M. c #9C78AC",
"N. c #AE6AB7",
"B. c #A46794",
"V. c #DA33DC",
"C. c #B36DCE",
"Z. c #AE61C6",
"A. c #C95DD5",
"S. c #D700B7",
"D. c #6E928B",
"F. c #57BB82",
"G. c #72B294",
"H. c #758DB0",
"J. c #79B3AE",
"K. c #5E9C85",
"L. c #3AD488",
"P. c #3CFE8A",
"I. c #3BFD95",
"U. c #3FEE85",
"Y. c #4ACA87",
"T. c #48D686",
"R. c #53D18B",
"E. c #6AD79B",
"W. c #74D699",
"Q. c #6CCD8E",
"!. c #58EA8C",
"~. c #4CFD86",
"^. c #4DF58C",
"/. c #45FE8C",
"(. c #4CFD8D",
"). c #45F787",
"_. c #53F58C",
"`. c #53FD8C",
"'. c #5BFB8C",
"]. c #57F986",
"[. c #4DED95",
"{. c #59EC96",
"}. c #44FD93",
"|. c #4DFE93",
" X c #44FE9B",
".X c #4DFD9B",
"XX c #4CF495",
"oX c #53F593",
"OX c #5BF594",
"+X c #53FE94",
"@X c #5AFC95",
"#X c #54F59A",
"$X c #5CF59B",
"%X c #53FD9A",
"&X c #5BFC9B",
"*X c #4AEB88",
"=X c #63F88B",
"-X c #68EB98",
";X c #77E89A",
":X c #64F49B",
">X c #66F897",
",X c #6CF191",
"<X c #77C7A7",
"1X c #70D2AC",
"2X c #5BECA5",
"3X c #4CFDA3",
"4X c #46FDA4",
"5X c #54FDA2",
"6X c #59F9A5",
"7X c #57FFB2",
"8X c #69EBA6",
"9X c #74EAA6",
"0X c #63F5A3",
"qX c #66FAA6",
"wX c #74EFAE",
"eX c #6B8BCA",
"rX c #7DD0C4",
"tX c #35BE86",
"yX c #8B8C91",
"uX c #B39693",
"iX c #89AC90",
"pX c #9098AE",
"aX c #A89AB0",
"sX c #93ADAB",
"dX c #AFAFB4",
"fX c #A8A596",
"gX c #C7908C",
"hX c #D2AF96",
"jX c #EBB797",
"kX c #CDB4AB",
"lX c #EFB6B0",
"zX c #8AD9B6",
"xX c #90D0AD",
"cX c #A8CAB7",
"vX c #89E6AE",
"bX c #83EB96",
"nX c #FACAB9",
"mX c #F7D3B9",
"MX c #EDC8AF",
"NX c #DBC5AD",
"BX c #939CC3",
"VX c #95AFC6",
"CX c #AFB4CE",
"ZX c #AC97D7",
"AX c #C5BDC9",
"SX c #C586E4",
"DX c #8CCFC5",
"FX c #B0C7CD",
"GX c #A0E6CA",
"HX c #CEC9CD",
"JX c #FBD7C7",
"KX c #FFCFCC",
"LX c #F6E6CD",
"PX c #D1D9F1",
"IX c #F1F3EF",
"UX c #E4E5E8",
/* pixels */
":X$X$X{.oX#XoX{.oXoXoXOX!.[._.[.OX(.[.oX].].OX^._.oX_.oXXXXX|.#X[.^.).^.[.oX%X*XOX^.!.,X^.^.+X^.$XOXoX{.^.^.oXoX^._.oXXXOXOXoXOX",
"&X&XOX@X+X+X%XOXOX%X%X%XoXoX[.*X'.~.%XOX(.^.5X3X@X%X`.'.6X0X,X&X!._._.>Xw.~.'.`.$X.X%X&X%X%X@X&X+XoX`.oXoXoX#X%X+X$X#X%X>XOXoX`.",
"XX|.+X`.`.+X|.+X%X%X|.+X@X%X.X|.+X|.#X5XP./.6X:X%X4X`.e.7XqXbXwX'.>XvXGXwXrXZXSXwX7XI.I.}.^._.@X%X%X.XoX`.`.~.`.OX$X5X5X&X%X|.+X",
".X|.+X'.`.`.+X%X+X|.|.+X%X+X+X.X5X|.#X.XP.$X1XxXR.L.^.'.%X>XbX9X:X-XG.sXF.G.pXC.K.R. X}.|.+X_.&X3X.X|.|.+X`.~.~.`.OX.X4X.X|.|.`.",
".X.X|.`.@X+X+X%X+X|.|.+X_.+X`.+X&X~.+X`.oXwXBXC.T ;.L.5X~.'.6X6X7Xq./ G c U H T z <.0.|.@X+XoX.X~.(.`.`.+X+X#X#X`.`.}.}.|.+X+X&X",
"%X%X|.|.oX@XoX|.%X%X%X%XoX_.oX@X&X(.|.|.OXW.M.n.8 l 1.*Xe.].R.8.T.1.v 7 9 : 0 & + g ,.+XOX+X.X.X`.`.+X+X+X%X%XoX@X+X|.}.`.+X%X&X",
"&X%X.X.X+X+X+X`..X%X.X%X&X&X@X'.5X X.X.X&XQ.! y c l b <.q.9.Q f K b b c M n m z   i >.|.@X+X}.[.#X5X%X%X+X+X`.+X$X#X.X~.`.'.+X&X",
"&X+X|.}.|.^.`.~.|..X%X%X&XOX+X(.|./. X5X>X3.g % Z z k p ,.1.b 8 ; r M V m v b 4 g L L. X%X|.I.5X%X#X%X%X%X%X%X.X2X2X$X+X'.'.|.oX",
"@X~.~.+X&X:X+X~././.|.5X.X%X5X}.+X+X+X~.oX8.d < y n v v T x q 4 v Y ! v z % & d 2.Y.].P.I.|.(.qX7.#X].e.|..X2X{.DXxX8X.X+X@X(.+X",
"'.`.(.+X&X&X`./.%X|.|.}. X.X3X.X`.OXT.0.0.1.f 7 9 r R b , $ 0 N M E R c 4 & X @ 1.9.-XoXoX`./.2XE.J.J.1X2X%X0X0XCXcXW.(.|./.|.+X",
"].`.+X|./.|.|.|.=X'.}.I.@X>X,X>XqX9.<.j j j 1 r t w l % $ 8 z C [ E Y : o   X ; p ;.R.+X|.~.~.E.Z.V.V.N.<X|.'.'.2X8X>X'.'.OX#X&X",
"].`..X|.|.(.oX6X@X!.W.1X0X{.Q.r.3.1.g & & & l H G w 0 4 8 q N N M n x : o $ o : O g 1.5.8.0.].E.BXV.V.Z.1XP.~.`.$X:X,X'.+X XI. X",
"`.+X%X.X3X5X0XqX`.G.C.C.<XT.2.K K g s % 0 e Y m W c x c q q c b x c c z Z z 0 < G f l g b Q *X%XR.<XJ.1X2X%X$X.X=X=X&XOX3X X|.oX",
"+X|.%X6XwXwX8XqX].bXA.C.4.,.G = ; , l z c n E ! ! m v c z v c G l v m M V V R Y ~ r 3 3 O , :.3.iX1X&X}.oX=X9X0X+X|.`.&X%X X}./.",
"@X(.+X0XwXzX8XOX}.>XW.K.K - ; 3 4 q l b v m W %.V V m m v m R E C C V V V V ! W r e 5 8 = ; > G b.C.xX#X|.=XxXwX6XI.I.~./.|.OX&X",
"@X`.'.-XzXzX9X_.|.oX6.;.-   o 8 k q 8 k k N W W E M V N C Q V V V ! ! C C m W T 0 $ q q e ; . 7 J b.pX8XqXxXdXZX1X4X/.w.w.'.:XqX",
"/.|.%X6X-X-X6X%X|.8.L - 2 , 0 q q 9 o o < G c R B V } } V R E E } ! ! v b x 8 O   X , l 4 % 0 w 7 t N.AX,XE.Z.V.rX7X+X`.+X0XvXvX",
"/.(.oXoX+X&X:XqXqX3.h a T R c 9 q 8 o . = w l c b B Z C ! R R m N R v c Y 0 5 $ X # , e % 0 Q Q P K B.aX,XQ.N.C.1X5X%X%X+X:XvXxX",
"|.oXoX/.}.|.&X9XcXxX9.3.Q.4.K . 7 8 : % 0 e e U k b c c z Z z z y T Y c U x 5 8 0 0 8 3 X i 3.T.L.8.Q.;X@X0XsXxXE.5X3X%X+X@X,X>X",
"%X%X+X}././.&X8XxXvXwX0XR.1.>   O : l x c e 0 f l l 6 6 y y n y _ r z s f 0 q r b x 4 5 + i <.Q.8XqX3X X+XqXvXvX-X|..X%X%X|.|./.",
"%X.X|.|.|.+X6XqX:X&X%XY.h - , 0 e l 0 z q 9 8 , S z | { { _ _ ) ` ( Z , % : 1 c q q 4 % g g - K sXvXOX/.}.8XcXGX-X|.}.|.#X3X{.~.",
"oXXX X+XOX&X&X5X}..X!.;.@   $ b x l k k q 9 9 y G _ { ..&.=.&.&.{ ] | Z 5 w 1 e q 0 k p b 1 . : ^ fXQ.!.6X8XzXxX$X/.~.`..X4X#X`.",
"'.+X+X+XOXOX%X.X&XR.Q e 8 3 4 p l z z 0 7 9 _ ` ] ) ) @.lXUXKXjX@.] | ( _ _ w 8 l e l x r w O O t #.aXFXwX0X9X2XoX/.].=X.X4X X#X",
"=X'.+X+X@X@X@X+X7XY.K o & % 5 k l 0 0 e e y ` ' ]  ...p.AXHXHXkXp.-.{  .' ` y 9 e q c G r e 8 & o G yXcX2XoX=X.XOX+X@X>X+X5X0X1X",
"&XoX#X%X`.~.@X&X`.8.a . : s 4 y r 9 % 4 6 ] ] ' ..-.uXuXyX#.! ^ uXgX-.'  .` ` y y 8 q v s l c 8 . - F.wX3X4X:X%X'./.`.'./.;XcXCX",
"+X+X.X%X~.`.`.*X0.;.- . e c c 6 r 0 o 5 ( ] { '  .@.uXfX#.! T / aXgX&. . . . .) 3 $ 4 z x e x 0 # i :.Y.[.qX9XwX'.~.|.'.+X;XcXCX",
"|.|..X}.).(._.6.j > w e t e c l z : X + ( { ......*.*.gXuXsXpXfX=.=.*. . .{ { ) O + 3 9 c c c e : & - L T.7XDXDX$X4X X.X/.,X;X;X",
"`.|. X}.}.&X-XR.K g T T 0 8 q c n n # + 6 ( { ..*.*.&.a.kXkXkXgX&.o.o.o...{ [ 6 + $ r y x 0 t c Q v < G F.wXDXsX!.|..X%X|..X$X.X",
"].]./..X.XqXvX<X8.3.Q.4.j # 3 H +.+.r # + 5 { X.o.*.a.o.a.a.a.a.a.o.o.a.o.{ 6 + 3 c #.#.z + 8 U ,.K.n.b.J.>X;X,X~.(.+X&X%X+X%X(.",
"'.'.|..X7XqXwXzX&X>X>Xq.;.g # Y =.$.m $ # 6 u.*.-. . . .X.....X.X.{ | { p.$.E 3 q R gX=.Z & , :.6.<XA.N.1X|.).P.|.oXOX&X%X|.~.~.",
"`.@X+XoX5X6X2X8X+X`.~.'.Y.2.f 9 u.$.c 0 } u.lXhXH 3 q N N n n n N k % v kXKX=.%.q v $.u.z g ;.L.).%XW.W.:X%X.XI.`.`.+X+X%X5X XI.",
"|.@X@X'.&X#X)..X+X/./.(.:XR.2.R +.+.% 4 p.KXIXFXe X x ^ R m ! W ! x X 2 dXIXkXu.e 5 +.i.C L 5..X&X/.e.~.+X$X.X%X$X%X.X%X0X-X:X_.",
"}.+X@X+X%X%X+X/.%X|.P.'.+X}.R.3.! l   0 uXKXIXdX> & +.hXhXhXhXjXkX#.# , dXIXLXgXG + q Q r.0.5X}.3X%XoX+X`.`.oX+X$X+X|.:XvXzX8X#X",
"|.%X+X.X.XoX+X|.%X/.P.^.>XqX'.0.B %   : y.NXLXNXR W kXmXJXmXmXLXJXhXW / HXLXNXB.2 X : Q q.e.qXqX3X%X+X+X+X+X+X+X%X|.(.>X9X9X0X+X",
"XXoX+X%X X|.oX+XqXoX X%XbXvX>X9.Q % ; : Y #.kXMXkXkXMXmXJXmXmXmXmXlXlXkXMXkXy.H : o 5 Q 0.}.%X{..X%X+X+X+X+X+X+X+X(.(.+X:X:X>X+X",
"|.%X@X+X.X|.|.|.+X/.%X&XvXbX&X0.Q : < ; o z $.jXMXnXJXmXmXjXjXmXnXnXmXNXNXu.e < g f 5 c G.1X-X>X.X+X+X+X+X+X+X%X|.|.+X+X%X%X+X`.",
"}.|.@X>X&X+X/./.+X+X>XOX:X$X5XT.T < = * X o c @.s.MXnXnXjXs.hXjXmXMXhXp.+.n o > 1.1.s t b.ZX1X'.+X|.+X+X+X|.+X%X|.+X+X+X.X|.|.+X",
"}.|.`.'.>X+X+X`.@X&XOX%X3X*XY.2.Q Y , - X # 1 Y %.+.uXgXu.i.i.i.u.u.i.M c 2 . d 8.q.t.U b.C.1Xe.+X+X+X+X+X|.+X+X+X%X+X+X|.|.+X+X",
"%X|.(.'.@X+X+X@X X6X.X.X.X5.h K ^ +.M v Y U S < ; # 8 0 z m E M N , # ; 1 S # d q.`.U.R.J.J.2X].+X+X+X+X|.+X+X+X+X+X+X%X+X+X+X+X",
"$X.X^.^.oX%X+X>X1X1X2X.X[.3.@ = @.s.@.} m S S F * * ; , < 1 8 4 @ * * A S Y 1 s 2.R.0XqX&X X X&X+X+X+X+X+X|.+X+X+X+X+X+X+X'.+X+X",
"%X|._.].|.I.#XW.aXaXxX~.~.>.- 7 +.s.s.+.q * - A D P 2.l.~ < A 2 A D d.g.$.%.R x g Q iXvX=XoX3X3X+X+X|.+X|.+X+X+X+X+X+X+X+X+X+X+X",
"@X|.`.`./.I.XX-XSXaXiX`.7.6.h s E @.$.! f a I I S k.H.BXl.~ ~ ~ g.d.D ~ $.&.i.^ N E y.G.'./..X!.+X+X+X+X+X+X+X+X+X+X+X+X+X+X+X|.",
",X|.I.}.%X|.|.*X1XE.-X%X}.[.Y.1.f = o d ;.8.0.1.> A h.eXH.CXCXaXc.d.F O %.=.s.hXhXu.^ Q 8..X}.+X+X+X+X+X+X+X+X+X+X+X+X+X+X+X+X+X",
"=X~./.|.%X.X|.oX7X&X%X%X}.%X6XR.L @ @ h 6..X5X8.@ * d.c.eXFXIXIXZXz.F . 6 @.hXLXLXhXY K 3.3X X'.+X+X+X+X+X+X+X+X+X+X+X+X+X+X+X+X",
"%X_._.oX%X3X%X=X%X%X.X%X}.|.`.w.Y.3.3.6.*X.X5X>.@ * f.h.j.H.GXIXPXCXg.F + y hXLXmXuX2 a 5.5X`.].+X+X+X+X+X+X+X|.+X|.+X+X+X+X+X+X",
"5X:X,X-X2X5X@X>X=X'.^.~.|..X:X&X%X+X+XoXqX$XT.,.A D f.h.h.c.VXPXIXPXJ.g.* : B.gXhX#.J D F.&X&X'.+X|.+X+X+X+X+X+X+X+X+X+X+X|.+X+X",
"4XwXxXbXOX/.+X>XvXvX=X(.}.&XwXwX].`.3X}.#XR.:.I P g.h.z.g.g.g.eXUXIXPXBXT ; < < 1 J O.n.G.%X>X:X%X|.+X+X+X+X+X+X+X+X+X+X+X|.+X+X",
"2XwXzXxX,Xw.`.6XwX6X$X_.|.&XqXqX>X^.4XI. XT.K D k.z.h.f.f.D D k.VXPXUXFXl.S * X @ S b.C.1X(.&X}.+X+X+X+X%X|.+X+X+X+X+X+X+X+X+X+X",
"|.%X>X-X>X%XOXOX&XOX&X.X|.|.%XOX5X&X_.~.&X3.a < l.l.j.j.d.D D P z.D.sXdXyX/ X @ ;.3.G.<X$X}.%X~.+X+X+X+X+X+X+X+X+X+X+X+X+X+X+X+X",
"}.oXOXOX@X%X%XOX&X@X@X+X|.|.%XOXoX-XwX:XL.:.d U D.pXx.g.k.k.j.j.g.x.4.y.#./ d h *X%X3X.X3X4X#X~.+X+X+X+X+X+X+X+X+X|.|.+X+X+X+X+X",
"|.+X@X@X+X+X+X@X+X+X+X+X|.|.+X+X`.9XcXyXQ g / m.CXCXpXpXyXm.yXH.x.pXyXD.x d :.0.oX>XoXP./.&X+X~.|.+X|.+X|.+X+X+X+X+X+X+X+X+X+X|.",
"|.|.+X|.|..X+X+X/.+X+X+X+X+X+X+X4XqXzXD.# o / BXVXFXHXCXaXuX4.4.yXB.y./ o @ 5.$XE.<X2X4X/.`.'.].+X|.+X|.+X+X+X+X+X+X+X+X+X+X+X+X",
"+X+X+X|.|.|.+X+X|.+X+X+X+X|.+X+XI.oX;Xr.- * k.eXVXFXHXHXAXpXU > U R R G . @ 5.E.C.Z.J.7X+XP.%X}.|.+X+X|.+X+X+X+X+X+X+X+X+X+X+X|.",
"+X+X|.+X+X+X+X+X(.`.+X+X+X+X+X+X$X^.>Xq.I A j.j.K.pXaXaXaXD.K @ & & : < 2 h 0.W.C.N.1XqX;X:X9X|.|.+X+X+X+X+X+X%X|.+X+X+X+X+X+X+X",
"+X+X+X+X+X+X+X|.`.+X+X+X+XoX@XOXcXzXwX[.6.;.- ; 2 S J ~ ~ / 1.;.i X   @ ;.q.[.{.<XE.3X8XzXcX;Xe.%X`.+X+X+X+X+X+X+X+X+X+X+X%X+X+X",
"+X|..X+X%X+X+X|.+X+X+X+X+X%X&XOXxXzXwX|./.8.i     = F F * K T.0.h a 2 j 6.qX0X^.e..X&X-XxXcXW.9X+XOX+X+X`.+X+X+X+X+X+X+X|.+X+X+X",
"+X+X+X|.+X+X+X|.+X|.+X+X+X+X+X+X>X>X$X.X6X>.@ . u H t * . a 5.~.6.5.>.Y.{.:X>X`.'._.`.&X;XzXVXVX-X$X.X|.+X+X+X+X+X+X+X+X+X+X+X+X",
"+X+X+X+X+X|.+X+X`.|.|.|.+X+X+X+X'.=X'.@X8XK.# 3 ` -.H w . - >.4X+X.X#X5X#X.X}.}.+X/.P.I..XW.dXdX:X&X|.|.+X+X+X+X+X+X|.+X+X|.+X+X",
"+X|.+X+X+X+X+X+X+X+X|.+X+X+X+X+X].].4X8XCXN.S + | X.X._ 3 - 5.&X+X+X%X%X5X%X.X|.'._.]._.^.^.{.8XOX%X|.+X+X+X+X|.+X+X+X+X+X+X+X+X",
"|.+X.X+X+X+X+X+X+X+X+X+X+X+X+X+X].+X%X-XCXM.J 7 N +.-.[ e L Y.=X=X`._.oX%X%X+XoXP./.`.+XoX.X&X6X+X+X|.+X+X+X+X|.|.+X+X+X+X|.+X+X",
"%X%X+X%X+X+X+X+X+X+X+X+X+X+X+X+XoX.X|.w.E.pXn.n.u O + , :.R.,X=X@X+X|.(.|.|.`.+X(.+X&X&X.X.X%XqX+X+X|.+X+X+X+X|.%X+X%X|.+X+X%X+X",
"+XoX|.+X+X+X+X+X+X+X+X+X@X+X+X+X%X5X=Xe.}.<XV.S.+     a 5.5XvXqX|.XX|.|.|.(.(.`.|.|.&X&X%X5X5X6X|.+X+X+X+X+X+X|.%X+X+X+X+X%X+X%X",
"%XoX^.oX+X+X+X(.(.|.oX+X+X+X+X|.oX5X6X[.P.).^.XX&X.XP.).|.(.'.+X+X+X%X+X%X@X+X_.oX_.oX%X.X%X%X#X|.oX|.+X.X+X+X+X+X|.^.^.|.oX+XoX",
":X&XoX_.+X+XoX(.^.^.(.+X+X+X+X+X'.`.@X&X%XoX@X>X.XOX).XX*X%X.XoX|.+X+X+X+X&X+XoX+X|.|.+X`.+X_.(.|.|.%X.X%X|.+X'.&X%XoX_.+X+X@X%X"
};
