/* XPM */
static char *result[] = {
/* columns rows colors chars-per-pixel */
"64 66 256 2 ",
"   c #0B0806",
".  c #170A06",
"X  c #19150B",
"o  c #171716",
"O  c #0F1016",
"+  c #280808",
"@  c #271716",
"#  c #371A18",
"$  c #2D110E",
"%  c #192414",
"&  c #1B351B",
"*  c #0B2915",
"=  c #282519",
"-  c #38261C",
";  c #3A3719",
":  c #2F3717",
">  c #161933",
",  c #180E22",
"<  c #381B25",
"1  c #2E1028",
"2  c #1A2C30",
"3  c #382826",
"4  c #293729",
"5  c #3C3628",
"6  c #2A2A33",
"7  c #3B3635",
"8  c #302A2F",
"9  c #4C1613",
"0  c #452819",
"q  c #552618",
"w  c #48371A",
"e  c #4B2710",
"r  c #6B2919",
"t  c #763214",
"y  c #481E24",
"u  c #531F23",
"i  c #462827",
"p  c #562A29",
"a  c #4B3C2C",
"s  c #473528",
"d  c #533C2B",
"f  c #583A28",
"g  c #492C32",
"h  c #453C32",
"j  c #4B3D33",
"k  c #483535",
"l  c #533C34",
"z  c #583936",
"x  c #5C2D37",
"c  c #752B29",
"v  c #653A2C",
"b  c #663D3A",
"n  c #6D2E2A",
"m  c #681E1C",
"M  c #184F30",
"N  c #314E31",
"B  c #196E3A",
"V  c #2B6B3D",
"C  c #39461B",
"Z  c #4E431D",
"A  c #4C432B",
"S  c #47452A",
"D  c #57452A",
"F  c #4C4333",
"G  c #484737",
"H  c #534334",
"J  c #594737",
"K  c #5B5539",
"L  c #4A5534",
"P  c #664838",
"I  c #685839",
"U  c #765B3A",
"Y  c #684D29",
"T  c #4C693A",
"R  c #69623B",
"E  c #716539",
"W  c #182E55",
"Q  c #373744",
"!  c #2C2F53",
"~  c #1C3570",
"^  c #26377A",
"/  c #2B3366",
"(  c #211A4B",
")  c #48324C",
"_  c #403F61",
"`  c #324D53",
"'  c #1F764E",
"]  c #376845",
"[  c #2F704B",
"{  c #314A6F",
"}  c #2F6F66",
"|  c #1D4C4F",
" . c #56484A",
".. c #44584A",
"X. c #53524D",
"o. c #675A44",
"O. c #765A44",
"+. c #6D4F4E",
"@. c #456747",
"#. c #4A7849",
"$. c #476D59",
"%. c #6F6547",
"&. c #56516C",
"*. c #716E70",
"=. c #4B6C69",
"-. c #953A19",
";. c #8B311B",
":. c #883628",
">. c #90322D",
",. c #AB3E2C",
"<. c #AB3C18",
"1. c #8D4533",
"2. c #9B5B37",
"3. c #904C2B",
"4. c #AC4933",
"5. c #B1492C",
"6. c #9E4B1D",
"7. c #CA5330",
"8. c #D46836",
"9. c #E96E3B",
"0. c #E25F27",
"q. c #8E544F",
"w. c #916F52",
"e. c #B5704F",
"r. c #8C6F68",
"t. c #A66560",
"y. c #D27147",
"u. c #E87448",
"i. c #F17247",
"p. c #CC6F61",
"a. c #872A70",
"s. c #3B853A",
"d. c #288C53",
"f. c #399555",
"g. c #318C52",
"h. c #38A55A",
"j. c #369866",
"k. c #37A467",
"l. c #37B768",
"z. c #39BA75",
"x. c #35A77B",
"c. c #469A59",
"v. c #488958",
"b. c #479566",
"n. c #45A76C",
"m. c #46B779",
"M. c #4BB172",
"N. c #71B36F",
"B. c #5DAA63",
"V. c #3AC774",
"C. c #49C579",
"Z. c #48D67B",
"A. c #48CA70",
"S. c #4CFE7B",
"D. c #4AE77A",
"F. c #A98358",
"G. c #9A8578",
"H. c #B38A67",
"J. c #CB9774",
"K. c #DCA87A",
"L. c #E79065",
"P. c #343B96",
"I. c #344893",
"U. c #314EAF",
"Y. c #1F5287",
"T. c #70718E",
"R. c #4E5E9A",
"E. c #3859C9",
"W. c #385FE2",
"Q. c #425ACC",
"!. c #626FD2",
"~. c #A767A3",
"^. c #C47DBF",
"/. c #CA2FD8",
"(. c #B354CB",
"). c #B269CD",
"_. c #C547CE",
"`. c #3EA185",
"'. c #799797",
"]. c #4AB583",
"[. c #76B1A7",
"{. c #6A9494",
"}. c #3FE889",
"|. c #4BCC83",
" X c #4AD886",
".X c #53DA8A",
"XX c #57D38E",
"oX c #73D594",
"OX c #4AE688",
"+X c #54E889",
"@X c #4CFD8C",
"#X c #49FA89",
"$X c #53FE8C",
"%X c #5AFC8D",
"&X c #55F888",
"*X c #57EB96",
"=X c #4BF694",
"-X c #46FD93",
";X c #4DFE94",
":X c #45FE9B",
">X c #4DFE9A",
",X c #4EF19C",
"<X c #54F594",
"1X c #5BF594",
"2X c #52FF94",
"3X c #5AFC94",
"4X c #54F59B",
"5X c #5CF49A",
"6X c #53FD9A",
"7X c #5BFB9B",
"8X c #4EE89B",
"9X c #61FB8D",
"0X c #68E899",
"qX c #62F49A",
"wX c #64F998",
"eX c #71F39E",
"rX c #78C8A8",
"tX c #6BD6A7",
"yX c #74CFAD",
"uX c #4BFEA2",
"iX c #4AFAA9",
"pX c #55FEA2",
"aX c #5BFAA1",
"sX c #5EE8A7",
"dX c #68EAA4",
"fX c #78E8A8",
"gX c #70F6A7",
"hX c #748BCE",
"jX c #8F8A97",
"kX c #B08E8A",
"lX c #B0AE96",
"zX c #8A8DBA",
"xX c #8E95AC",
"cX c #AC9CA6",
"vX c #8AA7B3",
"bX c #B1B4B2",
"nX c #D0988E",
"mX c #D1AD92",
"MX c #EDB494",
"NX c #EFBDAC",
"BX c #C6ACAB",
"VX c #8AD1AF",
"CX c #9AE1BF",
"ZX c #F1CCB3",
"AX c #8D97C7",
"SX c #AEBAC8",
"DX c #9A9AD4",
"FX c #C880C2",
"GX c #B4C4D2",
"HX c #A7CFD3",
"JX c #CAD2CF",
"KX c #F9D5C8",
"LX c #F3D1C8",
"PX c #FCE2CB",
"IX c #CED3E9",
"UX c #E5E5E7",
/* pixels */
"2X2X2X2X2X2X2X2X2X2X;X2X2X2X2X2X>X;X@X;X3X3X;X:XAX/._.oX%X2X;X-X:X<X7X4X=X6X7X2X@X&X1X2X-X;X3X7X%X2X>X6X3X<X;X:X-X>X;X@X$X@X$X@X",
"2X2X2X2X2X2X2X2X2X2X2X2X2X2X2X2X;X<X;X;X3X3X4XpX[.(.^.oX#X@X*XyXtX<X$X5XpX6X%X3X3X&X<X<X;X2X2X2X2X2X6X6X2X$X@X;X>X6X3X2X$X$X;X;X",
"2X2X2X2X2X2X2X2X2X2X2X2X2X2X2X2X@X3X3X2X2X2X1X>XsXrX[.0X$X$X[.).).tX;X3X7X3X%XwXeXqX6X6X7X2X;X-X6X6X6X6X;X@X$X$XpX7X5X1X1X4X2X:X",
"2X2X2X2X2X2X;X2X2X2X2X2X2X2X2X2X$X3X3X$X$X&X2X:X6X:X$X%X$X$X[.).(.'.Z.Z.|.A.A.XXoX*X>X6X7X;X;X;X>X2X2X2X@X@X$X&X6X6X7X4X7X7X2X4X",
"2X2X2X2X2X2X2X2X2X2X2X2X2X2X2X2X6X6X2X2X&X&X2X-XuXuX>X;X@X#X0XrXjX$...] $.] ] ..#.|.,X:X;X;X>X2X>X;X;X;X$X$X$X2X2X2X;X;X;X2X<X5X",
"2X2X2X2X2X2X2X2X2X2X2X2X2X2X2X2XpX>X2X2X$X%X+XZ. X XOX-X;X2X<X+Xl...y i i i 3 1 : n.pX:X=X;X2X3X2X2X>X2X$X&X2X2X2X;X-X-X>X;X1XqX",
"2X2X;X2X2X2X2X2X2X2X2X2X2X2X2X2X6X:X>X>X2X<XC.v.T ] k.D.2X2X Xf.T  .z P Y P l $ = b.aX6X$X<X;X;X2X4XaX<X%X%X$XpX<X2X;X@X;X;X4X5X",
"2X2X2X2X2X2X2X2X2X2X2X2X2X2X2X;X<X;X;X2X2X4Xn.s < # ..B.D.D.M.L e P O.2.U I A # o g..X4X3X$X@X>X$X5XsX0X&X&X$X7XpX2X2X<X@X2X5XaX",
"2X;X2X;X2X;X2X;X2X2X2X6X2X2X2X2X2X#X;X:X2X2XM.x u p J T $.$... .J I E I J 7 = o @ N =.C.$X%X3X$XaXvX).[.&X%X2X2XuX>X1X%X-X-X5XaX",
"2X2X2X2X2X2X2X2X2X2X6X2X2X2X2X2X3X@X#X XOX.Xv.Q p P P 5 = 8 h P E I K H 3 o O X = y j b.+XOXOX&XiXAX(.).+XS.2XaXiXuX2X2X-X;X7X7X",
"2X2X2X2X2X2X2X2X2X2X2X2X@X2X2X2X3X;XV.B V V G 7 i J K J h # 0 I U D ; = o % = w s 0 i G $.[ B V.:XyXvXrX1X&X2X:XpX>X2X7X2X6X&X#X",
"2X2X2X2X2X2X2X2X2X2X2X2X2X2X2X<X-XZ.g.*   # i 3 5 5 L o.I - - I I w = + @ 5 L L D Z 5 5 3 $ * '  X8X<X<X7XpX6X$X@X$X3X3X7X$X&XS.",
"2X2X2X2X2X2X2X2X2X2X2X2X2X2X2X=Xz.B 4 i y i i g k 5 C F H s f P D A 3 i i j K K K Z w f i 3 = 4 [ z.;X6X4X>X;X$XS.&X%X%X3X&X@X@X",
"2X2X2X2X2X2X2X2X2X2X;X2X2X2X3X#Xg.& = k x x z f g i 5 G j l z f d A F z b P R R K Y D D d l 7 = O ' .X;X=X<X-X4X+X*X2X@X$X@X@X<X",
"2X2X2X2X2X2X2X2X2X2X2X2X2X2X3X=XA.d.N = = i h f J H H K K H A a A S F J U U I R R o.X.J f z H 5 : C s.M.=X<XaXyXzX[.0X>X=X<X;X6X",
"2X2X2X2X2X2X2X2X2X2X2X;X<X2X2X$X6XOX[ X X 3 s S H I U I I D d D a G G I U U U U %.%.+.P d a H s ; ; : c.+X@X4XvX/.~.yX7X<XaX6X$X",
"@XaXgXfXwX$X2X7X;X#X#X7X7X2X>X2XZ.c. .q t t f s j H I U E I Y K K K K U U E R R %.o.P J l k i ; ; N c.A.<X>X4XrXzXvXdXtXzXzXsX7X",
"2XdXVXVXeX3X;X6X2X$X@X$X1X2X>X+Xb.5 n 4.5.5.c p i a K Y I R I I O.I I U 3.R R %.o.J H j a s - # s #.A.#X=X6XpX4X*X*X3XvX(.(.rX$X",
":XqXfXfXeX6X:X-X;X$X$X$X2X;XV.b.J c t.J.H.2.3.c n f D P K K I U 1.%.E O.E I K K K H l F S s i i p V g.V.>XpX6X2X&X$X2XtXAXAXtX2X",
"uX>X2X<X2X7X>X:X-X;X3X$X$X}.f.w t 4.nXLXlXE 3.5.1.b l H A J P U U U O.o.o.K J J D v z l h j j l a 5 % V OXuX*XqX%X3X2X;X8X,X>X:X",
"wX2X#X@X2X7X7X4X;X2XpX1XC.f.T -.<.u.MXUXbXI t 4.1.z k h F l b P P I o. .X.H a d f v v h k k h G a 3 # C d.z.8XpX2X@XS.S.-X:X:X>X",
"7X%X%X$X2X2X6X7X1XaXpX*Xf.S 3.9.i.i.MXPXlX .c 3.t i 6 7 G j j J J J J H G h h a l f f s 5 5 h S j a s = * ' 8X;X1X1X&X&X:XuX2X;X",
">X2X3X2X@X;X>X2XaX7X>XOX[ @ >.9.i.i.L.mXkXr.q.5.:.y 8 j S a j G H d A S N g g j H d s w ; 5 s s ) A f y O ' +X2XpX4X1X<X>X2X1X2X",
"}.:X:X2X2X$X1X1XuX6X2XD.B o Y 8.9.i.8.e.~.lX~.7.;.u i d Z d l F G A D S S 3 i l J a h C C w 0 p H J H i = [ OX7X$X$X2X>X6X1XqX&X",
"@X2X6X6X;X@X$X$X6X>X7X0X` o r 7.9.9.0.7.p.BXp.7.<.t x p s a H A A D D a j s i s g j a S N w w g f i k s w N f.A.#X>X$X7XpX6X1X&X",
";X2X7X6X@X@X@X$X2XaXgXrX] O m <.0.9.9.y.y.y.p.7.5.5.:.q s j A A f f l F l d i i y x v A S S a i 0 3 - s s 3 & B Z.@X$X;X2X2X$X#X",
"3X3X2X2X;X@X@X;X2X5XgXfXb.] w t <.8.i.u.u.u.9.7.7.7.-.q 3 3 s S D f a a F A a i 7 g p D S F l i # h ] L G $   M Z.2X@X@X2X<X$XS.",
"3X4X2X2X>X;X;X<X$X%X9X1XOXm.@.# r 4.8.8.u.u.y.y.7.7.-.q X   @ 7 A A s s 7 7 h F h g 3 s S D x i i $.C.v.7 .   B V.2X-X;X6X<X=X#X",
"2X2X;X>X>X6X6X7X&X&X$X;X2X4Xk.M s r -.2.2.2.2.4.5.,.>.m $   O 7  .G s d g 6 4 5 0 3 < 5 A d g G @.M.7Xm.@.N V d.}.6X@X@X3X<X;X-X",
"uX2X;X;X>X6XpX7X$X$X<X=XpX2XD.l.T $ + 9 - w w r :.>.>.;.u . O 7 S F l b k @ o $ e # - s A - 4 @.C.+X7X5XXX|.m..XiX6X2X$X3X%X;X2X",
"6X6X2X2X>X6X6X7X2X@X<XaXpX;X;X;Xk.M * , # K o.+.b n c t.q.u 1 - ; h j z g o . + q q q d j 7 ] M.;X;X$X:X2X<XuXfXVXyXwX2X%X3X2X3X",
">X2X2X$X<X;X2X2X3X%X9XgXaX-X6XaXOXC.[ 8 U H.mXmXr.i &.BXnX1.9 . @ 5 A D s O . 9 c ,.3.n j =.m.#X<X@X&X2X&X3XpXVX^.vXtX:X;X;X;X<X",
"2X2X$X2X$X2X2X2X2X2XwX7X4X>X2X7X3X;Xc.D r.ZXPXPXG.= T JXLXe.t + X ; A s 6 o $ m >.<.>.m g b.<X;X#X@X2X$X;X}.aXVXcXvX0X6X-X;X6X;X",
"2X2X2X@X2X2X2X2X;X3X3X7X2X>X;X2X6X2Xc.L w.ZXPXZXr.= ..JXPXJ.2.#   s h @ $ y c >.>.r q 9 u v.&X2X2X;X2X3X$X2X7X0XVXyXqX2X2X2X<X3X",
"2X2X2X2X2X2X2X2X2X2X7X6X6X2X2X2X2X1XA.E t.ZXPXKXkX .*.JXLXmXF.Y - 5 3 . + p >.>.:.u = s X.B.S.;X;X>X2X<X$X$X3X2X3X$X$X2X;X>X2X$X",
"2X2X2X2X2X2X2X2X2X2X2X2X2X;X2X3X;X3XG.H.nXZXZXZXNXmXbXZXZXmXH.H.%.- O   . y v b w y 7 } C.+X2X2X;X;X2X;X;X>X2X2X;X2X<X2X6X>X2X$X",
"2X2X2X2X2X2X>X2X2X2X2X2X2X2X2X2X@X2XoXlXmXmXMXMXZXKXZXZXMXJ.F.H.w.3     X = s H &.) @.m.4X7XwXwXqXqX2X:X2X2X;X>XuX2X6X2X2X3X2X1X",
"2X2X2X2X2X2X2X2X2X2X2X;X2X2X2X2X$X$X9XoXN.w.e.K.NXKXLXMXJ.F.E O.k 0 # # - X 1 a.~.jX].OX@X@X3X0XVXfX7X2X2X7X2X@X2X;X2X$X2X2X2X:X",
"2X2X2X2X2X2X2X2X2X2X2X2X2X2X2X;X$X;X2X$XB.T E w.nXBXnXJ.w.E j 8 < # - p S & 7 ~.^.vX>X@X@X#X2XfXCXfX4X2X3X2X2X$X$X2X2X;X2X2X>X:X",
";X2X2X2X2X2X2X2X2X2X2X2X2X2X2X;X4X;X-X@XD.A.v.A p ) +.U Y : = ( ( O X 3 S s.h.{.VX0X$X>X>X;X7XdXfXgX2X$X2X-X>X7X2X2X6X>X2X2X%X%X",
"2X2X2X2X2X2X2X2X2X2X2X2X2X2X2X2X$X;X6X2X6X6Xj.% . @ < d - X > ~ P.( O O N l.&X9X9X;X>X2X2X6X1X2X$X2X2X2X2X;X>X6X2X2X2X2X2X2X2X2X",
"2X2X2X2X2X2X2X2X2X2X2X2X2X2X2X2X$X2X5X7X6X=Xd.* $ O.+.k < > W P.U.P.~ > & l.3XgXeXgX2X#X@X7X6X;X;X;X2X2X2X2X2X2X2X2X2X2X2X2X2X2X",
"2X2X2X2X2X2X2X2X2X2X2X2X2X2X2X2X2X6XaX7X>X=Xk.M a r.r.) ! ( ^ U.E.W.U.( 2 h.8XrXVXdX$X@X<XpX7X6X;X;X2X2X2X2X2X2X2X2X2X2X2X2X2X2X",
"2X2X2X2X2X2X2X;X2X2X2X2X2X2X2X>X6X6X6X6X2X;XZ.h.#.K ) / ~ ~ ~ P.P.E.E.P.~ | ] &.{.|.$X%X7XqXqX7X;X;X;X2X2X2X2X2X2X2X2X2X2X2X2X2X",
"2X2X2X;X2X2X2X2X2X2X2X;X2X2X2X2X7X;X:X@X$X3X3X1Xf.* > { R.I.{ ! / I.U.E.I.( . ( { x. X6XaXqXqXqX2X>X2X2X2X2X2X2X2X2X2X2X;X2X2X2X",
"2X2X2X2X2X2X2X2X2X2X2X2X2X2X2X2X2X;X-X@X=X$X3X1Xl.W { xXvXAXR./ ~ ^ P.P.Y.O , &.T.=.j.|.<X3X9X1X6X6X2X2X2X2X2X2X;X2X2X2X2X2X2X2X",
"2X2X2X2X2X2X2X2X2X2X2X2X2X2X2X2X2X2X;X;X;X2X2X2Xb.&.T.HXUXIXzXR./ W ! / ( , y *.xX&.` x.;X&X%X2X2X6X2X2X2X2X2X2X2X2X2X2X2X2X2X2X",
"2X2X2X2X2X2X2X2X2X2X2X2X2X2X2X2X2X3X3X$X>X:X2X3X].` P.hXHXIXIXAXT.Q 8 +.*.q.+.X.&./ { `.=X$X%X$X=X2X2X6X2X2X>X2X2X2X2X2X2X2X2X2X",
"2X2X2X2X2X2X2X2X2X2X2X2X2X2X2X2X2X&X1X3X:XuXpX6Xm.` P.U.hXIXUXGXxXX.P w.H.J.e.t % 2 W x.4X7X2X$X4X4X2X2X;X2X2X2X2X2X2X2X2X2X2X2X",
"2X2X2X2X2X2X2X2X2X2X2X2X2X2X2X2X;X2X3X2X>X6XpX7X Xk.} Y.U.AXDXDXzXcXG.r.q.e.e.w.X.Q 2 x.4X<X;X3X5X4X2X2X2X2X2X2X2X2X2X2X2X2X2X2X",
"2X2X2X2X2X2X2X2X2X2X2X2X2X2X2X2X;X;X;X<X2X7X7X6X2X}.z.| Y.U.Q.!.hXJXBX*.v -.y.K.mX .* d.<X6X6X2X7X7X2X2X2X;X2X2X2X2X2X2X2X2X2X2X",
"2X2X2X2X2X2X2X2X2X>X2X2X2X2X2X2X2X;X;X$X2X3X2X;XpX}.z.| / R.hX!.DXIXbX .# q.K.ZXNX+.% d.<X6X>X6X2X6X2X2X2X>X2X2X2X2X2X;X2X2X2X2X",
";X2X2X2X2X2X2X2X2X2X2X2X2X2X2X2X2X2X2X2X$X&X=X2XpXiXn.4 Q xXGXSXSXGXvXQ 3 t.ZXZXlX .* d.=X7X6X7X2X2X2X2X2X2X2X2X2X2X2X2X2X2X2X;X",
"2X2X2X2X2X2X2X2X2X2X2X2X2X;X2X2X<X2X6X2X$X$X2XpX Xf.$.X.*.bXGXbXbXvXxX*. .*.G.r.*.7 2 j.=X7X6X<X;X2X@X2X2X2X2X2X2X2X2X2X2X2X2X2X",
"2X2X2X2X2X2X2X;X2X;X2X2X2X2X2X2X2X6X7X2X@X$X4X*Xk.M 7 '.SXGXSXbXlXxXxXjX*.z @ X = > ` n.@X;X>X<X;X;X2X2X2X2X2X2X2X2X2X2X2X2X2X2X",
"2X2X2X2X2X2X2X2X2X2X2X2X2X2X2X2X>X6XpX6X2X3XOXz.} > ! T.{.hXjXjXjX*.X.&. .1 .   X , 2 j.=X2X>X2X;X;X;X2X2X2X2X2X2X2X2X2X2X2X2X2X",
"2X2X2X2X2X2X2X2X2X2X2X2X2X2X2X2X:X2X6XpX6X#XV.} Q ( ! ! / / =.T.*.Q , X o 1 1 9 # . * f.=X;X-XpX3X3X2X2X>X2X2X2X;X2X2X2X2X2X2X2X",
";X2X2X2X2X2X2X2X2X2X2X2X2X2X2X2X>X2X6X6XZ.h.#.S x x ) ! W W ! &...` M B M = + + @ 4 [ z.<X2X3X1X2X2X2X2X2X2X2X2X2X2X2X2X2X2X2X2X",
"2X2X2X2X2X2X2X2X2X2X2X2X2X2X;X2X$X<X;X#Xh.M e -.-.>.x ! / ^ W 2 M b. XOXk.M     * }  X4X7X7XwX9X<X2X2X2X;X2X2X6X2X2X2X2X2X2X2X2X",
"2X2X2X2X2X2X2X2X2X2X2X2X2X2X2X2X3X4X>X@Xl.B S ;.-.-.>.b ! / W M d.Z.pX>XOXd.M M ' C.pX7X7X7XwX9X6X2X2X2X2X2X2X2X2X2X2X2X2X;X2X2X",
"2X2X2X2X2X2X2X;X2X2X2X2X2X2X2X2X1X6X>X;X+X|.v.s m ,.7.4.c 1 W j.OX3X#X@X@XOX|.Z..X<X$X<X4X7X7X1X2X2X2X2X2X2X2X2X2X2X2X2X2X2X2X2X",
"2X2X2X2X2X2X2X2X2X2X2X>X2X2X2X2X2X2X;X>XpXwXC.$.J v ;.;.n 7 d.D.<X%X$X@X-X-X7XaXaX2X&X<X<X;X>X6X6X6X6X2X2X2X2X2X2X2X;X2X2X2X2X2X",
"2X2X2X2X2X2X2X2X2X2X2X2X2X2X2X2X2X$X2X7X7X2X*XXXg.& . . C f.Z.#X2X%X%X<X:X>X3X6X7X3X<X3X2X$X2X2X6X2X2X2X2X2X2X2X2X2X2X2X2X2X2X2X",
"2X2X2X2X2X2X2X2X2X2X2X2X2X2X2X2X$X3X2X2X$X2X6X:X].` Q M d.D.;XpX;X$X3X>X:X2X%X3X3X7X4X;X$X%X3X;X>X2X2X6X2X2X2X2X2X2X2X2X2X2X2X2X",
"2X2X;X2X2X2X2X2X2X2X2X2X2X2X2X2X2X2X>X>X;X@X;X2XsX[.{.V.D.S.9X3X7X2X7X6XuX:X;X2X$X;X-X$X$X;X>X>X<X2X2X2X2X2X2X2X2X2X2X2X2X2X2X2X",
"2X2X2X2X2X2X2X2X2X2X2X2X2X2X2X2X2X2X>X;X;X;X;X;XfXCXCXeXS.9X3X3X6X4X7X>X>X:X;X2X%X;X>X$X$X;X>X2X@X2X<X2X2X2X2X2X2X2X2X;X2X2X2X2X"
};
