/* XPM */
static char *nate_f31650476114[] = {
/* columns rows colors chars-per-pixel */
"64 64 256 2 ",
"   c #150A05",
".  c #1A1407",
"X  c #160A14",
"o  c #1B1615",
"O  c #090D12",
"+  c #2A1909",
"@  c #251A16",
"#  c #371A18",
"$  c #2D0C0C",
"%  c #1D2719",
"&  c #093919",
"*  c #183819",
"=  c #0D2A15",
"-  c #282719",
";  c #352617",
":  c #39341B",
">  c #2E3A16",
",  c #101430",
"<  c #371924",
"1  c #28162A",
"2  c #1A3A26",
"3  c #162E31",
"4  c #292925",
"5  c #3A2727",
"6  c #263726",
"7  c #383829",
"8  c #392933",
"9  c #2A3738",
"0  c #3A3937",
"q  c #2A2634",
"w  c #481815",
"e  c #49331B",
"r  c #4C2C17",
"t  c #69301C",
"y  c #471229",
"u  c #472826",
"i  c #483728",
"p  c #543A29",
"a  c #492636",
"s  c #4A3935",
"d  c #553935",
"f  c #552C2D",
"g  c #653A26",
"h  c #653835",
"j  c #73362B",
"k  c #14492A",
"l  c #284635",
"z  c #374733",
"x  c #385535",
"c  c #314B2C",
"v  c #197038",
"b  c #2D703C",
"n  c #134619",
"m  c #494528",
"M  c #59462B",
"N  c #484537",
"B  c #574536",
"V  c #5A5638",
"C  c #4A5234",
"Z  c #674628",
"A  c #654637",
"S  c #695A39",
"D  c #6F5636",
"F  c #686437",
"G  c #6F6433",
"H  c #4F5227",
"J  c #132B53",
"K  c #282A48",
"L  c #30314D",
"P  c #15336B",
"I  c #341E57",
"U  c #4E3847",
"Y  c #55355C",
"T  c #324D48",
"R  c #296843",
"E  c #2F7348",
"W  c #236155",
"Q  c #484C43",
"!  c #574947",
"~  c #495C45",
"^  c #55524E",
"/  c #654845",
"(  c #695646",
")  c #73564B",
"_  c #506F4E",
"`  c #696344",
"'  c #776447",
"]  c #6E6B57",
"[  c #51526F",
"{  c #685967",
"}  c #536A6C",
"|  c #706F70",
" . c #923E2F",
".. c #AA3C2D",
"X. c #973B1D",
"o. c #934E1A",
"O. c #B14E18",
"+. c #8D4C30",
"@. c #A64735",
"#. c #BB5536",
"$. c #B14D2E",
"%. c #BC663B",
"&. c #88653F",
"*. c #C35133",
"=. c #D06838",
"-. c #E16F3D",
";. c #952563",
":. c #90424D",
">. c #A7574B",
",. c #906D52",
"<. c #B36F4B",
"1. c #957672",
"2. c #AE7664",
"3. c #D47050",
"4. c #EA744A",
"5. c #DF6F65",
"6. c #358D53",
"7. c #34A354",
"8. c #329567",
"9. c #38B16E",
"0. c #499358",
"q. c #44A55E",
"w. c #4F9A6B",
"e. c #70966C",
"r. c #4CB473",
"t. c #67AF7C",
"y. c #38C76C",
"u. c #3BC876",
"i. c #37D578",
"p. c #3EE77A",
"a. c #31C45C",
"s. c #47C778",
"d. c #57C777",
"f. c #47D57A",
"g. c #4ACD6C",
"h. c #62C87E",
"j. c #4BFF7C",
"k. c #4BF078",
"l. c #978770",
"z. c #B48E6E",
"x. c #9F8359",
"c. c #D18F6E",
"v. c #E9906B",
"b. c #E19367",
"n. c #163886",
"m. c #2B3B87",
"M. c #124388",
"N. c #304B8F",
"B. c #356493",
"V. c #3559AD",
"C. c #3860B8",
"Z. c #485387",
"A. c #634781",
"S. c #566A8F",
"D. c #4A58AE",
"F. c #5E72AC",
"G. c #7246B7",
"H. c #86768E",
"J. c #B864BB",
"K. c #DA2FDE",
"L. c #B36FCC",
"P. c #AB34BE",
"I. c #76888D",
"U. c #76B08F",
"Y. c #6F85AB",
"T. c #75B6B2",
"R. c #3ED384",
"E. c #3DFE97",
"W. c #3FFF8D",
"Q. c #48C785",
"!. c #59CA85",
"~. c #45D685",
"^. c #58D489",
"/. c #5ADB98",
"(. c #6CCF8D",
"). c #49EB86",
"_. c #57EC89",
"`. c #4BF58C",
"'. c #44FD8D",
"]. c #4CFC8D",
"[. c #49F886",
"{. c #53F48C",
"}. c #53FD8C",
"|. c #5BFB8D",
" X c #56F987",
".X c #57ED94",
"XX c #4DF494",
"oX c #45FD94",
"OX c #4DFD94",
"+X c #44FE9A",
"@X c #4CFD9A",
"#X c #45F591",
"$X c #54F693",
"%X c #5BF494",
"&X c #52FE94",
"*X c #5BFB95",
"=X c #5CF49B",
"-X c #53FD9B",
";X c #5BFC9B",
":X c #54F699",
">X c #4FEE9A",
",X c #65F88C",
"<X c #65EC9D",
"1X c #6BEC99",
"2X c #76EC9B",
"3X c #62F594",
"4X c #62FA94",
"5X c #63F59C",
"6X c #62FB9C",
"7X c #6AF798",
"8X c #65EA8A",
"9X c #77CCAD",
"0X c #4AFEA3",
"qX c #54FDA3",
"wX c #5BFCA3",
"eX c #59F8A7",
"rX c #5BEFAB",
"tX c #68EAA6",
"yX c #76E9A8",
"uX c #62FDA3",
"iX c #66F7A6",
"pX c #77E6B6",
"aX c #6FF3AB",
"sX c #728FCA",
"dX c #8D8A8D",
"fX c #B28C8A",
"gX c #8C99B0",
"hX c #8DB0AF",
"jX c #B3B3B9",
"kX c #A9A998",
"lX c #CE9991",
"zX c #CFAE99",
"xX c #EFB696",
"cX c #CDB2AD",
"vX c #E1B0AD",
"bX c #8CD0AF",
"nX c #AFC3B1",
"mX c #88E8AE",
"MX c #8AD89C",
"NX c #F1CE9E",
"BX c #D5CAB5",
"VX c #F5CBAA",
"CX c #FED8BA",
"ZX c #F4C9B1",
"AX c #F8E3BB",
"SX c #B5B4CA",
"DX c #BFBBE2",
"FX c #96A9D9",
"GX c #C0AAC1",
"HX c #B5C5CD",
"JX c #90DFCB",
"KX c #C8CCCB",
"LX c #FAD8C8",
"PX c #EBD2CB",
"IX c #ECF2F0",
"UX c #DBE1E5",
/* pixels */
"-X%X<X.X%X$XXX=X{..X.X:X.XXXXX.X{.`.:X`.`. X}.XXXX].}.`.}.=X.X=X{.{.k.[.OX`.[._.|.{.|.{.[.`.{.OX-X=X.X.X>XXXXXOX$XXX$X%X$X%X8X`.",
"uXuX-X&X;X;XOX{.*X*X@X@X$X.X#X#X$X$X*X{.=X=X;X;X,X|.eXiX-X*XiX#X`.`.[.}.=XiXwX-X-X-X=X=X-X;X%X$X-X:X:X$X:XXXXX:X$XOX*X*X-X*X;X=X",
"W. Xj.j. X}.&X6X&X&XoXoX:X*XXX#X0X{.{.{.*X@X-X}. Xg.c T !.6XwX*XOXiXmXhXC @ @ ; + + ; x r.*X*X&XOX&X*X@X@X+X&X&X*X-X&X Xj.j.].+X",
"T.9X8Xj.[.'.OX*X].&XoXOX;X*X&X:XtXtX2X<X;XOX&X).f.w.B U w.~.&Xj.^.!.U.e./ f i i 7 ; - c d.6X&X}.OXOX&X*X&XOX&X&X*XOX[.[.j._.9XT.",
"K.L.9X0XOX{.`.$XOX*X=X;X;X;X=X<XjXSXHXpXiXoXoXR.0.0 B V x 6.k.h.6.T ^ / B M ) D ! i + l r.qXOXOXoXOX*X6X6X*X&X&X].].}.OX@X9XL.K.",
"K.L.T.@XOX*X-X;XOX=XuXwX;X-X;X<XSXSXJX9XiX*X-XQ.T < Z Z u ~ 0.w.N ; u d D ( ) / A i u ~ Q.-XoXW.OX&X:X3X;X;X*X&X-XOX:X&X0X9XL.K.",
"T.9X1X&X&X*X@XqXOX$XXX@X-X-XOX=XyXMXtX3X,X X*Xd.E 4 M Z / V C c i i B S ` ` ! d o z e.U.tXqX&X].OX:X&X&XOX@XOX&XqX@X:X*X:X<XbXhX",
" X}.OXOX6X6X-X@XOX].oXE.OXOXoXXX&X7X4X Xg.y.y.9.x : i p D d : : H V F ` ` C 8 1 o K | hXaXwX*X}.@X@XOXE.+XoXXX:X-X-X3X=XoXoXOXXX",
" X`.0XrXpXyX4Xj.;X*X'.OX&X}.OX*X[.].:Xh.6.c Q Q z 7 5 i M M u a M G G V s 5 @ . @ # U } h.7X*X@X3X&X}.|.].'.@XOXj.%XpXpXrX0XoX|.",
",X$XrXtXpXaX%X[.{.&XOX;X3X_.*X Xp.i.s.w.m # # u m m i i m p u a A D G M i 5 # @ a # : C 0.h.Q.~.}.-X4X7X;X-X*X%X[.*XaXpXrXeX%X,X",
"&X1XmXpXrXeX-X,X}.&XOX6X2XaX6Xf.0.c c N i f f d V V A M d s i p h d M M A A B p i r e m H z R E p.-XuX2X6X$X{.|.|.*XeXpXmXyX1X*X",
"&X5XmXpXrXqX&X*X|.%X;XuXaX1XQ.7.: - # u f / / ( ' G S S B B M M B B M D F ' ' ' M Z M p e ; 1 l 6.s.2XaXuX;X=X;X,X].@XiXpXmX2X&X",
"}.*XiXaXeX:X].}.XX@XoX:X6X^.E = + w u d s B ( ( ) &.' ' ) ( ( G ( ( D D F F ` ' G Z h U M u # 1 4 R Q.6X&XoXOX0X].].:X=XtXiX;X].",
"[.OX=XwX&X].].&X0XqXOX`.d.7.2 $ # i p s 0 7 V V D ) D ' ' ' ' G ` ` S G F F ` ( H Z U s M e u < $ 2 6.s.`.@X@X0X'.'.].&XeXqXOX[.",
"}.OXE.+X&X,X&XoX{.;XuXs.E * - w 6 z N 7 @ . ; d B A D S ` ( S S ` ` ` F F F C U C : o % > H e z u - 2 b !.uX3X%X&X}.'.}.-X-XOX[.",
"|.OX+XOX}.}.&XOX}.OXwXQ.R l R _ 0 : f u @ % - 7 p M M V S S S S S ^ ~ S G Z p 0 9 4 . . r e m > ~ R l b Q.qX#X}.-X&X}.&X@X@X&X|.",
"OX*X@XoX:X*XOX*X&XOXOX.Xg.s.^.9.2 X # f u i 7 0 N d h A M V V h M M M Z M B N Q 0 7 7 r r w o l 9.^.d.g.`.+X-X*X&XOX*X$X+X@X-X*X",
"&X-X:XOX:X&XOX*X*X&X#X'.&X&XR.7.k O ; u i B B i d a g g t Z A / A g j t h d s s p M M e p 5 O 3 7.R.&X'.'.[.&X:X&X&X*X:XOXXX-X-X",
"-X-X:XOX'.OX&X;X].&XoX'.*Xd.b n 6 2 5 i p V M p 8 a d Z Z o.$.:.@. .@.o.A i 8 a t Z Z e p s 6 9 * b f.].OX&X@XOX;X:XOX'.].&X-X-X",
"-X@X:X{.'.'.$X;X&X].'.).^.w.> . 0 i M p M M e e y h j  .o.O.3.5.5.3.$.o.D h f w i i B M p B i 7 . * w.^.).[.OX*X;X*X'.W.$X:X@X-X",
"OXOX*X*X'.'.*XqX*X;XqX~._ 0 @ 8 i A A M B i ; e +.o.....o.<.zXLXPXzX<.o.......X.e - s B p B A e 5 @ 7 _ ~.0X6X6X;X$X].'.*X*XOX@X",
"`.OX*X*X].}.*X-X].#X@XQ.T y < a i B M p N u r t O.O.*...#.z.cXNXKXzXx.<.O.O.*.O.t r u s s d B p a < y N R.E.XX-X*X&X].].&X*X&XOX",
"].}.OX&X4X|.&XOX&XwX0XR.0 X 4 7 m d d s u f j ..$.$.$.>.2.lXz.e.{ 1.fXc.%.O.$.$.$.j f 8 s d s s 0 - $ 0 Q.0X-X@X].].*X*X&X&X{.].",
" X|.OX].7X7X].'..X.XR.8.4 + c m N i d s < y :.#.*.#.O.%.lXGXl._ [ { H.lX3.O.$.#.*.@.f # d d i N m c o 2 8.Q..X-X].].4X7X&X}.}.}.",
",X&X0XeXaX2X4Xj.].s.b * 6 7 i m A i M e X #  .#.O.O.*.-.b.c.jXFXgXfXc.b.3.*.*...*. .w   m M M B m 7 7 3 % b g.}.j.|.2XaXwX0X-X3X",
"}.OX@XiXmXMX2X X&Xy.v n x T N d h p S A 5 < t ..O.*.-.-.-.5.lXvXcXlXb.4.4.3.=.....j < # A F p h f N ~ x k v y.&X X1XMXmXiX0X@X*X",
"'.OX-XqXqX-X*X6X*X).y.9.^.t.z y w N x.,.V ; + w O.-.-.-.-.4.v.b.b.5.4.-.4.4.=.O.w $ 7 ! 1.,.m w w Q t.^.u.r._.:X,X*X;XqXeX-XOXOX",
"{.&X:X@X@XOX*X*X%X*X-XqXuX/._ s < B x.z.F > r g 3.v.3.*.#.=.#.%.%.%.=.#.*.=.v.4.Z ; z ] z.2.m # 7 _ ^.uX-XOX;X*X*X&X@X@X@X&X:X&X",
"-X-X:X|.{.].].OX}.].#X-X5X1X!.q.z d 2.2.M m &.c.ZXzXA w Z D Z Z M A A h w A zXZXz.&.m H 2.2.A 9 q.(.1X7X;X-XOXOX&X].`.{.*X*X-XqX",
"yXtX<X*X'.].OX&X}.OXoXqX5X1X,Xp.E _ 2.,.7 p z.NXIXSX0 X ! ] ' G ' ) ] ! . 0 SXIXNXz.e : ,.2.] 6.p.4X7X%XwX@XoX[.&X'.'.[.{.<XyXyX",
"cXnXrX#X}.|.*X-X*XwX-X-X-X*X{.[.f.r.] H % i z.AXIXjX0 < 1.cXzXzXzXzXcXdX4 7 cXIXAXz.i o ! ] r.~.[.}.*X&XqXqX;X6X&X*X|.}.oXtXbXcX",
"SXhXrXoXoX&X*X-X*X;X:X`.*X*X`.@X'.f.b > . 5 1.BXIXHX{ ) cXLXAXVXNXAXLXcX) ] BXUXBX1.5 X 7 6.f.oX-X#X&X*X`.XX;X-XOX:X&XoX+XiXhXGX",
"<X<XwX=X=X-X@XOX&X&X*X*X*X&XOX@X@Xd._ u < 4 s 1.cXPXkXzXvXLXCXCXLXCXVXVXzXcXPXcX1.s ; # u _ d.-X@X@X-X}.|.*X*X@XOX@X@X=X=XiX<X<X",
"=X=X=X*X-X&XOX].&X&X}.|.&X&XOX@X*Xh.F i Q 9 # d fXxXNXVXLXLXZXVXxXNXVXAXZXZXvXfXd + q 8 a ~ d.;X-XOX*X{.*X&X&XOX&X&X&X*X=X;X=X=X",
"OXOX&X&X&X&X&X&X&X&X&X}.&X&X-X@X&Xd.x z w.w.3 @ ! 2.c.xXZXZXxXv.b.xXNXCXxXc.1./ 1   q K y C g.:X-X&XOXOX*X&X:XOX&X}.&X&X&X&X&X&X",
"].OXOX].OX&X&X&X&X&X&XOX&X&XOX-X].f._ } rXQ.k X - V ,.z.z.z.z.2.x.c.z.z.2.,.! L , 1 K Y h ( 7.R.).-X*XOX*X&X&X&X&X&X&X&X].&XOX].",
"OXOX&XOXOX&XOX&X&X&X&X&XOX&X-X*X{.8XhXMXaX^.x 1 1 L 9 ; 4 i Z ` ` ! p u r q 3 K T Y { :.<.&.c v i.=X-X&XOX&X*X&X&X&XOXOX&XOX&X&X",
"*X&X-X*X&X&X-XOX&X&X&X&X&XOX&X&X&X5XMXMXd.0.C 7 U L 3 , K U e 7 L q o X , , , 3 P L >.5.v.<.1 2 y.=X-XOX].&X*X&X@X@X&X&X&X*X*X*X",
"&X-X&X&X&X&X&X&X&X&X&X&X&X&X&XOX@X-X6Xh.6.m C D 2.1.N.D.F.dXY I K K I P P J , , , 9 ,.c.c.,.- & y.:X*X&XOX&X&X&X&X&XOX&X&X-XOX-X",
"@XOX&X&X*X&X&X&X}.&X&X&X*X&X&XOXqXXX).q.V Z ,.x.z.1.B.V.gXgXS.[ A.Z.P n.n.P I X X @ +.2.,.,.N b i.;X&X&X&X&X&X&X&X&X&X*X&X&X&XOX",
"*XOX&X&X&X&X&X&X&X&X&X&X&X&X&X&XOXi.6._ z.zXvXlX2.' 4 J D.sXFXFXDXSXF.M.J I ;.;., X   + ; z 0.s.`.].{.*X*X&X&X&X&X&X&X&X&X&X&XOX",
"&X&X&X&X&X&X&XOX&X&XOX&X&X&X&X&XoXs.k C zXLXLXzX] i o , n.C.sXDXIXUXFXD., y P.P.I K k & 2 R s.'.&X&X&X&X&X&X&X&X&X&X&X&X&X&X&X&X",
"&X&X&X&X&X&X&X&X&X&X&X&X&X&X&X&X:Xr.& > lXLXLXkXU     , n.C.D.Y.UXIXUXgX% X Y A.w.9.i.u.9.Q.:X'.&X&X&X&X&X&X&X&X&X&X&X&X&X&X&X&X",
"&X&X&X&X&X&X&X&X&X&X&X&X&X&X&X&X-Xu.v ~ l.kXcX1.K O , I V.V.m.D.FXUXIXKX] L I W !.5X@X+X@X-X-X X&X*X&X&X&X&X&X&X&X&X&X&X&X&X&X&X",
"&X&X&X&X&X&X&X&X&X&X&X&X&X&X&X&X&X).u.0.z 5 U 8 3 J P D.D.V.m.M.B.T.UXIXUXJ.[ [ T.mXiX$X&X].[.}.&X&X&X&X&X&X&X&X&X&X&X&X&X&X&X&X",
"&X&X&X&X&X&X&X&X&X&X&X&X&X&X&X&X;XwXqXQ.R = O O L N.D.G.D.N.V.N.M.B.FXUXIXjXY T !.JXiX=X6X*XoX+XOX&X&X&X&X&X&XOX&X&X&X&X&X&X&X&X",
"&X&X&X&X&XOX&X&X&XOX&X&X&X&X&X&X&X-X0X>X/.8.& O [ gXY.Y.N.m.P P n.m.D.H.gXH.9 9 Q.iXqX#XXX#X0XqX&X&X&X&X&XOX&XOX&X&X&X&X&X&X&X&X",
"&X&X&X&X&X&X&X&X&X&X&X&X&X&X&X&X@XqXwXiXeX~.v l { | kXI.S.B.B.N.N.[ Z.S.gXl.z z 6.f.).0X@XoX*X,XOX&X&X&X}.&X&X&X&X&X&X&X&X&XOX&X",
"&XOX&X&X&X&X&X&X&X&X&X&X&X&X&X&X`.;X*X:X-XXXg.7.c s dXgXgXH.dXI.I.dXgXhXhXjXS.} l v ~.qX;X}.OXOX&X&X&X&X&X&X&X&XOX&X&X&X&X&X&X&X",
"&X&X&X&X&X&X&X&X&X&X&X&X}.&X&X&X[.}.[.].OX-X,Xg.= @ { l.dXH.S.dXdXjXHXHXKXHXgXS.1 n r.%X(.9XtXeX&X&X&X&X&X}.&X&X&X&X&X&X&X&XOX&X",
"&X&X&X&X&X&X&X&X&X&X&X&X&X&X&X&X&X]. X&X#X&X4Xy.2 X d ] ] / 8 ! hXHXDXSXDXFXsXW O & 9.bXJ.J.9X+X&X&X&X&X&X&X&X&X&X&X&X&X&X&X&X&X",
"&X&X&X&X&X&X&X&X&XOX&X&X&X&X&XOX}.}.].&X].OX*Xg.R 2 6 - u ; 3 K Y.gXgXgXFXY.B.P k E ^.bXJ.J.9XW.&X&X&X&X&X&X&X&X&X&X&X&X&X&X&X&X",
"&X&X&X&X&X&X&XOX&X&X&X&X&X&X&X&X-X&X].OXOXOX;X).R.6.k     6 8.Q.} [ [ 0 a q , 9 8.u.k.8XbX9X/.oX&X&X&X&X&X&X&X&X&X&X&X&X&X&X&X&X",
"&X&X&X&X&X&X&X&X&X&X&X&X&X&X&X&X-X;X&X&X@X@X@X-X].y.v & & v ~.u.T K K % # $   2 R.qX*X:XqXeX$X}.&X&X&X&X&X&X&X&X&X&X&X&X&X&X&X&X",
"&X&X&X&X&X&X&X&X&X&X&X&X&X&X&X&XOX&X}.&X-X@X@X0X].{.R.s.r.~.wXg.J , , 8 j t $ k dXmXuX+XE.+X%X|.&X&X&X&X&X&X&XOX&X&X&X&X&XOX&X&X",
"&X&XOX&X&X&X&X&X&X&XOX&X&X&X&X&X&X&X].}.OX@X@X+XoX&X@X0XeXuX3Xg.* X a / @...w 2 h.mXaX;XOXOX*X}.OX&X&X&X&X&X&X&X&X&X&X&X&X&X&X&X",
"&XOX&X&X&X&X&XOX&X&X&X&X&X&X&X&X@XOX].}.*XOXoXOX&X*X&X-X@X;X,Xa.n + &.<.5.@.+ > t.yX7X|.}.6X[.j.OX&X&XOX&XOX&X&X&X&X&X&X&X&X&X&X",
"*X*X&X&X&X&X&X&X&X&X&X&X&X&XOX&XOXOX].&X4X;X&X%XtXtX%X&XOX*X*Xi.b i +.O.$.+.z ^ !.5X6X&X:X6X]. X&X&X&X&X&X&X&X&XOX&X&X&X].&XOX&X",
"OXOX&X&XOX&X&X&X&X&X&X&X&X&X&X&X-X-XOX*X6XuX;X1XjXbX(.*X].].OX).g.q.c ; y L 0.i.>X-XOX@X:XwX&X*X&X&X&X&X&X&X&X&X&X&X&X&X&X&X&X&X",
"OXOXOX&X&X&X&X&X&X&X&X&X&X&X&X&XOX&XOXXX=X5X3X8XnXnX2XOXOXOXoX*X1X!.b n k R Q.0X@XOX'.oXOX=X-X-X&X&X&X&X&X&X&X&X&X&X&X&X&X&X&X&X",
"*X-X&X&X&X&X&X&X&X*X&X&X&X&X&X&XOX&XOX@X=X-X;X3XmXmXaX@XeXeX=X1XbXbXd.y.R.~.XX-X&XOXOXOX#X:X-XOX&X&X-X&X&X-XOX&X-X&X&XOX&X-X&X&X",
"-XOXOX&X&X&X&X&XOX&X&X&X&X&X&X&X&X*XOX@X:X@XOX%X2XyXqX0X0XeXiX2XKXHXyX@XrXiXOX:X].OXOX`.[.&X*X&X&X&X-X&X&X-X&X&X-X&X:X&X&X&X*X-X",
":X$XXX{.:X&X&X&X].OXOX&X&XOX&X&X&X:XOX$X$X#X'.$X-X*X:XOX@X>XOXOX*X=X%XOX;X*X X_.`.{.&XOX&X&X&X:X&XOXOX&X&X&X&X&X&XOX`.`.XXOXOX&X",
";X;X$X$X&X&X{.].`.`.].&X&X&X&X&X-X*X*X*X3X:X@X6XOX{.{.].[.{.$X&XOX-XOX].*X*X*X+X$XOX-X-X-X].`.$XOX&XOX-X&X-X&X&X*X:X$X{.&X*X*X-X"
};
