/* XPM */
static char *nate_l11650476114[] = {
/* columns rows colors chars-per-pixel */
"64 64 256 2 ",
"   c #090703",
".  c #190A08",
"X  c #17130B",
"o  c #14091A",
"O  c #1B1617",
"+  c #0A1311",
"@  c #280A05",
"#  c #2A1809",
"$  c #281817",
"%  c #321B19",
"&  c #36100F",
"*  c #0C2A1A",
"=  c #182417",
"-  c #0F2A10",
";  c #292619",
":  c #362618",
">  c #35351B",
",  c #37280E",
"<  c #040B26",
"1  c #0D1529",
"2  c #301826",
"3  c #152E2E",
"4  c #2A2626",
"5  c #392825",
"6  c #273628",
"7  c #393627",
"8  c #3C2C32",
"9  c #383936",
"0  c #293536",
"q  c #4B1A17",
"w  c #571D15",
"e  c #46271A",
"r  c #58261C",
"t  c #47361A",
"y  c #512E13",
"u  c #762A1A",
"i  c #6B2B15",
"p  c #4D1E28",
"a  c #452C2B",
"s  c #482A26",
"d  c #433424",
"f  c #44332C",
"g  c #4B342B",
"h  c #4C3C2C",
"j  c #483A26",
"k  c #533C2D",
"l  c #563829",
"z  c #472A33",
"x  c #4C3D32",
"c  c #473834",
"v  c #533D33",
"b  c #573A38",
"n  c #59292C",
"m  c #683926",
"M  c #70322B",
"N  c #641D0B",
"B  c #1C5530",
"V  c #26452A",
"C  c #375837",
"Z  c #2E4B33",
"A  c #19723A",
"S  c #316D3B",
"D  c #2F4618",
"F  c #51451E",
"G  c #49432A",
"H  c #54422C",
"J  c #58452B",
"K  c #494435",
"L  c #5C4433",
"P  c #584737",
"I  c #485839",
"U  c #5A5437",
"Y  c #53552B",
"T  c #62462E",
"R  c #664A36",
"E  c #665739",
"W  c #775639",
"Q  c #784B2E",
"!  c #4F6837",
"~  c #68653D",
"^  c #7A673F",
"/  c #1B2A4C",
"(  c #2D2F4D",
")  c #172E63",
"_  c #303370",
"`  c #211F49",
"'  c #59394F",
"]  c #324C50",
"[  c #1A7148",
"{  c #396947",
"}  c #247545",
"|  c #36774C",
" . c #346E4B",
".. c #394B6C",
"X. c #2B7E65",
"o. c #5B4843",
"O. c #5C5547",
"+. c #4E4B52",
"@. c #695945",
"#. c #755B45",
"$. c #684E52",
"%. c #436749",
"&. c #45744E",
"*. c #696446",
"=. c #736445",
"-. c #717055",
";. c #4F4B6D",
":. c #566C65",
">. c #756E6E",
",. c #695767",
"<. c #873116",
"1. c #873927",
"2. c #8E322E",
"3. c #A83B28",
"4. c #A3360B",
"5. c #8D4A2E",
"6. c #AE4E2F",
"7. c #A74715",
"8. c #CF5629",
"9. c #DD6737",
"0. c #D16B37",
"q. c #DE6733",
"w. c #8B594A",
"e. c #956C4D",
"r. c #B36C53",
"t. c #95776A",
"y. c #8D7872",
"u. c #AE766B",
"i. c #AD5F4B",
"p. c #D77249",
"a. c #EA704A",
"s. c #CB715E",
"d. c #3A884C",
"f. c #348D56",
"g. c #399C65",
"h. c #37916A",
"j. c #39B873",
"k. c #36AB68",
"l. c #36A55E",
"z. c #458F55",
"x. c #4CA859",
"c. c #48946D",
"v. c #45A869",
"b. c #47B876",
"n. c #52B875",
"m. c #48AF6D",
"M. c #6CAF78",
"N. c #3BC578",
"B. c #3CCE73",
"V. c #46C879",
"C. c #47D77A",
"Z. c #53CD77",
"A. c #49F27F",
"S. c #6AC17C",
"D. c #B28A6F",
"F. c #A4875F",
"G. c #C99672",
"H. c #E19170",
"J. c #283485",
"K. c #1C3D80",
"L. c #314B94",
"P. c #3951B7",
"I. c #50548B",
"U. c #767090",
"Y. c #4852B1",
"T. c #4D6BB9",
"R. c #707CB3",
"E. c #635F8D",
"W. c #3757C5",
"Q. c #3361D1",
"!. c #456ACF",
"~. c #415BCA",
"^. c #837492",
"/. c #8E7AB0",
"(. c #A17880",
"). c #AF65CF",
"_. c #C04EDA",
"`. c #368580",
"'. c #7982B2",
"]. c #49A880",
"[. c #3CD584",
"{. c #3BFD89",
"}. c #3DFE97",
"|. c #49C986",
" X c #49D887",
".X c #56D68D",
"XX c #6FDC8D",
"oX c #49E687",
"OX c #54E88B",
"+X c #4CFE85",
"@X c #4CF58D",
"#X c #44FD8C",
"$X c #4CFD8C",
"%X c #47F986",
"&X c #52FC86",
"*X c #53F48D",
"=X c #53FC8D",
"-X c #5AFC8D",
";X c #59F688",
":X c #59EA98",
">X c #44FE94",
",X c #4DFE93",
"<X c #45FE9A",
"1X c #4CFE9A",
"2X c #4AF594",
"3X c #54F593",
"4X c #5BF594",
"5X c #52FE94",
"6X c #5AFC94",
"7X c #55F49A",
"8X c #5BF59B",
"9X c #53FD9A",
"0X c #5AFC9B",
"qX c #4AEA93",
"wX c #62F69A",
"eX c #63FB9C",
"rX c #66F696",
"tX c #6DEF97",
"yX c #72D2A9",
"uX c #4BFDA3",
"iX c #53FDA2",
"pX c #5BFBA2",
"aX c #57F9A5",
"sX c #58F3B0",
"dX c #67EBA3",
"fX c #75EAA6",
"gX c #66F8A3",
"hX c #74F1A9",
"jX c #708BD2",
"kX c #869096",
"lX c #B69291",
"zX c #B6AB8D",
"xX c #8D92AF",
"cX c #8AACAC",
"vX c #ABADAF",
"bX c #CD9A8D",
"nX c #D0AE91",
"mX c #EFB190",
"MX c #CCAEA7",
"NX c #E19E83",
"BX c #81EA9E",
"VX c #90E5A8",
"CX c #98CBB4",
"ZX c #FCD5B8",
"AX c #F3CBB2",
"SX c #9492C8",
"DX c #B4B8D1",
"FX c #959DDA",
"GX c #C6BDD8",
"HX c #BECCE3",
"JX c #A4CCC4",
"KX c #CED0D4",
"LX c #F8D8CD",
"PX c #D6D9ED",
"IX c #F0ECEE",
"UX c #E8E4E9",
/* pixels */
"6X7X3X3X*X3X3X3X3X3X3X3X3X*XqX*X@X8X;XA.&X7X3X&X>X*X;X@X2X7X7X@X*XOX%X@X;X@X@X@X;X;X*X*XOX5X$X#X3X8X3X@X2X:X:X@X,X*X*X3X7X7X*X@X",
"9X6X6X5X5X5X5X5X9X5X9X5X5X5X5X5X5X1X2X5XfXVXfX6X@X4X=X>X9X0X9X5XuXiXiX<X,X,X5X;XeX6X1X,X0X0X9X,X,X6X7X1X5X&X%X+X5X9X6X6X9X6X-X&X",
"5X5X5X,X5X,X5X5X5X5X5X5X,X5X5X9X$X>X>X6XBXVXhXiX1XpX>X{.$X;X5X0XuX X|.V.V.V.C.Z.Z.OX1X<X,X6X*X=X9X5X;X5X5X&X$X0X9X5X9X5X5X9X=X;X",
",X,X5X,X,X5X,X,X,X,X,X5X5X5X,X5X,X9X6X4XeXgXaXiX}.1X2X>X&X&X,XiX Xz.C I I { { I &.n.2X9X@X5X,X5X1X9X,X%X$X6X0XuX5X9X5X,X>X5X&X-X",
"5X5X5X5X5X5X5X5X=X5X5X=X5X5X5X5X4X5X9X9X5X5X3XC. X X:XrX-X$X>X Xx.Y e q s a 8 % > v.7XpX6X1X>X*X+XdXyX:X3XrX8X>XuX1X,X1X,X,X5X6X",
"5X5X5X5X5X5X5X5X9X5X9X9X5X5X5X5X5X,X,X5X5X;XZ.&.I C z. X,X>XC.d.I J L L R $.c & = h.pXgX5X#X#X=X&XSX).SXdX5X@X1XiX9X5X,X,X1X9X6X",
"5X5X5X5X5X5X5X5X5X5X5X9X9X5X5X5X>X&X6X0X9X*Xx.G & e ! m..X.XM.U 7 R *.*.*.O.c % = z..XwX9X,X@X9XwXSX_.SXdX>X1X0XiX9X5X5X,X,X5X5X",
"5X5X,X9X5X5X5X9X9X5X5X5X5X5X5X5X=X&X-XaXiX5Xv.0 y G Y I %.| { P P E =.~ G 5 = O X Z &.V.6XeX=X>X<XyXcXyXOX@X&X4X9X5X-X=X5X5X1X,X",
"5X5X5X5X5X5X5X5X=X5X5X9X=X5X9X5X1X#XoXoXqX[.z.7 d o.L y e 2 8 @.=.@.O.o.7 O X # , % 9 f..XC.Z.wX1X0X0X>X1X&X&XuX=X;X5X6X=X5X9X1X",
"5X5X5X,X5X5X5X5X9X=X5X9X5X5X9X5X0X6Xj.S {  .I e a P E L l 5 7 U ~ P 8 $ % ; 5 7 f g f I { S A j.1X1XeX<X<X;X#X9X$X4X1X5XrX-X#X{.",
"5X5X5X5X5X5X5X5X5X=X5X5X,X5X9X=X5X XX.- . 5 : : a c U E L 5 7 E o.x : . # d H J P o.v 5 : X - }  XoXrX7XuX0X+X*X1X8X2X5XrX9X<X<X",
"5X5X5X5X5X5X,X5X6X5X5X5X5X5X5X@Xk.[ V : , f 9 f c 8 c P J h h L L v a : : G E E R P c 8 a , ; 0 } j.3X9XaX8X=X{.<X5X0X6X*X1XaXaX",
"5X5X5X5X5X5X5X5X5X5X5X5X5X5X5X@Xd.- : r t G 9 P b 8 5 k k x v v k J H h J U ~ =.W Y G K H P d ; O | C.+X,X@X6X2XqX7XiX0X2X>X+X&X",
"5X5X,X5X5X5X5X5X5X5X=X9X5X9X5X*XC.f.Z ; # > j G ' o.o.R T J v v F l H E ~ W E @.#.U U L b o.k , 4 Z ! x.{.#X0XCX/.xXdX<X5X1X1X9X",
"5X5X5X5X5X5X5X5X5X=X=X5X5X5X9X5X>X X| ; # y y t o.$.=.#.E J P P G H P @.=.^ ~ #.*.*.^ W b b x j j 7 G l.oX%X7XcX_.).yX#X&X6XaXsX",
"5X5X5X5X5X5X5X5X9X5X5X9X=X5X9X9XB.x.G r u u l c j o.#.W W R U U O.P U @.=.=.=.=.E U U P l g s p t I f.Z.wX&XeXyXSXcX:X&X-X-XrXeX",
"=X5X,X1X9X5X5X6X5X9X5X,X0X9X%X&Xh.j M 6.6.6.M p e c U ! ~ W Q ~ *.*.#.W #.=.^ E E P b l l s 5 ; j |  X;X*X9X5X7X1X5X;X$X>X5X6XrX",
"5X5X1X1X9X6X6X9X$X$X$X1XiX9XB.x.E m i.G.D.e.#.2.m P U Y Y E R O.*.*.=.=.W E E E T H H j h g f 5 f C d.V.3X5X2X6X,X,X5X,X,X,X,X6X",
"5X5X,X1X5X5X6X9X=X5X$X1XiX.Xz.D <.7.NXLXMX-.5.6.5.l J F H H T @.! ~ ~ ~ E R J J J H G Z G h v P v : - A C.9X,X+X@X=X5X6X9X5X1X}.",
"9X9X9X9X5X5X9X9X&X=X$X@X|.c.-.1.7.q.mXUXvX@.u 6.5.n d l H v H @.Y U U R T L H k H H G j 7 h b b h e % V f.j.2X2X5X9X0X0X6X=X>X7X",
"5X5X9X1X5X*X5X9X$X-X5X Xf.K w.p.a.a.mXLXvX' i 6.1.a 5 g K P P H H H H H H H K K v P v s s s b b > j x 4 - } .XuX0X9X9X6X-X$X=XrX",
"*X,X,X5X@X5X9X9X=X6X0XOX{ 2 2.a.a.a.H.MXlXU.w.3.<.q 5 9 o.P H j x v v h j d j x c P J s p s g c G K h % O %.yXhX9X1X>X5X5X,X=X-X",
"=X$X,X=X*X5X9X9X>X7X0XOX| 2 <.q.a.a.8.6.u.MXlX8.4.p a c Z b l H G H H G j 5 a g K G G l b a 7 7 K K v 5 5 ,.cXJX8X2X{.*XrXaX9X=X",
"=X5X$X5X5X5X5X1X1XaX0X XA o u 8.a.a.a.8.s.bXu.8.4.M n 7 9 b l K G G G H h f a z c > F P K 7 : 7 9 g g 7 f $.y.kXdX@XA.tXBXyXaX>X",
"$X$X>X1X5X3X*X+X<X,X6X X[ X N 6.q.0.p.a.H.q.8.8.7.3.2.s : b m k F T J g l b b z p s G G l G > s 8 ; a x ' 8 = | .XhX6XfXvXJXfXA.",
"rX6X5X6X6X5X5X#X9X6XwX.Xl.S t u 6.8.a.a.a.9.q.8.8.8.1.s ; 4 f K J H x g g b b b z 5 g H l H l e 5 9 %.] a &   ] .XeX;XfXCXCX:X{.",
"fXtX4X4X6X6X5X>X6X6XhXBXXXk.S % i 7.q.a.p.a.a.9.9.0.1.r $ . O 9 K C c 5 8 j K x 9 8 p s j J m s 5 &.b.f.6 @   B .XwX6X4XdXdX4X=X",
"hXtX4X6X6X9X9X1X;X6XhXBXrX%Xk.B 7 u 3.5.6.6.i.6.6.6.1.r &   . 8 P +.c s 5 7 6 7 7 8 z s G l v K %.n.*XB.S V B h.oXwX5X,X5X,X3X6X",
"0X0X*X,X5X9X9X1X&X=XrXrXeXiXqXN.{ % @ & : y r r M 2.2.1.q   X 7 v H K n s O - ; , > : g G > 7 &.|.OXrXA.B.B.B. X}.iX8X4X=X#X>X1X",
"1X1X,X,X=X5X6X5X$X=X5X0XpXaXiX9Xv.B * O ; J @.o.m n 1.e.W e # , t j k R c X   # N y t g x 7 } j.5X6X-X-X,X,X<X1X>X9X0X3X5X$X1X1X",
"<X1X5X5X5X5X$X5X,X@X9X9X9X,X,X2XoXB. .5 $.lXMXbX>.s o.nXbX5.r @ # j J v f . @ q <.1.5.r f &.V.:X6X$X$X&X;X*X,X#X0X7X3X,X9X,X9X0X",
"1X9X8X6X6X5X,X>X0XiX0X6X&X>X9XiX=X%Xl.l u.AXLXLX(.% +.JXAXs.M X   j H d 5 & q r 3.3.1.r 5 c.0X9X,X5X;X-X5X9XgXrXrX4X6X;XeX3X9X>X",
">X5X5X=X5X=X5X=X9X1X1X1X1X5X=X-X+X2Xv.C e.AXLXLXy.; +.KXLXnXw.& o d j $ $ a i 2.2.u r q s f.2X1X=X=X1X>X1X9X9X6XVXfXgXgXfXfX8X}.",
",X5X5X6X5X=X=X=X9X9X9X1X,X5X5X&X-X9Xv.-.D.AXLXZXD.P -.KXLXzXF.L % 5 4 o X s M 1.M N q e { m.7X*X6X,X,X1X5X5X6X6XBXtX8XpXdXhXaX}.",
",X5X5X5X6X@X=X5X5X9X1X9X9X5X5X-X6X6XS.F.bXZXZXZXMXzXzXAXAXnXG.s.w.8 o     e T m l w , ! b.OX8X6X,X5X,X9X9X9X5X5XeXeX9X0X0X8X7X>X",
",X5X5X9X5X5X5X5X5X5X5X5X1X9X5X9X1X6XtXD.nXMXmXmXAXZXZXZXmXG.F.D.e.5 +   @ : h U %.I ! m.@X9X9X2X,X,X5X5X5X9X5X5X5X5X5X5X9X5X1X1X",
"5X5X5X5X5X5X5X5X5X5X,X5X9X5X5X5X,X6XrXXXM.-.F.bXmXZXAXnXG.F.e.@.m : = ; : # * z.|.M.Z.oX1X5X,X>X,X5X5X6X9X5X5X,X,X5X5X5X9X5X5X5X",
"5X5X5X5X5X5X5X5X=X5X5X5X5X5X5X5X6X;X-X&XN.| *.u.G.nXzXF.t.5.F s 2 $ : 7 Z : B j.iX0X7X9X0XrX6X>X,X5X5X9X5X5X5X,X,X$X,X5X5X5X5X5X",
"5X5X5X5X5X5X5X5X5X5X5X5X5X9X5X5X,X4X5X1XoXb.c.@.$.#.=.E b > ; 1 1 o @ 4 ] &.k.qX>X1X1XwXtX8X6X*X5X5X5X=X5X5X9X5X5X$X,X5X5X5X5X$X",
"5X5X5X5X5X,X5X,X5X5X5X5X9X5X5X,X#X5X,X,XrXdXn.C c G j : $ 1 3 ` / 1 < 2 9 m.7XaX4X,X9XhXfX7X9X6X=X5X5X5X5X5X5X5X9X9X,X,X@X5X,X,X",
"5X5X5X5X5X5X5X5X5X5X5X5X,X5X5X5X2X9X9X,X9X6XOXj.m.m. .= 2 +.E.I.K.) / o 3 j.aXaX$X#X>X6XeX5X#X1X9X9X5X5X,X5X5X5X5X5X5X5X5X5X5X5X",
"5X5X5X5X5X5X5X5X5X5X5X5X5X5X5X5X5X9X=X5X1X1XeXOXOXOXg.V 8 U.R.T.Q.L.) 1 * l.qXOX:X2X$X*XrX6X#X>X9X9X,X5X5X=X5X5X5X=X5X5X5X5X5X5X",
"5X5X5X5X5X5X,X5X5X5X5X5X5X5X5X5X&X=X=X6X,X,XpXgXZ.v.c.kXkXR.!.~.~.P.L./ =  .X.X.`.|.,X5X*X;X+X>X9X9X5X5X,X5X5X5X5X5X5X5X5X,X5X5X",
"5X,X5X5X5X5X5X5X5X5X5X5X5X5X5X5X#X$X=X6X5X3X0XgXc.] U.KXKXR.W.~.Y.W.P._ ( ( _ ( ..]..XuX5X-X=X5X9X9X5X5X5X5X5X5X5X5X5X5X5X5X5X5X",
"5X5X5X5X5X5X5X5X5X5X5X5X5X5X5X5X>X,X5X6X6X8XpXpX]...E.PXPXFX!.I.J.J.J._ _ E./.xX'.c.h.|.sX*X-X0X9X5X5X5X,X5X5X5X5X5X5X5X5X5X5X5X",
"5X5X5X5X5X5X5X5X5X5X,X5X,X5X5X5X6X0X6X0X9X9XiX7X].] I.PXIXKXxX%.8 ( ( ( ' /.KXIXKX'.] k.2X#X&XrX9X9X9X5X5X5X5X5X5X5X5X5X5X5X5X5X",
"5X5X5X5X5X5X5X5X5X5X5X5X5X5X5X5X8X0X9X9X9X1X1X2Xl.V ( '.DXPXvX;.( $.,.;.;./.KXIXIX^.] g.2X>X0XrX9X9X5X5X,X5X,X5X5X5X5X5X5X5X5X5X",
"5X,X5X5X5X5X,X5X5X5X5X5X5X5X5X5X,X1X#X1X,X,X5X1Xk.- 1 _ jXHXDXE.' t.t.' _ /.DXPXKXkX] z.*XuX9X%X9X9X5X5X5X5X5X5X5X5X5X,X5X5X5X5X",
"5X5X5X5X5X5X5X5X5X5X5X5X5X5X5X5X1X7X0X,X$X=X5X1Xg.- < ) L.xXvXy.F.r.i.R +.R.jXFXFX;.9 l.@X,X5X%X5X,X5X5X,X5X5X5X5X5X5X5X5X5X5X5X",
"5X5X5X5X5X5X5X5X5X5X5X5X5X5X5X5X9X9X6X5X$X=X6X9Xk.* o ) ..+.>.nXnXp.6.m ] L.Q.!.Y.` O d.*X5X9X5X5X5X5X5X9X5X9X5X5X5X5X5X5X5X5X5X",
"5X5X5X5X,X5X5X5X5X5X,X5X5X5X5X5X1X,X6X6X5X5X9XpXl.* 2 ;.;.4 o.nXZXmXr.m 4 L.Q.!.E.` + d.OX,X>X-X,X5X5X5X5X5X5X5X5X5X5X5X5X5X,X5X",
"5X5X5X5X5X5X5X5X5X5X5X5X5X5X,X5X$X#X5X6X-X5X1XaXg.3 0 U.:.4 z lXLXAXbXZ 1 _ Y.R.U.] * f.rX>X%X-X9X5X5X5X5X5X5X5X5X5X5X5X5X5X5X5X",
",X5X5X5X5X5X5X5X5X5X5X5X5X5X5X5X>X>X5X6X6X>X1XiXN.f.X.,.+.+.$.y.t.t.y.O.] ) ) ;.+.{ } b.wX,X%X&X9X5X5X5X5X5X5X5X5X5X5X5X5X5X5X5X",
"5X5X5X5X,X5X5X5X5X5X5X5X5X5X5X5X,X,X9X6X=X$X>X1X>X X].] +.^.>.0 o $ 9 ,.>.] < O 6 h..X*X-X5X1X1X9X9X5X5X5X5X5X5X5X5X5X5X5X5X5X5X",
"5X5X5X5X5X5X5X5X5X5X5X5X,X5X5X5X9X8X0X0X$X$X=X,X9X<X Xv.c.:.b 3 < 1 / +.*.S B B A b.9X5X&X-XiXiX9X9X,X5X=X5X,X,X5X5X5X5X5X5X5X5X",
"5X5X5X5X5X5X5X5X5X5X5X5X5X5X5X5XgXgXeX9X$X;X=X$XsX<X}.[.c.V O ` / ) / ` V d.C.B.oX2X1X9X5X6X7XiX9X9X5X5X5X,X5X5X5X,X5X5X5X5X,X5X",
"5X5X5X5X5X5X5X5X,X5X5X5X=X5X5X5XeXwXwX4X4X-X-XeX,X>XA.k.&.s p n o.+.( o - k.9X1X9X=X-X=X9X5X5X-X9X9X5X,X5X5X5X5X9X5X9X5X5X5X5X5X",
"5X5X5X5X5X5X9X5X5X5X9X5X5X5X5X5X0X0X0X9X5X=X=X5X;X6XN.B e 2.3.4.<.5.p . - l.0XiX5X5X5X$X,X$X$X*X9X5X,X5X5X5X5X5X5X5X5X5X5X5X5X5X",
"5X5X,X5X5X5X5X5X5X5X5X5X5X5X5X5X5X9X9X5X5X=X,X5X9X0XN.A > m <.u i N y 7 S N.9X0X9X9X5X,X,X>X$X5X6X5X5X,X5X5X,X,X5X5X5X5X5X5X5X5X",
"5X5X5X5X5X5X5X5X5X5X,X5X5X,X5X5X9X6X9X9X5X*X=X,XpXdX8XB.f.> @ . @ . 0 z.|.:X-X6XiX9X5X2X2X1X,X5X6X=X5X,X5X5X5X,X5X5X,X5X5X,X5X5X",
",X,X9X5X5X5X5X5X5X5X5X5X5X5X5X5X5X5X5X5X,X5X5X=XaXdXgXaX[.S V B B 6 { V.5X+X+X&XaX9X7X,X>X1X,X5X6X=X5X5X5X5X5X$X5X5X5X5X5X5X5X5X",
"5X5X5X5X5X5X5X5X5X5X5X5X5X5X5X5X1X,X2X,X,X1X>X,X6X6X-X5X$XB.N.N.|.Z.Z.A.%X#X,XiX1X9X2X5X,X1X5X5X6X6X5X5X5X5X5X5X5X5X5X5X5X5X5X5X",
"6X6X5X=X5X5X5X,X5X,X5X5X5X5X5X5X1X,X$X,X2X1X,X9XrX-X;XA.=X1XuXuX}.1X$X#X}.1X7XaX9X5X5X5X5X,X*X=X3X5X5X5X5X5X5X5X5X5X5X@X5X=X5X5X",
"0X5X6X5X5X5X5X#X@X@X$X5X9X5X5X,X0X6X6X9X5X7X0X6X,X0X0X6X2X2X6X=X7X9X9X6X0X6X=X$X5X5X6X9X5X5X@X@X6X5X,X5X5X6X5X5X5X5X5X6X5X5X5X9X"
};
