/* XPM */
static char *nate_l31650476114[] = {
/* columns rows colors chars-per-pixel */
"64 64 256 2 ",
"   c #060607",
".  c #180808",
"X  c #07140C",
"o  c #17170A",
"O  c #160717",
"+  c #181717",
"@  c #0A0E17",
"#  c #230803",
"$  c #27160A",
"%  c #261917",
"&  c #351619",
"*  c #340D0C",
"=  c #1A2919",
"-  c #112A15",
";  c #29251A",
":  c #38271A",
">  c #373419",
",  c #2C300F",
"<  c #151924",
"1  c #13112E",
"2  c #261A27",
"3  c #381A23",
"4  c #251335",
"5  c #122E27",
"6  c #272525",
"7  c #382927",
"8  c #3A3526",
"9  c #3B2833",
"0  c #3C3538",
"q  c #28312F",
"w  c #4D1A13",
"e  c #45271A",
"r  c #483A1D",
"t  c #55351B",
"y  c #542919",
"u  c #6E2E16",
"i  c #461927",
"p  c #472927",
"a  c #572825",
"s  c #443B2C",
"d  c #4D3B2B",
"f  c #493626",
"g  c #543C2C",
"h  c #573828",
"j  c #472736",
"k  c #4C3C33",
"l  c #473834",
"z  c #543D33",
"x  c #583938",
"c  c #532936",
"v  c #763426",
"b  c #6A302A",
"n  c #6E1C17",
"m  c #3B451D",
"M  c #185B36",
"N  c #114C29",
"B  c #394527",
"V  c #384637",
"C  c #2E5131",
"Z  c #176C3C",
"A  c #29693A",
"S  c #33703B",
"D  c #4B431C",
"F  c #4A4628",
"G  c #53442B",
"H  c #564729",
"J  c #4B4637",
"K  c #534334",
"L  c #594737",
"P  c #495A3C",
"I  c #5D5538",
"U  c #4E5529",
"Y  c #66462A",
"T  c #644A39",
"R  c #675639",
"E  c #735B3D",
"W  c #775734",
"Q  c #724A32",
"!  c #4C6636",
"~  c #6B643C",
"^  c #6D6238",
"/  c #754515",
"(  c #171C4E",
")  c #271E4D",
"_  c #17274F",
"`  c #282847",
"'  c #252858",
"]  c #333052",
"[  c #1B2D6C",
"{  c #393C66",
"}  c #2C326D",
"|  c #503741",
" . c #543953",
".. c #33514B",
"X. c #197046",
"o. c #2F734A",
"O. c #314C6F",
"+. c #307062",
"@. c #584944",
"#. c #585746",
"$. c #4C5551",
"%. c #695845",
"&. c #745849",
"*. c #724D4E",
"=. c #486747",
"-. c #4D7151",
";. c #6B6546",
":. c #736145",
">. c #776856",
",. c #4E546D",
"<. c #716D70",
"1. c #606377",
"2. c #8D2F16",
"3. c #872C24",
"4. c #863627",
"5. c #94382A",
"6. c #A53A2C",
"7. c #8C442C",
"8. c #955433",
"9. c #B04A2D",
"0. c #D75B37",
"q. c #C64F2F",
"w. c #D66934",
"e. c #E97039",
"r. c #E05939",
"t. c #8C5347",
"y. c #AA5E4F",
"u. c #8A6C50",
"i. c #B27058",
"p. c #907367",
"a. c #B07665",
"s. c #D2784F",
"d. c #E67645",
"f. c #EC6E49",
"g. c #D05547",
"h. c #388A57",
"j. c #379657",
"k. c #2A884F",
"l. c #32AE5A",
"z. c #348F6A",
"x. c #37A867",
"c. c #35B16F",
"v. c #1BAB6D",
"b. c #4A8F59",
"n. c #4F906E",
"m. c #47A565",
"M. c #45B567",
"N. c #45BA79",
"B. c #4AAD78",
"V. c #63A15F",
"C. c #3AC871",
"Z. c #3BF079",
"A. c #47C66D",
"S. c #48C779",
"D. c #47D87B",
"F. c #54D878",
"G. c #56C47A",
"H. c #48FA7B",
"J. c #4DEA7C",
"K. c #69E07C",
"L. c #B18B6B",
"P. c #A89369",
"I. c #C98E71",
"U. c #E3986E",
"Y. c #85C07E",
"T. c #223885",
"R. c #253998",
"E. c #324B8D",
"W. c #2F51B2",
"Q. c #194EA4",
"!. c #4D5A94",
"~. c #51698E",
"^. c #6F768F",
"/. c #5862AB",
"(. c #365BCA",
"). c #475ACF",
"_. c #5569CB",
"`. c #AE79BD",
"'. c #CB4FD1",
"]. c #48B381",
"[. c #7287B0",
"{. c #74A696",
"}. c #3CD386",
"|. c #3DFF89",
" X c #3EFF97",
".X c #3AE78B",
"XX c #4AD987",
"oX c #51D489",
"OX c #4AE788",
"+X c #55E78C",
"@X c #4DF58C",
"#X c #45FD8C",
"$X c #4CFD8C",
"%X c #4BFC86",
"&X c #53F48D",
"*X c #53FD8D",
"=X c #5AFB8D",
"-X c #58F887",
";X c #4BE794",
":X c #56EB96",
">X c #45FE93",
",X c #4DFE93",
"<X c #44FF9A",
"1X c #4CFE9B",
"2X c #48F595",
"3X c #54F693",
"4X c #5BF594",
"5X c #52FE94",
"6X c #5AFC94",
"7X c #54FD9A",
"8X c #5AFC9B",
"9X c #59F59B",
"0X c #62F88A",
"qX c #6AEC99",
"wX c #76E89B",
"eX c #63FC95",
"rX c #65F69A",
"tX c #6DEF98",
"yX c #7AD7B0",
"uX c #4AFDA5",
"iX c #53FDA2",
"pX c #5BFBA2",
"aX c #59F5A4",
"sX c #68ECA4",
"dX c #79E8AC",
"fX c #66F7A5",
"gX c #77F2A6",
"hX c #73ECB3",
"jX c #66DF9A",
"kX c #7B8FD0",
"lX c #3AA287",
"zX c #8B8F91",
"xX c #AC9192",
"cX c #9394B4",
"vX c #90ADAF",
"bX c #B0B3B1",
"nX c #AF9FAB",
"mX c #D1AD91",
"MX c #E9AE8A",
"NX c #D2B0A8",
"BX c #E9B9A9",
"VX c #E29788",
"CX c #93D4B2",
"ZX c #87E5AD",
"AX c #8FD99F",
"SX c #F3CEB0",
"DX c #E8DEB5",
"FX c #AFAECE",
"GX c #9C9CD5",
"HX c #8BD4CA",
"JX c #F4D3CB",
"KX c #F3E2CE",
"LX c #CBD8E3",
"PX c #EBF2EA",
"IX c #D1D9D7",
"UX c #C1A3E3",
/* pixels */
"8X8X6X5X,X$X*X=X*X*X&X5X5X8X7X8X0X=X*X@X5X5X1XuXuX1X3X-X6X7X2X=X=X*X*X&X,X<XpXgXhXrX=X6XaXiXuX#X8X7X7X,X*X5X5X,X5X5X5X5X5X5X5X5X",
"8X6X5X*X&X=X*X5X5X6X7X7X7X7X7X$X5X8X6X4X5X5X,X7XiX7X,X5X4X5X7XXXoXoXoXoXS.S.S.qXgXrX*X5XaXiX7X5X8X5X,X5X5X5X5X5X5X5X5X5X5X,X5X5X",
"3X5X#X$X&X&X3X>XuXpX8XiX7X6X,X|.|.1X7X1X,X1X5X=X-X-X*X7X5X#XJ.o.......C S U S A.6X3X,X5X,X5X6X8X5X5X5X5X5X5X5X,X5X5X5X5X5X5X5X5X",
",X>X>X,X&X&X,X>X1X7X7X1X>X4X5X#X,X1X1X1X2XXXF.G.F.-X&X<X>XD.m.J i e h a e * , l.<X8XrX8X*X*X*X3X$X$X,X5X8X5X5X,X5X5X5X5X5X5X5X5X",
"uX7X8X8X5X,X,X,X,X,X8X,X1X6X6X,X=X3X>X@XN.-.P ! V.OXuX X}.z.I L Y H %.%.H * ; c.uXhXZXrX%X%X$X8X*X5X5X5X5X7X,X5X7X,X5X5X5X5X5X,X",
"uXiX8X8X7X7X,X5X#X5X6X4X6X1X8X8X*X7X1X5Xm.s i y ! G.;XXXm.@.h I ^ I R %.J & = k.oXZXZXfX$X$X5X8X8X6X5X,X,X5X5X7X5X5X5X5X5X5X5X5X",
"5X3X*X5X5X8X5X>X,X8XqXwXqX1X<X4X*X1X1X6Xm.j c h H o.o.=.=.H Y ;.:.R K 8 ; * % V -.oXgXfX8X8X8X9XfXfX5X,X$X5X5X5X5X5X5X5X5X5X5X5X",
"0X-X$X*X6X6X7X1XiXaXAXAXwX1X<X9X+XoX+XF.b.0 x I T 6 7 j p U ^ I @.x 7 + o * e : r b.OXJ.OX;X9XfXgXfX8X$X$X,X5X5X5X5X5X5X5X5X5X5X",
"&X=X6X6X1XaXfXgXpXpXqXtXrX3X1X,Xc.A ! S J 0 9 L H H t i c T R G 0 2 % 6 8 8 8 r d J o.Z A l.#XrX8X6X,X$X,X8X5X,X5X5X5X5X5X5X5X5X",
"5X5X6X7X7X7X8XrX8X7X7X,X,X1X:XoXk.o . : p & j k I W Y f g R R j ; o + 8 K L H G B > & . o k.OX-X,X5X6X5X,X,X5X*X5X5X5X5X5X5X5X5X",
"<X,X1X5X,X5X6XeXrX@X,X>X7X3Xx.A q : : 8 p w p q l U Y t f H L | 8 : 8 L R R H F J e a i 6 q Z l.>X>X*X&X5X,X,X6X5X,X5X5X5X5X5X5X",
">X,X3X1X,X8X8X6X=X&X=X6XiX;Xh.o % l J V d t f p l G H h D H G @.z K L &.E E R U J L x J P - - o.XX2X5X5X5X5X,X*X5X5X5X5X5X5X,X5X",
">X$X@X,X7X7X8XrX5X,X,X5X<X2XC.h...= ; ; B H H @.@.L H L G F H K x @.&.E W E ;.#.I @.x x @.p & V o.C.2X<X8X7X,X5X5X5X5X5X5X5X5X5X",
",X5X7X3X,X7X6XrXeX8X,X>X,X<X1XXXk.o * > > B U ;.:.R Y K K J G f T &.:.E E :.>.;.;.Q b x x h d p F b.OX1X,X5X7X8X5X5X5X5X5X5X5X5X",
"5X6X6X1X>X7X6X6XeX6X3X6X8X2XoXh.J n 2.v t r g Q W E &.T I %.R I T E ~ E E :.:.%.R F k d 7 7 g =.b.G.5X7X*X,X,X8X5X5X5X5X,X5X5X5X",
"3X3X7X7X>X,X5X0X$X@X=X6X,XOXb.s v 9.q.9.4.a & r R &.>.;.#.I ;.~ ;.~ ~ ~ E E R Y k B B > > w p h.oX2X>X*XrX5X,X5X5X5X5X5X5X5X5X5X",
"*X*X&X5X7X9X5X*XH.*XeXH.S.n.#./ y.VXI.y.4.v h h K T *.%.#.#.:.^ >.:.^ I R #.L H D F B B > p 0 $.b.C.>X7X8X5X#X8X*X5X,X5X,X,X<X<X",
"&X5X6X7XaXiX5X5XeX$X%XF.b.F u 9.mXJXNX:.7.8.7.b G g k z H ^ ~ &.E W R L J L L H D r F B F L z 6 < X.OX8X8X>X#X*X7X5X5X&X*X*X5X7X",
"5X5X5X7XiXiX7X,X8X2XA.b.W 2.6.d.BXPXbXL / 9.6.t r d d G F U R R Y R I K k z K z h > 8 k k @.z : 6 C k.A.;X7X1X,XuX7X6X*X%X%X5XrX",
"5X5X5X1X1X7X1X>X>XOXh.d 6.0.e.d.BXKXxXx u 9.7.r 7 s G F J G h z K L K K G g z x s 0 j c x l F L d : - o.+XpXiX1XuX7X8X5X,X<XuXpX",
"5X5X5X1X,X,X,X,X1XXXA ; 5.e.f.f.U.MXxX<.t.9.5.3 7 s F G L @.k d h k k 8 f h z z k l 9 c k 8 B H D 3 O +.rX1X6X=X*X6X3XsXyXdXaXpX",
"5X5X8X5X5X$X$X,XuXXXZ o 4.f.f.f.q.g.L.vXxXg.3.i 7 s G g | | J F d G 8 7 3 p K h x k d 8 , m U r F j ` z.;X#XH.0X*X3X1XdXbXbXhXiX",
"$X7X7X8X*X%X*X5X1XXXX.o 3.r.e.f.g.0.I.I.a.9.6.b h f G K L z G J F F F 7 9 c x h g g k 8 , f g f 0 9 q ..z.A.-XH.$X,X<XsXCXCXgX4X",
",X7X7X7X&X%X*X5XiXoXX.$ n q.0.e.e.w.e.f.w.q.q.6.4.a 7 0 F D h x G F F F c j j l z g s s k c i i 9 : 8 6 = k.+X<X X,X#X>XqX4X*X-X",
"3X8X8X7X3X2X,X,X8X:Xx.C y u 9.w.d.e.e.e.w.w.0.q.2.y % ; r h d G g D m J | c p p 8 k d D F a i ..=.$.8 o   M }.8X X>X>X#X>X#X*XH.",
"7XiXpX7X6X5X,X>XiX@XOXS.o.o n 9.w.d.e.e.e.e.0.9.4.e % + % f G z r > e x x x f 8 > d K G G e f -.N.b.p * . X..X,X3X,X5X*X*X=X0X0X",
"uX7X7X5X6X5X,X,XaX%X|.|.v.M d u 2.8.9.9.9.9.9.9.4.n &   o 8 L x f e p i e r > > > l z f h F o.A.&XG.-.J C x..X5X,X5X5X5X4X-X=X*X",
"1X<X5X5X=X*X,X,X5X,X5X<X2XS.=.o $ $ e t a a b 3.6.2.w . o 8 G g k d 7 % o $ > 6 : 9 0 a p -.oX@X&X-XD.D.C.XXiXeX$X5X7X7X3X*X#X%X",
"1X<X5X*X6X=X5X,X#X8XfXpX8X&Xx.N -   7 $.*.*.b b 4.y.t.w * : > d K z s @ X % y y b j V ..o.N.uX,X5X5X,X$X*X5X6X,X6X6X4X5X1XuXsXyX",
"1X8X5X5X6X6X3X,X1XeX4X@X$X5XOXS.o.; *.xXNXNXp.: $.NXNXt.w $ = 8 g Y j @ @ w 3.5.4.b k h.oX;X>X,X-X*X9X7X7X5X=X%X9X4X7X,X7XhXHXUX",
"5X5X5X8X5X5X7X7X7X8X5X$X,X1X8X&Xb.g a.DXKXSXp.+ $.LXJXa.b O O , F f 7 3 w n 2.5.v b f m.8X8X,X5X-X6XpXpX<X8XwXfX,X1X1X>X5XdXFXFX",
"=X*X5X>X7X7X1X,X7X5X6X8X,X$X3X=Xb.L p.BXKXSXp.; $.LXPXU.8.% + e 0 2 $ w u 2.2.u e i a n.&X6X7X7X>X,X1X7X,XsXAXyX*X8X7X1X,X3XrXqX",
"6X5X5X7X1X5X,X,X,X5X5X8X6X,X,X3XM.u.L.DXSXJXxXk <.IXKXMXu.l > r > X O a 2.2.v y 7 8 P m.9XuX2X8X7X7X>X,X7XsXdXZX7X7X7X,X,X$X*X$X",
"*X5X5X5X5X,X5X$X,X5X5X5X1X,X7X6XY.a.VXDXSXSXNXmXNXDXDXMXI.P.&.&     # p H Y t w 8 -.S.;X8X8X6X5X1X<X,X5X5XrXsXsX8X7X5X,X,X,X*X5X",
"5X5X5X5X5X7X,X5X,X5X5X6X5X5X5X6XAXP.mXNXBXSXSXJXJXSXMXI.L.P.u.3 . $ $ ; 8 $.=.U ! N. X<X7X9X6X$X<X<X,X5X5X5X5X,X6X7X5X5X,X,X5X5X",
"5X5X5X5X5X5X5X5X,X5X5X5X5X,X5X6XH.K.V.p.a.VXSXDXSXI.L.P.E W H ; % : ; + q b.N.oXA.OX<X<XpX8X5X$X5X5X7X5X5X,X#X#X5X5X5X,X5X,X5X5X",
"5X,X5X5X5X5X5X5X,X5X5X5X5X,X5X5X*X%XM.-.>.a.I.mXmXL.u.Y k j 9 ; 7 s 8 O = v.<X1X>X5XeX9X7X6X*X*X6X5X5X5X,X,X,X$X5X5X5X5X5X5X5X5X",
"5X5X5X5X5X5X5X,X5X5X5X5X5X,X5X5X6X5X+XG.b.Y Y :.R Q u , < } } 9 7 > 7 2 ..C.<X1X,X6XeX6X7X9X*X*X=X=X5X,X1X7X7X6X5X5X5X5X5X5X5X5X",
"7X5X5X5X5X5X5X5X5X5X5X5X5X$X,X5X8XiX9X@Xl.U m F , & & o 5 T.R.{ ` 6 2 ` O.lXXX9X8X5X5X8X7X8X6X5X*X5X,X,X5X5X5X8X,X,X5X5X5X5X5X5X",
"7X5X5X5X*X5X5X,X5X5X5X5X5X,X,X*X<XuXaX,XD.M.c.M.o.2 1 ( } Q.Q.T.[ < < _ E.O.h.D.8X>X,X3X3X>X<X,X,X$X*X5X5X*X,X,X5X,X5X5X5X5X5X5X",
"5X5X5X5X5X5X5X5X5X5X5X5X5X5X5X5X$XiX2X<X7X7XiX3Xl.= 4 T.W.(.Q.R._ @ < ( [ } ..N.>X,X%X*X,X<X7X9X5X5X5X5X5X5X5X5X5X5X5X5X5X5X5X5X",
"5X5X5X5X5X5X5X5X5X5X5X5X5X5X5X5XeXgXfX5X$X#X5X-Xc.` ' E.W.(.W.T.} ( _ ( 4 4 ] ].7X>X@X5X8X7X7X5X*X*X5X*X5X5X5X5X5X5X5X5X,X5X5X5X",
"5X5X,X5X5X5X5X5X5X5X5X5X5X5X,X5XrXgXtX=XJ.OXOXD.z.,.} E.W.(.!.]  .} [ 5 ; 9 ,.n.;X2X>X8XrX7X5X,X*X*X*X5X5X5X5X5X5X5X5X5X5X5X5X5X",
"5X5X5X5X5X5X,X5X5X,X5X5X5X5X5X5XeXrXpX5XC.X.X.X.-.>.1.E.T.[ ` ( _ } R.,.<.cXcXlXz.XX<X5X:X6X7X@X6X5X5X5X5X5X5X5X5X5X5X5X5X5X5X5X",
"5X5X5X5X5X5X5X5X5X5X5X5X5X5X5X5X=X*X6X+Xj.- X < x a.a.{ ( @ + ' ' E.!.cXFXPXLX^.O.B.>X5X4X3X7XaX8X7X7X1X5X5X5X5X5X5X5X5X5X5X,X5X",
"5X5X5X5X5X5X5X5X5X5X5X5X5X5X5X5X6X4XM.k.-.;.7.b 8.I.a.7 2 l <.^.~.R.E.GXIXPXJX^.{ c.@X5X6X5X>XaX7XiX7X7X7X5X5X5X5X,X5X5X5X5X5X5X",
"5X5X5X5X5X5X5X5X5X5X5X,X5X5X5X5X8X3Xk.- %.mXVXi.i.I.u.6 q 1.zXFXcX~.E.{.LXPXLX^.{ B.@X6X6X$X#X8X8X5X5X7X5X5X5X5X5X5X5X5X5X5X5X5X",
"5X5X5X5X,X5X5X5X5X5X5X5X5X5X5X5X1X2XX.. *.SXSXU.a.t.l 4 ` ,.1.^.[.[.[.kXkXGXkX] _ x.*X8XaX*X|.$X*X*X*X5X5X5X7X5X5X5X5X5X5X5X5X5X",
"5X5X5X5X5X5X5X5X5X5X5X5X5X5X5X5X7X:Xk.= *.NXDXMXP.: 1 } O.] ] { ,.cXGX_.)._.E.` 5 j.0X>XuX7X|.,X7X7X7X5X5X5X5X5X5X5X5X5X5X5X5X,X",
"5X,X5X5X5X,X5X5X5X5X5X5X5X5X5X5X>X6Xc.k.-.>.u.<.P 6 ` ~.~.1.1.1.^.<.^.).)._.~.4 X j.+X8XaX8X%X*X,X,X5X5X5X5X5X5X5X5X5X5X5X5X5X5X",
"5X5X5X5X5X5X5X5X5X5X5X,X5X5X5X5X>X$X@XOXj., X < 4 4 ,.^.zXzXcXbXnX$.{ W.).[.<.0 5 j.4X7X<X7X8XaX@X5X5X5X5X5X5X5X5X5X5X5X5X5X5X5X",
"5X5X5X5X5X5X5X5X5X5X5X5X1X5X5X5XpX,X5X*XA.S N + O 4 ` @.#.<.zXFXFX[.~.{ ] $.$.o.k.S.2X X%X7X>X*X7X,X5X5X5X5X5X1X5X5X5X5X5X5X5X5X",
"5X5X5X5X5X5X5X5X5X5X5X,X5X5X5X5X7X7X7X6X#XJ.b.8 + @   @ 2 ] ,.cXFXFX[...    5 j.OX$XuX,X*X6X=XH.5X5X5X,X5X,X5X8X5X5X5X5X5X5X5X5X",
"5X5X5X5X5X5X5X5X5X5X5X5X5X5X5X5X$X,X1X1XC.j.=.7 $ O O   O 1 ) ^.GXUXGXO.( @ < X.l..XpX5X*XvXcXvX3X5X5X5X5X,X5X5X5X5X5X5X5X5X5X5X",
"5X5X5X5X,X5X5X5X5X5X5X5X5X5X5X5X6X#X XOXl.m ; 6 3 & % .     < ] ~.FXFX/.[ [ 4 < N l.9X5X+X`.'.GX3X1X5X5X,X5X5X5X,X5X5X5X5X5X,X5X",
"7X,X5X5X5X5X5X5X5X5X5X5X5X5X5X5X&X1X7X4Xc.A q 4 4 O o   X N X.+.+.<.<.O.[ ( ` & w m.uXgXAXGX'.{.6X3X,X,X$X,X5X5X5X5X5X5X5X5X5X5X",
"5X5X,X5X5X5X5X5X5X5X5X5X5X5X5X5X8X7XpX6X@XD.k.o   X     5 M.XX+XM.$.5   O ' ` n 7.V.rXZXCXCXqXjX,X,X,X7X5X5X5X5X5X5X5X,X5X5X5X5X",
"5X5X5X5X5X5X5X5X5X5X5X5X5X5X5X5X5X,X7X6X6X*XM.X.N M N M j.XXpXeXC.N   # w f x n g V.0XgXZXgX1X<X,X1X,X5X5X5X5X5X5X5X5X5X5X5X5X5X",
"5X5X5X5X5X5X,X5X5X5X5X5X5X,X5X5X,X>X5X6X=X*X2XXXXXoXXXD.J.@X,X%XC.- . 3.6.9.4.w 6 j.#X8X8X>X<X1X8X5X5X5X5X5X5X,X5X5X5X5X,X7X5X5X",
"5X5X5X5X5X5X5X5X5X5X,X5X5X5X5X5X$X,X<X5X=X*X6XiX8X5X8X5X5X3X6X8XC.k.V b 2.2.2.8 M ].fX7X$X5X6XrX7X5X5X5X5X,X,X,X5X5X5X5X5X5X5X5X",
"5X5X5X5X5X5X5X5X5X5X5X5X5X5X5X5X5X,X>X,XeXrXrX6X5X8X,X>X,X7X3X9XuXXXm.N . # : k.S.yXHXfX=X8X7X$X5X5X5X5X5X,X,X,X5X5X5X5X5X5X5X5X",
"5X5X5X5X5X5X5X5X5X5X5X5X5X5X5X5X7X8X7X,XeXtXtXrX7X,X1X,X5X5X7X1X7XeXD.k.N N M C.eXhXHXhXtXpX7X#X&X5X5X5X5X,X5X,X5X5X5X5X5X5X5X5X",
"5X5X5X,X5X5X5X5X5X5X5X5X5X5X5X5X@X6X5X7X8XqXtXeX6X,X$X*X6X,X<X1X5X*XH.C.}.}.oXOXeX7XaXgXhXrX6X=X*X5X5X5X5X5X5X5X5X5X5X5X5X5X5X5X",
"5X5X5X7X5X5X5X5X,X5X7X,X5X5X5X5X5X*X6X5X8X4X4X5XeX*X#X=X0X$X#X,X1X&X$X3X2XuXfX-XeXZ.H.ZXCXgX*X*X5X5X5X*X,X5X5X5X5X5X,X5X5X5X5X5X"
};
