/* XPM */
static char *result[] = {
/* columns rows colors chars-per-pixel */
"64 62 256 2 ",
"   c #080609",
".  c #170B0B",
"X  c #09140A",
"o  c #170D15",
"O  c #1A1516",
"+  c #101312",
"@  c #271818",
"#  c #381B1A",
"$  c #2E0F0A",
"%  c #0B2518",
"&  c #162517",
"*  c #132C15",
"=  c #28271A",
"-  c #372818",
";  c #353118",
":  c #10162E",
">  c #391A25",
",  c #2F1532",
"<  c #192525",
"1  c #162C31",
"2  c #282727",
"3  c #392725",
"4  c #3B3527",
"5  c #392834",
"6  c #393838",
"7  c #2B3231",
"8  c #491A19",
"9  c #47261B",
"0  c #532E19",
"q  c #6F2C1C",
"w  c #4D1827",
"e  c #482928",
"r  c #552825",
"t  c #4B3D25",
"y  c #4C3D2B",
"u  c #463628",
"i  c #523D2C",
"p  c #583929",
"a  c #462735",
"s  c #4C3D32",
"d  c #473735",
"f  c #533D33",
"g  c #553A35",
"h  c #5C2936",
"j  c #70312A",
"k  c #641822",
"l  c #18502D",
"z  c #3A4528",
"x  c #3A4A34",
"c  c #2B5131",
"v  c #1A6F3A",
"b  c #23743D",
"n  c #2E6A3C",
"m  c #1E441A",
"M  c #4C432D",
"N  c #4A4529",
"B  c #53422D",
"V  c #57462A",
"C  c #4C4332",
"Z  c #474736",
"A  c #534233",
"S  c #5A4233",
"D  c #54423A",
"F  c #584C36",
"G  c #5C533A",
"H  c #515136",
"J  c #654A37",
"K  c #62523C",
"L  c #675838",
"P  c #75593C",
"I  c #675030",
"U  c #6A613B",
"Y  c #716236",
"T  c #544A1F",
"R  c #171954",
"E  c #191C4A",
"W  c #142E51",
"Q  c #382649",
"!  c #363844",
"~  c #292D4D",
"^  c #1C3777",
"/  c #2E2E6C",
"(  c #291D51",
")  c #492F4C",
"_  c #63274C",
"`  c #4D0762",
"'  c #660B50",
"]  c #347749",
"[  c #2C754D",
"{  c #326D6E",
"}  c #295656",
"|  c #585743",
" . c #4F4D49",
".. c #675A45",
"X. c #785947",
"o. c #6C4D46",
"O. c #4B7452",
"+. c #6B6247",
"@. c #756347",
"#. c #6E685B",
"$. c #50516F",
"%. c #506B6D",
"&. c #6D7270",
"*. c #91331A",
"=. c #AA3F1B",
"-. c #893727",
";. c #993829",
":. c #94372F",
">. c #A83A29",
",. c #97441B",
"<. c #A44114",
"1. c #97442B",
"2. c #B1432D",
"3. c #CB683E",
"4. c #875648",
"5. c #916F4D",
"6. c #B07858",
"7. c #997667",
"8. c #8F6766",
"9. c #AF7966",
"0. c #2F883F",
"q. c #00FF03",
"w. c #00FF08",
"e. c #17FE1E",
"r. c #17FE22",
"t. c #17FE26",
"y. c #0EFF20",
"u. c #378855",
"i. c #3A9B5B",
"p. c #2C8D4E",
"a. c #3BA55C",
"s. c #23A25F",
"d. c #379166",
"f. c #38A565",
"g. c #39B569",
"h. c #4D8D56",
"j. c #498E63",
"k. c #4A9B68",
"l. c #4F936B",
"z. c #47B76A",
"x. c #49B875",
"c. c #4FAC6B",
"v. c #60946E",
"b. c #3BC676",
"n. c #3AD474",
"m. c #3BFF78",
"M. c #3DFD6E",
"N. c #46CA79",
"B. c #48D676",
"V. c #40FE76",
"C. c #44FB7B",
"Z. c #4AF176",
"A. c #BC9069",
"S. c #87887A",
"D. c #CC8F66",
"F. c #CF8D60",
"G. c #2A3A87",
"H. c #2E3898",
"J. c #324992",
"K. c #334CB8",
"L. c #3252AF",
"P. c #21569C",
"I. c #505B92",
"U. c #71718C",
"Y. c #556FB1",
"T. c #6A77B4",
"R. c #4D6996",
"E. c #5569CA",
"W. c #2C5CC8",
"Q. c #931189",
"!. c #B008A0",
"~. c #C607AC",
"^. c #827E8B",
"/. c #A5669F",
"(. c #CD3DD7",
"). c #A777CC",
"_. c #BF5FCB",
"`. c #CB46D2",
"'. c #758A8B",
"]. c #4CB583",
"[. c #7787AD",
"{. c #69AD9D",
"}. c #3BFE86",
"|. c #3EFE99",
" X c #3BD684",
".X c #48C986",
"XX c #55CC85",
"oX c #4CDB88",
"OX c #54DA87",
"+X c #6FD09B",
"@X c #4AE689",
"#X c #54E889",
"$X c #45FE8B",
"%X c #4CFE8C",
"&X c #4AF989",
"*X c #53FD8D",
"=X c #5BFC8D",
"-X c #54F988",
";X c #57EA97",
":X c #4CF593",
">X c #45FE94",
",X c #4CFE94",
"<X c #46FF9A",
"1X c #4DFE9A",
"2X c #4EF599",
"3X c #54F594",
"4X c #52FE94",
"5X c #5AFC94",
"6X c #55F599",
"7X c #5CF59C",
"8X c #53FD9B",
"9X c #5AFC9B",
"0X c #5AF293",
"qX c #4FEB97",
"wX c #64E999",
"eX c #64F79A",
"rX c #6EF098",
"tX c #70D5A9",
"yX c #5DEBA3",
"uX c #4CFEA2",
"iX c #47FFA0",
"pX c #53FDA2",
"aX c #5BFCA2",
"sX c #5AF8A7",
"dX c #69E8A4",
"fX c #77EDA5",
"gX c #68F5A4",
"hX c #72EDAE",
"jX c #5DDAA0",
"kX c #7C89C0",
"lX c #929296",
"zX c #A2969A",
"xX c #8E96B0",
"cX c #A186BC",
"vX c #8CAFB2",
"bX c #A9B3B5",
"nX c #E3AFA5",
"mX c #DBB18F",
"MX c #90D2AD",
"NX c #AFC6BE",
"BX c #88E3A5",
"VX c #85EAB1",
"CX c #C9C5B8",
"ZX c #F9CCAE",
"AX c #8C96C5",
"SX c #A28BC1",
"DX c #9CABD6",
"FX c #AABAC9",
"GX c #B1AEC6",
"HX c #C2A7C7",
"JX c #AAD5CC",
"KX c #CFCCD0",
"LX c #DCDAE5",
"PX c #D8E9F1",
"IX c #EBEFF3",
"UX c #E0D8EF",
/* pixels */
"pX4X=X=X-X5X,X,X1X<X9X5X,X,X5X6X4X4X$X>X<XpXgX=XeX%X%X$X4X7X5X8X4X=X5X8XpX5X4X,X4X<X,X&X%XpXpX6X>X,X4XeX9X<X<X8X:X-X=X=X4Xm.t.w.",
"<X1X4X=X-X*X5X8X4X4X=X=X4X4X8X9XaX,X%XwXtXyXpX8X*X*X-X$X,X8X8X5X4X$X,X9X9X%X&X,X=X4X8X=X*X1X1X=X8X4X*X*X8X<X8X5X4X-X5X5X8Xm.t.q.",
">X<X8X4X*X*X4X8XiX<X$X%X*X,X%X-X,X%XsXbXGXtXsXpX4X4X8X8X4X%X4X5X*X%X4X1X4X4X%X1X8XpX,X*X-X4X1X,X4X4X%X,X<X1X4X5X*X*X4X1XiX}.t.q.",
"1X1X1X,X*X4X4X8X6X1X>X>X1X<X>X5X%X*X;XxX/.'..Xx.x.x..XqX4X&X4X8X4X4X#XN.B.0XdXhXhXsX,X*X=X5X8X8X,X*X,X>X>X4X4X4X=X*X8X1XuX}.t.q.",
"6X5X*X,X4X,X4X%X%X*X$X,X9X8X>X5XeX=X0Xv._ u z Z N z } N.9X4X%X5X1X9XN.n O.BXMXNXMXdX4X%X4X5X-X&X$X4X8X<X,X%X,X<X,X*X4X3X4XV.e.q.",
"6X=X-X*X4X8X,X%X$X,X,X4X9X4X%X&X4X5X@X] @ # u t e e Z h.c.z.N.:X2XN.h.V F v.vXMX+XeX%X,X2X1X$X$X4X8X8X8X%X*X,X<X1X%X4X=X0XV.r.q.",
"=X*X*X4X1X1X8X1XsX9X5X4X4X0X3X,X,X,X@Xv & ; K I K ..G C i u ] .XXXO.t I J d O.jXaX5X*X8XpX<X2XyX7X9X5X=X5X8X8X,X1X>X8X4X=XV.r.q.",
"-X4X8X1X1X,X8XpX7X5X=X*X3X+XvXtX:X:X:Xz.c c C V L Y +.V 8 8 C j.j.H t I f 2 [ @XsX9X9X9X,X3XtXvXjX0X*X=X6XpX8X5X8X>X1X4X=XV.r.q.",
"uXsXpX4X,X<X8X8X5X=X-X&X-XxX(.SX7X,X}.:XXXv + 3 A P Y L | B 4 6 d I Y Z 6 2 [ OX9X*X4X%X>XsXAX(.xX3X$X-X,XgX8X>X:X>X8X8XuXm.t.q.",
"uX8X>X,X4X4X4X,X6X:X*X,X4X{.SXAX,X1X8XOXl.6 o $ - N I L ....C @ 2 T I N a 5  .j.k.a.N.%X>X7XvX).vX0X4X4X-X=X%X9X4X4X4X4XpX$Xt.q.",
"4X4X*X*X5X=X*X*X5X,X,X3X9XyXtXsX4X8X#Xj.6 2 @ X . = ; H ..@.G @ X 9 p 0 r d d x 4 ; h.B.*X=XwXjXdX:X<X6X%X1X=X=X9X*X4X*X5XV.t.q.",
"5X*X-X4X4X*X*X=X4X>X,X0X4X1XuX.Xk.l.l. .- e 3 3 - - t C G K F 3 ; u r 0 p D D e 3 ; x h.a.h.B.%XpX>XuXpX%X4X*X*XeX*X,X%X,Xm.r.q.",
"4X$X*X8X8X4X,X0X1X4XgX8X<X>X#Xl.) u u p p g p J P V V V S y y s N s f p V L G A z z z z ; u h.@X:X5X3X9X5X3X*X4X9X4X5X=X4XV.r.q.",
"4X5XrXhXpX,X8X+XxXvXyX>X>Xn.p.c > # 9 u B F L @.P L I V f y y A A f D V I L ..| G F y 9 8 # z p.n.4X,X;XvXAX+X8X>X5XgXfXrXC.t.q.",
"4XeXBXVX6X%X3XvX(.).dX>XZ.0.O O - 4 y u f | | +.P L I V S A S p V Z | L Y +.+...G M y y e w O % 0.B.%XyX).`.xX4X>XeXfXfXeXV.r.q.",
"=X4XhXhX6X=X8XtXcXvX0XN.0.m > $ 9 N z 4 - 5 F ..@.+.U L J G K I V | ..X.4.+.L J d > 5 Z M a > @ m p.g.8XvXcXtX1X,X7XhXfXaXm.r.q.",
"%X5X6X4X4X4X8XaX3X9X6Xi.* * N p C g p O + @ e o.L Y U U U Y 4.X.U U U U @.P S e @ O @ d g p V V = * i.1X5X7X4X6X4X4X8X8X7XC.r.q.",
">X8X8X4X=X*X$X>X%X8XaXN.p.k.c.n = - e = = 3 e s I F K L U @.@.@.@.U L K J I B d 3 = = 3 # = n c.k.p.b.8X9X,X>X,X*X=X8X4X1Xm.y.q.",
",X4X4X4X=X*X%X%X:X7XaX0X&X0XXX[ + $ # 4 N A t M i i A K +.+.+...+.U K B y N B y B t 4 - $ + } N.3X6X;XsXeX:X%X%X4X=X7X4X4XM.e.q.",
"%X*X1X,X4X5X,X2X5X3X3X4XpXN.] c 2 - u y M V B N A y f F G K G | K K F A i t M M N M s u 9 = c [ b.gX9X3X7X:X,X,X4X4X4X5X4XM.r.q.",
"*X,X6X5X4X4X<XiXuX,X$X&XOX[ % @ s D S B N M s s A C f A S i i y B S D A A A M M M C A S S s 2 O [ OX:X&X,X,X1X<X4X4X9X5X1Xm.t.q.",
"<XgXBXBX7X>X>X8X7X,X*XN.O.6 @ 3 y f S B Z M Z D B A A B S t i i i f D C B S D C Z C p V A u 3 @ 4 O.N.&X4X8XuX8X,XeXfXBXgXm.t.w.",
"<XdXMXBXeX>X4X5XaX8X4Xa.2 # 3 e N y g g f M s f i S f B M i i i M D C f i g g C y i g p B y 4 3 @ ; i.:X9X9X8X9X4XeXBXMXfXC.r.q.",
">X9XfXfXeX4X6X8X8XuXiXi.& $ 4 M N i g p g y s C i A D D C M B M t f A B V A ) s p g D A M B B u @ O p.8XpXpX>X4X-X5XhXfXsXm.r.q.",
"8X4X4X*X*X=X9X9X8X:X Xu.% = z V H C p g S y y s g D C C C C M B V N N i g f C y N i t M s C H N = & [  X:X8X5X9X5X-X5X5X8Xm.t.w.",
"%X4X4X*X*X*X4X5X7Xz.l 7 2 4 N N Z M t e 3 u N V D y y t N B B S M C x s f C C M t a e p A C N N u 2 * c g.8X8X5X*X*X*X*X4Xm.r.q.",
"4X8X4X4X4X%X4X9X,Xz.m 7  . .N 4 u V I u > u t N Z M N u M B S S M C d s C N M s 4 > e P V 4 ; z Z  .7 c f.5X5X4X4X,X4X4X8Xm.e.q.",
"8X1X8X8X8X8X8X1X1XB.g.x.].O.; $ @ I 6.o.> > e u N M C C s A S C B i i i N T u e 3 > J 5.P @ @ - O.].x.f.B.5X5X,X8X1X8X8XuXm.t.q.",
",X1X8XpX8X8X8X1X8X%X&X8X6Xc.x O . P A.@.9 w r p T p g a d f y u y a h f B T 0 0 w e 4.A.X.o o Z c.6X<X%X4X4X4X<X1X8XpX8XpXm.t.w.",
"&X4X8X5X4X%X,X4X4X4X-X=X4X#Xx.c o J A.5.j J -.*.q 0 e > e > - - 3 3 5 a e q *.>.j i 5.D.X.o l x.;X8X-X=X*X,X8X<X*X4XaX5X4XM.r.q.",
"%X*X4X4X*X-X4X4X:X5X=X4X4X,X6Xs.l ..9.4.p j ;.>.-.j r r r 0 0 r r r 0 0 q -.;.;.:.D P 6...l p.sX8X4X=XeX4X,X8X8X*X%X4X5X4XM.e.q.",
",X4X4X5X4X4X8X8X1X*X,X1X8X,X4X@X].h.P g 3 w j j *.>.1.1.*.<.;.;.;.,.*.=.;.;.j r 9 3 p 4.h.z.Z.,X4X4X%X,X1X8X5X*X*X*X8X9X8Xm.r.q.",
"4X4X4X4X4X4X4X4X4X4X4X,X4X4X4X8X4Xh.g d c 7 @ k j :.1.,.=.>.2.2.2.>.=.;.*.-.w O , ' _ t h.-X4X4X4X4X4X4X4X4X4X4X4X,X,X4X4XV.r.q.",
",X4X4X4X4X4X4X4X8X4X4X4X4X4X4X8X9Xp.4 h.g.c . $ 8 r p q *.>.>.:.>.>.*.0 0 r # + ` ~.!.) j.@X,XpX4X4X4X4X,X4X4X4X4X4X4X4X8XV.r.q.",
"4X4X4X4X4X4X,X4X4X4X4X4X4X4X4X8X0Xa.n N.6Xf.c = @ O # k q j j q q q k @ @ @ , ' Q.!.Q.Q u.:X,XpX4X4X4X4X4X4X4X4X4X,X4X4X4XV.e.q.",
"4X4X4X4X4X4X4X4X4X4X4X4X4X4X,X8X>X@XB.@X3X&Xg.v X   . # r w # - 9 w w o     ` !.!.' 5 5 u.,X8X5X4X4X4X4X4X4X4X4X4X4X4X4X8XV.r.q.",
"4X4X4X4X4X4X4X4X4X4X4X4X4X4X8X8XuX,X$X,X>Xn.f.l o : E Q 6 2 < = 2 a ) ! 7 E ` !.Q.o.L J O.x.oX$X4X4X4X4X4X,X4X4X4X4X4X4X4XV.r.q.",
"4X4X4X4X4X4X4X4X8X4X4X4X4X4X4X4XsX8X$X4XqXp.< : ( H.J.J./ ~ ~ W ( / I.xX[.} R , h 9.F.6.4.Z k.:X4X4X4X4X4X4X4X4X4X4X,X4X4XV.r.q.",
"4X4X4X4X4X4X4X4X,X4X4X4X4X4X4X8X8X8X%XoXf.1   E H.K.K.K.P.J.^ G.J.H.T.DX[.$.: & V A.D.D.4.8 ] qX4X4X4X4X4X4X4X4X4X,X4X4X5XV.r.q.",
"4X4X4X4X4X4X4X4X8X4X4X4X4X4X,X4X%X3XjX].~ + : / L.P.J.K.L.W.L.L.L.K.E.DX'.2 @  .X.X.A.D.X.O b #X4X4X4X4X4X4X4X4X4X4X4X4X8XV.r.q.",
"4X4X4X4X4X4X4X4X4X,X4X8X4X=X4X%X*XoXk.O.! d ) { P.^ ^ P.W.L.P.L.K.E.AXGXlX= O Q a y J X. .b g.3X4X4X4X4X4X4X4X4X4X,X4X4X4XV.r.q.",
",X4X4X4X4X4X4X4X*X,X8X,X4X4X,X3X@Xh.x Z ..7.9.%.W : : J.L.P.G.G.R.AXFXFXU.! < o + X X & [ n.,X*X,X4X4X4X4X4X4X4X4X4X,X4X8XV.r.q.",
"4X4X4X4X4X4X4X4X4X4X9X,X4X4X>XOXc.#.8.5.7.F.6.g : : : / J.G.^ ^ I.xXbX^.$.) ~ l v v v [ '.MXVX6X4X4X4X4X4X4X4X,X8X,X4X4X4XV.r.q.",
"4X4X4X4X4X4X,X4X4X4X4X%X5X4X:Xi.x 7.nXmXF.3.1.8 : ( ) ` / / J.G.Y.bXxX$.5 ( { n.@X@XqXjXvXHXbX5X4X4X4X4X4X4X4X4X4X4X4X4X8XV.r.q.",
"4X4X4X4X4X4X4X4X>X4X4X4X5X9X3Xb , 7.ZXZXF.<.q D %.U.U.U.U.Y.[.[.xXbX[.{ / / R.}.8X8X4XeXfXFXtX5X4X4X4X4X4X4X4X4X8X,X4X*X4XV.r.q.",
"4X4X4X4X4X4X4X4X,X4X4X4X*X5X3Xp.< 8.nXmX6.p 3 &.bXFXFXFXFXFXKXUXKXbX'.Y.H./ { oX8X,X*X4X6X:X8X6X4X4X4X4X4X4X4X4X4X4X,X4X8XV.r.q.",
"4X4X4X,X4X4X4X4X4X4X4X4X,X4X5Xb.p.O.#.X.J  .U.bXPXPXPXPXPXLXIXIXLXlX$.Y.I.1 v oXeX*X%X,X<X*X%X4X4X4X4X4X4X4X4X4X4X4X8X4X4XV.r.q.",
"4X4X4X4X4X4X4X4X4X4X6X,X,X4X8X9XB.O.%   @ &.FXLXIXIXIXIXIXIXIXIXGX&.$.'.#.< }  XaX4X*X%X4X4X4X*X4X4X4X4X4X4X4X4X4X4X4X4X4XV.r.q.",
"4X4X4X4X4X4X,X4X4X4X4X4X4X4X,X4X>Xb.[ 1 2 I.AXGXNXCXCXKXKXCXKXDXT.Q ) v.^...O.d.].qX9X5X9X,X$X=X4X,X4X4X4X4X4X4X4X,X4X4X4XV.r.q.",
"4X4X4X4X4X4X4X4X4X4X4X4X4X4X4X4X:X3X#Xd.~ G.Y.[.lXlXzXzXlXlX[.Y.I.: 7 &.lXlXU.~ p.@X9X9X8X,X$X4X4X4X4X4X4X4X4X4X4X4X,X4X8XV.r.q.",
"4X4X4X4X4X4X4X4X4X4X4X4X4X4X4X*X2X8X&Xp.7 $.T.T.T.T.T.Y.Y.Y.T.[.I.o 2 U.xX[.$.: v oX8X6X1X,X,X4X4X4X4X4X4X4X4X4X4X4X,X4X4XV.r.q.",
"4X4X,X4X4X4X4X4X4X4X4X4X4X4X4X,X&X1X@X[ < | U.Y.W.K.K.K.L.L.R.'.#.2 5 U.kXY.^ : } oX4X3X8X,X,X4X4X4X4X4X4X,X4X4X8X4X4X4X4XV.r.q.",
"4X4X4X4X4X4X4X4X4X4X,X4X4X4X4X4X4X8X3XN.i. .7 1 E W R R R R 1 ! 7 < Q $.I.E.H.  l n.8XeX:X4X4X8X4X4X4X4X4X4X4X4X4X4X4X4X8XV.r.q.",
"4X4X4X4X,X4X4X4X4X4X4X4X4X4X4X,X,X8X8X6XqX[ % % % % % : % % % X : , 5 ( / K.G.: v @X9X9X4X=X5X4X4X4X4X,X4X4X4X4X4X,X4X4X4XV.r.q.",
"4X4X4X4X4X4X4X4X4X4X4X4X4X4X4X4X$X,X8X8X:Xb.d.f.i.i.f.f.d.f.] % . r h Q ( ( } s.b.:X4X4X4X=X*X,X4X4X4X4X4X4X4X4X8X4X4X4X8XV.r.q.",
"4X4X4X4X4X4X4X4X4X4X4X4X4X4X4X4X5X-X=X6X,X8X7X=X8X,X,XiXiX8XN.* $ q j ) :   l n.8X8X4X1X4X-X%X4X4X4X4X4X4X4X4X4X4X,X4X4X4XV.r.q.",
"4X4X4X,X4X4X4X4X4X,X4X4X4X,X7XrXMXfX5X*X%X4X4X5X5X=X%X4X8X<Xb.* $ ;.>.>.h . l n.pX*X*X$X,X6XpX>X4X4X4X4X4X4X4X4X4X4X4X4X4XV.r.q.",
"4X4X4X4X4X4X4X4X4X4X4X4X,X4XaXrXBXfX5X4X4X4X,X%X*X-X&X4X9X1X X} - -.>.>.j = b @XeX4XwXtXjX5X5X,X4X4X4X,X4X4X4X4X4X4X4X4X4XV.r.q.",
"4X4X4X4X4X4X4X4X4X,X4X4X4X4X6XeXdXgX8X5X5X5X=X=X*X=X=X5X5X4X:XN.h.; $ $ z j.B.<X,X6XvX_.xXyX4X3X4X4X4X4X4X4X4X4X4X,X8X4X8XV.r.q.",
"4X4X4X4X4X4X4X4X4X4X4X4X4X4X4X9X7X1X>X4X3X5X4X=X*X5X5X8X3X4X8X9XN.v * * ] OX8X<X>X6XbX`.SXyX,X4X4X4X4X4X4X4X4X4X4X4X,X4X4XV.r.q.",
"4X4X4X4X4X4X4X4X8X4X4X4X4X4X4X,X5X,X,X4X8X<X<X>X4X5X4XpX8X4X4X1X:Xn.g.z.N.:X1X,X4X9XdX{.jX5X,X>X4X4X4X4X4X4X4X4X4X4X4X4X8XV.r.q.",
"4X4X4X4X4X4X4X4X4X4X4X4X4X4X4X,X4X%X%X4X8X<X|.|.4X8X8XuX1X4X4X8X1X%X$X,XpXuX1X4X5X=X,X}.&X%X1X4X4X4X4X4X4X4X4X4X4X,X4X4X4XV.r.q."
};
