/* XPM */
static char *result[] = {
/* columns rows colors chars-per-pixel */
"64 66 256 2 ",
"   c #090709",
".  c #170908",
"X  c #171308",
"o  c #090A14",
"O  c #160A16",
"+  c #1A1616",
"@  c #081916",
"#  c #280A09",
"$  c #27180B",
"%  c #261917",
"&  c #371917",
"*  c #2E0F0E",
"=  c #172617",
"-  c #162D14",
";  c #29261A",
":  c #38281B",
">  c #3C3518",
",  c #2F3316",
"<  c #0F132E",
"1  c #271927",
"2  c #361926",
"3  c #142F28",
"4  c #292624",
"5  c #382726",
"6  c #263B27",
"7  c #3A3529",
"8  c #392934",
"9  c #2E3137",
"0  c #481B17",
"q  c #501911",
"w  c #47291A",
"e  c #48341C",
"r  c #582C18",
"t  c #772818",
"y  c #6A3018",
"u  c #4B1C26",
"i  c #511924",
"p  c #462A28",
"a  c #582927",
"s  c #4C332B",
"d  c #443C2D",
"f  c #4B3C2D",
"g  c #463726",
"h  c #573929",
"j  c #4C3C33",
"k  c #473836",
"l  c #523C34",
"z  c #583937",
"x  c #4C2B35",
"c  c #772926",
"v  c #773629",
"b  c #683B39",
"n  c #6D342D",
"m  c #671D1B",
"M  c #174F2D",
"N  c #3A4525",
"B  c #384838",
"V  c #294E2F",
"C  c #1A6A36",
"Z  c #29693C",
"A  c #374A1D",
"S  c #4C432C",
"D  c #474428",
"F  c #56462B",
"G  c #4C4334",
"H  c #4A4637",
"J  c #534335",
"K  c #584737",
"L  c #5A5639",
"P  c #4B5733",
"I  c #654127",
"U  c #674A37",
"Y  c #63523B",
"T  c #6A5839",
"R  c #755B3A",
"E  c #76453B",
"W  c #486439",
"Q  c #69643A",
"!  c #74633B",
"~  c #74632F",
"^  c #50481A",
"/  c #261D48",
"(  c #182B52",
")  c #282847",
"_  c #2C3254",
"`  c #1C306D",
"'  c #2E366D",
"]  c #15144C",
"[  c #4E3B5A",
"{  c #334C50",
"}  c #1B7645",
"|  c #396646",
" . c #297947",
".. c #31724B",
"X. c #354D6F",
"o. c #3A7063",
"O. c #465946",
"+. c #514E4E",
"@. c #675943",
"#. c #755A44",
"$. c #6F5650",
"%. c #467755",
"&. c #496F50",
"*. c #71654B",
"=. c #4D5469",
"-. c #446F6E",
";. c #6C6F78",
":. c #6B5F74",
">. c #8B311B",
",. c #86382A",
"<. c #973827",
"1. c #922D26",
"2. c #AF3929",
"3. c #A1381B",
"4. c #B94D1D",
"5. c #944B2F",
"6. c #AE4C30",
"7. c #926232",
"8. c #C94E2F",
"9. c #D56433",
"0. c #EB7038",
"q. c #8D3C43",
"w. c #87554C",
"e. c #8F6B54",
"r. c #A87251",
"t. c #926E6A",
"y. c #AC736A",
"u. c #9D5E5D",
"i. c #CE5C40",
"p. c #D66E48",
"a. c #EB724A",
"s. c #CC7A6A",
"d. c #2B803C",
"f. c #35884D",
"g. c #388653",
"h. c #2E9055",
"j. c #399B65",
"k. c #3B8B68",
"l. c #37A768",
"z. c #3BBA72",
"x. c #35B26C",
"c. c #2B9854",
"v. c #468F54",
"b. c #479565",
"n. c #4D936B",
"m. c #4BB06F",
"M. c #6CAF6C",
"N. c #54A85D",
"B. c #3BC675",
"V. c #39D075",
"C. c #3DE479",
"Z. c #48C576",
"A. c #46D57B",
"S. c #4FCA73",
"D. c #4DEE7B",
"F. c #93846E",
"G. c #B88A6F",
"H. c #959368",
"J. c #C7906E",
"K. c #DA936B",
"L. c #293988",
"P. c #3D3FA6",
"I. c #2F5090",
"U. c #345DB0",
"Y. c #4B518D",
"T. c #556A93",
"R. c #6C708E",
"E. c #5875B6",
"W. c #6269A4",
"Q. c #3557C5",
"!. c #5466CD",
"~. c #9475A3",
"^. c #D02CD5",
"/. c #B754CD",
"(. c #A96ED0",
"). c #C051C9",
"_. c #3EB18A",
"`. c #758781",
"'. c #7CB7B0",
"]. c #66979B",
"[. c #3FD084",
"{. c #3AE889",
"}. c #49D885",
"|. c #54D785",
" X c #51CF8A",
".X c #76D293",
"XX c #4AE68A",
"oX c #54E788",
"OX c #4BFF82",
"+X c #4CFD8D",
"@X c #49F88A",
"#X c #53FD85",
"$X c #53F48D",
"%X c #53FD8D",
"&X c #59FC8C",
"*X c #57F58A",
"=X c #56EE95",
"-X c #45FF94",
";X c #4DFE93",
":X c #4CFE9A",
">X c #49F999",
",X c #55F494",
"<X c #52FE94",
"1X c #5AFC94",
"2X c #5BF49A",
"3X c #53FD9A",
"4X c #5AFB9B",
"5X c #58F597",
"6X c #4AEA96",
"7X c #69EB9B",
"8X c #65F59B",
"9X c #69EA94",
"0X c #75D0AC",
"qX c #5AEAA4",
"wX c #4CFFA3",
"eX c #4AFCA8",
"rX c #53FCA2",
"tX c #59FAA4",
"yX c #55FDB0",
"uX c #6AE9A7",
"iX c #78EAA6",
"pX c #68F6A3",
"aX c #74F6A7",
"sX c #7AA2C8",
"dX c #7793D7",
"fX c #8C8F93",
"gX c #AE918D",
"hX c #8E94B2",
"jX c #B792B7",
"kX c #88A6AF",
"lX c #AAAEB3",
"zX c #A2B685",
"xX c #D19B8B",
"cX c #CEAF94",
"vX c #ECB394",
"bX c #CFB2A7",
"nX c #EFBEA7",
"mX c #8ED1B1",
"MX c #A5C9B9",
"NX c #83E8AC",
"BX c #83C59F",
"VX c #FBD5B8",
"CX c #F5CAAF",
"ZX c #FFE5B9",
"AX c #DFCCAC",
"SX c #9396CB",
"DX c #8DA7CD",
"FX c #B0B5CE",
"GX c #A4ACDC",
"HX c #BCC3E8",
"JX c #BFC1CD",
"KX c #D1D1D4",
"LX c #F6D4C3",
"PX c #F3E2D4",
"IX c #EBEDEE",
"UX c #D7E0E8",
/* pixels */
"eXwX-X;X+X%X+XOX;X:X:X;X<X,X<X:X<X<X%X1X<X+X>X3X*X+X+X%X<X,X3X:X;X<X@X-XtX&X.X).^.SX6X-X4XtX:X%X+X;X<X<X<X<X<X<X<X<X<X<X<X<X<X<X",
":X:X;X;X<X<X%X%X3X:X;X+X@X1X3X3X<X,X<X<X<X,X<X;X5X8X1X1X,X1X1X<X,X0X0XqX,X#X9X(./.'.6X;X4X4X<X+X;X;X;X<X<X<X<X<X<X<X<X<X<X<X<X<X",
";X;X<X<X,X5X4X5XtX4X%XOXOX<X3X4X5X<X;X;X;X3X<X,X4XpXaX4X3X3X<X-X0X(.(.0X%X#X*XBX0X0X:X<X5X&X%X%X<X<X<X<X<X<X<X<X<X<X<X<X<X<X<X;X",
"+X%X<X,X3X5X4X2XtX4X%XOX+X;X<X3X3X3X3X>X:X3X3X;X=XM..X X}. XA.}.]./.).BX+XD.%X8X:X>X>X;X&X#X%X<X<X<X<X<X;X<X<X<X<X;X<X<X<X<X<X<X",
"<X<X,X3X3X3X;X;X<X<X<X%X%X+X<X<X;X<X<X3X3X:X>X:XZ.%.O.| | | O.| v.].kX7X+XOX;XrX>XwX-XOX*X%X<X1X,X<X3X<X<X<X<X<X<X<X<X<X<X<X<X<X",
"%X,X2X2X;X;X-X+X+X;X1X1X,X<X<X<X;X;X<X<X3X:XwXwXm.N % 5 5 a u i O.m.XX<X3X%X-XXX X X}.XX#X;X;X,X3X3X3X<X<X<X<X<X<X<X<X<X<X<X<X<X",
"%X<X4X4X3X;X+X;X;X;X4X4X&X&X,XtX3X3X<X+X+X<X4X4Xb., % k U E U b z P v.A.3X&XD.j.| | v.S.*X3X:X:X;X<X3X<X<X<X<X<X<X<X<X<X<X<X<X<X",
"D.%X1X4X<X+X+X<X<X3X4X1XD.*X=XqX=X5X<X+X+X<X9X=Xk.= $ J U R ! R Y s B m.|.D.Z.W : & k b.$X3X>X-X>X;X;X;X<X<X<X<X;X<X<X<X<X;X<X<X",
"3XwXtX4X+X@X<X:XeX:X-X4X,X,XkX(.kXqX-X4X4X#XS.%.{ ; X % 8 G T *.T U F O.o...O.L h u k n.#X3X3X+X2X;X-X<X4X<X;X<X<X<X<X<X<X<X<X<X",
";X:X3X<X+X<X5X3XrX5X3X#XD.@XhX/.SXqXOXA.*X|.k.B 5 ; $ X + 7 D F Q @.#.j 4 4 f b U a x n.|.XX}.@X<X<X;X%X1X;X;X<X<X<X<X<X<X;X<X<X",
";X;X%X<X;X3X1X3X3X-X3X%XOX3X'.hX0XtXV.Z ..o.P g w p 7 , = % : w F R Y p & s Y K F x x { ..Z C x.;X;X+X<X<X;X-X<X<X<X<X<X<X<X<X<X",
"-X+X#X%X;X<X1X8X1X+X3XrX1XtX5X@X5XC.d.@ O 8 p e e F H P 7 % X & r U L w : F Q P g 5 8 : $ $ -  .}.=X<X<X<X<X<X1X<X<X<X<X<X<X<X<X",
"3X%X#XOX+X<X1X&X#XD.OX<X,X3X:X1XZ. .6 4 % g s e ^ L L L J 5 2 p g F F e g F F D 7 7 x a 0 i p 6 C x.XX;X<X1X<X<X<X;X<X<X<X<X<X<X",
"<X,X<X+X%X%X%X#X,X=X$X:X<X@X3X|...= + k G h h J F Q Q Q T U l j D D h b z J d 8 7 s z h x z x % - h.6X3X<X<X;X;X<X<X<X<X<X<X<X;X",
";X4X3X<X%X,X=X=XkXhX0XwX,X@XS.f.V ; : J z h F @.@.T Q #.R E K H H S f l J H P P z F K d 7 2 5 V g.Z.,X<X%X;X:X3X<X<X<X<X<X<X<X<X",
";X4XrX:X,X=X2XqX(.).hX,X3XoXv.A > N D S l l U $.$.*.! Q R ~ T J H J G f K T R R T F S 7 5 * =  .}.,X;X+X<X<X3X3X<X<X<X<X<X<X<X<X",
":XtX<XuXhXhX'.qX'.hX'.tX2X,XV.v.W > w 7 s l J U @.*.@.Q ~ ~ R Y L L Y L L R R T F j e y y t r P b. X%XOX+X3X4X+X;X<X1X<X;X3XaXNX",
"$X%X@X0X(./.kX2X*X9X2X3X<XwX6XA.&.> & : g d J z Y @.@.Q Q Q R T T T R T ~ T T Y f x a I 5.6.6.n 7 g.oX1X<X3X1X%X;X1X5X<X1X7XmXMX",
"+X<X+XuXSXhX0X-X&X@X;X:X:X-XZ.h.Z d w p g f G h F U Y @.Q #.R *.! R ~ T Y Y +.h K n v 5.7.J.xXi.v K v.B.+X%X&X%X<X<X,X%X%X2XiXmX",
"1X5X;X:XqX6X-X+X2X4XrXtXwX}.f.- : l z j l j G G I h J J L @.#.T R R T U J l H H I <.6.>.R lXLXxX6.t f ..}.%X1X3X+X;X<X<X<X3XtXyX",
"%X,X;X:X>X-X;X@X$X1X4X6XB.c.V % : J J j k 7 d l h h j f J L L Y E U Y K l G k 7 x 5.6.y U lXIXnXp.2.<.@.n.Z.=X4X+X-X:XrX3X;X<X;X",
"+X-X-X;X>X>X;X+X*X&XtX6X .- ; s f G k j 7 7 a h h l f s d H H K K K K l S H 7 7 7 ,.5.y z gXPXvXa.0.9.5.k g.oX1X+X-XwXeX:X<X%X$X",
";X-X,X1X%X+X$X*X5X<XwX=X .@ & l J d f s > 6 e h f J l g 7 H S S J l J l l S d 5 & ,.6.w.t.gXcXK.a.a.a.,.& Z oX<X%X<X:X:X:X:X:X3X",
"4X<X1X2XrXyX3X#X5X;X&XoX..4 p l b G g w e D A N S z z 8 7 k F D D H H k f F f 5 u 1.8.s.jXgXr.i.a.a.p.,.+ C C.%X<X<X;X<X,X4XtXyX",
"tX3X%X%X1X8X<X;X:XD.B.j.Z e p x s 7 x p D N D S J s s a g k S h h F d z z e e y 1.3.8.s.xXs.i.9.0.9.9.t X C |.8X&X1X1X,X<X3X3XtX",
"4X3X+X+X<X5X<X<X3XD.d.- ; 7 7 w w p p s N D F h s p 5 e f J z l r D D K J 7 a ,.2.4.4.r.s.a.0.0.0.9.4.r X O.BXNX8X1X1X1X<X3X<X1X",
"4X,X;X@X;X3X<X;X-XC.V . # g P W H & p h J G S a x x p 7 H H k h h S S e : % p <.8.8.9.p.a.a.K.0.9.4.>.e V n..XaX1X1X&X%X%X%X<X1X",
"<X3X@X;X+X<X<X+X-X{.C X # 8 n. Xv.5 i z l J d : p x z H 7 8 7 f F F d $ X % q ,.6.9.i.a.p.a.0.9.2.t & | m.oX*X<X3X<X<X%X%X%X%X%X",
"+X;X<X<X,X<X<X+X3X6Xc.C { | m.wXm.&.+.p g S N 5 4 s f 8 8 g g d H K p o @ & m >.2.6.6.6.5.7.7.5.>.w V l.,X<X;X<X:X:X<X<X+X+X;X;X",
";X;X,X5X1X<X<X;XrXrX}.A.Z.|.oX<XoX X%.5 p S 7 5 % : $ X 1 s z l B H 8 <   q 1.<.1.c a a r w * * # Z x.6XtXrX<X%X:X3X3X<X;X;X+X;X",
"<X<X4X<X<X<X1X2X0XmXuX1X5X3X%X%X1X%Xx.| B k s a y q $   + s U J D 7 4 % 0 $.u.q.b b #.T Y p   = M l.@X<X3XrX4X<X+X<X3X3X3X-X;X;X",
"1X3X<X;X+X%X5X8XlX(.mX8X,X:X%X;X%X@X@XS.%.x c 5.<.1.q . o 5 l D e $ # q v xXbX$.2 e.cXcXgX$., | z.XX%X&X;XpXaXuX+X%X,X<X3X:X;X+X",
"<X1X<X;X;X:X,X2XjXjXmXrX;X&X%X%X%X+X-X5Xn.x m <.3.1.t q * 4 7 S g X . y r.LXKX=.1 t.VXZXAXt.z b.$X,X<X<X1X8XpXpX%X<X<X<X<X;X<X+X",
"<X<X<X<X;X:X,X5X0X.X7X:X<X%X;X;X+X+X-X4Xm.7 2 e t >.1.t 0 $ % s g . X 7.xXPXKX=.+ F.AXZXAXy.+.N.*X<X<X;X,X1X8X4X%X%X<X<X<X<X;X<X",
"<X<X<X<X:X:X<X4X;X%X%X%X&X<X;X3X;X+X%X,Xm.| 7 4 w t <.>.r . o 5 5 > h r.vXPXJXn.+.H.VXVXCXG.$.m.*X&X<X+X%X<X<X<X%X<X<X<X3X;X<X;X",
"3X<X<X<X<X<X<X<X<X;X<X<X3X<X3X<X:X1X1X3X,Xm.%.9 u h v I s O   @ 4 *.G.G.cXCXLXbXcXbXCXVXLXxXF.H.1X<X<X<X;X<X;X;X<X<X<X<X<X<X<X<X",
"<X<X<X<X<X<X<X<X:X:X:XrX:X<X<X<XrX4X1X<X;X+Xm.| B Z P D 8 + o   : e.G.G.G.vXCXCXVXCXCXnXcXcXH..X,X<X<X<X<X<X<X<X<X<X<X<X<X3X<X<X",
"<X<X<X<X<X<X<X;X:X<X<X<X<X1X1X;X3X<X;X;X<X<XXXZ.m.S.f.6 + ; : % & h E e.y.J.vXCXZXAXxXs.M.H.NX=X;X<X<X<X3X<X3X<X<X<X;X<X<X<X<X<X",
"<X<X;X<X<X<X<X<X%X1X1X%X<X<X;X3X<X;X-X;X8X7X8X3X3X3Xx.3 O 7 D : 4 2 8 l R u.y.cXcXJ.y.7.Q N.=X:X+X;X<X<X<X;X<X<X<X<X<X<X<X<X<X<X",
"<X<X<X;X<X3X<X3X<X3X;X-X<X;X;X<X+X<X:X:X8XmXNX<X4X3Xm.{ 1 5 7 8 ) _ ) ; : a $.5.R E U v.m.oX3X:X+X;X<X<X<X;X<X<X<X<X<X<X<X<X<X<X",
"<X<X<X;X<X<X<X<X<X<X<X<X<X<X<X<X%X<X-X3XNXlXmX&X@XXX_.X.8 2 5 4 _ =.X._ : & u , A e W m.5X<X;X<X4X<X<X<X;X<X<X<X<X<X<X<X<X<X<X<X",
"<X<X<X<X<X<X<X<X<X<X<X<X<X<X<X<X<X1X+X8XmXJXMX2X[.k.X.X._ O < ( I.hXlXhX:.) 3 | N.j.m.A.#X%X<X3X3X3X<X<X;X<X3X3X<X<X;X<X<X<X<X<X",
"<X<X<X<X<X<X<X<X<X<X<X<X<X<X;X<X;X<X%X8XmXlXmX5X_.X.` ` ) < < ` E.HXUXHXhX_ 3 j.5X3X<X&X#X+X-XwX4X3X<X<X<X<X<X<X<X<X<X<X<X<X<X<X",
"<X<X<X<X<X<X<X<X<X;X<X<X<X<X<X<X:X<X%X<XuXiX7X-Xx._ ] < < ] I.T.sXdXGXdXE._ ( m.3XwXwX3X4X;X-X-X3X<X<X<X<X<X<X<X<X<X<X<X<X<X<X<X",
"<X<X<X;X<X<X<X<X<X<X<X<X<X<X<X<X3X;X;X;X,X<X@XXXx.X.3 3 < ' T.hXsX!.Q.Q.I.' X.m.XX}.XX$X;X+X%X*X3X3X<X<X<X<X<X<X<X<X<X<X<X<X<X<X",
"<X<X<X<X<X;X<X<X<X<X<X<X<X<X<X<X8X<X3X2X3X;X}.k.`.fXfXR.;.R.R.~.T.` ` L.Y.:.*.&...C  .Z.3X;X;X3X<X<X<X<X<X<X<X<X<X<X<X;X;X<X<X<X",
"<X<X<X<X<X<X<X<X<X<X<X;X<X<X<X<X<X%X<X4XtX5Xj.X.R.KXUXKXlXfX;.=.9 < o < [ t.r.U O . ; b.|.rXeX-X<X<X<X<X<X<X<X<X<X<X<X<X<X<X<X<X",
"<X<X<X<X<X<X<X<X<X<X<X<X<X<X<X<X;X+X%X<X3X=X_._ ~.IXIXKXlX;.=._ < ( ] < 8 u.K.e.$.$.*.%.h.z.,X%X;X<X<X<X<X<X;X3X<X<X<X<X<X<X<X<X",
"<X<X<X<X<X<X<X<X<X<X<X<X<X<X<X<X;X;X<X<X;X3Xl.{ R.KXUXHXkX=.9 ( ` ` ` < ; *.G.J.J.vXcX@.= f.*X#X;X;X<X<X<X<X<X<X<X<X<X<X<X<X<X<X",
"<X<X<X<X<X<X<X<X3X;X<X<X;X<X<X<X<X-X;X<X:X3Xj.V [ SXSXdXT.X.( ( ` L.L.( ) 7 e.xXCXVXAX$.  } @X<X<X<X<X<X<X<X<X<X<X<X<X<X<X<X<X<X",
"<X<X;X<X<X<X<X<X<X<X<X<X<X<X<X<X;X;X<X,X<X3Xh.@ ] T.!.Q.I.( ' ' L.L.I.X._ < 8 t.CXVXcX@.- h.=X;X<X<X<X<X<X<X<X<X<X<X;X<X<X<X<X<X",
"<X<X<X<X<X<X<X<X<X<X<X<X<X<X<X<X<X;X3X:X3X,Xj.@ / W.!.Q.I._ _ W.W.W.W.T.o.( 9 +.t.t.*.&.f.Z.$X;X<X<X<X<X<X<X;X<X<X<X<X<X<X<X;X<X",
"<X<X<X<X<X<X<X;X<X<X<X<X<X<X;X<X<X<X:X:X3X$Xj.@ 6 `.dXQ.P.) +.hXFXhXfXM.R.{ ( 1 % . = f.XX:X<X;X,X<X%X<X;X<X<X3X<X<X<X<X<X<X<X<X",
"<X<X<X<X<X<X<X<X<X<X;X<X<X<X<X<X,X1X2XaX8X*XB.h...&.=.' ' :.`.FXJXfX:.=.+.9 + O X M f.V.<XpXpX2X3X3X3X<X<X;X<X<X<X<X<X<X<X<X<X<X",
"<X<X<X;X<X<X<X<X<X<X<X<X<X<X<X<X1X1X9XNXaX&X;XXXk.3 o   _ fXHXHXhXY.) 2 O . . X , b.}.+X$X8XaXpX,X3X<X<X;X<X<X<X<X<X<X<X;X<X<X<X",
"<X<X<X<X<X<X<X<X<X<X<X<X<X<X<X<X1X8X7XaX8X%XC.l.} < < < X.DXGXkX:./ < o   . + ; , Z j.C.+X1XaX8X3X3X<X;X<X<X<X<X<X<X<X<X<X<X<X<X",
";X<X<X<X<X<X<X<X<X<X<X<X<X<X<X<XpXuX8X1X1X,Xl.A < _ ( ` Y.GXDXY.( 1       O 2 & ; + M c.;X%X#X1X;X;X<X;X<X<X3X<X<X<X<X<X<X<X<X;X",
"3X<X<X<X<X<X;X<X<X<X<X<X<X<X<X<X8X8X8X;X;X*Xv.e 2 ] ( ( X.;.R.k.} C M @   O O * % 6 } x.;X%X%X,X;X+X;X<X<X<X<X3X<X;X<X<X<X<X<X<X",
"<X<X<X<X<X<X<X<X<X<X<X<X;X<X<X<X,X3X5X3X<X*XN.I i ) / o   % B m.oXXXl.M     o . = f.}.>X;X;X,X<X+X<X<X<X<X<X<X<X<X<X<X<X<X<X<X<X",
"<X<X<X<X<X<X<X<X<X<X<X;X<X<X<X<X-X:X3X1X<X*XN.n m b z q * . 3 Z.tX4X}.c.M M M M | Z.5X3X>XtX3X@X;X,X<X3X<X<X<X<X<X<X<X<X<X<X<X<X",
"<X<X<X<X<X<X<X<X<X<X<X<X<X<X<X<X3X-X3X$X;X@Xb.% q v 6.<.m . M z.:X:X4XXX[.}.}.A. XXX+X;X3XrX3X1X,X<X3X<X3X;X<X<X<X<X<X<X<X<X<X<X",
"<X<X<X<X<X<X<X<X<X<X<X<X<X<X<X<X3X-X2X8X1X3Xz.} g n 1.,.a V h.V.:X3X:X-X-XwX4XtX:X;X+X<X3X:X3X4X<X<X<X<X<X3X<X<X;X<X<X<X<X<X<X<X",
"<X<X<X;X<X<X<X<X<X<X<X<X<X<X<X<X+X:XuXNXpX8X$XV.%.: # . V j.C.@X<X,X<X;X3X4X4X3X-X;X%X;X>X4X,X@X%X+X<X<X<X<X<X<X<X<X<X<X<X<X;X<X",
"<X<X<X<X<X;X<X<X<X<X;X<X<X<X<X<X<X,XaXiXuX4X<X@XB.C 9 M  . X>X<X3X-X;X+X*X1X;X:X<X@X<X<X<X4X%X;X+X+X<X<X<X<X<X<X<X<X<X<X<X<X<X<X",
"<X<X<X<X<X<X;X<X<X<X<X<X<X<X<X<X<X&X1X5X:X>X;X;XXXA.B.B.[.>X3X%X%X4X3X,X<X,X<X+X%X%X4XrX3X%X%X<XwXrX<X<X<X:X<X<X<X<X<X<X<X<X<X<X",
"<X<X<X<X<X<X<X<X<X<X<X<X<X<X<X<X<X<X1X,X3X-X;X+X<X%XpXtXrXwX<X%X&X4X3X<X%X<X<X%X+X<X2XrX3X%X#X<XwX:X3X<X<X<X<X3X<X<X<X<X<X<X<X<X"
};
