/* XPM */
static char *result[] = {
/* columns rows colors chars-per-pixel */
"64 60 256 2 ",
"   c #150A06",
".  c #19160A",
"X  c #160916",
"o  c #151514",
"O  c #070A0F",
"+  c #261716",
"@  c #381918",
"#  c #2D0F0F",
"$  c #1B281A",
"%  c #10381A",
"&  c #262619",
"*  c #372819",
"=  c #3A3414",
"-  c #10152E",
";  c #281826",
":  c #341A24",
">  c #2C0F34",
",  c #193A25",
"<  c #162D36",
"1  c #282825",
"2  c #372826",
"3  c #263828",
"4  c #3A3727",
"5  c #273437",
"6  c #3A3736",
"7  c #302834",
"8  c #481B18",
"9  c #482719",
"0  c #483719",
"q  c #562F1B",
"w  c #6D321F",
"e  c #421928",
"r  c #511E2A",
"t  c #462B27",
"y  c #552829",
"u  c #483928",
"i  c #55392A",
"p  c #482B33",
"a  c #493936",
"s  c #523C34",
"d  c #563937",
"f  c #532A32",
"g  c #683A27",
"h  c #643837",
"j  c #74342C",
"k  c #0F441B",
"l  c #13442D",
"z  c #384A36",
"x  c #314E30",
"c  c #1A6A37",
"v  c #25713C",
"b  c #49461A",
"n  c #49432B",
"m  c #594629",
"M  c #484536",
"N  c #5C4434",
"B  c #574938",
"V  c #555632",
"C  c #644529",
"Z  c #654636",
"A  c #675838",
"S  c #735A3A",
"D  c #6A5330",
"F  c #686537",
"G  c #6F6535",
"H  c #5D5329",
"J  c #132C53",
"K  c #302C4A",
"L  c #18316B",
"P  c #2F1D5E",
"I  c #4E3649",
"U  c #543A5E",
"Y  c #334E45",
"T  c #1E6942",
"R  c #2B6C43",
"E  c #386445",
"W  c #297445",
"Q  c #2F575D",
"!  c #494847",
"~  c #534C4D",
"^  c #685846",
"/  c #755946",
"(  c #6C4C4C",
")  c #516F4E",
"_  c #6A6248",
"`  c #736446",
"'  c #756556",
"]  c #6E7258",
"[  c #515172",
"{  c #675C66",
"}  c #707274",
"|  c #55706C",
" . c #943E33",
".. c #A43C2D",
"X. c #8F3B1B",
"o. c #914A1C",
"O. c #B34F18",
"+. c #914A30",
"@. c #B84B29",
"#. c #B64935",
"$. c #B1532D",
"%. c #A7653C",
"&. c #C45333",
"*. c #E76F3B",
"=. c #D76B3D",
"-. c #AB5845",
";. c #9A7755",
":. c #8C6851",
">. c #BA6846",
",. c #AA7253",
"<. c #927670",
"1. c #B17967",
"2. c #9E5657",
"3. c #D06D4B",
"4. c #E97547",
"5. c #E87550",
"6. c #DC7668",
"7. c #983C4B",
"8. c #3A8958",
"9. c #349354",
"0. c #3A9365",
"q. c #39B86F",
"w. c #32A158",
"e. c #48995B",
"r. c #498951",
"t. c #4CA45A",
"y. c #4C996B",
"u. c #4CAF72",
"i. c #74A27B",
"p. c #3BC25F",
"a. c #37C86D",
"s. c #3BC573",
"d. c #3AD777",
"f. c #3FE17C",
"g. c #48C878",
"h. c #54C77C",
"j. c #47D378",
"k. c #4ACE6D",
"l. c #4AFF7D",
"z. c #4BEE7D",
"x. c #938677",
"c. c #B48E70",
"v. c #A8845A",
"b. c #E48259",
"n. c #D19370",
"m. c #E88763",
"M. c #EE997A",
"N. c #D6A375",
"B. c #13388C",
"V. c #2B3C89",
"C. c #174689",
"Z. c #314E8D",
"A. c #3655A7",
"S. c #36639E",
"D. c #4B4E89",
"F. c #4D6B8F",
"G. c #71718F",
"H. c #4955A9",
"J. c #5468B1",
"K. c #614D85",
"L. c #604FB9",
"P. c #93109A",
"I. c #BB69B6",
"U. c #927F9B",
"Y. c #D831DA",
"T. c #E029DB",
"R. c #B56CCB",
"E. c #B219C9",
"W. c #768A94",
"Q. c #50BF84",
"!. c #75B094",
"~. c #7189AE",
"^. c #74B9B5",
"/. c #3ED083",
"(. c #3DFF90",
"). c #3DFFA2",
"_. c #4ACA84",
"`. c #56CA84",
"'. c #47D584",
"]. c #56D788",
"[. c #6ACE8E",
"{. c #4BEA87",
"}. c #4CFE85",
"|. c #46FE8C",
" X c #4CFD8D",
".X c #49F389",
"XX c #53FE84",
"oX c #53FC8D",
"OX c #5BFB8D",
"+X c #56F58C",
"@X c #5AEB96",
"#X c #45FE93",
"$X c #4CFE93",
"%X c #46FE9A",
"&X c #4CFE9A",
"*X c #4DF494",
"=X c #5AF694",
"-X c #52FF94",
";X c #5AFC94",
":X c #53FD9B",
">X c #5AFC9B",
",X c #56F598",
"<X c #55EB8C",
"1X c #63F98D",
"2X c #67EB9A",
"3X c #74EA9A",
"4X c #63FB9B",
"5X c #64F797",
"6X c #6AEF91",
"7X c #77C7AE",
"8X c #4AFEA4",
"9X c #54FDA2",
"0X c #5BFDA3",
"qX c #59F7A7",
"wX c #57F0AD",
"eX c #68E8A5",
"rX c #75E9A7",
"tX c #66F7A5",
"yX c #7AE5B5",
"uX c #6DF3AB",
"iX c #8D8A91",
"pX c #B18F8A",
"aX c #89B592",
"sX c #BEAE97",
"dX c #9199AF",
"fX c #8FADAF",
"gX c #B2B1B3",
"hX c #A990AD",
"jX c #CC968D",
"kX c #C8A79B",
"lX c #D1AC94",
"zX c #EFB793",
"xX c #CBB4B0",
"cX c #EDB7A7",
"vX c #D99EA4",
"bX c #85E89E",
"nX c #8CD2B1",
"mX c #AAC3B4",
"MX c #88E8AC",
"NX c #D0CBB9",
"BX c #F8D2AC",
"VX c #FCD6B8",
"CX c #F2C9B0",
"ZX c #F2D2A5",
"AX c #8592CA",
"SX c #97AFCF",
"DX c #B5B5D1",
"FX c #97A7F2",
"GX c #C6BBD3",
"HX c #B4C6D0",
"JX c #90DDC9",
"KX c #FDD8C6",
"LX c #EDD6CF",
"PX c #D4E6EA",
"IX c #EEF2EE",
"UX c #D8DBD7",
/* pixels */
").|.l.l.+X-X-X;X-X$X(.).-X;X#X#X$X$XOX+X>X:X:X:XXXh.z z [.9X8X%X:X0XMXaXB @ 2 1 & + * V g.>X-X X$X$X-X:X&X%X$X-X;X$X;X+Xl.l.#X%X",
"^.7X6Xl.}. X$X>X X;X$X&X:X;X$X,XeX7X2X2X>X;X-X{.j.e.B ~ y.{.,X.X].`.!.i.B 9 q t 4 * # x h.4X;X;X|.-X;X:X:X&X$X$X>X$X|.}.l.6X7X^.",
"Y.R.7X-X X}.*X>X#X;X4X0X>X>X,X2XDXgXSXyXtX$X%X'.8.z ~ Z z 9.h.z.) E ~ ( B B A S ^ u . x u.>X#X|.#X$X;X5X4X>X;X-X-X*X}. X8X7XR.Y.",
"Y.R.7X8X$XoX-X:X#X5X>X0X0X9X>X2XDXGXJXyX2X-X:Xg.Y : Z C u V t.t.x 1 r d A A / ( Z u 6 E j.9X#X#X$X$X;X;X>X>X:X;X-X*XoX-X9X7XR.Y.",
"^.7X@X$X;X-X:X:X$X-X$X*X:X&X&X,XrXbXeX=X1XXX;Xg.! 4 m m Z B V x n u N A ` _ ~ I o z } !.eX:X X$X:X$X$X&X%X&X*X:X:X&X-X-X$X2X7XfX",
"oXXX#X&XtXtX:X$X-X*X#X#X-X-X$X*X-X;X5X<Xk.p.g.q.z 3 0 m / B = * n H F F A B 5 ; o 5 } fXuXtX>X&X&X-X$X#X#X*X$X;X$X:X5X4X&X#XoX X",
"1X;X%XwXyXrX;X}.oX;X#X#X-X;X$X-X#X$X4X`.r.x ! z x 4 0 u m i 9 p m G F H n 2 + o # : M ] [.4X9X&X*X;X;X;X$X$X$X-X|.;XyXyXwX8X-X1X",
"l.1XqXeXyXrX,X}.$X+X-X-X;XOX+X1Xj.k.j.e.z @ 8 9 n n p f n u f f Z S S Z a 2 + # 8 t 2 z e.h._./.oX;XOXOX;X-X-X$XXX,XrXyXwX>X1Xl.",
"-XtXnXnXuX9X;XOXoX,X>XtX3XtX>Xz.r.x x M a f f d H A Z N n u u u d B N m Z Z Z m a 0 q b b M x 8.j.0XtX3XtX>X>X+XOX-XqXyXMXnXuX:X",
"oXtXyXyXuX:X-XOX,X;X;X4XuX5Xg.e.= & * 9 f N N ^ ` G S A B B N m d B C D F ` ` F m b C n = * 1 z 0._.2X4X4X>X=X=XOXoX%XtXyXMX2X#X",
"}.,XeXtXqX*X$X-X:X:X|.#X4X_.R $ @ 8 t f s ^ ^ ^ / / ` ` / ( S A ^ ^ A D F F ` _ F A Z d m t : + & W ].4X;X$X-X9X X$X$X,XuXtX>X X",
"}.oX9X9X$X$X X#X&X&X&X*Xh.8., # + u M a 4 4 M Z / S G ` ' ' S G _ _ A F F F _ ^ A Z f a n u p ; # k 8.g.*X&X&X8X#X XoX,X8X9X*XXX",
"oX$X$X:X-XoX X$X-X:X0X_.R , $ * 4 z s 4 $ . * M h Z A F _ _ G F _ _ _ F G F B I M 2 # . = b a u 2 + , R `.0X;X+X-XoX|.$X:X:X-X X",
"oX$X%X$X;XoX-X;XoX&X9Xu.R x E ) 4 2 t t & . & 4 u m m A A F A D ^ A A F D C B 6 5 & . . = 0 u z ) v x v _.9X$X*X-X-XoX$X$X&X-XoX",
"-X:X&X*X-X-X-X;X-X#X#X.Xg.h.`.u.3 . @ y t 4 4 a a N Z C m m Z h B m m C C N B ! 6 u 4 = 0 @ . 5 u.`.u.g..X%X$X;X-XoXOX;X*X%X:X;X",
"-X*X8X,X-X-X-X>X;X;X|.|.oX$Xf.9.l O @ t i B M n 4 f h g m B h ( N C w w h M a a m m i i q r o , 9.{.;X-X|.(.-X>X;X-X#X*XqX,X:X$X",
">X:X-X*X(.#X;X$X$X%X-X XOXj.v k 5 3 4 u m C h y e p d g o.o.+.7. ...+.o.g i p 7 q C C q u u 3 < % W j.XXoX$X&X$X;X;X#X(.*X&X&X>X",
":X&X:X-X#X#X;X;X;X-X#X.Xj.e., X 4 M u m m b u u r w h +.o.$.3.6.6.6.#.+.+.w y r i n m i i N M 4 O k e.j..X#X-X:X:X;X#X#X;X;X&X,X",
"*X$X;X;X|.$X,X>X;X>X:X'.r.p : e t Z Z m B u = 9 w o.#...O.%.lXVXVXlX,.o.@...+.X.0 * 4 ! N N C 0 e # a r.'.&X:X;X=X,X X|.-X;X&X*X",
"|. X-XOX-X$X,X>X%X-X&Xq.~ @ : p u N N i u 0 9 w O.@.@.@.-.c.NXNXNXkXv.$.@.@.@.@.w t p a s d N u p : e ! _.#X;X&X>X-X X$X;X;X$X#X",
" XoXoX;XOXoX X$X:X:X9X/.5 # * 4 a s s s 6 r j ..@.@.@.>.pXpXc.] } { pXc.%.O.O.@.$. .t p a d a M 4 1 + z /.8X:X:X X XOX;XoXoXoX X",
"OXoX$X-X5X5XoX|.;X<X'.0.3 . x M ! u s a : r 7.&.&.&.$.>.jXsXx.] [ { pXjX3.@.$.&.&.+.r @ u N a a n 4 o $ 0._.@X>X}.oX5X5X;X$X;XoX",
";X-X&X9XrXrX1X}.oXg.c % & 4 n n B i m 0 X @  .&.O.O.&.=.6.jXsXfXdXpXn.6.3.&.&...&. .@   0 m i ~ n n 4 $ , c g.oX}.OX3XrX9X8X;X;X",
"=X:X8XqXMXbX1XXXoXg.c % E ) M f q m S B + @ w ..O.O.*.4.*.5.vXGXgXlX5.5.4.3.&.@...j @ & H S C i d n ) x , c g. XXX1XbXMXwX8X:X;X",
"}. X:X9X0X>X>X;X;X{.a.a.].u.Y e e s ;.;.V & # 8 O.4.4.4.*.4.b.b.m.m.b.4.4.4.*.O.8 # 0 ^ ;.:.i @ : ! u.'.a.a.<X>X;X;X>XqX9X:X$X|.",
"oX-X,X:X%X$X-X;X;X;X;X>XtX[.) 6 2 d v.c._ 4 0 g 3.m.3.#.$.=.3.>.>.=.#.&.&.3.m.5.C 9 4 _ c.1.s @ u ) [.tX>X;X,X;X;X-X%X$X:X;XoXoX",
"9X:X;XoX+X.X$X-X X$X#X:X>X3X`.e.z d 1.1.B n :.c.CXkX( 8 C D C C m m Z d 9 Z lXZXc.G n B 1.1.d 4 e.[.3X>X>X:X$X$X-X X X+X;X=X:X:X",
"yXrX,X+XXX+X-X$X#X$X#X;X5X5X4Xf.W V ,.:.= b c.BXIXgX6   ~ ' G F ` ' ' I X 6 mXIXZXv.m 4 <.<._ 8.z.OX5X=X:X:X$X$X$X$X+XXX*X@XrXyX",
"xXfXeX#X|.|.-X;X5X0X&X:X>X;X+X.Xj.u.] V $ u c.VXIXDX6 + iXcXlXlXlXlXxX<.; 6 gXIXVXpX4 . ~ ] u./.{. X;X>X:X9X9X>X-X-XoX|.#XeXnXxX",
"gXnXeX%X&X;X,X-X>X>X*X*X>X;X X#X|.'.W = o * 1.NXIXmX{ ( xXKXKXBXBXKXKXxX' _ NXIXcX<.4 . x r.j.#X#X|.;X;X+X*X>X>X:X-X;X%X&XeXfXgX",
"yXeXqX>X>X;X;X$X:X:X;XOX4X>X#X%XoX`.) 0 ; ; s :.NXLXkXsXCXKXVXVXVXVXCXCXlXxXLXxX<.f 2 : t ) h.-X%X$X:X;X5X;X;X:X$X*X,X=X=XqXuXyX",
"-X-X=X,X;X%X$X#X;X$XOXoX X-X-X9X>X`._ y ~ z + s 1.cXCXCXKXVXcXzXzXZXBXBXVXcXcXpXd + , 2 y ~ h.>X9X:X$X XoXoX-X-X$X#X$X;X>X,X;X$X",
"-X-X-X$X-X-X-X-X-X-X-X-X-X-X-X-X;Xh.x z u.0., o B ;.N.zXBXBXcXM.N.zXCXBXzXn.<.( @   J K e z k.#X;X$X-X-X-X-X;X$X-X-X-X-X-X-X-X-X",
"-X-X-X-X-X-X-X-X-X$X-X-X-X-X-X-X|.j.) ] [._.x X 7 ! :.,.c.c.c.1.v.n.n.pX1.:.! 5 - - 7 I j V e._..X-X;X-X;X-X-X$X-X-X-X-X-X$X-X-X",
"-X-X-X-X-X-X-X-X-X-X-X-X-X-X-X$XXX2XaXaXwX].x ; 7 K 2 * 2 n C S V B s 4 2 3 5 J L U ( -.>.:.x T d.>X-X$X:X-X;X$X-X-X-X-X-X-X-X-X",
"-X-X-X-X-X-X$X-X-X-X-X-X-X-X-X-XoX4XMXnX`.y.M i I K < - < 6 t 4 Y 7 o X - - - < L U 2.3.m.,.@ , a.>X:X$X$X-X-X;X-X-X-X-X-X-X-X-X",
"-X-X-X-X-X-X-X-X-X-X-X-X-X-X-X-X&X:XtX`.W x H G 1.<.Z.A.~.G.[ P K P P L L J - O O K 2.n.N.;.& % a.>X:X$X-X-X-X-X-X-X-X-X-X-X-X-X",
"-X-X-X-X-X-X-X-X-X-X-X-X-X-X-X-X9X*X{.t.V Z :.v.c.x.Z.A.AXAXF.K.K.[ D.V.L L P > X : S ,.;.' z v d.>X:X$X;X-X-X-X$X-X-X-X-X-X-X$X",
"-X-X-X-X-X-X-X-X-X-X-X-X-X-X-X-X&Xj.9.) pXlXcXjXv.` 5 J H.AXAXDXDXSXJ.V.P > P.U X   . + 2 z r.k..X*X;X-X-X-X-X-X-X-X-X-X-X-X-X-X",
"-X-X-X$X-X-X-X-X-X$X-X-X-X-X-X-X#Xa.x n kXKXKXxX' u . - B.A.AXGXIXPXFXH.- > E.E.I 3 l % , T j.%X>X X-X-X;X-X-X$X-X-X-X-X-X-X-X-X",
"-X-X$X-X-X-X-X-X-X$X-X-X-X-X-X$X#Xs.k u kXKXKXsX!     - B.A.A.~.UXIXPXdX1 X I K.y.s.s.q.q._.@X X-X-X-X-X-X-X-X-X-X-X-X$X-X-X-X-X",
"-X-X-X-X-X-X-X-X-X-X-X-X-X-X-X-X-Xs.c z x.kXsX<.K O - P A.A.Z.H.SXUXIXNX] p P [ `.9X:X:X8X&X:X$X-X-X-X-X-X-X-X-X-X-X-X-X-X-X-X-X",
"-X-X-X-X-X-X-X-X-X-X-X-X-X-X-X-XOX.Xj.0.x 1 p 6 7 J L A.L.A.V.Z.S.^.PXIXGXhX[ [ ^.uXtX;X;X|.*X X-X-X-X-X-X$X-X-X-X-X-X-X-X-X-X-X",
"-X-X-X-X-X-X-X-X-X-X-X-X-X-X-X-X;X:X9X_.c $ O X P D.H.J.A.A.B.B.B.S.AXPXIXDXU Y !.JXwX,X;XXX X&X-X-X-X-X-X-X-X-X-X-X-X-X-X-X-X-X",
"-X-X-X-X-X-X-X-X-X-X-X-X-X-X-X-X9X:X9XqX_.0.% - [ U.dX~.S.Q C.C.B.V.F.U.dXiX5 , g.tX9X%X&X#X%X:X-X-X-X-X-X-X-X-X-X:X-X-X-X-X$X-X",
"-X-X$X-X-X$X-X-X-X-X-X-X-X-X-X-X&X9X9X0XtX'.T x { } iXW.F.S.Z.L D.[ H.F.W.iX! 6 w.j..X#X&X$X;X1X$X-X-X-X$X-X-X-X-X$X-X-X-X-X-X-X",
"-X:X-X-X-X-X-X-X$X-X-X-X-X-X$X-X X;X,X-X9X-Xg.w.x ! x.hXiXW.W.U.G.W.fXfXgXgXW.) x T d.;X4X;XoXXX-X-X-X-X-X-X-X-X-X-X-X-X-X-X-X-X",
"-X-X-X-X-X-X-X-X-X-X-X-X-X-X-X-X}. X+X X|.XX5Xp.% . { iXU.iXG.<.dXgXgXHXHXFXdXF.; % q.5X[.7XwX&X-X-X-X-X-X-X-X-X-X-X-X-X-X-X-X-X",
"-X-X-X-X-X-X-X-X-X-X-X-X-X-X-X-X-X-X.X X|.;X5Xp.,   s ^ ' ( 7 Y dXHXHXHXHXSX~.D.- k g.7XI.R.7X$X-X-X:X-X-X-X-X-X-X-X-X-X-X-X-X-X",
"-X-X$X-X-X-X-X-X-X-X-X-X-X-X-X-X$X-XoX-X$X&X5Xj.T , 3 1 4 2 < Y W.dXdXdXdX~.S.L , W g.nXI.I.^.%X:X$X-X-X-X$X-X-X-X-X-X$X-X-X-X-X",
"-X-X-X-X-X-X-X-X-X-X-X-X-X-X-X$X$X;XoX-X#X$X:X{./.9.k     % 0.u.| [ [ ! K K - l w./.{.2XnX^.@X|.-X-X-X-X-X-X-X-X-X-X-X-X-X-X-X-X",
"-X-X-X-X-X-X-X$X$X-X-X-X-X-X-X-X$X;X-X-X&X&X&X:X$Xj.v % , T _.d.Q > - 1 @ #   , s.>X+X+X9X9X-XXX-X-X-X-X-X-X-X-X-X-X-X-X-X-X-X-X",
"-X-X-X-X-X-X-X-X-X-X-X-X-X-X-X-X-X-XoX$X$X&X&X:X-X+X/.s.Q._.,Xk.J - - 7 j j # , !.MXtX&X%X&X:X;X-X-X-X-X-X-X-X-X-X-X-X$X-X-X-X-X",
"-X-X-X$X-X-X-X-X-X-X-X-X-X-X-X-X&X-X XoX;X&X%X%X|.-X&X9XqX9X4Xk.l O p ( #...# 1 i.MXtX9X#X;X;X|.$X-X-X-X-X-X-X-X-X-X-X-X$X-X-X-X",
"-X-X-X-X-X-X-X-X-X-X-X-X$X-X-X-X&X$X$XXX;X&X:X&X:X:X:X8X>X>XOXp.% # 7.>.3.#.# & h.bX5X;X=X5XXXl.-X-X-X-X-X$X-X-X-X-X-X-X-X-X-X-X",
"-X-X-X-X-X-X-X-X-X-X-X-X-X-X-X-X%X#XoXoX;X>X*X$X2X3X=X#X%X;X;Xa.v x +.$.$.+.4 ) `.uX:X$X*X4X X X-X-X-X-X-X-X-X:X-X-X-X-X-X-X-X-X",
"-X-X-X-X-X-X-X-X-X-X-X-X-X-X-X-X:X-X$X-X5X4X=X6XgXmX3X}.-X*X|.<Xk.t.x = : I y./.*X$X$X%X:X>X:X:X-X-X-X-X-X-X-X-X-X-X-X-X-X-X-X-X",
"-X-X-X-X$X-X-X-X-X$X-X-X-X-X$X-X$X;X$X-X5X>X;X6XmXgX3X|.$X-X#X,X3Xh.v k , W s.&X$X$X$X$X&X:X:X;X-X-X-X-X-X-X-X-X-X-X-X-X-X-X-X-X",
"$X-X-X-X:X-X-X-X-X-X-X-X-X-X-X-X$X-X$X-X,X:X;X5XbXMXtX%X9XqX;X5XMXnXu.s.Q._..X&X:X$X#X|.*X-X,X;X-X-X$X-X-X-X-X-X-X-X-X-X$X-X-X-X",
"-X-X-X-X-X-X-X-X-X-X-X-X-X-X-X-X:X;X%X-XwX*X%X5XuXrX9X8XwXqX;X2XNXGXbX-XtXtX$X*X-X-X X|. X*X;X-X-X-X-X-X-X-X-X-X-X-X$X-X-X-X-X-X"
};
