/* XPM */
static char *result[] = {
/* columns rows colors chars-per-pixel */
"64 64 256 2 ",
"   c #0A0707",
".  c #160A08",
"X  c #17140A",
"o  c #150B12",
"O  c #181715",
"+  c #0A1910",
"@  c #260905",
"#  c #270C18",
"$  c #261716",
"%  c #391916",
"&  c #30170C",
"*  c #172518",
"=  c #0E2E15",
"-  c #2A2517",
";  c #38271B",
":  c #332F17",
">  c #191925",
",  c #121435",
"<  c #271925",
"1  c #381D24",
"2  c #261D3A",
"3  c #182D2A",
"4  c #2A2825",
"5  c #3A2926",
"6  c #3C342A",
"7  c #393624",
"8  c #3B3635",
"9  c #2E3232",
"0  c #4C1B12",
"q  c #46281A",
"w  c #5A2819",
"e  c #48381C",
"r  c #4F2F16",
"t  c #782A17",
"y  c #6F3017",
"u  c #432D23",
"i  c #462829",
"p  c #552A27",
"a  c #43342C",
"s  c #433C2B",
"d  c #4C3C2B",
"f  c #483626",
"g  c #533C2C",
"h  c #553A27",
"j  c #462C34",
"k  c #552C35",
"l  c #4C3C33",
"z  c #473735",
"x  c #553A36",
"c  c #643829",
"v  c #773526",
"b  c #653635",
"n  c #742E27",
"m  c #431A2C",
"M  c #194F30",
"N  c #324C31",
"B  c #196631",
"V  c #256738",
"C  c #336B3B",
"Z  c #3D4A14",
"A  c #4C432B",
"S  c #474328",
"D  c #54432C",
"F  c #564528",
"G  c #494536",
"H  c #544232",
"J  c #5B4334",
"K  c #584A38",
"L  c #5A5336",
"P  c #4E562E",
"I  c #644938",
"U  c #6B5C3C",
"Y  c #655639",
"T  c #77563B",
"R  c #694C2A",
"E  c #46643A",
"W  c #67653A",
"Q  c #71633A",
"!  c #66652D",
"~  c #341C50",
"^  c #172F4E",
"/  c #313150",
"(  c #1B2F69",
")  c #2D346D",
"_  c #191A50",
"`  c #492F47",
"'  c #68334B",
"]  c #304B54",
"[  c #1E6D43",
"{  c #2D7748",
"}  c #346C47",
"|  c #2F506F",
" . c #594643",
".. c #485842",
"X. c #515051",
"o. c #654944",
"O. c #685846",
"+. c #735947",
"@. c #6D5451",
"#. c #46754B",
"$. c #4A6454",
"%. c #486F50",
"&. c #6A6346",
"*. c #746544",
"=. c #686658",
"-. c #595470",
";. c #516563",
":. c #766B6E",
">. c #6A4A79",
",. c #8B341A",
"<. c #A23B17",
"1. c #8A3729",
"2. c #93362B",
"3. c #AB3E27",
"4. c #97452A",
"5. c #8B4833",
"6. c #AD4E30",
"7. c #A3441B",
"8. c #CF582B",
"9. c #D76339",
"0. c #D4672D",
"q. c #E56C3E",
"w. c #CF501E",
"e. c #8D5B49",
"r. c #926B50",
"t. c #8E736C",
"y. c #A7776C",
"u. c #B4684F",
"i. c #DD6E45",
"p. c #EA6C49",
"a. c #E57546",
"s. c #F76C48",
"d. c #CD7C68",
"f. c #39874B",
"g. c #318F54",
"h. c #34A75C",
"j. c #319669",
"k. c #37A669",
"l. c #3BA775",
"z. c #37B66E",
"x. c #1F8B4F",
"c. c #468C55",
"v. c #49A15F",
"b. c #4C926D",
"n. c #46A468",
"m. c #45B868",
"M. c #51B275",
"N. c #779F78",
"B. c #3AC66F",
"V. c #47C779",
"C. c #47D87C",
"Z. c #4FC873",
"A. c #45E17C",
"S. c #B38E6C",
"D. c #989560",
"F. c #C89272",
"G. c #DAA87F",
"H. c #E18F7A",
"J. c #93CE7D",
"K. c #1E3D8E",
"L. c #2D388D",
"P. c #2D4C8D",
"I. c #3150B1",
"U. c #1C42AD",
"Y. c #475589",
"T. c #51689A",
"R. c #6A78A9",
"E. c #667199",
"W. c #2F58C6",
"Q. c #4F66CB",
"!. c #A87ABD",
"~. c #807F9F",
"^. c #B25BCF",
"/. c #D343D9",
"(. c #3EAA88",
"). c #75838F",
"_. c #45A884",
"`. c #7186A8",
"'. c #79AF9E",
"]. c #3AF189",
"[. c #3ECC80",
"{. c #4BCB85",
"}. c #49D784",
"|. c #56D987",
" X c #58D893",
".X c #4AE688",
"XX c #53E888",
"oX c #4CF48B",
"OX c #45FF8C",
"+X c #4CFD8C",
"@X c #49FA85",
"#X c #54F48D",
"$X c #52FD8D",
"%X c #5AFB8C",
"&X c #54F886",
"*X c #58EC94",
"=X c #46FE94",
"-X c #4CFE93",
";X c #4DFE9A",
":X c #49F998",
">X c #55F594",
",X c #59F593",
"<X c #52FE94",
"1X c #5AFC94",
"2X c #54F59B",
"3X c #5AF69B",
"4X c #53FD9B",
"5X c #5BFC9B",
"6X c #4BE894",
"7X c #66E99A",
"8X c #65F898",
"9X c #76F39A",
"0X c #72E796",
"qX c #70D2A9",
"wX c #4CFEA1",
"eX c #54FCA2",
"rX c #5BFEA3",
"tX c #57F7A4",
"yX c #4DEBA3",
"uX c #66E9A2",
"iX c #74E9A6",
"pX c #67F7A4",
"aX c #78F1A8",
"sX c #64D794",
"dX c #7990E2",
"fX c #939594",
"gX c #B0918A",
"hX c #9DA194",
"jX c #9197B3",
"kX c #AD9CB7",
"lX c #8FA9B2",
"zX c #ACB2B6",
"xX c #BEAD9D",
"cX c #C9938D",
"vX c #D2A993",
"bX c #D1B1A5",
"nX c #EEB8A6",
"mX c #E5A891",
"MX c #87DDA6",
"NX c #92CEB2",
"BX c #8AE5A9",
"VX c #97DCA5",
"CX c #F1C39E",
"ZX c #FCD6BC",
"AX c #F0CBB1",
"SX c #FFE1BC",
"DX c #9099C8",
"FX c #92A9C9",
"GX c #AAB8C6",
"HX c #B4BAD0",
"JX c #B3A4D6",
"KX c #BBC3D0",
"LX c #D4D0D6",
"PX c #F2D7C9",
"IX c #FFE2C6",
"UX c #EAE7EE",
/* pixels */
"$X@X&X$X4XeX5X5X5X<X$X%X+X=X;X4X5X@X+XeX$X$X;X-X<X%X%X1X>XOX-X;XtXeXeX4X1X-XOX<X<XOX<XaXVXBX%X-X-X-X-X<X-X<X<X<X<X<X<X<X<X<X<X<X",
"-X$X&X$X<X4X4X<X<X$X+X<X<X2X>X%X+X+X1X4X+X<X;X<XXXC.Z.C.{.Z.V.{.}.4X<X#X<X;X-X>X4XOX<XuXBXaX8X$X-X<X-X<X<X<X<X<X<X<X<X<X<X<X<X<X",
"tX2X$X<X<X<X<X<XwX;X;X-X<X1X$XOX$X4X>X+XOX4X4X4XZ.%...} } } N P f.}.$X%X<X<X4X<X;X;X<X3XpX5X<X-X<X<X<X<X<X<X<X<X<X<X<X<X<X<X<X<X",
"yX4X5X<X<X<X+X-XeXeXwX>X>X,XuXqXsXeX<X+X-X5XeX4Xn.a % u a p u 0 P v.}.+X+X+X>X.X{.C.|.*XeX;X<X<X<X<X<X<X<X<X<X<X<X<X<X<X-X<X<X<X",
"eX4X4X<X-X-X-X<X4X4X4X$X$X7XlX^.jXyX-X+XOX-XrXeXn.4 # l o.o.L F D E f.|.1X1XXXn.C C E Z.,X<X1X1X+X<X<X<X<X<X<X<X<X<X<X-X<X<X<X<X",
"4X4X<X<X-X-X-X-X-XwX;X$X$X7XDX^.DX*X+X<X-X-X2X|.g.* O s  .O.&.Q J d G n.|.C.m.E q % 7 v.,XrXeX;X$X$X<X<X<X<X<X<X<X<X<X<X<X<X<X<X",
"1X<X<X4X<X<X<X>X;X;X4X<X@X#XqX'.qX3X1X8X5X<XV.#.N - X - 7 K Y &.+.I K ..%.} L L F w u v.,XeXeX-XOX+X<X<X<X<X<X<X<X<X<X<X<X<X<X<X",
"$X$X<X<X<X1X%X%X%X$X1X<X+X#X2XtX4X<XoX}..XC.v.z 1 % $   O u g X.O.W Y d 4 1 p K L p 6 g.}.}..X.X+X$X-X<X-X<X<X<X<X<X<X<X<X<X<X<X",
"<X-XOX-X1X%X1X<X$X>X;X+X$XwX;X;X4X<Xz.V C } N x u a 6 : - $ 4 ` G O.Y 7 5 f J L K 8 5 N C V { l.<X<X-X<X<X4X<X<X<X<X<X<X<X<X<X<X",
"<X-X-X4X<X<X5X4X8X<X-X+X$X4X2X2X:X}.x.+ @ ; 5 z H K K P f $ . % z o.Y G 6 F Y L  .8 1 i : X * { |.*X<X<X<X<X<X<X<X<X4X-X<X<X<X<X",
"-X-X-X:X-X-X4XrX=XOX+X-X1X5X4X+Xz.{ 9 - 4 j u G K I Y Y D ; ; u f I J z s F F l 8 8 i 6 6 % % 7 V l.#X1X$X<X<X4X<X<X<X<X<X<X<X<X",
"+X-X>X-X:X:X4XpXyX7X*X-X<X<X$XC.} * - s P G G S L Y Q Y Y J D D h F h l A d g k m z G S d x w : = x..X<X<X<X<X<X<X<X<X<X-X<X<X<X",
"-X+X,X4X<X-X3X*XdX!.'.4XOXoXm.#.N - i x g b I L Y &.&.U U T Y G g g A A J I o.o.o.x G e : 0 - M g.B.oX<X<X4X<X<X<X<X<X-X<X<X<X<X",
"OX-X5X1X<X1X>XXX!.^.FX4X$XoXf.N 7 s a h h b I *.W +.+.&.*.*.U K l D D D J T +.+.X. .x r q & O { A.@X4X<X<X<X-X+X<X<X<X<X<X<X<X<X",
"=X<X1X1X1X<X>XoX'.DXqX>X<XoXZ.v...S ; 5 k h J L +.&.&.*.*.&.U Y K O.O.L Y T Q Y  .x k p y y w L j.V.>X<X<X<X<X-X<X<X<X<X<X<X<X<X",
"-X<X5X,X#X$X+XOX#XtX>X4XrX5X&X|.c.: q 5 5 g g A K Y Q *.Q +.+.U &.O.@.Y ! ! ! P G u p v 4.6.6.v d c..X-X$X<X<X4X<X<X<X<X<X<X<X<X",
"$X<X:X:X<X<X<X4X-XOX<X$X<X5XV.f.N A u u s g d S F F ! R U +.*.Q &.Q U o.L ! F K G n t T e.S.F.u.,.P f.Z.:XrX8XeX$X$X,X<X5X<X4X4X",
"1X<X-X-X;X<X4X4X$X+X>X<X$XC.{ = : d J x d S S S d D D J I O.U Q &.! Y I g F F G K 5.7.5.r.zXPXmX6.y Z f..X4X5X5X+X<X<X5X4X<X-X<X",
"<X<X<X<X<X4X4X5X<X5X:X:XB.g.9 $ & d J x x a s S l l H l J R L L P P L  .x h f s h 4.6.,.o.lXUXnXi.6.,.! b.{.#X$X+X<X<X<X-X-X;X;X",
"=X-X>X%X1X1X1X5X;X4X4X6Xx.* - s S S z x k 5 ; g J x x H D h d g H F G  .J J f 5 q 1.6.t ' hXPXnXa.a.i.6.` f..X@X$X<X<X<X+X=X;X4X",
"=X2X3X1X%X$X$X$X;X4XpXqX;.o - S S G s z j 5 u h J d l z d e f l x l S g H G s 5 1 ,.6.e.t.!.mXH.a.p.p.2.m } C.+X<X<X<X<X-X-X-X;X",
"<X4X4X4X4X<XOX@X=XuXNXzX:.5 q l G G s 5 u d D D A s 8 6 7 7 S S H A S g H G 8 5 i ,.8.cXkXgX6.0.i.s.p.1.< [ ].-X+X<X4X4X-X-X;X4X",
"3X<X=XtXiXiX7X@X-XuX`.t.o.j j i a z a : e J J S s a 8 6 a f d D F S F h x 6 j k ,.<.w.d.cXd.0.0.i.a.9.t o B A.;X<X$X<X>X<X<X4X5X",
"4XOXOX7XzXGXMX$XpXsX%.< i z ` m 5 5 ; 7 s h D D p i i ' b k h F F A D c z 7 q n 3.3.w.8.a.a.9.a.a.0.6.r o V A.wX<X<XoX>X<X<X5XtX",
"wX;X=X7XNXNXiX%XpXsX[   O 6 ..} N 1 u d e F A a u 8 j g J z a g F G G q ; 4 i 1.8.8.w.9.q.q.a.p.0.7.y e V h.|.pX4X<X$X$X,X5X5X4X",
"wX-X+X<X7X7X8X%X<X|.V . . 7 c.B.%.8 i x F g p i u z G l z 5 j z G  .6 $ o $ q 5.6.i.p.p.s.q.a.9.6.y & V z.0XaXiX>X>X$X>X1X5X1X<X",
"4X-XOX+XOX-X<X<X=X.Xg.B M C m.-XZ.#.G k h g k 1 7 7 7 4 4 u j z G  .8 o   # w 2.6.6.6.6.6.6.5.1.v u M h.A.9X9XiX>X<X4X3X1X1X<X<X",
"5X:X4X4X;X-X,X<X4XeX}.[.}.B.XX1XXX{.f.7 u d a - - : - + $ i g l d l 7 + . 0 t 2.1.v r q r q $ # % } V.*X8X1X1X<X1X<X4X4X>X$X$X-X",
"%X<X4X3X-X<X>X<X;X;XeXwX4X<X%X%X8X4XV.C N z u f w w & . . p c D F : - & 0 T r.5.c b o.o.o.5 o 4 M k.-XeX4X4X-X+X1X4XwX;X+X+X+X+X",
"+X<X>X$X+X$X,X*X+X<X<X<X%X$X$X$X4X$X#X{.g.6 n 2.7.,.0   + 5 J J e & @ 0 5.cXxXO.5 t.bXbXgX@.7 C Z.C.2X:X;X<X>X-X<X-X;X-X-X$X+XoX",
"$X+X-X-X5XpX3X3X9X9X1X<X$X$X$X+X-X@X5XrXb.u w 2.7.2.t 0 $ - z x e X . v y.PXLX..$ t.PXIXAXy.G c.OX<X>X-X;X-X4X4X<X-XOXOX-X>X>X$X",
"%X%X-XtXiXiXtX5X9XiX8X,X<X-X=X5X+X+X4X2Xb.6 % w t 1.2.t q $ - e 5 o $ 5.H.IXLXX.$ t.AXZXAX~.l h.oX+X&X$X=X;X4X-XeX-X+X+X$X<X1X1X",
"1X<X;XeXuXuXpXeX9X9X8X5X4X-X-X4X<X$X1X:XM.$.i ; w t ,.1.k O   $ 5 4  .y.vXIXLX:.P S.LXSXCXS.*.n.#X$X<X<X$X-X<X4X<X<X<X+X$X<X1X5X",
"<X<X-X<X8X8X5X5X8X8X5X4X<X;X4X4X;X4X1X,XXXZ.#.5 0 h R c q o   o u @.y.S.vXAXPXvXcXbXAXZXAXvXD.J.<X<X<X<X<X-X<X4X<X<X<X$X<X>X4X5X",
"+X<X<X>X<X<X<X1X,X4X<X<X-X4X<X<X;X;X-X:X;X1XM.;. .} E e % $ o   ; e.F.d.S.CXAXAXZXAXCXmXmXvXJ.J.<X<X<X<X<X<X<X<X4X<X<X<X<X<X<X4X",
"-X<X1X<X-X-X-X<X<X-X<X-X<X<X<X<X1XOX=X=X:XeXsX'.J.m.g.: # 4 5 $ 1 c T e.D.S.mXAXZXCXmXy.:.N.A.%X1X1X<X<X<X<X<X<X<X<X<X<X<X<X<X<X",
"4X<X<X1X<X<X-X<X-X<X<X<X<X<X<X-X$X@X7XqXuX3XuXBX0X4Xz.B 3 6 k - 4 $ 5 H ! r.S.G.bXF.u.*.#.m.:X;X<X<X<X<X<X<X<X-X<X<X<X<X<X-X<X-X",
"<X4X<X<X1X<X<X-X<X<X<X<X<X<X<X-X-X&XhX^.jX7X1X8X*X4X.XB.g.G & X + > 4 * : R T Y ` i A c.m..X-X<X<X<X<X<X<X<X<X<X<X<X<X<X<X<X<X<X",
"<X<X;X<X<X<X<X<X<X<X<X<X<X<X<X<X-X,XjX/.!.7X+XoX;XeX4X X_.$.8 9 3 ^ 2 + O ; 7 ; o   + g.oX-X-X<X2X<X<X<X<X<X<X<X-X<X<X<X<X<X<X<X",
"<X-X<X<X-X<X<X<X<X<X<X-X<X<X<X<X#X<XlXJXzX7X;X+X<XtX Xn.;.N.fXjX`.-.( _ _ / / O.+.4 + x.:X4X>X;X>X4X4X<X<X<X<X<X<X;X<X<X<X<X<X<X",
"<X<X<X<X<X<X<X<X-X<X<X<X<X<X<X<X;X;X7XBXaXtX<X<XyX6Xl.] -.jXJXUXKXR.I.( ( ( ) t.r.K M j.*X<X<X4X4X4X4X<X-X<X<X<X<X<X<X<X<X<X<X<X",
"<X<X<X<X<X<X<X<X<X<X<X<X<X<X<X<X;XwX4X5XtX4X<X5X X{ / 2 ` Q.dXDXFXGXDXY.( ^ ^ ` ..} k.C.<X<X-X-X<X<X<X<X<X<X<X<X<X<X<X<X<X<X<X<X",
"<X<X<X<X<X<X-X<X<X<X<X<X<X<X<X<X4XpXtXOXOX<X#X6X_.| ~ # , L.W.I.Q.KXKX`.P.| | , 3 j.oX5X1X<X;XOX<X<X<X<X<X<X<X<X<X<X<X-X<X<X<X<X",
"<X<X<X<X<X<X<X<X-X<X<X<X<X<X<X<XiXVXMX>X+X+X{.j._.:.-.< , _ L.L.Y.).lXlXGXjXE./ 3 k.;X<X,X1X$X+X<X$X<X<X<X<X<X<X<X<X<X<X<X<X<X<X",
"<X<X<X<X<X<X<X<X-X<X<X<X<X<X<X<XBXzXVX2X=XoXl.] -.lXfX9 > 3 / / / | T.KXUXLXkX-.] j.].=X<X1X$X%X<X<X<X<X<X<X<X<X<X<X<X<X<X<X<X<X",
"<X<X<X<X<X<X<X<X<X<X<X<X<X<X<X<XiXMXiX;X;X>Xl.] ~ X.X.I e.r.+.k ~ K.W.dXJXLXkX>.( l.@X<X4X>X<X1X<X<X1X<X<X-X<X<X<X-X<X<X-X<X<X<X",
"<X<X<X<X-X<X<X<X<X<X<X<X<X<X<X<X4XtX4X-X4X2Xl./ > $ F D.F.F.t.b ~ U.W.W.Q.DXDXE.| M.%X8X3X4X-X<X<X<X<X<X<X<X<X<X<X<X<X<X<X<X<X<X",
"<X<X<X<X<X<X<X<X<X<X<X<X<X<X<X<X<X-X-XOX;X2Xl.3 5 T D.F.S.r.@.z ^ K.U.P.I.T.E.b.n.}.4XrXtX4XOX-X<X<X<X<X<X<X4X<X<X<X<X<X<X<X<X<X",
"<X<X<X-X<X<X<X<X<X<X<X<X<X<X<X<XwX<X$X+X-X-Xj.3 o.bXnXG.r.g 9 ) K.| P.) P.) ] n.@X;XeX4X<X<X4X<X4X;X<X<X<X<X<X<X<X<X<X<X<X<X<X<X",
"<X<X<X<X<X<X<X<X<X<X<X<X<X<X<X<X4X<X<X-X=XoXg.+ o.bXZXCXS.1 , Y.`.`.R.R.T._ 3 M.9X8X;X-X+X<X;X4X<X<X<X4X<X<X<X$X<X<X<X<X<X<X<X<X",
"4X<X<X<X<X<X<X<X<X<X<X<X<X<X<X<X1X1X;X;X<X>Xg.= ` bXZXAXS.5 / fXGXGXGXGXjX/ 9 b.VX8X<X:X<X+XOX4X4X<X<X<X<X<X<X<X<X<X<X-X<X<X<X<X",
"<X<X<X<X<X<X<X<X-X<X<X<X<X<X-X<X1X<X;X:X-X+Xk.3 ` :.t.t.:.X.;.fXGXzXGXLXzXN.-.;.b.Z.<X4X1X1X+X-X<X<X<X<X<X<X<X<X<X<X<X<X<X<X<X<X",
"<X<X<X<X<X<X-X<X<X<X<X<X<X<X<X<X<X<X4X-XOX=Xl.] > < o O 8 :.fXhXhXhXlXzXHXzXfXX.4 v.&X-X:X$X$X$X>X-X<X<X<X<X<X<X<X<X<X<X<X<X<X<X",
"<X<X<X<X<X<X<X<X<X<X<X<X<X<X<X<X-X>X<X4X4X;Xk.^ o o .   3 X.;.X.=.fXhX).~.jXE.~ 2 | (.yXwX-X@X1X<X<X<X<X<X<X<X<X<X-X<X<X-X<X<X<X",
"<X<X-X<X<X<X<X<X<X<X<X<X-X<X<X4X;X+X-XeX5X2Xj.3 X $ i % < > + + N E.fX-.) / ` ~ ~ ~ | _.yXrX<X+X<X<X<X<X<X<X<X<X<X<X<X<X<X<X<X<X",
"<X<X<X<X<X<X<X<X<X<X<X<X<X<X<X<X=X-X-XeXpXpXm.C M O # $ - M N V ] X.X.) ( ^ ~ ~ ' ' ' $.h.V.>X-X>X$X<X<X<X<X<X<X<X<X<X<X<X<X<X<X",
"<X<X<X<X<X<X<X<X<X<X<X<X<X<X<X<X+XOX+X%X8X9X7X.Xg.=   o M h.C.].h.M , ( ( ) ~ j t 3.3.p * g.@X:X-X-X-X<X<X<X<X-X<X<X-X<X<X<X<X<X",
"<X<X<X<X<X<X<X<X<X<X<X<X<X<X<X<X$X+X+X#X8X8XpX5X{.V M M g.|.8X4XC.x.M 3 / ` b 5.4.2.1.S B B.:X-X-X<X<X<X4X<X<X-X<X<X<X<X<X<X<X<X",
"<X<X<X<X-X<X<X<X<X<X<X<X<X<X<X<X<X<X+X<X1X8X5XrX.XB.{.{.}.+X1XeX>XXXh.M $ b 4.6.6.t p c.B.6XrX;X-X$X<X<X<X<X<X<X<X<X<X<X<X<X<X<X",
"<X<X<X<X<X<X<X<X-X<X<X<X<X<X-X<X>X4X4X<X<X<X-XOX$X<X4XrX5X$X<X:X;X<XC.g.N w t 1.v J %.Z.$XrXrX-X-X<X<X<X<X<X<X<X<X<X<X<X<X<X<X<X",
"<X<X<X<X<X<X<X<X<X<X<X<X<X<X<X<XeXeX4X;X-X<X$X@X<X<X;X;X<X$X<X;X;X<X@X}.k.N @ @ - { C.XX:XeX5X4X<X<X<X<X<X<X<X<X<X<X<X<X<X<X<X-X",
"<X-X<X<X<X<X<X<X<X<X<X<X<X<X<X<XeXeX4X;X-X+X$X$X<X-XwXeX-X@X+X5X8X5X<X<X.Xg.M = B z.<X4X>X4X4X<X<X<X<X<X<X<X<X<X<X-X<X4X<X<X<X<X",
"<X<X<X<X<X<X<X<X<X<X-X<X<X<X<X<X<X>X4X4X4X<X-X+X;X-X;X2X-X+X<XiXiX7X<X<X:X[.B.{.V.oX-X;X4X-X:X1X4X1X<X<X<X<X<X<X<X<X<X<X<X<X<X<X",
"<X<X<X<X-X4X<X<X<X<X<X<X<X<X<X<X#X,X1X4XeX4X;X4X=X:X;X4X-X@X*XMXBXaX5X%X,X4XwX:X-X5X4X;X-XOXOX5X<X<X<X<X<X<X<X<X<X<X<X<X<X<X<X<X"
};
