/* XPM */
static char *nate_r31650476114[] = {
/* columns rows colors chars-per-pixel */
"64 64 256 2 ",
"   c #070607",
".  c #170907",
"X  c #161408",
"o  c #090815",
"O  c #160D16",
"+  c #1A1716",
"@  c #0C170F",
"#  c #26150A",
"$  c #331609",
"%  c #281817",
"&  c #351A19",
"*  c #2A090F",
"=  c #172819",
"-  c #112D15",
";  c #2A251B",
":  c #37281A",
">  c #39351B",
",  c #2D3516",
"<  c #0B0A26",
"1  c #151C39",
"2  c #11172B",
"3  c #3A1A25",
"4  c #271A26",
"5  c #16312E",
"6  c #2A2627",
"7  c #3A2A22",
"8  c #372829",
"9  c #393529",
"0  c #3A3733",
"q  c #302F35",
"w  c #4C1A15",
"e  c #4A281B",
"r  c #5C281B",
"t  c #46321B",
"y  c #5A2F16",
"u  c #6C2C17",
"i  c #501B26",
"p  c #472827",
"a  c #552B25",
"s  c #443425",
"d  c #4C3C2C",
"f  c #483828",
"g  c #553A28",
"h  c #462934",
"j  c #4C3B34",
"k  c #463835",
"l  c #533C35",
"z  c #573A36",
"x  c #582934",
"c  c #653628",
"v  c #712F2C",
"b  c #6A1C16",
"n  c #164F2D",
"m  c #3A4426",
"M  c #304D33",
"N  c #196937",
"B  c #266E3B",
"V  c #24401A",
"C  c #4B442C",
"Z  c #464527",
"A  c #52432D",
"S  c #574628",
"D  c #4B4434",
"F  c #494736",
"G  c #574637",
"H  c #5A5638",
"J  c #4A5631",
"K  c #654B35",
"L  c #695738",
"P  c #725C3B",
"I  c #785A39",
"U  c #6D4A2E",
"Y  c #4E6736",
"T  c #6A6139",
"R  c #746339",
"E  c #4D411B",
"W  c #151645",
"Q  c #271C4B",
"!  c #1B2845",
"~  c #1B2958",
"^  c #2C2946",
"/  c #2E3050",
"(  c #183368",
")  c #2C326C",
"_  c #523646",
"`  c #663943",
"'  c #503D6B",
"]  c #344C50",
"[  c #177248",
"{  c #386748",
"}  c #2F724C",
"|  c #334D6F",
" . c #3B7B63",
".. c #5A5742",
"X. c #4B514D",
"o. c #695844",
"O. c #705349",
"+. c #487452",
"@. c #696646",
"#. c #766551",
"$. c #4F576C",
"%. c #4C7170",
"&. c #6E7179",
"*. c #725C71",
"=. c #8C311A",
"-. c #893628",
";. c #953829",
":. c #8F352D",
">. c #B03A2B",
",. c #B44A1E",
"<. c #904B2F",
"1. c #AD4B32",
"2. c #946531",
"3. c #CD512E",
"4. c #DB6536",
"5. c #E87037",
"6. c #863E42",
"7. c #B55549",
"8. c #916C57",
"9. c #AC6E51",
"0. c #926B6A",
"q. c #AA7264",
"w. c #8B5349",
"e. c #DA6D47",
"r. c #EA714C",
"t. c #CA796C",
"y. c #D95842",
"u. c #2A853C",
"i. c #2B894A",
"p. c #2B8653",
"a. c #39965B",
"s. c #348B51",
"d. c #35AD5A",
"f. c #3A9965",
"g. c #37896F",
"h. c #34B26D",
"j. c #15864C",
"k. c #468957",
"l. c #489255",
"z. c #47AB59",
"x. c #4B966B",
"c. c #47B773",
"v. c #4DB06B",
"b. c #6B9371",
"n. c #3CC875",
"m. c #39D272",
"M. c #30E97D",
"N. c #49C777",
"B. c #4AD57B",
"V. c #4EC975",
"C. c #4EFF7B",
"Z. c #4FEC7B",
"A. c #918B71",
"S. c #B38B71",
"D. c #8D9E6B",
"F. c #C7936F",
"G. c #E28759",
"H. c #243885",
"J. c #324A93",
"K. c #3151A8",
"L. c #535F97",
"P. c #566D8D",
"I. c #6C6E8A",
"U. c #586FAC",
"Y. c #666DA7",
"T. c #5165C9",
"R. c #3860CF",
"E. c #816A8F",
"W. c #A77ABD",
"Q. c #B753D1",
"!. c #AA6FCA",
"~. c #C64FC9",
"^. c #7689B6",
"/. c #78AEA7",
"(. c #5E9C8B",
"). c #3DCC85",
"_. c #3CEB8E",
"`. c #3EFFA4",
"'. c #49C982",
"]. c #4BD685",
"[. c #54D887",
"{. c #57D292",
"}. c #70D792",
"|. c #49E788",
" X c #56E688",
".X c #4CFE85",
"XX c #45FE8C",
"oX c #4CFD8D",
"OX c #49F689",
"+X c #52FD85",
"@X c #54F48C",
"#X c #5BF48D",
"$X c #53FD8C",
"%X c #5AFC8C",
"&X c #59F986",
"*X c #4AEB92",
"=X c #56E896",
"-X c #45FE93",
";X c #4DFE93",
":X c #45FF9A",
">X c #4CFE9B",
",X c #4CF393",
"<X c #54F593",
"1X c #5BF593",
"2X c #52FE94",
"3X c #5AFB94",
"4X c #5CF49B",
"5X c #53FD9A",
"6X c #5AFB9B",
"7X c #54F39B",
"8X c #6AEB99",
"9X c #62F59B",
"0X c #65F898",
"qX c #6BF095",
"wX c #72CFAC",
"eX c #59EAA6",
"rX c #4BFDA3",
"tX c #4AFEA6",
"yX c #53FDA3",
"uX c #5BFCA2",
"iX c #56FAA7",
"pX c #5AEEB1",
"aX c #66E9A7",
"sX c #65F7A3",
"dX c #74F7A6",
"fX c #75EBA9",
"gX c #5CDBB0",
"hX c #779CD2",
"jX c #888E97",
"kX c #AE928C",
"lX c #8E94B2",
"zX c #8EADB0",
"xX c #ABAEB5",
"cX c #B4A89B",
"vX c #CC9A92",
"bX c #D0AE91",
"nX c #EBAE94",
"mX c #CFAFA7",
"MX c #F0BBAC",
"NX c #DC9095",
"BX c #8CD2B0",
"VX c #83EEAB",
"CX c #9FCDA8",
"ZX c #FED6B9",
"AX c #F2CBAF",
"SX c #E8D1A8",
"DX c #8A94D0",
"FX c #93A7C3",
"GX c #B4B7CF",
"HX c #A2A2DD",
"JX c #B1C4CE",
"KX c #B7C4EE",
"LX c #EFD5C4",
"PX c #EFE8D9",
"IX c #D0D1EA",
"UX c #DADFE1",
/* pixels */
">X-XoX$X2X1X1X3X5X>X-X;X2X<XyXiX$X5X5X%X%X>X>XoX&X0X0X2X3X3X2X6X0XgXwXeX7X&X}.W.Q./.5X-X6X0X;X>XoX2X$X;X2X$X2X2X2X2X2X2X2X2X2X2X",
">X-X;X2X2X6X5X3XsX6XoX.X.X.X%X3X1XuX5X-X;X5X4X&X5XdXdX3X6X6XXXXXwX!.Q.wX$X+X3XwX/.wX5X-X%X0X+X:X2X2X2X2X2X2X2X5X2X2X2X2X2X2X2X2X",
",X2X2X2X7X5X5X2XyX;XXX.X.X$X2X3X3X5X>X:X:X>XyX;X X}.{.c.].].N.{.(.Q.~./.oXC.+XqX:X>X>X;X@X%X+X;X2X2X2X2X2X2X2X5X2X2X2X2X2X2X2X2X",
"2X2X3X7X5X<X2X$X>X2X%X&X<X>X:X:X;X-X-X3X3X>X:X>Xc.k...X.{ ] { { +./.BXaXtX;XoXyX-X-X-X$X+XoX+X0X5X2X2X2X;X2X2X2X2X2X2X;X2X2X;X2X",
"$X%X1X6X2X,X;XoX$X2X3X9X3X3X2X#X$X$X3X3X6X>X5XuXv.m & 6 7 a x i X.d.Z.0X>X;XXX_.{.'.B.Z.2X>X;X3X2X5X2X2X;X2X2X2X2X2X2X2X2X2X2X2X",
"+X3X6X4X2X;XoX;XXX5X5X5X$X$X%X3X>X2XoX-X-X3XuXiXx.= # D o.v U v ` J l.].#X%XZ.d.{ { +.V.&X<X>X-X5X;X2X2X2X2X2X2X2X2X2X2X2X2X2X2X",
";X2X6X6X2XoX;X;X3X5XyX2X.X.X=XgXeX5X;X,X;X2X3X{.x.= # F o.L P @.G t J h. X[.v.Y : & 0 v.@X2X>X:X,X,X2X2X2X2X2X2X2X2X2X2X2X;X2X2X",
";X5XuX4X;XXX;X5X,XrXtX;X$X}.zXW.zXeX>X3X0X$XV.+.] + % % p A H @.L L G X. .} +.G c i h x.#X:X:X5X>X5X5X5X2X2X;X2X;X2X2X2X2X2X2X2X",
"oX:X6X6XXXoX3X5X6X;X:X#X.XOXjXQ.DXaXZ.Z.Z.B.a.Z 6 ; # X % 7 d K T T L k 6 ; h v L _ _ +.B. X].;X%X;XoXXX3X3X2X2X3X2X;X;X2X2X;X;X",
">X:X;X3XoX;XuXyXiX;X3X<XC.&XzXDXwX,Xn.B } +.] 9 t t 9 6 = + ; > S L U a w d G H S 0 / M B } B d.,X;XoX3X2X:XXX;X5X2X;X2X3X2X2X2X",
";XoX$X%XoX2X0X0XuX.X2XiX>X5XyX@X#X_.p.+ X h h s S S S J 9 + # & a L H 7 > S T J g 8 h p # * - B ].,X2X#X3X:X-X3X>X5X>X2X6X3X2X2X",
"$XXX+X;X;X2X3X+X&XC..X2X4XyXyXoXm.[ q 6 ; 8 g y S S Y ..G 8 3 p g K S f s Z E m 9 h i p p 3 8 M B h.,X>X3X3X3X2X;X2X3X2X;X2X;X2X",
"uX2X+X+X<X<X$X.X X X;X$X#XoX#X Xs.= O j F Z Z g J H T o.U z z G m t E c ` D k 0 9 k g g l _ x : - i.|.6X5X;X-X-X2X2X2X2X;X;X;X;X",
"yX7X3X$X+X+X3X8X/.DXwXiXiXOXz.u.m , : g S g c o.L @.@.I I I G C M Z g l X.F S H K g G f 6 p : M i.n.,X6X3X-X;X3X2X2X%X2XoX;X;X6X",
":X5XtXtX>X7XpXaX!.~.lXiX6X Xz.m , > C A j A c *.@.#.@.I I R L C _ G g g A L I I K S F 9 : $ # [ {.7X>XoX$X2X5X3X;X3X2X2X;X5X6XsX",
"<X2X3XwXlXlXwX1XlXlX/.>X3X3Xm.l.Y t , 0 h j D O.@.@.T T R I P o...H H H L P T H G A e c v u y J k.B.;XXXoX2X6X>X;X5X3X6X5X6XaXfX",
"oX3X+XwXQ.Q.zX8X0X X4X6X5XyX,XV.+.9 & : t d G g K o.@.T P P P o.P I P T L P P K D h r -.1.,.1.u 9 k. X2XsX3X<X3X2X2X2X$X2X8XBXCX",
"$X6X;XgXDXhXwX;XC.+X6X;X:X-Xn.a.{ f p s s g l z S U L H L O.I T P I L L H o.G D A g v I <.F.NXt.v H k.n.OX.X$X3X>X2X%X+X&X9XfXBX",
"oX9X$X+XeX*X_.:X9XyXtXeXrX|.u.5 ; z z d D D j G S z A A ..O.P L O.I U L G G j D K ;.,.<.@.cXZXF.7.u t s.].%X$XoX>X;X2X2X3X3XiXsX",
"oX7X>X:X>XXX.XoX&X2XyX=Xn.i.V % : g z _ F 0 f g c A d d A H ..o.L L G G l j j 0 k >.,.u o.xXPXnXy.,.;.L x.N.1XuX.X-XrXyXtXrX2X;X",
"OX>X:X:X4X1X@X@XOX#X6X|.p.- ; g 9 C l j 0 9 t y g g j s f F G G A G G l D C k q 9 -.<.v v cXPXMXr.5.e.<.z  .[.sX.X;X>XtXtX>X2X$X",
";X;X$X%X2X;XoX&XyX4XyX*X[ O & g G D f t > > f g g z z 0 0 D C C g G X._ A Z m 7 : v 1.w.0.kXNXNXr.r.r.;.& [  X+X3X;X>X>X;X2X5X6X",
">X2X9XsXiXtX>X1X+X%X%X].s.; 3 l O.k f e > m Z 9 C G z h 9 0 d E g D j l g C a i b ;.3.t.cXE.8.e.r.r.e.v X N Z.+X3X2X2X;X2X3XyXiX",
"sX;XoX&X3X3X5X2X>XOXn.k.+.7 e k p 0 s a f J Z Z j f p p f d Z A S C Z j g d f x v ;.1.t.NXF.1.4.5.5.y.b X n B.0X2X3X3X4X5X5XyXyX",
"uX6XoX2X3X5X3X$XrXZ.u.= : , f t i p s s m F A c f p i : j _ z g u Z C S g 9 a :.>.3.,.9.e.e.5.5.5.3.,.b X X.BXVX3X3X3X%X2X2X3X<X",
"6X2XoXOX<X5X2XoX6Xm.N . * s { X.F : i z F F d g h h s 9 Z j l l g S Z f : ; e :.3.3.3.e.r.G.5.5.4.,.=.g M k.}.dX3X3X%X$XoX2X2X2X",
"2X;XoXOX,X2X;XoX>XM.N   * k x.c.+.: i x G F 9 7 h x D F 0 s s k C C s + X # w :.3.3.4.e.r.G.G.4.,.b $ B c. X0X2X3X2X2X2X$XoX%X$X",
";X;X@X;X2X2X;XoX2X_.f.M M +.c.<Xc.+.X.a f G f ; 6 f h q q 7 s D Z G k o o $ b ;.1.1.1.1.7.2.<.<.=.t n f.7XyXoXoX;X5X3X2X;X;X$X$X",
";X2X2X2X2X2X2X2XtXtX_.N.V.B. X5X#XN.k.9 : g f 7 ; : $ . 3 f l k m D k O   w v :.6.v b r y t $ * * } h._.iX5X2X+X-X>X5X>X;X;X;X2X",
"2X2X6X5X2X2X1X4XwXBXeX6X6X>X#X5X%X@Xh.} D d x c r r * . O k K z D 9 : * w w.q.6.v z O.O.G : X + V d.OX;XyXiX9X1X;X;X6X5X;X-X;X;X",
"2X3X5X5X2X2X1X4XxXmXzX9X2X,X$XoX$XoX|.'.+.k v 6.;.=.w . O q l E k + . w <.kXmX` p 8.bXbXkXO.q { h.|.;X2X2XuXdXsXoX2X3X2X2X;X;X;X",
"2X6X5X>X;X;X<X4XxX!.FXiX5X4X$X.X2XoXXX7Xx.0 b :.,.;.b $ # 8 9 Z e X @ u 9.LXUX$.= A.SXLXAXq.F l.5X2X1X%X2XyXdXaX+X+X%X2X2X;X;X;X",
"3X5X2X5X;X-X3X1XaXwX8X;X%X$XoX;X.XXX;X#Xx.q 3 t u ;.=.=.w # = g p X # 2.vXPXIXX.% b.SXZXAXq.J x.+X%X2XoX%X3X6X4X$X$X2X2X5X2X;X;X",
"2X2X2X;X;X>X2X3X&X&X+X+X$X2X5XuX2XoX;X@Xc.{ 9 : b u =.=.r O o & 7 : D 9.bXPXUX&.X.S.AXLXMXkXR b.%X%X2X$X2X3X5X2X$X2X2X2X5X;X2X;X",
",X5X2X;X>X2X2X5X0X-X;X6X5X>X>X>X>X6X0X0X=XN.} 9 w a c U a .   O > #.q.F.bXAXAXmXvXmXZXZXLXvXA.D.#X3X2X2X;X2X;X;X2X2X2X6X5X2X2X;X",
"2X2X2X6X2X;X2X>XtXtXtXuX>X;X2X$XrX3X0X6X,XoXv.{ M { J F h + @ X : 8.S.S.F.nXMXAXZXMXAXMXmXbXcXZ.2X2X2X2X;X2X2X;X2X2X2X2X5X5X>X2X",
";X2X2X2X2X;X;X-XXXXX%X3X;X3X1XoX5X2XXX-XoX+X X'.z.V.s.5 + ; 6 + : x K 8.A.F.nXMXZXSXnXq.8.D.}.=X;X2X2X2X;X2X2X2X2X2X2X2X2X2X2X>X",
"2X2X;X2X2X2X3X;X$X%X%X3X-X5X6X:X6X2XXX-X0XqX0XyX6XsXc.-   7 f q 8 3 8 A I 9.F.vXbXF.q.R +.v.<X>X-X,X2X;X;X2X2X3X2X2X2X;X2X2X2X2X",
"3X2X;X;X2X3X2X2XrX5X>X>X5X3X5X6XoX;X;X5X8XBXfX3X2X2X'.] 4 h p 4 ^ ^ / 6 & x U I P U H k.v.Z.;XuX2X5X3X2X2X;X2X6X2X2X2X2X2X2X2X2X",
"3X2X;X;X2X3X3X3X3X2X;XoX$XoX-X3X2X5X>X5XVXJXCXoX+XM.(.) Q 8 & q ) | | / & & & e Z f J v.qX%X;X5X2X3X3X3X;X;X>X2X2X2X2X2X2X2X2X2X",
"2X;X2X2X2X;X2X2X2X2X2X2X2X2X2X2X2X$X.X6XBXGXJXuX{.g.J.| ^ % < ~ L./.xXlX*.q 5 [ d.z.v.V..X.X2X>X6X5X2X2X2X2X2X2X2X2X2X2X2X2X2X2X",
"2X2X2X2X2X2X2X2X2X2X2X2X2X2X2X2X2X3X1X0XBXxXBX@Xh.( ( ( ~ 2 W ( U.HXUXKX^./ 5 a.1X9X1X6X2XOX;X>X6X5X2X2X2X;X3X5X2X2X2X2X2X2X2X2X",
"2X2X2X2X2X2X2X2X2X2X2X2X2X2X2X2X;X>X5X3X8X}.8XoXh.] W 1 2 W | (.hXDXHXhX^.) n h.2XrXrX5X6X;X-X,X>X5X2X2X2X2X2X2X2X2X2X2X2X2X2X2X",
"2X2X2X2X2X2X2X2X2X;X2X2X2X;X2X2X3X>X>X;X3X;X,X_.h.$.1 = 2 ) L./.hXT.R.R.K.) X.(.[.|.|.*X2XXXoX%X5X5X2X2X2X2X2X2X2X2X;X2X2X2X;X2X",
"2X2X;X2X2X2X2X;X2X2X2X2X2X2X2X2X1X3X5X6X5X>X).g.P.zXjX&.&.I.Y.E.P./ ( H.J.*.#.+.} N } N.5X;X<X3X2X2X2X2X3X;X2X2X2X2X2X2X2X2X2X2X",
"2X2X2X2X2X2X2X2X2X2X2X2X2X2X2X2X3XoX2X6XuX7X(.] E.IXUXJXcXlXI.' ^ < 2 W _ q.9.g O   = l.=XyX>X-X2X;X2X2X2X2X2X2X2X2X2X2X2X2X2X2X",
"2X2X2X2X2X2X2X2X2X2X;X2X2X2X2X2X>X.XoX$XrXrXg.] E.PXPXIXGX&.X./ Q W 1 < q 8.F.9.O.O.8.+.} n.>X>X;X2X2X2X2X2X2X2X2X2X2X2X2X;X2X2X",
"2X2X2X2X2X2X2X2X2X2X2X2X2X2X2X2X>XXX%X<X6XeXh.] I.UXUXIXlX$.q ~ ~ H.( o 2 8.F.F.F.SXbX..- p.#XC.2X;X2X2X2X2X2X2X2X;X2X2X2X2X2X2X",
"2X2X2X2X2X2X2X2X2X2X2X2X2X2X2X2X>X;XoX;X;X4Xf.~ | DXDXDX(.) ~ ! ( H.H.( ^ ^ #.F.SXZXnXO.. j._.4X2X;X2X;X2X;X2X2X2X2X2X2X2X2X2X2X",
"2X2X2X2X2X2X;X5X2X2X2X;X2X2X2X2X,X;X2X2X2X3Xp.- ~ L.T.K.J.( ) | J.H.H.| ~ 2 _ kXMXZXmX..- i.@X2X5X2X2X2X;X2X2X2X2X2X2X2X2X2X;X2X",
"2X2X;X2X2X2X2X2X2X2X2X2X;X2X2X2X3X2X;X>X>X3Xa.- 1 I.T.R.H.~ ] P.Y.Y.I.P.%.~ 1 ..0.0.#.+.i.V.@XoX5X2X2X2X2X;X2X2X2X2X2X2X2X2X2X2X",
"2X2X2X2X2X2X2X2X2X2X2X2X2X2X2X2X2X;X>X5X5X@Xs.- 0 (.^.T.K._ X.lXFXxXjX&.(.| 1 1 % . , a.].2X3X<X<X3X2X2X$X2X2X2X2X2X2X2X2X2X2X2X",
"2X2X2X2X2X2X2X2X2X2X2X2X2X2X2X2X;X2X9XdX6X$Xn.p.{ +.] ) H.$.E.GXGXW.*.X.X.6 2 O X V i.m.3XuXsXuX3X2X2X2X2X2X2X2X2X2X2X2X2X2X2X2X",
"2X2X2X2X2X2X2X2X2X2X2X2X2X2X2X2X5X9X8XVXqX3X5X{.g.5 o < ) lXKXKXxX$./ 6 . . . * V a.].OX$X0XdXuX<X<X2X2X;X2X2X2X;X2X2X2X2X2X2X2X",
"2X2X2X2X2X2X2X;X2X2X2X2X2X2X2X2X4X9XfXdX0X3XB.h.{ 2 < 2 ] FXKXlXP./ < o   O # # , } f.B.$X3XqX0X>X2X2X;XoX2X2X2X2X2X2X2X2X2X2X;X",
"2X2X2X;X2X2X2X2X2X2X2X;X2X2X2X2X9X0X9XsX3X#Xd.V 2 q ~ ( L.FXFXL.1 < o   O 2 4 : % 2 n d..X3X0X3X,X;X;X2X2X;X2X2X2X2X2X2X2X2X2X2X",
"2X2X2X2X;X2X2X2X2X;X2X2X2X;X2X2XsXsX7X;X;XOXl.y 4 Q ~ ! ] I.P. .[ B n @   O * * ; 5 N h.XX2X$X,XoX2X2X2X2X2X2X2X2X2X2X2X2X2X2X2X",
"2X2X2X2X2X2X2X2X2X2X2X2X2X2X2X2X#X6X6X6X6X1Xv.U a Q Q < o ; ] v. X[.d.n         @ k.[.2X;X@X6X>X,X;X;X2X5X2X2X2X2X2X;X2X2X2X2X2X",
";X2X2X2X2X2X2X2X2X2X2X2X2X2X2X2XoX-X;X<X1X1Xz.g b x _ i * . - N.5X5X|.i.n n n n } c.6X5X>X6X5XOX2X2X;X5X2X5X2X5X2X2X2X2X;X2X2X2X",
"2X2X2X2X2X2X2X2X2X2X2X2X2X2X2X2X5X:X-X@X3XOXa.: w <.1.;.r . n n.7XyX5X|.).[.].].[.|.OXoX>XrX5X3X3X5X6X2X6X;X2X2X2X2X2X2X2X2X2X2X",
"2X2X2X2X2X2X2X2X2X2X2X2X2X2X2X;X7X>X2XqX0X5Xh.N 8 v -.=.c M j.m.yX<X5X;X>X6X6X2X6X-XXX$X5XrX>X0X2X2X3X3X2X2X2X2X2X2X2X2X2X2X2X2X",
"2X2X2X2X2X;X2X2X2X2X;X2X2X2X2X2XoX5XfXVXdXuX7XN.k.7 * . 9 z.).-X;X$X,X-X>XuX6XyX2XXXXXoX7X6X2XOX2X;X2X;X2X2X2X2X2X2X2X2X2X2X2X2X",
";X2X2X2X2X2X2X2X2X2X2X2X2X2X2X2X+X3XfXfXeX6X6X2Xh.N 5 n p.B.oX2X;X;X;X;X$X2X<XrXoX;X5X;X@X6X3XoXoX;X;X;X;X2X2X2X2X2X2X2X2X2X2X2X",
"2X2X2X2X2X2X2X2X2X2X2X2X2X2X2X2X2X2X9X4X>X-X2XXXOXB.c.n.).,X6X,X4X5X5X2X#X$XoX;X;X@XsX5X;X2X2X2X-X>X>X2X>X2X5X5X2X2X2X;X2X2X2X2X"
};
