/* XPM */
static char *result[] = {
/* columns rows colors chars-per-pixel */
"64 66 256 2 ",
"   c #0A0508",
".  c #170909",
"X  c #180B15",
"o  c #171A16",
"O  c #0F140F",
"+  c #2A1908",
"@  c #271918",
"#  c #351A19",
"$  c #2D0D0D",
"%  c #162718",
"&  c #122D14",
"*  c #29281A",
"=  c #37281B",
"-  c #25361C",
";  c #3A2E15",
":  c #12152D",
">  c #251A24",
",  c #2C152E",
"<  c #142C2F",
"1  c #282925",
"2  c #3B2B23",
"3  c #382926",
"4  c #2C3928",
"5  c #393728",
"6  c #282A38",
"7  c #382939",
"8  c #393838",
"9  c #2D3037",
"0  c #4A1610",
"q  c #45281A",
"w  c #582B1E",
"e  c #44351C",
"r  c #4A260C",
"t  c #6E2819",
"y  c #541C27",
"u  c #452827",
"i  c #552927",
"p  c #453C2B",
"a  c #4C3D2C",
"s  c #483626",
"d  c #523D2C",
"f  c #563729",
"g  c #4D3D32",
"h  c #473B35",
"j  c #533E32",
"k  c #5A3C37",
"l  c #4C2634",
"z  c #71322B",
"x  c #601D15",
"c  c #1C5636",
"v  c #15522C",
"b  c #245A38",
"n  c #33492E",
"m  c #28703A",
"M  c #186732",
"N  c #4C432D",
"B  c #4B4327",
"V  c #53422D",
"C  c #59462C",
"Z  c #4D4232",
"A  c #484637",
"S  c #524233",
"D  c #55433A",
"F  c #5B4A36",
"G  c #465838",
"H  c #545533",
"J  c #654939",
"K  c #6A5B3D",
"L  c #665638",
"P  c #755138",
"I  c #4C663C",
"U  c #6A623B",
"Y  c #726338",
"T  c #2E1D4C",
"R  c #1B2447",
"E  c #102550",
"W  c #2A2847",
"Q  c #2E2C51",
"!  c #163876",
"~  c #2B3372",
"^  c #141848",
"/  c #4C384A",
"(  c #1C5351",
")  c #324E50",
"_  c #1C744B",
"`  c #386A45",
"'  c #287747",
"]  c #31714C",
"[  c #2D486C",
"{  c #387469",
"}  c #1F4778",
"|  c #4E4E49",
" . c #6C5D43",
".. c #655544",
"X. c #765746",
"o. c #6C4F4C",
"O. c #4C714E",
"+. c #6D6342",
"@. c #716242",
"#. c #766648",
"$. c #79655B",
"%. c #4E486B",
"&. c #6F7271",
"*. c #5E5E67",
"=. c #98341B",
"-. c #893315",
";. c #A3301B",
":. c #8E3329",
">. c #A23723",
",. c #90431F",
"<. c #AD461C",
"1. c #9C4325",
"2. c #924733",
"3. c #A94328",
"4. c #B94722",
"5. c #835844",
"6. c #8F6A4F",
"7. c #AD7451",
"8. c #947368",
"9. c #8F5C61",
"0. c #C36740",
"q. c #1F803D",
"w. c #02FD01",
"e. c #0AFB02",
"r. c #04FB0C",
"t. c #0AF807",
"y. c #09FA12",
"u. c #0EFF2A",
"i. c #12FE26",
"p. c #14FE2A",
"a. c #19FD29",
"s. c #19FC25",
"d. c #19FD33",
"f. c #21FC2D",
"g. c #22FA34",
"h. c #28844A",
"j. c #368A57",
"k. c #318D52",
"l. c #3A9865",
"z. c #339165",
"x. c #38A967",
"c. c #3BBE77",
"v. c #36B66B",
"b. c #289D52",
"n. c #478858",
"m. c #478E53",
"M. c #47A45D",
"N. c #499866",
"B. c #53906A",
"V. c #46A667",
"C. c #47BB78",
"Z. c #4CAF72",
"A. c #6F896F",
"S. c #3AC676",
"D. c #37CC6F",
"F. c #3DFE6E",
"G. c #3EFE73",
"H. c #3DFE7C",
"J. c #38FD75",
"K. c #2FFA54",
"L. c #48C778",
"P. c #46D47A",
"I. c #50C676",
"U. c #42FD6E",
"Y. c #42FD74",
"T. c #43FD7B",
"R. c #48FA77",
"E. c #4AE378",
"W. c #BE8A66",
"Q. c #A38859",
"!. c #CA916D",
"~. c #2F398C",
"^. c #233B91",
"/. c #2D488E",
"(. c #2E4FAF",
"). c #1A509D",
"_. c #4D5691",
"`. c #546B8D",
"'. c #74738C",
"]. c #566FAB",
"[. c #6D77B2",
"{. c #4458AF",
"}. c #3757C7",
"|. c #5B67C2",
" X c #966FA4",
".X c #D25DCB",
"XX c #B334A9",
"oX c #728C93",
"OX c #66B98E",
"+X c #7988A8",
"@X c #67AC98",
"#X c #3BE18B",
"$X c #4BDB87",
"%X c #54DA8C",
"&X c #4DD18D",
"*X c #69DE94",
"=X c #49E789",
"-X c #54E988",
";X c #45FE8B",
":X c #4CFE8D",
">X c #48F985",
",X c #53F58C",
"<X c #53FD8D",
"1X c #5BFB8D",
"2X c #57F788",
"3X c #4BE895",
"4X c #56EA94",
"5X c #45FE94",
"6X c #4DFE93",
"7X c #4DFE9B",
"8X c #4AF897",
"9X c #54F494",
"0X c #5AF594",
"qX c #53FE94",
"wX c #5AFC94",
"eX c #54F59A",
"rX c #5BF59B",
"tX c #53FD9B",
"yX c #5BFC9B",
"uX c #69EB99",
"iX c #62FA9D",
"pX c #68F59B",
"aX c #72F09A",
"sX c #74CFA7",
"dX c #4DFEA2",
"fX c #48FCA7",
"gX c #53FDA2",
"hX c #5BFCA2",
"jX c #59F7A5",
"kX c #58E8A5",
"lX c #76EDA6",
"zX c #6AF8A4",
"xX c #70EEA7",
"cX c #8A8E97",
"vX c #9295B0",
"bX c #8EB2B3",
"nX c #B0B0BC",
"mX c #9D9BAB",
"MX c #DDB093",
"NX c #DFB7A2",
"BX c #8AD89E",
"VX c #8FD5AE",
"CX c #A6CEB1",
"ZX c #87E5A8",
"AX c #F8CFB7",
"SX c #D6CBB3",
"DX c #B0B4CD",
"FX c #9797CC",
"GX c #CBBEC8",
"HX c #B6C5C9",
"JX c #D2CBCC",
"KX c #D5D4E8",
"LX c #DCEBE6",
"PX c #E4ECEC",
"IX c #EEF3EE",
"UX c #D5EDDF",
/* pixels */
"w.r.r.r.w.w.w.r.y.r.w.w.e.t.r.r.e.t.r.w.w.r.r.y.e.e.w.w.w.r.r.r.w.w.w.w.w.w.w.w.w.w.w.w.w.w.w.w.w.w.w.w.w.w.w.w.w.w.w.w.w.w.w.w.",
"w.r.s.a.p.p.d.d.d.p.i.s.s.d.d.d.a.p.u.i.p.d.d.s.g.a.i.i.a.d.d.a.f.s.p.p.i.i.i.a.f.s.s.s.s.f.a.s.s.a.s.p.p.s.s.p.p.s.s.a.p.s.s.p.",
"t.s.K.F.Y.Y.Y.Y.J.F.F.J.J.H.>XT.;XH.J.H.H.G.J.H.>XT.J.J.T.T.R.T.R.T.T.H.R.R.>XT.Y.Y.U.U.Y.Y.Y.Y.G.Y.G.G.G.Y.Y.G.G.Y.G.G.G.Y.G.G.",
"t.g.U.eXjXhXyXyX7XrXaXhXtXgXtXhX7X6X8XtXeX:X6XdX7X6X7XeX7XtX6XeX7XtXyXyXyXhXhXjXtXwXwXwXyXeXyXtXtXtXtXtXtXtXtXtXtXtXtXtXtXtXtXtX",
"w.p.J.tXgXtXqX:X7XxXZXaXwX;X6XqXtX<X2XiXyXwX6XeX8X0XwXtXgXtXtXgX7X2X1XwXtX6X8X9XqXwXwXwXqXtXtXqXwXqXqXqXqXtXqXtXqXqXtXwXwXqXqXtX",
"w.p.F.tXgX6X:X:XtXuXZXaXwX;X:XqX0X6X:X1XwX7X6X;X6X7XtXyXtXqX7XeXeXpX1XqXtXfX7X6X7XqXqXqXqX6X6XqXqXqXqXqXqXqXqXqXqXqXqXqXqXqXqXqX",
"w.g.R.jXjX9XqX7XtXhXzXiXwX:X6XgXrXrXwXqXqX<X6X6X;XtXhXqX:X<XqX6XqX6X<X:X8X5X5X5X7X7XeXqXqX7X7XqX7XqXqXtXqXqX7X6X6XtX7XqXqX7XqX6X",
"e.f.Y.qXqX<X6XtXqX6X6X<X2X<XwXyXkXsXsXsX,XP.Z.V.V.Z.Z.x.D.=XwXwXwX:X;XyX-XC.L.0XtXtX0X<XqXtXqXqXqXqXqXqXqXqXqXwXqXqXqXqXqXqXwXqX",
"y.d.G.qX7XgX<X6XyXwX6X6XqX0XqX7XkXFX.XvX3Xj.8 n 4 4 5 ; G I.yXyX7X5X6XwXC.G O.4XhXyX<X<XqX6XgX1XqXqXqXqXqX6X6X6XqXqXqXqXqXqXqXqX",
"y.p.J.wXlXxXyXgXtXtX6XqXqXqXrXtX4XbX.XbX&X` $ # s s f s H O.Z.V.C.3X2XZ.O.Z H B.I.2X<XwXqX5X7XtXqXqX6XqXqXwXqXqXqXqXqXqX6XqXqXqX",
"t.u.J.aXVXZXjXgXtXqXqXqXtX7XfXfXqX4XuXyX3X] O i  .X.X.2.J V 5 8 O.&XL.m i P ..n k.E.;XwXwXqXtX6XqXqX6X6XqXwXqXqXqX6XqXqXqXqX6XqX",
"w.i.Y.aXZXlX0XtXwX<X6X6XqXtX5X5XeX5X>X<X=Xx._ n p F K Y Y C w i n n.n.B i o.k , I E.;XeX6X:XqXqXqXtXwXqXqX6X6XwXqXqXqXqXqXqXqXqX",
"t.a.R.9XtX9X2X1X1X2X6XtXtXqX<X>X6X>X<X2X>X5XS.b $ # d H U U L k s 5 A L X./ l u O.E.iXzX5X;X<X0XqXqXqXqXwX6XqXtXqXwXqXqXqXqXqXqX",
"w.p.T.qX;X6XR.:X;X:XqXqXqXtXwXwX0XqX2XtX8XP.z.8 $ $ = 5 H K K J f X @ C C p 8 = A m.N.B.&X6X6X6XyXwXqX6XqXqXqXwXqXqXqXqXqXwXqXqX",
"r.d.>XwXqXtXqXjXjXjX7X5X<X0XrXrXtXqX-X8X3X] 1 3 # X . @ s F @.#.F @ o s s - 5 B a ; = 5 m.%X7X6X9XqXqXqX6XqX6X<XqXqXqX6XqXqXqXqX",
"r.d.>X6XtXdXrXVX XsXkX5X>X1XwXtX7XL.B.N.l.n q 3 p 5 3 3 s F L L V 3 = 5 s 5 N F V e u 2 G n.l.N.D.,XtXqX:X6X<X<X6X6X6X6X6X6X6X6X",
"e.f.Y.:X8X5X7XbX.X.X3X>X0X8XwXqX3Xj.3 2 u s d s S .. .F N N Z N S d f C B B C ..K C d a s 7 3 7 l.=X;X5XtX6X<X<X<XqX6X6X7XtXwXqX",
"e.a.U.<XeXtX8XsXvXbXkXdXeX7X<XS.] 4 # q q f S H H +. . ...Z s s j B B B C F K @.@...F S a u = # n h.S.qXwX8X8X<X<XqX6X6X7XqXtX6X",
"r.d.G.qXyXyX2X4X4XeXgXfXfX7XE.h.o @ 3 s f a h ..U U  .#. .F j S V V B B C L +.+. ...F S j f q = . % k.=X,XdX7XwXqXqX6X7XqXqXqXqX",
"r.u.F.qXeXuX1XyXT.:X6X7X7Xv.q.- # u u g N 2 @ 7 Z H +.@. .L J o.L L L H L Y #.@.L S = @ 2 j d s 2 @ 4 m c.7XtX6XqX6XtXqXwXqXqX6X",
"y.u.Y.wX7XjX0X0XwXqX6X1X=Xq., 0 F d u d Z * . @ u F K Y Y Y Y Y U @. .K  .+. .K C q @ . @ p g p D F 3 < z.8XtX8XqXqX6XqXwXqXwXqX",
"t.a.R.rX7XdX7XwXtX7XqX>X6XoXXX XV.m % * 5 1 3 ; s C J C H U Y Y Y @.@.@.L L F F C s = = 2 3 * * O.Z.A.&.&XfX7XrX8X6XqXqX6XqXqXqX",
"t.s.R.9XqX7X7X8X5X<X2X>X7XbXDXFX&X` O O * h Z p B V d V C L L U K U K K L C V V S S Z g s 3 + O ' &XsXCXVXeX7XyX0X9X:XqX6XqXqXqX",
"w.a.H.6X<XqX6X7XgX1XqXtXeXxXbXB.' 4 3 u 5 j V B B V B p B C F F L C F F F V a a Z a Z a a p 2 * 5 ] @XlXpXwXpXxX<X0XqX6XqXqX6XwX",
"w.a.G.7XtXqXqXwXyX0XqXqXqXrX&X' O > j F d k h Z B N A S k k | g d C V V a g j S j S g h N a S a @ > O.$X>XwXpXlXwXtX8X7X6X6XqXyX",
"w.s.G.8X6XqX6XqX<X<XqXtX9XI.O.- O 3 k k f k g a C N N C k g h p B a S j S S S g Z S Z S S S Z 8 1 @ n k.I.1XyXyXwX6X7X6XqX<XqXqX",
"w.a.G.eXqXqXqX:X:X<X0XwXqXM.; + * s J z f k V S V a a V k g h Z d S a V Z S g g N S D D d d Z h 5 = + ; M.2X6XqX6X6X6XqXqX:XqXqX",
"t.a.G.eXwXqX6X;XtX6X2X<X<Xk.O + 5 s C k k f a S C a a d C S Z Z S g S g S S S a V S S Z S a Z A N e $ o z.8X6XqX6X,X9XqXqXqX6XqX",
"w.p.Y.tXwX<X6X;XgX7X6X>XS.' o @ B B V j | d s a d V j d f C S S Z Z S S V Z d Z j j a p a d k F j s + % _ #X3X8X6X6X<XqXqXqX6X6X",
"t.p.F.eXqXqX6X;XeXhX8Xv.b * 5 e N V S h h 2 u s d S D d d V Z Z Z d V V V d Z N S Z p 2 = a j D S B e ; 1 b v.tXwXwX<XqXqXqX6XqX",
"w.p.F.qX<X<X6X6XtXiX9XM.n n m H p s s F ..u 3 e s h | C B N N a j g d S S S g Z Z p u # f J F u 5 p G I 4 v x.iXyXqXqX6X7X7XtXqX",
"w.a.F.qXqXqXtXtXtXqXqX=Xv.L.C.O.= + @ J 8.| 2 # ; p h / d a N N j d d j D D S Z 5 4 # q X.8.X.+ X 5 n.I.S.c.=X<XyXqX:X6X6X7XtXqX",
"w.a.Y.tXwXqXqXqXqX6X6XqXwXtX4Xv.n % X 5.W.2.q w f f C / h e s s h l s g h s f k k e ; e 6.!.P   o ` C.wX:X;XqXyX6X7X7XtXqXqXqXqX",
"w.a.G.tXqXqX7XqX6X6X6XwX6XwXwX-XL.c X 5.!.6.k z 2.:.z y u 3 = = 4 1 2 = # = i z ,.>.z B 6.7.P O c C.=X6X6XwXwXyXqX7X7XtXqXqXqXqX",
"w.s.G.tXqXqXtXqXqXqXqXwXqX6X7XtX9Xb.b U Q.P i z >.:.:.t t i t i w w i e q r t :.=.;.z V 5.8...n b.0XyXqX<XwX2XiXqXqXtXtXqXqX<XqX",
"w.p.G.tXqXqX6XqXtX6X6XqXqX6X6XqX2X=XC.m.L d q y i :.=.;.>.3.3.>.3.1.1.1.,.,.=.;.:.i q w k o.B.L.>XyXuXzX0X6X:X1X<XqXwXqXqX6XqXqX",
"w.p.G.tXtXqX6XqXqX6X6X0XwXqX6XqXqX7X,Xm.s A n 7 , x -.-.:.3.4.3.<.4.>.<.<.1.1.:.y X 6 | g n N.:XgXhXaXxXiXtXqX2XqX<X<XqXqXtXqX6X",
"w.s.Y.tXwXqXtXqXqX6XqXqX0XwXqXqXdXgX-Xj.s B.L.` . $ r i z :.;.=.;.;.;.=.t t i l @ . ( L.n.- m.-X7XtXgXyXyXqX6X6XqXqX<X6XqXtXqXqX",
"w.s.G.tXqXqX7XqXwX6X6XqXqXqX:XtXtXyX2XM.O.OXsXN.v & . @ , y t z z :.-.x y # @ > % n b.>XI.h.M.2X7X7X5XtXhXtX6XgXqX<X<X6X7XtXtXqX",
"w.a.G.tXqXqXqXqXwX;X6XqXwXqX6X6XwX>X>X=XI.bXDXsXv.v     X # l u # y l u # X     b C.2X2XuXE.-X:XtX6X6X6X6X7XdXeXwXqXqXqX6X7X6XqX",
"w.p.G.tXwXqX7XqXqXqX6X6X6XwX0XqXgX6X>X,XrXoX X@Xx.( ^ ^ R 6 Q 7 , , W W 8 / 9 R ( x.c.l.D.7XwX<X7XeXxXaXjXdX6X1XqX6X6X7XyXiXyX6X",
"w.s.Y.tXqXqXqXqXqX6XqX6X<XqX6X6X0X6X:X6X4X] % 1 ~ ~ ^.).).} ~ Q Q T R Q `.cXoX[ } [ < < h.3XhXqXqXqXBXCXZXtXqXqX<X6X8XtXiXpXwXqX",
"w.s.G.tXqXqXqXqX6XqX6X0XwXqX6X5X;X&Xx.V.N.I p 3 T E ! }.}.(././.~.[ } ! ].DXmX[ E W W d I l.V.V.P.7XlXBXlXtXqX<XwX6X6XtXiXiXyXwX",
"w.p.G.tXqXqXtXqX6X6XqXwXwX:X6X6X>XN.Z 5 B 6.8.o.R   : ^.}.(.(.(.{.(.).).`.FXvX< O W $.Q.6.p 5 A V.9XgXuXeX7XqXqX6X6X6X6XyXyXtXqX",
"w.a.G.tXqXqXqXqX6XqX6XqXwX<XwXI.V.&.9.2.K 0.7.D : : : Q ^.}.}.(.(.(.{.].vXnX'.%   : | Q.7.2.o.$.&.M.-X9XtXtXwXqX6X6X6X6XwXwXqX6X",
"w.a.G.tXtXqXqXqX6XwXtX;XqXqX0Xb.B Q.NXMX!.0.=.r O , 6 X : ^.}./.^./._.FXDXmX*.:     3 Y 6.W.MXNX8.B M.7X6X0X6X6X6X6X6X6X6XqX6XqX",
"w.p.G.tXwXqX7XqX6XwX6X6XwXqX9Xm # 8.AXNX!.2.w .   ) o., : ~.~.^.! ! _.DXnX&./ T < _ n 2 X.!.AXAX8.@ ' 5X6X:X6XqX6X6X:XqX<X<XqXqX",
"w.s.G.tXqXqXqXqX6X0X6XqXwX6X8X' % 6.AXMXW.a X . 1 *.oX%.T T ~ ~.~.~.].FXvX%.T T { &Xb.< k !.MXSX$.* k.7XwXpX:XtX6X:XqX<X<XqXqXwX",
"w.s.G.tXtXqX6XqX6XwXqX6X6XtX>XD._ *.$. .D 3 : ~ &.vXbXcX'.'.`.oX+XvXvXCX+X_.~ Q { 3XP.j.O.J o.$.*.h.L.0XxXZXzX5X5X5X6X7XeXtXqX<X",
"w.p.Y.tXqXqXtXqXqXqXwXqX0XqXtX4XkXj.- O % : ( +XDXHXDXDXHXHXHXHXHXLXJXmX'.|.(.E ] 3XyX-Xh.&   & k.=XwXqXZXCXxX7X6X6XtXeXtXwXqXqX",
"w.a.G.tXqXqX7XqXwX6XqXqXwXqXhXxXVXA.' _ _ E [ cXKXKXKXPXPXUXUXUXLXIXJXA.`.[./.6 _ 3XfXtXD.k.' q.D.qXhX9XaXZXuX0XtXeXtXtX7XtXqXwX",
"w.a.G.tXwXqXqXqX6X6X6X<XqX5XrXBXnXBXuXqX3X{ /  XDXKXIXIXIXIXLXIXIXIXnX%.[ oX&.1 c &XeX8X9XrXeX8X>X8XeX7X5X6X;X9XyXyXtXtX7X6XqX6X",
"w.s.G.tXwXqXqXqX6XtX6X:X6X5XeXlXVXxXwX:X=Xj.Q `.FXDXJXJXDXJXJXCXJXFX+XR 7 oXQ.*.%.B.C.9XwXqX;XwX7XfXgXtXqX<X;X:XyXwXqX6X6X6X6X:X",
"w.p.Y.tXqXqX7XqXqXwX6XqXwX6X6XrXqX6X<XqX4X{ W /.|. XbX+XvXcXcXvXFX|./.: 3 &.vXcX`.Q j.=X<XtXyX1X9X7XtXqXwX1X6XqX0X<X6X6X6X6X6XqX",
"w.p.G.tXqXqXqXwXqXwX6XqXiXwX;X5X>X6XtXhX%X` : %.[.oX].|.|.[.[.].[.[._.: 7  XvX[._.: _ -X<XwXzXaXlXqXyXwX<XqX7X0XqXqXqX6X6XqXwXtX",
"w.s.G.tXtXqX6XqX5XwX7X6X<XqX,XqX0XqXwXtX=Xm 1 .. X].).}.(.(.(.(.{.'.$.> 6 '. X}.~ X M $XyX:XaXVXaXqX:X6XtXeX7XrXqXqXqXqXwXwXtXtX",
"w.p.G.tXwXqXqXqXqXqX6XqXqXwX6X5X5X9XtXqX2XD.z.) 8 < E E E E E ^ R 8 5 6 W %.%.~.^ : ( #XyX1X0XpXrXyXtXtXtXqX6X;XqX<XqX9X6X6XqXqX",
"w.s.Y.tXwXqXqXqXwXqX7XtXwXqXtXyXrXiXtX6X<X;X$X' . . . .     : : : % % < 6 7 / Q ,   M =XqXqXqXtXyXyXtXtXwXqXqX6X6XqX9XqX6X6X6XwX",
"w.p.G.gXtXtX7XqX:X6XqXqX6X;XwXaXVXlXjX8XqX7X#Xv   x -.-.x $ o O.V.V.' & y z :.:.y . M E.<XwX6XqXqX<X<X<X:X:X:X<X;X;XqX<X6X:X:XqX",
"w.p.Y.tXtXqXqXqXqX6XqXwXqX5X0XlXVXlXgX7X9X5X#Xq.- f 1.<.t 3 c OXzXzXc.v 3 :.3.3.w - ' -XwXtXtXyX6XqX6XqX6X0XqXqX7X7XtXyXyXyXyXqX",
"w.s.U.wXqX<X<X<XqX6XqX1X1X6XqXpXaXrX6XqX<X6X8XP.N.n $ 0 ; h.S.-XiXwX#XS.{ = 0 $ n k.P.9X6XqXqXqXqX6X6X<XqXwXqX0XwXeX7XyXaXaXiX6X",
"w.a.G.7XtXtXtXqXqX6X6XwX1X6X6XtXtXtXtXqXyXhXeXhX%X' & O b S.tXqX<X:X7XgXC.c & & h.-XyXtX7XqX1XyXqX6X6X6XtXyXwX6XrXtX7XyXpXpXiX7X",
"y.a.J.7X7X7XqXqXtX7X7XqXqX6X7XdXqX6X6XqXtXtXtXyX2XP.x.x.L.3X7X7X7XtXyXtX=XS.x.v.$X8XtXgXtXtXyXtX7X7XdXtXgXgXtXdXgXtXdXtXhXhXtX7X",
"e.y.K.>XH.T.Y.R.Y.Y.Y.F.F.U.R.Y.H.H.Y.R.Y.J.H.J.H.H.H.H.R.U.Y.H.Y.G.G.G.H.H.>XH.R.J.G.Y.G.Y.H.J.Y.Y.H.Y.Y.Y.G.Y.G.Y.R.Y.G.G.G.Y.",
"e.y.u.p.d.d.a.f.s.s.d.a.p.a.a.p.i.i.i.i.i.i.i.i.p.p.a.p.p.a.p.p.s.p.p.i.p.i.p.p.i.i.i.i.i.i.i.s.p.p.s.p.u.s.p.u.i.i.i.i.i.i.i.i.",
"w.w.e.r.r.t.t.t.t.e.t.e.t.t.e.t.w.w.w.w.e.w.w.w.w.w.w.w.w.w.w.w.w.w.w.w.w.w.e.w.w.w.w.w.w.e.w.w.w.w.w.w.w.w.w.w.e.w.w.w.w.w.w.e."
};
