/* XPM */
static char *result[] = {
/* columns rows colors chars-per-pixel */
"64 62 256 2 ",
"   c #060506",
".  c #190B0A",
"X  c #0C140C",
"o  c #1A1716",
"O  c #150F13",
"+  c #270702",
"@  c #281609",
"#  c #34170B",
"$  c #281818",
"%  c #34181A",
"&  c #2C0210",
"*  c #172519",
"=  c #0E2D15",
"-  c #2C251A",
";  c #372719",
":  c #34341B",
">  c #2A2A11",
",  c #040C24",
"<  c #14172B",
"1  c #271926",
"2  c #391C2A",
"3  c #0E2922",
"4  c #1B3234",
"5  c #2A2525",
"6  c #392926",
"7  c #2B3728",
"8  c #3A3628",
"9  c #373837",
"0  c #312C37",
"q  c #481A14",
"w  c #511812",
"e  c #45261A",
"r  c #48361C",
"t  c #56351B",
"y  c #552614",
"u  c #682517",
"i  c #712F17",
"p  c #4F1C23",
"a  c #432E2C",
"s  c #462926",
"d  c #592822",
"f  c #433424",
"g  c #4D3C2C",
"h  c #473628",
"j  c #533C2D",
"k  c #573829",
"l  c #472C32",
"z  c #4B3C33",
"x  c #473835",
"c  c #533D33",
"v  c #593A36",
"b  c #5E2B35",
"n  c #633B33",
"m  c #74332B",
"M  c #194F2E",
"N  c #394328",
"B  c #3A5A38",
"V  c #2D4932",
"C  c #1D683B",
"Z  c #2E6A3A",
"A  c #4E4B1E",
"S  c #4B422C",
"D  c #4A4327",
"F  c #53432B",
"G  c #58462A",
"H  c #444334",
"J  c #4C4539",
"K  c #534232",
"L  c #584836",
"P  c #4A5538",
"I  c #5B5339",
"U  c #53542C",
"Y  c #654937",
"T  c #6C5D3D",
"R  c #645539",
"E  c #74593B",
"W  c #664B2D",
"Q  c #4E6639",
"!  c #67643A",
"~  c #69622E",
"^  c #193055",
"/  c #252B55",
"(  c #30334D",
")  c #2B316E",
"_  c #1A2A5E",
"`  c #4F3B42",
"'  c #423561",
"]  c #324E52",
"[  c #1D6E41",
"{  c #396746",
"}  c #297647",
"|  c #30714B",
" . c #364B6A",
".. c #297E67",
"X. c #4A4646",
"o. c #584746",
"O. c #515251",
"+. c #675A46",
"@. c #765947",
"#. c #6D4C4E",
"$. c #447643",
"%. c #476E50",
"&. c #6B6545",
"*. c #746546",
"=. c #737157",
"-. c #4D4D6A",
";. c #576C65",
":. c #726C6A",
">. c #695772",
",. c #882B1C",
"<. c #8E371B",
"1. c #853827",
"2. c #943926",
"3. c #82362D",
"4. c #AA3D2E",
"5. c #A83614",
"6. c #8D472E",
"7. c #A95636",
"8. c #AC4A2A",
"9. c #B4552A",
"0. c #CD542C",
"q. c #D76237",
"w. c #D7632D",
"e. c #E46A3A",
"r. c #E56C37",
"t. c #C34813",
"y. c #8C5849",
"u. c #936C4A",
"i. c #B46F52",
"p. c #93736D",
"a. c #A87A6D",
"s. c #A75D54",
"d. c #DD6E42",
"f. c #CF714C",
"g. c #E87349",
"h. c #C37865",
"j. c #378855",
"k. c #348E52",
"l. c #36A35E",
"z. c #399D68",
"x. c #3B8D6C",
"c. c #37A867",
"v. c #3AB769",
"b. c #36AD72",
"n. c #43995A",
"m. c #4A8A5B",
"M. c #49936C",
"N. c #47A867",
"B. c #49BA77",
"V. c #4FB170",
"C. c #5FAB6A",
"Z. c #3DC677",
"A. c #3BCB72",
"S. c #48C87B",
"D. c #48D47A",
"F. c #52C877",
"G. c #4AEF7D",
"H. c #B58C6A",
"J. c #A88B6E",
"K. c #CF9073",
"L. c #E09173",
"P. c #273585",
"I. c #2F4C93",
"U. c #3653B7",
"Y. c #1C4587",
"T. c #5A689A",
"R. c #766E8D",
"E. c #4754B7",
"W. c #727CAF",
"Q. c #535B94",
"!. c #3756C9",
"~. c #3663D6",
"^. c #4E6ACB",
"/. c #465CCF",
"(. c #847390",
"). c #8B7EAA",
"_. c #AD66CF",
"`. c #C247DD",
"'. c #708F8F",
"]. c #7181AD",
"[. c #64BE82",
"{. c #3EFF94",
"}. c #3EFE8D",
"|. c #3EC582",
" X c #48CB85",
".X c #4AD985",
"XX c #54D988",
"oX c #52DF90",
"OX c #6ADA8F",
"+X c #49E689",
"@X c #56E88A",
"#X c #45FD8C",
"$X c #4CFE8D",
"%X c #49F889",
"&X c #53FB86",
"*X c #53FD8D",
"=X c #5BFC8C",
"-X c #54F58B",
";X c #57E899",
":X c #44FF93",
">X c #4DFE93",
",X c #4DFE9B",
"<X c #4AF896",
"1X c #55F694",
"2X c #5CF494",
"3X c #52FF94",
"4X c #5AFC94",
"5X c #53FD9A",
"6X c #5BFC9B",
"7X c #5AF59B",
"8X c #4AE592",
"9X c #66EA9A",
"0X c #63F59B",
"qX c #65F897",
"wX c #75F09B",
"eX c #6AD8A4",
"rX c #73CCAB",
"tX c #4AFFA1",
"yX c #53FEA1",
"uX c #5BFBA2",
"iX c #57F4A2",
"pX c #68E8A4",
"aX c #74EAA6",
"sX c #66F6A4",
"dX c #76F0AD",
"fX c #6F8ACC",
"gX c #88868F",
"hX c #B1938D",
"jX c #8E90B1",
"kX c #85AAAE",
"lX c #AFAAAE",
"zX c #AFA997",
"xX c #CB948B",
"cX c #C7A787",
"vX c #CFAD95",
"bX c #EBB392",
"nX c #D3B6A3",
"mX c #83EE9F",
"MX c #8FD4AA",
"NX c #89E7A5",
"BX c #94CFA4",
"VX c #F7D4B5",
"CX c #F2CAB1",
"ZX c #9191C5",
"AX c #B1B8CE",
"SX c #8DACE8",
"DX c #C7B8D7",
"FX c #AECACE",
"GX c #ACD0D6",
"HX c #D1CDD4",
"JX c #FBD8C6",
"KX c #F2DCD6",
"LX c #CFD2E9",
"PX c #DAE9F2",
"IX c #EFEFEA",
"UX c #EADEEA",
/* pixels */
"3X3X3X3X3X3X3X3X3X3X3X3X3X3X3X3X3X>X#X=XmXNXaX1X{.6X4X$X3X1X5X,XuXyXtX:X3X>X$X=X=X=X3X3X3X*X3X>X3X3X3XyX,X%X&X$X3X3X4X4XyX5X*XG.",
"3X3X3X3X3X3X3X3X3X>X3X3X3X3X3X3X>X,X,X6XmXNXaX5X>X5X>X{.>X3X5X6X,X.XS.Z. XD.F.F.F.@X>X,X3X3X3X1X3X=X-X>X>X3X3X1X5X3X3X1X5X5X*X&X",
"3X3X3X3X3X3X3X3X3X3X3X3X3X3X3X>X>X,X3X6XsXsXuXtX{.1X>X>X*X&X$X4X.Xk.P P X.{ { %.;.B.<X5X3X>X>X$X>X>X$X$X*X=X1XyX5X5X3X3X>X3X*X=X",
"3X3X3X3X3X3X3X3X3X3X3X3X3X3X3X5X3X3X1X3X5X5X1X.X.XXX@X1X*X*X%X+XN.U e y s s a $ 6 N.5X6X2X,X:X3X#XpXeXeXqX=X$X:XyX,X,X>X>X3X4X4X",
"3X3X3X3X3X3X3X3X3X3X3X3X3X3X3X3X3X$X3X4X4X-XF.$.B B l.XX3X>XD.j.P L W U L o.L % * N.7X6X1X>X$X$X1XZX_.ZXsX,X>X,XyX,X3X$X>X$X3X6X",
"3X3X3X3X3X3X3X3X3X3X3X3X3X3X3X3X*X$X*X6X6X=XN.N # ; Q V.XXoXV.P f Y &.&.! +.9 $ = j. X7X6X>X#X$X6XZX`.jX9X:X>X4XyX5X3X3X>X>X5X5X",
"3X3X3X3X3X3X3X>X3X3X3X3X3X3X3X3X3X$X3X6XuX>XN.8 y k U Q %.%.%.L L T +.+.L ; o @ @ V %. X6X5X$X3X>XrXkXrX@X&X*X3X>X3X3X*X3X>X>X,X",
">X3X3X3X3X3X3X3X3X3X3X3X3X>X3X3X3X#X+X8X.X.Xn.6 r Y G f p 1 8 Y T +.I J a o X $ ; q H k.D.@XXX@X5X5XyX5X#X&X3X,X*X3X4X6X3X>X>X,X",
"3X3X3X3X3X3X3X3X3X>X3X5X3X3X3X3X4X5Xv.} | { B s h X.I G t s 9 I &.o.9 2 $ - : 7 l s g B %.{ C b.:X,X5XyXyX-X#X1X3X2X$X3X0X6X>X#X",
"3X3X3X3X3X3X3X3X3X3X3X3X3X3X3X3X1X.Xj.X @ - 6 ; a J o.R G a h L R z % . @ r K I S K c a ; . = [ .X+X2X3X,X3X*X-X3X1X5X6X2X3X,X:X",
"3X3X3X3X>X3X3X3X3X3X3X3X3X5X3X1Xv.} V - ; 8 8 f l l x L F x h W G j s ; ; D R R I J x a s ; - 7 [ b.4X6X,X3X-X$X>X1XuX6X1X>X>X,X",
"3X3X3X3X3X3X3X3X3X3X3X4X3X3X>X%Xk.= $ d k h H z l 9 a j D x z v k j K K G I T @.E U H H L P 9 ; * | D.*X3X1X2X;X8X;XuX5X:X:X<X7X",
"3X>X3X3X3X3X3X3X3X>X3X3X3X3X3X1XS.k.M # # : h c o.o.Y Y Y K c k G g F R T T E ! @.R R W v L h ; ; V $.N.%X$X5XrXjXkXpX>X$X>X3X6X",
"3X3X3X3X3X3X3X3X3X3X3X3X3X3X3X3X$X+Xk.* # # r k L #.@.@.Y G L L G j G +.*.&.! T &.! E Y n v c k f 8 N k.+X$X7XrX`._.eX$X*X4X5XsX",
"3X3X3X3X3X3X3X3X3X3X>X3X3X3X3X1XD.n.P y i ,.k h z o.+.@.E ~ Y +.I o.I T *.*.*.*.! +.I K k a s e r B n.F.2X4X5XrXZXkX;X$X*X4X6X0X",
"3X3X3X3X3X3X3X3X3X3X5X3X3X3X3X%Xn.9 m 8.8.7.3.p s z P ! ~ ~ R +.+.&.&.E T *.*.@.T Y c j g s ; 5 f m.D.=X6X3X1XiX<X@X3X$X$X>X4XqX",
"3X3XyXyX5X5X4X4X$X$X5X,X5X3XS.k.U i s.xXK.u.W m m S P U U R R T ! ! &.&.@.E R I A S H D h h a a h P j.Z.=X>X$X5X>X*X*X*X3X>X>X3X",
"3X3X,X5X5X5X3X4X*X*X3X,X5XoXn.D i 9.K.JXzXu.6.8.6.n S D F n L R ! ! T @.T W G G G g H D D g z c j - = C .X,X$X3X*X3X1X5X5X,X>X:X",
"4X3X5X>X3X3X5X6X&X&X$X<X XM.=.W t.0.bXIXlX+.6.8.6.k h t j v v R I I R W L G K g k K z h f z c L g e # V j.b.<X:X3X3XuXuX6X3X>X>X",
"3X3X3X>X$X>X5X5X*X*X*X.Xx.J 6.f.r.L.bXKXlXv u 8.<.s 6 h K L L K S U G D j c K S v L F e e l v v 8 D r > 3 } 8XtX5X,X5X6X4X4X3X2X",
"3X3X>X3X1X-X,X5X>X3X3X@X%.2 1.d.g.g.L.vXhX(.y.4.2.q 2 h J o.j D z g S h f f z z c K G s s l l h N H D ; . O.rXdX5X>X$X*X*X*X3XqX",
"%X-X>X>X3X3X5XyX>X5X6X@X| $ ,.r.g.d.q.0.(.nXxX0.<.p 6 9 H K j D g F S F h 6 6 x x S D G z f 8 9 J K K 6 > >.lXGX7X$X#X=X4X1X>X3X",
"-X>X>X3X3X3X>X>X,X5X6X.X[ . i 0.d.g.w.0.h.xXh.0.5.m b h 8 J n D D G G F k l l l h h D G K f ; 7 x l s 8 z #.:.'.OX,X$X@XNXeX7X:X",
"*X>X>X>X-X>X-X>X>X5X5X+X[ . u 9.q.g.d.g.g.q.q.0.t.4.3.: - v n D G G G h k ` v s s h F K F r r s 6 6 0 l v a 1 %.OX6X3XOXFXFXeX$X",
"qX=X>X>X3X3X>X#X,X1XqXOXz.Z r i 4.q.r.g.g.r.w.w.0.0.2.s 1 s s x K F J x l v v l 0 f f z J F k e ; V %.B 9 $   V XXdX4XaXBXBX9X#X",
"wXwX0X6X6X4X3X$X3X7XdXmXOXv.Z @ u 8.w.g.g.d.r.r.q.0.2.q % . $ 8 J J x 6 s h J J x a p d g G G s 6 %.V.k.7 +   [ .X6X1X2X9XaX2X%X",
"wXwX0X2X6X6X3X>X&X2XaXmXqX%Xb.M f m 2.6.7.7.7.7.7.7.2.d #   X f J X.x a ; 7 7 : 8 5 l s h k k H { B.1XA.Z V M k.+X5X3X3X>X>X3X-X",
"uX7X>X*X3X6X5X,X$X*XqX9X0XtX{.S.%.% & % ; y t p m 3.2.,.q . X ; c c z k s - X > > - 2 h D s 7 %.S.9XqX-XA.A.Z..X<X,X7X4X>X:X,X<X",
"tX,X:X>X3X3X5X,X$X*X=X4XuXuXyX5Xn.M * o - L o.#.Y d Y s.6.; # > r D j n j o   # y y t r z B Z B.4X4X=X3X>X>X,X,X>X,X7X2X$X#X5XtX",
",X,X3X1X3X3X>X>X>X3X4X3X>X5X,X<X+XZ.| 6 #.zXnXxXp.s o.cXcX6.w # @ r G G l O . q ,.<.6.u 8 %.S.8X3X*X*X&X=X*X5X,X3X3X2X1X>X$X3X5X",
",X>X1X4X=X3X>X$X3X5XuX>X$X*X3X7X$X&Xn.g p.CXJXJXp.5 X.HXJXh.m + . r G f 6 $ q u 2.4.1.d 6 M.iX6X>X>X*X*X*X6X4X2XqXqX4X1XsXiX>X>X",
":X,X5X4X1X*X*X$X3X5XtXyX,X>X3X=X&X#Xl.L p.CXJXJXp.1 ] HXKXcXy.$ O 8 g $ $ e u ,.,.,.u q 6 m.>X3X&X*X>X,X>X>X1XqXmXwXsXiXdXaX1X{.",
"$X3X3X3X*X*X3X3X3X5X5X>X3X3X3X*X=X3XV.&.H.CXJXVXzXQ &.HXKXnXp.o.1 s - X O d m 1.m u q 6 { N.2X3X1X3X>X,X5X5X5X7XNXwXuXsXaXaX7X{.",
">X3X4X4X4X3X*X3X5X3X,X,X3X3X*X=X4XqXF.J.xXVXVXVXnXJ.K.VXVXK.K.i.@.s O   . ; W n v q e $.V.8X5X,X3X3X3X,X5X3X4X3XqX0X5X5XsX7X5X{.",
"3X>X3X3X1X3X3X3X3X3X3X>X>X3X3X3X>X4XmXH.vXnXbXbXVXVXVXVXbXH.H.H.u.6   O @ @ h X.+.P Q N.$X>X3X>X,X5X,X3X3X3X3X3X3X3X3X3X5X>X>X>X",
"3X3X3X3X3X3X3X3X3X3X3X,X3X3X3X3X3X4XqXF.C.J.a.cXbXVXVXbXK.H.u.+.v ; $ > : @ 7 j.F.V.F.+X>X3X1X>X>X3X5X3X3X3X3X3X>X3X3X3X3X3X3X3X",
"3X>X3X3X3X3X3X3X3X3X3X3X3X3X3X3X6X*X*X$XZ.{ &.a.K.cXcXH.u.y.G 6 $ $ ; : N 5 M v.yXyX,X3X6X7X3X#X*X>X3X3X3X3X>X>X3X3X3X3X3X3X3X3X",
"3X3X3X3X3X3X3X3X3X3X3X3X3X3X5X3X>X*X>X>X8XB.m.@.E @.@.+.c : > 1 1 O o 1 V %.b.+X>X,X5XsXaX2X>X*X*X*X3X3X3X3X5X3X3X5X3X>X3X3X>X>X",
"3X3X3X3X3X3X3X3X3X3X3X3X3X3X3X3X#X3X5X3X6X7XB.B V H 8 1 $ 3 1 ( / < , 1 ] B.5XyX1X3X7XwXwX7X3X4X3X3X3X3X3X3X3X3X3X>X3X3X$X3X3X3X",
"3X3X3X3X3X3X3X3X3X3X3X>X3X>X3X5X>X1X5X,X3X4X8XB.N.N.Z 1 1 X.-.I.Y._ < O 4 v.yXuX3X>X#X5XsX5X>X#X6X6X3X3X3X3X*X3X>X5X3X3X>X3X3X3X",
"3X3X3X3X3X3X3X3X3X3X3X3X3X3X3X3X5X3X*X3X>X>X5X=X2XG.l.V ` R.W.^.!.I._ , 3 N.@X8X8X{.$X=XqX$X}.:X5X5X3X3X3X3X3X3X3X3X3X3X3X3X3X3X",
"3X3X3X3X3X3X3X3X3X3X>X3X3X3X3X3X>X*X*X4X5X5X6X0XXXz.;.'.gXW.^././.!.I._ < ] ....x. X>X5X1X&X$X>X3X5X3X3X3X3X3X3X3X3X3X>X3X3X3X3X",
"3X3X3X3X3X3X3X>X3X3X3X3X3X3X3X3X$X$X*X3X5X5XsXsXM. .R.HXGXfX!.E.E.U.U.) 0 ( ] '  .M.oXtX5X=X=X1X5X5X5X3X3X3X3X3X3X3X3X3X3X3X3X3X",
"3X3X3X3X3X3X3X3X3X3X3X3X3X3X3X3X$X3X1X4X5X5XuXuX[.) (.UXPXSX^.Q.) P.P.) ) R.(.jXjX'.x.|.1X*X*X6X5X3X3X3X3X3X>X3X3X3X3X3X3X3X3X3X",
"3X3X3X3X3X3X3X3X3X3X3X3X3X3X3X3X3X3X3X5X5X5XyX5Xb.^ T.HXPXLX].-.0 ' / / -.).DXUXLX'.] z.<X:X3XqX5X5X3X3X3X>X5X3X>X3X3X3X3X>X3X3X",
"3X3X3X3X3X3X3X3X3X3X3X3X3X3X3X3X4X1X5X5X3X>XtX<Xz.M ( ].AXLXFX-./ #.>.( -.jXLXIXIXR.( z.<X,X1X3X3X5X3X3X3X3X3X3X3X3X3X3X3X3X3X3X",
"3X3X3X3X3X3X3X3X>X3X3X3X3X3X3X3X5X5X<X5X3X>X5X>Xl.= , ) W.GXAX>.` p.a.#.-.jXAXPXLX(.] c.<X>X1X&X5X3X3X3X3X3X3X3X3X3X3X3X3X3X3X3X",
"3X3X3X3X>X3X3X3X3X3X3X3X3X3X3X5X<X5X,X3X*X-X5X>Xl.= , _ Q.jXzXgXp.h.7.n ' T.fXSXZX-.0 z.%X>X-X#X3X5X5X3X3X3X3X3X3X3X3X3X3X3X3X3X",
"3X3X3X3X3X3X3X3X3X3X3X3X3X3X3X3X5X5X3X3X*X&X3X5Xc.= , _  .O.:.vXbXf.8.i X.I.~.^.E./ * k.-X3X4X3X3X3X3X3X3X3X3X3X3X3X3X3X3X3X3X3X",
"3X3X3X>X3X3X3X3X3X3X3X3X3X3X3X3X>X>X3X3X*X3X5XuXz.3 < >.-.5 o.vXVXbXi.k 0 Y.~.^.Q./ X j.2X3X>X#X3X>X3X3X3X3X3X3X3X3X3X3X3X3X3X3X",
"3X3X3X3X3X3X3X3X3X>X3X3X>X3X3X3X>X#X$XqX4X3X5XiXb.3 0 (.:.- x xXVXCXxXD < Y.U.].R.9 = j.9X*X#X$X5X3X3X3X3X3X3X3X3X3X3X3X3X3X3X>X",
"3X3X3X3X5X>X3X3X3X3X3X3X3X3X3X3X$X$X>X6X4X>X,XyX X} %.;.>.O.O.:.p.a.p.O.] _ ) -.O.%.} S.2X$X#X5X5X>X5X3X3X3X3X3X3X3X3X3X3X3X3X3X",
"3X3X3X3X3X3X3X3X3X3X3X>X3X3X3X3X>X,X5X6X*X#X:X>X%X+Xb. .-.p.:.0 o < 9 :.:.9 , . > x.oX$X3X*X3X5X3X5X3X3X3X3X3X3X3X3X3X3X3X3X3X3X",
"3X3X>X3X3X3X3X3X3X3X3X3X3X3X3X3X6XuX6X6X$X$X#X$X5X,X.Xb.;.;.' < , , 4 -.;.Z C M [ Z.5X3X*X1X6XyX,X5X5X3X3X3X3X3X3X3X3X3X3X3X3X3X",
"3X3X3X3X3X3X3X3X3X3X3X3X3X3X3X3X6X0X0X3X>X*X*X*XiX,X{.+Xl.M $ 0 ^ ) ^ < 7 k.G.A.oX+X3X3X4X5X5X5X5X5X3X3X3X3X3X>X3X3X3X3X3X3X3X3X",
"3X3X3X3X3X3X3X3X3X3X3X3X3X3X3X3XsXwX0X3X3X=XqX=X3X,X+Xv.| f p b o.X.0 , 3 c.,XtX5X3X=X=X5X6X3X&X5X5X3X3X3X>X>X3X3X3X3X>X3X3X3X3X",
"3X3X3X3X3X3X3X3X3X3X3X3X3X3X3X3X5X5X1X1X4X4X4X3X3X>XA.M e i 8.5.<.6.d + = c.yX5X5X3X*X*X$X#X$X-X3X3X>X3X3X3X3X3X3X3X3X3X3X3X3X3X",
"3X3X3X>X3X3X3X3X3X3X3X3X3X3X3X3X5X5X5X1X3X*X1X3X6X6XZ.[ N m ,.,.i u e 7 [ S.6XuX5X1X*X>X:X>X>X3X3X3X3X3X3X3X3X>X3X3X3X3X3X3X3X3X",
"3X3X3X3X3X3X3X3X3X3X3X>X>X3X3X3X5X3X5X1X3X3X3X$XuXpXpX Xk.: @ + + + 7 m.D.@X=X*XyX<X>X>X>X,X,X3X=X3X3X>X3X3X3X3X3X>X3X3X>X3X3X3X",
"3X3X3X3X3X3X3X3X3X3X3X5X3X3X3X3X5X3X3X>X3X>X$X>X5XsXsXuXA.[ = M M 4 | S.4X*X&X$XyXyX1X>X>X:X>X3X4X4X3X3X3X3X3X>X3X3X3X3X3X3X3X3X",
"3X5X3X3X3X3X3X3X3X3X3X3X3X3X3X3X,X>X>X>X>X>X3X3X4X7XqX*X%X.X|.Z.S.S.D.%X>X#X:X5X5X5X5X3X,X>X3X*X=X1X3X3X3X3X3X3X3X3X3X3X3X3X3X3X",
"3X3X>X3X3X3X>X3X3X3X3X3X3X3X3X3X,X>X$X$X>X,X3X3X4X=X=X=X4X5X,XtX,X5X1X-X$X:X,X5X5X3X3X3X3X>X$X*X4X4X3X3X3X3X3X>X3X3X3X3X3X3X3X3X"
};
