/* XPM */
static char *nate_b11650476113[] = {
/* columns rows colors chars-per-pixel */
"64 64 256 2 ",
"   c #080508",
".  c #180807",
"X  c #17180A",
"o  c #160914",
"O  c #1A1815",
"+  c #040E13",
"@  c #260706",
"#  c #291609",
"$  c #281918",
"%  c #371C18",
"&  c #32130D",
"*  c #132B16",
"=  c #38281A",
"-  c #2B3019",
";  c #16142D",
":  c #251626",
">  c #391A24",
",  c #2E1933",
"<  c #172D2C",
"1  c #2C2A24",
"2  c #382A25",
"3  c #2A3A2A",
"4  c #383727",
"5  c #242637",
"6  c #372A37",
"7  c #373635",
"8  c #293635",
"9  c #4D1712",
"0  c #452C1A",
"q  c #4E2E1A",
"w  c #732919",
"e  c #4F1C29",
"r  c #462826",
"t  c #453C2C",
"y  c #4C3D2C",
"u  c #473526",
"i  c #523E2C",
"p  c #553829",
"a  c #4D3C33",
"s  c #473933",
"d  c #523D33",
"f  c #583D36",
"g  c #55292F",
"h  c #782724",
"j  c #68352C",
"k  c #651C10",
"l  c #175936",
"z  c #14582D",
"x  c #324C30",
"c  c #196D32",
"v  c #29703A",
"b  c #3D481E",
"n  c #43431E",
"m  c #4B422C",
"M  c #494426",
"N  c #52422D",
"B  c #56462A",
"V  c #4D4233",
"C  c #4B4537",
"Z  c #534233",
"A  c #594837",
"S  c #595337",
"D  c #485739",
"F  c #654B39",
"G  c #68583A",
"H  c #704D35",
"J  c #496B36",
"K  c #676239",
"L  c #73643B",
"P  c #66632C",
"I  c #73431D",
"U  c #0D194A",
"Y  c #2B1E48",
"T  c #13264D",
"R  c #282846",
"E  c #34314C",
"W  c #1B3375",
"Q  c #2B326E",
"!  c #493752",
"~  c #643B44",
"^  c #195047",
"/  c #2D5449",
"(  c #287647",
")  c #30724C",
"_  c #2A4774",
"`  c #377A6B",
"'  c #1E635E",
"]  c #524C48",
"[  c #695A45",
"{  c #765846",
"}  c #6E4B47",
"|  c #4C6C4B",
" . c #6B6243",
".. c #746446",
"X. c #6E6B59",
"o. c #4F4C6B",
"O. c #6B5B6A",
"+. c #6F6F71",
"@. c #5C666A",
"#. c #903216",
"$. c #A63B1A",
"%. c #983927",
"&. c #883128",
"*. c #A83825",
"=. c #97491E",
"-. c #AB461B",
";. c #994426",
":. c #914B35",
">. c #B04527",
",. c #8A6A37",
"<. c #885A47",
"1. c #916E53",
"2. c #AC704E",
"3. c #8F6E6F",
"4. c #9B6969",
"5. c #C0643F",
"6. c #2A853F",
"7. c #01FE02",
"8. c #08FA06",
"9. c #06FD17",
"0. c #16FB18",
"q. c #0CFE28",
"w. c #14FD24",
"e. c #1AFC26",
"r. c #14FD2B",
"t. c #1BFD2B",
"y. c #1EF629",
"u. c #19FB34",
"i. c #06FF30",
"p. c #23FB2A",
"a. c #23FA35",
"s. c #368754",
"d. c #309050",
"f. c #31A65A",
"g. c #3A9463",
"h. c #39AA69",
"j. c #38BB6A",
"k. c #36AD71",
"l. c #1D834C",
"z. c #488857",
"x. c #499257",
"c. c #49A35C",
"v. c #50936A",
"b. c #48A972",
"n. c #48BA76",
"m. c #4CAE6B",
"M. c #6A9378",
"N. c #3AC878",
"B. c #3BCD70",
"V. c #3CFE6D",
"C. c #3CFD74",
"Z. c #3DFE7A",
"A. c #34FE75",
"S. c #2CFC52",
"D. c #47C677",
"F. c #47D57A",
"G. c #50CC76",
"H. c #41FE75",
"J. c #42FD7A",
"K. c #47FA7A",
"L. c #47F770",
"P. c #62CF7E",
"I. c #BA8C6E",
"U. c #968164",
"Y. c #D5916C",
"T. c #303A8A",
"R. c #1E3891",
"E. c #2D4994",
"W. c #2E51B0",
"Q. c #194880",
"!. c #4D558A",
"~. c #566990",
"^. c #72748D",
"/. c #4C58A4",
"(. c #5673AC",
"). c #6E7BB0",
"_. c #3454C8",
"`. c #696EC3",
"'. c #535EC6",
"]. c #9773A8",
"[. c #CF5FCD",
"{. c #B44EAF",
"}. c #2FBF81",
"|. c #718D92",
" X c #7689AA",
".X c #6AB495",
"XX c #3DFD87",
"oX c #3BF090",
"OX c #39E594",
"+X c #4ADA86",
"@X c #4FD08A",
"#X c #49E888",
"$X c #55E98A",
"%X c #45FD8C",
"&X c #4CFD8D",
"*X c #47F886",
"=X c #53FD8D",
"-X c #5BFC8D",
";X c #56F888",
":X c #4CE799",
">X c #57EA96",
",X c #44FE92",
"<X c #4DFE93",
"1X c #45FF9C",
"2X c #4DFE9B",
"3X c #4DF596",
"4X c #54F494",
"5X c #5CF593",
"6X c #53FD94",
"7X c #5AFB94",
"8X c #54F69B",
"9X c #5CF59A",
"0X c #53FD9B",
"qX c #5BFC9B",
"wX c #62F78B",
"eX c #76E99A",
"rX c #64F49B",
"tX c #63FD9D",
"yX c #66F797",
"uX c #69ED95",
"iX c #6BD2A4",
"pX c #4DFDA2",
"aX c #49FCA5",
"sX c #54FDA3",
"dX c #5BFDA2",
"fX c #58F7A6",
"gX c #54F4AB",
"hX c #6AECA2",
"jX c #79EAA6",
"kX c #67F7A4",
"lX c #74EFA9",
"zX c #56DAA1",
"xX c #898C93",
"cX c #9398A8",
"vX c #8F92B0",
"bX c #8EB3B2",
"nX c #A4A8AB",
"mX c #D5B597",
"MX c #EEB69F",
"NX c #8DD1AC",
"BX c #AFCCB3",
"VX c #84E3A6",
"CX c #92E9AE",
"ZX c #96DA9D",
"AX c #F6CEB4",
"SX c #D0CAB3",
"DX c #9190CC",
"FX c #B1B3CF",
"GX c #94AEC8",
"HX c #C6BED5",
"JX c #B1C5CA",
"KX c #9FCDC0",
"LX c #CCCBCE",
"PX c #DBECEA",
"IX c #EFF2F0",
"UX c #DDE2E9",
/* pixels */
"7.9.e.u.t.r.t.t.p.t.w.w.t.u.a.u.t.q.q.w.u.i.i.y.a.y.r.w.r.t.t.y.y.p.e.w.w.w.w.w.p.0.0.e.p.p.e.e.e.e.w.e.w.w.e.w.e.w.w.e.w.w.e.w.",
"8.w.S.C.C.Z.J.K.A.V.V.C.C.Z.J.K.*X*XZ.XXJ.Z.Z.*XZ.Z.Z.C.J.*XK.A.K.Z.Z.H.J.K.K.K.H.H.H.H.K.H.H.H.H.H.H.H.J.J.H.H.H.J.H.J.H.J.H.H.",
"8.t.V.=X0XqXqXqX1X9XrXyX0X2XqXqX8X&X&X6X6X;X&X2X6X6X<X<X6X0X8X0XpX0XsXsXdXdXkXfXqXqX7X7X7XqX0X0X8X0X0XqX0XqX8X0X0X0X0X0X0X0X0X0X",
"7.r.V.8XdX0X6X=XsXhXVXeX5X,X<X6XdX&X=XtXtX=X%X0X8X2X0X2X2XsXsXsX<X4X5X7X2X<X3X3X6X=X7X7X=X<X=X6X6X6X6X6X6X6X6X6X6X6X6X6X6X6X6X6X",
"7.u.C.sXfX2X&X%XsXlXjXeX5X%X,X0X9X&X*X5XyX6X,X2X1X8XdXqXqX0X0X2X6X$XwX-X<X1X1X%X2X0X6X6X<X<X2X2X6X<X<X6X<X<X<X6X6X6X6X6X6X6X6X6X",
"7.a.K.qXsX8X<X<X0XqXkXyX-X=X=X0XwXfX6X-X7X6X&X&X=X6X7X=X%X&X=X=XqX6X=X7X0X1X1X2XsX0XqX0X0X2X2X8X0X6X0X6X0X6X6X6X6X8X6X0X0X7X7X0X",
"8.p.L.=X8X6X6X6X=X6X<X6X;X;X7X0XaXiXbXiX3X@Xb.h.m.m.b.h.B.;X7X7X2X%X%X&X$Xb.D.4X2X6X5X7X<X2X6X7X6X6X6X6X6X6X6X6X6X7X6X7X6X6X6X6X",
"9.u.V.<X0X3X6X0XyX0X1X<X=X7X0XaXaX[.[.vX:Xg.7 4 * x u 2 D m.tX1X2X$X&X0Xn.S | $XsX6X6X=X6X<X6X6X6X6X6X6X6X6X6X6X<X<X<X<X6X<X<X<X",
"9.t.A.7XjXlXdXsXsXsX0X6X=X6X6X9X$XbX].iXzXv @ r 4 u r q C z.b.b.@X#XZ.m.| B S M.D.wX;X=X=X%X2X0X6X6X6X%X6X0X0X6X6X6X6X6X6X6X6X6X",
"8.w.C.eXNXVXqXaX-X=X&X<X6X2XaXaX7XhXiXfX>X/ O r { H <.<.H N 4 u | @XG.x r } F x g.F.*X6XqX0X0X3X6X6X6X6X<X6X6X6X6X6X6X6X6X6X6X6X",
"8.w.Z.uXVXjXwX0X=X<X<X<X8XqX1XoX=X&XK.-X$Xk.( x Z F L L G B q e x g.z.m p } ~ $ v F.&X2X,X*XqX7X6X6X6X7X6X6X6X6X6X6X6X6X6X6X6X6X",
"8.w.H.7X0X4X;X6X5X5X6X0XqX6X&X*X6X%X-X;X,X1XN.l @ % M D P L H f a 3 7 { } ~ g 2 | $XkXkX2X%X4X-X6X&X6X7X7X7X6X6X6X6X6X6X6X6X6X0X",
"7.r.K.qX,X,X;X&X6X=X&X<X0X0XqX7XrX%X-X0XXXB.z.6 $ & % 4 S G [ G j O $ j A 7 7 0 S z.v.v.F.%X6X&X7X6X&X6X6X6X6X6X6X<X6X6X6X6X6X6X",
"8.u.K.6X6X6X-X6XgX8X<X&X&X4X9X9X0X&X$X8XOXd.4 2 : $ o $ u A ....N O O 4 b b 3 b m - = 7 x.+XqX2X9X0X<X<X6X6X6X<X6X6X6X6X6X6X6X6X",
"8.a.XX6X<XpXhXiXvXbX>X%X=X6X7X8X8XD.x.v.v.x = r 2 1 2 = 0 S G G N r > b n 0 u S m q 0 r D z.v.g.D.4X0X2X<X6X=X6X6X<X6X<X<X6X6X6X",
"7.t.Z.&X3XaXzXbX[.].iX<X&XyX4X2X>Xs.2 2 2 u M p B [ [ A N M m i m Z f C u y F G G B p t 4 u 2 E f.+X0X2X6X6X4X=X6X<X<X<X<X<X6X<X",
"8.p.L.=X2X2X=XiXvXbXhX8XgX1XwXB.l.3 % 0 0 p d S J [  .X.] f u y i i B M B S G ..[ [ S V t r % & z ( N.-X7X%X2X=X6X<X<X<X2X6X<X6X",
"7.e.L.6X8X9X-X>X4X9XaXaXaXaXB.d.X $ > p u u s ] K [  ...{ A i f N B M B B G L  ...[ A a a d 0 = . * s.+X3XpX0X-X6X6X2X<X6X6X6X6X",
"9.i.L.6X0XuXwXdX*X%X9X2XgXn.c 3 % r 2 i N 4 : s B K L L  .G H F G G S B G .... .F V 0 = 2 f i u 2 & 4 ( k.3X6X2X6X6X<X6XqX6X6X<X",
"8.r.Z.3X2X9XyXqX4X8XqX=X*Xs.- 1 S a 6 y C $ . $ 2 A G G G L L ..K [ ..{ K G  .[ B = # . $ u y u ] D 2 < h.2X<X8X&X6X6X6X7X6X6X6X",
"8.r.K.9X,X2X0X8X0X2X<XL.%X|.{.^.m.v O 1 4 1 2 - u N F F P G P L L .... .G A S F B u = = 2 6 = 1 | b.M.O.@X3X<XfX6X6X6X6X7X6X6X6X",
"8.e.K.4X6XpX1X<X*X<X7XK.0X X[.GXG./ X X 1 t d M p N i i Z G P P G G G G G A B i A m C a s 2 O X ) @XNXBXVX3XsXdX4X6X&X<X<X6X6X6X",
"7.e.XX<X7X8X1X&X0X0XdX7X<XlXbXM.v 3 6 4 2 t Z M M B Z t d A A A F S F A A Z N y y V V a y u = 1 3 ) .XlXkX6XrXeX7X6X<X&X<X6X6X8X",
"8.y.A.XX=XkX<X=XkX*X&X2X=X9X+X6.O : f N N d a d M B M Z Z d s ] M B N N N d y d d V Z u u Z m y $ : ` +X*X5XrXlX7X4X<X&X<X6X6XqX",
"7.r.C.3X6X6X0X=X;X-X6X0X3XD.| - O = A j g f Z m B M m Z f y t C N i Z Z Z Z V a m Z Z f a Z f s = $ x ( D.wX5XqX0X<X<X6X6X6X6X6X",
"7.y.C.2X6X6X<X&X%X&X-XtXwXc.- % 1 u f F f p d Z B t m f f i t s d m y a i a Z a m Z A A d a t x 4 % & b c.wX<X6X6X<X<X6X6X<X6X6X",
"8.e.H.8X6X6X<X%X2X<X;X&X<Xd.# # 4 n B j ~ p i d N y t p F i C d V V Z N V Z C d N i d d Z N V C M u # X g.2X1XqX4X&X6X6X6X6X6X<X",
"8.e.H.qX6X6X&X*X8X0X6X#XB.( X $ n p p ] f i u a f Z Z p p Z Z C V d y Z Z d V V f d m 4 y N Z A N p # X ' OXoX%X=X&X=X6X6X6X6X<X",
"7.r.H.7X6X6X<X%X0X0XsXh.x 3 - u N B a s C 4 u u f Z C d p N V Z Z y i N N N y m f C s 4 0 g f A V N u - < / j.<X6X6X6X6X6X<X<X2X",
"7.e.H.0X6X=X<X<XqXqX3Xh.z x | B u u u S ] 4 = 0 u y C d Z M m m Z i d Z Z N Z Z a 4 4 = p H f 4 4 4 D | 1 z c.kX7X6X6X6X<X6X<X6X",
"7.e.C.6X=X6X0X6X9XqX6X#Xh.n.D.6.- $ $ G 1.F 2 % 0 u a f d y m m d d y d Z d d Z a 2 = & H 4.} # & 2 z.n.D.j.#X2X0X0X0X6X0X6X0X6X",
"7.w.V.6X6X6X0X7XaX<XK.-X0X0X9Xj.x : . <.I.<.g 0 p y ] a a u 4 y s g g a d s a a p 0 = = <.mXG . O ) n.wX,XXX<X5X0X<X<X<X0X6X6X0X",
"7.e.H.sX6X6X2X6X<X<X6X7X6X<X0X$Xm.l * ..Y.2.A j %.&.h r 2 2 1 2 1 1 2 1 1 % q j %.=.w M 1.I.F X l D.#X6X&X7X7XtX<X2X2X2X6X6X6X6X",
"7.e.H.0X6X6X6X6X6X6X=X6X<X<X2X5X6Xg.l  .2.} f &.:.%.&.h g w w w q p q q k q w %.%.*.=.B { 4.[ x f.9XqXdX4X6X=X-X=X6X0X0X6X6X<X0X",
"7.e.H.0X6X6X0X6X0X0X6X4X6X<X6X0X=XF.m.z.S p r g g &.$.$.*.*.*.*.*.>.;.=.=.;.$.*.&.e 9 e p [ v.n.oXqXdXkX4X6X6X-X6X6XqX7X6X6X6X6X",
"7.e.H.0X6X6X0X6X<X0X6X7X7X<X<X6X-XsX&Xz.7 x x r , k #.#.%.>.>.*.>.>.-.-.=.$.&.h e : < [ d x x.6X7XkXyXlXrX6X<X=X-X=X6X6X6X6X0X6X",
"7.e.C.0X6X6X0X6X3X2X6X6X7X6X%X6X%XaX$XJ 2 v.m./ o # 9 g g &.&.#.#.#.#.#.w w g g # o l }.x.- ) ;XqX0X0XtXyX6X<X3X=X=X&X6X6X2X6X6X",
"7.e.H.0X6X6X6X6X7X<X<X=X5X6X&X6XsXqX7Xm.J .XiXg.z X X $ > k h h &.w #.h k % : : * x f.XXG.z.c.;X2X1X,X6X6X6X8XsX6X6X&X<X<X0X<X<X",
"7.e.H.0X6X6X0X6XqX&X<X6X=X6X6X7X9X=X%X#XP.BXFXiXb.z     @ 2 r 2 e e g e % O   + ^ n.;X=X$XP.#X7X1X1X2X4X8X2X1X9X6X<X6X6X0X0X0X6X",
"7.e.H.0X6X6X0X6X7X*X<X<X6X0X6X8X&X2XK.*XtX|.^.|.h.^ U U T T E R , , 5 8 E E 5 5 / k.j.h.B.<X=X5X6X9XhXhXfXpX2X7X6X<X6X6X0X0X7X7X",
"7.e.H.0X6X6X0X6X6X&X0X4X=X<X<X6X8X6XK.6X>X) 1 6 _ Q R.E.W.W Q E Y 5 R Q ~.xX|._ Q _ 8 < l.:XsX5X6X<XVXBXjXqX6X&X6X<X<X2XdXkXqX6X",
"7.e.H.0X6X6X0X6X6X<X6X=X7X<X,X2X#XF.m.g.g.v s 2 Y T W W._.E.E.E.T.E.W W ~.FXDX_ T R E b J x.k.c.F.1XeXZXhX0X6XqX6X<X<X0XtXtXqX6X",
"7.e.C.0X6X6X0X6X<X<X3X7XqX&X<X3X*Xc.] 7 M 1.4.} 5 + U T._._.W.W._.W.E._ ~.FX X< + 6 O.U.,.Z E E c.>XkXeXrX,X6X4X6X&X<X2XqXqXqX6X",
"7.e.H.0X6X6X0X6X<X6X<X6X7X&X7XF.c.+.3.} H 5.2.F ; ; ; T Q._._.W.W.W.W. XvXnX+.;   : F U.2.H { 1.X.m.+X4X0X<X<X5X<X<X<X6X7X6X6X<X",
"7.e.H.0X6X6X6X6X&X6X<X<X=X6X5Xd.B 4.MXmXY.5.;.9 o , Y O U W._.E.W Q./.DXFXnXO.;     4 ..1.I.mXmX3.A f.0X0X<X,X7X&X<X<X6X6X6X&X<X",
"7.e.H.0X6X6X0X6X6X7X<X<X4X7X5Xc % 4.AXMXY.,.0 @   / ] 2 : Q T.W Q.W /.FXFX3.! Y < v x 4 { Y.AXSX3.% v 2XqX4XXX=X<X<X<X6X6X6X6X6X",
"7.e.H.0X6X6X2X6X<X7X<X<X7X6X*Xd.X X.SXMXI.B X o : @.M.o.Y Y Q T.T.E.(.GXcXo.Y R ` +Xd.* ] I.MXMXX.- d.<XkXhX0X0X,X<X<X6X6X6X6X6X",
"7.e.H.0X6X6X0X6X,X7X6X6X5X<X%Xj.s.X.X.} F = ; Q +.xXnX].).^.~.). X).vXnX XE.Q E ` :XB.z.| A H +.| s.B.2XlXjXkX,X,X%X=X=X6X=X7X=X",
"7.e.C.0X6X6X0X6X7X6X<X6XwX5X6X9X:Xs.1 O ; < / ).HXFXFXFXJXJXBXBXJXIXLXnX|.'./.T ) :X0X#Xg.*   - s.#X8X9XCXBXeX,X<X2X0XsX8X0X6X<X",
"7.e.H.0X6X6X0X6X6X6X6X=X7X6XqXlXNXM.v l.l.< E cXLXUXUXUXIXPXPXPXIXIXLX^.~.(.!.5 c zXgXXXB.d.v l.N.$XqX2XrXjXuX6X0X0X0X8X0X3X6X6X",
"7.e.H.0X6X6X0X6X&X6X6X<X<X<X9XjXFXNX$X*XOX` ! ^.FXUXIXIXIXIXPXPXIXIXBXo.o.|.@.5 l @XgX4X*XrX<XoX,X0X9X1X<X6X&X5XqX0X0X0X<X<X<X6X",
"7.e.H.0X6X6X<X6X<X7X7X6X<X,X>XeXKXlXwX-X:X` Q ~.DXFXLXHXSXJXSXLXLXbX^.R 8 3.xX@.o.v.N.3X5X-X&X2X2X1X9X8X<X;X%X<X7XqX6X<X<X<X<X6X",
"7.e.H.0X6X6X0X6X6X6X0X6X7X<X2X9X4X,X<XqX>X) Y T.`.]. XvXvXcXcXcXDX'.E.; > +.cXxX~.E ( *X6XqXyXwX7X1XdXdX7X-X<X<X7X4X<X<X<X<X6X6X",
"7.e.H.0X6X6X0X6X6X<X<X6X5X6X,X2XK.6X0X8X>Xv ; o.`.). X(.`.(.(.(.`.).!., 6 xXvX].E., ) $X3X<XkXeXrX8XqX0X&X=X6X5X-X6X4X&X<X<X6X6X",
"7.e.C.0X6X6X0X6X6X<X,X6XyX=X,X,X;X7X8XqX+Xv - @. X(.W.W.W.W.W.W./.^.X.; E ^.).'.W o z >XpXXXwXCXlX0X6X6X<X6X0X5X6X6X6X6X6X6X6X6X",
"7.e.H.0X6X6X0X6X6X0X<X6X-X=X<X6X1X3XqX6X*XD.s./ 7 T U T T T U U T 7 2 1 Y ! o.T.U ; l #XwX-XuXhXeX,X%X6XqXfX1X%X6X4X4X&X6X6X7X6X",
"7.e.J.sX7X6X6X=X6X7X0X<X<X6XqXfXpXkX3X<X-X;X#Xc . . X X .   + * : * * 5 R E E ! ,   ( #X3XqX<X6X0X0X0X0X0X6X6X6X&X6X7X6X6X&X6X7X",
"7.w.C.0X6X6X0X0X<X<X6X6X<X<XqXuXVXVXgXgX2X1XOXl . 9 &.w k @ ; | k.c.( * $ &.:.&.e   z #X6X=X6X<X6X6X6X&X<X&X&X&X%X<X<X<X<X<X<X=X",
"7.w.V.0X=X6X2XpX6X6X7X5X6X<XqXeXZXeX8X<X&X%XoX( * j $.$.#.4 ^ .XkXyXj.z 2 &.*.;.j - 6.$X6X2X0XqX7X6X6X6X7X5X6X7X0X2X2X0XqXtX0X6X",
"7.r.H.0X6X-X=X&X=X<X6X5X=X&X6XeXeX5X2X<X5X<X<XD.g.x & 9 4 ) N.#XtXtXoXj.| 9 & 9 b f.B.3X0X6X5X7X=X6X=X=X6X7X7X7X7X7X8XqXeXyXyX6X",
"8.e.H.sXsXqX6X=X-X<X,X6X=X%X,XqXsX8XpX2XqX9X0XdX$X) * * z D.0X;X3X=X2XsX}.l X * v #XpX0X6XqX-X6X<X,X<X<X6X0X6X<X7X6X<X9XyXtXqX<X",
"8.e.C.pXpX0X2X6XrX1X1X2X7X0X2XpX<XqX6X%X6X9X6X0X-XD.k.k.N.3XsXfXpX0X6X<X>XD.k.j.+XsXsXfX8XqXdX2X0X0XpXsXsXsXsXsXsXsX2XdXdXkXqX0X",
"8.w.S.A.A.C.V.L.L.Z.C.L.K.H.H.J.C.J.V.C.Z.Z.Z.A.A.H.J.Z.Z.C.A.*XZ.H.C.V.H.J.XXA.C.C.C.J.C.Z.Z.A.H.Z.C.Z.H.H.J.Z.Z.Z.Z.H.Z.C.Z.Z.",
"8.8.u.u.u.t.a.p.r.r.e.w.w.e.e.t.r.q.w.p.w.q.u.w.u.q.q.q.e.p.q.0.e.q.r.r.r.i.u.r.9.p.e.9.w.e.q.e.w.w.q.w.w.w.w.w.q.w.w.w.q.q.w.w."
};
