/* XPM */
static char *result[] = {
/* columns rows colors chars-per-pixel */
"64 64 230 2 ",
"   c black",
".  c gray16",
"X  c #633108",
"o  c #42424A",
"O  c #C52119",
"+  c #9C5200",
"@  c #E65A42",
"#  c #DE9400",
"$  c #F7BD21",
"%  c #F7E652",
"&  c #737384",
"*  c #4FDD90",
"=  c #50DF91",
"-  c #4FE390",
";  c #4FE590",
":  c #4EE790",
">  c #4FE791",
",  c #4FE891",
"<  c #4FEA91",
"1  c #4FED91",
"2  c #4FEE91",
"3  c #51E091",
"4  c #50E290",
"5  c #51E391",
"6  c #50E591",
"7  c #50E691",
"8  c #51E691",
"9  c #50E791",
"0  c #51E592",
"q  c #54E791",
"w  c #50E891",
"e  c #51E891",
"r  c #50E991",
"t  c #51E991",
"y  c #50EA91",
"u  c #50EB91",
"i  c #51E992",
"p  c #52E892",
"a  c #52E992",
"s  c #51EA92",
"d  c #50EB92",
"f  c #51EB92",
"g  c #52EB92",
"h  c #50EC92",
"j  c #51EC92",
"k  c #50ED92",
"l  c #51ED92",
"z  c #52EC92",
"x  c #52ED92",
"c  c #52ED93",
"v  c #51EE92",
"b  c #50EF92",
"n  c #51EF92",
"m  c #52EE93",
"M  c #53EE93",
"N  c #52EF93",
"B  c #5BEF95",
"V  c #5BEF96",
"C  c #5FED98",
"Z  c #4FF091",
"A  c #50F092",
"S  c #51F092",
"D  c #50F192",
"F  c #51F192",
"G  c #51F193",
"H  c #52F093",
"J  c #52F193",
"K  c #50F292",
"L  c #51F292",
"P  c #50F392",
"I  c #51F392",
"U  c #51F393",
"Y  c #52F293",
"T  c #52F393",
"R  c #56F193",
"E  c #57F193",
"W  c #55F292",
"Q  c #50F492",
"!  c #51F492",
"~  c #51F493",
"^  c #51F593",
"/  c #52F493",
"(  c #52F593",
")  c #50F692",
"_  c #51F693",
"`  c #50F793",
"'  c #51F793",
"]  c #52F693",
"[  c #53F693",
"{  c #52F793",
"}  c #54F194",
"|  c #53F694",
" . c #58F194",
".. c #5AF397",
"X. c #50F893",
"o. c #51F893",
"O. c #51F993",
"+. c #52F893",
"@. c #52F993",
"#. c #51FA93",
"$. c #51FB93",
"%. c #52FA93",
"&. c #52FB93",
"*. c #51FC93",
"=. c #52F994",
"-. c #53F994",
";. c #52FA94",
":. c #52FB94",
">. c #53FB94",
",. c #55FA95",
"<. c #56FA95",
"1. c #57F896",
"2. c #51FD94",
"3. c #52FC94",
"4. c #53FC94",
"5. c #52FD94",
"6. c #52FE94",
"7. c #53FE94",
"8. c #52FF94",
"9. c #53FF94",
"0. c #53FE95",
"q. c #53FF95",
"w. c #54FE95",
"e. c #55FE95",
"r. c #54FF95",
"t. c #55FD96",
"y. c #57FC96",
"u. c #56FD96",
"i. c #57FD96",
"p. c #57FC97",
"a. c #57FD97",
"s. c #55FE96",
"d. c #56FE96",
"f. c #57FE96",
"g. c #58FC97",
"h. c #59FD97",
"j. c #58FB98",
"k. c #59FB98",
"l. c #5AFB98",
"z. c #5BFA99",
"x. c #5AFB99",
"c. c #5BFB99",
"v. c #5CFA99",
"b. c #5CFB99",
"n. c #5EFB99",
"m. c #5DF99A",
"M. c #5EF99B",
"N. c #5FF99B",
"B. c #5CFA9A",
"V. c #5DFA9A",
"C. c #5CFB9A",
"Z. c #5EFA9A",
"A. c #5EFA9B",
"S. c #58FC98",
"D. c #59FC98",
"F. c #58FD98",
"G. c #5AFC98",
"H. c #5BFC98",
"J. c #5AFC99",
"K. c #58FE98",
"L. c #58FF98",
"P. c #58FE99",
"I. c #58FF99",
"U. c #5CFC98",
"Y. c #5CFD98",
"T. c #5EFC99",
"R. c #5FFC9A",
"E. c #62EB9A",
"W. c #63EB9A",
"Q. c #64EA9B",
"!. c #65E99C",
"~. c #62F79D",
"^. c #63F69E",
"/. c #63F79E",
"(. c #66F79D",
"). c #65F59F",
"_. c #66F59F",
"`. c #64F69E",
"'. c #6AF69F",
"]. c #61F99B",
"[. c #60F89C",
"{. c #61F89C",
"}. c #60F99C",
"|. c #61F89D",
" X c #64F89C",
".X c #64F99C",
"XX c #66F89D",
"oX c #67F89D",
"OX c #64FA9C",
"+X c #68F99E",
"@X c #79EEA7",
"#X c #7AEFA8",
"$X c #7FEEAA",
"%X c #67F4A0",
"&X c #66F5A0",
"*X c #67F5A0",
"=X c #67F4A1",
"-X c #68F3A1",
";X c #69F3A1",
":X c #69F3A2",
">X c #6AF2A2",
",X c #6AF3A2",
"<X c #6CF1A3",
"1X c #6BF7A0",
"2X c #6CF5A0",
"3X c #6CF6A0",
"4X c #6DF6A0",
"5X c #6FF4A2",
"6X c #6FF6A2",
"7X c #6CF1A4",
"8X c #6DF1A4",
"9X c #72F3A3",
"0X c #70F5A2",
"qX c #71F5A2",
"wX c #71F4A3",
"eX c #71F5A3",
"rX c #72F4A3",
"tX c #73F4A3",
"yX c #72F5A3",
"uX c #75F2A5",
"iX c #75F3A5",
"pX c #76F4A5",
"aX c #78F1A7",
"sX c #79F1A7",
"dX c #78F3A6",
"fX c #79F2A7",
"gX c #7BF2A8",
"hX c #7CF0A9",
"jX c #FFF7A5",
"kX c white",
/* pixels */
"..W W W V W W W W W !.W W W q W W W W W W W W B W W W W W E.R W W q W W W W W W W W W.W W W W W E C W W q W W W W W W W W Q. .W ",
"L.8.t.~.V.B.8.8.8.,X/.`.,.y F s 8.8.8.8.8.8.`.a.{.8.8.8.{._.~.D.6 ] 0 8.8.8.8.8.8.|.[.~.8.8.8.c.[.&X[.s _ p 5.8.8.8.8.8.c.*XM.B.",
"L.8.8.c.d.8.8.8.8.G.0.g.8.X.5.3.8.a.9.8.8.8.x.8.s.8.8.8.u.a.D.8.X.8.%.8.8.t.8.8.8.D.9.s.8.8.8.8.D.D.0.#.8.:.8.8.u.8.8.8.w.a.u.8.",
"L.8.8.8.8.8.8.8.8.8.8.8.8.8.8.8.V.;XV.k.8.8.8.8.8.8.8.8.8.8.8.8.8.8.8.c.p.).k.8.8.8.8.8.8.8.8.8.8.8.8.8.8.8.u.D.%Xv.8.8.8.8.8.8.",
"L.8.8.8.8.8.8.8.8.8.8.8.8.8.8.8.a.D.l.8.8.8.8.8.8.8.8.8.8.8.8.8.8.8.8.8.u.z.w.8.8.8.8.8.8.8.8.8.8.8.8.8.8.8.8.u.a.D.8.8.8.8.8.8.",
"L.8.8.8.8.8.8.8.8.8.8.8.8.8.8.8.8.8.8.8.8.8.8.8.8.8.8.8.8.8.8.8.8.8.8.8.8.8.8.8.8.8.8.8.8.8.8.8.8.8.8.8.8.8.8.8.8.8.8.8.8.8.8.8.",
"L.8.8.8.8.8.8.8.8.8.8.8.8.8.8.8.8.8.8.8.8.8.8.8.8.8.8.8.8.8.8.8.8.8.8.8.8.8.8.8.8.8.8.8.8.8.8.8.8.8.8.8.8.8.8.8.8.8.8.8.8.8.8.8.",
"L.8.8.8.8.8.8.8.8.8.8.8.8.8.8.8.( ; ] ( 8.8.8.8.8.8.8.8.8.8.8.8.8.8.8.( } e [ 8.8.8.8.8.8.8.8.8.8.8.8.8.8.8.;.{ 3 | 8.8.8.8.8.8.",
"L.8.8.8.8.8.8.8.8.8.8.8.8.8.8.8.o.) g 8.8.8.8.8.8.8.8.8.8.8.8.8.8.8.8.8.#.K 5.8.8.8.8.8.8.8.8.8.8.8.8.8.8.8.8.#.o.) 8.8.8.8.8.8.",
"L.8.8.8.8.8.8.8.8.8.8.8.8.8.8.  =X&XD.8.8.8.8.8.8.8.8.8.8.8.8.8.8.8.a.[.A.G.8.8.8.8.8.8.8.8.8.8.8.8.8.8.8.8.`.A.G.8.8.8.8.8.8.8.",
"F.2.n ' 8.8.8.8.8.8.8.8.8.8.  .   ).g.8.%.n o.8.8.8.8.8.8.8.8.8.8.8.e.N.p.[.8.%.: o.6.8.8.8.8.8.8.8.8.8.8.8.[.s.^.8.%.9 | #.8.8.",
"F.1 ' L 8.8.8.{ / @.;.8.8.8.  .   8.8.8.< &.v 8.8.8.5.+.U ;.8.8.8.8.8.8.8.8.8.A P n 6.8.8.8.:._ 3.8.8.8.8.8.8.8.8.8.' h ~ $.8.8.",
"L.8.8.8.8.8.8.{ T v { 8.8.8.  . .   8.8.8.8.8.8.8.8.5.N T S 8.8.8.8.8.8.8.8.8.8.8.8.8.8.8.8.a :.j 8.8.8.8.8.8.8.8.8.8.8.8.8.8.8.",
"L.8.8.T.6XY.r.8.8.8.8.8.8.  . . .   8.8.8.8.R.wX].U.8.8.8.8.8.8.8.8.8.8.8.8.8.8.8.n.XX1Xh.8.8.8.8.8.8.8.8.8.8.8.8.8.8.8.d.H.pXh.",
"L.8.8.gXrX$Xf.8.8.8.8.8.8.  . . . X 8.8.8.8.iXsX@X'.8.8.8.8.8.8.8.8.8.8.8.8.8.8.8.5X3XaX(.8.8.8.8.8.8.8.8.8.8.8.8.8.8.8.n.uXiXtX",
"L.8.8.e.r.d.8.8.8.8.8.8.8.  . o $ X 8.8.8.8.9.e.d.8.8.8.8.8.8.8.8.8.8.. . . . 8.8.8.q.d.8.8.8.8.8.8.8.8.8.8.8.8.8.8.8.8.8.e.9.e.",
"L.8.8.8.8.8.8.8.8.8.8.8.8.  o $ $ $ X 8.8.8.8.8.8.8.8.8.8.8.8.8.. . . o o o o .   8.8.8.8.8.8.8.8.8.8.8.8.8.8.8.8.8.8.8.8.8.8.8.",
"L.8.8.8.a.8.8.8.8.8.N.8.8.  $ $ $ $ X 8.8.8.8.a.8.8.8.8.8.V.+ + $ % % o o o o o   8.V.8.8.8.8.8.w.l.8.8.{ 8.8.8.8.8.8.8.8.Z.w.8.",
"L.8.u.p.V.m.8.8.8.~.<XZ.<.  $ $ $ $ X 8.8.+ + + + + 8.8.+ + % % % % % o o o o   8.D.-X[.8.8.8.B.D.`.[.J v z 5.8.8.8.8.8.D.,Xb.Z.",
"L.8.8.v.u.8.8.8.8.c.w.D.8.I X $ $ $ + + # jXjXjX% % # + % % % % % % & o o o   8.8.l.9.u.8.8.8.8.l.c.w.' 8.@.8.8.l.8.8.8.w.g.u.8.",
"L.8.8.8.8.8.8.8.8.8.8.8.8.8.X $ $ # # jXjXjXjXjXjX% % % % % % % % % o o     z.8.8.8.8.8.8.8.8.8.8.8.8.8.8.8.a.B.%XM.8.8.8.8.8.8.",
"L.8.8.8.8.8.8.8.8.8.8.8.8.8.8.X # % jXjXjXjXjXjX% % % % % % % % %       w.g.0.8.8.8.8.8.8.8.8.8.8.8.8.8.8.8.8.w.s.u.8.8.8.8.8.8.",
"L.8.8.8.8.8.8.8.8.8.8.8.8.8.8.+ % % % % % % % % $     $ % % # +   8.8.8.8.8.8.8.8.8.8.8.8.8.8.8.8.8.8.8.8.8.8.8.8.8.8.8.8.8.8.8.",
"L.8.8.8.8.8.8.8.8.8.8.8.8.8.X #   $ % % % % % % o kX  . % % %   8.8.8.8.8.8.8.8.8.8.8.8.8.8.8.8.8.8.+ 8.8.8.8.8.8.8.8.8.8.8.8.8.",
"L.8.8.8.8.8.8.8.8.8.8.8.8.8.X   kX$ % % % % % %     o . % % %   8.8.8.K M 7 _ 8.8.8.8.8.8.8.8.8.8.+ % + 8.8.{ ~ * _ 8.8.8.8.8.8.",
"L.8.8.8.8.8.8.8.8.8.8.8.8.8.X o   % % X # % % % $     $ % % % + 8.8.8.8.#.K 3.8.8.8.8.8.8.8.8.8.+ % % % + 8.8.O.o.) 8.8.8.8.8.8.",
"L.8.8.8.8.8.8.8.8.8.8.8.8.8.+ . + % % % % % % % % % % % @ @ % # X 8.w.p.x.e.8.8.8.8.8.8.8.8.# % % % % % + 8.g.x.e.8.8.8.8.8.8.8.",
"K.5.F =.8.8.8.8.8.8.8.8.8.X % % % % % X + # % % % % % @ @ @ O $   8.e.M.a.M.8.5.w ;.8.# # # % % % % % % + 8.[.s.{.8.3.r -.:.8.8.",
"F.1 ^ x 8.8.8.$.{ %.3.8.8.X @ $ % # X + $ $ + + # % $ O O O O $   8.8.8.8.8.8.l l g + % % % % % % % % % % + 8.8.8.8./ t T +.8.8.",
"L.8.8.8.8.8.8.! H Z ^ 8.8.X O $ $ $ $ $ $ $ $ $ $ $ $ O O O O $   8.8.8.8.8.8.8.8.+ % % % % % % % % % % % + 8.8.8.8.8.8.8.8.8.8.",
"L.8.8.8.OX8.8.8.8.8.8.8.8.X O $ $ $ $ $ $ $ $ $ $ $ $ $ O O $ $   8.8.8.8.8.8.8.+ % % % % % % % % % % % % + 8.8.8.8.8.8.8.8.+X8.",
"L.8.8.iX0X#Xe.8.8.8.8.8.8.8.+ $ $ $ $ $ $ $ $ $ $ $ $ $ $ $ $ $   8.8.8.8.8.+ + $ % % % % % % % % % % % % % + 8.8.8.8.8.h.5XyXqX",
"L.8.8.w.7.e.8.8.8.8.8.8.8.8.8.  $ $ $ $ $ $ $ $ $ $ $ $ $ $ $ $ X 8.8.8.8.+ $ $ $ $ $ % % % % % % % % % % + 8.8.8.8.8.8.8.0.9.w.",
"L.8.8.8.8.8.8.8.8.8.8.8.8.8.8.  $ $ $ $ $ $ $ $ $ $ $ $ $ $ $ $ %   8.8.8.+ $ $ $ $ $ $ % % % % % % % % % + 8.8.8.8.8.8.8.8.8.8.",
"L.8.8.8.s.8.8.8.8.8.G.8.8.8.&.  % $ $ $ $ $ $ $ $ $ $ $ $ $ $ % %   8.8.8.8.X $ $ $ $ $ $ % % % % % % %   8.8.8.8.8.8.8.8.D.0.8.",
"L.8.a.m.N.{.8.8.8.:X7X/.1.Q l   % % % $ $ $ $ $ $ $ $ $ $ $ % % %   y 8.8.8.X $ $ $ $ $ $ $ $ %         n d 5.8.8.8.8.8.c.<XM.{.",
"L.8.8.c.d.8.8.8.8.G.w.D.8.` 5.  % % % % % $ $ $ $ $ # $ % % % % %   %.8.9.e.X X $ $ $ $ $ $     D.G.w.#.8.:.8.8.t.8.8.8.w.a.u.8.",
"L.8.8.8.8.8.8.8.8.8.8.8.8.8.8.# % % + % % % % % % # % % % % % % % X 8.B.g.*Xl.X $ $ + 8.  8.8.8.8.8.8.8.8.8.u.x.-Xv.8.8.8.8.8.8.",
"L.8.8.8.8.8.8.8.8.8.8.8.8.8.  % % % # % % % % % % # % % % % % % % %   8.g.{.s.8.X $ $ X 8.8.8.8.8.8.8.8.8.8.8.g.l.V.8.8.8.8.8.8.",
"L.8.8.8.8.8.8.8.8.8.8.8.8.8.  % % % % + % % % % + % % % % % $ % % %   8.8.8.8.  # $ $ X 8.8.8.8.8.8.8.8.8.8.8.8.8.8.8.8.8.8.8.8.",
"L.8.8.8.8.8.8.8.8.8.8.8.8.8.  # % % % + % % % % + % % % % $ # % % $   8.8.X   # $ $ $ $ 8.8.8.8.8.8.8.8.8.8.8.8.8.8.8.8.8.8.8.8.",
"L.8.8.8.8.8.8.8.8.8.8.8.8.8.  + % % % # % % % + % % % % % + % % % $   /   # # # # $ # X X 8.8.8.8.8.8.8.8.8.=.] = { 8.8.8.8.8.8.",
"L.8.8.8.8.8.8.8.8.8.8.8.8.8.  + % % % % + % %   # % % % + % % % $ $ $     # # # X X X 8.  8.8.8.8.8.8.8.8.8.@.F k b 8.8.8.8.8.8.",
"L.8.8.8.8.8.8.8.8.8.8.8.8.  % % + % # + % % % %   % # + % % % % $ $ $   x.  #   8.8.8.8.8.8.8.8.8.8.8.8.8.8.G.x.s.8.8.8.8.8.8.8.",
"K.5.S o.8.8.8.8.8.8.8.8.8.+ % % % + + % % % % % % + + % % % % $ $ $ $   g.}.+ +   O.6.8.8.8.8.8.8.8.8.8.8.8.|.s.`.8.:.w | $.8.8.",
"F.h ' L 8.8.8.+./ @.:.8.  $ % % % % % % % % % % % % % % % $ % $ $ $ $ X       + +   6.8.8.8.:._ 3.8.8.8.8.8.8.8.8.8._ f / $.8.8.",
"L.8.8.8.8.8.8.b c 2 L 8.  $ $ % % % % % % % % % % % % % $ % $ % $ $ $ $     + + +   8.8.8.8.5 O.< 8.8.8.8.8.8.8.8.8.8.8.8.8.8.8.",
"L.8.8.8.oX8.8.8.8.8.8.8.  $ $ $ $ $ % % % % % % % $ $ $ % $ % $ $ $ $ $   X +     8.n..X8.8.8.8.8.8.8.8.8.8.8.8.8.8.8.8.8.8.4X8.",
"L.8.8.dXyXhXd.8.8.8.8.8.8.+ $ $ $ $ $ $ $ $ $ $ $ $ $ $ $ $ $ $ $ $ $ X 8.  8.8.8.2X3XfX X8.8.8.8.8.8.8.8.8.8.8.8.8.8.8.U.9XpXeX",
"L.8.8.e.r.i.8.8.8.8.8.8.8.  $ $ $ $ $ $ $ $ $ $ $ $ $ $ $ $ $ $ $ $ #   8.8.8.8.8.8.r.f.8.8.8.8.8.8.8.8.8.8.8.8.8.8.8.8.8.e.q.d.",
"L.8.8.8.8.8.8.8.8.8.8.8.8.8.    $ $ $ # #         X $ $ $ $ $ $ $ #   8.8.8.8.8.8.8.8.8.8.8.8.8.8.8.8.8.8.8.8.8.8.8.8.8.8.8.8.8.",
"L.8.8.8.0.8.8.8.8.8.e.8.8.X X # + + + +   8.8.w.8.8.  X + + # # +   8.8.8.8.8.8.8.8.w.8.8.8.8.8.8.w.8.8.>.8.8.8.8.8.8.8.8.t.9.8.",
"L.8.t.p.V.V.8.8.8.|.<XV.X % + % # X     8.8.l.C.M.8.8.8.v.X $ $ $ +   8.8.8.8.8.8.D.;XN.8.8.8.c.D.`.N.T z z 5.8.8.8.8.8.g.>Xb.V.",
"L.8.8.M.a.8.8.8.8.V.w.c.8.      X d.9.8.8.8.m.8.u.8.8.8.g.    % + %   8.9.w.8.8.8.c.9.u.8.8.8.8.v.V.w.' 8.@.8.8.t.8.8.8.w.D.i.8.",
"L.8.8.8.8.8.8.8.8.8.8.8.8.8.8.8.G.8Xl.D.8.8.8.8.8.8.8.8.8.8.8.      8.G.y.&Xg.8.8.8.8.8.8.8.8.8.8.8.8.8.8.8.u.a.<Xg.8.8.8.8.8.8.",
"I.8.8.8.8.8.8.8.8.8.8.8.8.8.8.8.J.V.N.8.8.8.8.8.8.8.8.8.8.8.8.8.8.8.8.8.S.{.s.8.8.8.8.8.8.8.8.8.8.8.8.8.8.8.8.S.l.V.8.8.8.8.8.8.",
"L.8.8.8.8.8.8.8.8.8.8.8.8.8.8.8.8.8.8.8.8.8.8.8.8.8.8.8.8.8.8.8.8.8.8.8.8.8.8.8.8.8.8.8.8.8.8.8.8.8.8.8.8.8.8.8.8.8.8.8.8.8.8.8.",
"I.8.8.8.8.8.8.8.8.8.8.8.8.8.8.8.8.8.8.8.8.8.8.8.8.8.8.8.8.8.8.8.8.8.8.8.8.8.8.8.8.8.8.8.8.8.8.8.8.8.8.8.8.8.8.8.8.8.8.8.8.8.8.8.",
"L.8.8.8.8.8.8.8.8.8.8.8.8.8.8.8.*.k %.3.8.8.8.8.8.8.8.8.8.8.8.8.8.8.8.&.| v 3.8.8.8.8.8.8.8.8.8.8.8.8.8.8.8.5.3.i 3.8.8.8.8.8.8.",
"I.8.8.8.8.8.8.8.8.8.8.8.8.8.8.8.D 1 8 ] 8.8.8.8.8.8.8.8.8.8.8.8.8.8.8._ Y < ^ 8.8.8.8.8.8.8.8.8.8.8.8.8.8.8.=.F k b 8.8.8.8.8.8.",
"L.8.8.8.8.8.8.8.8.8.8.8.8.8.8.e.M.[.w.8.8.8.8.8.8.8.8.8.8.8.8.8.8.8.0.t.x.w.8.8.8.8.8.8.8.8.8.8.8.8.8.8.8.8.u.x.w.8.8.8.8.8.8.8.",
"P.6.G 3.8.8.8.8.8.8.8.8.8.8.8.D.M.~.a.8.5.J 3.8.8.8.8.8.8.8.8.8.8.8.s.M.a.Z.8.5.r 5.8.8.8.8.8.8.8.8.8.8.8.8.[.s.[.8.5.s -.5.8.8.",
"j.1 S > 8.8.8.8.;.3.8.8.8.8.8.8.8.8.8.8.6 U - 8.8.8.8.8.@.8.8.8.8.8.8.8.8.8.8.u , 7 3.8.8.8.8.#.8.8.8.8.8.8.8.8.8.8.S 4 m Q 8.8.",
"L.3.8.8.8.8.8.N m D / 8.8.8.8.8.8.8.8.8.4.8.6.8.8.8.;.s F n 8.8.8.8.8.8.8.8.8.5.6.5.8.8.8.8.i o.k 8.8.8.8.8.8.8.8.8.6.5.5.8.8.8."
};
