/* XPM */
static char *result[] = {
/* columns rows colors chars-per-pixel */
"64 64 226 2 ",
"   c black",
".  c gray16",
"X  c #633108",
"o  c #42424A",
"O  c #C52119",
"+  c #9C5200",
"@  c #E65A42",
"#  c #DE9400",
"$  c #F7BD21",
"%  c #F7E652",
"&  c #737384",
"*  c #4FDD90",
"=  c #50DF91",
"-  c #4FE390",
";  c #4FE590",
":  c #4EE790",
">  c #4FE791",
",  c #4FE891",
"<  c #4FE991",
"1  c #4FEA91",
"2  c #4FED91",
"3  c #4FEE91",
"4  c #51E091",
"5  c #50E290",
"6  c #51E391",
"7  c #50E591",
"8  c #50E691",
"9  c #51E691",
"0  c #50E791",
"q  c #51E592",
"w  c #54E791",
"e  c #50E891",
"r  c #51E891",
"t  c #50E991",
"y  c #51E991",
"u  c #50EA91",
"i  c #50EB91",
"p  c #51E992",
"a  c #52E892",
"s  c #52E992",
"d  c #51EA92",
"f  c #50EB92",
"g  c #51EB92",
"h  c #52EB92",
"j  c #50EC92",
"k  c #51EC92",
"l  c #50ED92",
"z  c #52EC92",
"x  c #52ED92",
"c  c #52ED93",
"v  c #51EE92",
"b  c #50EF92",
"n  c #51EF92",
"m  c #52EE93",
"M  c #53EE93",
"N  c #52EF93",
"B  c #5BEF95",
"V  c #5BEF96",
"C  c #5FED98",
"Z  c #4FF091",
"A  c #50F092",
"S  c #51F092",
"D  c #50F192",
"F  c #51F192",
"G  c #51F193",
"H  c #52F093",
"J  c #52F193",
"K  c #50F292",
"L  c #51F292",
"P  c #50F392",
"I  c #51F392",
"U  c #51F393",
"Y  c #52F293",
"T  c #52F393",
"R  c #56F193",
"E  c #57F193",
"W  c #55F292",
"Q  c #50F492",
"!  c #51F492",
"~  c #51F493",
"^  c #51F593",
"/  c #52F493",
"(  c #52F593",
")  c #50F692",
"_  c #51F693",
"`  c #50F793",
"'  c #51F793",
"]  c #52F693",
"[  c #53F693",
"{  c #52F793",
"}  c #54F194",
"|  c #53F694",
" . c #58F194",
".. c #5AF397",
"X. c #50F893",
"o. c #51F893",
"O. c #51F993",
"+. c #52F893",
"@. c #52F993",
"#. c #51FA93",
"$. c #51FB93",
"%. c #52FA93",
"&. c #52FB93",
"*. c #51FC93",
"=. c #52F994",
"-. c #53F994",
";. c #52FA94",
":. c #52FB94",
">. c #53FB94",
",. c #55FA95",
"<. c #56FA95",
"1. c #57F896",
"2. c #51FD94",
"3. c #52FC94",
"4. c #53FC94",
"5. c #52FD94",
"6. c #52FE94",
"7. c #53FE94",
"8. c #52FF94",
"9. c #53FF94",
"0. c #53FE95",
"q. c #53FF95",
"w. c #54FE95",
"e. c #55FE95",
"r. c #54FF95",
"t. c #55FD96",
"y. c #57FC96",
"u. c #56FD96",
"i. c #57FD96",
"p. c #57FC97",
"a. c #57FD97",
"s. c #55FE96",
"d. c #56FE96",
"f. c #57FE96",
"g. c #58FC97",
"h. c #59FD97",
"j. c #58FB98",
"k. c #59FB98",
"l. c #5AFB98",
"z. c #5BFA99",
"x. c #5AFB99",
"c. c #5BFB99",
"v. c #5CFA99",
"b. c #5CFB99",
"n. c #5EFB99",
"m. c #5DF99A",
"M. c #5EF99B",
"N. c #5FF99B",
"B. c #5CFA9A",
"V. c #5DFA9A",
"C. c #5EFA9A",
"Z. c #5EFA9B",
"A. c #58FC98",
"S. c #59FC98",
"D. c #58FD98",
"F. c #5AFC98",
"G. c #5BFC98",
"H. c #5AFC99",
"J. c #58FE98",
"K. c #58FF98",
"L. c #58FE99",
"P. c #58FF99",
"I. c #5CFC98",
"U. c #5CFD98",
"Y. c #5EFC99",
"T. c #5FFC9A",
"R. c #62EB9A",
"E. c #63EB9A",
"W. c #64EA9B",
"Q. c #65E99C",
"!. c #62F79D",
"~. c #63F69E",
"^. c #63F79E",
"/. c #66F79D",
"(. c #65F59F",
"). c #66F59F",
"_. c #64F69E",
"`. c #6AF69F",
"'. c #61F99B",
"]. c #60F89C",
"[. c #61F89C",
"{. c #61F89D",
"}. c #64F89C",
"|. c #64F99C",
" X c #66F89D",
".X c #67F89D",
"XX c #64FA9C",
"oX c #68F99E",
"OX c #79EEA7",
"+X c #7AEFA8",
"@X c #7FEEAA",
"#X c #67F4A0",
"$X c #66F5A0",
"%X c #67F5A0",
"&X c #67F4A1",
"*X c #68F3A1",
"=X c #69F3A1",
"-X c #69F3A2",
";X c #6AF2A2",
":X c #6AF3A2",
">X c #6CF1A3",
",X c #6BF7A0",
"<X c #6CF5A0",
"1X c #6CF6A0",
"2X c #6DF6A0",
"3X c #6FF4A2",
"4X c #6FF6A2",
"5X c #6CF1A4",
"6X c #72F3A3",
"7X c #70F5A2",
"8X c #71F5A2",
"9X c #71F4A3",
"0X c #71F5A3",
"qX c #72F4A3",
"wX c #73F4A3",
"eX c #72F5A3",
"rX c #75F2A5",
"tX c #75F3A5",
"yX c #76F4A5",
"uX c #78F1A7",
"iX c #79F1A7",
"pX c #78F3A6",
"aX c #79F2A7",
"sX c #7BF2A8",
"dX c #7CF0A9",
"fX c #FFF7A5",
/* pixels */
"..W W W V W W W W W Q.W W W w W W W W W W W W B W W W W W R.R W W w W W W W W W W W E.W W W W W E C W W w W W W W W W W W W. .W ",
"K.8.t.!.V.B.8.8.8.:X^._.,.u F d 8.8.8.8.8.8._.a.[.8.8.8.[.).!.S.7 ] q 8.8.8.8.8.8.{.].!.8.8.8.c.].$X].d _ a 5.8.8.8.8.8.c.%XM.B.",
"K.8.8.c.d.8.8.8.8.F.0.g.8.X.5.3.8.a.9.8.8.8.x.8.s.8.8.8.u.a.S.8.X.8.%.8.8.t.8.8.8.S.9.s.8.8.8.8.S.S.0.#.8.:.8.8.u.8.8.8.w.a.u.8.",
"K.8.8.8.8.8.8.8.8.8.8.8.8.8.8.8.V.=XV.k.8.8.8.8.8.8.8.8.8.8.8.8.8.8.8.c.p.(.k.8.8.8.8.8.8.8.8.8.8.8.8.8.8.8.u.S.#Xv.8.8.8.8.8.8.",
"K.8.8.8.8.8.8.8.8.8.8.8.8.8.8.8.a.S.l.8.8.8.8.8.8.8.8.8.8.8.8.8.8.8.8.8.u.z.w.8.8.8.8.8.8.8.8.8.8.8.8.8.8.8.8.u.a.S.8.8.8.8.8.8.",
"K.8.8.8.8.8.8.8.8.8.8.8.8.8.8.8.8.8.8.8.8.8.8.8.8.8.8.8.8.8.8.8.8.8.8.8.8.8.8.8.8.8.8.8.8.8.8.8.8.8.8.8.8.8.8.8.8.8.8.8.8.8.8.8.",
"K.8.8.8.8.8.8.8.8.8.8.8.8.8.8.8.8.8.8.8.8.8.8.8.8.8.8.8.8.8.8.8.8.8.8.8.8.8.8.8.8.8.8.8.8.8.8.8.8.8.8.8.8.8.8.8.8.8.8.8.8.8.8.8.",
"K.8.8.8.8.8.8.8.8.8.8.8.8.8.8.8.( ; ] ( 8.8.8.8.8.8.8.8.8.8.8.8.8.8.8.( } r [ 8.8.8.8.8.8.8.8.8.8.8.8.8.8.8.;.{ 4 | 8.8.8.8.8.8.",
"K.8.8.8.8.8.8.8.8.8.8.8.8.8.8.8.o.) h     8.8.8.8.8.8.8.8.8.8.8.8.8.8.8.#.K 5.8.8.8.8.8.8.8.8.8.8.8.8.8.8.8.8.#.o.) 8.8.8.8.8.8.",
"K.8.8.8.8.8.8.8.8.8.8.8.8.8.8.N.&X$X  o o   8.8.8.8.8.8.8.8.8.8.8.8.a.].Z.F.8.8.8.8.8.8.8.8.8.8.8.8.8.8.8.8._.Z.F.8.8.8.8.8.8.8.",
"D.2.n ' 8.8.8.8.8.8.8.8.8.8.8.g.N.  o o o   o.8.8.8.8.8.8.8.8.8.8.8.e.N.p.].8.%.: o.6.8.8.8.8.8.8.8.8.8.8.8.].s.~.8.%.0 | #.8.8.",
"D.2 ' L 8.8.8.{ / @.;.8.8.8.8.8.8.  o o o   v 8.8.8.5.+.U ;.8.8.8.8.8.8.8.8.8.A P n 6.8.8.8.:._ 3.8.8.8.8.8.8.8.8.8.' j ~ $.8.8.",
"K.8.8.8.8.8.8.{ T v { 8.8.8.8.8.  o o o o   8.8.8.8.5.N T S 8.8.8.8.8.8.8.8.8.8.8.8.8.8.8.8.s :.k 8.8.8.8.8.8.8.8.8.8.8.8.8.8.8.",
"K.8.8.Y.4XU.r.8.8.8.8.8.8.8.8.8.  o o o &   T.9X'.I.8.8.8.8.8.8.8.8.8.8.8.8.8.8.8.n. X,Xh.8.8.8.8.8.8.8.8.8.8.8.8.8.8.8.d.G.yXh.",
"K.8.8.sXqX@Xf.8.8.8.8.8.8.8.8.8.  o & % %   tXiXOX`.8.8.8.8.8.8.8.8.8.8.8.8.8.8.8.3X1XuX/.8.8.8.8.8.8.8.8.8.8.8.8.8.8.8.n.rXtXwX",
"K.8.8.e.r.d.8.8.8.8.8.8.8.8.8.8.. % % % %   9.e.d.8.8.8.8.8.8.8.8.8.8.8.8.      8.8.q.d.8.8.8.8.8.8.8.8.8.8.8.8.8.8.8.8.8.e.9.e.",
"K.8.8.8.8.8.8.8.8.8.8.8.8.8.8.X $ % % % % X 8.8.8.8.8.8.8.8.8.8.8.8.      o o o .   8.8.8.8.8.8.8.8.8.8.8.8.8.8.8.8.8.8.8.8.8.8.",
"K.8.8.8.a.8.8.8.8.8.N.8.8.8.' X % % % % # X 8.a.8.8.8.8.8.V.w.8.    o o o o o o o   V.8.8.8.8.8.w.l.8.8.{ 8.8.8.8.8.8.8.8.C.w.8.",
"K.8.u.p.V.m.8.8.8.!.>XC.<.( k X % % % % X 8.l.b.N.8.8.8.V.*X+ + % % & o o o o o   S.*X].8.8.8.B.S._.].J v z 5.8.8.8.8.8.S.:Xb.C.",
"K.8.8.v.u.8.8.8.8.c.w.S.8.I 3.X % % % % X 8.c.8.u.8.8.8.a.+ # % % % % & o o o   8.l.9.u.8.8.8.8.l.c.w.' 8.@.8.8.l.8.8.8.w.g.u.8.",
"K.8.8.8.8.8.8.8.8.8.8.8.8.8.8.X % % % X + + + + + 8.8.8.# % % % % % % % o     8.8.8.8.8.8.8.8.8.8.8.8.8.8.8.a.B.#XM.8.8.8.8.8.8.",
"K.8.8.8.8.8.8.8.8.8.8.8.8.8.8.X % % # % % % % % % + + + % % % % % % $     g.0.8.8.8.8.8.8.8.8.8.8.8.8.8.8.8.8.w.s.u.8.8.8.8.8.8.",
"K.8.8.8.8.8.8.8.8.8.8.8.8.8.8.X % % % % % % % fXfXfX% $ $ % % $       8.8.8.8.8.+ + 8.8.8.8.8.8.8.8.8.8.8.8.8.8.8.8.8.8.8.8.8.8.",
"K.8.8.8.8.8.8.8.8.8.8.8.8.8.X % % % % % % % fXfXfXfXfX% % +     8.8.8.8.8.8.8.+ % % + 8.8.8.8.8.8.8.8.8.8.8.8.8.8.8.8.8.8.8.8.8.",
"K.8.8.8.8.8.8.8.8.8.8.8.8.8.X % % % % % % % % fXfXfX% % % % + 8.8.8.8.K M 8 + % % % % + 8.8.8.8.8.8.8.8.8.8.{ ~ * _ 8.8.8.8.8.8.",
"K.8.8.8.8.8.8.8.8.8.8.8.8.X % % % % % % % % % % % % % % % % % + 8.8.8.8.#.+ % % % % % + 8.8.8.8.8.8.8.8.8.8.8.O.o.) 8.8.8.8.8.8.",
"K.8.8.8.8.8.8.8.8.8.8.8.8.X % % % % % % % % % % % % % % % % % + 8.8.w.p.  % % % % % % % + 8.8.8.8.8.8.8.8.8.g.x.e.8.8.8.8.8.8.8.",
"J.5.F =.8.8.8.8.8.8.8.8.X $ % % % % % % % % % % % % % % % % % % + 8.e.  % % % % % % % % + 8.8.8.8.8.8.8.8.8.].s.[.8.3.t -.:.8.8.",
"D.2 ^ x 8.8.8.$.{ %.3.8.X $ % % % % % % % % % % % % % % % % % % + 8.  % % % % % % % % % + 8.3.o.5.8.8.8.8.8.8.8.8.8./ y T +.8.8.",
"K.8.8.8.8.8.8.! H Z ^ X @ $ $ % % % % % % % % % % % % % % % % % + + % % % % % % % % % % % + e $.2 8.8.8.8.8.8.8.8.8.8.8.8.8.8.8.",
"K.8.8.8.XX8.8.8.8.8.8.  O $ $ $ % % % % % % % % % % % % % % % $ + % % % % % % % % % % % % + 8.8.8.8.8.8.8.8.8.8.8.8.8.8.8.8.oX8.",
"K.8.8.tX7X+Xe.8.8.8.8.  O @ $ $ $ $ $ % % % % % % % % % % $ $ + $ % % % % % % % % % % % % + 8.8.8.8.8.8.8.8.8.8.8.8.8.8.h.3XeX8X",
"K.8.8.w.7.e.8.8.8.8.8.8.  @ $ $ $ $ $ $ $ $ % $ % $ % $ $ $ + $ $ $ $ % % % % % % % % %     8.8.8.8.8.8.8.8.8.8.8.8.8.8.8.0.9.w.",
"K.8.8.8.8.8.8.8.8.8.8.8.  $ $ $ $ $ $ $ $ $ $ % $ % $ $ $ X $ $ $ $ $ $ $ % % % % %     8.8.8.8.8.8.8.8.8.8.8.8.8.8.8.8.8.8.8.8.",
"K.8.8.8.s.8.8.8.8.8.F.8.8.  $ $ $ $ $ $ $ $ $ $ $ $ $ $ $ X $ $ $ $ $ $ $ $ $ %     S.8.8.8.8.8.0.i.8.8.&.8.8.8.8.8.8.8.8.S.0.8.",
"K.8.a.m.N.[.8.8.8.-X5X^.1.Q   $ $ $ $ $ $ $ $ $ $ $ $ $ $ $ X $ $ $ $ $ $ $     8.V.*X(.8.8.8.N.v.#X_.F n f 5.8.8.8.8.8.c.>XM.[.",
"K.8.8.c.d.8.8.8.8.F.w.S.8.`   $ $ $ $ $ $ $ $ $ $ $ $ $ $ $ $ X $ $ $ $     8.8.8.S.9.s.8.8.8.8.S.F.w.#.8.:.8.8.t.8.8.8.w.a.u.8.",
"K.8.8.8.8.8.8.8.8.8.8.8.8.8.X $ $ $ $ $ $ $ $ $ $ $ # + + + + + X $ $ + g.%Xl.8.8.8.8.8.8.8.8.8.8.8.8.8.8.8.u.x.*Xv.8.8.8.8.8.8.",
"K.8.8.8.8.8.8.8.8.8.8.8.8.8.X $ $ $ $ $ $ $ $ # + + + + + + + + + X $ + X [.s.8.8.8.8.8.8.8.8.8.8.8.8.8.8.8.8.g.l.V.8.8.8.8.8.8.",
"K.8.8.8.8.8.8.8.8.8.8.8.8.8.X $ + $ $ $ $ $ + + + + + # # # # #   # $ $ X 8.8.8.8.8.8.8.8.8.8.8.8.8.8.8.8.8.8.8.8.8.8.8.8.8.8.8.",
"K.8.8.8.8.8.8.8.8.8.8.8.8.  % $ + $ $ $ # + + + # $ $ $ $ $ $   # $ $ $ $ X 8.8.8.8.8.8.8.8.8.8.8.8.8.8.8.8.8.8.8.8.8.8.8.8.8.8.",
"K.8.8.8.8.8.8.8.8.8.8.8.8.  % % X $ $ $ $ $ $ $ $ $ $ $ $ $ X # # # $ # X   { 8.8.8.8.8.8.8.8.8.8.8.8.8.8.8.=.] = { 8.8.8.8.8.8.",
"K.8.8.8.8.8.8.8.8.8.8.8.8.  % % X $ $ $ $ $ $ $ $ $ # + +   # # # #     X < ^ 8.8.8.8.8.8.8.8.8.8.8.8.8.8.8.@.F l b 8.8.8.8.8.8.",
"K.8.8.8.8.8.8.8.8.8.8.8.8.  $ + % $ $ $ $ $ $ # + + + + +     # #   $ $ X s.8.8.8.8.8.8.8.8.8.8.8.8.8.8.8.8.F.x.s.8.8.8.8.8.8.8.",
"J.5.S o.8.8.8.8.8.8.8.8.8.8.X + % $ $ $ $ $ + + + + + + + #     + +   $ $ X 8.:.: O.6.8.8.8.8.8.8.8.8.8.8.8.{.s._.8.:.e | $.8.8.",
"D.j ' L 8.8.8.+./ @.:.8.8.8.  % % $ $ $ # + + + # # $ $ $ $ $ $   + +   $ X 8.n K v 6.8.8.8.:._ 3.8.8.8.8.8.8.8.8.8._ g / $.8.8.",
"K.8.8.8.8.8.8.b c 3 L 8.8.8.  % $ $ $ $ $ $ $ $ $ $ $ $ $ $ $   + + +   $ X 8.8.8.8.8.8.8.8.6 O.1 8.8.8.8.8.8.8.8.8.8.8.8.8.8.8.",
"K.8.8.8..X8.8.8.8.8.8.8.8.8.  % $ $ $ $ $ $ $ $ $ $ $ $ $ $ + + +     $ $ X 8.8.8.8.n.|.8.8.8.8.8.8.8.8.8.8.8.8.8.8.8.8.8.8.2X8.",
"K.8.8.pXeXdXd.8.8.8.8.8.8.8.  $ $ $ $ $ $ $ $ $ $ $ $ $ $ $ #     $ $ $ $ X 8.8.8.<X1XaX}.8.8.8.8.8.8.8.8.8.8.8.8.8.8.8.I.6XyX0X",
"K.8.8.e.r.i.8.8.8.8.8.8.8.8.  $ $ $ $ $ $ $ $ $ $ $ $ $ $ $ $ $ $ $ $ $ X 8.8.8.8.8.r.f.8.8.8.8.8.8.8.8.8.8.8.8.8.8.8.8.8.e.q.d.",
"K.8.8.8.8.8.8.8.8.8.8.8.8.8.8.  $ $ $ $ $ $ $ $ $ $ $ $ $ $ $ $ $ $ $ $   8.8.8.8.8.8.8.8.8.8.8.8.8.8.8.8.8.8.8.8.8.8.8.8.8.8.8.",
"K.8.8.8.0.8.8.8.8.8.e.8.8.8.3.8.  # $ $ $ $ $ $ # # # # # # $ $ $ $ X   8.8.8.8.8.8.w.8.8.8.8.8.8.w.8.8.>.8.8.8.8.8.8.8.8.t.9.8.",
"K.8.t.p.V.V.8.8.8.{.>XV.<.o.k X X + # # # + X             # + + + + X 8.8.8.8.8.8.S.=XN.8.8.8.c.S._.N.T z z 5.8.8.8.8.8.g.;Xb.V.",
"K.8.8.M.a.8.8.8.8.V.w.c.8.P X % # % # # # #   8.u.8.8.8.g.  # # # # X 8.9.w.8.8.8.c.9.u.8.8.8.8.v.V.w.' 8.@.8.8.t.8.8.8.w.S.i.8.",
"K.8.8.8.8.8.8.8.8.8.8.8.8.8.8.              8.8.8.8.8.8.8.8.        8.F.y.$Xg.8.8.8.8.8.8.8.8.8.8.8.8.8.8.8.u.a.>Xg.8.8.8.8.8.8.",
"P.8.8.8.8.8.8.8.8.8.8.8.8.8.8.8.H.V.N.8.8.8.8.8.8.8.8.8.8.8.8.8.8.8.8.8.A.[.s.8.8.8.8.8.8.8.8.8.8.8.8.8.8.8.8.A.l.V.8.8.8.8.8.8.",
"K.8.8.8.8.8.8.8.8.8.8.8.8.8.8.8.8.8.8.8.8.8.8.8.8.8.8.8.8.8.8.8.8.8.8.8.8.8.8.8.8.8.8.8.8.8.8.8.8.8.8.8.8.8.8.8.8.8.8.8.8.8.8.8.",
"P.8.8.8.8.8.8.8.8.8.8.8.8.8.8.8.8.8.8.8.8.8.8.8.8.8.8.8.8.8.8.8.8.8.8.8.8.8.8.8.8.8.8.8.8.8.8.8.8.8.8.8.8.8.8.8.8.8.8.8.8.8.8.8.",
"K.8.8.8.8.8.8.8.8.8.8.8.8.8.8.8.*.l %.3.8.8.8.8.8.8.8.8.8.8.8.8.8.8.8.&.| v 3.8.8.8.8.8.8.8.8.8.8.8.8.8.8.8.5.3.p 3.8.8.8.8.8.8.",
"P.8.8.8.8.8.8.8.8.8.8.8.8.8.8.8.D 2 9 ] 8.8.8.8.8.8.8.8.8.8.8.8.8.8.8._ Y 1 ^ 8.8.8.8.8.8.8.8.8.8.8.8.8.8.8.=.F l b 8.8.8.8.8.8.",
"K.8.8.8.8.8.8.8.8.8.8.8.8.8.8.e.M.].w.8.8.8.8.8.8.8.8.8.8.8.8.8.8.8.0.t.x.w.8.8.8.8.8.8.8.8.8.8.8.8.8.8.8.8.u.x.w.8.8.8.8.8.8.8.",
"L.6.G 3.8.8.8.8.8.8.8.8.8.8.8.S.M.!.a.8.5.J 3.8.8.8.8.8.8.8.8.8.8.8.s.M.a.C.8.5.t 5.8.8.8.8.8.8.8.8.8.8.8.8.].s.].8.5.d -.5.8.8.",
"j.2 S > 8.8.8.8.;.3.8.8.8.8.8.8.8.8.8.8.7 U - 8.8.8.8.8.@.8.8.8.8.8.8.8.8.8.8.i , 8 3.8.8.8.8.#.8.8.8.8.8.8.8.8.8.8.S 5 m Q 8.8.",
"K.3.8.8.8.8.8.N m D / 8.8.8.8.8.8.8.8.8.4.8.6.8.8.8.;.d F n 8.8.8.8.8.8.8.8.8.5.6.5.8.8.8.8.p o.l 8.8.8.8.8.8.8.8.8.6.5.5.8.8.8."
};
