/* XPM */
static char *result[] = {
/* columns rows colors chars-per-pixel */
"64 64 227 2 ",
"   c black",
".  c gray16",
"X  c #633108",
"o  c #42424A",
"O  c #C52119",
"+  c #9C5200",
"@  c #E65A42",
"#  c #DE9400",
"$  c #F7BD21",
"%  c #F7E652",
"&  c #737384",
"*  c #4FDD90",
"=  c #50DF91",
"-  c #4FE390",
";  c #4FE590",
":  c #4EE790",
">  c #4FE791",
",  c #4FE891",
"<  c #4FEA91",
"1  c #4FED91",
"2  c #4FEE91",
"3  c #51E091",
"4  c #50E290",
"5  c #51E391",
"6  c #50E591",
"7  c #50E691",
"8  c #51E691",
"9  c #50E791",
"0  c #51E592",
"q  c #54E791",
"w  c #50E891",
"e  c #51E891",
"r  c #50E991",
"t  c #51E991",
"y  c #50EA91",
"u  c #50EB91",
"i  c #51E992",
"p  c #52E892",
"a  c #52E992",
"s  c #51EA92",
"d  c #50EB92",
"f  c #51EB92",
"g  c #52EB92",
"h  c #50EC92",
"j  c #51EC92",
"k  c #50ED92",
"l  c #51ED92",
"z  c #52EC92",
"x  c #52ED92",
"c  c #52ED93",
"v  c #51EE92",
"b  c #50EF92",
"n  c #51EF92",
"m  c #52EE93",
"M  c #53EE93",
"N  c #52EF93",
"B  c #5BEF95",
"V  c #5BEF96",
"C  c #5FED98",
"Z  c #4FF091",
"A  c #50F092",
"S  c #51F092",
"D  c #50F192",
"F  c #51F192",
"G  c #51F193",
"H  c #52F093",
"J  c #52F193",
"K  c #50F292",
"L  c #51F292",
"P  c #50F392",
"I  c #51F392",
"U  c #51F393",
"Y  c #52F293",
"T  c #52F393",
"R  c #56F193",
"E  c #57F193",
"W  c #55F292",
"Q  c #50F492",
"!  c #51F492",
"~  c #51F493",
"^  c #51F593",
"/  c #52F493",
"(  c #52F593",
")  c #50F692",
"_  c #51F693",
"`  c #51F793",
"'  c #52F693",
"]  c #53F693",
"[  c #52F793",
"{  c #54F194",
"}  c #53F694",
"|  c #58F194",
" . c #5AF397",
".. c #50F893",
"X. c #51F893",
"o. c #51F993",
"O. c #52F893",
"+. c #52F993",
"@. c #51FA93",
"#. c #51FB93",
"$. c #52FA93",
"%. c #52FB93",
"&. c #51FC93",
"*. c #52F994",
"=. c #53F994",
"-. c #52FA94",
";. c #52FB94",
":. c #53FB94",
">. c #55FA95",
",. c #56FA95",
"<. c #51FD94",
"1. c #52FC94",
"2. c #53FC94",
"3. c #52FD94",
"4. c #52FE94",
"5. c #53FE94",
"6. c #52FF94",
"7. c #53FF94",
"8. c #53FE95",
"9. c #53FF95",
"0. c #54FE95",
"q. c #55FE95",
"w. c #54FF95",
"e. c #55FD96",
"r. c #57FC96",
"t. c #56FD96",
"y. c #57FD96",
"u. c #57FC97",
"i. c #57FD97",
"p. c #55FE96",
"a. c #56FE96",
"s. c #57FE96",
"d. c #58FC97",
"f. c #59FD97",
"g. c #58FB98",
"h. c #59FB98",
"j. c #5AFB98",
"k. c #5BFA99",
"l. c #5AFB99",
"z. c #5BFB99",
"x. c #5CFA99",
"c. c #5CFB99",
"v. c #5EFB99",
"b. c #5DF99A",
"n. c #5FF89B",
"m. c #5EF99B",
"M. c #5FF99B",
"N. c #5CFA9A",
"B. c #5DFA9A",
"V. c #5EFA9A",
"C. c #5EFA9B",
"Z. c #58FC98",
"A. c #59FC98",
"S. c #58FD98",
"D. c #5AFC98",
"F. c #5BFC98",
"G. c #5AFC99",
"H. c #58FE98",
"J. c #58FF98",
"K. c #58FE99",
"L. c #58FF99",
"P. c #5CFC98",
"I. c #5CFD98",
"U. c #5DFC99",
"Y. c #5EFC99",
"T. c #5FFC9A",
"R. c #62EB9A",
"E. c #63EB9A",
"W. c #64EA9B",
"Q. c #65E99C",
"!. c #62F79D",
"~. c #63F69E",
"^. c #63F79E",
"/. c #66F79D",
"(. c #65F59F",
"). c #66F59F",
"_. c #64F69E",
"`. c #6AF69F",
"'. c #61F99B",
"]. c #61FA9B",
"[. c #60F89C",
"{. c #61F89C",
"}. c #61F89D",
"|. c #64F89C",
" X c #64F99C",
".X c #66F89D",
"XX c #67F89D",
"oX c #64FA9C",
"OX c #68F99E",
"+X c #79EEA7",
"@X c #7AEFA8",
"#X c #7FEEAA",
"$X c #67F4A0",
"%X c #66F5A0",
"&X c #67F5A0",
"*X c #67F4A1",
"=X c #68F3A1",
"-X c #69F3A1",
";X c #69F3A2",
":X c #6AF2A2",
">X c #6AF3A2",
",X c #6CF1A3",
"<X c #6BF7A0",
"1X c #6CF5A0",
"2X c #6CF6A0",
"3X c #6DF6A0",
"4X c #6FF4A2",
"5X c #6FF6A2",
"6X c #6CF1A4",
"7X c #72F3A3",
"8X c #70F5A2",
"9X c #71F5A2",
"0X c #71F4A3",
"qX c #71F5A3",
"wX c #72F4A3",
"eX c #73F4A3",
"rX c #72F5A3",
"tX c #75F2A5",
"yX c #75F3A5",
"uX c #76F4A5",
"iX c #78F1A7",
"pX c #79F1A7",
"aX c #78F3A6",
"sX c #79F2A7",
"dX c #7BF2A8",
"fX c #7CF0A9",
"gX c #FFF7A5",
/* pixels */
" .W W W V W W W W W Q.W W W q W W W W W W W W B W W W W W R.R W W q W W W W W W W W E.W W W W W E C W W q W W W W W W W W W.| W ",
"J.6.e.!.B.N.6.6.6.>X^._.>.y F s 6.6.6.6.6.6._.i.{.6.6.6.{.).!.A.6 ' 0 6.6.6.6.6.6.}.[.!.6.6.6.z.[.%X[.s _ p 3.6.6.6.6.6.z.&Xm.N.",
"J.6.6.z.a.6.6.6.6.D.8.d.6...3.1.6.i.7.6.6.6.l.6.p.6.6.6.t.i.A.6...6.$.6.6.e.6.6.6.A.7.p.6.6.6.6.A.A.8.@.6.;.6.6.t.6.6.6.0.i.t.6.",
"J.6.6.6.6.6.6.6.6.6.6.6.6.6.6.6.B.-XB.h.6.6.6.6.6.6.6.6.6.6.6.6.6.6.6.z.u.(.h.6.6.6.6.6.6.6.6.6.6.6.6.6.6.6.t.A.$Xx.6.6.6.6.6.6.",
"J.6.6.6.6.6.6.6.6.6.6.6.6.6.6.6.i.A.j.6.6.6.6.6.6.6.6.6.6.6.6.6.6.6.6.6.t.k.0.6.6.6.6.6.6.6.6.6.6.6.6.6.6.6.6.t.i.A.6.6.6.6.6.6.",
"J.6.6.6.6.6.6.6.6.6.6.6.6.6.6.6.6.6.6.6.6.6.6.6.6.6.6.6.6.6.6.6.6.6.6.6.6.6.6.6.6.6.6.6.6.6.6.6.6.6.6.6.6.6.6.6.6.6.6.6.6.6.6.6.",
"J.6.6.6.6.6.6.6.6.6.6.6.6.6.6.6.6.6.6.6.6.6.6.6.6.6.6.6.6.6.6.6.6.6.6.6.6.6.6.6.6.6.6.6.6.6.6.6.6.6.6.6.6.6.6.6.6.6.6.6.6.6.6.6.",
"J.6.6.6.6.6.6.6.6.6.6.6.6.6.6.6.( ; ' ( 6.6.6.6.6.6.6.6.6.6.6.6.6.6.6.( { e ] 6.6.6.6.6.6.6.6.6.6.6.6.6.6.6.-.[ 3 } 6.6.6.6.6.6.",
"J.6.6.6.6.6.6.6.6.6.6.6.6.6.6.6.X.) g 6.6.6.6.6.6.6.6.6.6.6.6.6.6.6.6.6.@.K 3.6.6.6.6.6.6.6.6.6.6.6.6.6.6.6.6.@.X.) 6.6.6.6.6.6.",
"J.6.6.6.6.6.6.6.6.6.6.6.6.6.6.M.*X%XA.6.6.6.6.6.6.6.6.6.6.6.6.6.6.6.i.[.C.D.6.6.6.6.6.6.6.6.6.6.6.6.6.6.6.6._.C.D.6.6.6.6.6.6.6.",
"S.<.n ` 6.6.6.6.6.6.6.6.6.6.6.d.M.(.d.6.$.n X.6.6.6.6.6.6.6.6.6.6.6.q.M.u.[.6.$.: X.4.6.6.6.6.6.6.6.6.6.6.6.[.p.~.6.$.9 } @.6.6.",
"S.1 ` L 6.6.6.[ / +.-.6.6.6.6.6.6.6.6.6.< %.v 6.6.6.3.O.U -.6.6.6.6.6.6.6.6.6.A P n 4.6.6.6.;._ 1.6.6.6.6.6.6.6.6.6.` h ~ #.6.6.",
"J.6.6.6.6.6.6.[ T v [ 6.6.6.6.6.6.6.6.6.6.6.6.6.6.6.3.N T S 6.6.6.6.6.6.6.6.6.6.6.6.6.6.6.6.a ;.j 6.6.6.6.6.6.6.6.6.6.6.6.6.6.6.",
"J.6.6.Y.5XI.w.6.6.6.6.6.6.6.6.6.6.6.6.6.6.6.T.0X'.P.6.6.6.6.6.6.6.6.6.6.6.6.6.6.6.v..X<Xf.6.6.6.6.6.6.6.6.6.6.6.6.6.6.6.a.F.uXf.",
"J.6.6.dXwX#Xs.6.6.6.6.6.6.6.6.6.6.6.6.6.6.6.yXpX+X`.6.6.6.6.6.6.6.6.6.6.6.6.6.6.6.4X2XiX/.6.6.6.6.6.6.6.6.6.6.6.6.6.6.6.v.tXyXeX",
"J.6.6.q.w.a.6.6.6.6.6.6.6.6.6.6.6.6.6.6.6.6.7.q.a.6.6.6.6.6.6.6.6.6.6.6.6.6.6.6.6.6.9.a.6.6.6.6.6.6.6.6.6.6.6.6.6.6.6.6.6.q.7.q.",
"J.6.6.6.6.6.6.6.6.6.6.6.6.6.6.6.6.6.6.6.6.6.6.6.6.6.6.6.6.6.6.6.6.6.6.6.6.6.6.6.6.6.6.6.6.6.6.6.6.6.6.6.6.6.6.6.6.6.6.6.6.6.6.6.",
"J.6.6.6.i.6.6.6.6.6.M.6.6.6.` 6.6.6.6.6.6.6.6.i.6.6.6.6.6.B.0.6.6.` 6.6.6.6.6.6.6.6.B.6.6.6.6.6.0.j.6.6.[ 6.6.6.6.6.6.6.6.V.0.6.",
"J.6.t.u.B.b.6.6.6.!.,XV.,.( j j 6.6.6.6.6.6.j.c.M.6.6.6.B.=Xz.j.H v g 6.6.6.6.6.6.A.=X[.6.6.6.N.A._.[.J v z 3.6.6.6.6.6.A.>Xc.V.",
"J.6.6.x.t.6.6.6.6.z.0.A.6.I 1.;.6.j.8.6.6.6.z.6.t.6.6.6.i.d.j.6.I 6.+.6.8.d.6.6.6.j.7.t.6.6.6.6.j.z.0.` 6.+.6.6.j.6.6.6.0.d.t.6.",
"J.6.6.6.6.6.6.6.6.6.6.6.6.6.6.6.[.-Xn.x.6.6.6.6.6.6.6.6.6.6.6.6.6.6.6.m.d.).k.6.6.6.6.6.6.6.6.6.6.6.6.6.6.6.i.N.$Xm.6.6.6.6.6.6.",
"J.6.6.6.6.6.6.6.6.6.6.6.6.6.6.6.p.t.i.6.6.  6.        6.6.6.6.6.6.6.6.6.0.d.8.6.6.6.6.6.6.6.6.6.6.6.6.6.6.6.6.0.p.t.6.6.6.6.6.6.",
"J.6.6.6.6.6.6.6.6.6.6.6.6.6.6.6.6.6.6.6.    o o o o o   6.6.6.6.6.6.6.6.6.6.6.6.6.6.6.6.6.6.6.6.6.6.6.6.6.6.6.6.6.6.6.6.6.6.6.6.",
"J.6.6.6.6.6.6.6.6.6.6.6.6.6.6.6.6.X + . o o o o o o o 6.6.6.6.6.6.6.6.6.6.6.6.6.6.6.6.6.6.6.6.6.6.6.6.6.6.6.6.6.6.6.6.6.6.6.6.6.",
"J.6.6.6.6.6.6.6.6.6.6.6.6.6.6.6.X X $ % o & o o o     6.6.6.6.6.6.6.6.K M 7 _ 6.6.6.6.6.6.6.6.6.6.6.6.6.6.6.[ ~ * _ 6.6.6.6.6.6.",
"J.6.6.6.6.6.6.6.6.6.6.6.6.6.6.X % % % % % % % &     % $ 6.6.6.6.6.6.6.6.@.K 1.6.6.6.6.6.6.6.6.6.6.6.6.6.6.6.6.o.X.) 6.6.6.6.6.6.",
"J.6.6.6.6.6.6.6.6.6.6.6.6.6.X % % % % % % % %     gXgX% % 6.+ 6.  6.  u.l.q.6.6.6.6.6.6.6.6.6.6.6.6.6.6.6.6.d.l.q.6.6.6.6.6.6.6.",
"H.3.F *.6.6.6.6.6.6.6.6.6.X % % % % % % % %   gXgXgX% % % % + % %   o         3.w -.6.6.6.6.6.6.6.6.6.6.6.6.[.p.{.6.1.r =.;.6.6.",
"S.1 ^ x 6.6.6.#.[ $.1.6.6.X % % % % % X # X % % % % % % % % % + % & o o o o o   l g 4.6.6.6.1.X.3.6.6.6.6.6.6.6.6.6./ t T O.6.6.",
"J.6.6.6.6.6.6.! H Z ^ 6.6.X % # % X X % % % % % % % % % % % % + % % & o o o o o . 6.6.6.6.+ + + 1 6.6.6.6.6.6.6.6.6.6.6.6.6.6.6.",
"J.6.6.6.oX6.6.6.6.6.6.6.X $ % % % % % % % % % % % % % % % % % % + % o o o o o o   6.U.].+ % % % + 6.6.6.6.6.6.6.6.6.6.6.6.6.OX6.",
"J.6.6.yX8X@Xq.6.6.6.6.6.X $ % % % % % % % % % % % % % % % % % % +   o   o           + % % % % % % + 6.6.6.6.6.6.6.6.6.6.f.4XrX9X",
"J.6.6.0.5.q.6.6.6.6.6.X @ $ $ % % % % % % % % % % % % % % % % % + 6.6.6.  6.6.6.  % % % % % % % + 6.6.6.6.6.6.6.6.6.6.6.6.8.7.0.",
"J.6.6.6.6.6.6.6.6.6.6.  O $ $ $ % % % % % % % % % % % % % % % $ + 6.6.6.6.6.6.  % % % % % % % % % + 6.6.6.6.6.6.6.6.6.6.6.6.6.6.",
"J.6.6.6.p.6.6.6.6.6.D.  O @ $ $ $ $ $ % % % % % % % % % % $ $ $ $ + 6.6.+ % % % % % % % % % % % % + 6.6.%.6.6.6.6.6.6.6.6.A.8.6.",
"J.6.i.b.M.{.6.6.6.;X6X^.  @ $ $ $ $ $ $ $ $ % $ % $ % $ $ $ $ $ $ + y + $ % % % % % % % % % % % + + _.F n d 3.6.6.6.6.6.z.,Xm.{.",
"J.6.6.z.a.6.6.6.6.D.0.    $ $ $ $ $ $ $ $ $ $ % $ % $ $ $ $ $ $ $ X + $ $ $ % % % % % % % % % % % D.0.@.6.;.6.6.e.6.6.6.0.i.t.6.",
"J.6.6.6.6.6.6.6.6.6.6.  %   $ $ $ $ $ $ $ $ $ $ $ $ $ $ $ $ $ $ X $ $ $ $ $ $ % % % % % % % % % % + 6.6.6.6.t.l.=Xx.6.6.6.6.6.6.",
"J.6.6.6.6.6.6.6.6.6.6.  % $   $ $ $ $ $ $ $ $ $ $ $ $ $ $ $ $ $ $ $ $ $ $ $ $ $ % % % % % % % % % + 6.6.6.6.6.d.j.B.6.6.6.6.6.6.",
"J.6.6.6.6.6.6.6.6.6.6.6.X $   $ $ $ $ $ $ $ $ $ $ $ $ $ $ $ $ $ $ X $ $ $ $ $ $ $ % % % % % %     6.6.6.6.6.6.6.6.6.6.6.6.6.6.6.",
"J.6.6.6.6.6.6.6.6.6.6.6.X $ $ $ $ $ $ $ $ $ $ $ $ $ # + + + + + # $ X $ $ $ $ $ $ $ %         6.6.6.6.6.6.6.6.6.6.6.6.6.6.6.6.6.",
"J.6.6.6.6.6.6.6.6.6.6.6.X $ $ $ $ $ $ $ $ $ $ # + + + + + + + + + + X $ $ $ $         6.6.6.6.6.6.6.6.6.6.6.*.' = [ 6.6.6.6.6.6.",
"J.6.6.6.6.6.6.6.6.6.6.6.X $ $ $ + $ $ $ $ $ + + + + + # # # # # + + + X $ + ^ 6.6.6.6.6.6.6.6.6.6.6.6.6.6.6.+.F k b 6.6.6.6.6.6.",
"J.6.6.6.6.6.6.6.6.6.6.6.6.X $ $ + $ $ $ # + + + # $ $ $ $ $ $ $ $ $   # $ + X 6.6.6.6.6.6.6.6.6.6.6.6.6.6.6.D.l.p.6.6.6.6.6.6.6.",
"H.3.S X.6.6.6.6.6.6.6.6.6.6.X X X $ $ $ $ $ $ $ $ $ # + + + + + X   # $ $ $ X ;.: o.4.6.6.6.6.6.6.6.6.6.6.6.}.p._.6.;.w } #.6.6.",
"S.h ` L 6.6.6.O./ +.;.6.6.6.6.+ % $ $ $ $ $ $ # + + + + + +   # # # # $ $ $ $ X K v 4.6.6.6.;._ 1.6.6.6.6.6.6.6.6.6._ f / #.6.6.",
"J.6.6.6.6.6.6.b c 2 L 6.6.6.X + % $ $ $ $ $ + + + + + + + #     # # #   # X   6.6.6.6.6.6.6.5 o.< 6.6.6.6.6.6.6.6.6.6.6.6.6.6.6.",
"J.6.6.6.XX6.6.6.6.6.6.6.6.6.  % % $ $ $ # + + + # # $ $ $ $ $   # #   $   X 6.6.6.6.v. X6.6.6.6.6.6.6.6.6.6.6.6.6.6.6.6.6.6.3X6.",
"J.6.6.aXrXfXa.6.6.6.6.6.6.6.  % $ $ $ $ $ $ $ $ $ $ $ $ $ $ $ $   + +   $ X 6.6.6.1X2XsX|.6.6.6.6.6.6.6.6.6.6.6.6.6.6.6.P.7XuXqX",
"J.6.6.q.w.y.6.6.6.6.6.6.6.6.  % $ $ $ $ $ $ $ $ $ $ $ $ $ $ $     + +   $ X 6.6.6.6.w.s.6.6.6.6.6.6.6.6.6.6.6.6.6.6.6.6.6.q.9.a.",
"J.6.6.6.6.6.6.6.6.6.6.6.6.6.  $ $ $ $ $ $ $ $ $ $ $ $ $ $ $ + + + + +   $ X 6.6.6.6.6.6.6.6.6.6.6.6.6.6.6.6.6.6.6.6.6.6.6.6.6.6.",
"J.6.6.6.8.6.6.6.6.6.q.6.6.6.  $ $ $ $ $ $ $ $ $ $ $ $ $ $ $ #   +     $ X 6.6.6.6.6.0.6.6.6.6.6.6.0.6.6.:.6.6.6.6.6.6.6.6.e.7.6.",
"J.6.e.u.B.B.6.6.6.}.,XB.,.X.j   $ $ $ $ $ $ $ $ $ $ $ $ $ $ $ $   $ $ $   6.6.6.6.A.-XM.6.6.6.z.A._.M.T z z 3.6.6.6.6.6.d.:Xc.B.",
"J.6.6.m.i.6.6.6.6.B.0.z.6.P X % # % # # # + X               # # # # X 6.7.0.6.6.6.z.7.t.6.6.6.6.x.B.0.` 6.+.6.6.e.6.6.6.0.A.y.6.",
"J.6.6.6.6.6.6.6.6.6.6.6.6.6.6.              6.6.6.6.6.6.6.6.        6.D.r.%Xd.6.6.6.6.6.6.6.6.6.6.6.6.6.6.6.t.i.,Xd.6.6.6.6.6.6.",
"L.6.6.6.6.6.6.6.6.6.6.6.6.6.6.6.G.B.M.6.6.6.6.6.6.6.6.6.6.6.6.6.6.6.6.6.Z.{.p.6.6.6.6.6.6.6.6.6.6.6.6.6.6.6.6.Z.j.B.6.6.6.6.6.6.",
"J.6.6.6.6.6.6.6.6.6.6.6.6.6.6.6.6.6.6.6.6.6.6.6.6.6.6.6.6.6.6.6.6.6.6.6.6.6.6.6.6.6.6.6.6.6.6.6.6.6.6.6.6.6.6.6.6.6.6.6.6.6.6.6.",
"L.6.6.6.6.6.6.6.6.6.6.6.6.6.6.6.6.6.6.6.6.6.6.6.6.6.6.6.6.6.6.6.6.6.6.6.6.6.6.6.6.6.6.6.6.6.6.6.6.6.6.6.6.6.6.6.6.6.6.6.6.6.6.6.",
"J.6.6.6.6.6.6.6.6.6.6.6.6.6.6.6.&.k $.1.6.6.6.6.6.6.6.6.6.6.6.6.6.6.6.%.} v 1.6.6.6.6.6.6.6.6.6.6.6.6.6.6.6.3.1.i 1.6.6.6.6.6.6.",
"L.6.6.6.6.6.6.6.6.6.6.6.6.6.6.6.D 1 8 ' 6.6.6.6.6.6.6.6.6.6.6.6.6.6.6._ Y < ^ 6.6.6.6.6.6.6.6.6.6.6.6.6.6.6.*.F k b 6.6.6.6.6.6.",
"J.6.6.6.6.6.6.6.6.6.6.6.6.6.6.q.m.[.0.6.6.6.6.6.6.6.6.6.6.6.6.6.6.6.8.e.l.0.6.6.6.6.6.6.6.6.6.6.6.6.6.6.6.6.t.l.0.6.6.6.6.6.6.6.",
"K.4.G 1.6.6.6.6.6.6.6.6.6.6.6.A.m.!.i.6.3.J 1.6.6.6.6.6.6.6.6.6.6.6.p.m.i.V.6.3.r 3.6.6.6.6.6.6.6.6.6.6.6.6.[.p.[.6.3.s =.3.6.6.",
"g.1 S > 6.6.6.6.-.1.6.6.6.6.6.6.6.6.6.6.6 U - 6.6.6.6.6.+.6.6.6.6.6.6.6.6.6.6.u , 7 1.6.6.6.6.@.6.6.6.6.6.6.6.6.6.6.S 4 m Q 6.6.",
"J.1.6.6.6.6.6.N m D / 6.6.6.6.6.6.6.6.6.2.6.4.6.6.6.-.s F n 6.6.6.6.6.6.6.6.6.3.4.3.6.6.6.6.i X.k 6.6.6.6.6.6.6.6.6.4.3.3.6.6.6."
};
