/* XPM */
static char *a4872c0224b44deb9828cbaf78983762SnrkPP5Zv8wHmUuV[] = {
/* columns rows colors chars-per-pixel */
"64 64 86 1 ",
"  c black",
". c gray16",
"X c #633108",
"o c #42424A",
"O c #C52119",
"+ c #9C5200",
"@ c #E65A42",
"# c #DE9400",
"$ c #F7BD21",
"% c #F7E652",
"& c #737384",
"* c #4FDD90",
"= c #50DF91",
"- c #4FE390",
"; c #4EE590",
": c #4FE590",
"> c #4FE891",
", c #4FEE91",
"< c #51E091",
"1 c #50E290",
"2 c #51E592",
"3 c #54E791",
"4 c #50E891",
"5 c #50EA91",
"6 c #52EB92",
"7 c #51EF92",
"8 c #52EF93",
"9 c #5BEF96",
"0 c #4FF192",
"q c #52F193",
"w c #51F393",
"e c #57F193",
"r c #55F292",
"t c #52F593",
"y c #50F793",
"u c #53F693",
"i c #53F694",
"p c #58F194",
"a c #5AF397",
"s c #52FB93",
"d c #53F994",
"f c #52FB94",
"g c #56FA95",
"h c #52FE94",
"j c #52FF94",
"k c #53FF94",
"l c #55FD96",
"z c #58FC97",
"x c #58FB98",
"c c #5BFB99",
"v c #5FF89B",
"b c #5DFA9A",
"n c #58FE98",
"m c #58FF98",
"M c #5CFD98",
"N c #5EFC99",
"B c #5FF99C",
"V c #62EB9A",
"C c #63EB9A",
"Z c #64EA9B",
"A c #65E99C",
"S c #62F79D",
"D c #64F69E",
"F c #6AF69F",
"G c #61F99B",
"H c #61F89C",
"J c #67F89D",
"K c #64FA9C",
"L c #68F99E",
"P c #79EEA7",
"I c #7FEEAA",
"U c #67F5A0",
"Y c #68F3A1",
"T c #6AF3A2",
"R c #6BF7A0",
"E c #6FF4A2",
"W c #6CF1A4",
"Q c #6DF1A4",
"! c #73F4A3",
"~ c #72F5A3",
"^ c #75F2A5",
"/ c #76F4A5",
"( c #78F1A7",
") c #7BF2A8",
"_ c #7CF0A9",
"` c #FFF7A5",
/* pixels */
"arrr9rrrrrArrr3rrrrrrrra8rrrrCrrr3rrr8rrrrArrr8eeCrr3rrrrrrrrAar",
"mjlSbbjjjTSDg5q5jjjjfjSgGlhlGDDz2s2jjjhhjHHSjjjmDDb5y5jjjjhhmYGz",
"mjjcljjjjmlxjyhsjgjjjfmjlhhhlzxh0jsjhlhhhlhljjfjcbjfjfjjghhhllgh",
"mjjjjjjjjjjjjjjjbTbcjjljhhhhhhhhjjjbzDxhhhhhjjjjhjjjjjgzTbhhhhhh",
"mjjjjjjjjjjjjjjjzczjjjjjhhhhhhhhhhhhlblhhhhhhhhhhhhhhhhllzhhhhhh",
"mjjjjjjjjjjjjjjjjjjjjjjjhhhhhhhhhhhhhhhhhhhhhhhhhhhhhhhhhhhhhhhh",
"mjjjjjjjjjjjjjjjjjjjjjjjhhhhhhhhhhhhhhhhhhhhhhhhhhhhhhhhhhhhhhhh",
"mjjjjjjjjjjjjjjjy:yqjjjjhhhhhhhhhhlyr5shhhhhhhhhhhhhhhsy2uhhhhhh",
"zhhhhhhhjjfjjjjjs,,jjjjjjjjjjfjfhhhhsqhhhhhhhhhhhhhhhhhhsyhhhhhh",
"zhhhhhhhjjjjjfhHYFmjjjjjjjjjjjjjhhlGGlhhhhhhhhhhhhhhhhDbbjhhhhhh",
"zh7yhhhhjljjjjhgHDlff7sjjjjjjfjjhhlGlHhs>0hhhhhhhhhhhhGlShs2yshh",
"z,sqhhhyyysjjjjjjjjj2s7jjjjsqsfjhhhhhhhqqqhhhhsshhhhhhhhhhy5qhhh",
"zjjjlhhsqq0jjjjjjjjjjjhhjjj7qqjjhhhhhhhhhhhhhh5g5hhhhhhhhhhhhlhh",
"mjjN!mhhjjljjjjjfjfjjjb^GcjjjjjjhhhhhhhhhMLFzhhhhhhhhhhhhhhhlz/z",
"gjj)!Igjjjjjjjjjjjjfjf^(PFjjjjjjhhhhhhhhh!F(KhhhhhhhhhhhhhhhN^/!",
"mjjllljfjjjjjjjjfjjjjjjlgjjjjjjjhhhhhhhhhhhjlhhhhhhhhhhhhhhhhlhl",
"mjjjjfjjhhhhhhjjjjjjjjjfjjjjjjjjjljjjjjjhhhhjjjjhhhhjjfjfjhhhhhh",
"mjjjxjfjhhbhhhslfjfjfjjljjjjjbjjjyjjjjjjhhbhjjjjlNhhyjjjjjhhhblh",
"mjllbbjjjSWbgs7>jjjjjjbbHjjjbTlb775jjjjjhlTGjjjbmHbq77jjfhhhzYNb",
"mjlbgjfjjblghqssjgljfjmjljjjzzbjqlsjlzjjjmlljjjjmNl0jffjchhhlzlh",
"xfjfjjjfhhhhhhhhGTSbjfjjjjjjjjjjhhhbzDbjjjjjjjjjljjjjflbDGhhhhhh",
"mjjjjjjjhhhhhhhhllljjjfjjjjjjjjjhhhh    j jjjjjjjjfjjjjgllhhhhhh",
"mjjjjfjfhhhhhhhhhhjfjjjjjjjjjjjjjjh ooooo  jjjjjjjjjjjjjlhhhhhhh",
"mjfjjjjjhhhhhhhhhhjjfjfjjjjjjjjjjjjjooooooo.+Xjjfjfjfjfjhhhhhhhh",
"mjjjfjjjjjjjhhhh0>yqhhhhhhhhjjjjjjjq  ooo&o%$XXjhhhhhhyq*shhhhhh",
"mjjjjjjfjfjfhhhhyy>hhhhhhhhhjjjjjjj$%  &%%%%%%%Xhhhhhhhhsyhhhhhh",
"gjjjfjfjfjjjhhhcGGlhhhjjjjhh j j+j%%``  %%%%%%%%Xhhhhhxzlhhhhhhh",
"mjqfjjjjjjjfhhhmbHlhl7fj    o %%+%%%%``` %%%%%%%%XhhhhGlHhh2shhh",
"m,y5ljfjffjfjjjjjjjj5s5 ooooo&%+%%%%%%%%%X#X%%%%%Xhhhhhhhhy5qshh",
"mjjjjjjy7,yjfjj+++jjjj.ooooo&%%+%%%%%%%%%%%%XX%#%Xhhhhhhhhhhhhhh",
"mjjjKjjjjjjjjj+%%%+jjj oooooo%+%%%%%%%%%%%%%%%%%%$XhhhhhhhhhhhKl",
"mjj^^^gjjfjfj+%%%%%%+     o o +%%%%%%%%%%%%%%%%%%$XhhhhhhhhhzE!!",
"xjjgjljjjjjjjj+%%%%%%% llj jjj+%%%%%%%%%%%%%%%%%$$@Xjjjjjjjjjjlj",
"gjjjjfjfjfjjj+%%%%%%%%% jjjjjj+$%%%%%%%%%%%%%%%$$$O jjjjjjjjjjjj",
"mjjjgjjjfjcjj+%%%%%%%%%%%%+jj+$$$$%%%%%%%%%%$$$$$@O fjjjjjjjjclj",
"mjlbHHjfhTWSz++%%%%%%%%%%%$+H+$$$$$$%$%$%$$$$$$$$@ q75jjjjjjmWbG",
"mjjcgjjjhllmjy%%%%%%%%%%%$$$+X$$$$$$$%$%$$$$$$$$$$  jfjjgjfjlgll",
"mjjjjfjjhhjlj+%%%%%%%%%%$$$$$$X$$$$$$$$$$$$$$$$$$ % jjlcSbjjjjjj",
"mjjjjjjjjjjjj+%%%%%%%%%$$$$$$$$$$$$$$$$$$$$$$$$$ $% jjjzbbfjfjjj",
"mjjjjfjfjfjjjj  %%%%%%$$$$$$$X$$$$$$$$$$$$$$$$$$ $Xjjjjjjjjjjjjf",
"mjjjjjjjhhhhhhhh    %$$$$$$$X$#+++++#$$$$$$$$$$$$$Xfjjjljffjjjjj",
"mjjjjjjjhhhhhhhhy:0f    $$$$X++++++++++#$$$$$$$$$$Xjjjfy=fjjjfjf",
"mjjjjjjjhhhhhhhh0720jjljl+$X+++#####+++++$$$$$+$$$Xjfjf77,jjfjjj",
"mjjjjjjjhhhhhhhlbSljjjjjX+$# $$$$$$$$$#+++#$$$+$$Xjfjjmcljjfjjjf",
"xjqfjjjjhhhhhhhxSDgjj70jX$$$# X+++++#$$$$$$$$$XXXjfjjjHlDjs-ysjj",
"x5y8jjjfqshhhhhjjjjj2sqX$$$$#### ++++++#$$$$$$%+jjjjjjjjjj07ygjj",
"zhjjjjj7q7qhhhfjjjjfjjjj X# ###  #+++++++$$$$$%+Xjfjjjjjjjfjfjjj",
"zhjjDjjjhhhhhhjjjfjjfjjFzX $ ## $$$$$##+++#$$$%% fjjjjjjjjjjjjEj",
"mjj(!)ljjjjjjjjjjjjjjj/^^X$ ++ $$$$$$$$$$$$$$$$% jjjjfjfjjjfc!^!",
"mjjllgjjjjjjjjjjjjjjjjlgcX$ ++  $$$$$$$$$$$$$$$% jjjjjjjfjjjjljl",
"xjjjjjjjjjjjjjjjjjjjjjjjjX$ +++++$$$$$$$$$$$$$$$ jjjjjjjjfjfjjjj",
"xfjjjjjjjjljjjjjjjjjjjjljjX$  + #$$$$$$$$$$$$$$$ ljjgjjjjjjjjllj",
"zhllbbjjjSTbgy75jjjjjjmbbl $$$ $$$$$$$$$$$$$$$$ mDbq75jjhhhhgTbb",
"zhjHmjjjjblcjqfgjljjjjbhljjfX####       X+###%#%Xblyjgjjlhhhlmlh",
"mjjjjjjjjjjjjjjjmWgbjjhhjjfjj    jjmjUmjj       jjjjjjggExhhhhhh",
"mjjjjjjjjjjjjjjjbbbjjjhhjjjjjjjjjjjjcSljjjjjjjjjjjjjjjjxgbhhhhhh",
"mjjjjjjjjjjjjjjjhhhhhhhhhhhhhhhhjjjjjjjjjjjjjjjjjjjjjjjjjjjjjjjj",
"mjjjjjjjjjjjjjjjhhhhhhhhhhhhhhhhjjjjjjjjjjjjjjjjjjjjjjjjfjjjjjjj",
"mjjjjjjjjjjjjjjjs,shhhhhhhhhhhhhjjjfy7jjjjjjjjjjjjjjjjjf5fjjjjjj",
"mjjjjjjjjjjjjjjj0,2yhhhhhhhhhhhhjjjy85qjjjjjjjjjjjjjjjg777jjjjjj",
"mjjjjjjjhhhhjjjlbShhhhhhhhhhhhhhhhlgmllhjjjjjjjjjjjjjjlmlfjjjjjf",
"mj8fjjjjhhhhjjhxGGchh7hhhhhhhhhhhhlbmbhh>jjjjjjjjjjjjjSlbjj:gjjj",
"c,8:jjjjhshhhhhhhhhh2q-hhhhhshhhhhhhhhh5-:jjjjjsjjjjjjjjjj82q,jf",
"mjjjjjj777shhhhhhhhhhhhhhhh>qqhhhhhhhhhhjfjjjj2j>jjjjjjjjjjjjjjj"
};
