/* XPM */
static char *result[] = {
/* columns rows colors chars-per-pixel */
"64 64 234 2 ",
"   c black",
".  c gray16",
"X  c #633108",
"o  c #42424A",
"O  c #C52119",
"+  c #9C5200",
"@  c #E65A42",
"#  c #DE9400",
"$  c #F7BD21",
"%  c #F7E652",
"&  c #737384",
"*  c #4FDD90",
"=  c #50DF91",
"-  c #4FE390",
";  c #4EE590",
":  c #4FE590",
">  c #4EE790",
",  c #4FE791",
"<  c #4FE891",
"1  c #4FEA91",
"2  c #4FEC91",
"3  c #4FED91",
"4  c #4FEE91",
"5  c #51E091",
"6  c #50E290",
"7  c #50E591",
"8  c #50E691",
"9  c #51E691",
"0  c #50E791",
"q  c #51E592",
"w  c #51E792",
"e  c #54E791",
"r  c #50E891",
"t  c #51E891",
"y  c #50E991",
"u  c #51E991",
"i  c #50EA91",
"p  c #50EB91",
"a  c #51E992",
"s  c #52E892",
"d  c #51EA92",
"f  c #50EB92",
"g  c #51EB92",
"h  c #52EB92",
"j  c #50EC92",
"k  c #51EC92",
"l  c #50ED92",
"z  c #51ED92",
"x  c #52EC92",
"c  c #52ED92",
"v  c #52ED93",
"b  c #51EE92",
"n  c #50EF92",
"m  c #51EF92",
"M  c #52EE93",
"N  c #52EF93",
"B  c #5BEF95",
"V  c #5BEF96",
"C  c #5FED98",
"Z  c #4FF091",
"A  c #4FF192",
"S  c #50F092",
"D  c #51F092",
"F  c #50F192",
"G  c #51F192",
"H  c #51F193",
"J  c #52F093",
"K  c #52F193",
"L  c #50F292",
"P  c #51F292",
"I  c #50F392",
"U  c #51F392",
"Y  c #51F393",
"T  c #52F293",
"R  c #52F393",
"E  c #56F193",
"W  c #57F193",
"Q  c #55F292",
"!  c #50F492",
"~  c #51F492",
"^  c #51F493",
"/  c #51F593",
"(  c #52F493",
")  c #52F593",
"_  c #50F692",
"`  c #51F693",
"'  c #50F793",
"]  c #51F793",
"[  c #52F693",
"{  c #53F693",
"}  c #52F793",
"|  c #54F194",
" . c #53F694",
".. c #58F194",
"X. c #5AF397",
"o. c #50F893",
"O. c #51F893",
"+. c #51F993",
"@. c #52F893",
"#. c #52F993",
"$. c #51FA93",
"%. c #51FB93",
"&. c #52FA93",
"*. c #52FB93",
"=. c #51FC93",
"-. c #52F994",
";. c #53F994",
":. c #52FA94",
">. c #52FB94",
",. c #53FB94",
"<. c #55FA95",
"1. c #56FA95",
"2. c #57F896",
"3. c #51FD94",
"4. c #52FC94",
"5. c #53FC94",
"6. c #52FD94",
"7. c #52FE94",
"8. c #53FE94",
"9. c #52FF94",
"0. c #53FF94",
"q. c #53FE95",
"w. c #53FF95",
"e. c #54FE95",
"r. c #55FE95",
"t. c #54FF95",
"y. c #55FD96",
"u. c #57FC96",
"i. c #56FD96",
"p. c #57FD96",
"a. c #57FC97",
"s. c #57FD97",
"d. c #55FE96",
"f. c #56FE96",
"g. c #57FE96",
"h. c #58FD96",
"j. c #58FC97",
"k. c #59FD97",
"l. c #5AFC97",
"z. c #58FB98",
"x. c #59FB98",
"c. c #5AFB98",
"v. c #5BFA99",
"b. c #5AFB99",
"n. c #5BFB99",
"m. c #5CFA99",
"M. c #5CFB99",
"N. c #5EFB99",
"B. c #5DF99A",
"V. c #5EF99B",
"C. c #5FF99B",
"Z. c #5CFA9A",
"A. c #5DFA9A",
"S. c #5CFB9A",
"D. c #5EFA9A",
"F. c #5EFA9B",
"G. c #58FC98",
"H. c #59FC98",
"J. c #58FD98",
"K. c #5AFC98",
"L. c #5BFC98",
"P. c #5AFC99",
"I. c #58FE98",
"U. c #58FF98",
"Y. c #58FE99",
"T. c #58FF99",
"R. c #5CFC98",
"E. c #5CFD98",
"W. c #5EFC99",
"Q. c #5FFC9A",
"!. c #5FF99C",
"~. c #62EB9A",
"^. c #63EB9A",
"/. c #64EA9B",
"(. c #65E99C",
"). c #62F79D",
"_. c #63F69E",
"`. c #63F79E",
"'. c #66F79D",
"]. c #65F59F",
"[. c #66F59F",
"{. c #64F69E",
"}. c #68F79E",
"|. c #6AF69F",
" X c #61F99B",
".X c #60F89C",
"XX c #61F89C",
"oX c #60F99C",
"OX c #61F89D",
"+X c #66F89D",
"@X c #67F89D",
"#X c #64FA9C",
"$X c #68F89E",
"%X c #68F99E",
"&X c #79EEA7",
"*X c #78EFA7",
"=X c #7AEFA8",
"-X c #7FEEAA",
";X c #67F4A0",
":X c #66F5A0",
">X c #67F5A0",
",X c #67F4A1",
"<X c #68F3A1",
"1X c #69F3A1",
"2X c #69F3A2",
"3X c #6AF2A2",
"4X c #6AF3A2",
"5X c #6CF1A3",
"6X c #6BF7A0",
"7X c #6CF6A0",
"8X c #6DF6A0",
"9X c #6FF4A2",
"0X c #6FF6A2",
"qX c #6CF1A4",
"wX c #6DF1A4",
"eX c #72F3A3",
"rX c #70F5A2",
"tX c #71F5A2",
"yX c #71F4A3",
"uX c #71F5A3",
"iX c #72F4A3",
"pX c #73F4A3",
"aX c #72F5A3",
"sX c #75F2A5",
"dX c #75F3A5",
"fX c #76F4A5",
"gX c #78F1A7",
"hX c #79F1A7",
"jX c #78F3A6",
"kX c #7AF1A8",
"lX c #7BF2A8",
"zX c #7CF0A9",
"xX c #FFF7A5",
"cX c white",
/* pixels */
"X.Q Q Q V Q Q Q Q Q (.Q Q Q e Q Q Q Q Q Q Q Q B Q Q Q Q Q ~.E Q Q e Q Q Q Q Q Q Q Q ^.Q Q Q Q Q W C Q Q e Q Q Q Q Q Q Q Q /...Q ",
"U.9.y.).A.Z.9.9.9.4X`.{.<.i G d 9.9.9.9.9.9.{.s.XX9.9.9.XX[.).H.7 [ q 9.9.9.9.9.9.OX.X).9.9.9.n..X:X.Xd ` s 6.9.9.9.9.9.n.>XV.Z.",
"U.9.9.n.f.9.9.9.9.K.q.j.9.o.6.4.9.s.0.9.9.9.b.9.d.9.9.9.i.s.H.9.o.9.&.9.9.y.9.9.9.H.0.d.9.9.9.9.H.H.q.$.9.>.9.9.i.9.9.9.e.s.i.9.",
"U.9.9.9.9.9.9.9.9.9.9.9.9.9.9.9.A.1XA.x.9.9.9.9.9.9.9.9.9.9.9.9.9.9.9.n.a.].x.9.9.9.9.9.9.9.9.9.9.9.9.9.9.9.i.H.;Xm.9.9.9.9.9.9.",
"U.9.9.9.9.9.9.9.9.9.9.9.9.9.9.9.s.H.c.9.9.9.9.9.9.9.9.9.9.9.9.9.9.9.9.9.i.v.e.9.9.9.9.9.9.9.9.9.9.9.9.9.9.9.9.i.s.H.9.9.9.9.9.9.",
"U.9.9.9.9.9.9.9.9.9.9.9.9.9.9.9.9.9.9.9.9.9.9.9.9.9.9.9.9.9.9.9.9.9.9.9.9.9.9.9.9.9.9.9.9.9.9.9.9.9.9.9.9.9.9.9.9.9.9.9.9.9.9.9.",
"U.9.9.9.9.9.9.9.9.9.9.9.9.9.9.9.9.9.9.9.9.9.9.9.9.9.9.9.9.9.9.9.9.9.9.9.9.9.9.9.9.9.9.9.9.9.9.9.9.9.9.9.9.9.9.9.9.9.9.9.9.9.9.9.",
"U.9.9.9.9.9.9.9.9.9.9.9.9.9.9.9.) : [ ) 9.9.9.9.9.9.9.9.9.9.9.9.9.9.9.) | t { 9.9.9.9.9.9.9.9.9.9.9.9.9.9.9.:.} 5  .9.9.9.9.9.9.",
"U.9.9.9.9.9.9.9.9.9.9.9.9.9.9.9.O._ h 9.9.9.9.9.9.9.9.9.9.9.9.9.9.9.9.9.$.L 6.9.9.9.9.9.9.9.9.9.9.9.9.9.9.9.9.$.O._ 9.9.9.9.9.9.",
"U.9.9.9.9.9.9.9.9.9.9.9.9.9.9.C.,X:XH.9.9.9.9.9.9.9.9.9.9.9.9.9.9.9.s..XF.K.9.9.9.9.9.9.9.9.9.9.9.9.9.9.9.9.{.F.K.9.9.9.9.9.9.9.",
"J.3.m ] 9.9.9.9.9.9.9.9.9.9.9.j.C.].j.9.&.m O.9.9.9.9.9.9.9.9.9.9.9.r.C.a..X9.&.> O.7.9.9.9.9.    9.9.9.9.9..Xd._.9.&.0  .$.9.9.",
"J.3 ] P 9.9.9.} ( #.:.9.9.9.9.9.9.9.9.9.1 *.b 9.9.9.6.@.Y :.9.9.9.9.9.9.9.9.9.S I m 7.9.9.9.>.  .   9.9.9.9.9.9.9.9.] j ^ %.9.9.",
"U.9.9.9.9.9.9.} R b } 9.9.9.9.9.9.9.9.9.9.9.9.9.9.9.6.N R D 9.9.9.9.9.9.9.9.9.9.9.9.9.9.9.9.  . .   9.9.9.9.9.9.9.9.9.9.9.9.9.9.",
"U.9.9.W.0XE.t.9.9.9.9.9.9.9.9.9.9.9.9.9.9.9.Q.yX XR.9.9.9.9.9.9.9.9.9.9.9.9.9.9.9.N.+X6Xk.9.  . .   9.9.9.9.9.9.9.9.9.9.f.L.fXk.",
"U.9.9.lXiX-Xg.9.9.9.9.9.9.9.9.9.9.9.9.9.9.9.dXhX&X|.9.9.9.9.9.9.9.9.9.9.9.9.9.9.9.9X7XgX'.9.X . . .   9.9.9.9.9.9.9.9.9.N.sXdXpX",
"U.9.9.r.t.f.9.9.9.9.9.9.9.9.9.9.9.9.9.9.9.9.0.r.f.. . . . 9.9.9.9.9.9.9.9.9.9.9.9.9.w.f.9.9.X $ . .   9.9.9.9.9.9.9.9.9.9.r.0.r.",
"U.9.9.9.9.9.9.9.9.9.9.9.9.9.9.9.9.9.9.9.9.9.9.  . o o o o . . . 9.9.9.9.9.9.9.9.9.9.9.9.9.X $ $ o .   9.9.9.9.9.9.9.9.9.9.9.9.9.",
"U.9.9.9.s.9.9.9.9.9.C.9.9.9.] 9.9.9.9.9.9.9.9.  o o o o o % % $ + + 9.9.9.9.9.9.9.9.A.9.9.X $ $ $ o   9.} 9.9.9.9.9.9.9.9.D.e.9.",
"U.9.i.a.A.B.9.9.9.).5XD.1.) k k 9.9.9.9.9.9.c.M.  o o o o % % % % % + 9.9.9.+ + + + + .X9.X $ $ $ $   K b x 6.9.9.9.9.9.H.4XM.D.",
"U.9.9.m.i.9.9.9.9.n.e.H.9.U 4.>.9.c.q.9.9.9.n.9.i.  o o o & % % % % % + + # % % xXxXxX# + + $ $ $ $   ] 9.#.9.9.c.9.9.9.e.j.i.9.",
"U.9.9.9.9.9.9.9.9.9.9.9.9.9.9.9..X+ + m.9.9.9.9.9.9.    o o % % % % % % % % % xXxXxXxXxXxX# # $ $ X 9.9.9.9.s.Z.;XV.9.9.9.9.9.9.",
"U.9.9.9.9.9.9.9.9.9.9.9.9.9.9.9.+ % % + 9.9.9.9.9.9.9.      % % % % % % % % % % xXxXxXxXxXxX% # $ X 9.9.9.9.9.e.d.i.9.9.9.9.9.9.",
"U.9.9.9.9.9.9.9.9.9.9.9.9.9.9.+ % % % % + 9.9.9.9.9.9.9.9.9.  + # # % % $     $ % % % % % % % % + 9.9.9.9.9.9.9.9.9.9.9.9.9.9.9.",
"U.9.9.9.9.9.9.9.9.9.9.9.9.9.9.+ % % % % % # 9.9.9.9.9.9.9.9.9.9.  % % % .   cXo % % % % % % $   # X 9.9.9.9.9.9.9.9.9.9.9.9.9.9.",
"U.9.9.9.9.9.9.9.9.9.9.9.9.9.+ % % % % % % % # 9.9.9.9.9.9.9.9.9.  % % % . o     % % % % % % $ cX  X 9.9.9.9.} ^ * ` 9.9.9.9.9.9.",
"U.9.9.9.9.9.9.9.9.9.9.9.9.9.+ % % % % % % % % # # 9.9.9.9.9.9.9.+ % % % $     $ % % % # X % %   o X 9.9.9.9.9.+.O._ 9.9.9.9.9.9.",
"U.9.9.9.9.9.9.9.9.9.9.9.9.9.+ % % % % % % % % % % + 9.9.9.9.9.X # % @ @ % % % % % % % % % % % + . + 9.9.9.9.j.b.r.9.9.9.9.9.9.9.",
"I.6.G -.9.9.9.9.9.9.9.9.9.+ % % % % % % % % % % % % + 9.9.9.9.  $ O @ @ @ % % % % % # + X % % % % % X 9.9.9..Xd.XX9.4.y ;.>.9.9.",
"J.3 / c 9.9.9.%.} &.4.9.9.+ % % % % % % % % % % % % % + / 4.9.  $ O O O O $ % # + + $ $ + X # % $ @ X 9.9.9.9.9.9.9.( u R @.9.9.",
"U.9.9.9.9.9.9.~ J Z / 9.9.+ % % % % % % % % % % % % $ + I n 9.  $ O O O O $ $ $ $ $ $ $ $ $ $ $ $ O X 9.9.9.9.9.9.9.9.9.9.9.9.9.",
"U.9.9.9.#X9.9.9.9.9.9.9.9.9.  % % % % % % % % % $ $ $ $ + 9.9.  $ $ O O $ $ $ $ $ $ $ $ $ $ + + $ O X 9.9.9.9.9.9.9.9.9.9.9.%X9.",
"U.9.9.dXrX=Xr.9.9.9.9.9.9.9.9.    % % % % % $ $ $ $ $ $ $ + 9.  $ $ $ $ $ $ $ $ $ $ $ $ $ + # % + + 9.9.9.9.9.9.9.9.9.9.k.9XaXtX",
"U.9.9.e.8.r.9.9.9.9.9.9.9.9.9.9.9.    % $ $ $ $ $ $ $ $ $ + 9.X $ $ $ $ $ $ $ $ $ $ $ $ + % % % % + 9.9.9.9.9.9.9.9.9.9.9.q.0.e.",
"U.9.9.9.9.9.9.9.9.9.9.9.9.9.9.9.9.9.9.    $ $ $ $ $ $ $ X 9.  % $ $ $ $ $ $ $ $ $ $ $ $ $ # % % % +   9.9.9.9.9.9.9.9.9.9.9.9.9.",
"U.9.9.9.d.9.9.9.9.9.K.9.9.9.*.9.9.9.9.9.9.    $ $ $ $ X 9.j.$ $ $ $ $ $ $ $ $ $ $ $ $ $ $ + % % % #   9.*.9.9.9.9.9.9.9.9.H.q.9.",
"U.9.s.B.C.XX9.9.9.2XqX`.2.! z 2 9.9.9.9.9.9..X+ $ $ X 9.OX# $ % % % $ $ $ $ $ $ $ $ $ $ $ + % % % %   G m f 6.9.9.9.9.9.n.5XV.XX",
"U.9.9.n.f.9.9.9.9.K.e.H.9.' 6.4.9.i.0.9.9.9.X $ $ X 9.9.# % % % % % % % $ $ $ $ $ $ $ % % % # % % %   $.9.>.9.9.y.9.9.9.e.s.i.9.",
"U.9.9.9.9.9.9.9.9.9.9.9.9.9.9.9.C.3XB.c.9.9.X $ $ #   9.# % % % % % % % % % % % % % % % % % + % % # 9.9.9.9.i.b.<Xm.9.9.9.9.9.9.",
"U.9.9.9.9.9.9.9.9.9.9.9.9.9.9.9.K.A.C.9.9.X $ $ $ $ # + % % % % % $ % % % % % % % % % % % % % % %   9.9.9.9.9.j.c.A.9.9.9.9.9.9.",
"U.9.9.9.9.9.9.9.9.9.9.9.9.9.9.9.9.9.9.9.9.  X # $ # # + % % % % $ # % % % % % % % % % % % % % % %   9.9.9.9.9.9.9.9.9.9.9.9.9.9.",
"U.9.9.9.9.9.9.9.9.9.9.9.9.9.9.9.9.9.9.9.9.9.9.X X # + % % % % % + % % % % % % % % % % % % % % % %   9.9.9.9.9.9.9.9.9.9.9.9.9.9.",
"U.9.9.9.9.9.9.9.9.9.9.9.9.9.9.9./ ; [ [ 9.9.9.9.9.    # % % % + % % % % % % % % % % % % % % % % %   9.9.9.9.-.[ = } 9.9.9.9.9.9.",
"U.9.9.9.9.9.9.9.9.9.9.9.9.9.9.9.A 3 w ` 9.9.9.9.  + +   % # + $ % % % % % % % % % % % % % % % % %   9.9.9.9.#.G l n 9.9.9.9.9.9.",
"U.9.9.9.9.9.9.9.9.9.9.9.9.9.9.s.!..Xr.9.9.9.9.  + +   9.+ + $ $ % % % % % % % % % % % % % % % % % %   9.9.9.K.b.d.9.9.9.9.9.9.9.",
"I.6.D O.9.9.9.9.9.9.9.9.9.9.9.H.oX[.j.9.>.D O.  + + +     $ $ $ $ % % % % % % % % % % % % % % % % % + 9.9.9.OXd.{.9.>.r  .%.9.9.",
"J.j ] P 9.9.9.@.( #.>.9.9.9.9.9.9.9.9.9.y *.z 9.    + X X $ $ $ $ % $ % % % % % % % % % % % % % % % $   9.9.9.9.9.9.` g ( %.9.9.",
"U.9.9.9.9.9.9.n v 4 P 9.9.9.9.9.9.9.9.9.9.9.9.9.9.9.    $ $ $ $ % $ % $ % % % % % % % % % % % % % $ $   9.9.9.9.9.9.9.9.9.9.9.9.",
"U.9.9.9.@X9.9.9.9.9.9.9.9.9.9.9.9.9.9.9.9.9.9.}.l.9.9.  $ $ $ $ $ % $ % $ $ $ % % % % % % % $ $ $ $ $   9.9.9.9.9.9.9.9.9.9.8X9.",
"U.9.9.jXaXzXf.9.9.9.9.9.9.9.9.9.9.9.9.9.9.9.uXkX*X$X9.9.X $ $ $ $ $ $ $ $ $ $ $ $ $ $ $ $ $ $ $ $ $ + 9.9.9.9.9.9.9.9.9.R.eXfXuX",
"U.9.9.r.t.p.9.9.9.9.9.9.9.9.9.9.9.9.9.9.9.9.w.f.h.9.9.9.  # $ $ $ $ $ $ $ $ $ $ $ $ $ $ $ $ $ $ $ $   9.9.9.9.9.9.9.9.9.9.r.w.f.",
"U.9.9.9.9.9.9.9.9.9.9.9.9.9.9.9.9.9.9.9.9.9.9.9.9.9.9.9.9.  # $ $ $ $ $ $ $ X         # # $ $ $     9.9.9.9.9.9.9.9.9.9.9.9.9.9.",
"U.9.9.9.q.9.9.9.9.9.r.9.9.9.4.9.9.9.9.9.9.9.9.e.9.9.9.9.9.e.  + # # + + X   9.9.9.9.e.  + + + + # X X 9.,.9.9.9.9.9.9.9.9.y.0.9.",
"U.9.y.a.A.A.9.9.9.OX5XA.1.O.k h 9.9.9.9.9.9.c.S.V.9.9.9.m.  + $ $ $ X 9.9.9.9.9.9.H.1XC.    X # % + % X x x 6.9.9.9.9.9.j.3XM.A.",
"U.9.9.V.s.9.9.9.9.A.e.n.9.I 4.:.9.f.0.9.9.9.B.9.i.9.9.9.j.  % + %     9.0.e.9.9.9.n.0.i.9.9.9.X       ] 9.#.9.9.y.9.9.9.e.H.p.9.",
"U.9.9.9.9.9.9.9.9.9.9.9.9.9.9.9.K.wXc.H.9.9.9.9.9.9.9.9.9.9.      9.9.K.u.:Xj.9.9.9.9.9.9.9.9.9.9.9.9.9.9.9.i.s.5Xj.9.9.9.9.9.9.",
"T.9.9.9.9.9.9.9.9.9.9.9.9.9.9.9.P.A.C.9.9.9.9.9.9.9.9.9.9.9.9.9.9.9.9.9.G.XXd.9.9.9.9.9.9.9.9.9.9.9.9.9.9.9.9.G.c.A.9.9.9.9.9.9.",
"U.9.9.9.9.9.9.9.9.9.9.9.9.9.9.9.9.9.9.9.9.9.9.9.9.9.9.9.9.9.9.9.9.9.9.9.9.9.9.9.9.9.9.9.9.9.9.9.9.9.9.9.9.9.9.9.9.9.9.9.9.9.9.9.",
"T.9.9.9.9.9.9.9.9.9.9.9.9.9.9.9.9.9.9.9.9.9.9.9.9.9.9.9.9.9.9.9.9.9.9.9.9.9.9.9.9.9.9.9.9.9.9.9.9.9.9.9.9.9.9.9.9.9.9.9.9.9.9.9.",
"U.9.9.9.9.9.9.9.9.9.9.9.9.9.9.9.=.l &.4.9.9.9.9.9.9.9.9.9.9.9.9.9.9.9.*. .b 4.9.9.9.9.9.9.9.9.9.9.9.9.9.9.9.6.4.a 4.9.9.9.9.9.9.",
"T.9.9.9.9.9.9.9.9.9.9.9.9.9.9.9.F 3 9 [ 9.9.9.9.9.9.9.9.9.9.9.9.9.9.9.` T 1 / 9.9.9.9.9.9.9.9.9.9.9.9.9.9.9.-.G l n 9.9.9.9.9.9.",
"U.9.9.9.9.9.9.9.9.9.9.9.9.9.9.r.V..Xe.9.9.9.9.9.9.9.9.9.9.9.9.9.9.9.q.y.b.e.9.9.9.9.9.9.9.9.9.9.9.9.9.9.9.9.i.b.e.9.9.9.9.9.9.9.",
"Y.7.H 4.9.9.9.9.9.9.9.9.9.9.9.H.V.).s.9.6.K 4.9.9.9.9.9.9.9.9.9.9.9.d.V.s.D.9.6.y 6.9.9.9.9.9.9.9.9.9.9.9.9..Xd..X9.6.d ;.6.9.9.",
"z.3 D , 9.9.9.9.:.4.9.9.9.9.9.9.9.9.9.9.7 Y - 9.9.9.9.9.#.9.9.9.9.9.9.9.9.9.9.p < 8 4.9.9.9.9.$.9.9.9.9.9.9.9.9.9.9.D 6 M ! 9.9.",
"U.4.9.9.9.9.9.N M F ( 9.9.9.9.9.9.9.9.9.5.9.7.9.9.9.:.d G m 9.9.9.9.9.9.9.9.9.6.7.6.9.9.9.9.a O.l 9.9.9.9.9.9.9.9.9.7.6.6.9.9.9."
};
