/* XPM */
static char *result[] = {
/* columns rows colors chars-per-pixel */
"64 64 230 2 ",
"   c black",
".  c gray16",
"X  c #633108",
"o  c #42424A",
"O  c #C52119",
"+  c #9C5200",
"@  c #E65A42",
"#  c #DE9400",
"$  c #F7BD21",
"%  c #F7E652",
"&  c #737384",
"*  c #4FDD90",
"=  c #50DF91",
"-  c #4FE390",
";  c #4DE590",
":  c #4EE590",
">  c #4FE590",
",  c #4EE790",
"<  c #4FE791",
"1  c #4FE891",
"2  c #4FEA91",
"3  c #4FEC91",
"4  c #4FED91",
"5  c #4FEE91",
"6  c #51E091",
"7  c #50E290",
"8  c #50E591",
"9  c #50E691",
"0  c #51E691",
"q  c #50E791",
"w  c #51E592",
"e  c #51E792",
"r  c #54E791",
"t  c #50E891",
"y  c #51E891",
"u  c #50E991",
"i  c #51E991",
"p  c #50EA91",
"a  c #50EB91",
"s  c #51E992",
"d  c #52E892",
"f  c #51EA92",
"g  c #50EB92",
"h  c #51EB92",
"j  c #52EA92",
"k  c #52EB92",
"l  c #50EC92",
"z  c #51EC92",
"x  c #50ED92",
"c  c #51ED92",
"v  c #52EC92",
"b  c #52ED92",
"n  c #52ED93",
"m  c #51EE92",
"M  c #50EF92",
"N  c #51EF92",
"B  c #52EE93",
"V  c #52EF93",
"C  c #5BEF95",
"Z  c #5BEF96",
"A  c #5FED98",
"S  c #4FF091",
"D  c #4FF192",
"F  c #50F092",
"G  c #51F092",
"H  c #50F192",
"J  c #51F192",
"K  c #51F193",
"L  c #52F093",
"P  c #52F193",
"I  c #50F292",
"U  c #51F292",
"Y  c #50F392",
"T  c #51F392",
"R  c #51F393",
"E  c #52F293",
"W  c #52F393",
"Q  c #56F193",
"!  c #57F193",
"~  c #55F292",
"^  c #50F492",
"/  c #51F492",
"(  c #51F493",
")  c #51F593",
"_  c #52F493",
"`  c #52F593",
"'  c #50F692",
"]  c #51F693",
"[  c #50F793",
"{  c #51F793",
"}  c #52F693",
"|  c #53F693",
" . c #52F793",
".. c #54F194",
"X. c #53F694",
"o. c #58F194",
"O. c #5AF397",
"+. c #50F893",
"@. c #51F893",
"#. c #51F993",
"$. c #52F893",
"%. c #52F993",
"&. c #51FA93",
"*. c #51FB93",
"=. c #52FA93",
"-. c #52FB93",
";. c #51FC93",
":. c #52F994",
">. c #53F994",
",. c #52FA94",
"<. c #52FB94",
"1. c #53FB94",
"2. c #55FA95",
"3. c #56FA95",
"4. c #57F896",
"5. c #51FD94",
"6. c #52FC94",
"7. c #53FC94",
"8. c #52FD94",
"9. c #52FE94",
"0. c #53FE94",
"q. c #52FF94",
"w. c #53FF94",
"e. c #53FE95",
"r. c #53FF95",
"t. c #54FE95",
"y. c #55FE95",
"u. c #54FF95",
"i. c #55FD96",
"p. c #57FC96",
"a. c #56FD96",
"s. c #57FD96",
"d. c #57FC97",
"f. c #57FD97",
"g. c #55FE96",
"h. c #56FE96",
"j. c #57FE96",
"k. c #58FD96",
"l. c #58FC97",
"z. c #59FD97",
"x. c #5AFC97",
"c. c #58FB98",
"v. c #59FB98",
"b. c #5AFB98",
"n. c #5BFA99",
"m. c #5AFB99",
"M. c #5BFB99",
"N. c #5CFA99",
"B. c #5CFB99",
"V. c #5EFB99",
"C. c #5DF99A",
"Z. c #5FF89B",
"A. c #5EF99B",
"S. c #5FF99B",
"D. c #5CFA9A",
"F. c #5DFA9A",
"G. c #5CFB9A",
"H. c #5EFA9A",
"J. c #5EFA9B",
"K. c #58FC98",
"L. c #59FC98",
"P. c #58FD98",
"I. c #5AFC98",
"U. c #5BFC98",
"Y. c #5AFC99",
"T. c #58FE98",
"R. c #58FF98",
"E. c #58FE99",
"W. c #58FF99",
"Q. c #5CFC98",
"!. c #5CFD98",
"~. c #5EFC99",
"^. c #5FFC9A",
"/. c #5FF99C",
"(. c #62EB9A",
"). c #63EB9A",
"_. c #64EA9B",
"`. c #65E99C",
"'. c #62F79D",
"]. c #63F69E",
"[. c #63F79E",
"{. c #65F59F",
"}. c #66F59F",
"|. c #64F69E",
" X c #68F79E",
".X c #6AF69F",
"XX c #61F99B",
"oX c #60F89C",
"OX c #61F89C",
"+X c #60F99C",
"@X c #61F89D",
"#X c #67F89D",
"$X c #64FA9C",
"%X c #68F99E",
"&X c #79EEA7",
"*X c #78EFA7",
"=X c #7AEFA8",
"-X c #7FEEAA",
";X c #67F4A0",
":X c #66F5A0",
">X c #67F5A0",
",X c #67F4A1",
"<X c #68F3A1",
"1X c #69F3A1",
"2X c #69F3A2",
"3X c #6AF2A2",
"4X c #6AF3A2",
"5X c #6CF1A3",
"6X c #6DF6A0",
"7X c #6FF4A2",
"8X c #6FF6A2",
"9X c #6CF1A4",
"0X c #6DF1A4",
"qX c #72F3A3",
"wX c #70F5A2",
"eX c #71F5A2",
"rX c #71F4A3",
"tX c #71F5A3",
"yX c #72F4A3",
"uX c #73F4A3",
"iX c #72F5A3",
"pX c #75F2A5",
"aX c #75F3A5",
"sX c #76F4A5",
"dX c #79F1A7",
"fX c #78F3A6",
"gX c #7AF1A8",
"hX c #7BF2A8",
"jX c #7CF0A9",
"kX c #FFF7A5",
/* pixels */
"O.~ ~ ~ Z ~ ~ ~ ~ ~ `.~ ~ ~ r ~ ~ ~ ~ ~ ~ ~ ~ C ~ ~ ~ ~ ~ (.Q ~ ~ r ~ ~ ~ ~ ~ ~ ~ ~ ).~ ~ ~ ~ ~ ! A ~ ~ r ~ ~ ~ ~ ~ ~ ~ ~ _.o.~ ",
"R.q.i.'.F.D.q.q.q.4X[.|.2.p J f q.q.q.q.q.q.|.f.OXq.q.q.OX}.'.L.8 } w q.q.q.q.q.q.@XoX'.q.q.q.M.oX:XoXf ] d 8.q.q.q.q.q.M.>XA.D.",
"R.q.q.M.h.q.q.q.q.I.e.l.q.+.8.6.q.f.w.q.q.q.m.q.g.q.q.q.a.f.L.q.+.q.=.q.q.i.q.q.q.L.w.g.q.q.q.q.L.L.e.&.q.<.q.q.a.q.q.q.t.f.a.q.",
"R.q.q.q.q.q.q.q.q.q.q.q.q.q.q.q.F.1XF.v.q.q.q.q.q.q.q.q.q.q.q.q.q.q.q.M.d.{.v.q.q.q.q.q.q.q.q.q.q.q.q.q.q.q.a.L.;XN.q.q.q.q.q.q.",
"R.q.q.q.q.q.q.q.q.q.q.q.q.q.q.q.f.L.b.q.q.q.q.q.q.q.q.q.q.q.q.q.q.q.q.q.a.n.t.q.q.q.q.q.q.q.q.q.q.q.q.q.q.q.q.a.f.L.q.q.q.q.q.q.",
"R.q.q.q.q.q.q.q.q.q.q.q.q.q.q.q.q.q.q.q.q.q.q.q.q.q.q.q.q.q.q.q.q.q.q.q.q.q.q.q.q.q.q.q.q.q.q.q.q.q.q.q.q.q.q.q.q.q.q.q.q.q.q.q.",
"R.q.q.q.q.q.q.q.q.q.q.q.q.q.q.q.q.q.q.q.q.q.q.q.q.q.q.q.q.q.q.q.q.q.q.q.q.q.q.q.q.q.q.q.q.q.q.q.q.q.q.q.q.q.q.q.q.q.q.q.q.q.q.q.",
"R.q.q.q.q.q.q.q.q.q.q.q.q.q.q.q.` > } ` q.q.q.q.q.q.q.q.q.q.q.q.q.q.q.` ..y | q.q.q.q.q.q.q.q.q.q.q.q.q.q.q.,. .6 X.q.q.q.q.q.q.",
"R.q.q.q.q.q.q.q.q.q.q.q.q.q.q.q.@.' k q.q.q.q.q.q.q.q.q.q.q.q.q.q.q.q.q.&.I 8.q.q.q.    q.q.q.q.q.q.q.q.q.q.q.&.@.' q.q.q.q.q.q.",
"R.q.q.q.q.q.q.q.q.q.q.q.q.q.q.S.,X:XL.q.q.q.q.q.q.q.q.q.q.q.q.q.q.q.f.oXJ.I.q.q.q.  o o   q.q.q.q.q.q.q.q.q.|.J.I.q.q.q.q.q.q.q.",
"P.5.N { q.q.q.q.q.q.q.q.q.q.q.l.S.{.l.q.=.N @.q.q.q.q.q.q.q.q.q.q.q.y.S.d.oXq.=.,   o o o   q.q.q.q.q.q.q.q.oXg.].q.=.q X.&.q.q.",
"P.4 { U q.q.q. ._ %.,.q.q.q.q.q.q.q.q.q.2 -.m q.q.q.8.$.R ,.q.q.q.q.q.q.q.q.q.F Y   o o o   <.] 6.q.q.q.q.q.q.q.q.q.{ l ( *.q.q.",
"R.q.q.q.q.q.q. .W m  .q.q.q.q.q.q.q.q.q.q.q.q.q.q.q.8.V W G q.q.q.q.q.q.q.q.q.q.q.  o o o o   <.z q.q.q.q.q.q.q.q.q.q.q.q.q.q.q.",
"R.q.q.~.8X!.u.q.q.q.q.q.q.q.q.q.q.q.q.q.q.q.^.rXXXQ.q.q.q.q.q.q.q.q.q.q.q.q.q.q.q.  & o o o   q.q.q.q.q.q.q.q.q.q.q.q.q.h.U.sXz.",
"R.q.q.hXyX-Xj.q.q.q.q.q.q.q.q.q.q.q.q.q.q.q.aXdX&X.Xq.q.q.q.q.q.q.q.q.q.q.q.q.q.q.  % % & o   q.q.q.q.q.q.q.q.q.q.q.q.q.V.pXaXuX",
"R.q.q.y.u.h.q.q.q.q.q.q.q.q.q.q.q.q.q.q.q.q.w.      q.q.q.q.q.q.q.q.q.q.q.q.q.q.q.  % % % % . q.q.q.q.q.q.q.q.q.q.q.q.q.q.y.w.y.",
"R.q.q.q.q.q.q.q.q.q.q.q.q.q.q.q.q.q.q.q.q.  . o o o       q.q.q.q.q.q.q.q.q.q.q.q.X % % % % $ X q.q.q.q.q.q.q.q.q.q.q.q.q.q.q.q.",
"R.q.q.q.f.q.q.q.q.q.S.q.q.q.{ q.q.q.q.q.q.  o o o o o o o     q.q.{ q.q.q.q.q.q.q.X # % % % % X t.b.q.q. .q.q.q.q.q.q.q.q.H.t.q.",
"R.q.a.d.F.C.q.q.q.'.5XH.3.` z z q.q.q.q.q.q.  o o o o o & % % + + m k q.q.q.q.q.q.L.X % % % % X L.|.oXP m v 8.q.q.q.q.q.L.4XB.H.",
"R.q.q.N.a.q.q.q.q.M.t.L.q.T 6.<.q.b.e.q.q.q.M.  o o o & % % % % # + %.q.e.l.q.q.q.b.X % % % % X b.M.t.{ q.%.q.q.b.q.q.q.t.l.a.q.",
"R.q.q.q.q.q.q.q.q.q.q.q.q.q.q.q.oX1XZ.N.q.q.q.q.    o % % % % % % % # A.l.}.+ + + + + X % % % X q.q.q.q.q.q.f.D.;XA.q.q.q.q.q.q.",
"R.q.q.q.q.q.q.q.q.q.q.q.q.q.q.q.g.a.f.q.q.q.q.q.q.q.    $ % % % % % % + + + % % % % % % # % % X q.q.q.q.q.q.q.t.g.a.q.q.q.q.q.q.",
"R.q.q.q.q.q.q.q.q.q.q.q.q.q.q.q.q.q.q.q.q.+ + q.q.q.q.q.      $ % % $ $ % kXkXkX% % % % % % % X q.q.q.q.q.q.q.q.q.q.q.q.q.q.q.q.",
"R.q.q.q.q.q.q.q.q.q.q.q.q.q.q.q.q.q.q.q.+ % % + q.q.q.q.q.q.q.    + % % kXkXkXkXkX% % % % % % % X q.q.q.q.q.q.q.q.q.q.q.q.q.q.q.",
"R.q.q.q.q.q.q.q.q.q.q.q.q.q.q.q.^ ; ] + % % % % + q.q.q.q.q.q.q.+ % % % % kXkXkX% % % % % % % % X q.q.q.q.q. .( * ] q.q.q.q.q.q.",
"R.q.q.q.q.q.q.q.q.q.q.q.q.q.q.q.@.' j + % % % % % + q.q.q.q.q.+ % % % % % % % % % % % % % % % % % X q.q.q.q.q.#.@.' q.q.q.q.q.q.",
"R.q.q.q.q.q.q.q.q.q.q.q.q.q.q.s.S.oX+ % % % % % % %   q.q.q.q.+ % % % % % % % % % % % % % % % % % X q.q.q.q.l.m.y.q.q.q.q.q.q.q.",
"T.8.J :.q.q.q.q.q.q.q.q.q.q.q.L.S.[.+ % % % % % % % %   q.q.+ % % % % % % % % % % % % % % % % % % $ X q.q.q.oXg.OXq.6.u >.<.q.q.",
"P.4 ) b q.q.q.*. .=.6.q.q.q.q.q.q.q.+ % % % % % % % % %   6.+ % % % % % % % % % % % % % % % % % % $ X q.q.q.q.q.q.q._ i W $.q.q.",
"R.q.q.q.q.q.q./ L S ) q.q.q.q.q.q.+ % % % % % % % % % % % + + % % % % % % % % % % % % % % % % % $ $ @ X q.q.q.q.q.q.q.q.q.q.q.q.",
"R.q.q.q.$Xq.q.q.q.q.q.q.q.q.q.q.q.+ % % % % % % % % % % % % + $ % % % % % % % % % % % % % % % $ $ $ O   q.q.q.q.q.q.q.q.q.q.%Xq.",
"R.q.q.aXwX=Xy.q.q.q.q.q.q.q.q.q.q.+ % % % % % % % % % % % % $ + $ $ % % % % % % % % % % $ $ $ $ $ @ O   q.q.q.q.q.q.q.q.z.7XiXeX",
"R.q.q.t.0.y.q.q.q.q.q.q.q.q.q.q.q.    % % % % % % % % % $ $ $ $ + $ $ $ % $ % $ % $ $ $ $ $ $ $ $ @   q.q.q.q.q.q.q.q.q.q.e.w.t.",
"R.q.q.q.q.q.q.q.q.q.q.q.q.q.q.q.q.q.q.    % % % % % $ $ $ $ $ $ $ X $ $ $ % $ % $ $ $ $ $ $ $ $ $ $   q.q.q.q.q.q.q.q.q.q.q.q.q.",
"R.q.q.q.g.q.q.q.q.q.I.q.q.q.-.q.q.q.q.q.q.    % $ $ $ $ $ $ $ $ $ X $ $ $ $ $ $ $ $ $ $ $ $ $ $ $   q.q.-.q.q.q.q.q.q.q.q.L.e.q.",
"R.q.f.C.S.OXq.q.q.2X9X[.4.^ c 3 q.q.q.q.q.q.oX    $ $ $ $ $ $ $ X $ $ $ $ $ $ $ $ $ $ $ $ $ $ $   ;X|.J N g 8.q.q.q.q.q.M.5XA.OX",
"R.q.q.M.h.q.q.q.q.I.t.L.q.[ 8.6.q.a.w.q.q.q.M.q.g.    $ $ $ $ X $ $ $ $ $ $ $ $ $ $ $ $ $ $ $ $   I.t.&.q.<.q.q.i.q.q.q.t.f.a.q.",
"R.q.q.q.q.q.q.q.q.q.q.q.q.q.q.q.S.3XC.b.q.q.q.q.q.q.q.+ $ $ X + + + + + # $ $ $ $ $ $ $ $ $ $ $ X q.q.q.q.q.a.m.<XN.q.q.q.q.q.q.",
"R.q.q.q.q.q.q.q.q.q.q.q.q.q.q.q.I.F.S.q.q.q.q.q.q.q.X + $ X + + + + + + + + + # $ $ $ $ $ $ $ $ X q.q.q.q.q.q.l.b.F.q.q.q.q.q.q.",
"R.q.q.q.q.q.q.q.q.q.q.q.q.q.q.q.q.q.q.q.q.q.q.q.q.q.X $ $ #   # # # # # + + + + + $ $ $ $ $ + $ X q.q.q.q.q.q.q.q.q.q.q.q.q.q.q.",
"R.q.q.q.q.q.q.q.q.q.q.q.q.q.q.q.q.q.q.q.q.q.q.q.q.X $ $ $ $ #   $ $ $ $ $ $ # + + + # $ $ $ + $ %   q.q.q.q.q.q.q.q.q.q.q.q.q.q.",
"R.q.q.q.q.q.q.q.q.q.q.q.q.q.q.q.) : } } q.q.q.q.q.  X # $ # # # X $ $ $ $ $ $ $ $ $ $ $ $ $ X % %   q.q.q.q.:.} =  .q.q.q.q.q.q.",
"R.q.q.q.q.q.q.q.q.q.q.q.q.q.q.q.D 4 e ] q.q.q.q.q.q.X     # # # #   + + # $ $ $ $ $ $ $ $ $ X % %   q.q.q.q.%.J x M q.q.q.q.q.q.",
"R.q.q.q.q.q.q.q.q.q.q.q.q.q.q.f./.oXy.q.q.q.q.q.q.q.X $ $   # #     + + + + + # $ $ $ $ $ $ % + $   q.q.q.q.I.m.g.q.q.q.q.q.q.q.",
"T.8.G @.q.q.q.q.q.q.q.q.q.q.q.L.+X}.l.q.<.G @.q.q.X $ $   + +     # + + + + + + + $ $ $ $ $ % + X q.q.q.q.q.@Xg.|.q.<.t X.*.q.q.",
"P.l { U q.q.q.$._ %.<.q.q.q.q.q.q.q.q.q.u -.c q.q.X $   + +   $ $ $ $ $ $ # # + + + # $ $ $ % %   q.q.q.q.q.q.q.q.q.] h _ *.q.q.",
"R.q.q.q.q.q.q.M n 5 U q.q.q.q.q.q.q.q.q.q.q.q.q.q.X $   + + +   $ $ $ $ $ $ $ $ $ $ $ $ $ $ $ %   q.q.q.q.q.q.q.q.q.q.q.q.q.q.q.",
"R.q.q.q.#Xq.q.q.q.q.q.q.q.q.q.q.q.q.q.q.q.q.q. Xx.X $ $     + + + $ $ $ $ $ $ $ $ $ $ $ $ $ $ %   q.q.q.q.q.q.q.q.q.q.q.q.q.6Xq.",
"R.q.q.fXiXjXh.q.q.q.q.q.q.q.q.q.q.q.q.q.q.q.tXgX*XX $ $ $ $     # $ $ $ $ $ $ $ $ $ $ $ $ $ $ $   q.q.q.q.q.q.q.q.q.q.q.Q.qXsXtX",
"R.q.q.y.u.s.q.q.q.q.q.q.q.q.q.q.q.q.q.q.q.q.r.h.k.q.X $ $ $ $ $ $ $ $ $ $ $ $ $ $ $ $ $ $ $ $ $   q.q.q.q.q.q.q.q.q.q.q.q.y.r.h.",
"R.q.q.q.q.q.q.q.q.q.q.q.q.q.q.q.q.q.q.q.q.q.q.q.q.q.  $ $ $ $ $ $ $ $ $ $ $ $ $ $ $ $ $ $ $ $   q.q.q.q.q.q.q.q.q.q.q.q.q.q.q.q.",
"R.q.q.q.e.q.q.q.q.q.y.q.q.q.6.q.q.q.q.q.q.q.q.t.q.q.q.  X $ $ $ $ # # # # # # $ $ $ $ $ $ #   q.q.t.q.q.1.q.q.q.q.q.q.q.q.i.w.q.",
"R.q.i.d.F.F.q.q.q.@X5XF.3.@.z k q.q.q.q.q.q.b.G.A.q.q.q.X + + + + #             X + # # # + X X L.|.S.W v v 8.q.q.q.q.q.l.3XB.F.",
"R.q.q.A.f.q.q.q.q.F.t.M.q.Y 6.,.q.h.w.q.q.q.C.q.a.q.q.q.X # # # #   $.q.w.t.q.q.  # # # # % # % X F.t.{ q.%.q.q.i.q.q.q.t.L.s.q.",
"R.q.q.q.q.q.q.q.q.q.q.q.q.q.q.q.I.0Xb.L.q.q.q.q.q.q.q.q.q.        q.q.I.p.:Xl.q.q.              q.q.q.q.q.q.a.f.5Xl.q.q.q.q.q.q.",
"W.q.q.q.q.q.q.q.q.q.q.q.q.q.q.q.Y.F.S.q.q.q.q.q.q.q.q.q.q.q.q.q.q.q.q.q.K.OXg.q.q.q.q.q.q.q.q.q.q.q.q.q.q.q.q.K.b.F.q.q.q.q.q.q.",
"R.q.q.q.q.q.q.q.q.q.q.q.q.q.q.q.q.q.q.q.q.q.q.q.q.q.q.q.q.q.q.q.q.q.q.q.q.q.q.q.q.q.q.q.q.q.q.q.q.q.q.q.q.q.q.q.q.q.q.q.q.q.q.q.",
"W.q.q.q.q.q.q.q.q.q.q.q.q.q.q.q.q.q.q.q.q.q.q.q.q.q.q.q.q.q.q.q.q.q.q.q.q.q.q.q.q.q.q.q.q.q.q.q.q.q.q.q.q.q.q.q.q.q.q.q.q.q.q.q.",
"R.q.q.q.q.q.q.q.q.q.q.q.q.q.q.q.;.x =.6.q.q.q.q.q.q.q.q.q.q.q.q.q.q.q.-.X.m 6.q.q.q.q.q.q.q.q.q.q.q.q.q.q.q.8.6.s 6.q.q.q.q.q.q.",
"W.q.q.q.q.q.q.q.q.q.q.q.q.q.q.q.H 4 0 } q.q.q.q.q.q.q.q.q.q.q.q.q.q.q.] E 2 ) q.q.q.q.q.q.q.q.q.q.q.q.q.q.q.:.J x M q.q.q.q.q.q.",
"R.q.q.q.q.q.q.q.q.q.q.q.q.q.q.y.A.oXt.q.q.q.q.q.q.q.q.q.q.q.q.q.q.q.e.i.m.t.q.q.q.q.q.q.q.q.q.q.q.q.q.q.q.q.a.m.t.q.q.q.q.q.q.q.",
"E.9.K 6.q.q.q.q.q.q.q.q.q.q.q.L.A.'.f.q.8.P 6.q.q.q.q.q.q.q.q.q.q.q.g.A.f.H.q.8.u 8.q.q.q.q.q.q.q.q.q.q.q.q.oXg.oXq.8.f >.8.q.q.",
"c.4 G < q.q.q.q.,.6.q.q.q.q.q.q.q.q.q.q.8 R - q.q.q.q.q.%.q.q.q.q.q.q.q.q.q.q.a 1 9 6.q.q.q.q.&.q.q.q.q.q.q.q.q.q.q.G 7 B ^ q.q.",
"R.6.q.q.q.q.q.V B H _ q.q.q.q.q.q.q.q.q.7.q.9.q.q.q.,.f J N q.q.q.q.q.q.q.q.q.8.9.8.q.q.q.q.s @.x q.q.q.q.q.q.q.q.q.9.8.8.q.q.q."
};
