/* XPM */
static char *result[] = {
/* columns rows colors chars-per-pixel */
"64 64 231 2 ",
"   c black",
".  c gray16",
"X  c #633108",
"o  c #42424A",
"O  c #C52119",
"+  c #9C5200",
"@  c #E65A42",
"#  c #DE9400",
"$  c #F7BD21",
"%  c #F7E652",
"&  c #737384",
"*  c #4FDD90",
"=  c #50DF91",
"-  c #4FE390",
";  c #4DE590",
":  c #4EE590",
">  c #4FE590",
",  c #4EE790",
"<  c #4FE791",
"1  c #4FE891",
"2  c #4FEA91",
"3  c #4FED91",
"4  c #4FEE91",
"5  c #51E091",
"6  c #50E290",
"7  c #50E591",
"8  c #50E691",
"9  c #51E691",
"0  c #50E791",
"q  c #51E592",
"w  c #51E792",
"e  c #54E791",
"r  c #50E891",
"t  c #51E891",
"y  c #50E991",
"u  c #51E991",
"i  c #50EA91",
"p  c #50EB91",
"a  c #51E992",
"s  c #52E892",
"d  c #52E992",
"f  c #51EA92",
"g  c #50EB92",
"h  c #51EB92",
"j  c #52EA92",
"k  c #52EB92",
"l  c #50EC92",
"z  c #51EC92",
"x  c #50ED92",
"c  c #51ED92",
"v  c #52EC92",
"b  c #52ED92",
"n  c #52ED93",
"m  c #51EE92",
"M  c #50EF92",
"N  c #51EF92",
"B  c #52EE93",
"V  c #52EF93",
"C  c #5BEF95",
"Z  c #5BEF96",
"A  c #5FED98",
"S  c #4FF091",
"D  c #4FF192",
"F  c #50F092",
"G  c #51F092",
"H  c #50F192",
"J  c #51F192",
"K  c #51F193",
"L  c #52F093",
"P  c #52F193",
"I  c #50F292",
"U  c #51F292",
"Y  c #50F392",
"T  c #51F392",
"R  c #51F393",
"E  c #52F293",
"W  c #52F393",
"Q  c #56F193",
"!  c #57F193",
"~  c #55F292",
"^  c #50F492",
"/  c #51F492",
"(  c #51F493",
")  c #51F593",
"_  c #52F493",
"`  c #52F593",
"'  c #50F692",
"]  c #51F693",
"[  c #51F793",
"{  c #52F693",
"}  c #53F693",
"|  c #52F793",
" . c #54F194",
".. c #53F694",
"X. c #58F194",
"o. c #5AF397",
"O. c #50F893",
"+. c #51F893",
"@. c #51F993",
"#. c #52F893",
"$. c #52F993",
"%. c #51FA93",
"&. c #51FB93",
"*. c #52FA93",
"=. c #52FB93",
"-. c #51FC93",
";. c #52F994",
":. c #53F994",
">. c #52FA94",
",. c #52FB94",
"<. c #53FB94",
"1. c #55FA95",
"2. c #56FA95",
"3. c #51FD94",
"4. c #52FC94",
"5. c #53FC94",
"6. c #52FD94",
"7. c #52FE94",
"8. c #53FE94",
"9. c #52FF94",
"0. c #53FF94",
"q. c #53FE95",
"w. c #53FF95",
"e. c #54FE95",
"r. c #55FE95",
"t. c #54FF95",
"y. c #55FD96",
"u. c #57FC96",
"i. c #56FD96",
"p. c #57FD96",
"a. c #57FC97",
"s. c #57FD97",
"d. c #55FE96",
"f. c #56FE96",
"g. c #57FE96",
"h. c #58FD96",
"j. c #58FC97",
"k. c #59FD97",
"l. c #5AFC97",
"z. c #58FB98",
"x. c #59FB98",
"c. c #5AFB98",
"v. c #5BFA99",
"b. c #5AFB99",
"n. c #5BFB99",
"m. c #5CFA99",
"M. c #5CFB99",
"N. c #5EFB99",
"B. c #5DF99A",
"V. c #5FF89B",
"C. c #5EF99B",
"Z. c #5FF99B",
"A. c #5CFA9A",
"S. c #5DFA9A",
"D. c #5CFB9A",
"F. c #5EFA9A",
"G. c #5EFA9B",
"H. c #58FC98",
"J. c #59FC98",
"K. c #58FD98",
"L. c #5AFC98",
"P. c #5BFC98",
"I. c #5AFC99",
"U. c #58FE98",
"Y. c #58FF98",
"T. c #58FE99",
"R. c #58FF99",
"E. c #5CFC98",
"W. c #5CFD98",
"Q. c #5EFC99",
"!. c #5FFC9A",
"~. c #5FF99C",
"^. c #62EB9A",
"/. c #63EB9A",
"(. c #64EA9B",
"). c #65E99C",
"_. c #62F79D",
"`. c #63F69E",
"'. c #63F79E",
"]. c #65F59F",
"[. c #66F59F",
"{. c #64F69E",
"}. c #68F79E",
"|. c #6AF69F",
" X c #61F99B",
".X c #61FA9B",
"XX c #60F89C",
"oX c #61F89C",
"OX c #60F99C",
"+X c #61F89D",
"@X c #65F99D",
"#X c #67F89D",
"$X c #64FA9C",
"%X c #68F99E",
"&X c #7AEDA7",
"*X c #79EEA7",
"=X c #78EFA7",
"-X c #7AEFA8",
";X c #7FEEAA",
":X c #67F4A0",
">X c #66F5A0",
",X c #67F5A0",
"<X c #67F4A1",
"1X c #68F3A1",
"2X c #69F3A1",
"3X c #69F3A2",
"4X c #6AF2A2",
"5X c #6AF3A2",
"6X c #6CF1A3",
"7X c #6DF6A0",
"8X c #6FF4A2",
"9X c #6FF6A2",
"0X c #6CF1A4",
"qX c #6DF1A4",
"wX c #72F3A3",
"eX c #70F5A2",
"rX c #71F5A2",
"tX c #71F4A3",
"yX c #71F5A3",
"uX c #72F4A3",
"iX c #73F4A3",
"pX c #72F5A3",
"aX c #75F2A5",
"sX c #75F3A5",
"dX c #76F4A5",
"fX c #79F1A7",
"gX c #78F3A6",
"hX c #7AF1A8",
"jX c #7BF2A8",
"kX c #7CF0A9",
"lX c #FFF7A5",
/* pixels */
"o.~ ~ ~ Z ~ ~ ~ ~ ~ ).~ ~ ~ e ~ ~ ~ ~ ~ ~ ~ ~ C ~ ~ ~ ~ ~ ^.Q ~ ~ e ~ ~ ~ ~ ~ ~ ~ ~ /.~ ~ ~ ~ ~ ! A ~ ~ e ~ ~ ~ ~ ~ ~ ~ ~ (.X.~ ",
"Y.9.y._.S.A.9.9.9.5X'.{.1.i J f 9.9.9.9.9.9.{.s.oX9.9.9.oX[._.J.7 { q 9.9.9.9.9.9.+XXX_.9.9.9.n.XX>XXXf ] s 6.9.9.9.9.9.n.,XC.A.",
"Y.9.9.n.f.9.9.9.9.L.q.j.9.O.6.4.9.s.0.9.9.9.b.9.d.9.9.9.i.s.J.9.O.9.*.9.9.y.9.9.9.J.0.d.9.9.9.9.J.J.q.%.9.,.9.9.i.9.9.9.e.s.i.9.",
"Y.9.9.9.9.9.9.9.9.9.9.9.9.9.9.9.S.2XS.x.9.9.9.9.9.9.9.9.9.9.9.9.9.9.9.n.a.].x.9.9.9.9.9.9.9.9.9.9.9.9.9.9.9.i.J.:Xm.9.9.9.9.9.9.",
"Y.9.9.9.9.9.9.9.9.9.9.9.9.9.9.9.s.J.c.9.9.9.9.9.9.9.9.9.9.9.9.9.9.9.9.9.i.v.e.9.9.9.9.9.9.9.9.9.9.9.9.9.9.9.9.i.s.J.9.9.9.9.9.9.",
"Y.9.9.9.9.9.9.9.9.9.9.9.9.9.9.9.9.9.9.9.9.9.9.9.9.9.9.9.9.9.9.9.9.9.9.9.9.9.9.9.9.9.9.9.9.9.9.9.9.9.9.9.9.9.9.9.9.9.9.9.9.9.9.9.",
"Y.9.9.9.9.9.9.9.9.9.9.9.9.9.9.9.9.9.9.9.9.9.9.9.9.9.9.9.9.9.9.9.9.9.9.9.9.9.9.9.9.9.9.9.9.9.9.9.9.9.9.9.9.9.9.9.9.9.9.9.9.9.9.9.",
"Y.9.9.9.9.9.9.9.9.9.9.9.9.9.9.9.` > { ` 9.9.9.9.9.9.9.9.9.9.9.9.9.9.9.`  .t } 9.9.9.9.9.9.9.9.9.9.9.9.9.9.9.>.| 5 ..9.9.9.9.9.9.",
"Y.9.9.9.9.9.9.9.9.9.9.9.9.9.9.9.+.' k 9.9.9.9.9.9.9.9.9.9.9.9.9.9.9.9.9.%.I 6.9.9.9.    9.9.9.9.9.9.9.9.9.9.9.%.+.' 9.9.9.9.9.9.",
"Y.9.9.9.9.9.9.9.9.9.9.9.9.9.9.Z.<X>XJ.9.9.9.9.9.9.9.9.9.9.9.9.9.9.9.s.XXG.L.9.9.9.  o o   9.9.9.9.9.9.9.9.9.{.G.L.9.9.9.9.9.9.9.",
"K.3.N [ 9.9.9.9.9.9.9.9.9.9.9.j.Z.].j.9.*.N +.9.9.9.9.9.9.9.9.9.9.9.r.Z.a.XX9.*.,   o o o   9.9.9.9.9.9.9.9.XXd.`.9.*.0 ..%.9.9.",
"K.3 [ U 9.9.9.| _ $.>.9.9.9.9.9.9.9.9.9.2 =.m 9.9.9.6.#.R >.9.9.9.9.9.9.9.9.9.F Y   o o o   ,.] 4.9.9.9.9.9.9.9.9.9.[ l ( &.9.9.",
"Y.9.9.9.9.9.9.| W m | 9.9.9.9.9.9.9.9.9.9.9.9.9.9.9.6.V W G 9.9.9.9.9.9.9.9.9.9.9.  o o o o   ,.z 9.9.9.9.9.9.9.9.9.9.9.9.9.9.9.",
"Y.9.9.Q.9XW.t.9.9.9.9.9.9.9.9.9.9.9.9.9.9.9.!.tX XE.9.9.9.9.9.9.9.9.9.9.9.9.9.9.9.  & o o o   9.9.9.9.9.9.9.9.9.9.9.9.9.f.P.dXk.",
"Y.9.9.jXuX;Xg.9.9.9.9.9.9.9.9.9.9.9.9.9.9.9.sXfX*X|.9.9.9.9.9.9.9.9.9.9.9.9.9.9.9.  % % & o   9.9.9.9.9.9.9.9.9.9.9.9.9.N.aXsXiX",
"Y.9.9.r.t.f.9.9.9.9.9.9.9.9.9.9.9.9.9.9.9.9.0.      9.9.9.9.9.9.9.9.9.9.9.9.9.9.9.  % % % % . 9.9.9.9.9.9.9.9.9.9.9.9.9.9.r.0.r.",
"Y.9.9.9.9.9.9.9.9.9.9.9.9.9.9.9.9.9.9.9.9.  . o o o       9.9.9.9.9.9.9.9.9.9.9.9.X % % % % $ X 9.9.9.9.9.9.9.9.9.9.9.9.9.9.9.9.",
"Y.9.9.9.s.9.9.9.9.9.Z.9.9.9.[ 9.9.9.9.9.9.  o o o o o o o     9.9.[ 9.9.9.9.9.9.9.X # % % % % X e.c.9.9.| 9.9.9.9.9.9.9.9.F.e.9.",
"Y.9.i.a.S.B.9.9.9._.6XF.2.` z z 9.9.9.9.9.9.  o o o o o & % % + + m k 9.9.9.9.9.9.J.X % % % % X J.{.XXP m v 6.9.9.9.9.9.J.5XM.F.",
"Y.9.9.m.i.9.9.9.9.n.e.J.9.T 4.,.9.c.q.9.9.9.n.  o o o & % % % % # + $.9.q.j.9.9.9.c.X % % % % X c.n.e.[ 9.$.9.9.c.9.9.9.e.j.i.9.",
"Y.9.9.9.9.9.9.9.9.9.9.9.9.9.9.9.XX2XV.m.9.9.9.9.    o % % % % % % % # C.j.[.+ + + + + X % % % X 9.9.9.9.9.9.s.A.:XC.9.9.9.9.9.9.",
"Y.9.9.9.9.9.9.9.9.9.9.9.9.9.9.9.d.i.s.9.9.9.9.9.9.9.    $ % % % % % % + + + % % % % % % # % % X 9.9.9.9.9.9.9.e.d.i.9.9.9.9.9.9.",
"Y.9.9.9.9.9.9.9.9.9.9.9.9.9.9.9.9.9.9.9.9.9.9.9.9.9.9.9.      $ % % $ $ % lXlXlX% % % % % % % X 9.9.9.9.9.9.9.9.9.9.9.9.9.9.9.9.",
"Y.9.9.9.9.9.9.9.9.9.9.9.9.9.9.9.9.9.9.9.9.9.9.9.9.9.9.9.9.9.9.    + % % lXlXlXlXlX% % % % % % % X 9.9.9.9.9.9.9.9.9.9.9.9.9.9.9.",
"Y.9.9.9.9.9.9.9.9.9.9.9.9.9.9.9.^ ; ] ( 9.9.9.9.9.9.9.9.9.9.9.9.+ % % % % lXlXlX% % % % % % % % X 9.9.9.9.9.| ( * ] 9.9.9.9.9.9.",
"Y.9.9.9.9.9.9.9.9.9.9.9.9.9.9.9.+.' j 9.9.9.9.9.9.9.9.9.9.9.9.+ % % % % % % % % % % % % % % % % % X 9.9.9.9.9.@.+.' 9.9.9.9.9.9.",
"Y.9.9.9.9.9.9.9.9.9.9.9.9.9.9.p.Z.XXe.9.9.9.9.9.9.9.9.9.9.9.9.+ % % % % % % % % % % % % % % % % % X 9.9.9.9.j.b.r.9.9.9.9.9.9.9.",
"U.6.J ;.9.9.9.9.9.9.9.9.9.+ + J.Z.'.s.9.4.L >.9.9.9.9.9.9.9.+ % % % % % % % % % % % % % % % % % % $ X 9.9.9.XXd.oX9.4.y :.,.9.9.",
"K.3 ) b 9.9.9.&.| *.4.9.9.% % + + 9.9.9.2 #.d 9.9.9.7.-.) 4.+ % % % % % % % % % % % % % % % % % % $ X 9.9.9.9.9.9.9._ u W #.9.9.",
"Y.9.9.9.9.9.9./ L S ) 9.9.% % % % % +   9.9.9.9.9.9.-.3 Y M + % % % % % % % % % % % % % % % % % $ $ @ X 9.9.9.9.9.9.9.9.9.9.9.9.",
"Y.9.9.9.$X9.9.9.9.9.9.9.+ % % % % % % %   9.9.@Xk.9.9.9.9.9.+ $ % % % % % % % % % % % % % % % $ $ $ O   9.9.9.9.9.9.9.9.9.9.%X9.",
"Y.9.9.sXeX-Xr.9.9.9.9.9.+ % % % % % % % % % % + &X.X9.9.9.+ $ $ $ $ % % % % % % % % % % $ $ $ $ $ @ O   9.9.9.9.9.9.9.9.k.8XpXrX",
"Y.9.9.e.8.r.9.9.9.9.9.+ + % % % % % % % % % % % + + 9.9.9.+ $ $ $ $ $ $ % $ % $ % $ $ $ $ $ $ $ $ @   9.9.9.9.9.9.9.9.9.9.q.0.e.",
"Y.9.9.9.9.9.9.9.9.9.9.9.+ % % % % % % % % % % % % $ $ + 9.+ $ $ $ $ $ $ $ % $ % $ $ $ $ $ $ $ $ $ $   9.9.9.9.9.9.9.9.9.9.9.9.9.",
"Y.9.9.9.d.9.9.9.9.9.L.9.+ % % % % % % % % % % $ $ $ $ $ X X $ $ $ $ $ $ $ $ $ $ $ $ $ $ $ $ $ $ $   9.9.=.9.9.9.9.9.9.9.9.J.q.9.",
"Y.9.s.B.Z.oX9.9.9.3X0X+ + % % % % % % % % % % $ $ $ $ $ $ $ $ $ $ $ $ $ $ $ $ $ $ $ $ $ $ $ $ $   :X{.J N g 6.9.9.9.9.9.n.6XC.oX",
"Y.9.9.n.f.9.9.9.9.L.e.J.+ % % % % % % % % $ $ $ $ $ $ $ X $ $ $ $ $ $ $ $ $ $ $ $ $ $ $ $ $ $ $   L.e.%.9.,.9.9.y.9.9.9.e.s.i.9.",
"Y.9.9.9.9.9.9.9.9.9.9.9.+ % % % % % % % $ $ $ $ $ $ $ X X $ # + + + + + # $ $ $ $ $ $ $ $ $ $ $ X 9.9.9.9.9.i.b.1Xm.9.9.9.9.9.9.",
"Y.9.9.9.9.9.9.9.9.9.9.9.9.        %   % $ $ $ $ $ $ $ X # + + + + + + + + + + # $ $ $ $ $ $ $ $ X 9.9.9.9.9.9.j.c.S.9.9.9.9.9.9.",
"Y.9.9.9.9.9.9.9.9.9.9.9.9.9.9.9.9.  9.          + $ $ X + + + # # # # # + + + + + $ $ $ $ $ + $ X 9.9.9.9.9.9.9.9.9.9.9.9.9.9.9.",
"Y.9.9.9.9.9.9.9.9.9.9.9.9.9.9.9.9.9.9.9.9.9.9.9.+ $ X   $ $ $ $ $ $ $ $ $ $ # + + + # $ $ $ + $ %   9.9.9.9.9.9.9.9.9.9.9.9.9.9.",
"Y.9.9.9.9.9.9.9.9.9.9.9.9.9.9.9.) : { { 9.9.9.X $ $ # $ #   X $ $ $ $ $ $ $ $ $ $ $ $ $ $ $ X % %   9.9.9.9.;.{ = | 9.9.9.9.9.9.",
"Y.9.9.9.9.9.9.9.9.9.9.9.9.9.9.9.D 3 w ] 9.9.9.9.$ $ $ # # # #   + + + + # $ $ $ $ $ $ $ $ $ X % %   9.9.9.9.$.J x M 9.9.9.9.9.9.",
"Y.9.9.9.9.9.9.9.9.9.9.9.9.9.9.s.~.XXr.9.9.9.9.X $ # $ # # #       + + + + + + # $ $ $ $ $ $ % + $   9.9.9.9.L.b.d.9.9.9.9.9.9.9.",
"U.6.G +.9.9.9.9.9.9.9.9.9.9.9.J.OX[.j.9.,.G +.  X         # #   # # + + + + + + + $ $ $ $ $ % + X 9.9.9.9.9.+Xd.{.9.,.r ..&.9.9.",
"K.l [ U 9.9.9.#._ $.,.9.9.9.9.9.9.9.9.9.y =.c 9.9.X $ $ + +   $ $ $ $ $ $ # # + + + # $ $ $ % %   9.9.9.9.9.9.9.9.9.] h _ &.9.9.",
"Y.9.9.9.9.9.9.M n 4 U 9.9.9.9.9.9.9.9.9.9.9.9.9.9.X $   +   $ $ $ $ $ $ $ $ $ $ $ $ $ $ $ $ $ %   9.9.9.9.9.9.9.9.9.9.9.9.9.9.9.",
"Y.9.9.9.#X9.9.9.9.9.9.9.9.9.9.9.9.9.9.9.9.9.9.}.l.X $   + + + + + $ $ $ $ $ $ $ $ $ $ $ $ $ $ %   9.9.9.9.9.9.9.9.9.9.9.9.9.7X9.",
"Y.9.9.gXpXkXf.9.9.9.9.9.9.9.9.9.9.9.9.9.9.9.yXhX=XX $       +   # $ $ $ $ $ $ $ $ $ $ $ $ $ $ $   9.9.9.9.9.9.9.9.9.9.9.E.wXdXyX",
"Y.9.9.r.t.p.9.9.9.9.9.9.9.9.9.9.9.9.9.9.9.9.w.f.h.9.X $   $   $ $ $ $ $ $ $ $ $ $ $ $ $ $ $ $ $   9.9.9.9.9.9.9.9.9.9.9.9.r.w.f.",
"Y.9.9.9.9.9.9.9.9.9.9.9.9.9.9.9.9.9.9.9.9.9.9.9.9.9.  $ $ $ $ $ $ $ $ $ $ $ $ $ $ $ $ $ $ $ $   9.9.9.9.9.9.9.9.9.9.9.9.9.9.9.9.",
"Y.9.9.9.q.9.9.9.9.9.r.9.9.9.4.9.9.9.9.9.9.9.9.e.9.9.9.  X $ $ $ $ # # # # # # $ $ $ $ $ $ #   9.9.e.9.9.<.9.9.9.9.9.9.9.9.y.0.9.",
"Y.9.y.a.S.S.9.9.9.+X6XS.2.+.z k 9.9.9.9.9.9.c.D.C.9.9.9.X + + + + #             X + # # # + X X J.{.Z.W v v 6.9.9.9.9.9.j.4XM.S.",
"Y.9.9.C.s.9.9.9.9.S.e.n.9.Y 4.>.9.f.0.9.9.9.B.9.i.9.9.9.X # # # #   #.9.0.e.9.9.  # # # # % # % X S.e.[ 9.$.9.9.y.9.9.9.e.J.p.9.",
"Y.9.9.9.9.9.9.9.9.9.9.9.9.9.9.9.L.qXc.J.9.9.9.9.9.9.9.9.9.        9.9.L.u.>Xj.9.9.              9.9.9.9.9.9.i.s.6Xj.9.9.9.9.9.9.",
"R.9.9.9.9.9.9.9.9.9.9.9.9.9.9.9.I.S.Z.9.9.9.9.9.9.9.9.9.9.9.9.9.9.9.9.9.H.oXd.9.9.9.9.9.9.9.9.9.9.9.9.9.9.9.9.H.c.S.9.9.9.9.9.9.",
"Y.9.9.9.9.9.9.9.9.9.9.9.9.9.9.9.9.9.9.9.9.9.9.9.9.9.9.9.9.9.9.9.9.9.9.9.9.9.9.9.9.9.9.9.9.9.9.9.9.9.9.9.9.9.9.9.9.9.9.9.9.9.9.9.",
"R.9.9.9.9.9.9.9.9.9.9.9.9.9.9.9.9.9.9.9.9.9.9.9.9.9.9.9.9.9.9.9.9.9.9.9.9.9.9.9.9.9.9.9.9.9.9.9.9.9.9.9.9.9.9.9.9.9.9.9.9.9.9.9.",
"Y.9.9.9.9.9.9.9.9.9.9.9.9.9.9.9.-.x *.4.9.9.9.9.9.9.9.9.9.9.9.9.9.9.9.=...m 4.9.9.9.9.9.9.9.9.9.9.9.9.9.9.9.6.4.a 4.9.9.9.9.9.9.",
"R.9.9.9.9.9.9.9.9.9.9.9.9.9.9.9.H 3 9 { 9.9.9.9.9.9.9.9.9.9.9.9.9.9.9.] E 2 ) 9.9.9.9.9.9.9.9.9.9.9.9.9.9.9.;.J x M 9.9.9.9.9.9.",
"Y.9.9.9.9.9.9.9.9.9.9.9.9.9.9.r.C.XXe.9.9.9.9.9.9.9.9.9.9.9.9.9.9.9.q.y.b.e.9.9.9.9.9.9.9.9.9.9.9.9.9.9.9.9.i.b.e.9.9.9.9.9.9.9.",
"T.7.K 4.9.9.9.9.9.9.9.9.9.9.9.J.C._.s.9.6.P 4.9.9.9.9.9.9.9.9.9.9.9.d.C.s.F.9.6.y 6.9.9.9.9.9.9.9.9.9.9.9.9.XXd.XX9.6.f :.6.9.9.",
"z.3 G < 9.9.9.9.>.4.9.9.9.9.9.9.9.9.9.9.7 R - 9.9.9.9.9.$.9.9.9.9.9.9.9.9.9.9.p 1 8 4.9.9.9.9.%.9.9.9.9.9.9.9.9.9.9.G 6 B ^ 9.9.",
"Y.4.9.9.9.9.9.V B H _ 9.9.9.9.9.9.9.9.9.5.9.7.9.9.9.>.f J N 9.9.9.9.9.9.9.9.9.6.7.6.9.9.9.9.a +.x 9.9.9.9.9.9.9.9.9.7.6.6.9.9.9."
};
