/* XPM */
static char *result[] = {
/* columns rows colors chars-per-pixel */
"64 64 244 2 ",
"   c black",
".  c #3A2129",
"X  c #524A4A",
"o  c #736363",
"O  c #9C4A21",
"+  c #D67300",
"@  c #8C7373",
"#  c #FF9429",
"$  c #4FDD90",
"%  c #50DF91",
"&  c #4FE390",
"*  c #4DE590",
"=  c #4EE590",
"-  c #4FE590",
";  c #4EE790",
":  c #4FE791",
">  c #4FE891",
",  c #4FEA91",
"<  c #4FEC91",
"1  c #4FED91",
"2  c #4FEE91",
"3  c #51E091",
"4  c #50E290",
"5  c #51E391",
"6  c #50E591",
"7  c #50E691",
"8  c #51E691",
"9  c #50E791",
"0  c #51E592",
"q  c #51E792",
"w  c #54E791",
"e  c #50E891",
"r  c #51E891",
"t  c #50E991",
"y  c #51E991",
"u  c #50EA91",
"i  c #50EB91",
"p  c #51E992",
"a  c #52E892",
"s  c #52E992",
"d  c #51EA92",
"f  c #50EB92",
"g  c #51EB92",
"h  c #52EA92",
"j  c #52EB92",
"k  c #50EC92",
"l  c #51EC92",
"z  c #50ED92",
"x  c #51ED92",
"c  c #52EC92",
"v  c #52ED92",
"b  c #52ED93",
"n  c #51EE92",
"m  c #50EF92",
"M  c #51EF92",
"N  c #52EE93",
"B  c #52EF93",
"V  c #5BEF95",
"C  c #5BEF96",
"Z  c #5FED98",
"A  c #4FF091",
"S  c #4FF192",
"D  c #50F092",
"F  c #51F092",
"G  c #50F192",
"H  c #51F192",
"J  c #51F193",
"K  c #52F093",
"L  c #52F193",
"P  c #50F292",
"I  c #51F292",
"U  c #50F392",
"Y  c #51F392",
"T  c #51F393",
"R  c #52F293",
"E  c #52F393",
"W  c #56F193",
"Q  c #57F193",
"!  c #55F292",
"~  c #50F492",
"^  c #51F492",
"/  c #51F493",
"(  c #51F593",
")  c #52F493",
"_  c #52F593",
"`  c #50F692",
"'  c #51F693",
"]  c #50F793",
"[  c #51F793",
"{  c #52F693",
"}  c #53F693",
"|  c #52F793",
" . c #54F194",
".. c #53F694",
"X. c #58F194",
"o. c #5AF397",
"O. c #50F893",
"+. c #51F893",
"@. c #51F993",
"#. c #52F893",
"$. c #52F993",
"%. c #51FA93",
"&. c #51FB93",
"*. c #52FA93",
"=. c #52FB93",
"-. c #51FC93",
";. c #52F994",
":. c #53F994",
">. c #52FA94",
",. c #52FB94",
"<. c #53FB94",
"1. c #55FA95",
"2. c #56FA95",
"3. c #57F896",
"4. c #51FD94",
"5. c #52FC94",
"6. c #53FC94",
"7. c #52FD94",
"8. c #52FE94",
"9. c #53FE94",
"0. c #52FF94",
"q. c #53FF94",
"w. c #53FE95",
"e. c #53FF95",
"r. c #54FE95",
"t. c #55FE95",
"y. c #54FF95",
"u. c #55FD96",
"i. c #57FC96",
"p. c #56FD96",
"a. c #57FD96",
"s. c #57FC97",
"d. c #57FD97",
"f. c #55FE96",
"g. c #56FE96",
"h. c #57FE96",
"j. c #58FC97",
"k. c #59FD97",
"l. c #5AFC97",
"z. c #58FB98",
"x. c #59FB98",
"c. c #5AFB98",
"v. c #5BFA99",
"b. c #5AFB99",
"n. c #5BFB99",
"m. c #5CFA99",
"M. c #5CFB99",
"N. c #5EFB99",
"B. c #5DF99A",
"V. c #5FF89B",
"C. c #5EF99B",
"Z. c #5FF99B",
"A. c #5CFA9A",
"S. c #5DFA9A",
"D. c #5CFB9A",
"F. c #5EFA9A",
"G. c #5EFA9B",
"H. c #58FC98",
"J. c #59FC98",
"K. c #58FD98",
"L. c #5AFC98",
"P. c #5BFC98",
"I. c #5AFC99",
"U. c #58FE98",
"Y. c #58FF98",
"T. c #58FE99",
"R. c #58FF99",
"E. c #5CFC98",
"W. c #5CFD98",
"Q. c #5DFC99",
"!. c #5EFC99",
"~. c #5FFC9A",
"^. c #5FF99C",
"/. c #62EB9A",
"(. c #63EB9A",
"). c #64EA9B",
"_. c #65E99C",
"`. c #62F79D",
"'. c #63F69E",
"]. c #63F79E",
"[. c #66F79D",
"{. c #65F59F",
"}. c #66F59F",
"|. c #64F69E",
" X c #68F79E",
".X c #6AF69F",
"XX c #6AF79F",
"oX c #60F99A",
"OX c #61F99B",
"+X c #61FA9B",
"@X c #60F89C",
"#X c #61F89C",
"$X c #60F99C",
"%X c #61F89D",
"&X c #64F89C",
"*X c #64F99C",
"=X c #66F89D",
"-X c #67F89D",
";X c #64FA9C",
":X c #68F99E",
">X c #79EEA7",
",X c #7AEFA8",
"<X c #7FEEAA",
"1X c #67F4A0",
"2X c #66F5A0",
"3X c #67F5A0",
"4X c #67F4A1",
"5X c #68F3A1",
"6X c #69F3A1",
"7X c #69F3A2",
"8X c #6AF2A2",
"9X c #6AF3A2",
"0X c #6CF1A3",
"qX c #6BF7A0",
"wX c #6CF5A0",
"eX c #6CF6A0",
"rX c #6DF6A0",
"tX c #6FF4A2",
"yX c #6FF6A2",
"uX c #6CF1A4",
"iX c #6DF1A4",
"pX c #72F3A3",
"aX c #70F5A2",
"sX c #71F5A2",
"dX c #71F4A3",
"fX c #71F5A3",
"gX c #72F4A3",
"hX c #73F4A3",
"jX c #72F5A3",
"kX c #75F2A5",
"lX c #75F3A5",
"zX c #76F4A5",
"xX c #78F1A7",
"cX c #79F1A7",
"vX c #7AF0A7",
"bX c #78F3A6",
"nX c #79F2A7",
"mX c #7AF1A8",
"MX c #7BF2A8",
"NX c #7CF0A9",
"BX c #AD9C9C",
"VX c gray71",
"CX c #D6DEDE",
"ZX c white",
/* pixels */
"o.! ! ! C ! ! ! ! ! _.! ! ! w ! ! ! ! ! ! ! ! V ! ! ! ! ! /.W ! ! w ! ! ! ! ! ! ! ! (.! ! ! ! ! Q Z ! ! w ! ! ! ! ! ! ! ! ).X.! ",
"Y.0.u.`.S.A.0.0.0.9X].|.1.u H d 0.0.0.0.0.0.|.d.#X0.0.0.#X}.`.J.6 { 0 0.0.0.0.0.0.%X@X`.0.0.0.n.@X2X@Xd ' a 7.0.0.0.0.0.n.3XC.A.",
"Y.0.0.n.g.0.0.0.0.L.w.j.0.O.7.5.0.d.q.0.0.0.b.0.f.0.0.0.p.d.J.0.O.0.*.0.0.u.0.0.0.J.q.f.0.0.0.0.J.J.w.%.0.,.0.0.p.0.0.0.r.d.p.0.",
"Y.0.0.0.0.0.0.0.0.0.0.0.0.0.0.0.S.6XS.x.0.0.0.0.0.0.0.0.0.0.0.0.0.0.0.n.s.{.x.0.0.0.0.0.0.0.0.0.0.0.0.0.0.0.p.J.1Xm.0.0.0.0.0.0.",
"Y.0.0.0.0.0.0.0.0.0.0.0.0.0.0.0.d.J.c.0.0.0.0.0.0.0.0.0.0.0.0.0.0.0.0.0.p.v.r.0.0.0.0.0.0.0.0.0.0.0.0.0.0.0.0.p.d.J.0.0.0.0.0.0.",
"Y.0.0.0.0.0.0.0.0.0.0.0.0.0.0.0.0.0.0.0.0.0.0.0.0.0.0.0.0.0.0.0.0.0.0.0.0.0.0.0.0.0.0.0.0.0.0.0.0.0.0.0.0.0.0.0.0.0.0.0.0.0.0.0.",
"Y.0.0.0.0.0.0.0.0.0.0.0.0.0.0.0.0.0.0.0.0.0.0.0.0.0.0.0.0.0.0.0.0.0.0.0.0.0.0.0.0.0.0.0.0.0.0.0.0.0.0.0.0.0.0.0.0.0.0.0.0.0.0.0.",
"Y.0.0.0.0.0.0.0.0.0.0.0.0.0.0.0._ - { _ 0.0.0.0.0.0.0.0.0.0.0.0.0.0.0._  .r } 0.0.0.0.0.0.0.0.0.0.0.0.0.0.0.>.| 3 ..0.0.0.0.0.0.",
"Y.0.0.0.0.0.0.0.0.0.0.0.0.0.0.0.+.` j 0.0.0.0.0.0.0.0.0.0.0.0.0.0.0.0.0.%.P 7.0.0.0.0.0.0.0.0.0.0.0.0.0.0.0.0.%.+.` 0.0.0.0.0.0.",
"Y.0.0.0.0.0.0.0.0.0.0.0.0.0.0.Z.4X2XJ.0.0.0.0.0.0.0.0.0.0.0.0.0.0.0.d.@XG.L.0.0.0.0.0.0.0.0.0.0.0.0.0.0.0.0.|.G.L.0.0.0.0.0.0.0.",
"K.4.M [ 0.0.0.0.0.0.0.0.0.0.0.j.Z.{.j.0.*.M +.0.0.0.0.0.0.0.0.0.0.0.t.Z.s.@X0.*.; +.8.0.0.0.0.0.0.0.0.0.0.0.@Xf.'.0.*.9 ..%.0.0.",
"K.1 [ I 0.0.0.| ) $.>.0.0.0.0.0.0.0.0.0., =.n 0.0.0.7.#.T >.0.0.0.0.0.0.0.0.0.D U M 8.0.0.0.,.' 5.0.0.0.0.0.0.0.0.0.[ k / &.0.0.",
"Y.0.0.0.0.0.0.| E n | 0.0.0.0.0.0.0.0.0.0.0.0.0.0.0.7.B E F 0.0.0.0.0.0.0.0.0.0.0.0.0.0.0.0.s ,.l 0.0.0.0.0.0.0.0.0.0.0.0.0.0.0.",
"Y.0.0.!.yXW.y.0.0.0.0.0.0.0.0.0.0.0.0.0.0.0.~.dXOXE.0.0.0.0.0.X     X 0.0.0.0.0.0.N.=XqXk.0.0.0.0.0.0.0.0.0.0.0.0.0.0.0.g.P.zXk.",
"Y.0.0.MXgX<Xh.0.0.0.0.0.0.0.0.0.0.0.0.0.0.0.lXcX>X.X0.0.0.0.0.0.. o o X 0.0.0.0.0.tXeXxX[.0.0.0.0.0.0.0.0.0.0.0.0.0.0.0.N.kXlXhX",
"Y.0.0.t.y.g.0.0.0.0.0.0.0.0.0.0.0.0.0.0.0.0.q.t.g.0.0.0.0.0.0.0.0.. o o X 0.0.0.0.0.e.g.0.0.0.0.0.0.0.0.0.0.0.0.0.0.0.0.0.t.q.t.",
"Y.0.0.0.0.0.0.0.0.0.0.0.0.0.0.0.0.0.0.0.0.0.0.0.0.0.0.0.0.0.0.0.0.. o o X 0.0.0.0.0.0.0.0.0.0.0.0.0.0.0.0.0.0.0.0.0.0.0.0.0.0.0.",
"Y.0.0.0.d.0.0.0.0.0.Z.0.0.0.[ 0.0.0.0.0.0.0.0.d.0.0.0.0.0.S.r.0.  X X X   0.0.0.0.0.S.0.0.0.0.0.r.c.0.0.| 0.0.0.0.0.0.0.0.F.r.0.",
"Y.0.p.s.S.B.0.0.0.`.0XF.2._ l l 0.0.0.0.0.0.c.M.Z.0.0.        X o X X X . 0.0.0.0.J.5X@X0.0.0.A.J.|.@XL n c 7.0.0.0.0.0.J.9XM.F.",
"Y.0.0.m.p.0.0.0.0.n.r.J.0.Y 5.,.0.c.w.0.0.0.n.0.p.X X o o o o o X X   . w.j.0.0.0.c.q.p.0.0.0.0.c.n.r.[ 0.$.0.0.c.0.0.0.r.j.p.0.",
"Y.0.0.0.0.0.0.0.0.0.0.0.0.0.0.0.@X6XV.m.0.0.0.X X ZXZXo o o o o o o o   j.}.v.0.0.0.0.0.0.0.0.0.0.0.0.0.0.0.d.A.1XC.0.0.0.0.0.0.",
"Y.0.0.0.0.0.0.0.0.0.0.0.0.0.0.0.f.p.d.0.0.0.X ZXZXVXo o o o o o o o o o   j.w.0.0.0.0.0.0.0.0.0.0.0.0.0.0.0.0.r.f.p.0.0.0.0.0.0.",
"Y.0.0.0.0.0.0.0.0.0.0.0.0.0.0.0.0.0.0.0.0.X CXZXCXo X o o o o o o o o o X   0.0.0.0.0.0.0.0.0.0.0.0.0.0.0.0.0.0.0.0.0.0.0.0.0.0.",
"Y.0.0.0.0.0.0.0.0.0.0.0.0.0.0.0.0.0.0.0.X CXCXo X X X X o o o o o o X X X   0.0.0.0.0.0.0.0.0.0.0.0.0.0.0.0.0.0.0.0.0.0.0.0.0.0.",
"Y.0.0.0.0.0.0.0.0.0.0.0.0.0.0.0.~ * ' / o CXCXCXo X X X X X X X X X X X X X   0.0.0.0.0.0.0.0.0.0.0.0.0.0.0.| / $ ' 0.0.0.0.0.0.",
"Y.0.0.0.0.0.0.0.0.0.0.0.0.0.0.0.+.` h o CX  VXCXCXCXX X X X X X X X X X X X   0.0.0.0.0.0.0.0.0.0.0.0.0.0.0.0.@.+.` 0.0.0.0.0.0.",
"Y.0.0.0.0.0.0.0.0.0.0.0.0.0.0.a.Z.@Xr.o   CX  CXCXCXo X X X X X X X X X X X   0.0.0.0.0.0.0.0.0.0.0.0.0.0.0.j.b.t.0.0.0.0.0.0.0.",
"U.7.H ;.0.0.0.0.0.0.0.0.0.0.0.J.Z.O O CX  CX  CXCXCXCXX X X X X X X X X X X   7.e >.0.0.0.0.0.0.0.0.0.0.0.0.@Xf.#X0.5.t :.,.0.0.",
"K.1 ( v 0.0.0.&.| *.5.0.0.0.0.X X # # CX  X   CXCXCXCXX X X X X X X X X X X . x x j 8.0.0.0.5.+.7.0.0.0.0.0.0.0.0.0.) y E #.0.0.",
"Y.0.0.0.0.0.0.^ K A ( 0.0.0.    o # # + CXX CXCXCXCXo X X X X X X X X X X X X . 0.0.0.0.0.0.e &.1 0.0.0.0.0.0.0.0.0.0.0.0.0.0.0.",
"Y.0.0.0.;X0.0.0.0.0.0.0.0.0.0.0.0.O   + CXCXCXCXCXCXX X X X X X X X X X X X X X . 0.Q.+X0.0.0.0.0.0.0.0.0.0.0.0.0.0.0.0.0.0.:X0.",
"Y.0.0.lXaX,Xt.0.0.0.0.0.0.0.0.0.0.0.0.X CXCXCXCXCXX X X X X X X X X X X X X X X X . XXvXoX0.0.0.0.0.0.0.0.0.0.0.0.0.0.0.k.tXjXsX",
"Y.0.0.r.9.t.0.0.0.0.0.0.0.0.0.0.0.0.0.  CXCXCXVXX X X X X X X X X X X X X     . . 0.q.t.X X X 0.0.0.0.0.0.0.0.0.0.0.0.0.0.w.q.r.",
"Y.0.0.0.0.0.0.0.0.0.0.0.0.0.0.0.0.0.. X X X X X X X X X X X X X X X X X . @ . 0.        X VXVX. 0.0.0.0.0.0.0.0.0.0.0.0.0.0.0.0.",
"Y.0.0.0.f.0.0.0.0.0.L.0.0.0.=.0.0.. X X .   X X   X X X X   X X X     X . @ @   o o o X ZXZXVXo   a.0.0.=.0.0.0.0.0.0.0.0.J.w.0.",
"Y.0.d.B.Z.#X0.0.0.7XuX].3.~ x < 0..   . @   X . @   X X . @   X . @ @   . BXBX  o o o VXZXZXo o   1X|.H M f 7.0.0.0.0.0.n.0XC.#X",
"Y.0.0.n.g.0.0.0.0.L.r.J.0.] 7.5.0.p.q.X @   . BXBX@     @ @ @   @ @ @ BXBXBX  o o o o ZXZXVXo o   L.r.%.0.,.0.0.u.0.0.0.r.d.p.0.",
"Y.0.0.0.0.0.0.0.0.0.0.0.0.0.0.0.Z.8XX @ @ @ @ BXBXBXX @ . . . . . . @ BXBXBX  X X o o ZXZXo o   0.0.0.0.0.0.p.b.5Xm.0.0.0.0.0.0.",
"Y.0.0.0.0.0.0.0.0.0.0.0.0.0.0.0.L.S.X @ @ @ @ @ BXBX. . X X X X X . . BXBXBX  X X X VXZXVXo o   0.0.0.0.0.0.0.j.c.S.0.0.0.0.0.0.",
"Y.0.0.0.0.0.0.0.0.0.0.0.0.0.0.0.0.0.  @ @ @ @ @ X X X X X X . . . X X   @ @   X X X VXVXX X   0.0.0.0.0.0.0.0.0.0.0.0.0.0.0.0.0.",
"Y.0.0.0.0.0.0.0.0.0.0.0.0.0.0.0.0.0.  @ @ @ @ @ @ X X X X . X X X X X   @ @   X X X VXX X   . 0.0.0.0.0.0.0.0.0.0.0.0.0.0.0.0.0.",
"Y.0.0.0.0.0.0.0.0.0.0.0.0.0.0.0.( =   @ @ @ X X X X X X X X X X X . .   @ @   X X X X X   . . 0.0.0.0.0.0.0.;.{ % | 0.0.0.0.0.0.",
"Y.0.0.0.0.0.0.0.0.0.0.0.0.0.0.0.S 1 q   @ @ @ X X X X X X X . . . X   @ @ @   X X X     X X   0.0.0.0.0.0.0.$.H z m 0.0.0.0.0.0.",
"Y.0.0.0.0.0.0.0.0.0.0.0.0.0.0.d.^.@Xt.  X X @ @ X X X X X X X X X X   @ @ @ @ .     X X X . 0.0.0.0.0.0.0.0.L.b.f.0.0.0.0.0.0.0.",
"U.7.F +.0.0.0.0.0.0.0.0.0.0.0.J.$X}.j.0.  X X X X X X X X X X X X   @ @ @ @ @ @ . X X . . 0.0.0.0.0.0.0.0.0.%Xf.|.0.,.e ..&.0.0.",
"K.k [ I 0.0.0.#.) $.,.0.0.0.0.0.0.0.0.0.t     X X X X X X X X     @ @ @ @ @ @   . . . 0.0.0.,.' 5.0.0.0.0.0.0.0.0.0.' g ) &.0.0.",
"Y.0.0.0.0.0.0.m b 2 I 0.0.0.0.0.0.0.0.0.0.0.0.    X X X X     @ @ @ @ @       0.0.0.0.0.0.0.5 @., 0.0.0.0.0.0.0.0.0.0.0.0.0.0.0.",
"Y.0.0.0.-X0.0.0.0.0.0.0.0.0.0.0.0.0.0.0.0.0.0. Xl.        X X X . .     O 0.0.0.0.0.N.*X0.0.0.0.0.0.0.0.0.0.0.0.0.0.0.0.0.0.rX0.",
"Y.0.0.bXjXNXg.0.0.0.0.0.0.0.0.0.0.0.0.0.0.0.fXmXO + + O O   +   0.0.O + O   0.0.0.wXeXnX&X0.0.0.0.0.0.0.0.0.0.0.0.0.0.0.E.pXzXfX",
"Y.0.0.t.y.a.0.0.0.0.0.0.0.0.0.0.0.0.0.0.0.0.e.  O O O # # # + O O O + + + + O 0.0.0.y.h.0.0.0.0.0.0.0.0.0.0.0.0.0.0.0.0.0.t.e.g.",
"Y.0.0.0.0.0.0.0.0.0.0.0.0.0.0.0.0.0.0.0.0.0.0.  + + O       # #   O         O 0.0.0.0.0.0.0.0.0.0.0.0.0.0.0.0.0.0.0.0.0.0.0.0.0.",
"Y.0.0.0.w.0.0.0.0.0.t.0.0.0.5.0.0.0.0.0.0.0.0.r.    0.0.0.r.O     ,.0.0.0.0.0.0.0.0.r.0.0.0.0.0.0.r.0.0.<.0.0.0.0.0.0.0.0.u.q.0.",
"Y.0.u.s.S.S.0.0.0.%X0XS.2.+.l j 0.0.0.0.0.0.c.D.C.0.0.0.m.6Xc.J.E l j 0.0.0.0.0.0.J.6XZ.0.0.0.n.J.|.Z.E c c 7.0.0.0.0.0.j.8XM.S.",
"Y.0.0.C.d.0.0.0.0.S.r.n.0.U 5.>.0.g.q.0.0.0.B.0.p.0.0.0.j.c.v.0.U 0.#.0.q.r.0.0.0.n.q.p.0.0.0.0.m.S.r.[ 0.$.0.0.u.0.0.0.r.J.a.0.",
"Y.0.0.0.0.0.0.0.0.0.0.0.0.0.0.0.L.iXc.J.0.0.0.0.0.0.0.0.0.0.0.0.0.0.0.L.i.2Xj.0.0.0.0.0.0.0.0.0.0.0.0.0.0.0.p.d.0Xj.0.0.0.0.0.0.",
"R.0.0.0.0.0.0.0.0.0.0.0.0.0.0.0.I.S.Z.0.0.0.0.0.0.0.0.0.0.0.0.0.0.0.0.0.H.#Xf.0.0.0.0.0.0.0.0.0.0.0.0.0.0.0.0.H.c.S.0.0.0.0.0.0.",
"Y.0.0.0.0.0.0.0.0.0.0.0.0.0.0.0.0.0.0.0.0.0.0.0.0.0.0.0.0.0.0.0.0.0.0.0.0.0.0.0.0.0.0.0.0.0.0.0.0.0.0.0.0.0.0.0.0.0.0.0.0.0.0.0.",
"R.0.0.0.0.0.0.0.0.0.0.0.0.0.0.0.0.0.0.0.0.0.0.0.0.0.0.0.0.0.0.0.0.0.0.0.0.0.0.0.0.0.0.0.0.0.0.0.0.0.0.0.0.0.0.0.0.0.0.0.0.0.0.0.",
"Y.0.0.0.0.0.0.0.0.0.0.0.0.0.0.0.-.z *.5.0.0.0.0.0.0.0.0.0.0.0.0.0.0.0.=...n 5.0.0.0.0.0.0.0.0.0.0.0.0.0.0.0.7.5.p 5.0.0.0.0.0.0.",
"R.0.0.0.0.0.0.0.0.0.0.0.0.0.0.0.G 1 8 { 0.0.0.0.0.0.0.0.0.0.0.0.0.0.0.' R , ( 0.0.0.0.0.0.0.0.0.0.0.0.0.0.0.;.H z m 0.0.0.0.0.0.",
"Y.0.0.0.0.0.0.0.0.0.0.0.0.0.0.t.C.@Xr.0.0.0.0.0.0.0.0.0.0.0.0.0.0.0.w.u.b.r.0.0.0.0.0.0.0.0.0.0.0.0.0.0.0.0.p.b.r.0.0.0.0.0.0.0.",
"T.8.J 5.0.0.0.0.0.0.0.0.0.0.0.J.C.`.d.0.7.L 5.0.0.0.0.0.0.0.0.0.0.0.f.C.d.F.0.7.t 7.0.0.0.0.0.0.0.0.0.0.0.0.@Xf.@X0.7.d :.7.0.0.",
"z.1 F : 0.0.0.0.>.5.0.0.0.0.0.0.0.0.0.0.6 T & 0.0.0.0.0.$.0.0.0.0.0.0.0.0.0.0.i > 7 5.0.0.0.0.%.0.0.0.0.0.0.0.0.0.0.F 4 N ~ 0.0.",
"Y.5.0.0.0.0.0.B N G ) 0.0.0.0.0.0.0.0.0.6.0.8.0.0.0.>.d H M 0.0.0.0.0.0.0.0.0.7.8.7.0.0.0.0.p +.z 0.0.0.0.0.0.0.0.0.8.7.7.0.0.0."
};
