/* XPM */
static char *result[] = {
/* columns rows colors chars-per-pixel */
"64 64 241 2 ",
"   c black",
".  c #3A2129",
"X  c #524A4A",
"o  c #736363",
"O  c #9C4A21",
"+  c #D67300",
"@  c #8C7373",
"#  c #FF9429",
"$  c #4FDD90",
"%  c #50DF91",
"&  c #4FE390",
"*  c #4DE590",
"=  c #4EE590",
"-  c #4FE590",
";  c #4EE790",
":  c #4FE791",
">  c #4FE891",
",  c #4FEA91",
"<  c #4FED91",
"1  c #4FEE91",
"2  c #51E091",
"3  c #50E290",
"4  c #51E391",
"5  c #50E591",
"6  c #50E691",
"7  c #51E691",
"8  c #50E791",
"9  c #51E592",
"0  c #51E792",
"q  c #54E791",
"w  c #50E891",
"e  c #51E891",
"r  c #50E991",
"t  c #51E991",
"y  c #50EA91",
"u  c #50EB91",
"i  c #51E992",
"p  c #52E892",
"a  c #52E992",
"s  c #51EA92",
"d  c #50EB92",
"f  c #51EB92",
"g  c #52EA92",
"h  c #52EB92",
"j  c #50EC92",
"k  c #51EC92",
"l  c #50ED92",
"z  c #51ED92",
"x  c #52EC92",
"c  c #52ED92",
"v  c #52ED93",
"b  c #51EE92",
"n  c #50EF92",
"m  c #51EF92",
"M  c #52EE93",
"N  c #52EF93",
"B  c #5BEF95",
"V  c #5BEF96",
"C  c #5FED98",
"Z  c #4FF091",
"A  c #4FF192",
"S  c #50F092",
"D  c #51F092",
"F  c #50F192",
"G  c #51F192",
"H  c #51F193",
"J  c #52F093",
"K  c #52F193",
"L  c #50F292",
"P  c #51F292",
"I  c #50F392",
"U  c #51F392",
"Y  c #51F393",
"T  c #52F293",
"R  c #52F393",
"E  c #56F193",
"W  c #57F193",
"Q  c #55F292",
"!  c #50F492",
"~  c #51F492",
"^  c #51F493",
"/  c #51F593",
"(  c #52F493",
")  c #52F593",
"_  c #50F692",
"`  c #51F693",
"'  c #50F793",
"]  c #51F793",
"[  c #52F693",
"{  c #53F693",
"}  c #52F793",
"|  c #54F194",
" . c #53F694",
".. c #58F194",
"X. c #5AF397",
"o. c #50F893",
"O. c #51F893",
"+. c #51F993",
"@. c #52F893",
"#. c #52F993",
"$. c #51FA93",
"%. c #51FB93",
"&. c #52FA93",
"*. c #52FB93",
"=. c #51FC93",
"-. c #52F994",
";. c #53F994",
":. c #52FA94",
">. c #52FB94",
",. c #53FB94",
"<. c #55FA95",
"1. c #56FA95",
"2. c #57F896",
"3. c #51FD94",
"4. c #52FC94",
"5. c #53FC94",
"6. c #52FD94",
"7. c #52FE94",
"8. c #53FE94",
"9. c #52FF94",
"0. c #53FF94",
"q. c #53FE95",
"w. c #53FF95",
"e. c #54FE95",
"r. c #55FE95",
"t. c #54FF95",
"y. c #55FD96",
"u. c #57FC96",
"i. c #56FD96",
"p. c #57FD96",
"a. c #57FC97",
"s. c #57FD97",
"d. c #55FE96",
"f. c #56FE96",
"g. c #57FE96",
"h. c #58FD96",
"j. c #58FC97",
"k. c #59FD97",
"l. c #5AFC97",
"z. c #58FB98",
"x. c #59FB98",
"c. c #5AFB98",
"v. c #5BFA99",
"b. c #5AFB99",
"n. c #5BFB99",
"m. c #5CFA99",
"M. c #5CFB99",
"N. c #5EFB99",
"B. c #5DF99A",
"V. c #5FF89B",
"C. c #5EF99B",
"Z. c #5FF99B",
"A. c #5CFA9A",
"S. c #5DFA9A",
"D. c #5CFB9A",
"F. c #5EFA9A",
"G. c #5EFA9B",
"H. c #58FC98",
"J. c #59FC98",
"K. c #58FD98",
"L. c #5AFC98",
"P. c #5BFC98",
"I. c #5AFC99",
"U. c #58FE98",
"Y. c #58FF98",
"T. c #58FE99",
"R. c #58FF99",
"E. c #5CFC98",
"W. c #5CFD98",
"Q. c #5EFC99",
"!. c #5FFC9A",
"~. c #5FF99C",
"^. c #62EB9A",
"/. c #63EB9A",
"(. c #64EA9B",
"). c #65E99C",
"_. c #62F79D",
"`. c #63F69E",
"'. c #63F79E",
"]. c #66F79D",
"[. c #65F59F",
"{. c #66F59F",
"}. c #64F69E",
"|. c #68F79E",
" X c #6AF69F",
".X c #61F99B",
"XX c #60F89C",
"oX c #61F89C",
"OX c #60F99C",
"+X c #61F89D",
"@X c #64F89C",
"#X c #64F99C",
"$X c #66F89D",
"%X c #67F89D",
"&X c #64FA9C",
"*X c #68F89E",
"=X c #68F99E",
"-X c #79EEA7",
";X c #78EFA7",
":X c #7AEFA8",
">X c #7FEEAA",
",X c #67F4A0",
"<X c #66F5A0",
"1X c #67F5A0",
"2X c #67F4A1",
"3X c #68F3A1",
"4X c #69F3A1",
"5X c #69F3A2",
"6X c #6AF2A2",
"7X c #6AF3A2",
"8X c #6CF1A3",
"9X c #6BF7A0",
"0X c #6CF5A0",
"qX c #6CF6A0",
"wX c #6DF6A0",
"eX c #6FF4A2",
"rX c #6FF6A2",
"tX c #6CF1A4",
"yX c #6DF1A4",
"uX c #72F3A3",
"iX c #70F5A2",
"pX c #71F5A2",
"aX c #71F4A3",
"sX c #71F5A3",
"dX c #72F4A3",
"fX c #73F4A3",
"gX c #72F5A3",
"hX c #75F2A5",
"jX c #75F3A5",
"kX c #76F4A5",
"lX c #78F1A7",
"zX c #79F1A7",
"xX c #78F3A6",
"cX c #79F2A7",
"vX c #7AF1A8",
"bX c #7BF2A8",
"nX c #7CF0A9",
"mX c #AD9C9C",
"MX c gray71",
"NX c #D6DEDE",
"BX c white",
/* pixels */
"X.Q Q Q V Q Q Q Q Q ).Q Q Q q Q Q Q Q Q Q Q Q B Q Q Q Q Q ^.E Q Q q Q Q Q Q Q Q Q Q /.Q Q Q Q Q W C Q Q q Q Q Q Q Q Q Q Q (...Q ",
"Y.9.y._.S.A.9.9.9.7X'.}.<.y G s 9.9.9.9.9.9.}.s.oX9.9.9.oX{._.J.5 [ 9 9.9.9.9.9.9.+XXX_.9.9.9.n.XX<XXXs ` p 6.9.9.9.9.9.n.1XC.A.",
"Y.9.9.n.f.9.9.9.9.L.q.j.9.o.6.4.9.s.0.9.9.9.b.9.d.9.9.9.i.s.J.9.o.9.&.9.9.y.9.9.9.J.0.d.9.9.9.9.J.J.q.$.9.>.9.9.i.9.9.9.e.s.i.9.",
"Y.9.9.9.9.9.9.9.9.9.9.9.9.9.9.9.S.4XS.x.9.9.9.9.9.9.9.9.9.9.9.9.9.9.9.n.a.[.x.9.9.9.9.9.9.9.9.9.9.9.9.9.9.9.i.J.,Xm.9.9.9.9.9.9.",
"Y.9.9.9.9.9.9.9.9.9.9.9.9.9.9.9.s.J.c.9.9.9.9.9.9.9.9.9.9.9.9.9.9.9.9.9.i.v.e.9.9.9.9.9.9.9.9.9.9.9.9.9.9.9.9.i.s.J.9.9.9.9.9.9.",
"Y.9.9.9.9.9.9.9.9.9.9.9.9.9.9.9.9.9.9.9.9.9.9.9.9.9.9.9.9.9.9.9.9.9.9.9.9.9.9.9.9.9.9.9.9.9.9.9.9.9.9.9.9.9.9.9.9.9.9.9.9.9.9.9.",
"Y.9.9.9.9.9.9.9.9.9.9.9.9.9.9.9.9.9.9.9.9.9.9.9.9.9.9.9.9.9.9.9.9.9.9.9.9.9.9.9.9.9.9.9.9.9.9.9.9.9.9.9.9.9.9.9.9.9.9.9.9.9.9.9.",
"Y.9.9.9.9.9.9.9.9.9.9.9.9.9.9.9.) - [ ) 9.9.9.9.9.9.9.9.9.9.9.9.9.9.9.) | e { 9.9.9.9.9.9.9.9.9.9.9.9.9.9.9.:.} 2  .9.9.9.9.9.9.",
"Y.9.9.9.9.9.9.9.9.9.9.9.9.9.9.9.O._ h 9.9.9.9.9.9.9.9.9.9.9.9.9.9.9.9.9.$.L 6.9.9.9.9.9.9.9.9.9.9.9.9.9.9.9.9.$.O._ 9.9.9.9.9.9.",
"Y.9.9.9.9.9.9.9.9.9.9.9.9.9.9.Z.2X<XJ.9.9.9.9.9.9.9.9.9.9.9.9.9.9.9.s.XXG.L.9.9.9.9.9.9.9.9.9.9.9.9.9.9.9.9.}.G.L.9.9.9.9.9.9.9.",
"K.3.m ] 9.9.9.9.9.9.9.9.9.9.9.j.Z.[.j.9.&.m O.9.9.9.9.9.9.9.9.9.9.9.r.Z.a.XX9.&.; O.7.9.9.9.9.9.9.9.9.9.9.9.XXd.`.9.&.8  .$.9.9.",
"K.< ] P 9.9.9.} ( #.:.9.9.9.9.9.9.9.9.9., *.b 9.9.9.6.@.Y :.9.9.9.9.9.9.9.9.9.S I m 7.9.9.9.>.` 4.9.9.9.9.9.9.9.9.9.] j ^ %.9.9.",
"Y.9.9.9.9.9.9.} R b } 9.9.9.9.9.9.9.9.9.9.9.9.9.9.9.6.N R D 9.    X 9.9.9.9.9.9.9.9.9.9.9.9.a >.k 9.9.9.9.9.9.9.9.9.9.9.9.9.9.9.",
"Y.9.9.Q.rXW.t.9.9.9.9.9.9.9.9.9.9.9.9.9.9.9.!.aX.XE.9.9.9.9.  o o 9.9.9.9.9.9.9.9.N.$X9Xk.9.9.9.9.9.9.9.9.9.9.9.9.9.9.9.f.P.kXk.",
"Y.9.9.bXdX>Xg.9.9.9.9.9.9.9.9.9.9.9.9.9.9.9.jXzX-X X9.9.9.    o X 9.9.9.9.9.9.9.9.eXqXlX].9.9.9.9.9.9.9.9.9.9.9.9.9.9.9.N.hXjXfX",
"Y.9.9.r.t.f.9.9.9.9.9.9.9.9.9.9.9.9.9.9.9.9.0.r.f.9.9.9.9.  o o X   9.9..       9.9.w.f.9.9.9.9.9.9.9.9.9.9.9.9.9.9.9.9.9.r.0.r.",
"Y.9.9.9.9.9.9.9.9.9.9.9.9.9.9.9.9.9.9.9.9.9.9.9.9.9.9.9.9.  X X X .   o o o o o       9.9.9.9.9.9.9.9.9.9.9.9.9.9.9.9.9.9.9.9.9.",
"Y.9.9.9.s.9.9.9.9.9.Z.9.9.9.] 9.9.9.9.9.9.9.9.s.9.9.9.9.9.      X o o o o o o o MXMXMX    9.9.9.e.c.9.9.} 9.9.9.9.9.9.9.9.F.e.9.",
"Y.9.i.a.S.B.9.9.9._.8XF.1.) k k 9.9.9.9.9.9.c.M.Z.9.9.9.S.3Xn.X o o o o o o o BXBXBXBXBXX   9.A.J.}.XXK b x 6.9.9.9.9.9.J.7XM.F.",
"Y.9.9.m.i.9.9.9.9.n.e.J.9.U 4.>.9.c.q.9.9.9.n.9.i.9.9.9.s.j.X o o o o o o o MXBXBXBXBXBXBXX   9.c.n.e.] 9.#.9.9.c.9.9.9.e.j.i.9.",
"Y.9.9.9.9.9.9.9.9.9.9.9.9.9.9.9.XX4XV.m.9.9.9.9.9.9.9.9.9.9.X o o o o o o o BXBXBXBXBXBXBXMX  9.9.9.9.9.9.9.s.A.,XC.9.9.9.9.9.9.",
"Y.9.9.9.9.9.9.9.9.9.9.9.9.9.9.9.d.i.s.9.9.9.9.9.9.9.9.9.9.X o o o o o o o o MXBXBXBXBXBXBXBXX   9.9.9.9.9.9.9.e.d.i.9.9.9.9.9.9.",
"Y.9.9.9.9.9.9.9.9.9.9.9.9.9.9.9.9.9.9.9.9.9.9.9.9.9.9.9.9.X o o o o MXMXMXo o MXBXBXBXBXBXBXX   9.9.9.9.9.9.9.9.9.9.9.9.9.9.9.9.",
"Y.9.9.9.9.9.9.9.9.9.9.9.9.9.9.9.9.9.9.9.9.9.9.9.9.9.9.9.X o o o o BXBXBXBXBXBXMXMXBXBXBXBXBXMXMX  9.9.9.9.9.9.9.9.9.9.9.9.9.9.9.",
"Y.9.9.9.9.9.9.9.9.9.9.9.9.9.9.9.! * ` ^ 9.9.9.9.9.9.9.9.X o o o MXBXBXBXBX      BXBXBXBXBXBXBX    9.9.9.9.9.} ^ $ ` 9.9.9.9.9.9.",
"Y.9.9.9.9.9.9.9.9.9.9.9.9.9.9.9.O._ g 9.9.9.9.9.9.9.9.9.X o o o BXBXBXBXX   BX  X BXBXBXBXBX  BX  9.9.9.9.9.9.+.O._ 9.9.9.9.9.9.",
"Y.9.9.9.9.9.9.9.9.9.9.9.9.9.9.p.Z.XXe.9.9.9.9.9.9.9.9.9.  X o o BXBXBXBXX   BX  X BXBXO O     NX  9.9.9.9.9.j.b.r.9.9.9.9.9.9.9.",
"U.6.G -.9.9.9.9.9.9.9.9.9.9.9.J.Z.'.s.9.4.J :.9.9.9.9.9.  X X X NXBXBXBXX   MX  X MXO # # O   X . 9.9.9.9.9.XXd.oX9.4.r ;.>.9.9.",
"K.< / c 9.9.9.%.} &.4.9.9.9.9.9.9.9.. . , @.a 9.9.9.7.=.  X X X MXNXNXNXNX      O # # # # # . . . 9.9.9.9.9.9.9.9.9.( t R @.9.9.",
"Y.9.9.9.9.9.9.~ J Z / 9.9.9.9.9.9.BXBXBX.     . . 9.=.  X X X X X MXNXNXNXNXNXNXX X . # # # O     9.9.9.9.9.9.9.9.9.9.9.9.9.9.9.",
"Y.9.9.9.&X9.9.9.9.9.9.9.9.9.9.9.. BXBXBXBXMXo o .       X X X X X X MXNXNXNXNXNX. O O .   O o o o   9.9.9.9.9.9.9.9.9.9.9.9.=X9.",
"Y.9.9.jXiX:Xr.9.9.9.9.9.9.9.9.9.. BXBXBXBXBXo o   @   X X X X X X X X X X MXNXNXMX. . MXMX      o o   9.9.9.9.9.9.9.9.9.k.eXgXpX",
"Y.9.9.e.8.r.9.9.9.9.9.9.9.9.      o o BXBXBXo o   @     X X @ X X X X X X X X X X X X X X . X X       9.9.9.9.9.9.9.9.9.9.q.0.e.",
"Y.9.9.9.9.9.9.9.9.9.9.9.9.    o o o o MXBXBXBXBX    mXmXmXmXX @   X X X   X X X X   X X X mX  X . 9.9.9.9.9.9.9.9.9.9.9.9.9.9.9.",
"Y.9.9.9.d.9.9.9.9.9.L.9.9.9.  o o o o o   . BX  mXmXmXmXmXmXmXX @   X   mX  X X . NX  X   mXmX  q.p.9.9.*.9.9.9.9.9.9.9.9.J.q.9.",
"Y.9.s.B.Z.oX9.9.9.5XtX'.2.! z     X X   X X   @ @ mXmXmXmXmXmXX mXmX  mXmXNX  . BXNXNX    mXmXX X ,X}.G m d 6.9.9.9.9.9.n.8XC.oX",
"Y.9.9.n.f.9.9.9.9.L.e.J.9.' 6.4.9.i.      X   o @ @ mXmXmXmXmXX mXmXmXmXBXBXBXBXBXBXBXNXmXmXmXX X L.e.$.9.>.9.9.y.9.9.9.e.s.i.9.",
"Y.9.9.9.9.9.9.9.9.9.9.9.9.9.9.9.Z.6XB.c.X X X X @ @ @ @ @ @ @ X mXmXmXmXBXBXBXBXBXBXBXBXmXmXmXX X 9.9.9.9.9.i.b.3Xm.9.9.9.9.9.9.",
"Y.9.9.9.9.9.9.9.9.9.9.9.9.9.9.9.L.S.Z.9.  X X X X X @ @ @ @ . @ @ mXmXmXNXBXBXBXBXBXBXNXmXmXmXX 9.9.9.9.9.9.9.j.c.S.9.9.9.9.9.9.",
"Y.9.9.9.9.9.9.9.9.9.9.9.9.9.9.9.9.9.9.9.9.X X X X X @ X X @ . @ @ @ @ mXmXBXBXBXBXBXNXmXmX@ X X 9.9.9.9.9.9.9.9.9.9.9.9.9.9.9.9.",
"Y.9.9.9.9.9.9.9.9.9.9.9.9.9.9.9.9.9.9.9.9.  X X X X X X X . @ @ @ @ mX@ mX@ NXBXBXmXmX@ @ @   9.9.9.9.9.9.9.9.9.9.9.9.9.9.9.9.9.",
"Y.9.9.9.9.9.9.9.9.9.9.9.9.9.9.9./ = [ [ 9.9.    X X X X   @ @ @ @ @ @ mX@ mX@ @ @ @ @ @ @   9.9.9.9.9.9.9.9.-.[ % } 9.9.9.9.9.9.",
"Y.9.9.9.9.9.9.9.9.9.9.9.9.9.9.9.A < 0 ` 9.9.9.9.          @ @ @ @ @ @ @ @ @ @ @ @ @ @     9.9.9.9.9.9.9.9.9.#.G l n 9.9.9.9.9.9.",
"Y.9.9.9.9.9.9.9.9.9.9.9.9.9.9.s.~.XXr.9.9.9.9.9.9.9.O O +     . @ @ @ @ @ @ @ @ X     9.9.9.9.9.9.9.9.9.9.9.L.b.d.9.9.9.9.9.9.9.",
"U.6.D O.9.9.9.9.9.9.9.9.9.9.9.J.OX{.j.9.>.D O.9.9.O + + + O +           . .       O 7.9.9.9.9.9.9.9.9.9.9.9.+Xd.}.9.>.w  .%.9.9.",
"K.j ] P 9.9.9.@.( #.>.9.9.9.9.9.9.9.9.9.r *.z 9.9.    # O # . +   9.O   + + O # O #   9.9.9.>.` 4.9.9.9.9.9.9.9.9.9.` f ( %.9.9.",
"Y.9.9.9.9.9.9.n v 1 P 9.9.9.9.9.9.9.9.9.9.9.9.9.9.9.%.  + O # O # O 9.9.      O #     9.9.9.4 +., 9.9.9.9.9.9.9.9.9.9.9.9.9.9.9.",
"Y.9.9.9.%X9.9.9.9.9.9.9.9.9.9.9.9.9.9.9.9.9.9.|.l.9.9.  #   # .     9.9.9.9.9.      N.#X9.9.9.9.9.9.9.9.9.9.9.9.9.9.9.9.9.9.wX9.",
"Y.9.9.xXgXnXf.9.9.9.9.9.9.9.9.9.9.9.9.9.9.9.sXvX;X*X9.9.    .   9.9.9.9.9.9.9.9.9.0XqXcX@X9.9.9.9.9.9.9.9.9.9.9.9.9.9.9.E.uXkXsX",
"Y.9.9.r.t.p.9.9.9.9.9.9.9.9.9.9.9.9.9.9.9.9.w.f.h.9.9.9.9.9.9.9.9.9.9.9.9.9.9.9.9.9.t.g.9.9.9.9.9.9.9.9.9.9.9.9.9.9.9.9.9.r.w.f.",
"Y.9.9.9.9.9.9.9.9.9.9.9.9.9.9.9.9.9.9.9.9.9.9.9.9.9.9.9.9.9.9.9.9.9.9.9.9.9.9.9.9.9.9.9.9.9.9.9.9.9.9.9.9.9.9.9.9.9.9.9.9.9.9.9.",
"Y.9.9.9.q.9.9.9.9.9.r.9.9.9.4.9.9.9.9.9.9.9.9.e.9.9.9.9.9.e.9.9.9.>.9.9.9.9.9.9.9.9.e.9.9.9.9.9.9.e.9.9.,.9.9.9.9.9.9.9.9.y.0.9.",
"Y.9.y.a.S.S.9.9.9.+X8XS.1.O.k h 9.9.9.9.9.9.c.D.C.9.9.9.m.4Xc.J.R k h 9.9.9.9.9.9.J.4XZ.9.9.9.n.J.}.Z.R x x 6.9.9.9.9.9.j.6XM.S.",
"Y.9.9.C.s.9.9.9.9.S.e.n.9.I 4.:.9.f.0.9.9.9.B.9.i.9.9.9.j.c.v.9.I 9.@.9.0.e.9.9.9.n.0.i.9.9.9.9.m.S.e.] 9.#.9.9.y.9.9.9.e.J.p.9.",
"Y.9.9.9.9.9.9.9.9.9.9.9.9.9.9.9.L.yXc.J.9.9.9.9.9.9.9.9.9.9.9.9.9.9.9.L.u.<Xj.9.9.9.9.9.9.9.9.9.9.9.9.9.9.9.i.s.8Xj.9.9.9.9.9.9.",
"R.9.9.9.9.9.9.9.9.9.9.9.9.9.9.9.I.S.Z.9.9.9.9.9.9.9.9.9.9.9.9.9.9.9.9.9.H.oXd.9.9.9.9.9.9.9.9.9.9.9.9.9.9.9.9.H.c.S.9.9.9.9.9.9.",
"Y.9.9.9.9.9.9.9.9.9.9.9.9.9.9.9.9.9.9.9.9.9.9.9.9.9.9.9.9.9.9.9.9.9.9.9.9.9.9.9.9.9.9.9.9.9.9.9.9.9.9.9.9.9.9.9.9.9.9.9.9.9.9.9.",
"R.9.9.9.9.9.9.9.9.9.9.9.9.9.9.9.9.9.9.9.9.9.9.9.9.9.9.9.9.9.9.9.9.9.9.9.9.9.9.9.9.9.9.9.9.9.9.9.9.9.9.9.9.9.9.9.9.9.9.9.9.9.9.9.",
"Y.9.9.9.9.9.9.9.9.9.9.9.9.9.9.9.=.l &.4.9.9.9.9.9.9.9.9.9.9.9.9.9.9.9.*. .b 4.9.9.9.9.9.9.9.9.9.9.9.9.9.9.9.6.4.i 4.9.9.9.9.9.9.",
"R.9.9.9.9.9.9.9.9.9.9.9.9.9.9.9.F < 7 [ 9.9.9.9.9.9.9.9.9.9.9.9.9.9.9.` T , / 9.9.9.9.9.9.9.9.9.9.9.9.9.9.9.-.G l n 9.9.9.9.9.9.",
"Y.9.9.9.9.9.9.9.9.9.9.9.9.9.9.r.C.XXe.9.9.9.9.9.9.9.9.9.9.9.9.9.9.9.q.y.b.e.9.9.9.9.9.9.9.9.9.9.9.9.9.9.9.9.i.b.e.9.9.9.9.9.9.9.",
"T.7.H 4.9.9.9.9.9.9.9.9.9.9.9.J.C._.s.9.6.K 4.9.9.9.9.9.9.9.9.9.9.9.d.C.s.F.9.6.r 6.9.9.9.9.9.9.9.9.9.9.9.9.XXd.XX9.6.s ;.6.9.9.",
"z.< D : 9.9.9.9.:.4.9.9.9.9.9.9.9.9.9.9.5 Y & 9.9.9.9.9.#.9.9.9.9.9.9.9.9.9.9.u > 6 4.9.9.9.9.$.9.9.9.9.9.9.9.9.9.9.D 3 M ! 9.9.",
"Y.4.9.9.9.9.9.N M F ( 9.9.9.9.9.9.9.9.9.5.9.7.9.9.9.:.s G m 9.9.9.9.9.9.9.9.9.6.7.6.9.9.9.9.i O.l 9.9.9.9.9.9.9.9.9.7.6.6.9.9.9."
};
