/* XPM */
static char *result[] = {
/* columns rows colors chars-per-pixel */
"64 64 232 2 ",
"   c black",
".  c #3A2129",
"X  c #524A4A",
"o  c #736363",
"O  c red",
"+  c #9C4A21",
"@  c #D67300",
"#  c #8C7373",
"$  c #FF9429",
"%  c #4FDD90",
"&  c #50DF91",
"*  c #4FE390",
"=  c #4DE590",
"-  c #4FE590",
";  c #4EE790",
":  c #4FE791",
">  c #4FE891",
",  c #4FEA91",
"<  c #4FED91",
"1  c #4FEE91",
"2  c #51E091",
"3  c #50E290",
"4  c #51E391",
"5  c #50E591",
"6  c #50E691",
"7  c #51E691",
"8  c #50E791",
"9  c #51E592",
"0  c #54E791",
"q  c #50E891",
"w  c #51E891",
"e  c #50E991",
"r  c #51E991",
"t  c #50EA91",
"y  c #50EB91",
"u  c #51E992",
"i  c #52E892",
"p  c #52E992",
"a  c #51EA92",
"s  c #50EB92",
"d  c #51EB92",
"f  c #52EB92",
"g  c #50EC92",
"h  c #51EC92",
"j  c #50ED92",
"k  c #51ED92",
"l  c #52EC92",
"z  c #52ED92",
"x  c #52ED93",
"c  c #51EE92",
"v  c #50EF92",
"b  c #51EF92",
"n  c #52EE93",
"m  c #53EE93",
"M  c #52EF93",
"N  c #5BEF95",
"B  c #5BEF96",
"V  c #5FED98",
"C  c #4FF091",
"Z  c #50F092",
"A  c #51F092",
"S  c #50F192",
"D  c #51F192",
"F  c #51F193",
"G  c #52F093",
"H  c #52F193",
"J  c #50F292",
"K  c #51F292",
"L  c #50F392",
"P  c #51F392",
"I  c #51F393",
"U  c #52F293",
"Y  c #52F393",
"T  c #56F193",
"R  c #57F193",
"E  c #55F292",
"W  c #50F492",
"Q  c #51F492",
"!  c #51F493",
"~  c #51F593",
"^  c #52F493",
"/  c #52F593",
"(  c #50F692",
")  c #51F693",
"_  c #50F793",
"`  c #51F793",
"'  c #52F693",
"]  c #53F693",
"[  c #52F793",
"{  c #54F194",
"}  c #53F694",
"|  c #58F194",
" . c #5AF397",
".. c #50F893",
"X. c #51F893",
"o. c #51F993",
"O. c #52F893",
"+. c #52F993",
"@. c #51FA93",
"#. c #51FB93",
"$. c #52FA93",
"%. c #52FB93",
"&. c #51FC93",
"*. c #52F994",
"=. c #53F994",
"-. c #52FA94",
";. c #52FB94",
":. c #53FB94",
">. c #55FA95",
",. c #56FA95",
"<. c #57F896",
"1. c #51FD94",
"2. c #52FC94",
"3. c #53FC94",
"4. c #52FD94",
"5. c #52FE94",
"6. c #53FE94",
"7. c #52FF94",
"8. c #53FF94",
"9. c #53FE95",
"0. c #53FF95",
"q. c #54FE95",
"w. c #55FE95",
"e. c #54FF95",
"r. c #55FD96",
"t. c #57FC96",
"y. c #56FD96",
"u. c #57FD96",
"i. c #57FC97",
"p. c #57FD97",
"a. c #55FE96",
"s. c #56FE96",
"d. c #57FE96",
"f. c #58FC97",
"g. c #59FD97",
"h. c #58FB98",
"j. c #59FB98",
"k. c #5AFB98",
"l. c #5BFA99",
"z. c #5AFB99",
"x. c #5BFB99",
"c. c #5CFA99",
"v. c #5CFB99",
"b. c #5EFB99",
"n. c #5DF99A",
"m. c #5FF89B",
"M. c #5EF99B",
"N. c #5FF99B",
"B. c #5CFA9A",
"V. c #5DFA9A",
"C. c #5CFB9A",
"Z. c #5EFA9A",
"A. c #5EFA9B",
"S. c #58FC98",
"D. c #59FC98",
"F. c #58FD98",
"G. c #5AFC98",
"H. c #5BFC98",
"J. c #5AFC99",
"K. c #58FE98",
"L. c #58FF98",
"P. c #58FE99",
"I. c #58FF99",
"U. c #5CFC98",
"Y. c #5CFD98",
"T. c #5EFC99",
"R. c #5FFC9A",
"E. c #62EB9A",
"W. c #63EB9A",
"Q. c #64EA9B",
"!. c #65E99C",
"~. c #62F79D",
"^. c #63F69E",
"/. c #63F79E",
"(. c #66F79D",
"). c #65F59F",
"_. c #66F59F",
"`. c #64F69E",
"'. c #6AF69F",
"]. c #61F99B",
"[. c #60F89C",
"{. c #61F89C",
"}. c #60F99C",
"|. c #61F89D",
" X c #64F89C",
".X c #64F99C",
"XX c #66F89D",
"oX c #67F89D",
"OX c #64FA9C",
"+X c #68F99E",
"@X c #79EEA7",
"#X c #7AEFA8",
"$X c #7FEEAA",
"%X c #67F4A0",
"&X c #66F5A0",
"*X c #67F5A0",
"=X c #67F4A1",
"-X c #68F3A1",
";X c #69F3A1",
":X c #69F3A2",
">X c #6AF2A2",
",X c #6AF3A2",
"<X c #6CF1A3",
"1X c #6BF7A0",
"2X c #6CF5A0",
"3X c #6CF6A0",
"4X c #6DF6A0",
"5X c #6FF4A2",
"6X c #6FF6A2",
"7X c #6CF1A4",
"8X c #6DF1A4",
"9X c #72F3A3",
"0X c #70F5A2",
"qX c #71F5A2",
"wX c #71F4A3",
"eX c #71F5A3",
"rX c #72F4A3",
"tX c #73F4A3",
"yX c #72F5A3",
"uX c #75F2A5",
"iX c #75F3A5",
"pX c #76F4A5",
"aX c #78F1A7",
"sX c #79F1A7",
"dX c #78F3A6",
"fX c #79F2A7",
"gX c #7BF2A8",
"hX c #7CF0A9",
"jX c #AD9C9C",
"kX c gray71",
"lX c #D6DEDE",
"zX c white",
/* pixels */
" .E E E B E E E E E !.E E E 0 E E E E E E E E N E E E E E E.T E E 0 E E E E E E E E W.E E E E E R V E E 0 E E E E E E E E Q.| E ",
"L.7.r.~.V.B.7.7.7.,X/.`.>.t D a 7.7.7.7.7.7.`.p.{.7.7.7.{._.~.D.5 ' 9 7.7.7.7.7.7.|.[.~.7.7.7.x.[.&X[.a ) i 4.7.7.7.7.7.x.*XM.B.",
"L.7.7.x.s.7.7.7.7.G.9.f.7...4.2.7.p.8.7.7.7.z.7.a.7.7.7.y.p.D.7...7.$.7.7.r.7.7.7.D.8.a.7.7.7.7.D.D.9.@.7.;.7.7.y.7.7.7.q.p.y.7.",
"L.7.7.7.7.7.7.7.7.7.7.7.7.7.7.7.V.;XV.j.7.7.7.7.7.7.7.7.7.7.7.7.7.7.7.x.i.).j.7.7.7.7.7.7.7.7.7.7.7.7.7.7.7.y.D.%Xc.7.7.7.7.7.7.",
"L.7.7.7.7.7.7.7.7.7.7.7.7.7.7.7.p.D.k.7.7.7.7.7.7.7.7.7.7.7.7.7.7.7.7.7.y.l.q.7.7.7.7.7.7.7.7.7.7.7.7.7.7.7.7.y.p.D.7.7.7.7.7.7.",
"L.7.7.7.7.7.7.7.7.7.7.7.7.7.7.7.7.7.7.7.7.7.7.7.7.7.7.7.7.7.7.7.7.7.7.7.7.7.7.7.7.7.7.7.7.7.7.7.7.7.7.7.7.7.7.7.7.7.7.7.7.7.7.7.",
"L.7.7.7.7.7.7.7.7.7.7.7.7.7.7.7.7.7.7.7.7.7.7.7.7.7.7.7.7.7.7.7.7.7.7.7.7.7.7.7.7.7.7.7.7.7.7.7.7.7.7.7.7.7.7.7.7.7.7.7.7.7.7.7.",
"L.7.7.7.7.7.7.7.7.7.7.7.7.7.7.7./ - ' / 7.7.7.7.7.7.7.7.7.7.7.7.7.7.7./ { w ] 7.7.7.7.7.7.7.7.7.7.7.7.7.7.7.-.[ 2 } 7.7.7.7.7.7.",
"L.7.7.7.7.7.7.7.7.7.7.7.7.7.7.7.X.( f 7.7.7.7.7.7.7.7.7.7.7.7.7.7.7.7.7.@.J 4.7.7.7.7.7.7.7.7.7.7.7.7.7.7.7.7.@.X.( 7.7.7.7.7.7.",
"L.7.7.7.7.7.7.7.7.7.7.7.7.7.7.N.=X&XD.7.7.7.7.7.7.7.7.7.7.7.7.7.7.7.p.[.A.G.7.7.7.7.7.7.7.7.7.7.7.7.7.7.7.7.`.A.G.7.7.7.7.7.7.7.",
"F.1.b ` 7.7.7.7.7.7.7.7.7.7.7.f.N.).f.7.$.b X.7.7.7.7.7.7.7.7.7.7.7.w.N.i.[.7.$.; X.5.7.7.7.7.7.7.7.7.7.7.7.[.a.^.7.$.8 } @.7.7.",
"F.< ` K 7.7.7.[ ^ +.-.7.7.7.7.7.7.7.7.7., %.c 7.7.7.4.O.I -.7.7.7.7.7.7.7.7.7.Z L b 5.7.7.7.;.) 2.7.7.7.7.7.7.7.7.7.` g ! #.7.7.",
"L.7.7.7.7.7.7.[ Y c [ 7.7.7.7.7.7.7.7.7.7.7.7.7.7.7.4.M Y A 7.7.7.7.7.7.7.7.7.7.7.7.7.7.7.7.p ;.h 7.7.7.7.7.7.7.7.7.7.7.7.7.7.7.",
"L.7.7.T.6XY.e.7.7.7.7.7.7.7.7.7.7.7.7.7.7.7.R.wX].U.7.7.7.7.7.7.7.7.7.7.7.7.7.7.7.b.XX1Xg.7.7.7.7.7.7.7.7.7.7.7.7.7.7.7.s.H.pXg.",
"L.7.7.gXrX$Xd.7.7.7.7.7.7.7.7.7.7.7.7.7.7.7.iXsX@X'.7.7.7.7.7.7.7.7.7.7.7.7.7.7.7.5X3XaX(.7.7.7.7.7.7.7.7.7.7.7.7.7.7.7.b.uXiXtX",
"L.7.7.w.e.s.7.7.7.7.7.7.7.7.7.7.7.7.7.7.7.7.8.w.s.7.7.7.7.7.7.7.7.7.7.7.7.7.7.7.7.7.0.s.7.7.7.7.7.7.7.7.7.7.7.7.7.7.7.7.7.w.8.w.",
"L.7.7.7.7.7.7.7.7.7.7.7.7.7.7.7.7.7.7.7.7.7.7.7.7.7.7.7.7.7.X     7.7.7.7.7.7.7.7.7.7.7.7.7.7.7.7.7.7.7.7.7.7.7.7.7.7.7.7.7.7.7.",
"L.7.7.7.p.7.7.7.7.7.N.7.7.7.` 7.7.7.7.7.7.7.7.p.7.7.7.7.7.V.q.o o   7.7.7.7.7.7.7.7.V.7.7.7.7.7.q.k.7.7.[ 7.7.7.7.7.7.7.7.Z.q.7.",
"L.7.y.i.V.n.7.7.7.~.<XZ.,./ h h 7.7.7.7.7.7.k.v.N.7.7.7.V.-Xx.X o     7.7.7.7.7.7.D.-X[.7.7.7.B.D.`.[.H c l 4.7.7.7.7.7.D.,Xv.Z.",
"L.7.7.c.y.7.7.7.7.x.q.D.7.P 2.;.7.k.9.7.7.7.x.7.y.7.7.7.p.f.  X o o   7.9.f.7.7.7.k.8.y.7.7.7.7.k.x.q.` 7.+.7.7.k.7.7.7.q.f.y.7.",
"L.7.7.7.7.7.7.7.7.7.7.7.7.7.7.7.[.;Xm.c.7.7.7.7.7.      . . X X X X   M.f._.l.7.7.7.7.7.7.7.7.7.7.7.7.7.7.7.p.B.%XM.7.7.7.7.7.7.",
"L.7.7.7.7.7.7.7.7.7.7.7.7.7.7.7.a.y.p.7.7.7.      o o o o o   .       7.q.f.9.7.7.7.7.7.7.7.7.7.7.7.7.7.7.7.7.q.a.y.7.7.7.7.7.7.",
"L.7.7.7.7.7.7.7.7.7.7.7.7.7.7.7.7.7.7.7.    kXkXkXo o o o o o o X 7.7.7.7.7.7.7.7.7.7.7.7.7.7.7.7.7.7.7.7.7.7.7.7.7.7.7.7.7.7.7.",
"L.7.7.7.7.7.7.7.7.7.7.7.7.7.7.7.7.7.7.  X zXzXzXzXzXo o o o o o o X 7.7.7.7.7.7.7.7.7.7.7.7.7.7.7.7.7.7.7.7.7.7.7.7.7.7.7.7.7.7.",
"L.7.7.7.7.7.7.7.7.7.7.7.7.7.7.7.W =   X zXzXzXzXzXzXkXo o o o o o o X J m 6 ) 7.7.7.7.7.7.7.7.7.7.7.7.7.7.7.[ ! % ) 7.7.7.7.7.7.",
"L.7.7.7.7.7.7.7.7.7.7.7.7.7.7.7.X.(   kXzXzXzXzXzXzXzXo o o o o o o X 7.@.J 2.7.7.7.7.7.7.7.7.7.7.7.7.7.7.7.7.o.X.( 7.7.7.7.7.7.",
"L.7.7.7.7.7.7.7.7.7.7.7.7.7.7.u.N.  X zXzXzXzXzXzXzXkXo o o o o o o o X z.w.7.7.7.7.7.7.7.7.7.7.7.7.7.7.7.7.f.z.w.7.7.7.7.7.7.7.",
"K.4.D *.7.7.7.7.7.7.7.7.7.7.7.D.N.  X zXzXzXzXzXzXkXo o kXkXkXo o o o X p.M.7.4.q -.7.7.7.7.7.7.7.7.7.7.7.7.[.a.{.7.2.e =.;.7.7.",
"F.< ~ z 7.7.7.#.[ $.2.7.7.7.7.7.  kXkXzXzXzXzXzXkXkXzXzXzXzXzXzXo o o o X 7.7.k k . . . 7.7.2.X.4.7.7.7.7.7.7.7.7.7.^ r Y O.7.7.",
"L.7.7.7.7.7.7.Q G C ~ 7.7.7.7.7.    zXzXzXzXzXzXzX      zXzXzXzXkXo o o X 7.7.7.. zXzXzX. 7.q #.< 7.7.7.7.7.7.7.7.7.7.7.7.7.7.7.",
"L.7.7.7.OX7.7.7.7.7.7.7.7.7.7.7.  zX  zXzXzXzXzXX   zX  X zXzXzXzXo o o X 7.7.  X zXzXzX. 7.7.7.7.7.7.7.7.7.7.7.7.7.7.7.7.7.+X7.",
"L.7.7.iX0X#Xw.7.7.7.7.7.7.7.7.7.  lX  + + + zXzXX   zX  X zXzXzXzXo o X   7..   kXzXzXzX      7.7.7.7.7.7.7.7.7.7.7.7.7.g.5XyXqX",
"L.7.7.q.6.w.7.7.7.7.7.7.7.7.7.7.  . $ $ $ $ + zXX   kX  X zXzXzXlXX X X   . o o kXzXzXo o o o   7.7.7.7.7.7.7.7.7.7.7.7.7.9.8.q.",
"L.7.7.7.7.7.7.7.7.7.7.7.7.7.    o + $ $ $ $ $ + zX      lXlXlXlXkXX X X   . o o zXzXzXo o o o   7.7.7.7.7.7.7.7.7.7.7.7.7.7.7.7.",
"L.7.7.7.a.7.7.7.7.7.G.7.7.  o o o o . . . . X X lXlXlXlXlXlXlXkXX X X X X   o o zXzXkXo o o   7.9.u.7.7.%.7.7.7.7.7.7.7.7.D.9.7.",
"L.7.p.n.N.{.7.7.7.:X7X/.<.          kX+ O O + . lXlXlXlXlXlXkXX X X X X X       zXzXo o o   7.N.c.%X`.D b s 4.7.7.7.7.7.x.<XM.{.",
"L.7.7.x.s.7.7.7.7.G.q.D.7._ 4.  X X   kX+ + . kXkXlXlXkXX X X X X X X X X X       kXo o X   7.7.D.G.q.@.7.;.7.7.r.7.7.7.q.p.y.7.",
"L.7.7.7.7.7.7.7.7.7.7.7.7.7.7.  X X X . . . X X X X X X X X X X X X jXjXjX    jXjX  o .   7.7.7.7.7.7.7.7.7.y.z.-Xc.7.7.7.7.7.7.",
"L.7.7.7.7.7.7.7.7.7.7.7.7.7.7.X . X   jXX X X   X X X X   X X X   jXjXjXjXjXjXjX# #   X X   7.7.7.7.7.7.7.7.7.f.k.V.7.7.7.7.7.7.",
"L.7.7.7.7.7.7.7.7.7.7.7.7.7.7.X #   jXjX  X   lX. X X   jX  X   X jXjXjXjXjX# # # o   X     7.7.7.7.7.7.7.7.7.7.7.7.7.7.7.7.7.7.",
"L.7.7.7.7.7.7.7.7.7.7.7.7.7.7.X # X jXjX    lXlXzX.   lXjXjX  jXX jXjXjX# # # # X X .   X   7.7.7.7.7.7.7.7.7.7.7.7.7.7.7.7.7.7.",
"L.7.7.7.7.7.7.7.7.7.7.7.7.7.7.X # X jXjXjXlXzXzXzXzXzXzXzXjXjXjXX # # # # # # # # X X X X 7.7.7.7.7.7.7.7.7.*.' & [ 7.7.7.7.7.7.",
"L.7.7.7.7.7.7.7.7.7.7.7.7.7.7.7.X X jXjXjXlXzXzXzXzXzXzXlXjXjXjX# . # # # # X X X X X X   7.7.7.7.7.7.7.7.7.+.D j v 7.7.7.7.7.7.",
"L.7.7.7.7.7.7.7.7.7.7.7.7.7.7.p.X # X # jXjXlXzXzXzXzXzXjXjX# # # . # X X # X X X X X X 7.7.7.7.7.7.7.7.7.7.G.z.a.7.7.7.7.7.7.7.",
"K.4.A X.7.7.7.7.7.7.7.7.7.7.7.D.}.X   # # # jXjXzXzXlX# jX# jX# # # . X X X X X X X X   7.7.7.7.7.7.7.7.7.7.|.a.`.7.;.q } #.7.7.",
"F.g ` K 7.7.7.O.^ +.;.7.7.7.7.7.7.7.X   # # # # # # # jX# jX# # # # #   X X X X X     7.7.7.;.) 2.7.7.7.7.7.7.7.7.7.) d ^ #.7.7.",
"L.7.7.7.7.7.7.v x 1 K 7.7.7.7.7.7.7.7.7.    # # # # # # # # # # # # # #           7.7.7.7.7.4 o., 7.7.7.7.7.7.7.7.7.7.7.7.7.7.7.",
"L.7.7.7.oX7.7.7.7.7.7.7.7.7.7.7.7.7.7.7.+ +     X # # # # # # # # .     + 7.7.7.7.7.b..X7.7.7.7.7.7.7.7.7.7.7.7.7.7.7.7.7.7.4X7.",
"L.7.7.dXyXhXs.7.7.7.7.7.7.7.7.7.7.7.7.  $ + $ +       . .         + $     7.7.7.7.2X3XfX X7.7.7.7.7.7.7.7.7.7.7.7.7.7.7.U.9XpXeX",
"L.7.7.w.e.u.7.7.7.7.7.7.7.7.7.7.7.7.7.    $ +       7.7.+ $ + $ + @   7.7.7.7.7.7.7.e.d.7.7.7.7.7.7.7.7.7.7.7.7.7.7.7.7.7.w.0.s.",
"L.7.7.7.7.7.7.7.7.7.7.7.7.7.7.7.7.7.7.7.      7.7.7.7.7.    . $   $   7.7.7.7.7.7.7.7.7.7.7.7.7.7.7.7.7.7.7.7.7.7.7.7.7.7.7.7.7.",
"L.7.7.7.9.7.7.7.7.7.w.7.7.7.2.7.7.7.7.7.7.7.7.q.7.7.7.7.7.q.  .     7.7.7.7.7.7.7.7.q.7.7.7.7.7.7.q.7.7.:.7.7.7.7.7.7.7.7.r.8.7.",
"L.7.r.i.V.V.7.7.7.|.<XV.,.X.h f 7.7.7.7.7.7.k.C.M.7.7.7.c.;Xk.D.Y h f 7.7.7.7.7.7.D.;XN.7.7.7.x.D.`.N.Y l l 4.7.7.7.7.7.f.>Xv.V.",
"L.7.7.M.p.7.7.7.7.V.q.x.7.L 2.-.7.s.8.7.7.7.n.7.y.7.7.7.f.k.l.7.L 7.O.7.8.q.7.7.7.x.8.y.7.7.7.7.c.V.q.` 7.+.7.7.r.7.7.7.q.D.u.7.",
"L.7.7.7.7.7.7.7.7.7.7.7.7.7.7.7.G.8Xk.D.7.7.7.7.7.7.7.7.7.7.7.7.7.7.7.G.t.&Xf.7.7.7.7.7.7.7.7.7.7.7.7.7.7.7.y.p.<Xf.7.7.7.7.7.7.",
"I.7.7.7.7.7.7.7.7.7.7.7.7.7.7.7.J.V.N.7.7.7.7.7.7.7.7.7.7.7.7.7.7.7.7.7.S.{.a.7.7.7.7.7.7.7.7.7.7.7.7.7.7.7.7.S.k.V.7.7.7.7.7.7.",
"L.7.7.7.7.7.7.7.7.7.7.7.7.7.7.7.7.7.7.7.7.7.7.7.7.7.7.7.7.7.7.7.7.7.7.7.7.7.7.7.7.7.7.7.7.7.7.7.7.7.7.7.7.7.7.7.7.7.7.7.7.7.7.7.",
"I.7.7.7.7.7.7.7.7.7.7.7.7.7.7.7.7.7.7.7.7.7.7.7.7.7.7.7.7.7.7.7.7.7.7.7.7.7.7.7.7.7.7.7.7.7.7.7.7.7.7.7.7.7.7.7.7.7.7.7.7.7.7.7.",
"L.7.7.7.7.7.7.7.7.7.7.7.7.7.7.7.&.j $.2.7.7.7.7.7.7.7.7.7.7.7.7.7.7.7.%.} c 2.7.7.7.7.7.7.7.7.7.7.7.7.7.7.7.4.2.u 2.7.7.7.7.7.7.",
"I.7.7.7.7.7.7.7.7.7.7.7.7.7.7.7.S < 7 ' 7.7.7.7.7.7.7.7.7.7.7.7.7.7.7.) U , ~ 7.7.7.7.7.7.7.7.7.7.7.7.7.7.7.*.D j v 7.7.7.7.7.7.",
"L.7.7.7.7.7.7.7.7.7.7.7.7.7.7.w.M.[.q.7.7.7.7.7.7.7.7.7.7.7.7.7.7.7.9.r.z.q.7.7.7.7.7.7.7.7.7.7.7.7.7.7.7.7.y.z.q.7.7.7.7.7.7.7.",
"P.5.F 2.7.7.7.7.7.7.7.7.7.7.7.D.M.~.p.7.4.H 2.7.7.7.7.7.7.7.7.7.7.7.a.M.p.Z.7.4.e 4.7.7.7.7.7.7.7.7.7.7.7.7.[.a.[.7.4.a =.4.7.7.",
"h.< A : 7.7.7.7.-.2.7.7.7.7.7.7.7.7.7.7.5 I * 7.7.7.7.7.+.7.7.7.7.7.7.7.7.7.7.y > 6 2.7.7.7.7.@.7.7.7.7.7.7.7.7.7.7.A 3 n W 7.7.",
"L.2.7.7.7.7.7.M n S ^ 7.7.7.7.7.7.7.7.7.3.7.5.7.7.7.-.a D b 7.7.7.7.7.7.7.7.7.4.5.4.7.7.7.7.u X.j 7.7.7.7.7.7.7.7.7.5.4.4.7.7.7."
};
