/* XPM */
static char *result[] = {
/* columns rows colors chars-per-pixel */
"64 64 239 2 ",
"   c black",
".  c #3A2129",
"X  c #524A4A",
"o  c #736363",
"O  c red",
"+  c #9C4A21",
"@  c #D67300",
"#  c #8C7373",
"$  c #FF9429",
"%  c #4FDD90",
"&  c #50DF91",
"*  c #4FE390",
"=  c #4DE590",
"-  c #4EE590",
";  c #4FE590",
":  c #4EE790",
">  c #4FE791",
",  c #4FE891",
"<  c #4FEA91",
"1  c #4FEC91",
"2  c #4FED91",
"3  c #4FEE91",
"4  c #51E091",
"5  c #50E290",
"6  c #51E391",
"7  c #50E591",
"8  c #50E691",
"9  c #51E691",
"0  c #50E791",
"q  c #51E592",
"w  c #51E792",
"e  c #54E791",
"r  c #50E891",
"t  c #51E891",
"y  c #50E991",
"u  c #51E991",
"i  c #50EA91",
"p  c #50EB91",
"a  c #51E992",
"s  c #52E892",
"d  c #52E992",
"f  c #51EA92",
"g  c #50EB92",
"h  c #51EB92",
"j  c #52EA92",
"k  c #52EB92",
"l  c #50EC92",
"z  c #51EC92",
"x  c #50ED92",
"c  c #51ED92",
"v  c #52EC92",
"b  c #52ED92",
"n  c #52ED93",
"m  c #51EE92",
"M  c #50EF92",
"N  c #51EF92",
"B  c #52EE93",
"V  c #52EF93",
"C  c #5BEF95",
"Z  c #5BEF96",
"A  c #5FED98",
"S  c #4FF091",
"D  c #4FF192",
"F  c #50F092",
"G  c #51F092",
"H  c #50F192",
"J  c #51F192",
"K  c #51F193",
"L  c #52F093",
"P  c #52F193",
"I  c #50F292",
"U  c #51F292",
"Y  c #50F392",
"T  c #51F392",
"R  c #51F393",
"E  c #52F293",
"W  c #52F393",
"Q  c #56F193",
"!  c #57F193",
"~  c #55F292",
"^  c #50F492",
"/  c #51F492",
"(  c #51F493",
")  c #51F593",
"_  c #52F493",
"`  c #52F593",
"'  c #50F692",
"]  c #51F693",
"[  c #50F793",
"{  c #51F793",
"}  c #52F693",
"|  c #53F693",
" . c #52F793",
".. c #54F194",
"X. c #53F694",
"o. c #58F194",
"O. c #5AF397",
"+. c #50F893",
"@. c #51F893",
"#. c #51F993",
"$. c #52F893",
"%. c #52F993",
"&. c #51FA93",
"*. c #51FB93",
"=. c #52FA93",
"-. c #52FB93",
";. c #51FC93",
":. c #52F994",
">. c #53F994",
",. c #52FA94",
"<. c #52FB94",
"1. c #53FB94",
"2. c #55FA95",
"3. c #56FA95",
"4. c #57F896",
"5. c #51FD94",
"6. c #52FC94",
"7. c #53FC94",
"8. c #52FD94",
"9. c #52FE94",
"0. c #53FE94",
"q. c #52FF94",
"w. c #53FF94",
"e. c #53FE95",
"r. c #53FF95",
"t. c #54FE95",
"y. c #55FE95",
"u. c #54FF95",
"i. c #55FD96",
"p. c #57FC96",
"a. c #56FD96",
"s. c #57FD96",
"d. c #57FC97",
"f. c #57FD97",
"g. c #55FE96",
"h. c #56FE96",
"j. c #57FE96",
"k. c #58FD96",
"l. c #58FC97",
"z. c #59FD97",
"x. c #5AFC97",
"c. c #58FB98",
"v. c #59FB98",
"b. c #5AFB98",
"n. c #5BFA99",
"m. c #5AFB99",
"M. c #5BFB99",
"N. c #5CFA99",
"B. c #5CFB99",
"V. c #5EFB99",
"C. c #5DF99A",
"Z. c #5FF89B",
"A. c #5EF99B",
"S. c #5FF99B",
"D. c #5CFA9A",
"F. c #5DFA9A",
"G. c #5CFB9A",
"H. c #5EFA9A",
"J. c #5EFA9B",
"K. c #58FC98",
"L. c #59FC98",
"P. c #58FD98",
"I. c #5AFC98",
"U. c #5BFC98",
"Y. c #5AFC99",
"T. c #58FE98",
"R. c #58FF98",
"E. c #58FE99",
"W. c #58FF99",
"Q. c #5CFC98",
"!. c #5CFD98",
"~. c #5EFC99",
"^. c #5FFC9A",
"/. c #5FF99C",
"(. c #62EB9A",
"). c #63EB9A",
"_. c #64EA9B",
"`. c #65E99C",
"'. c #62F79D",
"]. c #63F69E",
"[. c #63F79E",
"{. c #66F79D",
"}. c #65F59F",
"|. c #66F59F",
" X c #64F69E",
".X c #68F79E",
"XX c #6AF69F",
"oX c #61F99B",
"OX c #60F89C",
"+X c #61F89C",
"@X c #60F99C",
"#X c #61F89D",
"$X c #66F89D",
"%X c #67F89D",
"&X c #64FA9C",
"*X c #68F89E",
"=X c #68F99E",
"-X c #79EEA7",
";X c #78EFA7",
":X c #7AEFA8",
">X c #7FEEAA",
",X c #67F4A0",
"<X c #66F5A0",
"1X c #67F5A0",
"2X c #67F4A1",
"3X c #68F3A1",
"4X c #69F3A1",
"5X c #69F3A2",
"6X c #6AF2A2",
"7X c #6AF3A2",
"8X c #6CF1A3",
"9X c #6BF7A0",
"0X c #6CF6A0",
"qX c #6DF6A0",
"wX c #6FF4A2",
"eX c #6FF6A2",
"rX c #6CF1A4",
"tX c #6DF1A4",
"yX c #72F3A3",
"uX c #70F5A2",
"iX c #71F5A2",
"pX c #71F4A3",
"aX c #71F5A3",
"sX c #72F4A3",
"dX c #73F4A3",
"fX c #72F5A3",
"gX c #75F2A5",
"hX c #75F3A5",
"jX c #76F4A5",
"kX c #78F1A7",
"lX c #79F1A7",
"zX c #78F3A6",
"xX c #7AF1A8",
"cX c #7BF2A8",
"vX c #7CF0A9",
"bX c #AD9C9C",
"nX c gray71",
"mX c #D6DEDE",
"MX c white",
/* pixels */
"O.~ ~ ~ Z ~ ~ ~ ~ ~ `.~ ~ ~ e ~ ~ ~ ~ ~ ~ ~ ~ C ~ ~ ~ ~ ~ (.Q ~ ~ e ~ ~ ~ ~ ~ ~ ~ ~ ).~ ~ ~ ~ ~ ! A ~ ~ e ~ ~ ~ ~ ~ ~ ~ ~ _.o.~ ",
"R.q.i.'.F.D.q.q.q.7X[. X2.i J f q.q.q.q.q.q. Xf.+Xq.q.q.+X|.'.L.7 } q q.q.q.q.q.q.#XOX'.q.q.q.M.OX<XOXf ] s 8.q.q.q.q.q.M.1XA.D.",
"R.q.q.M.h.q.q.q.q.I.e.l.q.+.8.6.q.f.w.q.q.q.m.q.g.q.q.q.a.f.L.q.+.q.=.q.q.i.q.q.q.L.w.g.q.q.q.q.L.L.e.&.q.<.q.q.a.q.q.q.t.f.a.q.",
"R.q.q.q.q.q.q.q.q.q.q.q.q.q.q.q.F.4XF.v.q.q.q.q.q.q.q.q.q.q.q.q.q.q.q.M.d.}.v.q.q.q.q.q.q.q.q.q.q.q.q.q.q.q.a.L.,XN.q.q.q.q.q.q.",
"R.q.q.q.q.q.q.q.q.q.q.q.q.q.q.q.f.L.b.q.q.q.q.q.q.q.q.q.q.q.q.q.q.q.q.q.a.n.t.q.q.q.q.q.q.q.q.q.q.q.q.q.q.q.q.a.f.L.q.q.q.q.q.q.",
"R.q.q.q.q.q.q.q.q.q.q.q.q.q.q.q.q.q.q.q.q.q.q.q.q.q.q.q.q.q.q.q.q.q.q.q.q.q.q.q.q.q.q.q.q.q.q.q.q.q.q.q.q.q.q.q.q.q.q.q.q.q.q.q.",
"R.q.q.q.q.q.q.q.q.q.q.q.q.q.q.q.q.q.q.q.q.q.q.q.q.q.q.q.q.q.q.q.q.q.q.q.q.q.q.q.q.q.q.q.q.q.q.q.q.q.q.q.q.q.q.q.q.q.q.q.q.q.q.q.",
"R.q.q.q.q.q.q.q.q.q.q.q.q.q.q.q.` ; } ` q.q.q.q.q.q.q.q.q.q.q.q.q.q.q.` ..t | q.q.q.q.q.q.q.q.q.q.q.q.q.q.q.,. .4 X.q.q.q.q.q.q.",
"R.q.q.q.q.q.q.q.q.q.q.q.q.q.q.q.@.' k q.q.q.q.q.q.q.q.q.q.q.q.q.q.q.q.q.&.I 8.q.q.q.q.q.q.q.q.q.q.q.q.q.q.q.q.&.@.' q.q.q.q.q.q.",
"R.q.q.q.q.q.q.q.q.q.q.q.q.q.q.S.2X<XL.q.q.q.q.q.q.q.q.q.q.q.q.q.q.q.f.OXJ.I.q.q.q.q.q.q.q.q.q.q.q.q.q.q.q.q. XJ.I.q.q.q.q.q.q.q.",
"P.5.N { q.q.q.q.q.q.q.q.q.q.q.l.S.}.l.q.=.N @.q.q.q.q.q.q.q.q.q.q.q.y.S.d.OXq.=.: @.9.q.q.q.q.q.q.q.q.q.q.q.OXg.].q.=.0 X.&.q.q.",
"P.2 { U q.q.q. ._ %.,.q.q.q.q.q.q.q.q.q.< -.m q.q.q.8.$.R ,.q.q.q.q.q.q.q.q.q.F Y N 9.q.q.q.<.] 6.q.q.q.q.q.q.q.q.q.{ l ( *.q.q.",
"R.q.q.q.q.q.q. .W m  .q.q.q.q.q.q.q.q.q.q.q.q.q.q.q.8.V W G q.q.q.q.q.q.q.q.q.q.q.q.q.q.q.q.d <.z q.q.q.q.q.q.q.q.q.q.q.q.q.q.q.",
"R.q.q.~.eX!.u.q.q.q.q.q.q.q.q.q.q.q.q.q.q.q.^.pXoXQ.q.q.q.q.q.q.q.q.q.q.q.q.q.q.q.V.$X9Xz.q.q.q.q.q.q.q.q.q.q.q.q.q.q.q.h.U.jXz.",
"R.q.q.cXsX>Xj.q.q.q.q.q.q.q.q.q.q.q.q.q.q.q.hXlX-XXXq.q.q.q.q.q.q.q.q.q.q.q.q.q.q.wX0XkX{.q.q.q.q.q.q.q.q.q.q.q.q.q.q.q.V.gXhXdX",
"R.q.q.y.u.h.q.q.q.q.q.q.q.q.q.q.q.q.q.q.q.q.w.y.h.q.q.q.q.q.q.q.q.q.q.q.q.q.q.q.q.q.r.h.q.q.q.q.q.q.q.q.q.q.q.q.q.q.q.q.q.y.w.y.",
"R.q.q.q.q.q.q.q.q.q.q.q.q.q.q.q.q.q.q.q.q.q.q.q.q.q.q.q.q.q.q.    X q.q.q.q.q.q.q.q.q.q.q.q.q.q.q.q.q.q.q.q.q.q.q.q.q.q.q.q.q.q.",
"R.q.q.q.f.q.q.q.q.q.S.q.q.q.{ q.q.q.q.q.q.q.q.f.q.q.q.q.q.F.  o o { q.q.q.q.q.q.q.q.F.q.q.q.q.q.t.b.q.q. .q.q.q.q.q.q.q.q.H.t.q.",
"R.q.a.d.F.C.q.q.q.'.8XH.3.` z z q.q.q.q.q.q.b.B.S.q.q.q.F.    o X m k q.q.q.q.q.q.L.3XOXq.q.q.D.L. XOXP m v 8.q.q.q.q.q.L.7XB.H.",
"R.q.q.N.a.q.q.q.q.M.t.L.q.T 6.<.q.b.e.q.q.q.M.q.a.q.q.q.f.  o o X   %.q.e.l.q.q.q.b.w.a.q.q.q.q.b.M.t.{ q.%.q.q.b.q.q.q.t.l.a.q.",
"R.q.q.q.q.q.q.q.q.q.q.q.q.q.q.q.OX4XZ.N.q.q.q.q.q.q.q.q.q.  X X X X . .       q.q.q.q.q.q.q.q.q.q.q.q.q.q.q.f.D.,XA.q.q.q.q.q.q.",
"R.q.q.q.q.q.q.q.q.q.q.q.q.q.q.q.g.a.f.q.q.q.q.q.q.q.q.q.q.      .   o o o o o       q.q.q.q.q.q.q.q.q.q.q.q.q.t.g.a.q.q.q.q.q.q.",
"R.q.q.q.q.q.q.q.q.q.q.q.q.q.q.q.q.q.q.q.q.q.q.q.q.q.q.q.q.q.q.X o o o o o o o nXnXnX    q.q.q.q.q.q.q.q.q.q.q.q.q.q.q.q.q.q.q.q.",
"R.q.q.q.q.q.q.q.q.q.q.q.q.q.q.q.q.q.q.q.q.q.q.q.q.q.q.q.q.q.X o o o o o o o MXMXMXMXMXX   q.q.q.q.q.q.q.q.q.q.q.q.q.q.q.q.q.q.q.",
"R.q.q.q.q.q.q.q.q.q.q.q.q.q.q.q.^ = ] ( q.q.q.q.q.q.q.q.q.X o o o o o o o nXMXMXMXMXMXMXX   q.q.q.q.q.q.q.q. .( % ] q.q.q.q.q.q.",
"R.q.q.q.q.q.q.q.q.q.q.q.q.q.q.q.@.' j q.q.q.q.q.q.q.q.q.q.X o o o o o o o MXMXMXMXMXMXMXnX  q.q.q.q.q.q.q.q.q.#.@.' q.q.q.q.q.q.",
"R.q.q.q.q.q.q.q.q.q.q.q.q.q.q.s.S.OXt.q.q.q.q.q.q.q.q.q.X o o o o o o o o nXMXMXMXMXMXMXMXX   q.q.q.q.q.q.q.l.m.y.q.q.q.q.q.q.q.",
"T.8.J :.q.q.q.q.q.q.q.q.q.q.q.L.S.[.f.q.6.L ,.q.q.q.q.q.X o o o o nXnXnXo o nXMXMXMXMXMXMXX   q.q.q.q.q.q.q.OXg.+Xq.6.y >.<.q.q.",
"P.2 ) b q.q.q.*. .=.6.q.q.q.q.q.q.q.q.q.. . . q.q.q.9.X o o o o MXMXMXMXMXMXnXnXMXMXMXMXMXnXnX  8.q.q.q.q.q.q.q.q.q._ u W $.q.q.",
"R.q.q.q.q.q.q./ L S ) q.q.q.q.q.q.q.q.. MXMXMX. q.q.;.X o o o nXMXMXMXMX      MXMXMXMXMXMXMX    2 q.q.q.q.q.q.q.q.q.q.q.q.q.q.q.",
"R.q.q.q.&Xq.q.q.q.q.q.q.q.q.q.q.q.q.q.. MXMXMXX   q.q.X o o o MXMXMXMXX   MX  X MXMXMXMXMX  MX  q.q.q.q.q.q.q.q.q.q.q.q.q.q.=Xq.",
"R.q.q.hXuX:Xy.q.q.q.q.q.q.q.q.q.q.      MXMXMXnX  . q.  X o o MXMXMXMXX   MX  X MXMX+ + +   mX  q.q.q.q.q.q.q.q.q.q.q.q.z.wXfXiX",
"R.q.q.t.0.y.q.q.q.q.q.q.q.q.q.q.  o o o o MXMXnXo o .   X X X mXMXMXMXX   nX  X MX+ $ $ $ $ .   q.q.q.q.q.q.q.q.q.q.q.q.q.e.w.t.",
"R.q.q.q.q.q.q.q.q.q.q.q.q.q.q.q.  o o o o MXMXMXo o .   X X X nXmXmXmXmX      MX+ $ $ $ $ $ + o     q.q.q.q.q.q.q.q.q.q.q.q.q.q.",
"R.q.q.q.g.q.q.q.q.q.I.q.q.q.-.q.q.  o o o nXMXMXo o   X X X X X nXmXmXmXmXmXmXmXX X . . . . o o o o   q.-.q.q.q.q.q.q.q.q.L.e.q.",
"R.q.f.C.S.+Xq.q.q.5XrX[.4.^ c 1 q.q.  o o o MXMX      X X X X X X nXmXmXmXmXmXmX. + O O + nX          J N g 8.q.q.q.q.q.M.8XA.+X",
"R.q.q.M.h.q.q.q.q.I.t.L.q.[ 8.6.q.a.  X o o nX      X X X X X X X X X X nXmXmXnXnX. + + nX  X X   I.t.&.q.<.q.q.i.q.q.q.t.f.a.q.",
"R.q.q.q.q.q.q.q.q.q.q.q.q.q.q.q.S.6XC.  . o   bXbX    bXbXbXX X X X X X X X X X X X . . . X X X   q.q.q.q.q.a.m.3XN.q.q.q.q.q.q.",
"R.q.q.q.q.q.q.q.q.q.q.q.q.q.q.q.I.F.  X X   # # bXbXbXbXbXbXbX  X X X   X X X X   X X X bX  X . X q.q.q.q.q.q.l.b.F.q.q.q.q.q.q.",
"R.q.q.q.q.q.q.q.q.q.q.q.q.q.q.q.q.q.    X   o # # # bXbXbXbXbXX   X   bX  X X . mX  X   bXbX  # X q.q.q.q.q.q.q.q.q.q.q.q.q.q.q.",
"R.q.q.q.q.q.q.q.q.q.q.q.q.q.q.q.q.q.  X   . X X # # # # bXbXbXX bX  bXbXmX  . MXmXmX    bXbXX # X q.q.q.q.q.q.q.q.q.q.q.q.q.q.q.",
"R.q.q.q.q.q.q.q.q.q.q.q.q.q.q.q.) - } X X X X # # # # # # # # X bXbXbXMXMXMXMXMXMXMXmXbXbXbXX # X q.q.q.q.q.:.} &  .q.q.q.q.q.q.",
"R.q.q.q.q.q.q.q.q.q.q.q.q.q.q.q.D 2 w   X X X X X X # # # # . # bXbXbXmXMXMXMXMXMXMXmXbXbXbXX X q.q.q.q.q.q.%.J x M q.q.q.q.q.q.",
"R.q.q.q.q.q.q.q.q.q.q.q.q.q.q.f./.OXy.q.X X X X X X # X X # . # # # bXbXMXMXMXMXMXmXbXbX# X # X q.q.q.q.q.q.I.m.g.q.q.q.q.q.q.q.",
"T.8.G @.q.q.q.q.q.q.q.q.q.q.q.L.@X|.l.q.  X X X X X X X X . # # # bX# bX# mXMXMXbXbX# # #   X q.q.q.q.q.q.q.#Xg. Xq.<.r X.*.q.q.",
"P.l { U q.q.q.$._ %.<.q.q.q.q.q.q.q.q.q.y     X X X X X   # # # # # bX# bX# # # # # # #   X <.] 6.q.q.q.q.q.q.q.q.q.] h _ *.q.q.",
"R.q.q.q.q.q.q.M n 3 U q.q.q.q.q.q.q.q.q.q.q.q.          # # # # # # # # # # # # # #     q.q.6 #.< q.q.q.q.q.q.q.q.q.q.q.q.q.q.q.",
"R.q.q.q.%Xq.q.q.q.q.q.q.q.q.q.q.q.q.q.q.q.q.q..Xx.q.q.+     . # # # # # # # # X     + + q.q.q.q.q.q.q.q.q.q.q.q.q.q.q.q.q.q.qXq.",
"R.q.q.zXfXvXh.q.q.q.q.q.q.q.q.q.q.q.q.q.q.q.aXxX;X*Xq.    $ +         . .       + $ + $   q.q.q.q.q.q.q.q.q.q.q.q.q.q.q.Q.yXjXaX",
"R.q.q.y.u.s.q.q.q.q.q.q.q.q.q.q.q.q.q.q.q.q.r.h.k.q.q.q.q.  @ + $ + $ + q.q.      + $     q.q.q.q.q.q.q.q.q.q.q.q.q.q.q.q.y.r.h.",
"R.q.q.q.q.q.q.q.q.q.q.q.q.q.q.q.q.q.q.q.q.q.q.q.q.q.q.q.q.  $   $ .     q.q.q.q.q.      q.q.q.q.q.q.q.q.q.q.q.q.q.q.q.q.q.q.q.q.",
"R.q.q.q.e.q.q.q.q.q.y.q.q.q.6.q.q.q.q.q.q.q.q.t.q.q.q.q.q.t.    .   q.q.q.q.q.q.q.q.t.q.q.q.q.q.q.t.q.q.1.q.q.q.q.q.q.q.q.i.w.q.",
"R.q.i.d.F.F.q.q.q.#X8XF.3.@.z k q.q.q.q.q.q.b.G.A.q.q.q.N.4Xb.L.W z k q.q.q.q.q.q.L.4XS.q.q.q.M.L. XS.W v v 8.q.q.q.q.q.l.6XB.F.",
"R.q.q.A.f.q.q.q.q.F.t.M.q.Y 6.,.q.h.w.q.q.q.C.q.a.q.q.q.l.b.n.q.Y q.$.q.w.t.q.q.q.M.w.a.q.q.q.q.N.F.t.{ q.%.q.q.i.q.q.q.t.L.s.q.",
"R.q.q.q.q.q.q.q.q.q.q.q.q.q.q.q.I.tXb.L.q.q.q.q.q.q.q.q.q.q.q.q.q.q.q.I.p.<Xl.q.q.q.q.q.q.q.q.q.q.q.q.q.q.q.a.f.8Xl.q.q.q.q.q.q.",
"W.q.q.q.q.q.q.q.q.q.q.q.q.q.q.q.Y.F.S.q.q.q.q.q.q.q.q.q.q.q.q.q.q.q.q.q.K.+Xg.q.q.q.q.q.q.q.q.q.q.q.q.q.q.q.q.K.b.F.q.q.q.q.q.q.",
"R.q.q.q.q.q.q.q.q.q.q.q.q.q.q.q.q.q.q.q.q.q.q.q.q.q.q.q.q.q.q.q.q.q.q.q.q.q.q.q.q.q.q.q.q.q.q.q.q.q.q.q.q.q.q.q.q.q.q.q.q.q.q.q.",
"W.q.q.q.q.q.q.q.q.q.q.q.q.q.q.q.q.q.q.q.q.q.q.q.q.q.q.q.q.q.q.q.q.q.q.q.q.q.q.q.q.q.q.q.q.q.q.q.q.q.q.q.q.q.q.q.q.q.q.q.q.q.q.q.",
"R.q.q.q.q.q.q.q.q.q.q.q.q.q.q.q.;.x =.6.q.q.q.q.q.q.q.q.q.q.q.q.q.q.q.-.X.m 6.q.q.q.q.q.q.q.q.q.q.q.q.q.q.q.8.6.a 6.q.q.q.q.q.q.",
"W.q.q.q.q.q.q.q.q.q.q.q.q.q.q.q.H 2 9 } q.q.q.q.q.q.q.q.q.q.q.q.q.q.q.] E < ) q.q.q.q.q.q.q.q.q.q.q.q.q.q.q.:.J x M q.q.q.q.q.q.",
"R.q.q.q.q.q.q.q.q.q.q.q.q.q.q.y.A.OXt.q.q.q.q.q.q.q.q.q.q.q.q.q.q.q.e.i.m.t.q.q.q.q.q.q.q.q.q.q.q.q.q.q.q.q.a.m.t.q.q.q.q.q.q.q.",
"E.9.K 6.q.q.q.q.q.q.q.q.q.q.q.L.A.'.f.q.8.P 6.q.q.q.q.q.q.q.q.q.q.q.g.A.f.H.q.8.y 8.q.q.q.q.q.q.q.q.q.q.q.q.OXg.OXq.8.f >.8.q.q.",
"c.2 G > q.q.q.q.,.6.q.q.q.q.q.q.q.q.q.q.7 R * q.q.q.q.q.%.q.q.q.q.q.q.q.q.q.q.p , 8 6.q.q.q.q.&.q.q.q.q.q.q.q.q.q.q.G 5 B ^ q.q.",
"R.6.q.q.q.q.q.V B H _ q.q.q.q.q.q.q.q.q.7.q.9.q.q.q.,.f J N q.q.q.q.q.q.q.q.q.8.9.8.q.q.q.q.a @.x q.q.q.q.q.q.q.q.q.9.8.8.q.q.q."
};
