/* XPM */
static char *result[] = {
/* columns rows colors chars-per-pixel */
"64 64 237 2 ",
"   c black",
".  c #3A2129",
"X  c #524A4A",
"o  c #736363",
"O  c #9C4A21",
"+  c #D67300",
"@  c #8C7373",
"#  c #FF9429",
"$  c #4FDD90",
"%  c #50DF91",
"&  c #4FE390",
"*  c #4EE590",
"=  c #4FE590",
"-  c #4EE790",
";  c #4FE791",
":  c #4FE891",
">  c #4FEA91",
",  c #4FED91",
"<  c #4FEE91",
"1  c #51E091",
"2  c #50E290",
"3  c #51E391",
"4  c #50E591",
"5  c #50E691",
"6  c #51E691",
"7  c #50E791",
"8  c #51E592",
"9  c #51E792",
"0  c #54E791",
"q  c #50E891",
"w  c #51E891",
"e  c #50E991",
"r  c #51E991",
"t  c #50EA91",
"y  c #50EB91",
"u  c #51E992",
"i  c #52E892",
"p  c #52E992",
"a  c #51EA92",
"s  c #50EB92",
"d  c #51EB92",
"f  c #52EB92",
"g  c #50EC92",
"h  c #51EC92",
"j  c #50ED92",
"k  c #51ED92",
"l  c #52EC92",
"z  c #52ED92",
"x  c #52ED93",
"c  c #51EE92",
"v  c #50EF92",
"b  c #51EF92",
"n  c #52EE93",
"m  c #53EE93",
"M  c #52EF93",
"N  c #5BEF95",
"B  c #5BEF96",
"V  c #5FED98",
"C  c #4FF091",
"Z  c #4FF192",
"A  c #50F092",
"S  c #51F092",
"D  c #50F192",
"F  c #51F192",
"G  c #51F193",
"H  c #52F093",
"J  c #52F193",
"K  c #50F292",
"L  c #51F292",
"P  c #50F392",
"I  c #51F392",
"U  c #51F393",
"Y  c #52F293",
"T  c #52F393",
"R  c #56F193",
"E  c #57F193",
"W  c #55F292",
"Q  c #50F492",
"!  c #51F492",
"~  c #51F493",
"^  c #51F593",
"/  c #52F493",
"(  c #52F593",
")  c #50F692",
"_  c #51F693",
"`  c #50F793",
"'  c #51F793",
"]  c #52F693",
"[  c #53F693",
"{  c #52F793",
"}  c #54F194",
"|  c #53F694",
" . c #58F194",
".. c #5AF397",
"X. c #50F893",
"o. c #51F893",
"O. c #51F993",
"+. c #52F893",
"@. c #52F993",
"#. c #51FA93",
"$. c #51FB93",
"%. c #52FA93",
"&. c #52FB93",
"*. c #51FC93",
"=. c #52F994",
"-. c #53F994",
";. c #52FA94",
":. c #52FB94",
">. c #53FB94",
",. c #55FA95",
"<. c #56FA95",
"1. c #57F896",
"2. c #51FD94",
"3. c #52FC94",
"4. c #53FC94",
"5. c #52FD94",
"6. c #52FE94",
"7. c #53FE94",
"8. c #52FF94",
"9. c #53FF94",
"0. c #53FE95",
"q. c #53FF95",
"w. c #54FE95",
"e. c #55FE95",
"r. c #54FF95",
"t. c #55FD96",
"y. c #57FC96",
"u. c #56FD96",
"i. c #57FD96",
"p. c #57FC97",
"a. c #57FD97",
"s. c #55FE96",
"d. c #56FE96",
"f. c #57FE96",
"g. c #58FD96",
"h. c #58FC97",
"j. c #59FD97",
"k. c #58FB98",
"l. c #59FB98",
"z. c #5AFB98",
"x. c #5BFA99",
"c. c #5AFB99",
"v. c #5BFB99",
"b. c #5CFA99",
"n. c #5CFB99",
"m. c #5EFB99",
"M. c #5DF99A",
"N. c #5EF99B",
"B. c #5FF99B",
"V. c #5CFA9A",
"C. c #5DFA9A",
"Z. c #5CFB9A",
"A. c #5EFA9A",
"S. c #5EFA9B",
"D. c #58FC98",
"F. c #59FC98",
"G. c #58FD98",
"H. c #5AFC98",
"J. c #5BFC98",
"K. c #5AFC99",
"L. c #58FE98",
"P. c #58FF98",
"I. c #58FE99",
"U. c #58FF99",
"Y. c #5CFC98",
"T. c #5CFD98",
"R. c #5EFC99",
"E. c #5FFC9A",
"W. c #5FF99C",
"Q. c #62EB9A",
"!. c #63EB9A",
"~. c #64EA9B",
"^. c #65E99C",
"/. c #62F79D",
"(. c #63F69E",
"). c #63F79E",
"_. c #66F79D",
"`. c #65F59F",
"'. c #66F59F",
"]. c #64F69E",
"[. c #6AF69F",
"{. c #61F99B",
"}. c #60F89C",
"|. c #61F89C",
" X c #60F99C",
".X c #61F89D",
"XX c #64F89C",
"oX c #64F99C",
"OX c #66F89D",
"+X c #67F89D",
"@X c #64FA9C",
"#X c #68F89E",
"$X c #68F99E",
"%X c #79EEA7",
"&X c #78EFA7",
"*X c #7AEFA8",
"=X c #7FEEAA",
"-X c #67F4A0",
";X c #66F5A0",
":X c #67F5A0",
">X c #67F4A1",
",X c #68F3A1",
"<X c #69F3A1",
"1X c #69F3A2",
"2X c #6AF2A2",
"3X c #6AF3A2",
"4X c #6CF1A3",
"5X c #6BF7A0",
"6X c #6CF5A0",
"7X c #6CF6A0",
"8X c #6DF6A0",
"9X c #6FF4A2",
"0X c #6FF6A2",
"qX c #6CF1A4",
"wX c #6DF1A4",
"eX c #72F3A3",
"rX c #70F5A2",
"tX c #71F5A2",
"yX c #71F4A3",
"uX c #71F5A3",
"iX c #72F4A3",
"pX c #73F4A3",
"aX c #72F5A3",
"sX c #75F2A5",
"dX c #75F3A5",
"fX c #76F4A5",
"gX c #78F1A7",
"hX c #79F1A7",
"jX c #78F3A6",
"kX c #79F2A7",
"lX c #7AF1A8",
"zX c #7BF2A8",
"xX c #7CF0A9",
"cX c #AD9C9C",
"vX c gray71",
"bX c #D6DEDE",
"nX c white",
/* pixels */
"..W W W B W W W W W ^.W W W 0 W W W W W W W W N W W W W W Q.R W W 0 W W W W W W W W !.W W W W W E V W W 0 W W W W W W W W ~. .W ",
"P.8.t./.C.V.8.8.8.3X).].,.t F a 8.8.8.8.8.8.].a.|.8.8.8.|.'./.F.4 ] 8 8.8.8.8.8.8..X}./.8.8.8.v.}.;X}.a _ i 5.8.8.8.8.8.v.:XN.V.",
"P.8.8.v.d.8.8.8.8.H.0.h.8.X.5.3.8.a.9.8.8.8.c.8.s.8.8.8.u.a.F.8.X.8.%.8.8.t.8.8.8.F.9.s.8.8.8.8.F.F.0.#.8.:.8.8.u.8.8.8.w.a.u.8.",
"P.8.8.8.8.8.8.8.8.8.8.8.8.8.8.8.C.<XC.l.8.8.8.8.8.8.8.8.8.8.8.8.8.8.8.v.p.`.l.8.8.8.8.8.8.8.8.8.8.8.8.8.8.8.u.F.-Xb.8.8.8.8.8.8.",
"P.8.8.8.8.8.8.8.8.8.8.8.8.8.8.8.a.F.z.8.8.8.8.8.8.8.8.8.8.8.8.8.8.8.8.8.u.x.w.8.8.8.8.8.8.8.8.8.8.8.8.8.8.8.8.u.a.F.8.8.8.8.8.8.",
"P.8.8.8.8.8.8.8.8.8.8.8.8.8.8.8.8.8.8.8.8.8.8.8.8.8.8.8.8.8.8.8.8.8.8.8.8.8.8.8.8.8.8.8.8.8.8.8.8.8.8.8.8.8.8.8.8.8.8.8.8.8.8.8.",
"P.8.8.8.8.8.8.8.8.8.8.8.8.8.8.8.8.8.8.8.8.8.8.8.8.8.8.8.8.8.8.8.8.8.8.8.8.8.8.8.8.8.8.8.8.8.8.8.8.8.8.8.8.8.8.8.8.8.8.8.8.8.8.8.",
"P.8.8.8.8.8.8.8.8.8.8.8.8.8.8.8.( = ] ( 8.8.8.8.8.8.8.8.8.8.8.8.8.8.8.( } w [ 8.8.8.8.8.8.8.8.8.8.8.8.8.8.8.;.{ 1 | 8.8.8.8.8.8.",
"P.8.8.8.8.8.8.8.8.8.8.8.8.8.8.8.o.) f 8.8.8.8.8.8.8.8.8.8.8.8.8.8.8.8.8.#.K 5.8.8.8.8.8.8.8.8.8.8.8.8.8.8.8.8.#.o.) 8.8.8.8.8.8.",
"P.8.8.8.8.8.8.8.8.8.8.8.8.8.8.B.>X;XF.8.8.8.8.8.8.8.8.8.8.8.8.8.8.8.a.}.S.H.8.8.8.8.8.8.8.8.8.8.8.8.8.8.8.8.].S.H.8.8.8.8.8.8.8.",
"G.2.b ' 8.8.8.8.8.8.8.8.8.8.8.h.B.`.h.8.%.b o.8.8.8.8.8.8.8.8.8.8.8.e.B.p.}.8.%.- o.6.8.8.8.8.8.8.8.8.8.8.8.}.s.(.8.%.7 | #.8.8.",
"G., ' L 8.8.8.{ / @.;.8.8.8.8.8.8.8.8.8.> &.c 8.8.8.5.+.U ;.8.8.8.8.8.8.8.8.8.A P b 6.8.8.8.:._ 3.8.8.8.8.8.8.8.8.8.' g ~ $.8.8.",
"P.8.8.8.8.8.8.{ T c { 8.8.8.8.8.8.8.8.8.8.8.8.8.8.8.5.M T S X     8.8.8.8.8.8.8.8.8.8.8.8.8.p :.h 8.8.8.8.8.8.8.8.8.8.8.8.8.8.8.",
"P.8.8.R.0XT.r.8.8.8.8.8.8.8.8.8.8.8.8.8.8.8.E.yX{.Y.8.8.8.8.8.o o   8.8.8.8.8.8.8.m.OX5Xj.8.8.8.8.8.8.8.8.8.8.8.8.8.8.8.d.J.fXj.",
"P.8.8.zXiX=Xf.8.8.8.8.8.8.8.8.8.8.8.8.8.8.8.dXhX%X[.8.8.8.8.8.X o     8.8.8.8.8.8.9X7XgX_.8.8.8.8.8.8.8.8.8.8.8.8.8.8.8.m.sXdXpX",
"P.8.8.e.r.d.8.8.8.8.8.8.8.8.8.8.8.8.8.8.8.8.9.e.      . 8.8.  X o o   8.8.8.8.8.8.8.q.d.8.8.8.8.8.8.8.8.8.8.8.8.8.8.8.8.8.e.9.e.",
"P.8.8.8.8.8.8.8.8.8.8.8.8.8.8.8.8.8.8.8.8.      o o o o o   . X X X   8.8.8.8.8.8.8.8.8.8.8.8.8.8.8.8.8.8.8.8.8.8.8.8.8.8.8.8.8.",
"P.8.8.8.a.8.8.8.8.8.B.8.8.8.' 8.8.8.8.    vXvXvXo o o o o o o X       8.8.8.8.8.8.8.C.8.8.8.8.8.w.z.8.8.{ 8.8.8.8.8.8.8.8.A.w.8.",
"P.8.u.p.C.M.8.8.8./.4XA.<.( h h 8.8.  X nXnXnXnXnXo o o o o o o X c f 8.8.8.8.8.8.F.,X}.8.8.8.V.F.].}.J c l 5.8.8.8.8.8.F.3Xn.A.",
"P.8.8.b.u.8.8.8.8.v.w.F.8.I 3.:.8.  X nXnXnXnXnXnXvXo o o o o o o X @.8.0.h.8.8.8.z.9.u.8.8.8.8.z.v.w.' 8.@.8.8.z.8.8.8.w.h.u.8.",
"P.8.8.8.8.8.8.8.8.8.8.8.8.8.8.8.}.  vXnXnXnXnXnXnXnXo o o o o o o X 8.N.h.'.x.8.8.8.8.8.8.8.8.8.8.8.8.8.8.8.a.V.-XN.8.8.8.8.8.8.",
"P.8.8.8.8.8.8.8.8.8.8.8.8.8.8.8.  X nXnXnXnXnXnXnXvXo o o o o o o o X 8.w.h.0.8.8.8.8.8.8.8.8.8.8.8.8.8.8.8.8.w.s.u.8.8.8.8.8.8.",
"P.8.8.8.8.8.8.8.8.8.8.8.8.8.8.8.  X nXnXnXnXnXnXvXo o vXvXvXo o o o X 8.8.8.8.8.8.8.8.8.8.8.8.8.8.8.8.8.8.8.8.8.8.8.8.8.8.8.8.8.",
"P.8.8.8.8.8.8.8.8.8.8.8.8.8.8.  vXvXnXnXnXnXnXvXvXnXnXnXnXnXnXo o o o X 8.8.8.8.8.8.8.8.8.8.8.8.8.8.8.8.8.8.8.8.8.8.8.8.8.8.8.8.",
"P.8.8.8.8.8.8.8.8.8.8.8.8.8.8.    nXnXnXnXnXnXnX      nXnXnXnXvXo o o X m 5 _ 8.8.8.8.8.8.8.8.8.8.8.8.8.8.8.{ ~ $ _ 8.8.8.8.8.8.",
"P.8.8.8.8.8.8.8.8.8.8.8.8.8.8.  nX  nXnXnXnXnXX   nX  X nXnXnXnXo o o X #.K 3.8.8.8.8.8.8.8.8.8.8.8.8.8.8.8.8.O.o.) 8.8.8.8.8.8.",
"P.8.8.8.8.8.8.8.8.8.8.8.8.8.8.  bX    O O nXnXX   nX  X nXnXnXnXo o X   c.e.8.8.8.8.8.8.8.8.8.8.8.8.8.8.8.8.h.c.e.8.8.8.8.8.8.8.",
"L.5.F =.8.8.8.8.8.8.8.8.8.8.8.. X   O # # O vXX   vX  X nXnXnXbXX X X   a.N.8.5.q ;.8.8.8.8.8.8.8.8.8.8.8.8.}.s.|.8.3.e -.:.8.8.",
"G., ^ z 8.8.8.$.{ %.3.8.8.8.8.. . . # # # # # O       bXbXbXbXvXX X X   8.8.8.k k f 6.8.. . 3.o.5.8.8.8.8.8.8.8.8.8./ r T +.8.8.",
"P.8.8.8.8.8.8.! H C ^ 8.8.8.8.    O # # # . X X bXbXbXbXbXbXvXX X X X X   8.8.. .     . nXnXnX$., 8.8.8.8.8.8.8.8.8.8.8.8.8.8.8.",
"P.8.8.8.@X8.8.8.8.8.8.8.8.8.  o o o O   . O O . bXbXbXbXbXvXX X X X X X       . o o vXnXnXnXnX. 8.8.8.8.8.8.8.8.8.8.8.8.8.8.$X8.",
"P.8.8.dXrX*Xe.8.8.8.8.8.8.  o o       vXvX. . vXbXbXvXX X X X X X X X X X   @   o o nXnXnXnXnX. 8.8.8.8.8.8.8.8.8.8.8.8.j.9XaXtX",
"P.8.8.w.7.e.8.8.8.8.8.8.8.      X X . X X X X X X X X X X X X X X @ X X     @   o o nXnXnXo o       8.8.8.8.8.8.8.8.8.8.8.0.9.w.",
"P.8.8.8.8.8.8.8.8.8.8.8.8.8.8.. X   cXX X X   X X X X   X X X   @ X cXcXcXcX    nXnXnXnXvXo o o o     8.8.8.8.8.8.8.8.8.8.8.8.8.",
"P.8.8.8.s.8.8.8.8.8.H.8.8.8.&.8.  cXcX  X   bX. X X   cX  X   @ X cXcXcXcXcXcXcX  nX.   o o o o o   8.8.&.8.8.8.8.8.8.8.8.F.0.8.",
"P.8.a.M.B.|.8.8.8.1XqX).1.Q k X X cXcX    bXbXnX.   bXcXcX  cXcXX cXcXcXcXcXcX@ @   X X   X X     -X].F b s 5.8.8.8.8.8.v.4XN.|.",
"P.8.8.v.d.8.8.8.8.H.w.F.8.` 5.X X cXcXcXbXnXnXnXnXnXnXnXcXcXcXcXX cXcXcXcXcX@ @ o   X       8.8.F.H.w.#.8.:.8.8.t.8.8.8.w.a.u.8.",
"P.8.8.8.8.8.8.8.8.8.8.8.8.8.8.X X cXcXcXnXnXnXnXnXnXnXnXcXcXcXcXX @ @ @ @ @ @ @ X X X X 8.8.8.8.8.8.8.8.8.8.u.c.,Xb.8.8.8.8.8.8.",
"P.8.8.8.8.8.8.8.8.8.8.8.8.8.8.8.X cXcXcXbXnXnXnXnXnXnXbXcXcXcX@ @ . @ @ @ @ X X X X X   8.8.8.8.8.8.8.8.8.8.8.h.z.C.8.8.8.8.8.8.",
"P.8.8.8.8.8.8.8.8.8.8.8.8.8.8.8.X X @ cXcXbXnXnXnXnXnXcXcX@ @ @ @ . @ X X @ X X X X X 8.8.8.8.8.8.8.8.8.8.8.8.8.8.8.8.8.8.8.8.8.",
"P.8.8.8.8.8.8.8.8.8.8.8.8.8.8.8.8.  @ @ @ cXcXnXnXbX@ cX@ cX@ @ @ @ . X X X X X X X   8.8.8.8.8.8.8.8.8.8.8.8.8.8.8.8.8.8.8.8.8.",
"P.8.8.8.8.8.8.8.8.8.8.8.8.8.8.8.^ *   @ @ @ @ @ @ @ cX@ cX@ @ @ @ @ @   X X X X     8.8.8.8.8.8.8.8.8.8.8.8.=.] % { 8.8.8.8.8.8.",
"P.8.8.8.8.8.8.8.8.8.8.8.8.8.8.8.Z , 9     @ @ @ @ @ @ @ @ @ @ @ @ @ @           8.8.8.8.8.8.8.8.8.8.8.8.8.8.@.F j v 8.8.8.8.8.8.",
"P.8.8.8.8.8.8.8.8.8.8.8.8.8.8.a.W.}.e.8.8.    X @ @ @ @ @ @ @ @ .     + O O 8.8.8.8.8.8.8.8.8.8.8.8.8.8.8.8.H.c.s.8.8.8.8.8.8.8.",
"L.5.S o.8.8.8.8.8.8.8.8.8.8.8.F. X'.h.8.:.S O       . .           + O + + + O :.- O.6.8.8.8.8.8.8.8.8.8.8.8..Xs.].8.:.q | $.8.8.",
"G.g ' L 8.8.8.+./ @.:.8.8.8.8.8.8.8.8.8.e   # O # O + +   O 8.  + . # O #     b K c 6.8.8.8.:._ 3.8.8.8.8.8.8.8.8.8._ d / $.8.8.",
"P.8.8.8.8.8.8.v x < L 8.8.8.8.8.8.8.8.8.8.    # O       A y O # O # O +   8.8.8.8.8.8.8.8.8.3 O.> 8.8.8.8.8.8.8.8.8.8.8.8.8.8.8.",
"P.8.8.8.+X8.8.8.8.8.8.8.8.8.8.8.8.8.8.8.8.8.      8.8.8.8.8.    . #   #   8.8.8.8.8.m.oX8.8.8.8.8.8.8.8.8.8.8.8.8.8.8.8.8.8.8X8.",
"P.8.8.jXaXxXd.8.8.8.8.8.8.8.8.8.8.8.8.8.8.8.uXlX&X#X8.8.8.8.8.8.  .     8.8.8.8.8.6X7XkXXX8.8.8.8.8.8.8.8.8.8.8.8.8.8.8.Y.eXfXuX",
"P.8.8.e.r.i.8.8.8.8.8.8.8.8.8.8.8.8.8.8.8.8.q.d.g.8.8.8.8.8.8.8.8.8.8.8.8.8.8.8.8.8.r.f.8.8.8.8.8.8.8.8.8.8.8.8.8.8.8.8.8.e.q.d.",
"P.8.8.8.8.8.8.8.8.8.8.8.8.8.8.8.8.8.8.8.8.8.8.8.8.8.8.8.8.8.8.8.8.8.8.8.8.8.8.8.8.8.8.8.8.8.8.8.8.8.8.8.8.8.8.8.8.8.8.8.8.8.8.8.",
"P.8.8.8.0.8.8.8.8.8.e.8.8.8.3.8.8.8.8.8.8.8.8.w.8.8.8.8.8.w.8.8.8.:.8.8.8.8.8.8.8.8.w.8.8.8.8.8.8.w.8.8.>.8.8.8.8.8.8.8.8.t.9.8.",
"P.8.t.p.C.C.8.8.8..X4XC.<.o.h f 8.8.8.8.8.8.z.Z.N.8.8.8.b.<Xz.F.T h f 8.8.8.8.8.8.F.<XB.8.8.8.v.F.].B.T l l 5.8.8.8.8.8.h.2Xn.C.",
"P.8.8.N.a.8.8.8.8.C.w.v.8.P 3.;.8.d.9.8.8.8.M.8.u.8.8.8.h.z.x.8.P 8.+.8.9.w.8.8.8.v.9.u.8.8.8.8.b.C.w.' 8.@.8.8.t.8.8.8.w.F.i.8.",
"P.8.8.8.8.8.8.8.8.8.8.8.8.8.8.8.H.wXz.F.8.8.8.8.8.8.8.8.8.8.8.8.8.8.8.H.y.;Xh.8.8.8.8.8.8.8.8.8.8.8.8.8.8.8.u.a.4Xh.8.8.8.8.8.8.",
"U.8.8.8.8.8.8.8.8.8.8.8.8.8.8.8.K.C.B.8.8.8.8.8.8.8.8.8.8.8.8.8.8.8.8.8.D.|.s.8.8.8.8.8.8.8.8.8.8.8.8.8.8.8.8.D.z.C.8.8.8.8.8.8.",
"P.8.8.8.8.8.8.8.8.8.8.8.8.8.8.8.8.8.8.8.8.8.8.8.8.8.8.8.8.8.8.8.8.8.8.8.8.8.8.8.8.8.8.8.8.8.8.8.8.8.8.8.8.8.8.8.8.8.8.8.8.8.8.8.",
"U.8.8.8.8.8.8.8.8.8.8.8.8.8.8.8.8.8.8.8.8.8.8.8.8.8.8.8.8.8.8.8.8.8.8.8.8.8.8.8.8.8.8.8.8.8.8.8.8.8.8.8.8.8.8.8.8.8.8.8.8.8.8.8.",
"P.8.8.8.8.8.8.8.8.8.8.8.8.8.8.8.*.j %.3.8.8.8.8.8.8.8.8.8.8.8.8.8.8.8.&.| c 3.8.8.8.8.8.8.8.8.8.8.8.8.8.8.8.5.3.u 3.8.8.8.8.8.8.",
"U.8.8.8.8.8.8.8.8.8.8.8.8.8.8.8.D , 6 ] 8.8.8.8.8.8.8.8.8.8.8.8.8.8.8._ Y > ^ 8.8.8.8.8.8.8.8.8.8.8.8.8.8.8.=.F j v 8.8.8.8.8.8.",
"P.8.8.8.8.8.8.8.8.8.8.8.8.8.8.e.N.}.w.8.8.8.8.8.8.8.8.8.8.8.8.8.8.8.0.t.c.w.8.8.8.8.8.8.8.8.8.8.8.8.8.8.8.8.u.c.w.8.8.8.8.8.8.8.",
"I.6.G 3.8.8.8.8.8.8.8.8.8.8.8.F.N./.a.8.5.J 3.8.8.8.8.8.8.8.8.8.8.8.s.N.a.A.8.5.e 5.8.8.8.8.8.8.8.8.8.8.8.8.}.s.}.8.5.a -.5.8.8.",
"k., S ; 8.8.8.8.;.3.8.8.8.8.8.8.8.8.8.8.4 U & 8.8.8.8.8.@.8.8.8.8.8.8.8.8.8.8.y : 5 3.8.8.8.8.#.8.8.8.8.8.8.8.8.8.8.S 2 n Q 8.8.",
"P.3.8.8.8.8.8.M n D / 8.8.8.8.8.8.8.8.8.4.8.6.8.8.8.;.a F b 8.8.8.8.8.8.8.8.8.5.6.5.8.8.8.8.u o.j 8.8.8.8.8.8.8.8.8.6.5.5.8.8.8."
};
