/* XPM */
static char *result[] = {
/* columns rows colors chars-per-pixel */
"64 64 244 2 ",
"   c black",
".  c #3A2129",
"X  c #524A4A",
"o  c #736363",
"O  c #9C4A21",
"+  c #D67300",
"@  c #8C7373",
"#  c #FF9429",
"$  c #4FDD90",
"%  c #50DF91",
"&  c #4FE390",
"*  c #4DE590",
"=  c #4FE590",
"-  c #4EE790",
";  c #4FE791",
":  c #4FE891",
">  c #4FEA91",
",  c #4FEC91",
"<  c #4FED91",
"1  c #4FEE91",
"2  c #51E091",
"3  c #50E290",
"4  c #51E391",
"5  c #50E591",
"6  c #50E691",
"7  c #51E691",
"8  c #50E791",
"9  c #51E592",
"0  c #54E791",
"q  c #50E891",
"w  c #51E891",
"e  c #50E991",
"r  c #51E991",
"t  c #50EA91",
"y  c #50EB91",
"u  c #51E992",
"i  c #52E892",
"p  c #52E992",
"a  c #51EA92",
"s  c #50EB92",
"d  c #51EB92",
"f  c #52EA92",
"g  c #52EB92",
"h  c #50EC92",
"j  c #51EC92",
"k  c #50ED92",
"l  c #51ED92",
"z  c #52EC92",
"x  c #52ED92",
"c  c #52ED93",
"v  c #51EE92",
"b  c #50EF92",
"n  c #51EF92",
"m  c #52EE93",
"M  c #52EF93",
"N  c #5BEF95",
"B  c #5BEF96",
"V  c #5FED98",
"C  c #4FF091",
"Z  c #4FF192",
"A  c #50F092",
"S  c #51F092",
"D  c #50F192",
"F  c #51F192",
"G  c #51F193",
"H  c #52F093",
"J  c #52F193",
"K  c #50F292",
"L  c #51F292",
"P  c #50F392",
"I  c #51F392",
"U  c #51F393",
"Y  c #52F293",
"T  c #52F393",
"R  c #56F193",
"E  c #57F193",
"W  c #55F292",
"Q  c #50F492",
"!  c #51F492",
"~  c #51F493",
"^  c #51F593",
"/  c #52F493",
"(  c #52F593",
")  c #50F692",
"_  c #51F693",
"`  c #50F793",
"'  c #51F793",
"]  c #52F693",
"[  c #53F693",
"{  c #52F793",
"}  c #54F194",
"|  c #53F694",
" . c #58F194",
".. c #5AF397",
"X. c #50F893",
"o. c #51F893",
"O. c #51F993",
"+. c #52F893",
"@. c #52F993",
"#. c #51FA93",
"$. c #51FB93",
"%. c #52FA93",
"&. c #52FB93",
"*. c #51FC93",
"=. c #52F994",
"-. c #53F994",
";. c #52FA94",
":. c #52FB94",
">. c #53FB94",
",. c #55FA95",
"<. c #56FA95",
"1. c #57F896",
"2. c #51FD94",
"3. c #52FC94",
"4. c #53FC94",
"5. c #52FD94",
"6. c #52FE94",
"7. c #53FE94",
"8. c #52FF94",
"9. c #53FF94",
"0. c #53FE95",
"q. c #53FF95",
"w. c #54FE95",
"e. c #55FE95",
"r. c #54FF95",
"t. c #55FD96",
"y. c #57FC96",
"u. c #56FD96",
"i. c #57FD96",
"p. c #57FC97",
"a. c #57FD97",
"s. c #55FE96",
"d. c #56FE96",
"f. c #57FE96",
"g. c #58FD96",
"h. c #58FC97",
"j. c #59FD97",
"k. c #5AFC97",
"l. c #58FB98",
"z. c #59FB98",
"x. c #5AFB98",
"c. c #5BFA99",
"v. c #5AFB99",
"b. c #5BFB99",
"n. c #5CFA99",
"m. c #5CFB99",
"M. c #5EFB99",
"N. c #5DF99A",
"B. c #5FF89B",
"V. c #5EF99B",
"C. c #5FF99B",
"Z. c #5CFA9A",
"A. c #5DFA9A",
"S. c #5CFB9A",
"D. c #5EFA9A",
"F. c #5EFA9B",
"G. c #58FC98",
"H. c #59FC98",
"J. c #58FD98",
"K. c #5AFC98",
"L. c #5BFC98",
"P. c #5AFC99",
"I. c #58FE98",
"U. c #58FF98",
"Y. c #58FE99",
"T. c #58FF99",
"R. c #5CFC98",
"E. c #5CFD98",
"W. c #5EFC99",
"Q. c #5FFC9A",
"!. c #5FF99C",
"~. c #62EB9A",
"^. c #63EB9A",
"/. c #64EA9B",
"(. c #65E99C",
"). c #62F79D",
"_. c #63F69E",
"`. c #63F79E",
"'. c #66F79D",
"]. c #65F59F",
"[. c #66F59F",
"{. c #64F69E",
"}. c #68F79E",
"|. c #6AF69F",
" X c #61F99B",
".X c #60F89C",
"XX c #61F89C",
"oX c #60F99C",
"OX c #61F89D",
"+X c #64F89C",
"@X c #64F99C",
"#X c #65F99D",
"$X c #66F89D",
"%X c #67F89D",
"&X c #64FA9C",
"*X c #68F89E",
"=X c #68F99E",
"-X c #7AEDA7",
";X c #79EEA7",
":X c #78EFA7",
">X c #7AEFA8",
",X c #7FEEAA",
"<X c #67F4A0",
"1X c #66F5A0",
"2X c #67F5A0",
"3X c #67F4A1",
"4X c #68F3A1",
"5X c #69F3A1",
"6X c #69F3A2",
"7X c #6AF2A2",
"8X c #6AF3A2",
"9X c #6CF1A3",
"0X c #6BF7A0",
"qX c #6CF5A0",
"wX c #6CF6A0",
"eX c #6DF6A0",
"rX c #6DF6A1",
"tX c #6FF4A2",
"yX c #6FF6A2",
"uX c #6CF1A4",
"iX c #6DF1A4",
"pX c #72F3A3",
"aX c #70F5A2",
"sX c #71F5A2",
"dX c #71F4A3",
"fX c #71F5A3",
"gX c #72F4A3",
"hX c #73F4A3",
"jX c #72F5A3",
"kX c #75F2A5",
"lX c #75F3A5",
"zX c #76F4A5",
"xX c #78F1A7",
"cX c #79F1A7",
"vX c #7AF0A7",
"bX c #78F3A6",
"nX c #79F2A7",
"mX c #7AF1A8",
"MX c #7BF2A8",
"NX c #7CF0A9",
"BX c #AD9C9C",
"VX c gray71",
"CX c #D6DEDE",
"ZX c white",
/* pixels */
"..W W W B W W W W W (.W W W 0 W W W W W W W W N W W W W W ~.R W W 0 W W W W W W W W ^.W W W W W E V W W 0 W W W W W W W W /. .W ",
"U.8.t.).A.Z.8.8.8.8X`.{.,.t F a 8.8.8.8.8.8.{.a.XX8.8.8.XX[.).H.5 ] 9 8.8.8.8.8.8.OX.X).8.8.8.b..X1X.Xa _ i 5.8.8.8.8.8.b.2XV.Z.",
"U.8.8.b.d.8.8.8.8.K.0.h.8.X.5.3.8.a.9.8.8.8.v.8.s.8.8.8.u.a.H.8.X.8.%.8.8.t.8.8.8.H.9.s.8.8.8.8.H.H.0.#.8.:.8.8.u.8.8.8.w.a.u.8.",
"U.8.8.8.8.8.8.8.8.8.8.8.8.8.8.8.A.5XA.z.8.8.8.8.8.8.8.8.8.8.8.8.8.8.8.b.p.].z.8.8.8.8.8.8.8.8.8.8.8.8.8.8.8.u.H.<Xn.8.8.8.8.8.8.",
"U.8.8.8.8.8.8.8.8.8.8.8.8.8.8.8.a.H.x.8.8.8.8.8.8.8.8.8.8.8.8.8.8.8.8.8.u.c.w.8.8.8.8.8.8.8.8.8.8.8.8.8.8.8.8.u.a.H.8.8.8.8.8.8.",
"U.8.8.8.8.8.8.8.8.8.8.8.8.8.8.8.8.8.8.8.8.8.8.8.8.8.8.8.8.8.8.8.8.8.8.8.8.8.8.8.8.8.8.8.8.8.8.8.8.8.8.8.8.8.8.8.8.8.8.8.8.8.8.8.",
"U.8.8.8.8.8.8.8.8.8.8.8.8.8.8.8.8.8.8.8.8.8.8.8.8.8.8.8.8.8.8.8.8.8.8.8.8.8.8.8.8.8.8.8.8.8.8.8.8.8.8.8.8.8.8.8.8.8.8.8.8.8.8.8.",
"U.8.8.8.8.8.8.8.8.8.8.8.8.8.8.8.( = ] ( 8.8.8.8.8.8.8.8.8.8.8.8.8.8.8.( } w [ 8.8.8.8.8.8.8.8.8.8.8.8.8.8.8.;.{ 2 | 8.8.8.8.8.8.",
"U.8.8.8.8.8.8.8.8.8.8.8.8.8.8.8.o.) g 8.8.8.8.8.8.8.8.8.8.8.8.8.8.8.8.8.#.K 5.8.8.8.8.8.8.8.8.8.8.8.8.8.8.8.8.#.o.) 8.8.8.8.8.8.",
"U.8.8.8.8.8.8.8.8.8.8.8.8.8.8.C.3X1XH.8.8.8.8.8.8.8.8.8.8.8.8.8.8.8.a..XF.K.8.8.8.8.8.8.8.8.8.8.8.8.8.8.8.8.{.F.K.8.8.8.8.8.8.8.",
"J.2.n ' 8.8.8.8.8.8.8.8.8.8.8.h.C.].h.8.%.n o.8.8.8.8.8.8.8.8.8.8.8.e.C.p..X8.%.- o.6.8.8.8.8.8.8.8.8.8.8.8..Xs._.8.%.8 | #.8.8.",
"J.< ' L 8.8.8.{ / @.;.8.8.8.8.8.8.8.8.8.> &.v 8.8.8.5.+.U ;.8.8.8.8.8.8.8.8.8.A P n 6.8.8.8.:._ 3.8.8.8.8.8.8.8.8.8.' h ~ $.8.8.",
"U.8.8.8.8.8.8.{ T v { 8.8.8.8.8.8.8.8.8.8.8.8.8.8.8.5.M T S 8.8.8.8.8.8.8.8.8.8.8.8.8.8.8.8.p :.j 8.8.8.8.8.8.8.8.8.8.8.8.8.8.8.",
"U.8.8.W.yXE.r.8.8.8.8.8.8.8.8.8.8.8.8.8.8.8.Q.dX XR.8.8.8.8.8.8.8.8.8.8.8.8.8.8.8.M.$X0Xj.8.8.8.8.8.8.8.8.8.8.8.8.8.8.8.d.L.zXj.",
"U.8.8.MXgX,Xf.8.8.8.8.8.8.8.8.8.8.8.8.8.8.8.lXcX;X|.8.8.8.8.8.8.X 8.8.8.8.8.8.8.8.tXwXxX'.8.8.8.8.8.8.8.8.8.8.8.8.8.8.8.M.kXlXhX",
"U.8.8.e.r.d.8.8.8.8.8.8.8.8.8.8.8.8.8.8.8.8.9.e.d.8.8.8.8.X     8.8.8.8.8.8.8.8.8.8.q.d.8.8.8.8.8.8.8.8.8.8.8.8.8.8.8.8.8.e.9.e.",
"U.8.8.8.8.8.8.8.8.8.8.8.8.8.8.8.8.8.8.8.8.8.8.8.8.8.8.8.X o o . 8.8.8.8.8.8.8.8.8.8.8.8.8.8.8.8.8.8.8.8.8.8.8.8.8.8.8.8.8.8.8.8.",
"U.8.8.8.a.8.8.8.8.8.C.8.8.8.' 8.8.8.8.8.8.8.8.a.8.8.8.8.X o o . 8.' 8.8.8.8.8.8.8.8.A.8.8.8.8.8.w.x.8.8.{ 8.8.8.8.8.8.8.8.D.w.8.",
"U.8.u.p.A.N.8.8.8.).9XD.<.( j j 8.8.8.8.8.8.x.m.C.8.8.8.X o o .   v g 8.8.8.8.8.8.H.4X.X8.8.8.Z.H.{..XJ v z 5.8.8.8.8.8.H.8Xm.D.",
"U.8.8.n.u.8.8.8.8.b.w.H.8.I 3.:.8.x.0.8.8.8.b.8.u.8.8.8.  X X X o X @.8.0.h.8.8.8.x.9.u.8.8.8.8.x.b.w.' 8.@.8.8.x.8.8.8.w.h.u.8.",
"U.8.8.8.8.8.8.8.8.8.8.8.8.8.8.8..X5XB.n.8.8.8.8.8.8.8.8.  X X X X X o       c.8.8.8.8.8.8.8.8.8.8.8.8.8.8.8.a.Z.<XV.8.8.8.8.8.8.",
"U.8.8.8.8.8.8.8.8.8.8.8.8.8.8.8.s.u.a.8.8.8.8.8.8.8.8.8.8.8..   X o o o o o X X 8.8.8.8.8.8.8.8.8.8.8.8.8.8.8.w.s.u.8.8.8.8.8.8.",
"U.8.8.8.8.8.8.8.8.8.8.8.8.8.8.8.8.8.8.8.8.8.8.8.8.8.8.8.8.  o o o o o o o o ZXZXX X 8.8.8.8.8.8.8.8.8.8.8.8.8.8.8.8.8.8.8.8.8.8.",
"U.8.8.8.8.8.8.8.8.8.8.8.8.8.8.8.8.8.8.8.8.8.8.8.8.8.8.8.  o o o o o o o o o o VXZXZXX 8.8.8.8.8.8.8.8.8.8.8.8.8.8.8.8.8.8.8.8.8.",
"U.8.8.8.8.8.8.8.8.8.8.8.8.8.8.8.Q * _ ~ 8.8.8.8.8.8.8.  X o o o o o o o o o X o CXZXCXX 8.8.8.8.8.8.8.8.8.8.{ ~ $ _ 8.8.8.8.8.8.",
"U.8.8.8.8.8.8.8.8.8.8.8.8.8.8.8.o.) f 8.8.8.8.8.8.8.8.  X X X o o o o o o X X X X o CXCXX 8.8.8.8.8.8.8.8.8.8.O.o.) 8.8.8.8.8.8.",
"U.8.8.8.8.8.8.8.8.8.8.8.8.8.8.i.C..Xw.8.8.8.8.8.8.8.  X X X X X X X X X X X X X o CXCXCXo 8.8.8.8.8.8.8.8.8.h.v.e.8.8.8.8.8.8.8.",
"I.5.F =.8.8.8.8.8.8.8.8.8.8.8.H.C.`.a.8.3.H ;.8.8.8.  X X X X X X X X X X X X CXCXCXVX  CXo 8.8.8.8.8.8.8.8..Xs.XX8.3.e -.:.8.8.",
"J.< ^ x 8.8.8.$.{ %.3.8.8.8.8.8.8.8.8.8.> +.p 8.8.8.  X X X X X X X X X X X o CXCXCX  CX  o 3.o.5.8.8.8.8.8.8.8.8.8./ r T +.8.8.",
"U.8.8.8.8.8.8.! H C ^ 8.8.8.8.8.8.8.8.8.8.8.8.8.8.8.  X X X X X X X X X X X CXCXCXCX  CX  CXO O < 8.8.8.8.8.8.8.8.8.8.8.8.8.8.8.",
"U.8.8.8.&X8.8.8.8.8.8.8.8.8.8.8.8.8.8.8.8.8.8.#Xj.8.. X X X X X X X X X X X CXCXCXCX  X   CX# # X X 8.8.8.8.8.8.8.8.8.8.8.8.=X8.",
"U.8.8.lXaX>Xe.8.8.8.8.8.8.8.8.8.8.8.8.8.8.8.rXvX-X. X X X X X X X X X X X X o CXCXCXCXX CX+ # # o     8.8.8.8.8.8.8.8.8.j.tXjXsX",
"U.8.8.w.7.e.8.8.8.8.8.8.8.8.8.8.8.8.8.8.8.8.9.w.. X X X X X X X X X X X X X X CXCXCXCXCXCX+   O 8.8.8.8.8.8.8.8.8.8.8.8.8.0.9.w.",
"U.8.8.8.8.8.8.8.8.8.8.8.8.8.8.8.8.8.8.8.8.8.8.. X X X X X X X X X X X X X X X X CXCXCXCXCXX 8.8.8.8.8.8.8.8.8.8.8.8.8.8.8.8.8.8.",
"U.8.8.8.s.8.8.8.8.8.K.8.8.8.&.8.8.8.8.8.8.8.8.e.. .     X X X X X X X X X X X X X VXCXCXCX  8.8.0.i.8.8.&.8.8.8.8.8.8.8.8.H.0.8.",
"U.8.a.N.C.XX8.8.8.6XuX`.1.Q l , X X X 8.      m.{.. @ @ . X X X X X X X X X X X X X X X X X . C.n.<X{.F n s 5.8.8.8.8.8.b.9XV.XX",
"U.8.8.b.d.8.8.8.8.K.w.H.8.` 5.. VXVXX X o o o     @ @ @ . X     X X X   X X X X   X X   . X X . H.K.w.#.8.:.8.8.t.8.8.8.w.a.u.8.",
"U.8.8.8.8.8.8.8.8.8.8.8.8.8.  o VXZXZXVXo o o o   BXBXBX.   @ @ . X   @ . X X   BX. X   @ .   . 8.8.8.8.8.8.u.v.4Xn.8.8.8.8.8.8.",
"U.8.8.8.8.8.8.8.8.8.8.8.8.8.  o o ZXZXZXo o o o o   BXBXBX. . . .   . . @     BXBXBX.   @ @ X 8.8.8.8.8.8.8.8.h.x.A.8.8.8.8.8.8.",
"U.8.8.8.8.8.8.8.8.8.8.8.8.8.  o o VXZXZXZXo o X X   BXBX. . . X X X X X . . BXBX@ @ @ @ @ @ X 8.8.8.8.8.8.8.8.8.8.8.8.8.8.8.8.8.",
"U.8.8.8.8.8.8.8.8.8.8.8.8.8.8.  o o o VXZXVXX X X   BX  X X X . . . X X X X X X @ @ @ @ @ @   8.8.8.8.8.8.8.8.8.8.8.8.8.8.8.8.8.",
"U.8.8.8.8.8.8.8.8.8.8.8.8.8.8.    o X X VXVXX X X   @   X X X X X X . X X X X @ @ @ @ @ @ @   8.8.8.8.8.8.8.=.] % { 8.8.8.8.8.8.",
"U.8.8.8.8.8.8.8.8.8.8.8.8.8.8.8.Z .   X X VXX X X   @   . . . X X X X X X X X X X X X @ @ @   8.8.8.8.8.8.8.@.F k b 8.8.8.8.8.8.",
"U.8.8.8.8.8.8.8.8.8.8.8.8.8.8.a.!.  X   X X X X X   @ @   X X . . . X X X X X X X X @ @ @   8.8.8.8.8.8.8.8.K.v.s.8.8.8.8.8.8.8.",
"I.5.S o.8.8.8.8.8.8.8.8.8.8.8.H.oX[.. X     X X X @ @ @   X X X X X X X X X X X @ @ @ X X   8.8.8.8.8.8.8.8.OXs.{.8.:.q | $.8.8.",
"J.h ' L 8.8.8.+./ @.:.8.8.8.8.8.8.8.8.. . X     @ @ @ @ @     X X X X X X X X X X X X X   8.:._ 3.8.8.8.8.8.8.8.8.8._ d / $.8.8.",
"U.8.8.8.8.8.8.b c 1 L 8.8.8.8.8.8.8.8.8.8.. . .   @ @ @ @ @ @     X X X X X X X X X     8.8.4 O.> 8.8.8.8.8.8.8.8.8.8.8.8.8.8.8.",
"U.8.8.8.%X8.8.8.8.8.8.8.8.8.8.8.8.8.8.8.8.8.8.}.k.      @ @ @ @ @     X X X X       M.@X8.8.8.8.8.8.8.8.8.8.8.8.8.8.8.8.8.8.eX8.",
"U.8.8.bXjXNXd.8.8.8.8.8.8.8.8.8.8.8.8.8.8.8.fXmX:X*X  O     . . X X X         O 8.qXwXnX+X8.8.8.8.8.8.8.8.8.8.8.8.8.8.8.R.pXzXfX",
"U.8.8.e.r.i.8.8.8.8.8.8.8.8.8.8.8.8.8.8.8.8.q.d.g.O + + + + O O O + # # # O O O   8.r.f.8.8.8.8.8.8.8.8.8.8.8.8.8.8.8.8.8.e.q.d.",
"U.8.8.8.8.8.8.8.8.8.8.8.8.8.8.8.8.8.8.8.8.8.8.8.8.O         O   # #       O + +   8.8.8.8.8.8.8.8.8.8.8.8.8.8.8.8.8.8.8.8.8.8.8.",
"U.8.8.8.0.8.8.8.8.8.e.8.8.8.3.8.8.8.8.8.8.8.8.w.8.8.8.8.8.w.8.    O 8.8.8.8.    8.8.w.8.8.8.8.8.8.w.8.8.>.8.8.8.8.8.8.8.8.t.9.8.",
"U.8.t.p.A.A.8.8.8.OX9XA.<.o.j g 8.8.8.8.8.8.x.S.V.8.8.8.n.5Xx.H.T j g 8.8.8.8.8.8.H.5XC.8.8.8.b.H.{.C.T z z 5.8.8.8.8.8.h.7Xm.A.",
"U.8.8.V.a.8.8.8.8.A.w.b.8.P 3.;.8.d.9.8.8.8.N.8.u.8.8.8.h.x.c.8.P 8.+.8.9.w.8.8.8.b.9.u.8.8.8.8.n.A.w.' 8.@.8.8.t.8.8.8.w.H.i.8.",
"U.8.8.8.8.8.8.8.8.8.8.8.8.8.8.8.K.iXx.H.8.8.8.8.8.8.8.8.8.8.8.8.8.8.8.K.y.1Xh.8.8.8.8.8.8.8.8.8.8.8.8.8.8.8.u.a.9Xh.8.8.8.8.8.8.",
"T.8.8.8.8.8.8.8.8.8.8.8.8.8.8.8.P.A.C.8.8.8.8.8.8.8.8.8.8.8.8.8.8.8.8.8.G.XXs.8.8.8.8.8.8.8.8.8.8.8.8.8.8.8.8.G.x.A.8.8.8.8.8.8.",
"U.8.8.8.8.8.8.8.8.8.8.8.8.8.8.8.8.8.8.8.8.8.8.8.8.8.8.8.8.8.8.8.8.8.8.8.8.8.8.8.8.8.8.8.8.8.8.8.8.8.8.8.8.8.8.8.8.8.8.8.8.8.8.8.",
"T.8.8.8.8.8.8.8.8.8.8.8.8.8.8.8.8.8.8.8.8.8.8.8.8.8.8.8.8.8.8.8.8.8.8.8.8.8.8.8.8.8.8.8.8.8.8.8.8.8.8.8.8.8.8.8.8.8.8.8.8.8.8.8.",
"U.8.8.8.8.8.8.8.8.8.8.8.8.8.8.8.*.k %.3.8.8.8.8.8.8.8.8.8.8.8.8.8.8.8.&.| v 3.8.8.8.8.8.8.8.8.8.8.8.8.8.8.8.5.3.u 3.8.8.8.8.8.8.",
"T.8.8.8.8.8.8.8.8.8.8.8.8.8.8.8.D < 7 ] 8.8.8.8.8.8.8.8.8.8.8.8.8.8.8._ Y > ^ 8.8.8.8.8.8.8.8.8.8.8.8.8.8.8.=.F k b 8.8.8.8.8.8.",
"U.8.8.8.8.8.8.8.8.8.8.8.8.8.8.e.V..Xw.8.8.8.8.8.8.8.8.8.8.8.8.8.8.8.0.t.v.w.8.8.8.8.8.8.8.8.8.8.8.8.8.8.8.8.u.v.w.8.8.8.8.8.8.8.",
"Y.6.G 3.8.8.8.8.8.8.8.8.8.8.8.H.V.).a.8.5.J 3.8.8.8.8.8.8.8.8.8.8.8.s.V.a.D.8.5.e 5.8.8.8.8.8.8.8.8.8.8.8.8..Xs..X8.5.a -.5.8.8.",
"l.< S ; 8.8.8.8.;.3.8.8.8.8.8.8.8.8.8.8.5 U & 8.8.8.8.8.@.8.8.8.8.8.8.8.8.8.8.y : 6 3.8.8.8.8.#.8.8.8.8.8.8.8.8.8.8.S 3 m Q 8.8.",
"U.3.8.8.8.8.8.M m D / 8.8.8.8.8.8.8.8.8.4.8.6.8.8.8.;.a F n 8.8.8.8.8.8.8.8.8.5.6.5.8.8.8.8.u o.k 8.8.8.8.8.8.8.8.8.6.5.5.8.8.8."
};
