/* XPM */
static char *result[] = {
/* columns rows colors chars-per-pixel */
"64 64 240 2 ",
"   c black",
".  c #3A2129",
"X  c #524A4A",
"o  c #736363",
"O  c #9C4A21",
"+  c #D67300",
"@  c #8C7373",
"#  c #FF9429",
"$  c #4FDD90",
"%  c #50DF91",
"&  c #4FE390",
"*  c #4DE590",
"=  c #4FE590",
"-  c #4EE790",
";  c #4FE791",
":  c #4FE891",
">  c #4FEA91",
",  c #4FEC91",
"<  c #4FED91",
"1  c #4FEE91",
"2  c #51E091",
"3  c #50E290",
"4  c #51E391",
"5  c #50E591",
"6  c #50E691",
"7  c #51E691",
"8  c #50E791",
"9  c #51E592",
"0  c #54E791",
"q  c #50E891",
"w  c #51E891",
"e  c #50E991",
"r  c #51E991",
"t  c #50EA91",
"y  c #50EB91",
"u  c #51E992",
"i  c #52E892",
"p  c #52E992",
"a  c #51EA92",
"s  c #50EB92",
"d  c #51EB92",
"f  c #52EA92",
"g  c #52EB92",
"h  c #50EC92",
"j  c #51EC92",
"k  c #50ED92",
"l  c #51ED92",
"z  c #52EC92",
"x  c #52ED92",
"c  c #52ED93",
"v  c #51EE92",
"b  c #50EF92",
"n  c #51EF92",
"m  c #52EE93",
"M  c #52EF93",
"N  c #5BEF95",
"B  c #5BEF96",
"V  c #5FED98",
"C  c #4FF091",
"Z  c #4FF192",
"A  c #50F092",
"S  c #51F092",
"D  c #50F192",
"F  c #51F192",
"G  c #51F193",
"H  c #52F093",
"J  c #52F193",
"K  c #50F292",
"L  c #51F292",
"P  c #50F392",
"I  c #51F392",
"U  c #51F393",
"Y  c #52F293",
"T  c #52F393",
"R  c #56F193",
"E  c #57F193",
"W  c #55F292",
"Q  c #50F492",
"!  c #51F492",
"~  c #51F493",
"^  c #51F593",
"/  c #52F493",
"(  c #52F593",
")  c #50F692",
"_  c #51F693",
"`  c #50F793",
"'  c #51F793",
"]  c #52F693",
"[  c #53F693",
"{  c #52F793",
"}  c #54F194",
"|  c #53F694",
" . c #58F194",
".. c #5AF397",
"X. c #50F893",
"o. c #51F893",
"O. c #51F993",
"+. c #52F893",
"@. c #52F993",
"#. c #51FA93",
"$. c #51FB93",
"%. c #52FA93",
"&. c #52FB93",
"*. c #51FC93",
"=. c #52F994",
"-. c #53F994",
";. c #52FA94",
":. c #52FB94",
">. c #53FB94",
",. c #55FA95",
"<. c #56FA95",
"1. c #57F896",
"2. c #51FD94",
"3. c #52FC94",
"4. c #53FC94",
"5. c #52FD94",
"6. c #52FE94",
"7. c #53FE94",
"8. c #52FF94",
"9. c #53FF94",
"0. c #53FE95",
"q. c #53FF95",
"w. c #54FE95",
"e. c #55FE95",
"r. c #54FF95",
"t. c #55FD96",
"y. c #57FC96",
"u. c #56FD96",
"i. c #57FD96",
"p. c #57FC97",
"a. c #57FD97",
"s. c #55FE96",
"d. c #56FE96",
"f. c #57FE96",
"g. c #58FC97",
"h. c #59FD97",
"j. c #58FB98",
"k. c #59FB98",
"l. c #5AFB98",
"z. c #5BFA99",
"x. c #5AFB99",
"c. c #5BFB99",
"v. c #5CFA99",
"b. c #5CFB99",
"n. c #5EFB99",
"m. c #5DF99A",
"M. c #5FF89B",
"N. c #5EF99B",
"B. c #5FF99B",
"V. c #5CFA9A",
"C. c #5DFA9A",
"Z. c #5CFB9A",
"A. c #5EFA9A",
"S. c #5EFA9B",
"D. c #58FC98",
"F. c #59FC98",
"G. c #58FD98",
"H. c #5AFC98",
"J. c #5BFC98",
"K. c #5AFC99",
"L. c #58FE98",
"P. c #58FF98",
"I. c #58FE99",
"U. c #58FF99",
"Y. c #5CFC98",
"T. c #5CFD98",
"R. c #5DFC99",
"E. c #5EFC99",
"W. c #5FFC9A",
"Q. c #5FF99C",
"!. c #62EB9A",
"~. c #63EB9A",
"^. c #64EA9B",
"/. c #65E99C",
"(. c #62F79D",
"). c #63F69E",
"_. c #63F79E",
"`. c #66F79D",
"'. c #65F59F",
"]. c #66F59F",
"[. c #64F69E",
"{. c #6AF69F",
"}. c #6AF79F",
"|. c #60F99A",
" X c #61F99B",
".X c #61FA9B",
"XX c #60F89C",
"oX c #61F89C",
"OX c #60F99C",
"+X c #61F89D",
"@X c #64F89C",
"#X c #64F99C",
"$X c #66F89D",
"%X c #67F89D",
"&X c #64FA9C",
"*X c #68F99E",
"=X c #79EEA7",
"-X c #7AEFA8",
";X c #7FEEAA",
":X c #67F4A0",
">X c #66F5A0",
",X c #67F5A0",
"<X c #67F4A1",
"1X c #68F3A1",
"2X c #69F3A1",
"3X c #69F3A2",
"4X c #6AF2A2",
"5X c #6AF3A2",
"6X c #6CF1A3",
"7X c #6BF7A0",
"8X c #6CF5A0",
"9X c #6CF6A0",
"0X c #6DF6A0",
"qX c #6FF4A2",
"wX c #6FF6A2",
"eX c #6CF1A4",
"rX c #6DF1A4",
"tX c #72F3A3",
"yX c #70F5A2",
"uX c #71F5A2",
"iX c #71F4A3",
"pX c #71F5A3",
"aX c #72F4A3",
"sX c #73F4A3",
"dX c #72F5A3",
"fX c #75F2A5",
"gX c #75F3A5",
"hX c #76F4A5",
"jX c #78F1A7",
"kX c #79F1A7",
"lX c #7AF0A7",
"zX c #78F3A6",
"xX c #79F2A7",
"cX c #7AF1A8",
"vX c #7BF2A8",
"bX c #7CF0A9",
"nX c #AD9C9C",
"mX c gray71",
"MX c #D6DEDE",
"NX c white",
/* pixels */
"..W W W B W W W W W /.W W W 0 W W W W W W W W N W W W W W !.R W W 0 W W W W W W W W ~.W W W W W E V W W 0 W W W W W W W W ^. .W ",
"P.8.t.(.C.V.8.8.8.5X_.[.,.t F a 8.8.8.8.8.8.[.a.oX8.8.8.oX].(.F.5 ] 9 8.8.8.8.8.8.+XXX(.8.8.8.c.XX>XXXa _ i 5.8.8.8.8.8.c.,XN.V.",
"P.8.8.c.d.8.8.8.8.H.0.g.8.X.5.3.8.a.9.8.8.8.x.8.s.8.8.8.u.a.F.8.X.8.%.8.8.t.8.8.8.F.9.s.8.8.8.8.F.F.0.#.8.:.8.8.u.8.8.8.w.a.u.8.",
"P.8.8.8.8.8.8.8.8.8.8.8.8.8.8.8.C.2XC.k.8.8.8.8.8.8.8.8.8.8.8.8.8.8.8.c.p.'.k.8.8.8.8.8.8.8.8.8.8.8.8.8.8.8.u.F.:Xv.8.8.8.8.8.8.",
"P.8.8.8.8.8.8.8.8.8.8.8.8.8.8.8.a.F.l.8.8.8.8.8.8.8.8.8.8.8.8.8.8.8.8.8.u.z.w.8.8.8.8.8.8.8.8.8.8.8.8.8.8.8.8.u.a.F.8.8.8.8.8.8.",
"P.8.8.8.8.8.8.8.8.8.8.8.8.8.8.8.8.8.8.8.8.8.8.8.8.8.8.8.8.8.8.8.8.8.8.8.8.8.8.8.8.8.8.8.8.8.8.8.8.8.8.8.8.8.8.8.8.8.8.8.8.8.8.8.",
"P.8.8.8.8.8.8.8.8.8.8.8.8.8.8.8.8.8.8.8.8.8.8.8.8.8.8.8.8.8.8.8.8.8.8.8.8.8.8.8.8.8.8.8.8.8.8.8.8.8.8.8.8.8.8.8.8.8.8.8.8.8.8.8.",
"P.8.8.8.8.8.8.8.8.8.8.8.8.8.8.8.( = ] ( 8.8.8.8.8.8.8.8.8.8.8.8.8.8.8.( } w [ 8.8.8.8.8.8.8.8.8.8.8.8.8.8.8.;.{ 2 | 8.8.8.8.8.8.",
"P.8.8.8.8.8.8.8.8.8.8.8.8.8.8.8.o.) g 8.8.8.8.8.8.8.8.8.8.8.8.8.8.8.8.8.#.K 5.8.8.8.8.8.8.8.8.8.8.8.8.8.8.8.8.#.o.) 8.8.8.8.8.8.",
"P.8.8.8.8.8.8.8.8.8.8.8.8.8.8.B.<X>XF.8.8.8.8.8.8.8.8.8.8.8.8.8.8.8.a.XXS.H.8.8.8.8.8.8.8.8.8.8.8.8.8.8.8.8.[.S.H.8.8.8.8.8.8.8.",
"G.2.n ' 8.8.8.8.8.8.8.8.8.8.8.g.B.'.g.8.%.n o.8.8.8.8.8.8.8.8.8.8.8.e.B.p.XX8.%.- o.6.8.8.8.8.8.8.8.8.8.8.8.XXs.).8.%.8 | #.8.8.",
"G.< ' L 8.8.8.{ / @.;.8.8.8.8.8.8.8.8.8.> &.v 8.8.8.5.+.U ;.8.8.8.8.8.8.8.8.8.A P n 6.8.8.8.:._ 3.8.8.8.8.8.8.8.8.8.' h ~ $.8.8.",
"P.8.8.8.8.8.8.{ T v { 8.8.8.8.8.8.8.8.8.8.8.8.8.8.8.5.M T S 8.8.8.8.8.8.8.8.8.8.8.8.8.8.8.8.p :.j 8.8.8.8.8.8.8.8.8.8.8.8.8.8.8.",
"P.8.8.E.wXT.r.8.8.8.8.8.8.8.8.8.8.8.8.8.8.8.W.iX XY.8.8.8.8.8.8.8.8.8.8.8.8.8.8.8.n.$X7Xh.8.8.8.8.8.8.8.8.8.8.8.8.8.8.8.d.J.hXh.",
"P.8.8.vXaX;Xf.8.8.8.8.8.8.8.8.8.8.8.8.8.8.8.gXkX=X{.8.8.8.8.8.X 8.8.8.8.8.8.8.8.8.qX9XjX`.8.8.8.8.8.8.8.8.8.8.8.8.8.8.8.n.fXgXsX",
"P.8.8.e.r.d.8.8.8.8.8.8.8.8.8.8.8.8.8.8.8.8.9.e.d.8.8.8.8.8.8.8.    X 8.8.8.8.8.8.8.q.d.8.8.8.8.8.8.8.8.8.8.8.8.8.8.8.8.8.e.9.e.",
"P.8.8.8.8.8.8.8.8.8.8.8.8.8.8.8.8.8.8.8.8.8.8.8.8.8.8.8.8.8.8.8.. o o X 8.8.8.8.8.8.8.8.8.8.8.8.8.8.8.8.8.8.8.8.8.8.8.8.8.8.8.8.",
"P.8.8.8.a.8.8.8.8.8.B.8.8.8.' 8.8.8.8.8.8.8.8.a.8.8.8.8.8.C.w.8.. o o X 8.8.8.8.8.8.C.8.8.8.8.8.w.l.8.8.{ 8.8.8.8.8.8.8.8.A.w.8.",
"P.8.u.p.C.m.8.8.8.(.6XA.<.( j j 8.8.8.8.8.8.l.b.B.8.8.8.C.1Xc.  . o o X 8.8.8.8.8.F.1XXX8.8.8.V.F.[.XXJ v z 5.8.8.8.8.8.F.5Xb.A.",
"P.8.8.v.u.8.8.8.8.c.w.F.8.I 3.:.8.l.0.8.8.8.c.8.u.8.8.8.a.g.X o X X X   0.g.8.8.8.l.9.u.8.8.8.8.l.c.w.' 8.@.8.8.l.8.8.8.w.g.u.8.",
"P.8.8.8.8.8.8.8.8.8.8.8.8.8.8.8.XX2XM.v.8.8.8.8.8.8.      o X X X X X   g.].z.8.8.8.8.8.8.8.8.8.8.8.8.8.8.8.a.V.:XN.8.8.8.8.8.8.",
"P.8.8.8.8.8.8.8.8.8.8.8.8.8.8.8.s.u.a.8.8.8.8.8.X X o o o o o X   . 8.8.w.g.0.8.8.8.8.8.8.8.8.8.8.8.8.8.8.8.8.w.s.u.8.8.8.8.8.8.",
"P.8.8.8.8.8.8.8.8.8.8.8.8.8.8.8.8.8.8.8.8.8.X X NXNXo o o o o o o o   8.8.8.8.8.8.8.8.8.8.8.8.8.8.8.8.8.8.8.8.8.8.8.8.8.8.8.8.8.",
"P.8.8.8.8.8.8.8.8.8.8.8.8.8.8.8.8.8.8.8.8.X NXNXmXo o o o o o o o o o   8.8.8.8.8.8.8.8.8.8.8.8.8.8.8.8.8.8.8.8.8.8.8.8.8.8.8.8.",
"P.8.8.8.8.8.8.8.8.8.8.8.8.8.8.8.Q * _ ~ X MXNXMXo X o o o o o o o o o X   6 _ 8.8.8.8.8.8.8.8.8.8.8.8.8.8.8.{ ~ $ _ 8.8.8.8.8.8.",
"P.8.8.8.8.8.8.8.8.8.8.8.8.8.8.8.o.) f X MXMXo X X X X o o o o o o X X X   K 3.8.8.8.8.8.8.8.8.8.8.8.8.8.8.8.8.O.o.) 8.8.8.8.8.8.",
"P.8.8.8.8.8.8.8.8.8.8.8.8.8.8.i.B.XXw.o MXMXMXo X X X X X X X X X X X X X   8.8.8.8.8.8.8.8.8.8.8.8.8.8.8.8.g.x.e.8.8.8.8.8.8.8.",
"L.5.F =.8.8.8.8.8.8.8.8.8.8.8.F.B._.o MX  mXMXMXMXX X X X X X X X X X X X   8.5.q ;.8.8.8.8.8.8.8.8.8.8.8.8.XXs.oX8.3.e -.:.8.8.",
"G.< ^ x 8.8.8.$.{ %.3.8.8.8.8.8.8.8.o   MX  MXMXMXo X X X X X X X X X X X   8.l l g 6.8.8.8.3.o.5.8.8.8.8.8.8.8.8.8./ r T +.8.8.",
"P.8.8.8.8.8.8.! H C ^ 8.8.8.8.8.O O MX  MX  MXMXMXMXX X X X X X X X X X X   8.8.8.8.8.8.8.8.q $.< 8.8.8.8.8.8.8.8.8.8.8.8.8.8.8.",
"P.8.8.8.&X8.8.8.8.8.8.8.8.8.X X # # MX  X   MXMXMXMXX X X X X X X X X X X . 8.8.8.8.R..X8.8.8.8.8.8.8.8.8.8.8.8.8.8.8.8.8.8.*X8.",
"P.8.8.gXyX-Xe.8.8.8.8.8.8.    o # # + MXX MXMXMXMXo X X X X X X X X X X X X . 8.8.$X}.lX|.8.8.8.8.8.8.8.8.8.8.8.8.8.8.8.h.qXdXuX",
"P.8.8.w.7.e.8.8.8.8.8.8.8.8.8.8.O   + MXMXMXMXMXMXX X X X X X X X X X X X X X . 8.8.9.e.8.8.8.8.8.8.8.8.8.8.8.8.8.8.8.8.8.0.9.w.",
"P.8.8.8.8.8.8.8.8.8.8.8.8.8.8.8.8.8.X MXMXMXMXMXX X X X X X X X X X X X X X X X . 8.8.8.8.8.8.8.8.8.8.8.8.8.8.8.8.8.8.8.8.8.8.8.",
"P.8.8.8.s.8.8.8.8.8.H.8.8.8.&.8.8.8.  MXMXMXmXX X X X X X X X X X X X X     . . 8.8.F.8.8.8.8.8.0.i.8.8.&.8.8.8.8.8.8.8.8.F.0.8.",
"P.8.a.m.B.oX8.8.8.3XeX_.1.Q l , 8.. X X X X X X X X X X X X X X X X X . @ @ . 8.8.      8.X X X v.:X[.F n s 5.8.8.8.8.8.c.6XN.oX",
"P.8.8.c.d.8.8.8.8.H.w.F.8.` 5.3.. X X .   X X   X X X X   X X X     X . @ @ @     o o o X X mXmX. H.w.#.8.:.8.8.t.8.8.8.w.a.u.8.",
"P.8.8.8.8.8.8.8.8.8.8.8.8.8.8.8..   . @   X . nX  X X . @   X . @ @   . nXnXnX  o o o o mXNXNXmXo   8.8.8.8.u.x.1Xv.8.8.8.8.8.8.",
"P.8.8.8.8.8.8.8.8.8.8.8.8.8.8.8.H.X @ @   . nXnXnX    @ . .   . . . . nXnXnX  o o o o o NXNXNXo o   8.8.8.8.8.g.l.C.8.8.8.8.8.8.",
"P.8.8.8.8.8.8.8.8.8.8.8.8.8.8.8.8.X @ @ @ @ @ @ nXnX. . X X X X X . . . nXnX  X X o o NXNXNXmXo o   8.8.8.8.8.8.8.8.8.8.8.8.8.8.",
"P.8.8.8.8.8.8.8.8.8.8.8.8.8.8.8.8.  @ @ @ @ @ @ X X X X X X . . . X X X   nX  X X X mXNXmXo o o   8.8.8.8.8.8.8.8.8.8.8.8.8.8.8.",
"P.8.8.8.8.8.8.8.8.8.8.8.8.8.8.8.^   @ @ @ @ @ @ @ X X X X . X X X X X X   @   X X X mXmXX X o     8.8.8.8.8.=.] % { 8.8.8.8.8.8.",
"P.8.8.8.8.8.8.8.8.8.8.8.8.8.8.8.Z   @ @ @ X X X X X X X X X X X X . . .   @   X X X mXX X   . 8.8.8.8.8.8.8.@.F k b 8.8.8.8.8.8.",
"P.8.8.8.8.8.8.8.8.8.8.8.8.8.8.a.Q.XX  @ @ @ X X X X X X X X . . . X X   @ @   X X X X X   X   8.8.8.8.8.8.8.H.x.s.8.8.8.8.8.8.8.",
"L.5.S o.8.8.8.8.8.8.8.8.8.8.8.F.OX].  X X @ @ @ X X X X X X X X X X X   @ @ @ X X X     X . 8.8.8.8.8.8.8.8.+Xs.[.8.:.q | $.8.8.",
"G.h ' L 8.8.8.+./ @.:.8.8.8.8.8.8.8.8.  X X X X X X X X X X X X X     @ @ @ @ @     X . . 8.:._ 3.8.8.8.8.8.8.8.8.8._ d / $.8.8.",
"P.8.8.8.8.8.8.b c 1 L 8.8.8.8.8.8.8.8.8.    X X X X X X X X X     @ @ @ @ @ @   . . . 8.8.8.4 O.> 8.8.8.8.8.8.8.8.8.8.8.8.8.8.8.",
"P.8.8.8.%X8.8.8.8.8.8.8.8.8.8.8.8.8.8.8.8.8.      X X X X     @ @ @ @ @       8.8.8.n.#X8.8.8.8.8.8.8.8.8.8.8.8.8.8.8.8.8.8.0X8.",
"P.8.8.zXdXbXd.8.8.8.8.8.8.8.8.8.8.8.8.8.8.8.pXcXO         X X X . .     O   8.8.8.8X9XxX@X8.8.8.8.8.8.8.8.8.8.8.8.8.8.8.Y.tXhXpX",
"P.8.8.e.r.i.8.8.8.8.8.8.8.8.8.8.8.8.8.8.8.8.q.  O O O # # # + O O O + + + + O 8.8.8.r.f.8.8.8.8.8.8.8.8.8.8.8.8.8.8.8.8.8.e.q.d.",
"P.8.8.8.8.8.8.8.8.8.8.8.8.8.8.8.8.8.8.8.8.8.8.  + + O       # #   O         O 8.8.8.8.8.8.8.8.8.8.8.8.8.8.8.8.8.8.8.8.8.8.8.8.8.",
"P.8.8.8.0.8.8.8.8.8.e.8.8.8.3.8.8.8.8.8.8.8.8.w.    8.8.8.w.O     :.8.8.8.8.8.8.8.8.w.8.8.8.8.8.8.w.8.8.>.8.8.8.8.8.8.8.8.t.9.8.",
"P.8.t.p.C.C.8.8.8.+X6XC.<.o.j g 8.8.8.8.8.8.l.Z.N.8.8.8.v.2Xl.F.T j g 8.8.8.8.8.8.F.2XB.8.8.8.c.F.[.B.T z z 5.8.8.8.8.8.g.4Xb.C.",
"P.8.8.N.a.8.8.8.8.C.w.c.8.P 3.;.8.d.9.8.8.8.m.8.u.8.8.8.g.l.z.8.P 8.+.8.9.w.8.8.8.c.9.u.8.8.8.8.v.C.w.' 8.@.8.8.t.8.8.8.w.F.i.8.",
"P.8.8.8.8.8.8.8.8.8.8.8.8.8.8.8.H.rXl.F.8.8.8.8.8.8.8.8.8.8.8.8.8.8.8.H.y.>Xg.8.8.8.8.8.8.8.8.8.8.8.8.8.8.8.u.a.6Xg.8.8.8.8.8.8.",
"U.8.8.8.8.8.8.8.8.8.8.8.8.8.8.8.K.C.B.8.8.8.8.8.8.8.8.8.8.8.8.8.8.8.8.8.D.oXs.8.8.8.8.8.8.8.8.8.8.8.8.8.8.8.8.D.l.C.8.8.8.8.8.8.",
"P.8.8.8.8.8.8.8.8.8.8.8.8.8.8.8.8.8.8.8.8.8.8.8.8.8.8.8.8.8.8.8.8.8.8.8.8.8.8.8.8.8.8.8.8.8.8.8.8.8.8.8.8.8.8.8.8.8.8.8.8.8.8.8.",
"U.8.8.8.8.8.8.8.8.8.8.8.8.8.8.8.8.8.8.8.8.8.8.8.8.8.8.8.8.8.8.8.8.8.8.8.8.8.8.8.8.8.8.8.8.8.8.8.8.8.8.8.8.8.8.8.8.8.8.8.8.8.8.8.",
"P.8.8.8.8.8.8.8.8.8.8.8.8.8.8.8.*.k %.3.8.8.8.8.8.8.8.8.8.8.8.8.8.8.8.&.| v 3.8.8.8.8.8.8.8.8.8.8.8.8.8.8.8.5.3.u 3.8.8.8.8.8.8.",
"U.8.8.8.8.8.8.8.8.8.8.8.8.8.8.8.D < 7 ] 8.8.8.8.8.8.8.8.8.8.8.8.8.8.8._ Y > ^ 8.8.8.8.8.8.8.8.8.8.8.8.8.8.8.=.F k b 8.8.8.8.8.8.",
"P.8.8.8.8.8.8.8.8.8.8.8.8.8.8.e.N.XXw.8.8.8.8.8.8.8.8.8.8.8.8.8.8.8.0.t.x.w.8.8.8.8.8.8.8.8.8.8.8.8.8.8.8.8.u.x.w.8.8.8.8.8.8.8.",
"I.6.G 3.8.8.8.8.8.8.8.8.8.8.8.F.N.(.a.8.5.J 3.8.8.8.8.8.8.8.8.8.8.8.s.N.a.A.8.5.e 5.8.8.8.8.8.8.8.8.8.8.8.8.XXs.XX8.5.a -.5.8.8.",
"j.< S ; 8.8.8.8.;.3.8.8.8.8.8.8.8.8.8.8.5 U & 8.8.8.8.8.@.8.8.8.8.8.8.8.8.8.8.y : 6 3.8.8.8.8.#.8.8.8.8.8.8.8.8.8.8.S 3 m Q 8.8.",
"P.3.8.8.8.8.8.M m D / 8.8.8.8.8.8.8.8.8.4.8.6.8.8.8.;.a F n 8.8.8.8.8.8.8.8.8.5.6.5.8.8.8.8.u o.k 8.8.8.8.8.8.8.8.8.6.5.5.8.8.8."
};
