/* XPM */
static char *result[] = {
/* columns rows colors chars-per-pixel */
"64 64 238 2 ",
"   c black",
".  c #3A2129",
"X  c #524A4A",
"o  c #736363",
"O  c #9C4A21",
"+  c #D67300",
"@  c #8C7373",
"#  c #FF9429",
"$  c #4FDD90",
"%  c #50DF91",
"&  c #4FE390",
"*  c #4DE590",
"=  c #4EE590",
"-  c #4FE590",
";  c #4EE790",
":  c #4FE791",
">  c #4FE891",
",  c #4FEA91",
"<  c #4FEC91",
"1  c #4FED91",
"2  c #4FEE91",
"3  c #51E091",
"4  c #50E290",
"5  c #51E391",
"6  c #50E591",
"7  c #50E691",
"8  c #51E691",
"9  c #50E791",
"0  c #51E592",
"q  c #51E792",
"w  c #54E791",
"e  c #50E891",
"r  c #51E891",
"t  c #50E991",
"y  c #51E991",
"u  c #50EA91",
"i  c #50EB91",
"p  c #51E992",
"a  c #52E892",
"s  c #52E992",
"d  c #51EA92",
"f  c #50EB92",
"g  c #51EB92",
"h  c #52EA92",
"j  c #52EB92",
"k  c #50EC92",
"l  c #51EC92",
"z  c #50ED92",
"x  c #51ED92",
"c  c #52EC92",
"v  c #52ED92",
"b  c #52ED93",
"n  c #51EE92",
"m  c #50EF92",
"M  c #51EF92",
"N  c #52EE93",
"B  c #52EF93",
"V  c #5BEF95",
"C  c #5BEF96",
"Z  c #5FED98",
"A  c #4FF091",
"S  c #4FF192",
"D  c #50F092",
"F  c #51F092",
"G  c #50F192",
"H  c #51F192",
"J  c #51F193",
"K  c #52F093",
"L  c #52F193",
"P  c #50F292",
"I  c #51F292",
"U  c #50F392",
"Y  c #51F392",
"T  c #51F393",
"R  c #52F293",
"E  c #52F393",
"W  c #56F193",
"Q  c #57F193",
"!  c #55F292",
"~  c #50F492",
"^  c #51F492",
"/  c #51F493",
"(  c #51F593",
")  c #52F493",
"_  c #52F593",
"`  c #50F692",
"'  c #51F693",
"]  c #50F793",
"[  c #51F793",
"{  c #52F693",
"}  c #53F693",
"|  c #52F793",
" . c #54F194",
".. c #53F694",
"X. c #58F194",
"o. c #5AF397",
"O. c #50F893",
"+. c #51F893",
"@. c #51F993",
"#. c #52F893",
"$. c #52F993",
"%. c #51FA93",
"&. c #51FB93",
"*. c #52FA93",
"=. c #52FB93",
"-. c #51FC93",
";. c #52F994",
":. c #53F994",
">. c #52FA94",
",. c #52FB94",
"<. c #53FB94",
"1. c #55FA95",
"2. c #56FA95",
"3. c #57F896",
"4. c #51FD94",
"5. c #52FC94",
"6. c #53FC94",
"7. c #52FD94",
"8. c #52FE94",
"9. c #53FE94",
"0. c #52FF94",
"q. c #53FF94",
"w. c #53FE95",
"e. c #53FF95",
"r. c #54FE95",
"t. c #55FE95",
"y. c #54FF95",
"u. c #55FD96",
"i. c #57FC96",
"p. c #56FD96",
"a. c #57FD96",
"s. c #57FC97",
"d. c #57FD97",
"f. c #55FE96",
"g. c #56FE96",
"h. c #57FE96",
"j. c #58FD96",
"k. c #58FC97",
"l. c #59FD97",
"z. c #5AFC97",
"x. c #58FB98",
"c. c #59FB98",
"v. c #5AFB98",
"b. c #5BFA99",
"n. c #5AFB99",
"m. c #5BFB99",
"M. c #5CFA99",
"N. c #5CFB99",
"B. c #5EFB99",
"V. c #5DF99A",
"C. c #5FF89B",
"Z. c #5EF99B",
"A. c #5FF99B",
"S. c #5CFA9A",
"D. c #5DFA9A",
"F. c #5CFB9A",
"G. c #5EFA9A",
"H. c #5EFA9B",
"J. c #58FC98",
"K. c #59FC98",
"L. c #58FD98",
"P. c #5AFC98",
"I. c #5BFC98",
"U. c #5AFC99",
"Y. c #58FE98",
"T. c #58FF98",
"R. c #58FE99",
"E. c #58FF99",
"W. c #5CFC98",
"Q. c #5CFD98",
"!. c #5EFC99",
"~. c #5FFC9A",
"^. c #5FF99C",
"/. c #62EB9A",
"(. c #63EB9A",
"). c #64EA9B",
"_. c #65E99C",
"`. c #62F79D",
"'. c #63F69E",
"]. c #63F79E",
"[. c #66F79D",
"{. c #65F59F",
"}. c #66F59F",
"|. c #64F69E",
" X c #68F79E",
".X c #6AF69F",
"XX c #61F99B",
"oX c #60F89C",
"OX c #61F89C",
"+X c #60F99C",
"@X c #61F89D",
"#X c #66F89D",
"$X c #67F89D",
"%X c #64FA9C",
"&X c #68F89E",
"*X c #68F99E",
"=X c #79EEA7",
"-X c #78EFA7",
";X c #7AEFA8",
":X c #7FEEAA",
">X c #67F4A0",
",X c #66F5A0",
"<X c #67F5A0",
"1X c #67F4A1",
"2X c #68F3A1",
"3X c #69F3A1",
"4X c #69F3A2",
"5X c #6AF2A2",
"6X c #6AF3A2",
"7X c #6CF1A3",
"8X c #6BF7A0",
"9X c #6CF6A0",
"0X c #6DF6A0",
"qX c #6FF4A2",
"wX c #6FF6A2",
"eX c #6CF1A4",
"rX c #6DF1A4",
"tX c #72F3A3",
"yX c #70F5A2",
"uX c #71F5A2",
"iX c #71F4A3",
"pX c #71F5A3",
"aX c #72F4A3",
"sX c #73F4A3",
"dX c #72F5A3",
"fX c #75F2A5",
"gX c #75F3A5",
"hX c #76F4A5",
"jX c #78F1A7",
"kX c #79F1A7",
"lX c #78F3A6",
"zX c #7AF1A8",
"xX c #7BF2A8",
"cX c #7CF0A9",
"vX c #AD9C9C",
"bX c gray71",
"nX c #D6DEDE",
"mX c white",
/* pixels */
"o.! ! ! C ! ! ! ! ! _.! ! ! w ! ! ! ! ! ! ! ! V ! ! ! ! ! /.W ! ! w ! ! ! ! ! ! ! ! (.! ! ! ! ! Q Z ! ! w ! ! ! ! ! ! ! ! ).X.! ",
"T.0.u.`.D.S.0.0.0.6X].|.1.u H d 0.0.0.0.0.0.|.d.OX0.0.0.OX}.`.K.6 { 0 0.0.0.0.0.0.@XoX`.0.0.0.m.oX,XoXd ' a 7.0.0.0.0.0.m.<XZ.S.",
"T.0.0.m.g.0.0.0.0.P.w.k.0.O.7.5.0.d.q.0.0.0.n.0.f.0.0.0.p.d.K.0.O.0.*.0.0.u.0.0.0.K.q.f.0.0.0.0.K.K.w.%.0.,.0.0.p.0.0.0.r.d.p.0.",
"T.0.0.0.0.0.0.0.0.0.0.0.0.0.0.0.D.3XD.c.0.0.0.0.0.0.0.0.0.0.0.0.0.0.0.m.s.{.c.0.0.0.0.0.0.0.0.0.0.0.0.0.0.0.p.K.>XM.0.0.0.0.0.0.",
"T.0.0.0.0.0.0.0.0.0.0.0.0.0.0.0.d.K.v.0.0.0.0.0.0.0.0.0.0.0.0.0.0.0.0.0.p.b.r.0.0.0.0.0.0.0.0.0.0.0.0.0.0.0.0.p.d.K.0.0.0.0.0.0.",
"T.0.0.0.0.0.0.0.0.0.0.0.0.0.0.0.0.0.0.0.0.0.0.0.0.0.0.0.0.0.0.0.0.0.0.0.0.0.0.0.0.0.0.0.0.0.0.0.0.0.0.0.0.0.0.0.0.0.0.0.0.0.0.0.",
"T.0.0.0.0.0.0.0.0.0.0.0.0.0.0.0.0.0.0.0.0.0.0.0.0.0.0.0.0.0.0.0.0.0.0.0.0.0.0.0.0.0.0.0.0.0.0.0.0.0.0.0.0.0.0.0.0.0.0.0.0.0.0.0.",
"T.0.0.0.0.0.0.0.0.0.0.0.0.0.0.0._ - { _ 0.0.0.0.0.0.0.0.0.0.0.0.0.0.0._  .r } 0.0.0.0.0.0.0.0.0.0.0.0.0.0.0.>.| 3 ..0.0.0.0.0.0.",
"T.0.0.0.0.0.0.0.0.0.0.0.0.0.0.0.+.` j 0.0.0.0.0.0.0.0.0.0.0.0.0.0.0.0.0.%.P 7.0.0.0.0.0.0.0.0.0.0.0.0.0.0.0.0.%.+.` 0.0.0.0.0.0.",
"T.0.0.0.0.0.0.0.0.0.0.0.0.0.0.A.1X,XK.0.0.0.0.0.0.0.0.0.0.0.0.0.0.0.d.oXH.P.0.0.0.0.0.0.0.0.0.0.0.0.0.0.0.0.|.H.P.0.0.0.0.0.0.0.",
"L.4.M [ 0.0.0.0.0.0.0.0.0.0.0.k.A.{.k.0.*.M +.0.0.0.0.0.0.0.0.0.0.0.t.A.s.oX0.*.; +.8.0.0.0.0.0.0.0.0.0.0.0.oXf.'.0.*.9 ..%.0.0.",
"L.1 [ I 0.0.0.| ) $.>.0.0.0.0.0.0.0.0.0., =.n 0.0.0.7.#.T >.0.0.0.0.0.0.0.0.0.D U M 8.0.0.0.,.' 5.0.0.0.0.0.0.0.0.0.[ k / &.0.0.",
"T.0.0.0.0.0.0.| E n | 0.0.0.0.0.0.0.0.0.0.0.0.0.0.0.7.B E F 0.0.0.0.0.0.0.0.0.0.0.0.0.0.0.0.s ,.l 0.0.0.0.0.0.0.0.0.0.0.0.0.0.0.",
"T.0.0.!.wXQ.y.0.0.0.0.0.0.0.0.0.0.0.0.0.0.0.~.iXXXW.0.0.0.0.0.0.      X 0.0.0.0.0.B.#X8Xl.0.0.0.0.0.0.0.0.0.0.0.0.0.0.0.g.I.hXl.",
"T.0.0.xXaX:Xh.0.0.0.0.0.0.0.0.0.0.0.0.0.0.0.gXkX=X.X0.0.0.0.0.  o o X 0.0.0.0.0.0.qX9XjX[.0.0.0.0.0.0.0.0.0.0.0.0.0.0.0.B.fXgXsX",
"T.0.0.t.y.g.0.0.0.0.0.0.0.0.0.0.0.0.0.0.0.0.q.t.g.0.0.0.0.0.  o o X 0.0.0.0.0.0.0.0.e.g.0.0.0.0.0.0.0.0.0.0.0.0.0.0.0.0.0.t.q.t.",
"T.0.0.0.0.0.0.0.0.0.0.0.0.0.0.0.0.0.0.0.0.0.0.0.0.0.0.0.0.0.  X o X 0.0.0.0.0.0.0.0.0.0.0.0.0.0.0.0.0.0.0.0.0.0.0.0.0.0.0.0.0.0.",
"T.0.0.0.d.0.0.0.0.0.A.0.0.0.[ 0.0.0.0.0.0.0.0.d.0.0.0.0.0.D.  X X X   0.0.0.0.0.0.0.D.0.0.0.0.0.r.v.0.0.| 0.0.0.0.0.0.0.0.G.r.0.",
"T.0.p.s.D.V.0.0.0.`.7XG.2._ l l 0.0.0.0.0.0.v.N.A.0.0.0.D.2Xm.  X X .       0.0.0.K.2XoX0.0.0.S.K.|.oXL n c 7.0.0.0.0.0.K.6XN.G.",
"T.0.0.M.p.0.0.0.0.m.r.K.0.Y 5.,.0.v.w.0.0.0.m.0.p.0.0.0.d.k.v..   o o o o o       v.q.p.0.0.0.0.v.m.r.[ 0.$.0.0.v.0.0.0.r.k.p.0.",
"T.0.0.0.0.0.0.0.0.0.0.0.0.0.0.0.oX3XC.M.0.0.0.0.0.0.0.0.0.0.X o o o o o o o bXbXbX    0.0.0.0.0.0.0.0.0.0.0.d.S.>XZ.0.0.0.0.0.0.",
"T.0.0.0.0.0.0.0.0.0.0.0.0.0.0.0.f.p.d.0.0.0.0.0.0.0.0.0.0.X o o o o o o o mXmXmXmXmXX   0.0.0.0.0.0.0.0.0.0.0.r.f.p.0.0.0.0.0.0.",
"T.0.0.0.0.0.0.0.0.0.0.0.0.0.0.0.0.0.0.0.0.0.0.0.0.0.0.0.X o o o o o o o bXmXmXmXmXmXmXX   0.0.0.0.0.0.0.0.0.0.0.0.0.0.0.0.0.0.0.",
"T.0.0.0.0.0.0.0.0.0.0.0.0.0.0.0.0.0.0.0.0.0.0.0.0.0.0.0.X o o o o o o o mXmXmXmXmXmXmXbX  0.0.0.0.0.0.0.0.0.0.0.0.0.0.0.0.0.0.0.",
"T.0.0.0.0.0.0.0.0.0.0.0.0.0.0.0.~ * ' / 0.0.0.0.0.0.0.X o o o o o o o o bXmXmXmXmXmXmXmXX   0.0.0.0.0.0.0.0.| / $ ' 0.0.0.0.0.0.",
"T.0.0.0.0.0.0.0.0.0.0.0.0.0.0.0.+.` h 0.0.0.0.0.0.0.0.X o o o o bXbXbXo o bXmXmXmXmXmXmXX   0.0.0.0.0.0.0.0.0.@.+.` 0.0.0.0.0.0.",
"T.0.0.0.0.0.0.0.0.0.0.0.0.0.0.a.A.oXr.0.0.0.0.0.0.0.X o o o o mXmXmXmXmXmXbXbXmXmXmXmXmXbXbX  0.0.0.0.0.0.0.k.n.t.0.0.0.0.0.0.0.",
"Y.7.H ;.0.0.0.0.0.0.0.0.0.0.0.K.A.].d.0.5.K >.0.0.0.X o o o bXmXmXmXmX      mXmXmXmXmXmXmX    0.0.0.0.0.0.0.oXf.OX0.5.t :.,.0.0.",
"L.1 ( v 0.0.0.&.| *.5.0.0.0.0.0.0.0.0.0.. . . 0.0.0.X o o o mXmXmXmXX   mX  X mXmXmXmXmX  mX  +.7.0.0.0.0.0.0.0.0.0.) y E #.0.0.",
"T.0.0.0.0.0.0.^ K A ( 0.0.0.0.0.0.0.0.. mXmXmX. 0.0.  X o o mXmXmXmXX   mX  X mXmXmXO O   nX  &.1 0.0.0.0.0.0.0.0.0.0.0.0.0.0.0.",
"T.0.0.0.%X0.0.0.0.0.0.0.0.0.0.0.0.0.0.. mXmXmXX   .   X X X nXmXmXmXX   bX  X mXbXO # # O X . 0.0.0.0.0.0.0.0.0.0.0.0.0.0.0.*X0.",
"T.0.0.gXyX;Xt.0.0.0.0.0.0.0.0.0.0.      mXmXmXbXo o   X X X bXnXnXnXnX      mXO # # # # # . . 0.0.0.0.0.0.0.0.0.0.0.0.0.l.qXdXuX",
"T.0.0.r.9.t.0.0.0.0.0.0.0.0.0.0.  o o o o mXmXmXo   X X X X X bXnXnXnXnXnXnXnXX X . # # # O     0.0.0.0.0.0.0.0.0.0.0.0.0.w.q.r.",
"T.0.0.0.0.0.0.0.0.0.0.0.0.0.0.0.  o o o o bXmXmX    X X X X X X bXnXnXnXnXnXnX. O O .   O o o o   0.0.0.0.0.0.0.0.0.0.0.0.0.0.0.",
"T.0.0.0.f.0.0.0.0.0.P.0.0.0.=.0.0.  o o o o mX    X X X X X X X X X X bXnXnXbXbX. . bXbX      o o   0.0.=.0.0.0.0.0.0.0.0.K.w.0.",
"T.0.d.V.A.OX0.0.0.4XeX].3.~ x < 0.0.  X o o bX      vXvXvXX X X X X X X X X X X X X X . X X X       |.H M f 7.0.0.0.0.0.m.7XZ.OX",
"T.0.0.m.g.0.0.0.0.P.r.K.0.] 7.5.0.p.q.    . X   vXvXvXvXvXvX  X X X   X X X X   X X X @   X . X K.P.r.%.0.,.0.0.u.0.0.0.r.d.p.0.",
"T.0.0.0.0.0.0.0.0.0.0.0.0.0.0.0.A.5XV.  X X   @ @ vXvXvXvXvXvX  X   vX  X X . nX  X   vXvX  X @ X 0.0.0.0.0.p.n.2XM.0.0.0.0.0.0.",
"T.0.0.0.0.0.0.0.0.0.0.0.0.0.0.0.P.D.A.    X   o @ @ vXvXvXvXvXX   vXvXvX  . mXmXnX    vXvXvXX @ X 0.0.0.0.0.0.k.v.D.0.0.0.0.0.0.",
"T.0.0.0.0.0.0.0.0.0.0.0.0.0.0.0.0.0.0.  X   . X X @ @ @ vXvXvXX vXvXvXmXmXmXmXmXmXmXnXvXvXvXX @ X 0.0.0.0.0.0.0.0.0.0.0.0.0.0.0.",
"T.0.0.0.0.0.0.0.0.0.0.0.0.0.0.0.0.0.0.0.X X X X @ @ @ @ @ @ @ X vXvXvXmXmXmXmXmXmXmXmXvXvXvXX @ X 0.0.0.0.0.0.0.0.0.0.0.0.0.0.0.",
"T.0.0.0.0.0.0.0.0.0.0.0.0.0.0.0.( = { {   X X X X X @ @ @ @ . @ vXvXvXnXmXmXmXmXmXmXnXvXvXvXX X 0.0.0.0.0.0.;.{ % | 0.0.0.0.0.0.",
"T.0.0.0.0.0.0.0.0.0.0.0.0.0.0.0.S 1 q ' 0.X X X X X @ X X @ . @ @ @ vXvXmXmXmXmXmXnXvXvX@ X @ X 0.0.0.0.0.0.$.H z m 0.0.0.0.0.0.",
"T.0.0.0.0.0.0.0.0.0.0.0.0.0.0.d.^.oXt.0.0.  X X X X X X X . @ @ @ vX@ vX@ nXmXmXvXvX@ @ @   X 0.0.0.0.0.0.0.P.n.f.0.0.0.0.0.0.0.",
"Y.7.F +.0.0.0.0.0.0.0.0.0.0.0.K.+X}.k.0.,.F     X X X X   @ @ @ @ @ vX@ vX@ @ @ @ @ @ @   X 0.0.0.0.0.0.0.0.@Xf.|.0.,.e ..&.0.0.",
"L.k [ I 0.0.0.#.) $.,.0.0.0.0.0.0.0.0.0.t =.x 0.        @ @ @ @ @ @ @ @ @ @ @ @ @ @     0.0.,.' 5.0.0.0.0.0.0.0.0.0.' g ) &.0.0.",
"T.0.0.0.0.0.0.m b 2 I 0.0.0.0.0.0.0.0.0.0.0.0.0.0.0.&.>     . @ @ @ @ @ @ @ @ X     0.0.0.0.5 @., 0.0.0.0.0.0.0.0.0.0.0.0.0.0.0.",
"T.0.0.0.$X0.0.0.0.0.0.0.0.0.0.0.0.0.0.0.0.0.0. Xz.0.0.O + + +         . .       + O O O 0.0.0.0.0.0.0.0.0.0.0.0.0.0.0.0.0.0.0X0.",
"T.0.0.lXdXcXg.0.0.0.0.0.0.0.0.0.0.0.0.0.0.0.pXzX-X&X0.    # O # . +   0.O   + + O # O #   0.0.0.0.0.0.0.0.0.0.0.0.0.0.0.W.tXhXpX",
"T.0.0.t.y.a.0.0.0.0.0.0.0.0.0.0.0.0.0.0.0.0.e.g.j.0.0.0.0.  + O # O # O 0.0.      O #     0.0.0.0.0.0.0.0.0.0.0.0.0.0.0.0.t.e.g.",
"T.0.0.0.0.0.0.0.0.0.0.0.0.0.0.0.0.0.0.0.0.0.0.0.0.0.0.0.0.  #   # .     0.0.0.0.0.      0.0.0.0.0.0.0.0.0.0.0.0.0.0.0.0.0.0.0.0.",
"T.0.0.0.w.0.0.0.0.0.t.0.0.0.5.0.0.0.0.0.0.0.0.r.0.0.0.0.0.r.    .   0.0.0.0.0.0.0.0.r.0.0.0.0.0.0.r.0.0.<.0.0.0.0.0.0.0.0.u.q.0.",
"T.0.u.s.D.D.0.0.0.@X7XD.2.+.l j 0.0.0.0.0.0.v.F.Z.0.0.0.M.3Xv.K.E l j 0.0.0.0.0.0.K.3XA.0.0.0.m.K.|.A.E c c 7.0.0.0.0.0.k.5XN.D.",
"T.0.0.Z.d.0.0.0.0.D.r.m.0.U 5.>.0.g.q.0.0.0.V.0.p.0.0.0.k.v.b.0.U 0.#.0.q.r.0.0.0.m.q.p.0.0.0.0.M.D.r.[ 0.$.0.0.u.0.0.0.r.K.a.0.",
"T.0.0.0.0.0.0.0.0.0.0.0.0.0.0.0.P.rXv.K.0.0.0.0.0.0.0.0.0.0.0.0.0.0.0.P.i.,Xk.0.0.0.0.0.0.0.0.0.0.0.0.0.0.0.p.d.7Xk.0.0.0.0.0.0.",
"E.0.0.0.0.0.0.0.0.0.0.0.0.0.0.0.U.D.A.0.0.0.0.0.0.0.0.0.0.0.0.0.0.0.0.0.J.OXf.0.0.0.0.0.0.0.0.0.0.0.0.0.0.0.0.J.v.D.0.0.0.0.0.0.",
"T.0.0.0.0.0.0.0.0.0.0.0.0.0.0.0.0.0.0.0.0.0.0.0.0.0.0.0.0.0.0.0.0.0.0.0.0.0.0.0.0.0.0.0.0.0.0.0.0.0.0.0.0.0.0.0.0.0.0.0.0.0.0.0.",
"E.0.0.0.0.0.0.0.0.0.0.0.0.0.0.0.0.0.0.0.0.0.0.0.0.0.0.0.0.0.0.0.0.0.0.0.0.0.0.0.0.0.0.0.0.0.0.0.0.0.0.0.0.0.0.0.0.0.0.0.0.0.0.0.",
"T.0.0.0.0.0.0.0.0.0.0.0.0.0.0.0.-.z *.5.0.0.0.0.0.0.0.0.0.0.0.0.0.0.0.=...n 5.0.0.0.0.0.0.0.0.0.0.0.0.0.0.0.7.5.p 5.0.0.0.0.0.0.",
"E.0.0.0.0.0.0.0.0.0.0.0.0.0.0.0.G 1 8 { 0.0.0.0.0.0.0.0.0.0.0.0.0.0.0.' R , ( 0.0.0.0.0.0.0.0.0.0.0.0.0.0.0.;.H z m 0.0.0.0.0.0.",
"T.0.0.0.0.0.0.0.0.0.0.0.0.0.0.t.Z.oXr.0.0.0.0.0.0.0.0.0.0.0.0.0.0.0.w.u.n.r.0.0.0.0.0.0.0.0.0.0.0.0.0.0.0.0.p.n.r.0.0.0.0.0.0.0.",
"R.8.J 5.0.0.0.0.0.0.0.0.0.0.0.K.Z.`.d.0.7.L 5.0.0.0.0.0.0.0.0.0.0.0.f.Z.d.G.0.7.t 7.0.0.0.0.0.0.0.0.0.0.0.0.oXf.oX0.7.d :.7.0.0.",
"x.1 F : 0.0.0.0.>.5.0.0.0.0.0.0.0.0.0.0.6 T & 0.0.0.0.0.$.0.0.0.0.0.0.0.0.0.0.i > 7 5.0.0.0.0.%.0.0.0.0.0.0.0.0.0.0.F 4 N ~ 0.0.",
"T.5.0.0.0.0.0.B N G ) 0.0.0.0.0.0.0.0.0.6.0.8.0.0.0.>.d H M 0.0.0.0.0.0.0.0.0.7.8.7.0.0.0.0.p +.z 0.0.0.0.0.0.0.0.0.8.7.7.0.0.0."
};
