/* XPM */
static char *result[] = {
/* columns rows colors chars-per-pixel */
"64 64 243 2 ",
"   c black",
".  c #3A2129",
"X  c #524A4A",
"o  c #736363",
"O  c #9C4A21",
"+  c #D67300",
"@  c #8C7373",
"#  c #FF9429",
"$  c #4FDD90",
"%  c #50DF91",
"&  c #4FE390",
"*  c #4DE590",
"=  c #4FE590",
"-  c #4EE790",
";  c #4FE791",
":  c #4FE891",
">  c #4FEA91",
",  c #4FEC91",
"<  c #4FED91",
"1  c #4FEE91",
"2  c #51E091",
"3  c #50E290",
"4  c #51E391",
"5  c #50E591",
"6  c #50E691",
"7  c #51E691",
"8  c #50E791",
"9  c #51E592",
"0  c #54E791",
"q  c #50E891",
"w  c #51E891",
"e  c #50E991",
"r  c #51E991",
"t  c #50EA91",
"y  c #50EB91",
"u  c #51E992",
"i  c #52E892",
"p  c #52E992",
"a  c #51EA92",
"s  c #50EB92",
"d  c #51EB92",
"f  c #52EA92",
"g  c #52EB92",
"h  c #50EC92",
"j  c #51EC92",
"k  c #50ED92",
"l  c #51ED92",
"z  c #52EC92",
"x  c #52ED92",
"c  c #52ED93",
"v  c #51EE92",
"b  c #50EF92",
"n  c #51EF92",
"m  c #52EE93",
"M  c #52EF93",
"N  c #5BEF95",
"B  c #5BEF96",
"V  c #5FED98",
"C  c #4FF091",
"Z  c #50F092",
"A  c #51F092",
"S  c #50F192",
"D  c #51F192",
"F  c #51F193",
"G  c #52F093",
"H  c #52F193",
"J  c #50F292",
"K  c #51F292",
"L  c #50F392",
"P  c #51F392",
"I  c #51F393",
"U  c #52F293",
"Y  c #52F393",
"T  c #56F193",
"R  c #57F193",
"E  c #55F292",
"W  c #50F492",
"Q  c #51F492",
"!  c #51F493",
"~  c #51F593",
"^  c #52F493",
"/  c #52F593",
"(  c #50F692",
")  c #51F693",
"_  c #50F793",
"`  c #51F793",
"'  c #52F693",
"]  c #53F693",
"[  c #52F793",
"{  c #54F194",
"}  c #53F694",
"|  c #58F194",
" . c #5AF397",
".. c #50F893",
"X. c #51F893",
"o. c #51F993",
"O. c #52F893",
"+. c #52F993",
"@. c #51FA93",
"#. c #51FB93",
"$. c #52FA93",
"%. c #52FB93",
"&. c #51FC93",
"*. c #52F994",
"=. c #53F994",
"-. c #52FA94",
";. c #52FB94",
":. c #53FB94",
">. c #55FA95",
",. c #56FA95",
"<. c #57F896",
"1. c #51FD94",
"2. c #52FC94",
"3. c #53FC94",
"4. c #52FD94",
"5. c #52FE94",
"6. c #53FE94",
"7. c #52FF94",
"8. c #53FF94",
"9. c #53FE95",
"0. c #53FF95",
"q. c #54FE95",
"w. c #55FE95",
"e. c #54FF95",
"r. c #55FD96",
"t. c #57FC96",
"y. c #56FD96",
"u. c #57FD96",
"i. c #57FC97",
"p. c #57FD97",
"a. c #55FE96",
"s. c #56FE96",
"d. c #57FE96",
"f. c #58FD96",
"g. c #58FC97",
"h. c #59FD97",
"j. c #5AFC97",
"k. c #58FB98",
"l. c #59FB98",
"z. c #5AFB98",
"x. c #5BFA99",
"c. c #5AFB99",
"v. c #5BFB99",
"b. c #5CFA99",
"n. c #5CFB99",
"m. c #5EFB99",
"M. c #5DF99A",
"N. c #5FF89B",
"B. c #5EF99B",
"V. c #5FF99B",
"C. c #5CFA9A",
"Z. c #5DFA9A",
"A. c #5CFB9A",
"S. c #5EFA9A",
"D. c #5EFA9B",
"F. c #58FC98",
"G. c #59FC98",
"H. c #58FD98",
"J. c #5AFC98",
"K. c #5BFC98",
"L. c #5AFC99",
"P. c #58FE98",
"I. c #58FF98",
"U. c #58FE99",
"Y. c #58FF99",
"T. c #5CFC98",
"R. c #5CFD98",
"E. c #5EFC99",
"W. c #5FFC9A",
"Q. c #5FF99C",
"!. c #62EB9A",
"~. c #63EB9A",
"^. c #64EA9B",
"/. c #65E99C",
"(. c #62F79D",
"). c #63F69E",
"_. c #63F79E",
"`. c #66F79D",
"'. c #65F59F",
"]. c #66F59F",
"[. c #64F69E",
"{. c #68F79E",
"}. c #6AF69F",
"|. c #61F99B",
" X c #60F89C",
".X c #61F89C",
"XX c #60F99C",
"oX c #61F89D",
"OX c #64F89C",
"+X c #64F99C",
"@X c #65F99D",
"#X c #66F89D",
"$X c #67F89D",
"%X c #64FA9C",
"&X c #68F89E",
"*X c #68F99E",
"=X c #7AEDA7",
"-X c #79EEA7",
";X c #78EFA7",
":X c #7AEFA8",
">X c #7FEEAA",
",X c #67F4A0",
"<X c #66F5A0",
"1X c #67F5A0",
"2X c #67F4A1",
"3X c #68F3A1",
"4X c #69F3A1",
"5X c #69F3A2",
"6X c #6AF2A2",
"7X c #6AF3A2",
"8X c #6CF1A3",
"9X c #6BF7A0",
"0X c #6CF5A0",
"qX c #6CF6A0",
"wX c #6DF6A0",
"eX c #6DF6A1",
"rX c #6FF4A2",
"tX c #6FF6A2",
"yX c #6CF1A4",
"uX c #6DF1A4",
"iX c #72F3A3",
"pX c #70F5A2",
"aX c #71F5A2",
"sX c #71F4A3",
"dX c #71F5A3",
"fX c #72F4A3",
"gX c #73F4A3",
"hX c #72F5A3",
"jX c #75F2A5",
"kX c #75F3A5",
"lX c #76F4A5",
"zX c #78F1A7",
"xX c #79F1A7",
"cX c #7AF0A7",
"vX c #78F3A6",
"bX c #79F2A7",
"nX c #7AF1A8",
"mX c #7BF2A8",
"MX c #7CF0A9",
"NX c #AD9C9C",
"BX c gray71",
"VX c #D6DEDE",
"CX c white",
/* pixels */
" .E E E B E E E E E /.E E E 0 E E E E E E E E N E E E E E !.T E E 0 E E E E E E E E ~.E E E E E R V E E 0 E E E E E E E E ^.| E ",
"I.7.r.(.Z.C.7.7.7.7X_.[.>.t D a 7.7.7.7.7.7.[.p..X7.7.7..X].(.G.5 ' 9 7.7.7.7.7.7.oX X(.7.7.7.v. X<X Xa ) i 4.7.7.7.7.7.v.1XB.C.",
"I.7.7.v.s.7.7.7.7.J.9.g.7...4.2.7.p.8.7.7.7.c.7.a.7.7.7.y.p.G.7...7.$.7.7.r.7.7.7.G.8.a.7.7.7.7.G.G.9.@.7.;.7.7.y.7.7.7.q.p.y.7.",
"I.7.7.7.7.7.7.7.7.7.7.7.7.7.7.7.Z.4XZ.l.7.7.7.7.7.7.7.7.7.7.7.7.7.7.7.v.i.'.l.7.7.7.7.7.7.7.7.7.7.7.7.7.7.7.y.G.,Xb.7.7.7.7.7.7.",
"I.7.7.7.7.7.7.7.7.7.7.7.7.7.7.7.p.G.z.7.7.7.7.7.7.7.7.7.7.7.7.7.7.7.7.7.y.x.q.7.7.7.7.7.7.7.7.7.7.7.7.7.7.7.7.y.p.G.7.7.7.7.7.7.",
"I.7.7.7.7.7.7.7.7.7.7.7.7.7.7.7.7.7.7.7.7.7.7.7.7.7.7.7.7.7.7.7.7.7.7.7.7.7.7.7.7.7.7.7.7.7.7.7.7.7.7.7.7.7.7.7.7.7.7.7.7.7.7.7.",
"I.7.7.7.7.7.7.7.7.7.7.7.7.7.7.7.7.7.7.7.7.7.7.7.7.7.7.7.7.7.7.7.7.7.7.7.7.7.7.7.7.7.7.7.7.7.7.7.7.7.7.7.7.7.7.7.7.7.7.7.7.7.7.7.",
"I.7.7.7.7.7.7.7.7.7.7.7.7.7.7.7./ = ' / 7.7.7.7.7.7.7.7.7.7.7.7.7.7.7./ { w ] 7.7.7.7.7.7.7.7.7.7.7.7.7.7.7.-.[ 2 } 7.7.7.7.7.7.",
"I.7.7.7.7.7.7.7.7.7.7.7.7.7.7.7.X.( g 7.7.7.7.7.7.7.7.7.7.7.7.7.7.7.7.7.@.J 4.7.7.7.7.7.7.7.7.7.7.7.7.7.7.7.7.@.X.( 7.7.7.7.7.7.",
"I.7.7.7.7.7.7.7.7.7.7.7.7.7.7.V.2X<XG.7.7.7.7.7.7.7.7.7.7.7.7.7.7.7.p. XD.J.7.7.7.7.7.7.7.7.7.7.7.7.7.7.7.7.[.D.J.7.7.7.7.7.7.7.",
"H.1.n ` 7.7.7.7.7.7.7.7.7.7.7.g.V.'.g.7.$.n X.7.7.7.7.7.7.7.7.7.7.7.w.V.i. X7.$.- X.5.7.7.7.7.7.7.7.7.7.7.7. Xa.).7.$.8 } @.7.7.",
"H.< ` K 7.7.7.[ ^ +.-.7.7.7.7.7.7.7.7.7.> %.v 7.7.7.4.O.I -.7.7.7.7.7.7.7.7.7.Z L n 5.7.7.7.;.) 2.7.7.7.7.7.7.7.7.7.` h ! #.7.7.",
"I.7.7.7.7.7.7.[ Y v [ 7.7.7.7.7.7.7.7.7.7.7.7.7.7.7.4.M Y A 7.7.7.7.7.7.7.7.7.7.7.7.7.7.7.7.p ;.j 7.7.7.7.7.7.7.7.7.7.7.7.7.7.7.",
"I.7.7.E.tXR.e.7.7.7.7.7.7.7.7.7.7.7.7.7.7.7.W.sX|.T.7.7.7.7.7.7.7.7.7.7.7.7.7.7.7.m.#X9Xh.7.7.7.7.7.7.7.7.7.7.7.7.7.7.7.s.K.lXh.",
"I.7.7.mXfX>Xd.7.7.7.7.7.7.7.7.7.7.7.7.7.7.7.kXxX-X}.7.7.7.7.7.7.7.7.7.7.7.7.7.7.7.rXqXzX`.7.7.7.7.7.7.7.7.7.7.7.7.7.7.7.m.jXkXgX",
"I.7.7.w.e.s.7.7.7.7.7.7.7.7.7.7.7.7.7.7.7.7.8.w.s.7.7.7.7.7.    X 7.7.7.7.7.7.7.7.7.0.s.7.7.7.7.7.7.7.7.7.7.7.7.7.7.7.7.7.w.8.w.",
"I.7.7.7.7.7.7.7.7.7.7.7.7.7.7.7.7.7.7.7.7.7.7.7.7.7.7.7.7.X o . . 7.7.7.7.7.7.7.7.7.7.7.7.7.7.7.7.7.7.7.7.7.7.7.7.7.7.7.7.7.7.7.",
"I.7.7.7.p.7.7.7.7.7.V.7.7.7.` 7.7.7.7.7.7.7.7.p.7.7.7.7.X o o . 7.` 7.7.7.7.7.7.7.7.Z.7.7.7.7.7.q.z.7.7.[ 7.7.7.7.7.7.7.7.S.q.7.",
"I.7.y.i.Z.M.7.7.7.(.8XS.,./ j j 7.7.7.7.7.7.z.n.V.7.7.X X o o . G v g 7.7.7.7.7.7.G.3X X7.7.7.C.G.[. XH v z 4.7.7.7.7.7.G.7Xn.S.",
"I.7.7.b.y.7.7.7.7.v.q.G.7.P 2.;.7.z.9.7.7.7.v.7.y.7.7.7.X X X X   X X 7.9.g.7.7.7.z.8.y.7.7.7.7.z.v.q.` 7.+.7.7.z.7.7.7.q.g.y.7.",
"I.7.7.7.7.7.7.7.7.7.7.7.7.7.7.7. X4XN.b.7.7.7.7.7.7.7.7.  X X X X X o       x.7.7.7.7.7.7.7.7.7.7.7.7.7.7.7.p.C.,XB.7.7.7.7.7.7.",
"I.7.7.7.7.7.7.7.7.7.7.7.7.7.7.7.a.y.p.7.7.7.7.7.7.7.7.7.. .     o o o o o o X X 7.7.7.7.7.7.7.7.7.7.7.7.7.7.7.q.a.y.7.7.7.7.7.7.",
"I.7.7.7.7.7.7.7.7.7.7.7.7.7.7.7.7.7.7.7.7.7.7.7.7.7.7.7.7.  o o o o o o o o CXCXX X 7.7.7.7.7.7.7.7.7.7.7.7.7.7.7.7.7.7.7.7.7.7.",
"I.7.7.7.7.7.7.7.7.7.7.7.7.7.7.7.7.7.7.7.7.7.7.7.7.7.7.7.  o o o o o o o o o o BXCXCXX 7.7.7.7.7.7.7.7.7.7.7.7.7.7.7.7.7.7.7.7.7.",
"I.7.7.7.7.7.7.7.7.7.7.7.7.7.7.7.W * ) ! 7.7.7.7.7.7.7.  X o o o o o o o o o X o VXCXVXX 7.7.7.7.7.7.7.7.7.7.[ ! $ ) 7.7.7.7.7.7.",
"I.7.7.7.7.7.7.7.7.7.7.7.7.7.7.7.X.( f 7.7.7.7.7.7.7.7.  X X X o o o o o o X X X X o VXVXX 7.7.7.7.7.7.7.7.7.7.o.X.( 7.7.7.7.7.7.",
"I.7.7.7.7.7.7.7.7.7.7.7.7.7.7.u.V. Xq.7.7.7.7.7.7.7.  X X X X X X X X X X X X X o VXVXVXo 7.7.7.7.7.7.7.7.7.g.c.w.7.7.7.7.7.7.7.",
"P.4.D *.7.7.7.7.7.7.7.7.7.7.7.G.V._.p.7.2.G -.7.7.7.  X X X X X X X X X X X X VXVXVXBX  VXo O O X X   7.7.7. Xa..X7.2.e =.;.7.7.",
"H.< ~ x 7.7.7.#.[ $.2.7.7.7.7.7.7.7.7.7.> O.p 7.7.7.  X X X X X X X X X X X o VXVXVX  VX  o # # o   7.7.7.7.7.7.7.7.^ r Y O.7.7.",
"I.7.7.7.7.7.7.Q G C ~ 7.7.7.7.7.7.7.7.7.7.7.7.7.7.7.  X X X X X X X X X X X VXVXVXVX  VX  VX# O X 7.7.7.7.7.7.7.7.7.7.7.7.7.7.7.",
"I.7.7.7.%X7.7.7.7.7.7.7.7.7.7.7.7.7.7.7.7.7.7.@Xh.7.. X X X X X X X X X X X VXVXVXVX  X   VX  O 7.7.7.7.7.7.7.7.7.7.7.7.7.7.*X7.",
"I.7.7.kXpX:Xw.7.7.7.7.7.7.7.7.7.7.7.7.7.7.7.eXcX=X. X X X X X X X X X X X X o VXVXVXVXX VX+ O 7.7.7.7.7.7.7.7.7.7.7.7.7.h.rXhXaX",
"I.7.7.q.6.w.7.7.7.7.7.7.7.7.7.7.7.7.7.7.7.7.8.q.. X X X X X X X X X X X X X X VXVXVXVXVXVX+ + O 7.7.7.7.7.7.7.7.7.7.7.7.7.9.8.q.",
"I.7.7.7.7.7.7.7.7.7.7.7.7.7.7.7.7.7.7.7.7.7.7.. X X X X X X X X X X X X X X X X VXVXVXVXVXX O O O 7.7.7.7.7.7.7.7.7.7.7.7.7.7.7.",
"I.7.7.7.a.7.7.7.7.7.J.7.7.7.%.7.7.7.7.7.7.7.7.w.. .     X X X X X X X X X X X X X BXVXVXVX  7.7.9.u.7.7.%.7.7.7.7.7.7.7.7.G.9.7.",
"I.7.p.M.V..X7.7.7.5XyX_.<.W l , 7.7.7.7.7.7. Xn.[.. @ @ . X X X X X X X X X X X X X X X X X . V.b.,X[.D n s 4.7.7.7.7.7.v.8XB..X",
"I.7.7.v.s.7.7.7.7.J.q.G.7._ 4.X X X           7.  @ @ @ . X     X X X   X X X X   X X   . X X . G.J.q.@.7.;.7.7.r.7.7.7.q.p.y.7.",
"I.7.7.7.7.7.7.7.7.7.7.7.7.7.. BXBXBXCXX o o o   @ NXNXNX.   @ @ . X   @ . X X   NX. X   @ .   . 7.7.7.7.7.7.y.c.3Xb.7.7.7.7.7.7.",
"I.7.7.7.7.7.7.7.7.7.7.7.7.  o BXBXCXCXBXo o o o     NXNXNX. . . .   . . @     NXNXNX.   @ @ X 7.7.7.7.7.7.7.7.g.z.Z.7.7.7.7.7.7.",
"I.7.7.7.7.7.7.7.7.7.7.7.7.    o o BXCXCXo o X X X   NXNX. . . X X X X X . . NXNX@ @ @ @ @ @ X 7.7.7.7.7.7.7.7.7.7.7.7.7.7.7.7.7.",
"I.7.7.7.7.7.7.7.7.7.7.7.7.7.  o o o CXCXo o X X X   NX  X X X . . . X X X X X X @ @ @ @ @ @   7.7.7.7.7.7.7.7.7.7.7.7.7.7.7.7.7.",
"I.7.7.7.7.7.7.7.7.7.7.7.7.7.7.  o o BXCXBXBXX X X   @   X X X X X X . X X X X @ @ @ @ @ @ @   7.7.7.7.7.7.7.*.' % [ 7.7.7.7.7.7.",
"I.7.7.7.7.7.7.7.7.7.7.7.7.7.7.    X X X BXBXX X X   @   . . . X X X X X X X X X X X X @ @ @   7.7.7.7.7.7.7.+.D k b 7.7.7.7.7.7.",
"I.7.7.7.7.7.7.7.7.7.7.7.7.7.7.p.Q.    X X X X X X   @ @   X X . . . X X X X X X X X @ @ @   7.7.7.7.7.7.7.7.J.c.a.7.7.7.7.7.7.7.",
"P.4.A X.7.7.7.7.7.7.7.7.7.7.7.G.XX]..       X X X @ @ @   X X X X X X X X X X X @ @ @ X X   7.7.7.7.7.7.7.7.oXa.[.7.;.q } #.7.7.",
"H.h ` K 7.7.7.O.^ +.;.7.7.7.7.7.7.7.7.. . X     @ @ @ @ @     X X X X X X X X X X X X X   7.;.) 2.7.7.7.7.7.7.7.7.7.) d ^ #.7.7.",
"I.7.7.7.7.7.7.b c 1 K 7.7.7.7.7.7.7.7.7.7.. . .   @ @ @ @ @ @     X X X X X X X X X     7.7.4 o.> 7.7.7.7.7.7.7.7.7.7.7.7.7.7.7.",
"I.7.7.7.$X7.7.7.7.7.7.7.7.7.7.7.7.7.7.7.7.7.7.{.j.      @ @ @ @ @     X X X X       m.+X7.7.7.7.7.7.7.7.7.7.7.7.7.7.7.7.7.7.wX7.",
"I.7.7.vXhXMXs.7.7.7.7.7.7.7.7.7.7.7.7.7.7.7.dXnX;X&X  O     . . X X X         O 7.0XqXbXOX7.7.7.7.7.7.7.7.7.7.7.7.7.7.7.T.iXlXdX",
"I.7.7.w.e.u.7.7.7.7.7.7.7.7.7.7.7.7.7.7.7.7.0.s.f.O + + + + O O O + # # # O O O   7.e.d.7.7.7.7.7.7.7.7.7.7.7.7.7.7.7.7.7.w.0.s.",
"I.7.7.7.7.7.7.7.7.7.7.7.7.7.7.7.7.7.7.7.7.7.7.7.7.O         O   # #       O + +   7.7.7.7.7.7.7.7.7.7.7.7.7.7.7.7.7.7.7.7.7.7.7.",
"I.7.7.7.9.7.7.7.7.7.w.7.7.7.2.7.7.7.7.7.7.7.7.q.7.7.7.7.7.q.7.    O 7.7.7.7.    7.7.q.7.7.7.7.7.7.q.7.7.:.7.7.7.7.7.7.7.7.r.8.7.",
"I.7.r.i.Z.Z.7.7.7.oX8XZ.,.X.j g 7.7.7.7.7.7.z.A.B.7.7.7.b.4Xz.G.Y j g 7.7.7.7.7.7.G.4XV.7.7.7.v.G.[.V.Y z z 4.7.7.7.7.7.g.6Xn.Z.",
"I.7.7.B.p.7.7.7.7.Z.q.v.7.L 2.-.7.s.8.7.7.7.M.7.y.7.7.7.g.z.x.7.L 7.O.7.8.q.7.7.7.v.8.y.7.7.7.7.b.Z.q.` 7.+.7.7.r.7.7.7.q.G.u.7.",
"I.7.7.7.7.7.7.7.7.7.7.7.7.7.7.7.J.uXz.G.7.7.7.7.7.7.7.7.7.7.7.7.7.7.7.J.t.<Xg.7.7.7.7.7.7.7.7.7.7.7.7.7.7.7.y.p.8Xg.7.7.7.7.7.7.",
"Y.7.7.7.7.7.7.7.7.7.7.7.7.7.7.7.L.Z.V.7.7.7.7.7.7.7.7.7.7.7.7.7.7.7.7.7.F..Xa.7.7.7.7.7.7.7.7.7.7.7.7.7.7.7.7.F.z.Z.7.7.7.7.7.7.",
"I.7.7.7.7.7.7.7.7.7.7.7.7.7.7.7.7.7.7.7.7.7.7.7.7.7.7.7.7.7.7.7.7.7.7.7.7.7.7.7.7.7.7.7.7.7.7.7.7.7.7.7.7.7.7.7.7.7.7.7.7.7.7.7.",
"Y.7.7.7.7.7.7.7.7.7.7.7.7.7.7.7.7.7.7.7.7.7.7.7.7.7.7.7.7.7.7.7.7.7.7.7.7.7.7.7.7.7.7.7.7.7.7.7.7.7.7.7.7.7.7.7.7.7.7.7.7.7.7.7.",
"I.7.7.7.7.7.7.7.7.7.7.7.7.7.7.7.&.k $.2.7.7.7.7.7.7.7.7.7.7.7.7.7.7.7.%.} v 2.7.7.7.7.7.7.7.7.7.7.7.7.7.7.7.4.2.u 2.7.7.7.7.7.7.",
"Y.7.7.7.7.7.7.7.7.7.7.7.7.7.7.7.S < 7 ' 7.7.7.7.7.7.7.7.7.7.7.7.7.7.7.) U > ~ 7.7.7.7.7.7.7.7.7.7.7.7.7.7.7.*.D k b 7.7.7.7.7.7.",
"I.7.7.7.7.7.7.7.7.7.7.7.7.7.7.w.B. Xq.7.7.7.7.7.7.7.7.7.7.7.7.7.7.7.9.r.c.q.7.7.7.7.7.7.7.7.7.7.7.7.7.7.7.7.y.c.q.7.7.7.7.7.7.7.",
"U.5.F 2.7.7.7.7.7.7.7.7.7.7.7.G.B.(.p.7.4.H 2.7.7.7.7.7.7.7.7.7.7.7.a.B.p.S.7.4.e 4.7.7.7.7.7.7.7.7.7.7.7.7. Xa. X7.4.a =.4.7.7.",
"k.< A ; 7.7.7.7.-.2.7.7.7.7.7.7.7.7.7.7.5 I & 7.7.7.7.7.+.7.7.7.7.7.7.7.7.7.7.y : 6 2.7.7.7.7.@.7.7.7.7.7.7.7.7.7.7.A 3 m W 7.7.",
"I.2.7.7.7.7.7.M m S ^ 7.7.7.7.7.7.7.7.7.3.7.5.7.7.7.-.a D n 7.7.7.7.7.7.7.7.7.4.5.4.7.7.7.7.u X.k 7.7.7.7.7.7.7.7.7.5.4.4.7.7.7."
};
