/* XPM */
static char *result[] = {
/* columns rows colors chars-per-pixel */
"64 64 231 2 ",
"   c black",
".  c #3A2129",
"X  c #524A4A",
"o  c #736363",
"O  c #9C4A21",
"+  c #D67300",
"@  c #8C7373",
"#  c #FF9429",
"$  c #4FDD90",
"%  c #50DF91",
"&  c #4FE390",
"*  c #4DE590",
"=  c #4FE590",
"-  c #4EE790",
";  c #4FE791",
":  c #4FE891",
">  c #4FEA91",
",  c #4FED91",
"<  c #4FEE91",
"1  c #51E091",
"2  c #50E290",
"3  c #51E391",
"4  c #50E591",
"5  c #50E691",
"6  c #51E691",
"7  c #50E791",
"8  c #51E592",
"9  c #54E791",
"0  c #50E891",
"q  c #51E891",
"w  c #50E991",
"e  c #51E991",
"r  c #50EA91",
"t  c #50EB91",
"y  c #51E992",
"u  c #52E892",
"i  c #52E992",
"p  c #51EA92",
"a  c #50EB92",
"s  c #51EB92",
"d  c #52EB92",
"f  c #50EC92",
"g  c #51EC92",
"h  c #50ED92",
"j  c #51ED92",
"k  c #52EC92",
"l  c #52ED92",
"z  c #52ED93",
"x  c #51EE92",
"c  c #50EF92",
"v  c #51EF92",
"b  c #52EE93",
"n  c #52EF93",
"m  c #5BEF95",
"M  c #5BEF96",
"N  c #5FED98",
"B  c #4FF091",
"V  c #50F092",
"C  c #51F092",
"Z  c #50F192",
"A  c #51F192",
"S  c #51F193",
"D  c #52F093",
"F  c #52F193",
"G  c #50F292",
"H  c #51F292",
"J  c #50F392",
"K  c #51F392",
"L  c #51F393",
"P  c #52F293",
"I  c #52F393",
"U  c #56F193",
"Y  c #57F193",
"T  c #55F292",
"R  c #50F492",
"E  c #51F492",
"W  c #51F493",
"Q  c #51F593",
"!  c #52F493",
"~  c #52F593",
"^  c #50F692",
"/  c #51F693",
"(  c #50F793",
")  c #51F793",
"_  c #52F693",
"`  c #53F693",
"'  c #52F793",
"]  c #54F194",
"[  c #53F694",
"{  c #58F194",
"}  c #5AF397",
"|  c #50F893",
" . c #51F893",
".. c #51F993",
"X. c #52F893",
"o. c #52F993",
"O. c #51FA93",
"+. c #51FB93",
"@. c #52FA93",
"#. c #52FB93",
"$. c #51FC93",
"%. c #52F994",
"&. c #53F994",
"*. c #52FA94",
"=. c #52FB94",
"-. c #53FB94",
";. c #55FA95",
":. c #56FA95",
">. c #57F896",
",. c #51FD94",
"<. c #52FC94",
"1. c #53FC94",
"2. c #52FD94",
"3. c #52FE94",
"4. c #53FE94",
"5. c #52FF94",
"6. c #53FF94",
"7. c #53FE95",
"8. c #53FF95",
"9. c #54FE95",
"0. c #55FE95",
"q. c #54FF95",
"w. c #55FD96",
"e. c #57FC96",
"r. c #56FD96",
"t. c #57FD96",
"y. c #57FC97",
"u. c #57FD97",
"i. c #55FE96",
"p. c #56FE96",
"a. c #57FE96",
"s. c #58FC97",
"d. c #59FD97",
"f. c #58FB98",
"g. c #59FB98",
"h. c #5AFB98",
"j. c #5BFA99",
"k. c #5AFB99",
"l. c #5BFB99",
"z. c #5CFA99",
"x. c #5CFB99",
"c. c #5EFB99",
"v. c #5DF99A",
"b. c #5FF89B",
"n. c #5EF99B",
"m. c #5FF99B",
"M. c #5CFA9A",
"N. c #5DFA9A",
"B. c #5CFB9A",
"V. c #5EFA9A",
"C. c #5EFA9B",
"Z. c #58FC98",
"A. c #59FC98",
"S. c #58FD98",
"D. c #5AFC98",
"F. c #5BFC98",
"G. c #5AFC99",
"H. c #58FE98",
"J. c #58FF98",
"K. c #58FE99",
"L. c #58FF99",
"P. c #5CFC98",
"I. c #5CFD98",
"U. c #5EFC99",
"Y. c #5FFC9A",
"T. c #5FF99C",
"R. c #62EB9A",
"E. c #63EB9A",
"W. c #64EA9B",
"Q. c #65E99C",
"!. c #62F79D",
"~. c #63F69E",
"^. c #63F79E",
"/. c #66F79D",
"(. c #65F59F",
"). c #66F59F",
"_. c #64F69E",
"`. c #6AF69F",
"'. c #61F99B",
"]. c #60F89C",
"[. c #61F89C",
"{. c #60F99C",
"}. c #61F89D",
"|. c #64F89C",
" X c #64F99C",
".X c #66F89D",
"XX c #67F89D",
"oX c #64FA9C",
"OX c #68F99E",
"+X c #79EEA7",
"@X c #7AEFA8",
"#X c #7FEEAA",
"$X c #67F4A0",
"%X c #66F5A0",
"&X c #67F5A0",
"*X c #67F4A1",
"=X c #68F3A1",
"-X c #69F3A1",
";X c #69F3A2",
":X c #6AF2A2",
">X c #6AF3A2",
",X c #6CF1A3",
"<X c #6BF7A0",
"1X c #6CF5A0",
"2X c #6CF6A0",
"3X c #6DF6A0",
"4X c #6FF4A2",
"5X c #6FF6A2",
"6X c #6CF1A4",
"7X c #6DF1A4",
"8X c #72F3A3",
"9X c #70F5A2",
"0X c #71F5A2",
"qX c #71F4A3",
"wX c #71F5A3",
"eX c #72F4A3",
"rX c #73F4A3",
"tX c #72F5A3",
"yX c #75F2A5",
"uX c #75F3A5",
"iX c #76F4A5",
"pX c #78F1A7",
"aX c #79F1A7",
"sX c #78F3A6",
"dX c #79F2A7",
"fX c #7BF2A8",
"gX c #7CF0A9",
"hX c #AD9C9C",
"jX c gray71",
"kX c #D6DEDE",
"lX c white",
/* pixels */
"} T T T M T T T T T Q.T T T 9 T T T T T T T T m T T T T T R.U T T 9 T T T T T T T T E.T T T T T Y N T T 9 T T T T T T T T W.{ T ",
"J.5.w.!.N.M.5.5.5.>X^._.;.r A p 5.5.5.5.5.5._.u.[.5.5.5.[.).!.A.4 _ 8 5.5.5.5.5.5.}.].!.5.5.5.l.].%X].p / u 2.5.5.5.5.5.l.&Xn.M.",
"J.5.5.l.p.5.5.5.5.D.7.s.5.| 2.<.5.u.6.5.5.5.k.5.i.5.5.5.r.u.A.5.| 5.@.5.5.w.5.5.5.A.6.i.5.5.5.5.A.A.7.O.5.=.5.5.r.5.5.5.9.u.r.5.",
"J.5.5.5.5.5.5.5.5.5.5.5.5.5.5.5.N.-XN.g.5.5.5.5.5.5.5.5.5.5.5.5.5.5.5.l.y.(.g.5.5.5.5.5.5.5.5.5.5.5.5.5.5.5.r.A.$Xz.5.5.5.5.5.5.",
"J.5.5.5.5.5.5.5.5.5.5.5.5.5.5.5.u.A.h.5.5.5.5.5.5.5.5.5.5.5.5.5.5.5.5.5.r.j.9.5.5.5.5.5.5.5.5.5.5.5.5.5.5.5.5.r.u.A.5.5.5.5.5.5.",
"J.5.5.5.5.5.5.5.5.5.5.5.5.5.5.5.5.5.5.5.5.5.5.5.5.5.5.5.5.5.5.5.5.5.5.5.5.5.5.5.5.5.5.5.5.5.5.5.5.5.5.5.5.5.5.5.5.5.5.5.5.5.5.5.",
"J.5.5.5.5.5.5.5.5.5.5.5.5.5.5.5.5.5.5.5.5.5.5.5.5.5.5.5.5.5.5.5.5.5.5.5.5.5.5.5.5.5.5.5.5.5.5.5.5.5.5.5.5.5.5.5.5.5.5.5.5.5.5.5.",
"J.5.5.5.5.5.5.5.5.5.5.5.5.5.5.5.~ = _ ~ 5.5.5.5.5.5.5.5.5.5.5.5.5.5.5.~ ] q ` 5.5.5.5.5.5.5.5.5.5.5.5.5.5.5.*.' 1 [ 5.5.5.5.5.5.",
"J.5.5.5.5.5.5.5.5.5.5.5.5.5.5.5. .^ d 5.5.5.5.5.5.5.5.5.5.5.5.5.5.5.5.5.O.G 2.5.5.5.5.5.5.5.5.5.5.5.5.5.5.5.5.O. .^ 5.5.5.5.5.5.",
"J.5.5.5.5.5.5.5.5.5.5.5.5.5.5.m.*X%XA.5.5.5.5.5.5.5.5.5.5.5.5.5.5.5.u.].C.D.5.5.5.5.5.5.5.5.5.5.5.5.5.5.5.5._.C.D.5.5.5.5.5.5.5.",
"S.,.v ) 5.5.5.5.5.5.5.5.5.5.5.s.m.(.s.5.@.v  .5.5.5.5.5.5.5.5.5.5.5.0.m.y.].5.@.-  .3.5.5.5.5.5.5.5.5.5.5.5.].i.~.5.@.7 [ O.5.5.",
"S., ) H 5.5.5.' ! o.*.5.5.5.5.5.5.5.5.5.> #.x 5.5.5.2.X.L *.5.5.5.5.5.5.5.5.5.V J v 3.5.5.5.=./ <.5.5.5.5.5.5.5.5.5.) f W +.5.5.",
"J.5.5.5.5.5.5.' I x ' 5.5.5.5.5.5.5.5.5.5.5.5.5.5.5.2.n I C 5.5.5.5.5.5.5.5.5.5.5.5.5.5.5.5.i =.g 5.5.5.5.5.5.5.5.5.5.5.5.5.5.5.",
"J.5.5.U.5XI.q.5.5.5.5.5.5.5.5.5.5.5.5.5.5.5.Y.qX'.P.5.5.X       5.5.5.5.5.5.5.5.5.c..X<Xd.5.5.5.5.5.5.5.5.5.5.5.5.5.5.5.p.F.iXd.",
"J.5.5.fXeX#Xa.5.5.5.5.5.5.5.5.5.5.5.5.5.5.5.uXaX+X`.5.5.5.X o o   5.5.5.5.5.5.5.5.4X2XpX/.5.5.5.5.5.5.5.5.5.5.5.5.5.5.5.c.yXuXrX",
"J.5.5.0.q.p.5.5.5.5.5.5.5.5.5.5.5.5.5.5.5.5.6.0.p.5.5.5.5.5.X o o   5.5.5.5.5.5.5.5.8.p.5.5.5.5.5.5.5.5.5.5.5.5.5.5.5.5.5.0.6.0.",
"J.5.5.5.5.5.5.5.5.5.5.5.5.5.5.5.5.5.5.5.5.5.5.5.5.5.5.5.5.5.X o X   5.5.5.5.5.5.5.5.5.5.5.5.5.5.5.5.5.5.5.5.5.5.5.5.5.5.5.5.5.5.",
"J.5.5.5.u.5.5.5.5.5.m.5.5.5.) 5.5.5.5.5.5.5.5.u.5.5.5.5.5.  X X X   5.5.5.5.5.5.5.5.N.5.5.5.5.5.9.h.5.5.' 5.5.5.5.5.5.5.5.V.9.5.",
"J.5.r.y.N.v.5.5.5.!.,XV.:.~ g g 5.5.5.5.5.5.h.x.m.5.      . X X   x d 5.5.5.5.5.5.A.=X].5.5.5.M.A._.].F x k 2.5.5.5.5.5.A.>Xx.V.",
"J.5.5.z.r.5.5.5.5.l.9.A.5.K <.=.5.h.7.5.5.5.l.      o o o o o   . 5.o.5.7.s.5.5.5.h.6.r.5.5.5.5.h.l.9.) 5.o.5.5.h.5.5.5.9.s.r.5.",
"J.5.5.5.5.5.5.5.5.5.5.5.5.5.5.5.].-Xb.z.5.    jXjXjXo o o o o o o X 5.n.s.).j.5.5.5.5.5.5.5.5.5.5.5.5.5.5.5.u.M.$Xn.5.5.5.5.5.5.",
"J.5.5.5.5.5.5.5.5.5.5.5.5.5.5.5.i.r.u.5.  X lXlXlXlXlXo o o o o o o X 5.9.s.7.5.5.5.5.5.5.5.5.5.5.5.5.5.5.5.5.9.i.r.5.5.5.5.5.5.",
"J.5.5.5.5.5.5.5.5.5.5.5.5.5.5.5.5.5.5.  X lXlXlXlXlXlXjXo o o o o o o X 5.5.5.5.5.5.5.5.5.5.5.5.5.5.5.5.5.5.5.5.5.5.5.5.5.5.5.5.",
"J.5.5.5.5.5.5.5.5.5.5.5.5.5.5.5.5.5.5.  jXlXlXlXlXlXlXlXo o o o o o o X 5.5.5.5.5.5.5.5.5.5.5.5.5.5.5.5.5.5.5.5.5.5.5.5.5.5.5.5.",
"J.5.5.5.5.5.5.5.5.5.5.5.5.5.5.5.R *   X lXlXlXlXlXlXlXjXo o o o o o o o X 5 / 5.5.5.5.5.5.5.5.5.5.5.5.5.5.5.' W $ / 5.5.5.5.5.5.",
"J.5.5.5.5.5.5.5.5.5.5.5.5.5.5.5. .^   X lXlXlXlXlXlXjXo o jXjXjXo o o o X G <.5.5.5.5.5.5.5.5.5.5.5.5.5.5.5.5... .^ 5.5.5.5.5.5.",
"J.5.5.5.5.5.5.5.5.5.5.5.5.5.5.t.m.  jXjXlXlXlXlXlXjXjXlXlXlXlXlXlXo o o o X 5.5.5.5.5.5.5.5.5.5.5.5.5.5.5.5.s.k.0.5.5.5.5.5.5.5.",
"H.2.A %.5.5.5.5.5.5.5.5.5.5.5.A.m.    lXlXlXlXlXlXlX      lXlXlXlXjXo o o X 5.2.0 *.5.5.5.5.5.5.5.5.5.5.5.5.].i.[.5.<.w &.=.5.5.",
"S., Q l 5.5.5.+.' @.<.5.5.5.5.5.5.  lX  lXlXlXlXlXX   lX  X lXlXlXlXo o o X 5.j j . . . 5.5.<. .2.5.5.5.5.5.5.5.5.5.! e I X.5.5.",
"J.5.5.5.5.5.5.E D B Q 5.5.5.5.5.5.  kX  O O lXlXlXX   lX  X lXlXlXlXo o X   5.5.. lXlXlX. 5.0 +., 5.5.5.5.5.5.5.5.5.5.5.5.5.5.5.",
"J.5.5.5.oX5.5.5.5.5.5.5.5.5.5.5.5.. X O # # O jXlXX   jX  X lXlXlXkXX X X   .   X lXlXlX. 5.5.5.5.5.5.5.5.5.5.5.5.5.5.5.5.5.OX5.",
"J.5.5.uX9X@X0.5.5.5.5.5.5.5.5.5.5.. . # # # # # O lX      kXkXkXkXjXX X X   o o jXlXlXlX      5.5.5.5.5.5.5.5.5.5.5.5.5.d.4XtX0X",
"J.5.5.9.4.0.5.5.5.5.5.5.5.5.5.5.    O # # # . X X kXkXkXkXkXkXkXjXX X X X X   o lXlXlXo o o o   5.5.5.5.5.5.5.5.5.5.5.5.5.7.6.9.",
"J.5.5.5.5.5.5.5.5.5.5.5.5.5.5.  o o o O   . O O . kXkXkXkXkXkXjXX X X X X X     lXlXjXo o o o   5.5.5.5.5.5.5.5.5.5.5.5.5.5.5.5.",
"J.5.5.5.i.5.5.5.5.5.D.5.5.5.  o o       jXjX. . jXjXkXkXjXX X X X X X X X X X     lXo o o o   5.7.t.5.5.#.5.5.5.5.5.5.5.5.A.7.5.",
"J.5.u.v.m.[.5.5.5.;X6X^.>.R       X X X . X X X X X X X X X X X X X X hXhXhX      jXo o X   5.m.z.$X_.A v a 2.5.5.5.5.5.l.,Xn.[.",
"J.5.5.l.p.5.5.5.5.D.9.A.5.( 2.<.X . X   @ X X X   X X X X   X X X   hXhXhXhXhXhX  X .     5.5.5.A.D.9.O.5.=.5.5.w.5.5.5.9.u.r.5.",
"J.5.5.5.5.5.5.5.5.5.5.5.5.5.5.X @ X   hXhX  X   kX. X X   hX  X   hXhXhXhXhXhX@ @   X X   5.5.5.5.5.5.5.5.5.r.k.=Xz.5.5.5.5.5.5.",
"J.5.5.5.5.5.5.5.5.5.5.5.5.5.5.X @ X hXhXhX    kXlXlX.   hXhXhX  X hXhXhXhXhX@ @ o   X     5.5.5.5.5.5.5.5.5.5.s.h.N.5.5.5.5.5.5.",
"J.5.5.5.5.5.5.5.5.5.5.5.5.5.5.X @ X hXhXhXkXlXlXlXlXlXlXlXhXhXhXX hXhXhX@ @ @ X X .   X   5.5.5.5.5.5.5.5.5.5.5.5.5.5.5.5.5.5.5.",
"J.5.5.5.5.5.5.5.5.5.5.5.5.5.5.X @ X hXhXhXlXlXlXlXlXlXlXlXhXhXhXX @ @ @ @ @ @ @ X X X X 5.5.5.5.5.5.5.5.5.5.5.5.5.5.5.5.5.5.5.5.",
"J.5.5.5.5.5.5.5.5.5.5.5.5.5.5.5.X X hXhXhXkXlXlXlXlXlXlXkXhXhXhX@ . @ @ @ @ X X X X X   5.5.5.5.5.5.5.5.5.5.%._ % ' 5.5.5.5.5.5.",
"J.5.5.5.5.5.5.5.5.5.5.5.5.5.5.5.X @ X @ hXhXkXlXlXlXlXlXhXhX@ @ @ . @ X X @ X X X X X 5.5.5.5.5.5.5.5.5.5.5.o.A h c 5.5.5.5.5.5.",
"J.5.5.5.5.5.5.5.5.5.5.5.5.5.5.u.T.X   @ @ @ hXhXlXlXkX@ hX@ hX@ @ @ . X X X X X X X   5.5.5.5.5.5.5.5.5.5.5.D.k.i.5.5.5.5.5.5.5.",
"H.2.C  .5.5.5.5.5.5.5.5.5.5.5.A.{.).X   @ @ @ @ @ @ @ hX@ hX@ @ @ @ @   X X X X     3.5.5.5.5.5.5.5.5.5.5.5.}.i._.5.=.0 [ +.5.5.",
"S.f ) H 5.5.5.X.! o.=.5.5.5.5.5.5.5.5.5.    @ @ @ @ @ @ @ @ @ @ @ @ @ @         G x 3.5.5.5.=./ <.5.5.5.5.5.5.5.5.5./ s ! +.5.5.",
"J.5.5.5.5.5.5.c z < H 5.5.5.5.5.5.5.5.5.5.5.    X @ @ @ @ @ @ @ @ .     5.5.5.5.5.5.5.5.5.5.3 ..> 5.5.5.5.5.5.5.5.5.5.5.5.5.5.5.",
"J.5.5.5.XX5.5.5.5.5.5.5.5.5.5.5.5.5.5.5.O O O +       . .         + + + O 5.5.5.5.5.c. X5.5.5.5.5.5.5.5.5.5.5.5.5.5.5.5.5.5.3X5.",
"J.5.5.sXtXgXp.5.5.5.5.5.5.5.5.5.5.5.5.  # O # O + +   O 5.  + . # O #     5.5.5.5.1X2XdX|.5.5.5.5.5.5.5.5.5.5.5.5.5.5.5.P.8XiXwX",
"J.5.5.0.q.t.5.5.5.5.5.5.5.5.5.5.5.5.5.    # O       5.5.O # O # O +   5.5.5.5.5.5.5.q.a.5.5.5.5.5.5.5.5.5.5.5.5.5.5.5.5.5.0.8.p.",
"J.5.5.5.5.5.5.5.5.5.5.5.5.5.5.5.5.5.5.5.      5.5.5.5.5.    . #   #   5.5.5.5.5.5.5.5.5.5.5.5.5.5.5.5.5.5.5.5.5.5.5.5.5.5.5.5.5.",
"J.5.5.5.7.5.5.5.5.5.0.5.5.5.<.5.5.5.5.5.5.5.5.9.5.5.5.5.5.9.  .     5.5.5.5.5.5.5.5.9.5.5.5.5.5.5.9.5.5.-.5.5.5.5.5.5.5.5.w.6.5.",
"J.5.w.y.N.N.5.5.5.}.,XN.:. .g d 5.5.5.5.5.5.h.B.n.5.5.5.z.-Xh.A.I g d 5.5.5.5.5.5.A.-Xm.5.5.5.l.A._.m.I k k 2.5.5.5.5.5.s.:Xx.N.",
"J.5.5.n.u.5.5.5.5.N.9.l.5.J <.*.5.p.6.5.5.5.v.5.r.5.5.5.s.h.j.5.J 5.X.5.6.9.5.5.5.l.6.r.5.5.5.5.z.N.9.) 5.o.5.5.w.5.5.5.9.A.t.5.",
"J.5.5.5.5.5.5.5.5.5.5.5.5.5.5.5.D.7Xh.A.5.5.5.5.5.5.5.5.5.5.5.5.5.5.5.D.e.%Xs.5.5.5.5.5.5.5.5.5.5.5.5.5.5.5.r.u.,Xs.5.5.5.5.5.5.",
"L.5.5.5.5.5.5.5.5.5.5.5.5.5.5.5.G.N.m.5.5.5.5.5.5.5.5.5.5.5.5.5.5.5.5.5.Z.[.i.5.5.5.5.5.5.5.5.5.5.5.5.5.5.5.5.Z.h.N.5.5.5.5.5.5.",
"J.5.5.5.5.5.5.5.5.5.5.5.5.5.5.5.5.5.5.5.5.5.5.5.5.5.5.5.5.5.5.5.5.5.5.5.5.5.5.5.5.5.5.5.5.5.5.5.5.5.5.5.5.5.5.5.5.5.5.5.5.5.5.5.",
"L.5.5.5.5.5.5.5.5.5.5.5.5.5.5.5.5.5.5.5.5.5.5.5.5.5.5.5.5.5.5.5.5.5.5.5.5.5.5.5.5.5.5.5.5.5.5.5.5.5.5.5.5.5.5.5.5.5.5.5.5.5.5.5.",
"J.5.5.5.5.5.5.5.5.5.5.5.5.5.5.5.$.h @.<.5.5.5.5.5.5.5.5.5.5.5.5.5.5.5.#.[ x <.5.5.5.5.5.5.5.5.5.5.5.5.5.5.5.2.<.y <.5.5.5.5.5.5.",
"L.5.5.5.5.5.5.5.5.5.5.5.5.5.5.5.Z , 6 _ 5.5.5.5.5.5.5.5.5.5.5.5.5.5.5./ P > Q 5.5.5.5.5.5.5.5.5.5.5.5.5.5.5.%.A h c 5.5.5.5.5.5.",
"J.5.5.5.5.5.5.5.5.5.5.5.5.5.5.0.n.].9.5.5.5.5.5.5.5.5.5.5.5.5.5.5.5.7.w.k.9.5.5.5.5.5.5.5.5.5.5.5.5.5.5.5.5.r.k.9.5.5.5.5.5.5.5.",
"K.3.S <.5.5.5.5.5.5.5.5.5.5.5.A.n.!.u.5.2.F <.5.5.5.5.5.5.5.5.5.5.5.i.n.u.V.5.2.w 2.5.5.5.5.5.5.5.5.5.5.5.5.].i.].5.2.p &.2.5.5.",
"f., C ; 5.5.5.5.*.<.5.5.5.5.5.5.5.5.5.5.4 L & 5.5.5.5.5.o.5.5.5.5.5.5.5.5.5.5.t : 5 <.5.5.5.5.O.5.5.5.5.5.5.5.5.5.5.C 2 b R 5.5.",
"J.<.5.5.5.5.5.n b Z ! 5.5.5.5.5.5.5.5.5.1.5.3.5.5.5.*.p A v 5.5.5.5.5.5.5.5.5.2.3.2.5.5.5.5.y  .h 5.5.5.5.5.5.5.5.5.3.2.2.5.5.5."
};
