/* XPM */
static char *result[] = {
/* columns rows colors chars-per-pixel */
"64 64 175 2 ",
"   c #383018",
".  c #403828",
"X  c #384020",
"o  c #506818",
"O  c #404028",
"+  c #485020",
"@  c #484038",
"#  c #504838",
"$  c #605038",
"%  c #506020",
"&  c #607820",
"*  c #386058",
"=  c #705840",
"-  c #886840",
";  c #688820",
":  c #709020",
">  c #789820",
",  c #308068",
"<  c #409878",
"1  c #88A828",
"2  c #4FDD90",
"3  c #50DF91",
"4  c #4FE390",
"5  c #4FE791",
"6  c #4FE891",
"7  c #4FED91",
"8  c #51E091",
"9  c #50E290",
"0  c #50E591",
"q  c #50E691",
"w  c #50E791",
"e  c #51E592",
"r  c #54E791",
"t  c #50E891",
"y  c #50E991",
"u  c #51E991",
"i  c #50EA91",
"p  c #50EB91",
"a  c #51E992",
"s  c #52E892",
"d  c #51EA92",
"f  c #51EB92",
"g  c #50EC92",
"h  c #50ED92",
"j  c #52ED92",
"k  c #50EF92",
"l  c #51EF92",
"z  c #52EE93",
"x  c #52EF93",
"c  c #5BEF95",
"v  c #5BEF96",
"b  c #5FED98",
"n  c #51F092",
"m  c #50F192",
"M  c #51F192",
"N  c #51F193",
"B  c #52F193",
"V  c #51F292",
"C  c #51F393",
"Z  c #52F393",
"A  c #56F193",
"S  c #57F193",
"D  c #55F292",
"F  c #50F492",
"G  c #51F492",
"H  c #51F493",
"J  c #51F593",
"K  c #52F493",
"L  c #50F692",
"P  c #51F693",
"I  c #51F793",
"U  c #52F693",
"Y  c #52F793",
"T  c #53F694",
"R  c #58F194",
"E  c #5AF397",
"W  c #50F893",
"Q  c #51F893",
"!  c #52F893",
"~  c #52F993",
"^  c #51FA93",
"/  c #51FB93",
"(  c #52FA93",
")  c #52F994",
"_  c #53F994",
"`  c #52FA94",
"'  c #52FB94",
"]  c #55FA95",
"[  c #51FD94",
"{  c #52FC94",
"}  c #53FC94",
"|  c #52FD94",
" . c #52FE94",
".. c #53FE94",
"X. c #52FF94",
"o. c #53FF94",
"O. c #53FE95",
"+. c #53FF95",
"@. c #54FE95",
"#. c #55FE95",
"$. c #54FF95",
"%. c #55FD96",
"&. c #56FD96",
"*. c #57FD96",
"=. c #57FC97",
"-. c #57FD97",
";. c #55FE96",
":. c #56FE96",
">. c #57FE96",
",. c #58FC97",
"<. c #59FD97",
"1. c #58FB98",
"2. c #5AFB98",
"3. c #5AFB99",
"4. c #5BFB99",
"5. c #5CFA99",
"6. c #5CFB99",
"7. c #5EFB99",
"8. c #5DF99A",
"9. c #5EF99B",
"0. c #5FF99B",
"q. c #5CFA9A",
"w. c #5DFA9A",
"e. c #5EFA9A",
"r. c #59FC98",
"t. c #58FD98",
"y. c #5AFC98",
"u. c #5BFC98",
"i. c #58FE98",
"p. c #58FF98",
"a. c #58FE99",
"s. c #58FF99",
"d. c #5CFC98",
"f. c #5CFD98",
"g. c #5EFC99",
"h. c #62EB9A",
"j. c #63EB9A",
"k. c #64EA9B",
"l. c #65E99C",
"z. c #62F79D",
"x. c #63F69E",
"c. c #63F79E",
"v. c #66F59F",
"b. c #64F69E",
"n. c #60F89C",
"m. c #61F89C",
"M. c #61F89D",
"N. c #67F89D",
"B. c #64FA9C",
"V. c #68F99E",
"C. c #7AEFA8",
"Z. c #7FEEAA",
"A. c #67F4A0",
"S. c #66F5A0",
"D. c #67F5A0",
"F. c #68F3A1",
"G. c #6AF2A2",
"H. c #6AF3A2",
"J. c #6CF1A3",
"K. c #6DF6A0",
"L. c #6FF4A2",
"P. c #6FF6A2",
"I. c #72F3A3",
"U. c #70F5A2",
"Y. c #71F5A2",
"T. c #71F5A3",
"R. c #72F4A3",
"E. c #73F4A3",
"W. c #72F5A3",
"Q. c #75F2A5",
"!. c #75F3A5",
"~. c #76F4A5",
"^. c #78F3A6",
"/. c #7BF2A8",
"(. c #7CF0A9",
/* pixels */
"E D D D v D D D D D l.D D D r D D D D D D D D c D D D D D h.A D D r D D D D D D D D j.D D D D D S b D D r D D D D D D D D k.R D ",
"p.X.%.z.w.q.X.X.X.H.c.b.] i M d X.X.X.X.X.X.b.-.m.X.X.X.m.v.z.r.0 U e X.X.X.X.X.X.M.n.z.X.X.X.4.n.S.n.d P s | X.X.X.X.X.4.D.9.q.",
"p.X.X.4.:.X.X.X.X.y.O.,.X.W | { X.-.o.X.X.X.3.X.;.X.X.X.&.-.r.X.W X.( X.X.%.X.X.X.r.o.;.X.X.X.X.r.r.O.^ X.' X.X.&.X.X.X.@.-.&.X.",
"p.X.X.X.X.X.X.X.X.X.X.X.X.X.X.X.X.X.X.X.X.X.X.X.X.X.X.X.X.X.X.X.X.X.X.X.X.X.X.X.X.X.X.X.X.X.X.X.X.X.X.X.X.X.X.X.A.5.X.X.X.X.X.X.",
"p.X.X.X.X.X.X.X.X.X.X.X.X.X.X.X.X.X.X.X.X.X.X.X.X.X.X.X.X.X.X.X.X.X.X.X.X.X.X.X.X.X.X.X.X.X.X.X.X.X.X.X.X.X.X.X.-.r.X.X.X.X.X.X.",
"p.X.X.X.X.X.X.X.X.X.X.X.X.X.X.X.X.X.X.X.X.X.X.X.X.X.X.X.X.X.X.X.X.X.X.X.X.X.X.X.X.X.X.X.X.X.X.X.X.X.X.X.X.X.X.X.X.X.X.X.X.X.X.X.",
"p.X.X.X.X.X.X.X.X.X.X.X.X.X.X.X.X.X.X.X.X.X.X.X.X.X.X.X.X.X.X.X.X.X.X.X.X.X.X.X.X.X.X.X.X.X.X.X.X.X.X.X.X.X.X.X.X.X.X.X.X.X.X.X.",
"p.X.X.X.X.X.X.X.X.X.X.X.X.X.X.X.X.X.X.X.X.X.X.X.X.X.X.X.X.X.X.X.X.X.X.X.X.X.X.X.X.X.X.X.X.X.X.X.X.X.X.X.X.X.X.X.8 T X.X.X.X.X.X.",
"p.X.X.X.X.X.X.X.X.X.X.X.X.X.X.X.X.X.X.X.X.X.X.X.X.X.X.X.X.X.& & & & X.X.X.X.X.X.X.X.X.X.X.X.X.X.X.X.X.X.X.X.X.X.Q L X.X.X.X.X.X.",
"p.X.X.X.X.X.X.X.X.X.X.X.X.X.X.X.X.X.X.X.X.X.X.X.X.X.X.% & & > > > > & % X.X.X.X.X.X.X.X.X.X.X.X.X.X.X.X.X.X.X.X.y.X.X.X.X.X.X.X.",
"t.[ l I X.X.X.X.X.X.X.X.X.X.X.X.X.X.X.X.X.X.X.X.% & & & > > > 1 1 > > & & & % X.X.X.X.X.X.X.X.X.X.X.X.X.X.X.X.X.x.X.( w T ^ X.X.",
"t.7 I V X.X.X.Y X.X.X.X.X.X.X.X.X.X.X.X.X.X.% % > > & > > > 1 1 1 1 > > & > > % % X.X.X.X.X.X.X.X.X.X.X.X.X.X.X.X.X.I g H / X.X.",
"p.X.X.X.X.X.X.Y X.X.X.X.X.X.X.X.X.X.X.X.X.% > > 1 1 > > > > 1 1 1 1 > > > > > > > % X.X.X.X.X.X.X.X.X.X.X.X.X.X.X.X.X.X.X.X.X.X.",
"p.X.X.g.P.f.$.X.X.X.X.X.X.X.X.X.X.X.X.X.% & & 1 1 1 1 1 1 1 > > > > > 1 1 1 > > & & % X.X.X.X.X.X.X.X.X.X.X.X.X.X.X.X.X.:.u.~.<.",
"p.X.X./.R.Z.>.X.X.X.X.X.X.X.X.X.X.X.X.X.O > 1 1 1 1 1 1 1 1 > > > > > 1 1 1 > > > > O X.X.X.X.X.X.X.X.X.X.X.X.X.X.X.X.X.7.Q.!.E.",
"p.X.X.#.$.:.X.X.X.X.X.X.X.X.X.X.X.X.X.O % > 1 1 1 1 1 1 1 1 > > > > > > > > > > > > % O X.X.X.X.X.X.X.X.X.X.X.X.X.X.X.X.X.#.o.#.",
"p.X.X.X.X.X.X.X.X.X.X.X.X.X.X.X.X.X.O % > > 1 1 1 1 1 1 1 1 1 > > > > > > > > > > > > % O X.X.X.X.X.X.X.X.X.X.X.X.X.X.X.X.X.X.X.",
"p.X.X.X.-.X.X.X.X.X.X.X.X.X.X.X.X.O & : > > > 1 1 1 1 1 1 1 1 1 1 1 > > > > > > : > > ; & O X.X.X.X.X.X.X.X.X.X.X.X.X.X.X.e.@.X.",
"p.X.&.=.w.8.X.X.X.X.X.X.X.X.X.X.X.O ; ; ; : > > 1 1 1 1 1 1 1 1 1 1 > > > > > > > : & ; & O X.X.X.X.X.X.X.X.X.X.X.X.X.X.r.H.6.e.",
"p.X.X.5.&.X.X.X.X.X.X.X.X.X.X.O + % ; ; : > > > 1 1 1 1 1 1 > > > > > > > > > > > > : & & & O O X.X.X.X.X.X.X.X.2.X.X.X.@.,.&.X.",
"p.X.X.X.X.X.X.X.X.X.X.X.X.X.O % % % & : > > > > > 1 1 1 > > > > > > > > > > > > > > : % & & % + O X.X.X.X.X.X.X.A.9.X.X.X.X.X.X.",
"p.X.X.X.X.X.X.X.X.X.X.X.X.X.+ % % & ; & > > > > > > > > > > > > > > > > > : > > > > : & & & & % O X.X.X.X.X.X.X.;.&.X.X.X.X.X.X.",
"p.X.X.X.X.X.X.X.X.X.X.X.X.O % % & : : & > > > > : > > > > > > > > > > > > > : : > > : & & & & % O O X.X.X.X.X.X.X.X.X.X.X.X.X.X.",
"p.X.X.X.X.X.X.X.X.X.X.X.X.O + ; : : : & & > > : : > > > > > > > > > > > > > : ; % : & % & + + + + O X.X.X.X.X.X.X.X.X.X.X.X.X.X.",
"p.X.X.X.X.X.X.X.X.X.X.X.O + O ; : : : & & & & : : > > > > > > > > > > > > > : : % % + & & ; + + + O O X.X.X.X.X.2 P X.X.X.X.X.X.",
"p.X.X.X.X.X.X.X.X.X.X.O + o + ; ; : : & & & & % : : > > : : > > > > > > > : : ; % & & & ; ; & + + + O O X.X.X.X.Q L X.X.X.X.X.X.",
"p.X.X.X.X.X.X.X.X.X.X.O o o + ; ; ; ; : & & & % : : : : : : > > > > : : : : ; % & & & & ; ; & + + + + O X.X.X.X.#.X.X.X.X.X.X.X.",
"i.| M ) X.X.X.X.X.X.X.+ o o o + ; ; + : : : & & % : : : % % > > > > : % : : & & & & & % ; & + + + + + X X.X.X.X.m.X.{ y _ ' X.X.",
"t.7 J j X.X.X./ X.X.X.+ o o o o + + ; : : : & & & & % % % % & > > > & % & & & & & & ; & + + + + + + X X X.X.X.X.X.X.K u Z ! X.X.",
"p.X.X.X.X.X.X.G X.X.X + + o o o o + ; : : ; ; & & & & ; & & % % % % % & & & & & & ; ; ; + + + + + + X O   X.X.X.X.X.X.X.X.X.X.X.",
"p.X.X.X.B.X.X.X.X.X.X + % o o o o o ; ; ; & ; ; ; ; ; ; ; ; ; & & & & & & & & ; ; ; ; ; + + + % + + + X   X.X.X.X.X.X.X.X.X.V.X.",
"p.X.X.!.U.C.#.X.X.X.  + % o o o o o + ; + ; ; ; ; ; ; ; ; ; ; ; & & ; ; ; & & ; ; ; ; & + + % + % + + +   X.X.X.X.X.X.X.<.L.W.Y.",
"p.X.X.@...#.X.X.X.X.  + O o o o o o o + + ; ; ; ; ; ; ; ; ; ; ; & & ; ; ; & & o + + + + + % + % + + X +   X.X.X.X.X.X.X.X.O.o.@.",
"p.X.X.X.X.X.X.X.X.X.  + O o o o o o o % % & ; ; ; & ; ; ; ; ; ; & & ; ; ; & & & % + + + % % % + % + X +   X.X.X.X.X.X.X.X.X.X.X.",
"p.X.X.X.;.X.X.X.X.X.  + + O o o + o o o o + & & & % ; ; ; ; ; & % & & & & & & & % % % % % + % % + X + +   X.X.X.X.X.X.X.X.r.O.X.",
"p.X.-.8.0.m.X.X.X.X.X.  + O + + + o o o o o + + + + & & & & & % % % & & & & & % % % % % % % + + + X +   X.X.X.X.X.X.X.X.4.J.9.m.",
"p.X.X.4.:.X.X.X.X.X.X.X.  O O O % o o % o o o o o o + + + + % % % % % % % % % % % % % % % % + X X O   X.X.X.X.X.%.X.X.X.@.-.&.X.",
"p.X.X.X.X.X.X.X.X.X.X.X.  O O O % o o + o o o o o o o o o o o % % % o o o % % % % % + % % % + X O O   X.X.X.X.X.F.5.X.X.X.X.X.X.",
"p.X.X.X.X.X.X.X.X.X.X.X.X.  + + O % % + o o o o o o o o o o o o % + o o o % % % % % % + % + X X +   X.X.X.X.X.X.2.w.X.X.X.X.X.X.",
"p.X.X.X.X.X.X.X.X.X.X.X.X.  + + + O O + o o o o o + o o o o o o % + % o o % + % % % % + + X X + + . X.X.X.X.X.X.X.X.X.X.X.X.X.X.",
"p.X.X.X.X.X.X.X.X.X.X.X.X.  O + + + + O o o o o + + o o o o o % + + + % % + + + % % + X X X O O . X.X.X.X.X.X.X.X.X.X.X.X.X.X.X.",
"p.X.X.X.X.X.X.X.X.X.X.X.X.X.. . + + + + O + + + + + % o o o o + + + + + + + X + + + X O O O O O . X.X.X.X.X.X.X.3 Y X.X.X.X.X.X.",
"p.X.X.X.X.X.X.X.X.X.X.X.X.X.X.X.. + + + + O O O O O + % % % % + + X + + + + X X X X O O + + O . X.X.X.X.X.X.X.X.h k X.X.X.X.X.X.",
"p.X.X.X.X.X.X.X.X.X.X.X.X.X.X.X.. + + . + + + + O O O O + + + O O O X X X X O O + + O . + + . . X.X.X.X.X.X.X.X.;.X.X.X.X.X.X.X.",
"i.| n Q X.X.X.X.X.X.X.X.X.X.X.X.< . . . O + + + + + O + + + + O O O O O O O + + + O . . . < X.X.X.X.X.X.X.X.X.X.b.X.' t T / X.X.",
"t.g I V X.X.X.! X.X.X.X.X.X.X.X.< < , , . + + + + + O + + + + + O O O O O O + + + . , , < < X.X.X.X.X.X.X.X.X.X.X.X.P f K / X.X.",
"p.X.X.X.X.X.X.k X.X.X.X.X.X.X.X.< < , , , . . + + O . O + + + + O O O . O O + . . , , , < < X.X.X.X.X.X.X.X.X.X.X.X.X.X.X.X.X.X.",
"p.X.X.X.N.X.X.X.X.X.X.X.X.X.X.X.< < , , , , @ . . . . . O O O O O O . . . . . @ , , , , < < X.X.X.X.X.X.X.X.X.X.X.X.X.X.X.X.K.X.",
"p.X.X.^.W.(.:.X.X.X.X.X.X.X.X.X.< < , , , @ $ $ $ $ # $ . . . . . . $ # # # # # @ , , , < < X.X.X.X.X.X.X.X.X.X.X.X.X.X.d.I.~.T.",
"p.X.X.#.$.*.X.X.X.X.X.X.X.X.X.X.< < , , , * # # # @ @ = $ $ $ $ $ $ = @ @ # # # * , , , < < X.X.X.X.X.X.X.X.X.X.X.X.X.X.X.#.+.:.",
"p.X.X.X.X.X.X.X.X.X.X.X.X.X.X.X.X.< < , , , * # @ @ @ # - = = = = - # @ @ @ # * , , , < < X.X.X.X.X.X.X.X.X.X.X.X.X.X.X.X.X.X.X.",
"p.X.X.X.O.X.X.X.X.X.X.X.X.X.X.X.X.< < , , , , , , , * @ # - - - - # @ * , , , , , , , < < X.X.X.X.X.X.X.X.X.X.X.X.X.X.X.X.%.o.X.",
"p.X.%.=.w.w.X.X.X.X.X.X.X.X.X.X.X.X.< < , , , , , , , * @ = - - = @ * , , , , , , , < < X.X.X.X.X.X.X.X.X.X.X.X.X.X.X.X.,.G.6.w.",
"p.X.X.9.-.X.X.X.X.X.X.X.X.X.X.X.X.X.< < < , , , , , , , * * = = * * , , , , , , , < < < X.X.X.X.X.X.X.X.X.X.X.X.%.X.X.X.@.r.*.X.",
"p.X.X.X.X.X.X.X.X.X.X.X.X.X.X.X.X.X.X.< < < , , , , , , , , , , , , , , , , , , < < < X.X.X.X.X.X.X.X.X.X.X.X.X.J.,.X.X.X.X.X.X.",
"s.X.X.X.X.X.X.X.X.X.X.X.X.X.X.X.X.X.X.X.< < < < , , , , , , , , , , , , , , < < < < X.X.X.X.X.X.X.X.X.X.X.X.X.X.2.w.X.X.X.X.X.X.",
"p.X.X.X.X.X.X.X.X.X.X.X.X.X.X.X.X.X.X.X.X.< < < < < < < < < < < < < < < < < < < < X.X.X.X.X.X.X.X.X.X.X.X.X.X.X.X.X.X.X.X.X.X.X.",
"s.X.X.X.X.X.X.X.X.X.X.X.X.X.X.X.X.X.X.X.X.X.X.X.< < < < < < < < < < < < < < X.X.X.X.X.X.X.X.X.X.X.X.X.X.X.X.X.X.X.X.X.X.X.X.X.X.",
"p.X.X.X.X.X.X.X.X.X.X.X.X.X.X.X.X.X.X.X.X.X.X.X.X.X.X.X.X.X.X.X.X.X.X.X.X.X.X.X.X.X.X.X.X.X.X.X.X.X.X.X.X.X.X.X.a { X.X.X.X.X.X.",
"s.X.X.X.X.X.X.X.X.X.X.X.X.X.X.X.X.X.X.X.X.X.X.X.X.X.X.X.X.X.X.X.X.X.X.X.X.X.X.X.X.X.X.X.X.X.X.X.X.X.X.X.X.X.X.X.h k X.X.X.X.X.X.",
"p.X.X.X.X.X.X.X.X.X.X.X.X.X.X.#.9.n.@.X.X.X.X.X.X.X.X.X.X.X.X.X.X.X.O.%.3.@.X.X.X.X.X.X.X.X.X.X.X.X.X.X.X.X.&.3.@.X.X.X.X.X.X.X.",
"a. .N { X.X.X.X.X.X.X.X.X.X.X.r.9.z.-.X.| B { X.X.X.X.X.X.X.X.X.X.X.;.9.-.e.X.| y | X.X.X.X.X.X.X.X.X.X.X.X.n.;.n.X.| d _ | X.X.",
"1.7 n 5 X.X.X.X.` { X.X.X.X.X.X.X.X.X.X.0 C 4 X.X.X.X.X.~ X.X.X.X.X.X.X.X.X.X.p 6 q { X.X.X.X.^ X.X.X.X.X.X.X.X.X.X.n 9 z F X.X.",
"p.{ X.X.X.X.X.x z m K X.X.X.X.X.X.X.X.X.} X. .X.X.X.` d M l X.X.X.X.X.X.X.X.X.|  .| X.X.X.X.a Q h X.X.X.X.X.X.X.X.X. .| | X.X.X."
};
